<svg xmlns="http://www.w3.org/2000/svg" width="192" height="192" viewBox="0 0 192 192"><g fill="none" stroke="#000" stroke-linecap="round" stroke-linejoin="round" stroke-width="8"><path d="M88.527 142.21a13.523 13.523 0 0 1-8.49 4.688c.62 6.265-2.801 12.332-8.79 14.778-7.312 2.986-15.596-.592-18.626-8.145a14.984 14.984 0 0 1-1.064-6.5h-9.19a24.059 24.059 0 0 0 1.708 9.99c4.876 12.158 18.643 18.173 30.631 13.278 11.028-4.504 16.768-16.7 13.821-28.09z" color="#000" filter="url(#filter4738)" style="font-feature-settings:normal;font-variant-alternates:normal;font-variant-caps:normal;font-variant-east-asian:normal;font-variant-ligatures:normal;font-variant-numeric:normal;font-variant-position:normal;font-variation-settings:normal;inline-size:0;isolation:auto;mix-blend-mode:normal;paint-order:stroke fill markers;shape-margin:0;shape-padding:0;text-decoration-color:#000;text-decoration-line:none;text-decoration-style:solid;text-indent:0;text-orientation:mixed;text-transform:none;white-space:normal"/><path d="M42.474 84.447 28.796 98.7a21.274 21.468 0 0 0-7.317 25.255 21.274 21.468 0 0 0 .013.033 21.274 21.468 0 0 0 22.667 13.01l20.082.656c-5.938-5.895-11.509-14.594-15.709-24.974a3.247 3.277 0 0 1 0-.004 3.247 3.277 0 0 1-.063-.131 3.247 3.277 0 0 1 0-.01 3.247 3.277 0 0 1 0-.012 3.247 3.277 0 0 1-.046-.13 3.247 3.277 0 0 1 0-.005c-3.967-9.98-5.962-19.733-5.939-27.928zM86.27 42.986v0l-32.367 33.73c-.507 1.846-.835 4.08-.911 6.619-.218 7.267 1.566 16.883 5.495 26.726v.004c3.961 9.837 9.31 18.004 14.479 23.076 2.345 2.302 4.647 3.945 6.65 4.88l6.474.212c.26-.17 3.984 1.273 3.984 1.273l-9.409-1.517 44.318 1.514c-2.779-1.782-5.5-4.02-8.172-6.643a71.134 71.134 0 0 1-1.779-1.811c-.083-.083-.165-.176-.247-.265a62.548 62.548 0 0 1-.861-.935 98.15 98.15 0 0 1-.891-.998c-.246-.281-.491-.565-.736-.853-.05-.065-.1-.115-.15-.174a87.08 87.08 0 0 1-2.656-3.298c-5.92-7.716-11.35-17.314-15.747-28.179v-.004a4.762 4.762 0 0 1-.093-.192l4.976-2.031-.014-.033-4.98 2.034a4.787 4.787 0 0 1-.067-.202v-.004c-4.57-11.497-7.34-22.79-8.269-32.906v-.082a84.951 84.951 0 0 1-.163-2.071c-.013-.099-.013-.188-.02-.28a94.399 94.399 0 0 1-.107-2.094c0-.066 0-.115-.013-.184a86.177 86.177 0 0 1-.049-2.12c-.013-.91 0-1.806.03-2.69.112-3.757.524-7.276 1.293-10.505z" filter="url(#filter4738)" style="paint-order:stroke fill markers"/><path d="M118.38 20c-2.122 0-4.223.373-6.229 1.19-4.585 1.873-7.914 5.77-9.983 10.435s-3.062 10.206-3.247 16.394c-.367 12.267 2.526 27.166 8.591 42.423a4.712 4.754 0 0 0 .067.202 4.712 4.754 0 0 0 0 .015 4.712 4.754 0 0 0 0 .014 4.712 4.754 0 0 0 .093.192c6.158 15.22 14.347 27.955 23.065 36.512 4.398 4.317 8.933 7.602 13.634 9.5 4.7 1.9 9.778 2.364 14.363.492 4.585-1.872 7.915-5.77 9.983-10.434 2.07-4.664 3.064-10.207 3.25-16.395.367-12.324-2.537-27.3-8.66-42.631 0 0 0 0 0 0 0-.013 0-.016-.013-.016h0c-6.167-15.313-14.402-28.112-23.16-36.708-4.398-4.317-8.933-7.601-13.634-9.5-2.645-1.068-5.409-1.683-8.138-1.683zm.073 9.482c1.315 0 2.812.32 4.56 1.027 3.11 1.255 6.801 3.794 10.566 7.489 7.494 7.355 15.25 19.196 20.998 33.459 0 0 0 0 0 0 5.71 14.292 8.3 28.255 7.985 38.807-.158 5.296-1.062 9.71-2.43 12.795-1.368 3.084-3.013 4.727-4.918 5.505-1.904.777-4.217.75-7.326-.505-3.108-1.256-6.8-3.794-10.565-7.488-7.498-7.36-15.259-19.21-21.008-33.483 0 0 0 0 0 0-5.7-14.282-8.288-28.233-7.973-38.778.158-5.297 1.062-9.712 2.43-12.795 1.368-3.084 3.011-4.727 4.916-5.505a7.163 7.163 0 0 1 2.768-.524z" color="#000" filter="url(#filter4738)" style="font-feature-settings:normal;font-variant-alternates:normal;font-variant-caps:normal;font-variant-east-asian:normal;font-variant-ligatures:normal;font-variant-numeric:normal;font-variant-position:normal;font-variation-settings:normal;inline-size:0;isolation:auto;mix-blend-mode:normal;paint-order:stroke fill markers;shape-margin:0;shape-padding:0;text-decoration-color:#000;text-decoration-line:none;text-decoration-style:solid;text-indent:0;text-orientation:mixed;text-transform:none;white-space:normal"/><path d="m154.9 53.713-40.765 34.583a144.831 144.831 0 0 1 4.222 15.913l41.42-35.139c-2.044-4.041-3.73-9.35-4.878-15.357z" color="#000" filter="url(#filter4738)" style="font-feature-settings:normal;font-variant-alternates:normal;font-variant-caps:normal;font-variant-east-asian:normal;font-variant-ligatures:normal;font-variant-numeric:normal;font-variant-position:normal;font-variation-settings:normal;inline-size:0;isolation:auto;mix-blend-mode:normal;shape-margin:0;shape-padding:0;text-decoration-color:#000;text-decoration-line:none;text-decoration-style:solid;text-indent:0;text-orientation:mixed;text-transform:none;white-space:normal"/></g></svg>