<?xml version="1.0" encoding="UTF-8"?>
<svg id="SVGRoot" width="192px" height="192px" version="1.1" viewBox="0 0 192 192" xmlns="http://www.w3.org/2000/svg">
 <g fill="none" stroke="#000" stroke-linecap="round" stroke-linejoin="round" stroke-width="8">
  <path d="m88.527 142.21c-2.111 2.4997-5.0967 4.2192-8.4898 4.6878 0.62053 6.2656-2.8013 12.332-8.7898 14.778-7.3122 2.9861-15.596-0.59133-18.626-8.1445-0.86128-2.1476-1.1948-4.3623-1.0646-6.501h-9.1892c-0.13998 3.3212 0.39638 6.7212 1.7075 9.9905 4.8763 12.158 18.643 18.173 30.631 13.278 11.028-4.5036 16.768-16.699 13.821-28.089z" color="#000000" color-rendering="auto" dominant-baseline="auto" filter="url(#filter4738)" image-rendering="auto" shape-rendering="auto" solid-color="#000000" stop-color="#000000" style="font-feature-settings:normal;font-variant-alternates:normal;font-variant-caps:normal;font-variant-east-asian:normal;font-variant-ligatures:normal;font-variant-numeric:normal;font-variant-position:normal;font-variation-settings:normal;inline-size:0;isolation:auto;mix-blend-mode:normal;paint-order:stroke fill markers;shape-margin:0;shape-padding:0;text-decoration-color:#000000;text-decoration-line:none;text-decoration-style:solid;text-indent:0;text-orientation:mixed;text-transform:none;white-space:normal"/>
  <path d="m42.474 84.447-13.678 14.253a21.274 21.468 0 0 0-7.3171 25.255 21.274 21.468 0 0 0 0.01314 0.0328 21.274 21.468 0 0 0 22.667 13.011l20.082 0.6554c-5.9384-5.8952-11.509-14.594-15.709-24.974a3.2471 3.2766 0 0 1 0-4e-3 3.2471 3.2766 0 0 1-0.06348-0.13141 3.2471 3.2766 0 0 1 0-0.0107 3.2471 3.2766 0 0 1 0-0.0106 3.2471 3.2766 0 0 1-0.04556-0.13141 3.2471 3.2766 0 0 1 0-4e-3c-3.967-9.9794-5.9615-19.733-5.9389-27.928z" filter="url(#filter4738)" style="paint-order:stroke fill markers"/>
  <path d="m86.27 42.986v7.38e-4l-32.367 33.729c-0.50722 1.8463-0.83522 4.0812-0.91124 6.6191-0.21732 7.2676 1.5661 16.883 5.495 26.726-1.36e-4 4e-3 0 4e-3 0 4e-3 3.9617 9.8376 9.3109 18.004 14.479 23.076 2.3456 2.3021 4.6469 3.9452 6.6507 4.8802l6.4731 0.21189c0.26094-0.17083 3.9848 1.2726 3.9848 1.2726l-9.409-1.5161 44.318 1.5132c-2.779-1.7814-5.5009-4.0204-8.1725-6.6425-0.59528-0.58477-1.1885-1.1892-1.7784-1.8116-0.083-0.0822-0.16524-0.17575-0.24775-0.26445-0.22644-0.24146-0.45189-0.48457-0.67718-0.7326-0.0619-0.0657-0.12209-0.13142-0.18378-0.20205-0.24189-0.26775-0.48394-0.53714-0.72485-0.80981-0.0553-0.0657-0.11071-0.1314-0.16606-0.1889-0.24579-0.28089-0.49128-0.56505-0.7356-0.85251-0.0504-0.0657-0.0994-0.11499-0.14976-0.17412-0.89498-1.0562-1.781-2.1567-2.6563-3.2979-5.9201-7.7166-11.351-17.314-15.747-28.179v-4e-3c-0.03235-0.06335-0.0633-0.12743-0.09279-0.19219l4.9752-2.0314-0.01314-0.03283-4.9812 2.0342c-0.02373-0.06684-0.04596-0.1342-0.0667-0.20204v-4e-3c-4.5702-11.497-7.3386-22.789-8.2685-32.906v-0.08207c-0.06348-0.69647-0.1172-1.3864-0.16278-2.0713-0.01314-0.09855-0.01314-0.18726-0.01947-0.27925-0.04391-0.70467-0.07974-1.4028-0.10744-2.0947 0-0.06566 1.36e-4 -0.11499-0.01314-0.18398-0.02434-0.7129-0.04225-1.4209-0.04887-2.1195-0.01314-0.91 2.73e-4 -1.8064 0.0293-2.6893 0.11232-3.758 0.52448-7.2766 1.293-10.506z" filter="url(#filter4738)" style="paint-order:stroke fill markers"/>
  <path d="m118.38 20c-2.1221 4.95e-4 -4.2229 0.37287-6.2288 1.1909-4.5849 1.8724-7.9141 5.7698-9.9827 10.434s-3.0628 10.206-3.2479 16.394c-0.36674 12.267 2.5267 27.166 8.5918 42.423a4.7115 4.7543 0 0 0 0.0667 0.20204 4.7115 4.7543 0 0 0 0 0.01467 4.7115 4.7543 0 0 0 0 0.01467 4.7115 4.7543 0 0 0 0.0928 0.19217c6.1578 15.219 14.347 27.955 23.065 36.512 4.3978 4.3163 8.9328 7.6012 13.634 9.5004 4.7003 1.899 9.7782 2.3632 14.363 0.49114 4.5852-1.8724 7.915-5.7703 9.9836-10.434 2.0686-4.6637 3.0635-10.207 3.2486-16.395 0.36837-12.324-2.5359-27.3-8.6586-42.631-7.4e-4 0 0 0 0 0 0-0.01331 0-0.01593-0.0131-0.01641h-7.4e-4c-6.1671-15.313-14.402-28.112-23.16-36.708-4.3979-4.3163-8.933-7.601-13.634-9.5002-2.6442-1.0677-5.4086-1.6824-8.1372-1.682zm0.0732 9.4825c1.3146 0 2.8118 0.32031 4.5604 1.0266 3.1086 1.255 6.8006 3.7941 10.565 7.4885 7.4946 7.3558 15.25 19.196 20.998 33.459 0 3.2e-4 7.5e-4 0 7.5e-4 0 5.709 14.292 8.3001 28.255 7.9847 38.807-0.15788 5.2964-1.0618 9.7111-2.4297 12.795-1.368 3.084-3.0136 4.7273-4.918 5.505-1.9044 0.77696-4.2173 0.75068-7.3259-0.50427-3.1084-1.2566-6.8012-3.7941-10.565-7.4887-7.4988-7.3599-15.259-19.209-21.008-33.483-7.3e-4 0 0 0 0 0-5.7012-14.282-8.2885-28.233-7.9731-38.778 0.15789-5.2964 1.0616-9.7114 2.4296-12.795 1.368-3.084 3.0115-4.7268 4.9159-5.5044 0.83328-0.34003 1.7453-0.52728 2.7679-0.524z" color="#000000" color-rendering="auto" dominant-baseline="auto" filter="url(#filter4738)" image-rendering="auto" shape-rendering="auto" solid-color="#000000" stop-color="#000000" style="font-feature-settings:normal;font-variant-alternates:normal;font-variant-caps:normal;font-variant-east-asian:normal;font-variant-ligatures:normal;font-variant-numeric:normal;font-variant-position:normal;font-variation-settings:normal;inline-size:0;isolation:auto;mix-blend-mode:normal;paint-order:stroke fill markers;shape-margin:0;shape-padding:0;text-decoration-color:#000000;text-decoration-line:none;text-decoration-style:solid;text-indent:0;text-orientation:mixed;text-transform:none;white-space:normal"/>
  <path d="m154.9 53.713-40.765 34.583c1.6674 5.0678 3.0795 10.391 4.2216 15.913l41.421-35.139c-2.0446-4.0412-3.7311-9.3502-4.8785-15.357z" color="#000000" color-rendering="auto" dominant-baseline="auto" filter="url(#filter4738)" image-rendering="auto" shape-rendering="auto" solid-color="#000000" stop-color="#000000" style="font-feature-settings:normal;font-variant-alternates:normal;font-variant-caps:normal;font-variant-east-asian:normal;font-variant-ligatures:normal;font-variant-numeric:normal;font-variant-position:normal;font-variation-settings:normal;inline-size:0;isolation:auto;mix-blend-mode:normal;shape-margin:0;shape-padding:0;text-decoration-color:#000000;text-decoration-line:none;text-decoration-style:solid;text-indent:0;text-orientation:mixed;text-transform:none;white-space:normal"/>
 </g>
</svg>
