<svg xmlns="http://www.w3.org/2000/svg" xml:space="preserve" width="192" height="192" viewBox="0 0 192 192"><path fill="none" stroke="#000" stroke-linecap="round" stroke-linejoin="round" stroke-width="8" d="M92.335 169.28c-2.15-1.863-5.093-2.96-11.678-4.35-27.785-5.867-49.011-24.114-57.477-49.412-2.585-7.725-3.393-13.848-3.138-23.786.18-7.056.4-9.241 1.313-13.04 5.07-21.102 18.205-37.96 37.683-48.36 10.208-5.451 21.408-8.4 33.687-8.87 22.649-.867 42.942 6.93 58.462 22.462 6.146 6.15 10.027 11.522 13.657 18.902 5.185 10.54 6.766 16.997 7.079 28.905.192 7.312.097 9.214-.693 13.853-3.273 19.22-14.858 36.699-31.778 47.939-4.095 2.72-12.537 6.867-17.421 8.558-4.274 1.479-12.382 3.355-16.39 3.793l-2.733.298.125-4.488.124-4.489 4.444-.783c20.023-3.529 37.754-16.334 46.775-33.779 5.058-9.782 6.935-17.454 6.975-28.513.03-8.193-.55-12.115-2.86-19.324-11.612-36.252-53.831-54.628-89.483-38.948-19.233 8.459-33.098 25.31-37.398 45.45-1.32 6.181-1.426 17.295-.228 23.69 5.125 27.335 26.855 47.498 56.207 52.153 1.7.27 1.863.204 2.483-.996 2.193-4.24 3.647-16.15 3.177-26.015-.435-9.119-.702-9.13-15.822-.648-4.323 2.425-8.028 4.405-8.234 4.4-.206-.005-.668-.641-1.027-1.413-.474-1.02-1.153-1.576-2.491-2.039-1.733-.599-2.198-.554-8.005.761-3.391.769-6.26 1.302-6.377 1.185-.117-.116.817-2.484 2.075-5.262 3.24-7.151 3.437-9.865.831-11.45l-1.338-.813 3.524-2.47c3.921-2.747 4.826-3.778 4.826-5.496 0-1.783-1.667-2.868-9.906-6.447l-7.47-3.244 1.247-1.32c1.63-1.726 2.22-2.926 2.22-4.522 0-2.027-.476-2.908-4.965-9.184L38.139 76.3l16.538-.435 1.344-1.344c.913-.915 1.42-1.923 1.586-3.152.133-.993.407-1.806.608-1.806s3.354 2.072 7.006 4.606c7.795 5.407 8.697 5.912 10.562 5.912 1.871 0 3.1-.71 3.898-2.251.863-1.669.833-2.552-.436-13.048-.592-4.9-1.078-9.145-1.079-9.432-.002-.384.394-.355 1.505.109 1.976.826 3.878.797 5.74-.087 1.953-.927 2.089-1.15 6.671-11.061l3.88-8.393 2.007 4.327c5.213 11.24 6.67 13.98 7.843 14.748 1.686 1.104 4.432 1.324 6.378.512.89-.372 1.621-.54 1.626-.372.005.167-.512 4.764-1.149 10.216-.962 8.242-1.07 10.2-.643 11.629.603 2.011 2.047 3.104 4.101 3.104 1.946 0 3.012-.59 10.751-5.96 3.613-2.507 6.722-4.558 6.908-4.558.186 0 .447.813.58 1.806.165 1.23.673 2.237 1.586 3.151l1.344 1.345 8.251.135c4.539.074 8.252.214 8.252.31s-1.604 2.383-3.564 5.08c-4.375 6.021-5.552 8.044-5.559 9.551-.008 1.731.758 3.449 2.207 4.952l1.29 1.338-7.857 3.4c-7.957 3.445-9.555 4.53-9.555 6.491 0 1.474 1.046 2.61 4.864 5.285 3.152 2.209 3.455 2.536 2.635 2.84-.51.188-1.257.845-1.66 1.46-1.145 1.747-.602 4.586 1.984 10.351 1.262 2.816 2.203 5.212 2.09 5.325-.113.113-2.98-.423-6.371-1.191-5.807-1.316-6.272-1.36-8.005-.761-1.338.462-2.017 1.018-2.491 2.039-.359.771-.794 1.407-.968 1.412-.174.005-4.307-2.212-9.185-4.928-11.352-6.32-12.186-6.628-13.754-5.06-.806.807-.87 1.461-.885 9.02-.02 10.405-.608 20.903-1.47 26.256-.67 4.16-2.598 11.023-3.2 11.388-.172.104-1.075-.472-2.007-1.28z"/></svg>