<?xml version="1.0" encoding="UTF-8"?>
<svg id="SVGRoot" width="192px" height="192px" version="1.1" viewBox="0 0 192 192" xml:space="preserve" xmlns="http://www.w3.org/2000/svg"><path d="m92.335 169.28c-2.1491-1.8635-5.0927-2.9601-11.678-4.3504-27.785-5.8663-49.011-24.114-57.477-49.412-2.5847-7.7241-3.3928-13.848-3.1384-23.786 0.1806-7.0553 0.40071-9.2407 1.3134-13.04 5.0695-21.102 18.205-37.959 37.683-48.36 10.208-5.4508 21.408-8.3998 33.687-8.8698 22.649-0.867 42.942 6.93 58.462 22.462 6.1458 6.1507 10.027 11.522 13.657 18.902 5.1852 10.541 6.7661 16.997 7.0787 28.905 0.19195 7.312 0.0968 9.2141-0.69301 13.853-3.2723 19.22-14.858 36.699-31.778 47.939-4.0945 2.7203-12.537 6.8675-17.421 8.558-4.2734 1.4791-12.382 3.3556-16.39 3.7932l-2.7325 0.29827 0.12452-4.4885 0.12451-4.4885 4.4434-0.78316c20.023-3.5291 37.754-16.334 46.775-33.779 5.0582-9.7818 6.9354-17.454 6.9758-28.513 0.0299-8.1933-0.5504-12.115-2.8597-19.324-11.613-36.252-53.832-54.628-89.484-38.948-19.233 8.4586-33.098 25.309-37.398 45.45-1.3195 6.1811-1.4262 17.295-0.22759 23.689 5.1251 27.336 26.855 47.499 56.207 52.154 1.6998 0.26958 1.8624 0.20437 2.4832-0.99603 2.1926-4.2399 3.6469-16.15 3.1767-26.015-0.43467-9.1189-0.70235-9.1299-15.822-0.64804-4.3228 2.425-8.0283 4.405-8.2343 4.3998-0.20603-5e-3 -0.66799-0.64085-1.0266-1.4126-0.47424-1.0206-1.1535-1.5766-2.4913-2.039-1.7325-0.59888-2.1975-0.55467-8.0048 0.76103-3.391 0.76825-6.2608 1.3015-6.3774 1.1849-0.11655-0.11655 0.81744-2.4843 2.0755-5.2617 3.2395-7.1515 3.4364-9.8657 0.8309-11.45l-1.3383-0.81384 3.5247-2.4697c3.9208-2.7473 4.826-3.7781 4.826-5.4961 0-1.7826-1.6673-2.8675-9.9066-6.4465l-7.4696-3.2447 1.2466-1.3192c1.6311-1.7262 2.2202-2.9261 2.2202-4.5222 0-2.0276-0.4762-2.9084-4.9655-9.1846l-4.1972-5.8678 16.538-0.43466 1.3434-1.3446c0.91368-0.91443 1.421-1.9225 1.5858-3.1512 0.13328-0.99368 0.40706-1.8067 0.60838-1.8067 0.20133 0 3.3541 2.0728 7.0062 4.6062 7.7953 5.4076 8.6973 5.9125 10.562 5.9125 1.8713 0 3.1005-0.71005 3.8977-2.2515 0.86277-1.6684 0.83327-2.5523-0.43542-13.048-0.59238-4.9007-1.078-9.1449-1.0792-9.4316-2e-3 -0.38407 0.39429-0.35549 1.5052 0.10866 1.9761 0.82566 3.8774 0.79679 5.7402-0.08715 1.9529-0.92668 2.088-1.1507 6.6704-11.061l3.8804-8.3923 2.0064 4.3261c5.213 11.24 6.6701 13.98 7.8435 14.748 1.6854 1.1043 4.4322 1.3248 6.3777 0.51193 0.88929-0.37156 1.621-0.53885 1.626-0.37175 5e-3 0.16709-0.51184 4.7641-1.1485 10.216-0.96254 8.2419-1.0709 10.201-0.6431 11.629 0.60271 2.0116 2.0463 3.1044 4.1008 3.1044 1.9456 0 3.0114-0.5909 10.751-5.9606 3.6132-2.5069 6.7216-4.558 6.9077-4.558 0.18608 0 0.44738 0.81301 0.58067 1.8067 0.16482 1.2288 0.67207 2.2368 1.5859 3.1512l1.3436 1.3446 8.2514 0.13501c4.5383 0.07426 8.2514 0.21412 8.2514 0.3108s-1.6035 2.3824-3.5634 5.0793c-4.3754 6.0209-5.5526 8.0434-5.5594 9.5508-8e-3 1.7314 0.75772 3.4486 2.2074 4.9519l1.29 1.3377-7.8574 3.4013c-7.957 3.4444-9.5546 4.5296-9.5546 6.4902 0 1.4736 1.0459 2.6101 4.8634 5.285 3.152 2.2086 3.4553 2.5355 2.6347 2.839-0.51007 0.18868-1.2568 0.84574-1.6594 1.4601-1.1456 1.7483-0.60176 4.5865 1.9834 10.352 1.2626 2.8157 2.2032 5.2119 2.0902 5.3249-0.11299 0.11298-2.9799-0.42316-6.3709-1.1914-5.8073-1.3157-6.2723-1.3599-8.0048-0.76103-1.3378 0.46247-2.0171 1.0184-2.4913 2.039-0.3586 0.77178-0.79418 1.4074-0.96795 1.4126-0.17377 5e-3 -4.3068-2.2126-9.1844-4.9284-11.352-6.3206-12.186-6.6274-13.754-5.0593-0.80627 0.80625-0.87048 1.4605-0.88514 9.0191-0.02017 10.405-0.60793 20.903-1.47 26.256-0.66986 4.1595-2.5987 11.023-3.2003 11.388-0.17192 0.10426-1.0749-0.47144-2.0066-1.2793z" fill="none" stroke="#000" stroke-linecap="round" stroke-linejoin="round" stroke-width="8"/></svg>
