<?xml version="1.0" encoding="UTF-8"?>
<svg id="SVGRoot" width="192px" height="192px" version="1.1" viewBox="0 0 192 192" xmlns="http://www.w3.org/2000/svg">
 <path d="m61.67 140.82c-5.5659-1.6711-9.1869-6.4862-9.1869-12.216 0-3.6139 1.2816-6.389 4.1516-8.9894 2.8126-2.5485 4.7405-3.2884 8.5684-3.2884 3.8587 0 5.7506 0.73748 8.6834 3.3848 2.9641 2.6756 4.0154 5.0013 4.0154 8.883 0 4.9994-2.5236 9.106-6.9234 11.266-2.5363 1.2452-6.8704 1.6923-9.3085 0.9603zm-41.677-8.5695c0.80136-1.8698 20.29-48.515 23.902-57.21 7.8634-18.926 9.655-23.115 10.142-23.71 0.69318-0.84707 21.636-0.84707 22.333 0 0.26716 0.32431 3.2802 7.1719 6.6959 15.217 3.4157 8.0448 9.5269 22.43 13.581 31.967 4.0536 9.537 7.544 17.34 7.7565 17.34 0.21229 0 0.44312-7.2722 0.5126-16.16l0.12639-16.16 26.372-0.12185c26.855-0.06699 26.549 0.05223 26.765 0.2649 0.21646 0.21268-1.4744 4.7796-3.7574 10.149l-4.1509 9.7618h-24.815l-0.12714 14.509-0.12716 14.509-36.117 0.24749-1.4474-3.4264c-2.7797-6.581-17.367-40.746-19.664-46.055-1.2737-2.9441-2.5263-5.2897-2.7836-5.2124-0.47744 0.14342-1.5041 2.531-14.384 33.449-4.0539 9.7316-7.7141 18.49-8.1338 19.463l-0.76314 1.7694h-11.085c-8.6827 0-11.03-0.12791-10.832-0.58982zm84.809-71.362v-10.148h33.6c26.561 0 33.599 0.12374 33.597 0.58982-1e-3 0.32431-1.8105 4.8363-4.0199 10.027l-4.017 9.4367-59.16 0.24295z" fill="none" stroke="#000" stroke-linecap="round" stroke-linejoin="round" stroke-width="8"/>
</svg>
