<svg xmlns="http://www.w3.org/2000/svg" width="192" height="192" viewBox="0 0 192 192"><path fill="none" stroke="#000" stroke-linecap="round" stroke-linejoin="round" stroke-width="8" d="M61.67 140.82c-5.566-1.671-9.187-6.486-9.187-12.216 0-3.614 1.282-6.389 4.152-8.99 2.812-2.548 4.74-3.288 8.568-3.288 3.859 0 5.75.738 8.684 3.385 2.964 2.676 4.015 5.001 4.015 8.883 0 5-2.524 9.106-6.923 11.266-2.537 1.245-6.87 1.692-9.309.96zm-41.677-8.57c.801-1.87 20.29-48.515 23.902-57.21 7.863-18.926 9.655-23.115 10.142-23.71.693-.847 21.636-.847 22.333 0 .267.325 3.28 7.172 6.696 15.217 3.416 8.045 9.527 22.43 13.58 31.967 4.055 9.537 7.545 17.34 7.757 17.34.213 0 .444-7.272.513-16.16l.126-16.16 26.372-.121c26.855-.067 26.55.052 26.765.265.217.212-1.474 4.78-3.757 10.149l-4.15 9.761h-24.816l-.127 14.51-.127 14.508-36.117.248-1.448-3.427c-2.78-6.58-17.367-40.746-19.664-46.055-1.273-2.944-2.526-5.29-2.783-5.212-.478.143-1.504 2.531-14.384 33.449-4.054 9.732-7.714 18.49-8.134 19.463l-.763 1.77H30.824c-8.683 0-11.03-.128-10.832-.59zm84.809-71.362V50.74h33.6c26.561 0 33.599.124 33.597.59-.001.325-1.81 4.837-4.02 10.027l-4.017 9.437-59.16.243z"/></svg>