<?xml version="1.0" encoding="UTF-8"?>
<svg id="SVGRoot" width="192px" height="192px" version="1.1" viewBox="0 0 192 192" xmlns="http://www.w3.org/2000/svg">
 <g fill="none" stroke="#000" stroke-linecap="round" stroke-linejoin="round" stroke-width="8">
  <circle class="a" cx="96" cy="96" r="76"/>
  <path class="a" d="m125.27 116.15c3.9308-1.5942 10.928-3.7088 13.034-1.1566 2.2786 2.7622-0.60093 8.7556-3.2521 13.412"/>
  <path class="a" d="m52.869 118c6.2164 4.9365 24.579 12.493 44.142 12.493a60.104 60.104 0 0 0 35.94-10.884"/>
  <rect class="a" x="83.647" y="82.479" width="14.14" height="18.735" rx="7.0698"/>
  <rect class="a" x="117.39" y="82.479" width="14.14" height="18.735" rx="7.0698"/>
  <line class="a" x1="62.309" x2="62.309" y1="72.935" y2="101.21"/>
  <path class="a" d="m62.309 89.549a7.0698 7.0698 0 0 1 7.0698-7.0698 7.0698 7.0698 0 0 1 7.0698 7.0698v11.665"/>
  <path class="a" d="m138.9 99.633a7.9514 7.9514 0 0 0 5.8145 1.5808h1.5864a4.6788 4.6788 0 0 0 4.6738-4.6837 4.6788 4.6788 0 0 0-4.6738-4.6837h-3.1722a4.6784 4.6784 0 0 1-4.6752-4.6837 4.6784 4.6784 0 0 1 4.6735-4.6837h1.5861a7.9514 7.9514 0 0 1 5.8145 1.5808"/>
  <path class="a" d="m107.1 76.646v21.033a3.5349 3.5349 0 0 0 3.5349 3.5349h1.0605"/>
  <line class="a" x1="103.39" x2="110.81" y1="82.479" y2="82.479"/>
  <path class="a" d="m41.025 94.144a7.0698 7.0698 0 0 0 7.0698 7.0698 7.0698 7.0698 0 0 0 7.0698-7.0698v-4.5954a7.0698 7.0698 0 0 0-7.0698-7.0698 7.0698 7.0698 0 0 0-7.0698 7.0698"/>
  <line class="a" x1="41.025" x2="41.025" y1="82.479" y2="110.76"/>
 </g>
</svg>
