<?xml version="1.0" encoding="UTF-8"?>
<svg width="192" height="192" version="1.1" viewBox="0 0 192 192" xmlns="http://www.w3.org/2000/svg" xmlns:xlink="http://www.w3.org/1999/xlink">
 <g transform="matrix(.70654 0 0 .70654 3580.4 548.77)">
  <g transform="matrix(.92596 0 0 .92596 -179.52 -54.231)">
   <clipPath>
    <use width="100%" height="100%" overflow="visible" xlink:href="#SVGID_1_-4"/>
   </clipPath>
   <path transform="translate(-5254.4 -755.79)" d="m55.508 0c-30.751 0-55.508 24.756-55.508 55.508v133.55c0 30.751 24.756 55.508 55.508 55.508h133.55c30.751 0 55.508-24.756 55.508-55.508v-133.55c0-30.751-24.756-55.508-55.508-55.508h-133.55zm155.14 107.91c7.4854-0.10308 13.618 1.3662 14.898 2.9453 2.5616 3.1758-0.66786 25.195-13.248 35.705-1.93 1.6142-3.7718 0.7558-2.9121-1.3848 2.8248-7.0533 9.1585-22.863 6.1582-26.705-2.9828-3.8249-19.791-1.8069-27.336-0.91211-2.2985 0.28073-2.6485-1.7195-0.57813-3.1582 6.6936-4.711 15.532-6.3872 23.018-6.4902zm-196.64 4.2266c0.52006-0.0672 1.137 0.0534 1.7949 0.43945 30.126 17.528 67.374 28.072 105.85 28.072 25.95 0 54.498-5.3683 80.746-16.51 3.9653-1.6844 7.2799 2.5971 3.4023 5.4746-23.423 17.265-57.373 26.475-86.604 26.475-40.987 0-77.886-15.158-105.8-40.371-1.6449-1.487-0.95081-3.3786 0.60937-3.5801z" fill-rule="evenodd" style="paint-order:stroke fill markers"/>
  </g>
 </g>
 <path d="m150.64 100.8c-15.324 11.295-37.535 17.321-56.659 17.321-26.815 0-50.954-9.9176-69.217-26.413-1.4351-1.2971-0.1474-3.0648 1.5723-2.0547 19.709 11.467 44.078 18.366 69.252 18.366 16.977 0 35.653-3.5125 52.825-10.801 2.5943-1.102 4.7641 1.6988 2.2269 3.5814" fill-opacity=".26056" fill-rule="evenodd"/>
 <path d="m157.01 93.508c-1.9514-2.5024-12.948-1.1823-17.884-0.59689-1.5035 0.18366-1.7333-1.1249-0.37871-2.0662 8.7583-6.1641 23.13-4.3849 24.806-2.3187 1.6755 2.0777-0.43616 16.483-8.6664 23.359-1.2627 1.056-2.468 0.49359-1.9056-0.90682 1.8482-4.6145 5.9921-14.957 4.029-17.471" fill-opacity=".24648" fill-rule="evenodd"/>
</svg>
