<?xml version="1.0" encoding="UTF-8"?>
<svg id="vector" width="192" height="192" version="1.1" viewBox="0 0 9.831 9.831" xmlns="http://www.w3.org/2000/svg">
 <path d="m4.4291 3.7341 1.3653 1.336c0.198 0.19376 0.52112 0.19376 0.71561 0 0.19456-0.19376 0.198-0.50992 0-0.70032l-1.3652-1.3359c-0.97969-0.94849-2.5568-0.96545-3.5573-0.0476l-0.05208 0.0476c-0.96577 1.0028-0.95185 2.5496 0.02432 3.5015l1.3653 1.336c0.198 0.19376 0.52112 0.19376 0.71561 0 0.19456-0.19376 0.198-0.50992 0-0.70032l-1.3584-1.3292c-0.59056-0.57792-0.60096-1.5298-0.01392-2.1179 0.58712-0.58808 1.5633-0.57112 2.1608 0.0136zm1.7613-1.7779c-0.198 0.19376-0.198 0.50992 0 0.70032l1.3653 1.336c0.59056 0.57792 0.60096 1.5298 0.0104 2.1179-0.59056 0.58808-1.5633 0.57112-2.1608-0.0136l-1.3652-1.336c-0.198-0.19376-0.52112-0.19376-0.71561 0-0.19456 0.19376-0.198 0.50992 0 0.70032l1.3653 1.336c0.97273 0.95185 2.5534 0.97225 3.5539 0.0476l0.05216-0.0476c0.96561-1.0029 0.95169-2.5496-0.02448-3.5015l-1.3687-1.336c-0.198-0.19376-0.52112-0.19376-0.71561 0z" stroke-width="3.4365"/>
</svg>
