<?xml version="1.0" encoding="UTF-8"?>
<svg id="SVGRoot" width="192px" height="192px" version="1.1" viewBox="0 0 192 192" xmlns="http://www.w3.org/2000/svg">
 <path d="m24.75 20c-1.2588 0-2.4676 0.50112-3.3582 1.3918-0.89063 0.89062-1.3918 2.0995-1.3918 3.3582v25.902c0 1.2588 0.50112 2.47 1.3918 3.3583 0.89062 0.89062 2.0995 1.3917 3.3582 1.3917s2.4676-0.50112 3.3582-1.3917c0.89062-0.88826 1.3918-2.0995 1.3918-3.3583v-21.152h21.152c1.2588 0 2.47-0.50112 3.3583-1.3918 0.89062-0.89062 1.3917-2.0995 1.3917-3.3582s-0.50112-2.4676-1.3917-3.3582c-0.88826-0.89062-2.0995-1.3918-3.3583-1.3918zm116.6 0c-1.2587 0-2.47 0.50112-3.3582 1.3918-0.89063 0.89062-1.3918 2.0995-1.3918 3.3582s0.50113 2.4676 1.3918 3.3582c0.88824 0.89062 2.0995 1.3918 3.3582 1.3918h21.152v21.152c0 1.2588 0.50111 2.47 1.3917 3.3583 0.89063 0.89062 2.0995 1.3917 3.3583 1.3917 1.2587 0 2.4676-0.50112 3.3582-1.3917 0.89063-0.88826 1.3918-2.0995 1.3918-3.3583v-25.902c0-1.2588-0.50112-2.4676-1.3918-3.3582s-2.0995-1.3918-3.3582-1.3918zm-97.598 19c-1.2588 0-2.4676 0.50112-3.3583 1.3918-0.89062 0.89062-1.3917 2.0995-1.3917 3.3582v28.5c0 1.2587 0.50112 2.4676 1.3917 3.3582 0.89063 0.89063 2.0995 1.3918 3.3583 1.3918h28.5c1.2588 0 2.4676-0.50113 3.3582-1.3918s1.3918-2.0995 1.3918-3.3582v-28.5c0-1.2588-0.50113-2.4676-1.3918-3.3582-0.89062-0.89062-2.0995-1.3918-3.3582-1.3918zm52.25 0v9.5h9.5v-9.5zm0 9.5h-9.5v25.384c2.9426-1.8763 6.118-3.4153 9.5-4.4911v-1.8929h9.5v-9.5h-9.5zm23.75-9.5c-1.2588 0-2.4676 0.50112-3.3583 1.3918-0.89062 0.89062-1.3917 2.0995-1.3917 3.3582v24.363c7.22 1.2326 13.827 4.3581 19.242 8.8873h14.008c1.2587 0 2.4676-0.50113 3.3582-1.3918 0.89063-0.89063 1.3918-2.0995 1.3918-3.3582v-28.5c0-1.2588-0.50113-2.4676-1.3918-3.3582-0.89062-0.89062-2.0995-1.3918-3.3582-1.3918zm-71.25 9.5h19v19h-19zm76 0h19v19h-19zm-71.25 4.75v9.5h9.5v-9.5zm76 0v9.5h9.5v-9.5zm-21.04 23.75c-17.183 0-31.21 14.027-31.21 31.21 0 17.183 14.027 31.226 31.21 31.226 6.8851 0 13.269-2.261 18.442-6.0681l22.99 22.99c0.89063 0.89063 2.0995 1.3918 3.3583 1.3918 1.2587 0 2.4676-0.50113 3.3582-1.3918 0.89063-0.89062 1.3918-2.0995 1.3918-3.3582 0-1.2588-0.50113-2.4676-1.3918-3.3583l-22.99-22.99c3.8071-5.1728 6.0681-11.557 6.0681-18.442 0-17.183-14.043-31.21-31.226-31.21zm-59.71 9.5v9.5h9.5v9.5h9.6306c0.22087-3.2822 0.798-6.4695 1.7622-9.5h-1.8929v-9.5zm0 9.5h-9.5v9.5h9.5zm59.71-9.5c12.048 0 21.726 9.6591 21.726 21.71 0 12.048-9.6781 21.726-21.726 21.726-12.051 0-21.71-9.6781-21.71-21.726 0-12.051 9.6591-21.71 21.71-21.71zm35.29 0v1.558c3.002 5.2131 4.864 11.139 5.2891 17.442h4.2109v-19zm-99.75 28.5c-1.2588 0-2.4676 0.50112-3.3583 1.3918-0.89062 0.89062-1.3917 2.0995-1.3917 3.3582v28.5c0 1.2587 0.50112 2.4676 1.3917 3.3582 0.89063 0.89063 2.0995 1.3918 3.3583 1.3918h28.5c1.2588 0 2.4676-0.50113 3.3582-1.3918 0.89062-0.89062 1.3918-2.0995 1.3918-3.3582v-14.008c-4.5291-5.415-7.6546-12.022-8.8872-19.242zm104.57 0c-0.627 3.5008-1.7124 6.8638-3.154 10.02l7.8304 7.8304v-17.85zm-99.824 9.5h19v19h-19zm4.75 4.75v9.5h9.5v-9.5zm-28.5 7.3482c-1.2588 0-2.4676 0.50113-3.3582 1.3918-0.89063 0.88824-1.3918 2.0995-1.3918 3.3582v25.902c0 1.2587 0.50112 2.4676 1.3918 3.3582 0.89062 0.89063 2.0995 1.3918 3.3582 1.3918h25.902c1.2588 0 2.47-0.50113 3.3583-1.3918 0.89062-0.89062 1.3917-2.0995 1.3917-3.3582 0-1.2588-0.50112-2.4676-1.3917-3.3583-0.88826-0.89062-2.0995-1.3917-3.3583-1.3917h-21.152v-21.152c0-1.2587-0.50112-2.47-1.3918-3.3582-0.89062-0.89063-2.0995-1.3918-3.3582-1.3918zm142.5 0c-1.2588 0-2.4676 0.50113-3.3583 1.3918-0.89063 0.88824-1.3917 2.0995-1.3917 3.3582v1.0023l0.57474 0.57474c5.4839 5.4839 5.4839 14.666 0 20.15-5.4839 5.4839-14.666 5.4839-20.15 0l-0.57474-0.57474h-1.0023c-1.2587 0-2.47 0.50112-3.3582 1.3917-0.89063 0.89063-1.3918 2.0995-1.3918 3.3583 0 1.2587 0.50113 2.4676 1.3918 3.3582 0.88824 0.89063 2.0995 1.3918 3.3582 1.3918h25.902c1.2587 0 2.4676-0.50113 3.3582-1.3918 0.89063-0.89062 1.3918-2.0995 1.3918-3.3582v-25.902c0-1.2587-0.50112-2.47-1.3918-3.3582-0.89063-0.89063-2.0995-1.3918-3.3582-1.3918zm-80.75 5.9565v0.94526h1.558c-0.52963-0.30638-1.0426-0.6175-1.558-0.94526zm38 2.8191c-3.0091 1.33-6.1821 2.356-9.5 2.9498v4.6764h9.5zm-28.5 1.6506v5.9755h9.5v-4.2109c-3.2823-0.22088-6.4695-0.80038-9.5-1.7646z" fill="none" stroke="#000" stroke-linecap="round" stroke-linejoin="round" stroke-width="8" name="path"/>
</svg>
