<svg xmlns="http://www.w3.org/2000/svg" width="192" height="192" viewBox="0 0 192 192"><path fill="none" stroke="#000" stroke-linecap="round" stroke-linejoin="round" stroke-width="8" d="M24.75 20A4.751 4.751 0 0 0 20 24.75v25.902a4.751 4.751 0 0 0 8.108 3.358 4.748 4.748 0 0 0 1.392-3.358V29.5h21.152a4.751 4.751 0 0 0 3.358-8.108A4.748 4.748 0 0 0 50.652 20zm116.6 0a4.752 4.752 0 0 0-3.358 8.108 4.75 4.75 0 0 0 3.358 1.392h21.152v21.152a4.748 4.748 0 0 0 4.75 4.75 4.752 4.752 0 0 0 4.75-4.75V24.75a4.751 4.751 0 0 0-4.75-4.75zM43.752 39a4.752 4.752 0 0 0-4.75 4.75v28.5a4.752 4.752 0 0 0 4.75 4.75h28.5a4.751 4.751 0 0 0 4.75-4.75v-28.5a4.751 4.751 0 0 0-4.75-4.75zm52.25 0v9.5h9.5V39zm0 9.5h-9.5v25.384c2.943-1.876 6.118-3.415 9.5-4.491V67.5h9.5V58h-9.5zm23.75-9.5a4.752 4.752 0 0 0-4.75 4.75v24.363A40.636 40.636 0 0 1 134.244 77h14.008a4.751 4.751 0 0 0 4.75-4.75v-28.5a4.751 4.751 0 0 0-4.75-4.75zm-71.25 9.5h19v19h-19zm76 0h19v19h-19zm-71.25 4.75v9.5h9.5v-9.5zm76 0v9.5h9.5v-9.5zM108.212 77c-17.183 0-31.21 14.027-31.21 31.21s14.027 31.226 31.21 31.226c6.885 0 13.269-2.261 18.442-6.068l22.99 22.99a4.752 4.752 0 0 0 6.717 0 4.752 4.752 0 0 0 0-6.717l-22.99-22.99a31.033 31.033 0 0 0 6.068-18.442c0-17.183-14.043-31.21-31.226-31.21zm-59.71 9.5V96h9.5v9.5h9.63c.221-3.282.799-6.47 1.763-9.5h-1.893v-9.5zm0 9.5h-9.5v9.5h9.5zm59.71-9.5a21.648 21.648 0 0 1 21.726 21.71 21.664 21.664 0 0 1-21.726 21.726 21.648 21.648 0 0 1-21.71-21.726c0-12.051 9.66-21.71 21.71-21.71zm35.29 0v1.558a40.315 40.315 0 0 1 5.29 17.442h4.21v-19zM43.752 115a4.752 4.752 0 0 0-4.75 4.75v28.5a4.752 4.752 0 0 0 4.75 4.75h28.5a4.751 4.751 0 0 0 4.75-4.75v-14.008A40.637 40.637 0 0 1 68.115 115zm104.57 0a41.94 41.94 0 0 1-3.154 10.02l7.83 7.83V115zm-99.824 9.5h19v19h-19zm4.75 4.75v9.5h9.5v-9.5zm-28.5 7.348a4.751 4.751 0 0 0-4.75 4.75v25.902a4.751 4.751 0 0 0 4.75 4.75H50.65a4.751 4.751 0 0 0 3.358-8.108 4.747 4.747 0 0 0-3.358-1.392H29.498v-21.152a4.752 4.752 0 0 0-4.75-4.75zm142.5 0a4.752 4.752 0 0 0-4.75 4.75v1.002l.575.575c5.484 5.484 5.484 14.666 0 20.15-5.484 5.484-14.666 5.484-20.15 0l-.575-.575h-1.002a4.752 4.752 0 0 0-3.358 8.108 4.745 4.745 0 0 0 3.358 1.392h25.902a4.751 4.751 0 0 0 4.75-4.75v-25.902a4.752 4.752 0 0 0-4.75-4.75zm-80.75 5.957v.945h1.558a43.144 43.144 0 0 1-1.558-.945zm38 2.819c-3.01 1.33-6.182 2.356-9.5 2.95V153h9.5zm-28.5 1.65V153h9.5v-4.211c-3.282-.22-6.47-.8-9.5-1.765z"/></svg>