<?xml version="1.0" encoding="UTF-8"?>
<svg width="192" height="192" version="1.1" viewBox="0 0 192 192" xml:space="preserve" xmlns="http://www.w3.org/2000/svg"><style type="text/css">
	.st0{fill:#FFFFFF;}
	.st1{fill:#8B9BB3;}
	.st2{fill:#B9D4EA;}
</style><g transform="matrix(.78818 0 0 .78818 26.483 16)">
	
	<g>
		<path class="st1" d="m117.1 50.8v-50.8h-41c-42 0-76.1 34.1-76.1 76.1 0 36 25 66.1 58.5 74v-99.3z"/>
		<path class="st2" d="m163.6 130.4c-2.8-2.4-5.9-4.6-9.6-6.1 4.8-2.8 8.7-6.5 11.7-11.1 4.1-6.3 6.1-13.5 6.1-21.8 0-24.6-19.6-40.7-49.8-40.7h-5v101.4h-41c-6 0-11.9-0.7-17.5-2.1v53h67c30.7 0 50.9-16.8 50.9-42.9 0-12.3-4.3-22.7-12.8-29.7z" fill-opacity=".60215"/>
		<path class="st0" d="m117.1 152.1v-101.3h-58.6v99.3c5.6 1.3 11.5 2.1 17.5 2.1h41.1z" fill-opacity=".74731"/>
	</g>
</g></svg>
