<?xml version="1.0" encoding="UTF-8"?>
<svg id="vector" width="192" height="192" version="1.1" viewBox="0 0 192 192" xmlns="http://www.w3.org/2000/svg">
 <path d="m100.28 176h19.723v-159.99h-19.723zm-36.802-8.6838c-0.0112 4.7791-3.8543 8.6174-8.5942 8.6294h-38.88l0.012-159.93h38.915c4.6919 8e-3 8.535 3.8495 8.5462 8.6286v56.06c0 4.5199-3.7055 8.1702-8.2214 8.1702l-0.86238-0.0048c4.9959 0 9.0838 4.0615 9.0838 9.0526v69.397zm-27.749-131.56h8.0958v45.576h-8.0958zm0 65.159h8.0958v55.236h-8.0958zm140.26 75.078v-160h-19.728v27.847h-19.195c-4.6975 8e-3 -8.5118 3.8511-8.5238 8.6294l-0.0232 114.84c0.0128 4.7791 3.8543 8.6174 8.5942 8.6294l38.875 0.0512zm-19.72-112.61h-8.0958v92.758h8.0958zm-84.246-27.636h19.722v-19.749h-19.722zm0 140.24h19.722v-132.14h-19.722z" fill-rule="evenodd" stroke-width=".37697"/>
</svg>
