<?xml version="1.0" encoding="UTF-8"?>
<svg id="SVGRoot" width="192px" height="192px" version="1.1" viewBox="0 0 192 192" xmlns="http://www.w3.org/2000/svg">
 <g transform="matrix(.35738 0 0 .35766 20.037 20)" fill="none" stroke="#000" stroke-linecap="round" stroke-linejoin="round" stroke-width="22.376">
  <path d="m349.59 76.814c0-15.45-12.569-28.019-28.018-28.019-15.449 0-28.018 12.569-28.018 28.019 0 15.45 12.569 28.019 28.018 28.019 15.449 0 28.018-12.569 28.018-28.019zm-28.018 8.3566c-4.6078 0-8.3564-3.7487-8.3564-8.3566 0-4.608 3.7486-8.3567 8.3564-8.3567 4.6078 0 8.3564 3.7487 8.3564 8.3567 0 4.608-3.7486 8.3566-8.3564 8.3566z"/>
  <path d="m415.31 44.23c-1.8296-5.1123-7.4578-7.7717-12.57-5.9401l-10.292 3.6858c-13.001-24.91-39.105-41.971-68.92-41.971-0.20744 0-0.41684 9.8314e-4 -0.62427 0.0019663-27.782 0.22809-53.496 15.446-67.106 39.717-15.21 27.115-32.358 51.06-50.97 71.168-54.882 59.286-133.41 142.21-136.11 145.07l-53.992 54.827c-6.7274 6.8249-7.4912 17.008-1.8581 24.762 5.6342 7.753 15.555 10.174 24.122 5.8841 34.856-17.421 75.921-18.931 112.67-4.141 18.213 7.3303 37.37 11.425 57.04 12.223l26.423 75.59c-26.659-77.699-13.41-78.181-17.968-70.671-2.555 4.2103 5.7666-11.957-3.5304-7.8784 0 0-1.654-0.65003-4.8458-16.12l-2.3451 9.125c-8.7924 17.286 33.268 8.5364 38.386 7.6663l21.285 63.873c1.3724 4.1193 4.8997 11.148 4.8997 11.148 3.7058 4.2975-5.2993-11.22-4.2681-11.564 0 0 7.9356 15.566 6.2191 10.415l-26.594-70.94c27.521-8.0489 70.468-30.366 91.335-51.36 32.61-32.808 50.416-76.204 50.139-122.2-0.10028-15.341-2.213-30.495-6.2899-45.136 14.169-14.751 21.997-34.51 21.654-55.139-0.0924-5.4574-0.76584-10.775-1.9397-15.905l10.111-3.6219c5.1151-1.8306 7.7744-7.4581 5.9438-12.57zm-33.77 32.428c0.28215 17.011-6.8738 33.233-19.635 44.507-2.9178 2.5778-4.0386 6.6352-2.8598 10.346 4.6304 14.57 7.0282 29.784 7.1285 45.215 0.24578 40.714-15.53 79.144-44.422 108.21-7.4293 7.4748-15.487 14.078-24.046 19.776-4.307-13.431-6.4944-27.428-6.4944-41.757 0-30.179 9.6354-58.787 27.865-82.73 3.2894-4.3199 2.4538-10.488-1.8659-13.778-4.3217-3.2906-10.49-2.4529-13.777 1.866-20.858 27.396-31.884 60.123-31.884 94.642 0 17.801 2.9522 35.162 8.7683 51.737-20.484 10.015-43.089 15.313-66.486 15.313-19.649 0-38.772-3.6858-56.835-10.956-19.122-7.696-39.274-11.522-59.325-11.522-23.063 0-45.99 5.0651-67.042 15.127l52.159-52.967c0.04424-0.0452 0.08848-0.0904 0.13272-0.13665 0.79926-0.84452 80.687-85.188 136.34-145.3 19.661-21.242 37.725-46.443 53.689-74.907 10.169-18.133 29.373-29.503 50.117-29.673 21.521-0.17303 40.508 11.558 50.661 29.013l-2.9365 1.052c-5.1111 1.8306 7.3236 25.509 1.4367 9.6219-2.3938-6.4602 6.4262 4.1665 18.107-0.11484 6.0152-2.2047-14.009 9.3966-12.914 9.0044l3.1499-1.1286c0.57609 3.1038 0.91625 6.2881 0.97228 9.5413z"/>
  <path d="m250.47 181.63 0.71309 11.794c0.32673 5.404-4.6526-17.728-4.6664-12.306-9.8e-4 0.35884-5e-3 0.7167-0.01 1.0677-0.33327 21.765-9.0406 42.335-24.517 57.92-15.477 15.586-35.984 24.434-57.742 24.915-8.7948 0.19269-17.349-0.92611-25.578-3.3397l82.17-90.484c3.6503-4.02 7.0387-2.1292 3.0188-5.7795 2.62 5.9321-0.64741 0.33405-4.2977 4.3541l-101.4 101.83c-2.0871 2.2996 18.425-3.3958 6.4827 1.8642 17.562-1.375-9.9419-0.26157-7.1421 1.0804 14.071 6.7443 29.124 10.157 44.783 10.157 0.79631 0 1.5936-9e-3 2.3929-0.0265 26.872-0.59381 45.54-15.188 64.621-34.404 19.079-19.213 21.699-44.597 22.849-59.689-8.8451 14.304-14.742 32.294-6.6272 17.115-5.1509 15.209 4.4543-34.201 4.9458-26.071z"/>
  <path d="m334.79 137.33c-3.2 2.3762-6.3508 4.9078-9.364 7.5249-4.0995 3.5599-4.537 9.7694-0.97622 13.869 1.9436 2.2386 4.6776 3.3849 7.4263 3.3849 2.2857 0 4.5812-0.79241 6.4423-2.4087 2.6377-2.2907 5.3943-4.5057 8.1932-6.584 4.36-3.2365 5.2694-9.3948 2.033-13.754-3.2383-4.3582-9.3955-5.2686-13.755-2.0321z"/>
 </g>
</svg>
