<svg xmlns="http://www.w3.org/2000/svg" width="192" height="192" viewBox="0 0 192 192"><g fill="none" stroke="#000" stroke-linecap="round" stroke-linejoin="round" stroke-width="22.376"><path d="M349.59 76.814c0-15.45-12.569-28.019-28.018-28.019s-28.018 12.569-28.018 28.019c0 15.45 12.569 28.019 28.018 28.019s28.018-12.569 28.018-28.019zm-28.018 8.357c-4.608 0-8.356-3.75-8.356-8.357 0-4.608 3.748-8.357 8.356-8.357s8.356 3.749 8.356 8.357c0 4.608-3.748 8.357-8.356 8.357z" transform="matrix(.35738 0 0 .35766 20.037 20)"/><path d="M415.31 44.23c-1.83-5.112-7.458-7.772-12.57-5.94l-10.292 3.686C379.447 17.066 353.343.005 323.528.005c-.207 0-.417 0-.624.002-27.782.228-53.496 15.446-67.106 39.717-15.21 27.115-32.358 51.06-50.97 71.168-54.882 59.286-133.41 142.21-136.11 145.07l-53.992 54.827c-6.728 6.825-7.491 17.008-1.858 24.762 5.634 7.753 15.555 10.174 24.122 5.884 34.856-17.421 75.92-18.931 112.67-4.141 18.213 7.33 37.37 11.425 57.04 12.223l26.423 75.59c-26.66-77.7-13.41-78.181-17.968-70.671-2.555 4.21 5.766-11.957-3.53-7.879 0 0-1.655-.65-4.847-16.12l-2.345 9.125c-8.792 17.286 33.268 8.537 38.386 7.667l21.285 63.873c1.373 4.119 4.9 11.148 4.9 11.148 3.706 4.297-5.3-11.22-4.268-11.564 0 0 7.936 15.566 6.219 10.415l-26.594-70.94c27.521-8.05 70.468-30.366 91.335-51.36 32.61-32.808 50.416-76.204 50.139-122.2-.1-15.341-2.213-30.495-6.29-45.136a77.648 77.648 0 0 0 21.654-55.14 77.081 77.081 0 0 0-1.94-15.904l10.111-3.622c5.116-1.83 7.775-7.458 5.944-12.57zm-33.77 32.428a58.03 58.03 0 0 1-19.635 44.507 9.833 9.833 0 0 0-2.86 10.346c4.63 14.57 7.028 29.784 7.129 45.215.245 40.714-15.53 79.144-44.422 108.21a154.987 154.987 0 0 1-24.046 19.776c-4.307-13.431-6.495-27.428-6.495-41.757 0-30.179 9.636-58.787 27.865-82.73 3.29-4.32 2.454-10.488-1.866-13.778-4.321-3.29-10.49-2.453-13.777 1.866-20.858 27.396-31.884 60.123-31.884 94.642 0 17.801 2.953 35.162 8.769 51.737-20.484 10.015-43.09 15.313-66.486 15.313-19.65 0-38.772-3.686-56.835-10.956-19.122-7.696-39.274-11.522-59.325-11.522-23.063 0-45.99 5.065-67.042 15.127l52.159-52.967.132-.137c.8-.844 80.687-85.188 136.34-145.3 19.661-21.242 37.725-46.443 53.69-74.907 10.168-18.133 29.372-29.503 50.116-29.673 21.521-.173 40.508 11.558 50.661 29.013l-2.936 1.052c-5.111 1.831 7.324 25.51 1.437 9.622-2.394-6.46 6.426 4.167 18.107-.115 6.015-2.204-14.01 9.397-12.914 9.005l3.15-1.129c.576 3.104.916 6.288.972 9.542z" transform="matrix(.35738 0 0 .35766 20.037 20)"/><path d="m250.47 181.63.713 11.794c.327 5.404-4.653-17.728-4.666-12.306a92.84 92.84 0 0 1-.01 1.068c-.334 21.765-9.04 42.335-24.517 57.92-15.477 15.586-35.984 24.434-57.742 24.915-8.795.192-17.35-.926-25.578-3.34l82.17-90.484c3.65-4.02 7.038-2.13 3.018-5.78 2.62 5.933-.647.335-4.297 4.355l-101.4 101.83c-2.087 2.3 18.425-3.396 6.482 1.864 17.562-1.375-9.941-.262-7.142 1.08 14.071 6.745 29.124 10.157 44.783 10.157.797 0 1.594-.009 2.393-.026 26.872-.594 45.54-15.188 64.621-34.404 19.08-19.213 21.7-44.597 22.85-59.69-8.846 14.305-14.743 32.295-6.628 17.116-5.15 15.209 4.454-34.201 4.946-26.071zM334.79 137.33c-3.2 2.376-6.35 4.908-9.364 7.525-4.1 3.56-4.537 9.77-.976 13.869a9.806 9.806 0 0 0 7.426 3.385 9.793 9.793 0 0 0 6.442-2.409 138.212 138.212 0 0 1 8.194-6.584c4.36-3.236 5.269-9.395 2.033-13.754-3.239-4.358-9.396-5.268-13.755-2.032z" transform="matrix(.35738 0 0 .35766 20.037 20)"/></g></svg>