<svg xmlns="http://www.w3.org/2000/svg" width="192" height="192" viewBox="0 0 192 192"><path fill="none" stroke="#000" stroke-linecap="round" stroke-linejoin="round" stroke-width="8" d="M50.464 148.92c-5.706-1.101-13.476-5.087-17.946-9.206-8.592-7.917-13.281-19.688-12.415-31.161 1.8-23.82 24.144-40.524 46.531-34.786 7.362 1.887 12.272 4.744 17.795 10.354 5.425 5.511 8.287 10.568 9.946 17.572.525 2.216 1.076 4.419 1.225 4.894.149.475.606-1.076 1.016-3.446 1.146-6.626 4.965-13.935 10.019-19.175 7.257-7.524 15.329-11.237 25.599-11.776 15.292-.803 29.388 7.82 35.995 22.019 5.092 10.943 5.064 22.63-.08 33.39-4.05 8.479-10.124 14.572-18.378 18.439-5.779 2.707-9.353 3.442-16.411 3.373-7.263-.07-12.85-1.619-18.918-5.245-4.655-2.78-10.478-8.705-13.211-13.44-2.313-4.007-4.937-11.652-4.937-14.382 0-.933-.255-1.697-.566-1.697-.311 0-.566.675-.566 1.5 0 2.807-1.79 8.563-4.02 12.934-7.617 14.92-24.217 23.016-40.677 19.84zM71.4 119.109c2.798-1.938 4.083-4.055 4.382-7.223.311-3.29-.455-4.204-1.788-2.135-1.187 1.844-4.87 3.745-7.255 3.745-2.503 0-5.533-1.714-7.064-3.995l-1.25-1.863-.375 1.52c-1.353 5.484 3.165 11.246 8.817 11.246 1.83 0 3.248-.406 4.533-1.296zm57.722 0c2.633-1.823 3.988-3.892 4.35-6.643.518-3.925-.09-4.544-2.138-2.172-3.47 4.021-8.773 4.153-12.549.311-2.478-2.52-3.037-2.107-2.514 1.86.575 4.36 4.452 7.94 8.601 7.94 1.536 0 3.043-.46 4.25-1.296zm37.061-52.049c-2.035-1.558-7.287-4.066-10.752-5.135-1.867-.576-3.477-1.1-3.576-1.165-.099-.064.707-1.3 1.792-2.745 2.052-2.735 3.87-7.054 4.938-11.733 1.057-4.629 1.01-4.577 2.545-2.71 4.062 4.938 6.624 13.06 6.35 20.127-.16 4.122-.193 4.206-1.297 3.361zm-141.75-3.767c.014-7.142 2.045-13.628 5.912-18.883.816-1.109 1.629-2.015 1.807-2.015.178 0 .788 1.86 1.355 4.132 1.204 4.82 3.436 9.858 5.444 12.287 1.027 1.24 1.209 1.776.66 1.94-4.114 1.234-8.732 3.12-11.65 4.756l-3.536 1.984.008-4.202z"/></svg>