<?xml version="1.0" encoding="UTF-8"?>
<svg id="SVGRoot" width="192px" height="192px" version="1.1" viewBox="0 0 192 192" xmlns="http://www.w3.org/2000/svg">
 <path d="m50.464 148.92c-5.7057-1.1012-13.476-5.0874-17.946-9.206-8.5918-7.9172-13.281-19.688-12.415-31.161 1.7997-23.82 24.144-40.524 46.531-34.786 7.3625 1.887 12.272 4.7437 17.795 10.354 5.4252 5.511 8.2874 10.568 9.9461 17.572 0.52488 2.2165 1.0761 4.4186 1.2249 4.8936 0.14886 0.47496 0.60603-1.0757 1.016-3.4458 1.1461-6.626 4.9654-13.935 10.019-19.175 7.2572-7.5238 15.329-11.237 25.599-11.776 15.292-0.80273 29.388 7.82 35.995 22.019 5.0917 10.943 5.064 22.63-0.0791 33.391-4.0518 8.4779-10.125 14.571-18.379 18.438-5.7788 2.7075-9.3525 3.4421-16.411 3.3735-7.2625-0.0706-12.849-1.6193-18.918-5.2449-4.6546-2.7804-10.478-8.705-13.211-13.44-2.3129-4.0073-4.9371-11.652-4.9371-14.382 0-0.93357-0.25465-1.6974-0.5659-1.6974-0.31124 0-0.56589 0.67505-0.56589 1.5001 0 2.8066-1.7895 8.5633-4.0205 12.934-7.6161 14.919-24.217 23.016-40.677 19.839zm20.936-29.811c2.7984-1.9376 4.0833-4.0552 4.3824-7.2227 0.3107-3.2896-0.45534-4.2044-1.788-2.1352-1.1878 1.8443-4.8697 3.7446-7.2551 3.7446-2.5031 0-5.5334-1.7136-7.0643-3.9948l-1.2501-1.8628-0.37517 1.5207c-1.3528 5.4833 3.1652 11.245 8.8173 11.245 1.8291 0 3.2475-0.40532 4.5329-1.2954zm57.722 0c2.6331-1.8232 3.9881-3.8921 4.3508-6.6431 0.51751-3.9251-0.0914-4.5436-2.1384-2.1719-3.4708 4.0215-8.773 4.1531-12.549 0.31136-2.4783-2.5213-3.0372-2.1077-2.5141 1.8605 0.57482 4.3599 4.452 7.9385 8.6008 7.9385 1.5357 0 3.0424-0.45922 4.25-1.2954zm37.061-52.049c-2.0354-1.5578-7.2874-4.0662-10.752-5.1352-1.8675-0.5762-3.4765-1.1004-3.5756-1.1648-0.099-0.06444 0.70694-1.2995 1.7912-2.7446 2.0525-2.7356 3.8702-7.0539 4.9386-11.733 1.057-4.629 1.0089-4.5778 2.5444-2.7113 4.0627 4.9385 6.6247 13.06 6.3498 20.128-0.16026 4.1217-0.19277 4.2057-1.2963 3.3611zm-141.75-3.7674c0.01412-7.1411 2.0451-13.628 5.9121-18.883 0.81549-1.1083 1.6285-2.015 1.8067-2.015 0.17821 0 0.78819 1.8595 1.3555 4.1322 1.2035 4.8211 3.4354 9.8586 5.444 12.287 1.0264 1.241 1.2085 1.7759 0.66042 1.9403-4.1148 1.2343-8.7328 3.1197-11.65 4.7562l-3.5369 1.9841 0.0083-4.2021z" fill="none" stroke="#000" stroke-linecap="round" stroke-linejoin="round" stroke-width="8"/>
</svg>
