<svg xmlns="http://www.w3.org/2000/svg" width="192" height="192" viewBox="0 0 192 192"><g fill="none" stroke="#000" stroke-linecap="round" stroke-linejoin="round" stroke-width="8"><path d="M156.65 28H35.35a7.351 7.351 0 0 0-7.351 7.351v121.3a7.351 7.351 0 0 0 7.351 7.352h121.3a7.351 7.351 0 0 0 7.351-7.352v-121.3A7.351 7.351 0 0 0 156.65 28z" class="a"/><path d="M72.071 83.392v15.695a9.52 9.52 0 0 0 9.52 9.52 9.483 9.483 0 0 0 9.483-9.52V83.392M120.22 108.61V92.915a9.52 9.52 0 0 0-9.52-9.52 9.483 9.483 0 0 0-9.483 9.52v15.695M42.703 92.912a9.52 9.52 0 0 1 9.52-9.52 9.52 9.52 0 0 1 9.52 9.52v6.175a9.52 9.52 0 0 1-9.52 9.52 9.52 9.52 0 0 1-9.52-9.52M42.703 108.61V70.564M149.3 99.088a9.52 9.52 0 0 1-9.52 9.52 9.52 9.52 0 0 1-9.52-9.52v-6.175a9.52 9.52 0 0 1 9.52-9.52 9.52 9.52 0 0 1 9.52 9.52M149.3 83.392v38.048" class="a"/></g></svg>