<?xml version="1.0" encoding="UTF-8"?>
<svg id="SVGRoot" width="192px" height="192px" version="1.1" viewBox="0 0 192 192" xmlns="http://www.w3.org/2000/svg">
 <g fill="none" stroke="#000" stroke-linecap="round" stroke-linejoin="round" stroke-width="8">
  <path class="a" d="m156.65 28h-121.3a7.3514 7.3514 0 0 0-7.3514 7.3514v121.3a7.3514 7.3514 0 0 0 7.3514 7.3514h121.3a7.3514 7.3514 0 0 0 7.3514-7.3514v-121.3a7.3514 7.3514 0 0 0-7.3514-7.3514z"/>
  <path class="a" d="m72.071 83.392v15.695a9.52 9.52 0 0 0 9.52 9.52 9.4832 9.4832 0 0 0 9.4832-9.52v-15.695"/>
  <path class="a" d="m120.22 108.61v-15.695a9.52 9.52 0 0 0-9.52-9.52 9.4832 9.4832 0 0 0-9.4832 9.52v15.695"/>
  <path class="a" d="m42.703 92.912a9.52 9.52 0 0 1 9.52-9.52 9.52 9.52 0 0 1 9.52 9.52v6.1751a9.52 9.52 0 0 1-9.52 9.52 9.52 9.52 0 0 1-9.52-9.52"/>
  <line class="a" x1="42.703" x2="42.703" y1="108.61" y2="70.564"/>
  <path class="a" d="m149.3 99.088a9.52 9.52 0 0 1-9.52 9.52 9.52 9.52 0 0 1-9.52-9.52v-6.1751a9.52 9.52 0 0 1 9.52-9.52 9.52 9.52 0 0 1 9.52 9.52"/>
  <line class="a" x1="149.3" x2="149.3" y1="83.392" y2="121.44"/>
 </g>
</svg>
