<?xml version="1.0" encoding="UTF-8"?>
<svg id="SVGRoot" width="192px" height="192px" version="1.1" viewBox="0 0 192 192" xmlns="http://www.w3.org/2000/svg">
 <g fill="none" stroke="#000" stroke-linecap="round" stroke-linejoin="round" stroke-width="8">
  <rect x="20" y="20" width="152" height="152" rx="11.875"/>
  <path d="m84.903 80.715c3.4528 0.77971 6.1815 2.5061 8.1864 5.1792 2.0606 2.6175 3.0908 5.6247 3.0908 9.0218 0 5.0122-1.7264 8.9383-5.1792 11.778-3.4528 2.8403-8.2979 4.2604-14.535 4.2604h-29.154v-58.892h28.235c6.0144 0 10.72 1.3365 14.117 4.0097 3.4528 2.6731 5.1792 6.4322 5.1792 11.277 0 3.4528-0.91889 6.3487-2.7567 8.6878-1.7821 2.2832-4.1768 3.8425-7.184 4.6779zm-21.218-5.2628h8.27c4.1211 0 6.1816-1.6985 6.1816-5.0956 0-3.5085-2.0606-5.2628-6.1816-5.2628h-8.27zm9.523 22.304c4.1211 0 6.1816-1.7264 6.1816-5.1792 0-1.7821-0.55694-3.1465-1.6707-4.0933-1.0582-0.94668-2.5897-1.42-4.5944-1.42h-9.4396v10.692z"/>
  <path d="m123.48 141.12c-6.8499 0-12.475-1.615-16.874-4.8451-4.3996-3.2857-6.7664-7.9636-7.1005-14.034h17.459c0.16709 2.0606 0.77972 3.5642 1.8378 4.511 1.0581 0.94667 2.4225 1.42 4.0932 1.42 1.5036 0 2.7289-0.36195 3.6756-1.086 1.0025-0.77959 1.5036-1.8378 1.5036-3.1743 0-1.7264-0.8075-3.0629-2.4225-4.0097-1.615-0.94667-4.2324-2.0048-7.8522-3.1743-3.8426-1.2808-6.9614-2.5061-9.356-3.6756-2.339-1.2251-4.3996-2.9794-6.1816-5.2628-1.7264-2.3389-2.5896-5.374-2.5896-9.1053 0-3.7869 0.94667-7.0169 2.8401-9.6901 1.8935-2.7289 4.511-4.7893 7.8523-6.1816 3.3414-1.3922 7.1283-2.0883 11.361-2.0883 6.8499 0 12.307 1.615 16.373 4.845 4.1209 3.1744 6.3213 7.6575 6.5992 13.449h-17.793c-0.0557-1.7821-0.61264-3.1187-1.6707-4.0097-1.0024-0.8911-2.3111-1.3366-3.9261-1.3366-1.2253 0-2.2276 0.36207-3.0073 1.086-0.7796 0.72402-1.1694 1.7543-1.1694 3.0908 0 1.1139 0.41764 2.0885 1.253 2.9237 0.89098 0.77971 1.977 1.4758 3.2578 2.0885 1.281 0.55682 3.1744 1.2808 5.6804 2.1718 3.7312 1.281 6.7943 2.5618 9.1889 3.8426 2.4508 1.2253 4.5384 2.9794 6.265 5.2628 1.7824 2.2276 2.6731 5.0678 2.6731 8.5206 0 3.5085-0.89063 6.655-2.6731 9.4396-1.7266 2.7844-4.2602 4.9842-7.6016 6.5993-3.2857 1.615-7.184 2.4225-11.695 2.4225z"/>
 </g>
</svg>
