<svg xmlns="http://www.w3.org/2000/svg" width="192" height="192" viewBox="0 0 192 192"><g fill="none" stroke="#000" stroke-linecap="round" stroke-linejoin="round" stroke-width="8"><rect width="152" height="152" x="20" y="20" rx="11.875"/><path d="M84.903 80.715c3.453.78 6.181 2.506 8.186 5.18 2.061 2.617 3.091 5.624 3.091 9.021 0 5.012-1.726 8.938-5.179 11.778-3.453 2.84-8.298 4.26-14.535 4.26H47.312V52.062h28.235c6.014 0 10.72 1.337 14.117 4.01 3.453 2.673 5.18 6.432 5.18 11.277 0 3.453-.92 6.349-2.757 8.688-1.783 2.283-4.177 3.842-7.184 4.678zm-21.218-5.263h8.27c4.121 0 6.182-1.698 6.182-5.095 0-3.509-2.061-5.263-6.182-5.263h-8.27zm9.523 22.304c4.121 0 6.182-1.726 6.182-5.179 0-1.782-.557-3.146-1.671-4.093-1.058-.947-2.59-1.42-4.594-1.42h-9.44v10.692zM123.48 141.12c-6.85 0-12.475-1.615-16.874-4.845-4.4-3.286-6.766-7.964-7.1-14.034h17.459c.167 2.06.78 3.564 1.837 4.51 1.058.948 2.423 1.42 4.094 1.42 1.503 0 2.728-.361 3.675-1.085 1.003-.78 1.504-1.838 1.504-3.174 0-1.727-.808-3.063-2.423-4.01-1.615-.947-4.232-2.005-7.852-3.174-3.843-1.281-6.961-2.506-9.356-3.676-2.339-1.225-4.4-2.98-6.182-5.263-1.726-2.339-2.59-5.374-2.59-9.105 0-3.787.947-7.017 2.84-9.69 1.894-2.73 4.512-4.79 7.853-6.182 3.342-1.392 7.129-2.088 11.361-2.088 6.85 0 12.307 1.615 16.373 4.845 4.121 3.174 6.322 7.657 6.6 13.449h-17.794c-.055-1.782-.612-3.119-1.67-4.01-1.003-.89-2.311-1.336-3.926-1.336-1.226 0-2.228.362-3.008 1.086-.78.724-1.17 1.754-1.17 3.09 0 1.114.419 2.089 1.254 2.924.89.78 1.977 1.476 3.258 2.089 1.28.556 3.174 1.28 5.68 2.171 3.731 1.281 6.794 2.562 9.189 3.843 2.45 1.225 4.538 2.98 6.265 5.263 1.782 2.227 2.673 5.068 2.673 8.52 0 3.509-.89 6.655-2.673 9.44-1.727 2.784-4.26 4.984-7.602 6.6-3.285 1.614-7.184 2.422-11.695 2.422z"/></g></svg>