<?xml version="1.0" encoding="UTF-8"?>
<svg id="SVGRoot" width="192px" height="192px" version="1.1" viewBox="0 0 192 192" xmlns="http://www.w3.org/2000/svg">
 <g fill="none" stroke="#000" stroke-linecap="round" stroke-linejoin="round" stroke-width="8">
  <path id="path" d="m81.612 93.758s4.9327 1.3232 11.211 1.4077c6.5302 0.11261 14.013-1.4077 14.013-1.4077"/>
  <path d="m77.408 72.643m-9.8093 0c0-2.6126 1.0342-5.1211 2.8727-6.9679 1.8386-1.8469 4.3357-2.8857 6.9366-2.8857s5.0981 1.0389 6.9366 2.8857c1.8386 1.8468 2.8727 4.3553 2.8727 6.9679 0 2.6126-1.0342 5.1211-2.8727 6.9679-1.8386 1.8468-4.3357 2.8857-6.9366 2.8857s-5.0981-1.0389-6.9366-2.8857c-1.8386-1.8469-2.8727-4.3553-2.8727-6.9679"/>
  <path d="m113.84 72.643m-9.8093 0c0-2.6126 1.0342-5.1211 2.8727-6.9679 1.8386-1.8469 4.3357-2.8857 6.9366-2.8857s5.0981 1.0389 6.9366 2.8857c1.8386 1.8468 2.8727 4.3553 2.8727 6.9679 0 2.6126-1.0342 5.1211-2.8727 6.9679-1.8386 1.8468-4.3357 2.8857-6.9366 2.8857s-5.098-1.0389-6.9366-2.8857c-1.8386-1.8469-2.8727-4.3553-2.8727-6.9679"/>
  <path d="m81.753 148.8 4.3161-3.5755-4.7365-5.7432-4.176 6.1374zm-30.689 12.219 2.7466-4.8987zm59.276-12.866 4.6805-3.0969-4.3722-6.6723-4.7926 6.3626zm31.138 12.866 2.7186 4.9268zm3.9798-36.092-4.9047 2.759zm-9.9775-11.796-2.074-5.2084-9.1647 3.6599 7.8194 6.0248zm24.411-22.157 4.9047 2.7309zm-11.267-57.827-2.7466 4.8987zm-52.634 17.202-4.6524 3.125 4.6524 7.0383 4.6805-7.0383zm-52.606-17.202 2.7186 4.8987zm-11.295 57.827-4.9047 2.7309zm24.804 22.326 3.4473 4.4201 7.7634-6.1093-9.1928-3.5755zm-9.7813 11.627-4.9047-2.759zm30.045 20.693c-3.5874 5.2084-8.0997 8.812-12.416 10.557-4.3161 1.7174-8.0997 1.5484-10.93-0.0563l-5.4652 9.8255c6.4742 3.6318 13.929 3.3502 20.572 0.67568 6.6423-2.6746 12.808-7.8266 17.461-14.612zm18.638 4.1948c-3.8957 0-7.399-1.7737-9.7253-4.589l-8.6042 7.1791c4.3441 5.2928 10.958 8.6712 18.329 8.6712zm10.062-5.0676c-2.2982 3.0969-5.9417 5.0676-10.062 5.0676v11.261c7.7634 0 14.686-3.7725 19.002-9.544zm32.875 11.374c-2.8868 1.6329-6.7544 1.8018-11.155-0.0563-4.4282-1.83-8.9966-5.6025-12.556-11.008l-9.3609 6.1937c4.6244 7.0383 10.874 12.416 17.601 15.203 6.7544 2.8435 14.35 3.2095 20.936-0.50676zm1.8217-28.435c3.4753 6.1937 4.6805 12.641 4.1199 17.877-0.58856 5.2647-2.8587 8.8401-5.9417 10.557l5.4652 9.8255c7.0627-3.9696 10.762-11.318 11.603-19.144 0.86883-7.8266-0.98093-16.61-5.4652-24.634zm-8.4921-10.079c3.167 2.4493 6.1378 5.8559 8.4921 10.079l9.7813-5.518c-3.0549-5.4617-7.0067-10.051-11.435-13.485zm22.926-29.364c-5.269 9.544-13.173 16.301-21.581 19.679l4.148 10.445c10.902-4.3638 20.768-12.951 27.242-24.662zm-9.1087-50.197c14.826 8.2771 20.095 30.349 9.1087 50.197l9.8093 5.4617c13.088-23.649 8.2679-53.35-13.453-65.485zm-45.207 15.428c11.491-17.342 31.25-23.226 45.207-15.428l5.4652-9.8255c-20.431-11.402-46.216-1.8018-60.005 19.003zm-54.568-15.428c13.957-7.7985 33.716-1.9144 45.235 15.428l9.3329-6.25c-13.817-20.805-39.602-30.406-60.005-19.003zm-9.1087 50.197c-10.986-19.848-5.7174-41.92 9.1087-50.197l-5.4372-9.8255c-21.721 12.106-26.541 41.836-13.481 65.485zm21.917 19.792c-8.5201-3.3221-16.564-10.135-21.917-19.792l-9.8093 5.4617c6.5863 11.853 16.592 20.524 27.662 24.831zm-6.9226 19.651c2.2982-4.1385 5.241-7.5169 8.352-9.9663l-6.8946-8.8683c-4.3441 3.4066-8.2399 7.9392-11.239 13.316zm1.8217 28.435c-3.0829-1.7174-5.3531-5.2928-5.9417-10.557-0.56053-5.2365 0.67264-11.684 4.1199-17.877l-9.7813-5.518c-4.4843 8.0237-6.334 16.808-5.4652 24.634 0.86883 7.8266 4.5403 15.175 11.603 19.144z"/>
 </g>
</svg>
