<svg xmlns="http://www.w3.org/2000/svg" width="192" height="192" viewBox="0 0 192 192"><g fill="none" stroke="#000" stroke-linecap="round" stroke-linejoin="round" stroke-width="8"><path d="M81.612 93.758s4.933 1.323 11.211 1.408c6.53.112 14.013-1.408 14.013-1.408M67.598 72.643a9.88 9.88 0 0 1 2.873-6.968c1.839-1.847 4.336-2.886 6.937-2.886s5.098 1.04 6.937 2.886a9.88 9.88 0 0 1 2.872 6.968 9.88 9.88 0 0 1-2.872 6.968c-1.839 1.847-4.336 2.886-6.937 2.886s-5.098-1.04-6.937-2.886a9.88 9.88 0 0 1-2.872-6.968M104.03 72.643a9.88 9.88 0 0 1 2.873-6.968c1.839-1.847 4.336-2.886 6.937-2.886s5.098 1.04 6.937 2.886a9.88 9.88 0 0 1 2.872 6.968 9.88 9.88 0 0 1-2.872 6.968c-1.839 1.847-4.336 2.886-6.937 2.886s-5.098-1.04-6.937-2.886a9.88 9.88 0 0 1-2.872-6.968M81.753 148.8l4.316-3.575-4.736-5.744-4.176 6.138zm-30.689 12.219 2.747-4.899zm59.276-12.866 4.68-3.097-4.372-6.672-4.792 6.362zm31.138 12.866 2.719 4.927zm3.98-36.092-4.905 2.759zm-9.978-11.796-2.074-5.208-9.164 3.66 7.819 6.024zm24.411-22.157 4.905 2.73zm-11.267-57.827-2.746 4.899zM95.99 50.349l-4.652 3.125 4.652 7.038 4.68-7.038zM43.384 33.147l2.719 4.899zM32.09 90.974l-4.904 2.73zM56.893 113.3l3.448 4.42 7.763-6.11-9.193-3.575zm-9.781 11.627-4.905-2.759zm30.045 20.693c-3.587 5.208-8.1 8.812-12.416 10.557-4.316 1.717-8.1 1.548-10.93-.056l-5.465 9.825c6.474 3.632 13.929 3.35 20.572.676 6.642-2.675 12.808-7.827 17.46-14.612zm18.638 4.195a12.587 12.587 0 0 1-9.725-4.59l-8.604 7.18a23.679 23.679 0 0 0 18.329 8.671zm10.062-5.068c-2.298 3.097-5.942 5.068-10.062 5.068v11.26c7.763 0 14.686-3.772 19.002-9.543zm32.875 11.374c-2.887 1.633-6.754 1.802-11.155-.056-4.428-1.83-8.997-5.603-12.556-11.008l-9.36 6.194c4.624 7.038 10.873 12.416 17.6 15.203 6.755 2.843 14.35 3.21 20.936-.507zm1.822-28.435c3.475 6.194 4.68 12.641 4.12 17.877-.589 5.265-2.86 8.84-5.942 10.557l5.465 9.826c7.063-3.97 10.762-11.318 11.603-19.144.869-7.827-.98-16.61-5.465-24.634zm-8.492-10.079c3.167 2.45 6.137 5.856 8.492 10.08l9.781-5.519c-3.055-5.462-7.007-10.05-11.435-13.485zm22.926-29.364c-5.27 9.544-13.173 16.301-21.581 19.68l4.148 10.444c10.902-4.364 20.768-12.95 27.242-24.662zm-9.11-50.197c14.827 8.277 20.096 30.35 9.11 50.197l9.809 5.462c13.088-23.65 8.268-53.35-13.453-65.485zm-45.206 15.428c11.49-17.342 31.25-23.226 45.207-15.428l5.465-9.825c-20.43-11.402-46.216-1.802-60.005 19.003zM46.104 38.046c13.957-7.798 33.716-1.914 45.235 15.428l9.333-6.25C86.855 26.42 61.07 16.818 40.667 28.221zm-9.109 50.197c-10.986-19.848-5.717-41.92 9.109-50.197l-5.437-9.825C18.946 40.327 14.126 70.057 27.186 93.706zm21.917 19.792c-8.52-3.322-16.564-10.135-21.917-19.792l-9.81 5.462c6.587 11.853 16.593 20.524 27.663 24.83zm-6.922 19.651c2.298-4.138 5.24-7.517 8.352-9.966l-6.895-8.868c-4.344 3.406-8.24 7.939-11.239 13.316zm1.821 28.435c-3.083-1.717-5.353-5.293-5.941-10.557-.56-5.236.672-11.684 4.12-17.877l-9.782-5.518c-4.484 8.024-6.334 16.808-5.465 24.634.869 7.827 4.54 15.175 11.603 19.144z"/></g></svg>