<?xml version="1.0" encoding="UTF-8"?>
<svg id="SVGRoot" width="192px" height="192px" version="1.1" viewBox="0 0 192 192" xmlns="http://www.w3.org/2000/svg">
 <g fill="none" stroke="#000" stroke-linecap="round" stroke-linejoin="round">
  <path class="a" d="m103 87.63a21.545 22.883 0 0 1 0 45.765h-35.549v-91.53h35.549a21.545 22.883 0 1 1 0 45.765z" stroke-width="8"/>
  <line class="a" x1="103" x2="67.453" y1="87.63" y2="87.63" stroke-width="8"/>
  <polyline class="a" transform="matrix(3.8971 0 0 4.1392 2.4687 -3.4014)" points="21.236 33.049 23.22 37.064 25.205 33.049" stroke-width="1.9919"/>
  <path class="a" d="m67.453 67.303c-10.937 3.7745-35.761 22.851-44.372 39.552-4.7814 9.2718-4.6302 19.783 5.0741 24.628 11.892 5.9364 20.331-3.9736 24.192-16.544 4.9646-16.16 4.8761-39.679 15.106-47.636" stroke-width="8"/>
  <path class="a" d="m124.55 67.303c10.937 3.7745 35.761 22.851 44.372 39.552 4.7814 9.2718 4.6302 19.783-5.0741 24.628-11.892 5.9364-20.331-3.9736-24.192-16.544-4.9646-16.16-4.8761-39.679-15.106-47.636" stroke-width="8"/>
 </g>
</svg>
