<svg xmlns="http://www.w3.org/2000/svg" width="192" height="192" viewBox="0 0 192 192"><g fill="none" stroke="#000" stroke-linecap="round" stroke-linejoin="round"><path stroke-width="8" d="M103 87.63a21.545 22.883 0 0 1 0 45.765H67.451v-91.53H103a21.545 22.883 0 1 1 0 45.765zM103 87.63H67.453" class="a"/><path stroke-width="1.992" d="m21.236 33.049 1.984 4.015 1.985-4.015" class="a" transform="matrix(3.8971 0 0 4.1392 2.469 -3.401)"/><path stroke-width="8" d="M67.453 67.303c-10.937 3.775-35.761 22.851-44.372 39.552-4.781 9.272-4.63 19.783 5.074 24.628 11.892 5.936 20.331-3.974 24.192-16.544 4.965-16.16 4.876-39.679 15.106-47.636M124.55 67.303c10.937 3.775 35.761 22.851 44.372 39.552 4.781 9.272 4.63 19.783-5.074 24.628-11.892 5.936-20.331-3.974-24.192-16.544-4.965-16.16-4.876-39.679-15.106-47.636" class="a"/></g></svg>