<?xml version="1.0" encoding="UTF-8"?>
<svg id="SVGRoot" width="192px" height="192px" version="1.1" viewBox="0 0 192 192" xmlns="http://www.w3.org/2000/svg">
 <path d="m20 143.32v-6.2509h141.23v12.502h-141.23zm30.999-15.03c-4.9438-0.6166-10.9-2.2927-14.586-4.1046-6-2.9494-9.8931-6.9284-12.877-13.161-2.5381-5.302-3.3335-8.9087-3.3082-15.002 0.01875-4.5249 0.14902-5.3773 1.3692-8.9596 1.6337-4.7961 3.5438-8.4137 6.491-12.293 10.367-13.647 32.405-25.629 47.138-25.629 3.4296 0 4.9452 0.42359 6.436 1.7988 1.437 1.3256 3.2474 5.4096 3.9976 9.018 0.35946 1.7289 0.7423 3.575 0.85076 4.1025 0.18155 0.88296 0.08944 0.93875-1.1621 0.70353-1.9496-0.36643-7.9863 0.47614-12.22 1.7057-14.34 4.1641-31.819 16.078-38.664 26.354-2.4816 3.7252-3.88 7.991-3.5957 10.968 0.3895 4.0786 3.9922 7.3801 9.7388 8.9245 3.6021 0.96803 15.942 1.3135 21.611 0.60494 12.193-1.524 25.328-5.5073 40.409-12.255 8.0501-3.6017 16.948-8.3294 17.1-9.0851 0.14836-0.74131-8.6818-23.592-9.1811-23.758-0.20062-0.06696-3.2347 6.1589-6.7425 13.835-6.9258 15.157-7.4507 15.978-11.964 18.731-1.2627 0.76998-4.1045 2.017-6.3152 2.7711-3.8761 1.3222-13.622 3.3587-14.043 2.9346-0.11307-0.11382 3.5658-7.4861 8.1753-16.383 4.6095-8.8969 11.105-21.468 14.434-27.937l6.0527-11.761 21.537-0.0124 7.628 16.056c6.0818 12.802 7.7608 16.005 8.2834 15.806 0.59732-0.22837 29.468-15.914 32.674-17.752 0.75335-0.4319 1.4523-0.78528 1.5531-0.78528 0.10082 0 0.18341 3.9091 0.18341 8.6868v8.6868l-14.082 8.261c-7.745 4.5435-14.082 8.3858-14.082 8.5383s2.6304 6.0747 5.8453 13.16c3.2149 7.0858 6.2891 13.889 6.8315 15.118l0.98618 2.2344-10.248-0.16978c-11.017-0.18252-12.075-0.38004-13.427-2.5066-0.33529-0.52742-2.1635-4.897-4.0627-9.7101-1.8992-4.8132-3.4915-8.8044-3.5384-8.8693-0.047-0.065-0.85486 0.6617-6.0675 3.258-23.254 11.582-42.669 17.652-59.981 18.112-3.303 0.0877-7.4321-0.0183-9.1758-0.23592zm89.561-63.259c-1.1772-1.0188-3.2196-3.7824-2.6956-4.2302 0.17413-0.14878-1.1714-0.61059-0.0324-1.0262 2.834-1.0342 13.389-6.7528 27.474-14.323 6.624-3.5603 5.9543-2.9777 6.07-2.9777 0.11571 0 0.21036 2.9742 0.21036 6.6093l-0.80662 4.996-16.2 8.9037c-11.934 6.5592-11.716 4.043-14.021 2.0485z" fill="none" stroke="#000" stroke-linecap="round" stroke-linejoin="round" stroke-width="8"/>
</svg>
