<svg xmlns="http://www.w3.org/2000/svg" width="192" height="192" viewBox="0 0 192 192"><path fill="none" stroke="#000" stroke-linecap="round" stroke-linejoin="round" stroke-width="8" d="M20 143.32v-6.25h141.23v12.501H20zm30.999-15.03c-4.944-.617-10.9-2.293-14.586-4.105-6-2.949-9.893-6.928-12.877-13.16-2.538-5.303-3.334-8.91-3.308-15.003.019-4.525.149-5.377 1.369-8.96 1.634-4.795 3.544-8.413 6.491-12.292 10.367-13.647 32.405-25.63 47.138-25.63 3.43 0 4.945.424 6.436 1.8 1.437 1.325 3.247 5.41 3.998 9.018.36 1.729.742 3.575.85 4.102.182.883.09.939-1.162.704-1.95-.367-7.986.476-12.22 1.705-14.34 4.164-31.819 16.078-38.664 26.354-2.481 3.726-3.88 7.991-3.595 10.968.39 4.079 3.992 7.38 9.738 8.925 3.602.968 15.942 1.313 21.611.605 12.193-1.524 25.328-5.508 40.41-12.255 8.05-3.602 16.947-8.33 17.1-9.085.148-.742-8.682-23.592-9.182-23.758-.2-.067-3.234 6.159-6.742 13.835-6.926 15.157-7.45 15.978-11.964 18.73-1.263.77-4.105 2.018-6.315 2.772-3.877 1.322-13.622 3.358-14.043 2.934-.114-.113 3.565-7.486 8.175-16.383 4.61-8.897 11.105-21.468 14.434-27.937l6.053-11.76 21.537-.013 7.628 16.056c6.081 12.802 7.76 16.005 8.283 15.806.597-.228 29.468-15.914 32.674-17.752.753-.432 1.452-.785 1.553-.785.1 0 .183 3.909.183 8.686V81.1l-14.082 8.26c-7.745 4.544-14.082 8.386-14.082 8.539s2.63 6.074 5.846 13.16a3413.624 3413.624 0 0 1 6.831 15.118l.986 2.234-10.248-.17c-11.017-.182-12.075-.38-13.427-2.506-.335-.528-2.163-4.897-4.062-9.71-1.9-4.814-3.492-8.805-3.539-8.87-.047-.065-.855.662-6.067 3.258-23.254 11.582-42.67 17.652-59.981 18.112-3.303.088-7.432-.018-9.176-.236zm89.561-63.259c-1.177-1.019-3.22-3.782-2.696-4.23.175-.149-1.171-.61-.032-1.026 2.834-1.035 13.389-6.753 27.474-14.323 6.624-3.56 5.954-2.978 6.07-2.978.116 0 .21 2.974.21 6.61l-.806 4.995-16.2 8.904c-11.934 6.56-11.716 4.043-14.021 2.048z"/></svg>