<svg xmlns="http://www.w3.org/2000/svg" width="192" height="192" viewBox="0 0 192 192"><g fill="none" stroke="#000" stroke-linecap="round" stroke-linejoin="round" stroke-width="8"><path d="M40.427 77.452h111.15a7.633 7.409 0 0 1 7.633 7.409v79.731a7.633 7.409 0 0 1-7.633 7.409H40.427a7.633 7.409 0 0 1-7.633-7.409v-79.73a7.633 7.409 0 0 1 7.633-7.41z" class="a"/><path d="M54.167 77.452V60.445a41.799 40.572 0 0 1 83.597 0v17.007" class="a"/><path d="m59.877 154.61 24.001-24.799h22.001L81.878 154.61zM105.88 129.81l12 24.799H95.879l-4.575-9.453M85.878 125.68l-12-24.799h22.001l12 24.799" class="c"/><path d="m100.54 110.52 9.334-9.644h22l-24 24.799H85.873" class="c"/></g></svg>