<?xml version="1.0" encoding="UTF-8"?>
<svg id="SVGRoot" width="192px" height="192px" version="1.1" viewBox="0 0 192 192" xmlns="http://www.w3.org/2000/svg">
 <g fill="none" stroke="#000" stroke-linecap="round" stroke-linejoin="round" stroke-width="8">
  <path class="a" d="m130.22 73.73c-23.074 0-41.777 16.395-41.777 36.619a31.765 32.682 0 0 0 6.7416 19.936l-6.7416 16.682 19.529-5.63a47.006 48.363 0 0 0 22.247 5.63c23.073 0 41.777-16.395 41.777-36.619 0-20.224-18.703-36.619-41.777-36.619z"/>
  <line class="a" x1="134.48" x2="148.07" y1="98.664" y2="98.664"/>
  <ellipse class="a" cx="117.95" cy="98.664" rx="6.4895" ry="7.5116"/>
  <path class="a" d="m130.22 134.24c10.85 0 22.485-9.4936 22.485-22.222-8.6188 8.9721-15.184 10.328-22.485 10.328s-13.993-1.3563-22.612-10.328c0 12.728 11.762 22.222 22.612 22.222z"/>
  <path class="c" d="m19.999 103.93 26.423-27.186h24.221l-26.423 27.186z"/>
  <path class="c" d="m70.644 76.749 13.211 27.186h-24.221l-5.0363-10.363"/>
  <path class="c" d="m48.624 72.218-13.211-27.186h24.221l13.211 27.186"/>
  <path class="c" d="m64.771 55.605 10.276-10.572h24.221l-26.423 27.186h-24.221"/>
 </g>
</svg>
