<?xml version="1.0" encoding="UTF-8"?>
<svg width="192" height="192" fill="none" version="1.1" viewBox="0 0 192 192" xmlns="http://www.w3.org/2000/svg">
 <g transform="matrix(1.0326 0 0 1.1111 16 74.889)" fill="#000">
  <path d="m9.592 24.68h-7e-3c-2.542 0-5.176-0.059-6.906-0.799-0.898-0.38-1.52-0.891-1.959-1.605-0.484-0.786-0.72-1.808-0.72-3.112 0-0.996 0.144-2.162 0.419-3.479 0.066-0.302 1.566-7.312 1.664-7.685 0.4-1.461 0.898-2.667 1.533-3.676 1.094-1.736 2.555-2.857 4.593-3.525 1.697-0.55 3.859-0.799 6.998-0.799h0.026c1.651 0 3.007 0.118 4.147 0.354 1.343 0.282 2.372 0.747 3.053 1.369 0.511 0.472 0.839 1.042 0.976 1.703 0.072 0.334 0.105 0.708 0.105 1.107 0 0.93-0.19 1.907-0.341 2.686-0.02 0.118-0.046 0.223-0.066 0.334l-7e-3 0.033h-6.08l7e-3 -0.046s0.02-0.183 0.026-0.269c0-7e-3 0.026-0.249 0.026-0.603 0-0.531-0.249-0.943-0.753-1.264-0.4-0.229-0.917-0.308-1.409-0.367-0.524-0.066-1.114-0.072-1.671-0.072-1.022 0-1.795 0.079-2.431 0.256-0.504 0.138-0.93 0.341-1.284 0.609-0.504 0.38-0.898 0.93-1.199 1.677-0.282 0.694-0.485 1.527-0.708 2.555l-0.819 3.931c-0.269 1.264-0.459 2.221-0.459 3.047 0 0.478 0.066 0.852 0.203 1.186 0.216 0.531 0.675 0.943 1.297 1.166 0.596 0.216 1.356 0.314 2.457 0.314 0.734 0 1.337-0.013 1.887-0.079 0.95-0.111 1.631-0.4 2.142-0.898 0.557-0.537 0.93-1.337 1.179-2.509l0.085-0.4h6.014v0.039c0 0.046-0.341 1.625-0.518 2.26-0.183 0.662-0.38 1.219-0.609 1.717-0.583 1.271-1.396 2.254-2.562 3.086-1.127 0.786-2.326 1.271-3.774 1.527-1.245 0.216-2.522 0.236-3.938 0.236 5e-3 2e-3 -0.545-5e-3 -0.617-5e-3z"/>
  <path d="m76.963 24.68c-2.549 0-5.182-0.059-6.912-0.799-0.898-0.38-1.52-0.891-1.959-1.605-0.485-0.786-0.721-1.808-0.721-3.112 0-0.996 0.144-2.162 0.419-3.479 0.066-0.301 1.566-7.312 1.664-7.685 0.393-1.461 0.898-2.667 1.533-3.676 1.094-1.736 2.555-2.857 4.593-3.525 1.698-0.55 3.86-0.799 6.998-0.799h0.026c1.651 0 3.007 0.118 4.147 0.354 1.343 0.282 2.372 0.747 3.053 1.369 0.511 0.472 0.839 1.042 0.976 1.703 0.072 0.334 0.105 0.708 0.105 1.107 0 0.93-0.19 1.907-0.341 2.693-0.02 0.111-0.046 0.223-0.066 0.334l-7e-3 0.033h-6.08l7e-3 -0.046s0.02-0.183 0.026-0.269c0-7e-3 0.026-0.249 0.026-0.603 0-0.531-0.249-0.943-0.753-1.264-0.4-0.229-0.917-0.308-1.409-0.367-0.524-0.066-1.114-0.072-1.671-0.072-1.022 0-1.795 0.079-2.431 0.256-0.504 0.138-0.924 0.341-1.284 0.609-0.504 0.38-0.898 0.93-1.199 1.677-0.282 0.694-0.485 1.527-0.708 2.555l-0.832 3.918c-0.269 1.264-0.459 2.221-0.459 3.047 0 0.478 0.066 0.852 0.203 1.186 0.216 0.531 0.675 0.943 1.297 1.166 0.596 0.216 1.356 0.314 2.457 0.314 0.734 0 1.337-0.013 1.887-0.079 0.95-0.111 1.631-0.4 2.142-0.898 0.557-0.537 0.93-1.337 1.179-2.509l0.085-0.4h6.014v0.039c0 0.046-0.341 1.625-0.518 2.26-0.183 0.662-0.38 1.219-0.609 1.717-0.583 1.278-1.396 2.254-2.562 3.086-1.127 0.786-2.326 1.271-3.774 1.527-1.24 0.218-4.47 0.237-4.542 0.237z"/>
  <path d="m63.912 24.484h-17.493l0.013-0.046 4.894-23.023c0.085-0.426 0.242-0.714 0.498-0.911 0.262-0.203 0.622-0.301 1.101-0.301h14.761c0.367 0 0.629 0.085 0.786 0.242 0.118 0.124 0.183 0.301 0.183 0.518v0.02c0 0.092-0.013 0.177-0.033 0.269l-0.76 3.59h-11.425l-0.989 4.763h10.725l-0.976 4.488h-10.726l-1.219 5.746h11.662z"/>
  <path d="m95.282 24.484h-5.831l0.013-0.046 4.874-22.938c0.118-0.498 0.301-0.839 0.577-1.048 0.216-0.164 0.491-0.242 0.845-0.242h3.453c0.373 0 0.649 0.085 0.826 0.256 0.138 0.131 0.21 0.328 0.21 0.557 0 0.072-7e-3 0.144-0.02 0.216z"/>
  <path d="m111.34 24.484h-7.351l-0.013-0.026-5.444-12.592 0.02-0.02 9.415-10.221c0.583-0.636 0.924-0.957 1.232-1.147 0.328-0.203 0.616-0.275 1.088-0.275h4.743c0.223 0 0.36 0.072 0.439 0.138 0.046 0.039 0.079 0.079 0.098 0.118 0.013 0.026 0.026 0.059 0.026 0.098h7e-3l-7e-3 0.079c-7e-3 0.098-0.059 0.262-0.256 0.478l-10.162 10.922z"/>
  <path d="m37.594 24.484h-0.046l0.013-0.046 2.07-9.808h-9.611l-2.097 9.854h-5.831l0.013-0.046c0.197-0.93 4.829-22.8 4.861-22.924 0.17-0.721 0.459-0.97 0.688-1.101 0.249-0.144 0.596-0.21 1.088-0.21h3.151c0.164 0 0.432 0.072 0.636 0.216 0.111 0.079 0.197 0.17 0.249 0.269 0.066 0.118 0.098 0.249 0.098 0.4 0 0.066-7e-3 0.138-0.02 0.21-0.026 0.138-1.625 7.613-1.782 8.353h9.618c0.78-3.689 1.717-8.085 1.73-8.137 0.17-0.721 0.459-0.97 0.688-1.101 0.249-0.144 0.596-0.21 1.088-0.21h3.151c0.164 0 0.432 0.072 0.636 0.216 0.111 0.079 0.197 0.17 0.249 0.269 0.066 0.118 0.098 0.249 0.098 0.4 0 0.066-7e-3 0.138-0.02 0.21-0.026 0.144-4.724 22.21-4.927 23.154l-7e-3 0.033z"/>
  <path d="m128.54 4.947c0.452 0.118 0.806 0.341 0.996 0.714 0.124 0.249 0.183 0.537 0.183 0.884 0 0.354-0.059 0.767-0.157 1.251-0.138 0.636-0.269 1.16-0.472 1.612s-0.478 0.826-0.878 1.14c-0.799 0.629-2.044 1.009-4.252 1.507-2.922 0.649-4.933 1.186-6.355 1.893-1.422 0.708-2.247 1.553-2.87 2.889-0.413 0.891-0.727 2.005-1.029 3.413l-0.826 4.193h18.915l0.884-4.246h-13.162s0.203-1.022 0.373-1.396c0.216-0.485 0.498-0.845 0.865-1.114s0.812-0.446 1.35-0.596c1.081-0.301 2.575-0.504 4.77-1.061 2.706-0.701 4.534-1.468 5.824-2.706 1.291-1.238 2.077-2.981 2.653-5.713 0.216-1.009 0.334-2.005 0.334-2.758 0-1.081-0.21-1.913-0.583-2.549s-0.911-1.094-1.618-1.435c-1.402-0.675-3.466-0.832-5.91-0.832-3.112 0-5.562 0.321-7.384 1.441-1.821 1.114-3.086 3.145-3.793 6.453l-0.197 0.937h5.752l0.223-1.035c0.223-0.989 0.432-1.664 0.806-2.142 0.373-0.485 0.917-0.714 1.651-0.806 0.498-0.066 1.094-0.079 1.834-0.079h0.341c0.717-0.01 1.28 0.023 1.732 0.141z"/>
  <path d="m144.41 2.608c-0.668 0.694-6.283 6.565-8.583 8.976-0.459 0.491-0.95 1.035-1.166 1.487-0.177 0.328-0.406 1.238-0.524 1.887-0.242 1.356-0.426 2.594-0.537 3.099-0.026 0.131-0.039 0.249-0.039 0.36 0 0.419 0.177 0.694 0.413 0.898 0.229 0.197 0.544 0.288 0.852 0.288h11.144l-1.029 4.842 5.864-0.557 0.911-4.291h2.097l0.911-4.291h-2.097s2.097-9.788 2.162-10.155c0.721-3.964-0.924-5.123-4.632-5.123-0.945 0.018-3.087-0.179-5.747 2.58zm2.463 12.71h-8.419l10.018-10.378h0.609z"/>
  <path d="m131.28 38c-3.787 0-7.423-1.009-10.516-2.922-3.04-1.874-4.809-4.088-5.648-5.34l-1.107 2.85c-0.098 0.262-0.373 0.426-0.668 0.38-0.288-0.052-0.504-0.301-0.504-0.59l-0.059-5.589v-7e-3c0-0.157 0.066-0.308 0.177-0.413 0.118-0.111 0.269-0.177 0.432-0.177h5.694c0.282 7e-3 0.524 0.216 0.577 0.491 7e-3 0.039 0.013 0.072 0.013 0.111 0 0.249-0.157 0.472-0.387 0.563l-2.771 1.074c2.431 2.169 7.443 5.654 14.479 5.654 0.603 0 1.212-0.026 1.815-0.079 2.968-0.249 5.962-0.983 8.661-2.11 2.365-0.989 4.449-2.247 6.041-3.649l-2.863-0.845c-0.256-0.072-0.439-0.308-0.439-0.577v-0.059c0.026-0.288 0.262-0.518 0.55-0.544l5.549-0.504c0.026 0 0.046-7e-3 0.059-7e-3 0.144 0 0.282 0.052 0.387 0.138 0.124 0.105 0.203 0.256 0.216 0.413 0.459 5.458 0.459 5.458 0.459 5.477 0 0.269-0.183 0.511-0.446 0.583-0.052 0.013-0.105 0.02-0.157 0.02-0.236 0-0.446-0.131-0.55-0.334l-1.343-2.568c-1.074 1.454-2.948 3.505-5.883 5.287-2.974 1.808-6.296 2.883-9.873 3.184l-0.36 0.033c-0.506 0.036-1.024 0.056-1.535 0.056z"/>
 </g>
</svg>
