<?xml version="1.0" encoding="UTF-8"?>
<svg id="SVGRoot" width="192px" height="192px" version="1.1" viewBox="0 0 192 192" xmlns="http://www.w3.org/2000/svg">
 <g fill="none" stroke="#000" stroke-linecap="round" stroke-linejoin="round">
  <g stroke-width="8">
   <path class="a" d="m60.006 137.23a58.688 59.918 0 0 0 71.988-3e-3"/>
   <path class="a" d="m144.2 55.753a58.687 59.917 0 0 0-96.402-4e-3"/>
   <line class="a" x1="95.998" x2="92.511" y1="89.918" y2="55.868"/>
   <line class="a" x1="63.865" x2="95.998" y1="51.071" y2="89.918"/>
   <line class="a" x1="24.616" x2="59.874" y1="93.643" y2="93.643"/>
  </g>
  <polygon class="a" transform="matrix(3.8974 0 0 3.9791 2.4615 .42297)" points="4.79 40.564 15.625 40.564 13.24 23.427 7.176 23.427" stroke-width="2.0314"/>
  <g stroke-width="8">
   <line class="a" x1="21.129" x2="63.361" y1="161.83" y2="161.83"/>
   <line class="a" x1="22.757" x2="61.734" y1="149.9" y2="149.9"/>
   <path class="a" d="m54.064 93.643 10.43-30.589a37.881 38.675 0 0 0-22.249-7.7657 37.88 38.674 0 0 0-22.245 7.7625l10.428 30.592z"/>
   <line class="a" x1="42.245" x2="42.245" y1="55.288" y2="32.315"/>
   <line class="a" x1="30.994" x2="53.496" y1="42.338" y2="42.338"/>
   <line class="a" x1="132.12" x2="167.38" y1="93.643" y2="93.643"/>
  </g>
  <polygon class="a" transform="matrix(3.8974 0 0 3.9791 2.4615 .42297)" points="32.374 40.564 43.209 40.564 40.824 23.427 34.76 23.427" stroke-width="2.0314"/>
  <g stroke-width="8">
   <line class="a" x1="128.64" x2="170.87" y1="161.83" y2="161.83"/>
   <line class="a" x1="130.26" x2="169.24" y1="149.9" y2="149.9"/>
   <path class="a" d="m161.57 93.643 10.432-30.589a36.342 37.104 0 0 0-44.494-0.0028l10.43 30.592z"/>
   <line class="a" x1="149.75" x2="149.75" y1="55.288" y2="48.123"/>
  </g>
 </g>
</svg>
