<?xml version="1.0" encoding="UTF-8"?>
<svg width="192" height="192" fill="none" version="1.1" viewBox="0 0 192 192" xmlns="http://www.w3.org/2000/svg">
 <g fill="#000" stroke="#000" stroke-linecap="round" stroke-linejoin="round" stroke-miterlimit="6" stroke-width="7.2195">
  <path d="m88.569 119.37h14.641v14.641h-14.641z"/>
  <path d="m58.219 149.75h14.641v14.641h-14.641z"/>
  <path d="m118.87 149.75h14.641v14.641h-14.641z"/>
  <path d="m149.13 119.37h14.641v14.641h-14.641z"/>
  <path d="m118.87 119.37h14.641v14.641h-14.641z"/>
  <path d="m27.917 149.75h14.641v14.641h-14.641z"/>
  <path d="m58.219 88.673h14.641v14.641h-14.641z"/>
  <path d="m27.917 119.37h14.641v14.641h-14.641z"/>
  <path d="m58.219 119.37h14.641v14.641h-14.641z"/>
  <path d="m27.917 58.112h14.641v14.641h-14.641z"/>
  <path d="m58.219 58.112h14.641v14.641h-14.641z"/>
  <path d="m149.13 88.673h14.641v14.641h-14.641z"/>
  <path d="m88.569 88.673h14.641v14.641h-14.641z"/>
  <path d="m149.13 58.112h14.641v14.641h-14.641z"/>
  <path d="m118.87 58.112h14.641v14.641h-14.641z"/>
  <path d="m149.44 27.61h14.641v14.641h-14.641z"/>
  <path d="m58.05 27.61h14.641v14.641h-14.641z"/>
  <path d="m88.569 27.61h14.641v14.641h-14.641z"/>
  <path d="m27.917 27.61h14.641v14.641h-14.641z"/>
 </g>
</svg>
