<svg id="vector" xmlns="http://www.w3.org/2000/svg" width="192" height="192" viewBox="0 0 192 192"><path fill="#000" d="m87.74,121.97l16.27,0l0,16.27l-16.27,0z" stroke-linejoin="round" stroke-width="8.02" stroke="#000" stroke-linecap="round" id="path_0"/><path fill="#000" d="m54.02,155.72l16.27,0l0,16.27l-16.27,0z" stroke-linejoin="round" stroke-width="8.02" stroke="#000" stroke-linecap="round" id="path_1"/><path fill="#000" d="m121.41,155.72l16.27,0l0,16.27l-16.27,0z" stroke-linejoin="round" stroke-width="8.02" stroke="#000" stroke-linecap="round" id="path_2"/><path fill="#000" d="m155.03,121.97l16.27,0l0,16.27l-16.27,0z" stroke-linejoin="round" stroke-width="8.02" stroke="#000" stroke-linecap="round" id="path_3"/><path fill="#000" d="m121.41,121.97l16.27,0l0,16.27l-16.27,0z" stroke-linejoin="round" stroke-width="8.02" stroke="#000" stroke-linecap="round" id="path_4"/><path fill="#000" d="m20.35,155.72l16.27,0l0,16.27l-16.27,0z" stroke-linejoin="round" stroke-width="8.02" stroke="#000" stroke-linecap="round" id="path_5"/><path fill="#000" d="m54.02,87.86l16.27,0l0,16.27l-16.27,0z" stroke-linejoin="round" stroke-width="8.02" stroke="#000" stroke-linecap="round" id="path_6"/><path fill="#000" d="m20.35,121.97l16.27,0l0,16.27l-16.27,0z" stroke-linejoin="round" stroke-width="8.02" stroke="#000" stroke-linecap="round" id="path_7"/><path fill="#000" d="m54.02,121.97l16.27,0l0,16.27l-16.27,0z" stroke-linejoin="round" stroke-width="8.02" stroke="#000" stroke-linecap="round" id="path_8"/><path fill="#000" d="m20.35,53.9l16.27,0l0,16.27l-16.27,0z" stroke-linejoin="round" stroke-width="8.02" stroke="#000" stroke-linecap="round" id="path_9"/><path fill="#000" d="m54.02,53.9l16.27,0l0,16.27l-16.27,0z" stroke-linejoin="round" stroke-width="8.02" stroke="#000" stroke-linecap="round" id="path_10"/><path fill="#000" d="m155.03,87.86l16.27,0l0,16.27l-16.27,0z" stroke-linejoin="round" stroke-width="8.02" stroke="#000" stroke-linecap="round" id="path_11"/><path fill="#000" d="m87.74,87.86l16.27,0l0,16.27l-16.27,0z" stroke-linejoin="round" stroke-width="8.02" stroke="#000" stroke-linecap="round" id="path_12"/><path fill="#000" d="m155.03,53.9l16.27,0l0,16.27l-16.27,0z" stroke-linejoin="round" stroke-width="8.02" stroke="#000" stroke-linecap="round" id="path_13"/><path fill="#000" d="m121.41,53.9l16.27,0l0,16.27l-16.27,0z" stroke-linejoin="round" stroke-width="8.02" stroke="#000" stroke-linecap="round" id="path_14"/><path fill="#000" d="m155.38,20.01l16.27,0l0,16.27l-16.27,0z" stroke-linejoin="round" stroke-width="8.02" stroke="#000" stroke-linecap="round" id="path_15"/><path fill="#000" d="m53.83,20.01l16.27,0l0,16.27l-16.27,0z" stroke-linejoin="round" stroke-width="8.02" stroke="#000" stroke-linecap="round" id="path_16"/><path fill="#000" d="m87.74,20.01l16.27,0l0,16.27l-16.27,0z" stroke-linejoin="round" stroke-width="8.02" stroke="#000" stroke-linecap="round" id="path_17"/><path fill="#000" d="m20.35,20.01l16.27,0l0,16.27l-16.27,0z" stroke-linejoin="round" stroke-width="8.02" stroke="#000" stroke-linecap="round" id="path_18"/></svg>