<?xml version="1.0" encoding="UTF-8"?>
<svg id="vector" width="192" height="192" version="1.1" viewBox="0 0 192 192" xmlns="http://www.w3.org/2000/svg">
 <path d="m103.42 175.95c-1.88-0.0456-3.7768-0.1376-4.216-0.2048-0.4384-0.0672-1.2592-0.1744-1.8232-0.24-0.564-0.0648-1.9488-0.2736-3.0768-0.4624-14.586-2.4488-27.949-8.7775-39.35-18.637-3.2512-2.8112-7.4791-7.2536-10.235-10.754-9.9783-12.67-15.865-27.828-17.035-43.86-0.1712-2.3424-0.1648-9.3039 8e-3 -11.458 0.26-3.2088 0.5616-5.5536 1.1128-8.6599 1.7728-9.9895 5.7544-20.077 11.346-28.751 3.2952-5.1104 6.488-9.0527 10.906-13.466 4.3112-4.3056 8.3095-7.5271 13.393-10.79 18.313-11.754 40.837-15.545 62.113-10.457 13.582 3.2488 26.045 9.9975 36.386 19.703 1.112 1.044 1.484 1.4504 1.484 1.6208 0 0.0848-14.451 14.542-21.993 22.002l-2.68 2.6512-1.5872-1.444c-5.3936-4.9064-11.971-8.4655-19.031-10.298-1.1904-0.3088-2.5752-0.6392-3.0776-0.7344-4.5136-0.85279-10.135-0.96079-14.811-0.2848-1.9728 0.2856-6.1936 1.3096-7.7919 1.8904-0.6024 0.2192-1.5312 0.5528-2.064 0.7424-1.6008 0.5688-4.944 2.2304-7.0648 3.512-10.014 6.0512-17.412 15.967-20.321 27.237-1.0424 4.0384-1.3232 6.088-1.4056 10.255-0.0912 4.652 0.2904 8.0143 1.392 12.25 0.84559 3.2512 1.8272 5.8832 3.2808 8.7935 5.8264 11.667 16.557 20.395 29.019 23.604 4.0624 1.0464 6.3144 1.3632 10.368 1.46 4.4656 0.1072 7.6504-0.23679 11.873-1.2816 3.4568-0.85519 6.2176-1.864 9.3471-3.4144 3.6016-1.7848 7.208-4.2504 10.286-7.032l1.5952-1.4416 6.552 6.528c3.6032 3.5904 9.1535 9.1127 12.334 12.273 3.1808 3.1592 5.7832 5.8272 5.7824 5.9288 0 0.21039-2.1832 2.2808-4.444 4.2136-10.849 9.2783-24.018 15.51-38 17.984-2.5608 0.4528-6.1608 0.9064-7.7352 0.9752-2.4864 0.108-7.4744 0.1296-10.838 0.048z" stroke-width=".11394"/>
</svg>
