<?xml version="1.0" encoding="UTF-8"?>
<svg id="SVGRoot" width="192px" height="192px" version="1.1" viewBox="0 0 192 192" xmlns="http://www.w3.org/2000/svg">
 <g fill="none" stroke="#000" stroke-linecap="round" stroke-linejoin="round">
  <g stroke-width="8">
   <circle class="b" cx="96" cy="96" r="76"/>
   <path class="b" d="m115.41 141.54c-5.9588 2.5426-12.518 3.9495-19.406 3.9495-27.332 0-49.488-22.157-49.488-49.488 0-27.332 22.157-49.488 49.488-49.488 27.332 0 49.488 22.157 49.488 49.488 0 13.992-5.8068 26.628-15.142 35.629"/>
   <path class="b" d="m136.53 160.3c-5.2581-25.846-17.101-76.776-21.947-94.861 0 0-11.437 32.163-4.1164 61.337 0.73349 2.9223 3.1192 11.641 3.1192 11.641 0.92084 3.4391 4.2737 5.6413 7.7955 5.1203l11.19-1.8491"/>
  </g>
  <g transform="matrix(3.5349 0 0 3.5349 11.163 11.163)" stroke-width="2.2632">
   <path class="b" d="m19.468 16.285c-0.4916 1.8165-3.0866 10.406-6.0029 26.47"/>
   <path class="b" d="m16.068 15.342c-1.3925 4.7445-1.9 6.2797-2.0626 7.73-0.3456 3.0821 2.7137 3.7329 2.7137 3.7329"/>
   <path class="b" d="m22.831 17.03c-0.8959 3.4458-1.5407 5.6487-2.0768 7.5362-0.8359 2.9428-4.0354 2.2393-4.0354 2.2393"/>
  </g>
 </g>
</svg>
