<svg xmlns="http://www.w3.org/2000/svg" width="192" height="192" viewBox="0 0 192 192"><g fill="none" stroke="#000" stroke-linecap="round" stroke-linejoin="round"><g stroke-width="8"><circle cx="96" cy="96" r="76" class="b"/><path d="M115.41 141.54a49.328 49.328 0 0 1-19.406 3.95c-27.332 0-49.488-22.158-49.488-49.489 0-27.332 22.157-49.488 49.488-49.488 27.332 0 49.488 22.157 49.488 49.488 0 13.992-5.807 26.628-15.142 35.63" class="b"/><path d="M136.53 160.3c-5.258-25.846-17.101-76.776-21.947-94.861 0 0-11.437 32.163-4.116 61.337.733 2.922 3.119 11.641 3.119 11.641a7.008 7.008 0 0 0 7.795 5.12l11.19-1.849" class="b"/></g><g stroke-width="7.999"><path d="M79.98 68.729c-1.737 6.421-10.91 36.784-21.22 93.569" class="b"/><path d="M67.962 65.395c-4.923 16.772-6.717 22.199-7.291 27.325-1.222 10.895 9.592 13.196 9.592 13.196m21.605-34.554c-3.167 12.18-5.446 19.968-7.341 26.64-2.955 10.403-14.265 7.916-14.265 7.916" class="b"/></g></g></svg>