<?xml version="1.0" encoding="UTF-8"?>
<svg width="192" height="192" fill="none" version="1.1" viewBox="0 0 192 192" xmlns="http://www.w3.org/2000/svg">
 <g transform="matrix(1.1382 0 0 1.1382 -18.51 -26.577)" fill="#000">
  <path d="m101.53 37.512 0.25911 0.06866 55.142 16.542c1.6754 0.50238 2.8423 2.0041 2.9296 3.7357l5e-3 0.20884-5.8e-4 2.3217-18.069 4.6015c-0.12741 0.03245-0.24659 0.08997-0.35078 0.16874l-0.0989 0.08571-40.274 39.878c-0.3553 0.35181-0.91135 0.37763-1.2961 0.0783l-0.09241-0.0816-22.539-22.528c-0.35513-0.35436-0.91332-0.38162-1.2997-0.08177l-0.09279 0.08177-9.2985 9.2941h-6.49e-4l-0.08187 0.09276c-0.27516 0.35405-0.27502 0.85273 5.36e-4 1.2064l0.08198 0.09265 33.226 33.211c0.35512 0.35436 0.91332 0.38161 1.2997 0.0818l0.0928-0.0818 58.793-58.766 5.8e-4 50.999c0 6.3766-2.0863 12.875-6.2123 19.377-1.496-0.51789-3.0529-0.90626-4.6567-1.1523l0.28869-5.898 0.23344 0.013 0.17131 4e-3c1.4149-0.0115 2.5021-1.1539 2.568-2.4998 0.0715-1.4589-1.0388-2.7068-2.4802-2.7872l-5.6864-0.31743-0.16532-4e-3 -0.1631 6e-3c-1.295 0.0911-2.345 1.147-2.4109 2.4934-0.0717 1.4589 1.0388 2.7068 2.4802 2.7872l0.23344 0.013-0.28969 5.9017c-3.2095 0.13285-6.2731 0.83066-9.094 1.9966l-2.6108-5.1682 0.20797-0.10681 0.15034-0.0836c1.1724-0.70304 1.6142-2.2199 0.98183-3.4714-0.65854-1.3037-2.2335-1.8258-3.5176-1.1659l-5.0658 2.6029-0.15033 0.0836c-1.1724 0.70304-1.6142 2.2199-0.98184 3.4714 0.63188 1.2511 2.1834 1.8515 3.5176 1.1659l0.20798-0.10681 2.6481 5.2398c-2.6611 1.774-4.9866 4.0118-6.861 6.5978l-5.0921-2.9399 0.11692-0.2025 0.0811-0.1516c0.60503-1.2249 0.16234-2.7256-1.0377-3.4185-1.2499-0.72176-2.8484-0.29345-3.5701 0.9566l-2.8472 4.9315-0.0811 0.1516c-0.60503 1.2249-0.16234 2.7256 1.0377 3.4185 1.25 0.7221 2.8485 0.29324 3.5699-0.95655l0.11692-0.20251 5.0656 2.9245c-1.0725 2.3293-1.8204 4.8389-2.1857 7.4708l-6.0045-0.18969 9e-3 -0.23364 1e-3 -0.16536c-0.034-1.3684-1.1406-2.486-2.5443-2.5303-1.4606-0.0463-2.6882 1.0859-2.7434 2.5286l-0.2178 5.6917-1e-3 0.16536c0.0339 1.3684 1.1406 2.486 2.5443 2.5303 1.4085 0.0447 2.6862-1.0358 2.7434-2.5286l9e-3 -0.23365 5.9906 0.18886c0.075 1.3499 0.24992 2.6731 0.51758 3.9623-4.9238 2.9568-9.2473 5.2398-12.22 6.7308l-0.45012 0.2249c-2.1954 1.0926-3.5549 1.7052-3.7284 1.7829-0.53513 0.23996-1.109 0.35967-1.6828 0.35967s-1.1477-0.11998-1.6828-0.35967c-0.17364-0.0777-1.5332-0.69029-3.7287-1.7829l-0.45013-0.2249c-5.2254-2.6207-14.626-7.6891-24.125-14.565-8.3153-6.0191-14.971-12.184-19.782-18.323-6.1649-7.8671-9.3556-15.77-9.4886-23.499l-0.0043-0.50381v-60.654c0-1.7487 1.103-3.2984 2.7364-3.8795l0.19851-0.06503 55.143-16.542c0.68655-0.20598 1.413-0.22886 2.1082-0.06866z" fill="#000"/>
 </g>
</svg>
