<svg xmlns="http://www.w3.org/2000/svg" xml:space="preserve" width="192" height="192" viewBox="0 0 192 192"><path fill="none" stroke="#000" stroke-linecap="round" stroke-linejoin="round" stroke-width="8" d="m160.52 165.55-6.457-6.449 5.153-5.08 6.394 6.474c5.496 5.566 6.394 6.69 6.394 8.016 0 1.998-1.488 3.488-3.484 3.488-1.33 0-2.43-.886-8-6.449zm-35.605 1.828c-6.383-1.285-10.281-3.38-15.179-8.158-3.098-3.023-4.867-5.92-6.543-10.713-1.052-3.012-1.235-4.4-1.264-9.605-.029-5.118.149-6.663 1.119-9.734.634-2.008 1.334-3.89 1.554-4.182.69-.915-.042-1.07-1.949-.411-4.503 1.556-9.948 2.29-14.856 2.006-5.38-.312-8.243-1.048-12.7-3.265-3.364-1.674-8.412-6.442-9.693-9.157-.463-.98-1.257-2.348-1.765-3.04-.508-.69-.97-1.567-1.026-1.946-.056-.38-.354-1.348-.663-2.15-.582-1.513-1.477-6.874-1.503-9.005-.048-3.872 1.705-11.722 3.124-13.993.816-1.305.432-1.36-2.07-.296-6.386 2.713-16.203 3.01-22.795.689-3.631-1.28-8.872-4.882-11.847-8.146-2.733-2.998-5.052-7.606-6.124-12.172-1.076-4.581-.693-13.29.778-17.675 1.209-3.604 3.84-8.827 5.482-10.88l1.112-1.39L31 37.152c4.483 4.649 6.74 5.436 9.287 3.24 1.069-.922 1.35-1.581 1.35-3.162 0-1.833-.3-2.302-3.63-5.68l-3.63-3.683 1.457-1.188c2.24-1.828 8.865-4.905 12.41-5.765 4.15-1.006 13.355-1.027 17.14-.038 6.522 1.703 11.422 5.289 15.86 11.604 2.974 4.232 4.326 8.328 4.692 14.217.361 5.81-.337 9.78-2.99 17.006-.236.641-.206.762.088.353.245-.34.943-.716 1.552-.833.608-.118 1.357-.409 1.663-.648 2.21-1.721 12.33-2.563 18.066-1.504 2.76.51 6.982 2.125 7.492 2.865.134.194 1.016.717 1.961 1.162 3.437 1.618 7.638 6.03 9.795 10.286 2.395 4.727 3.026 7.657 3.038 14.115.01 5.254-.178 6.946-1.108 9.977a546.991 546.991 0 0 0-1.364 4.49c-.227.785-.124.789 1.606.063 2.396-1.004 10.35-2.606 12.94-2.606 2.488 0 8.527 1.15 11.563 2.2 5.206 1.802 12.007 8.092 14.687 13.583 4.283 8.776 3.84 20.254-1.152 29.865-1.588 3.057-5.26 8.734-8.98 11.683-5.077 4.025 9.587-7.83 3.425-2.802-3.786 3.087-8.052 6.176-10.73 7.62-3.08 1.663-7.096 3.036-11.145 3.813-4.445.852-7.164.85-11.428-.008zm-2.549-45.78c1.852-2.11 1.483-4.155-1.304-7.24l-2.396-2.653-6.337 6.511 2.045 2.116c1.125 1.163 2.483 2.307 3.017 2.543 1.516.668 3.777.088 4.975-1.278zm-6.581-1.408-2.278-2.165 4.855-4.964 2.063 2.184c2.505 2.653 2.749 4.55.784 6.1-1.87 1.475-2.883 1.26-5.424-1.155zM79.957 81.978c.672-.257 1.572-1.146 2-1.977 1.069-2.07.353-4.065-2.445-6.82l-2.186-2.15-6.027 6.043 2.172 2.244c2.93 3.028 4.177 3.54 6.486 2.66zm-5.467-2.635-2.082-2.128 5.059-5.072 2.122 2.088c1.735 1.707 2.122 2.41 2.122 3.858 0 2.207-1.201 3.381-3.457 3.381-1.344 0-2.099-.427-3.764-2.127zM30.647 35.65c-2.657-2.715-5.163-5.444-5.568-6.065-1.775-2.716 1.198-6.309 4.193-5.065.74.308 3.668 2.92 6.504 5.806 4.353 4.43 5.157 5.486 5.157 6.78 0 2.084-1.484 3.48-3.698 3.48-1.585 0-2.227-.481-6.588-4.936z"/></svg>