<?xml version="1.0" encoding="UTF-8"?>
<svg id="SVGRoot" width="192px" height="192px" version="1.1" viewBox="0 0 192 192" xml:space="preserve" xmlns="http://www.w3.org/2000/svg"><path d="m160.52 165.55-6.4573-6.449 5.1537-5.0795 6.3937 6.4739c5.4963 5.5652 6.3937 6.6902 6.3937 8.0154 0 1.9984-1.4881 3.4884-3.4842 3.4884-1.3304 0-2.43-0.88644-7.9997-6.449zm-35.605 1.8284c-6.3831-1.2854-10.281-3.3808-15.179-8.1587-3.0985-3.0231-4.8674-5.9196-6.5426-10.713-1.0525-3.0118-1.2351-4.3991-1.2644-9.6042-0.0287-5.1183 0.14886-6.6634 1.119-9.7344 0.63422-2.0077 1.3335-3.8895 1.5539-4.1819 0.69023-0.91527-0.0422-1.0699-1.9486-0.41135-4.5036 1.5557-9.9482 2.291-14.856 2.0063-5.3801-0.31213-8.2432-1.0483-12.7-3.2654-3.3642-1.6736-8.412-6.442-9.6934-9.1569-0.46276-0.9804-1.2571-2.348-1.7652-3.0392-0.50809-0.69118-0.96959-1.5673-1.0256-1.9469-0.05596-0.37961-0.35452-1.3473-0.66347-2.1503-0.58175-1.5122-1.4764-6.8732-1.5026-9.0043-0.04772-3.8721 1.7049-11.722 3.1242-13.993 0.81534-1.3047 0.43205-1.3596-2.0701-0.29642-6.3862 2.7136-16.203 3.0102-22.795 0.68886-3.6312-1.2788-8.8721-4.882-11.847-8.1452-2.7333-2.998-5.0518-7.606-6.124-12.172-1.076-4.5817-0.69274-13.291 0.77781-17.675 1.209-3.6041 3.8408-8.8275 5.4824-10.881l1.1113-1.3903 2.8929 2.9994c4.4834 4.6485 6.7406 5.4359 9.287 3.2398 1.0695-0.92233 1.351-1.5814 1.351-3.1625 0-1.8323-0.30002-2.3018-3.6298-5.6799l-3.6298-3.6825 1.4563-1.1882c2.2407-1.8282 8.8647-4.9052 12.41-5.7648 4.1496-1.0061 13.355-1.0269 17.139-0.0387 6.5224 1.7033 11.423 5.2889 15.861 11.604 2.974 4.2322 4.3256 8.328 4.6916 14.217 0.36114 5.81-0.33702 9.781-2.9899 17.006-0.23562 0.64168-0.20559 0.7622 0.08812 0.35363 0.24506-0.34089 0.94331-0.7159 1.5517-0.83337 0.60836-0.11746 1.3569-0.40889 1.6634-0.64761 2.21-1.7213 12.329-2.5638 18.066-1.5042 2.7593 0.50969 6.9822 2.1247 7.4922 2.8653 0.1335 0.19385 1.0158 0.71637 1.9606 1.1612 3.4373 1.6181 7.6383 6.03 9.7948 10.286 2.3953 4.7278 3.0259 7.657 3.0384 14.115 0.0102 5.2543-0.17775 6.9464-1.1084 9.9777-0.61636 2.0077-1.23 4.0279-1.3636 4.4893-0.22737 0.78507-0.12425 0.78917 1.6061 0.0638 2.3962-1.0045 10.349-2.6063 12.94-2.6062 2.4882 1e-4 8.5263 1.1489 11.563 2.2 5.2059 1.8018 12.007 8.092 14.687 13.583 4.2824 8.7758 3.8394 20.254-1.1526 29.865-1.5878 3.0569-5.2595 8.7341-8.9798 11.683-5.0769 4.0248 9.5875-7.8297 3.4247-2.8026-3.7852 3.0876-8.0516 6.1764-10.73 7.6212-3.0804 1.6619-7.0954 3.0351-11.145 3.812-4.4443 0.85257-7.1634 0.85061-11.428-8e-3zm-2.5486-45.781c1.8512-2.1092 1.4828-4.1545-1.304-7.2398l-2.3962-2.6529-6.3373 6.5118 2.0454 2.1152c1.125 1.1634 2.4823 2.3078 3.0163 2.5431 1.5164 0.66833 3.7776 0.0879 4.9758-1.2774zm-6.5818-1.4077-2.2776-2.1644 4.8545-4.9647 2.0632 2.1848c2.5048 2.6525 2.7488 4.5504 0.78407 6.0999-1.8704 1.4751-2.8827 1.2594-5.4241-1.1556zm-35.828-38.212c0.67209-0.2562 1.5726-1.1457 2.0012-1.9767 1.068-2.0707 0.35248-4.0654-2.446-6.8191l-2.186-2.151-6.0272 6.043 2.1719 2.2444c2.9296 3.0275 4.1777 3.5392 6.4861 2.6593zm-5.4663-2.635-2.0824-2.1274 5.059-5.0722 2.1218 2.0879c1.7348 1.707 2.1218 2.4108 2.1218 3.858 0 2.2066-1.2008 3.3811-3.4566 3.3811-1.3438 0-2.0989-0.42682-3.7636-2.1274zm-43.843-43.693c-2.6572-2.715-5.163-5.4438-5.5684-6.0642-1.7754-2.7167 1.1985-6.3091 4.1933-5.0653 0.74071 0.30762 3.6674 2.9204 6.5037 5.8062 4.3529 4.4289 5.157 5.4859 5.157 6.7798 0 2.0836-1.4837 3.4798-3.698 3.4798-1.5849 0-2.2273-0.48136-6.5875-4.9363z" fill="none" stroke="#000" stroke-linecap="round" stroke-linejoin="round" stroke-width="8"/></svg>
