<svg xmlns="http://www.w3.org/2000/svg" xml:space="preserve" width="192" height="192" viewBox="0 0 192 192"><path fill="none" stroke="#000" stroke-linecap="round" stroke-linejoin="round" stroke-width="8" d="M86.882 171.18c-1.8-.228-5.813-1.029-8.915-1.78-18.651-4.517-34.237-15.51-45.42-32.038C25.06 126.299 20.234 110.082 20.234 96c0-5.931.678-11.188 2.323-18.022 3.405-14.134 10.024-25.692 20.645-36.042 10.275-10.013 21.126-16.045 34.764-19.325 13.006-3.128 23.065-3.128 36.071 0 13.638 3.28 24.49 9.311 34.764 19.325 10.621 10.35 17.241 21.908 20.646 36.042 3.13 12.996 3.13 23.048 0 36.044-3.282 13.628-9.318 24.47-19.339 34.737-10.359 10.613-21.924 17.228-36.07 20.63-9.442 2.27-18.587 2.873-27.156 1.79zm20.506-15.388c5.905-1.2 10.529-2.73 15.298-5.067 14.377-7.041 26.039-20.257 31.038-35.172 4.166-12.429 4.166-26.675 0-39.104-5.854-17.465-20.677-32.276-38.155-38.126-12.438-4.162-26.695-4.162-39.133 0-17.478 5.85-32.301 20.661-38.155 38.126-4.166 12.43-4.166 26.675 0 39.104 5.854 17.465 20.668 32.268 38.155 38.127 9.564 3.205 21.547 4.023 30.952 2.112zM88.73 140.683c-9.354-1.789-15.838-4.848-22.669-10.696l-2.063-1.766 32.005-31.992V50.533l3.624.303c19.285 1.61 35.477 15.307 40.41 34.182.93 3.556 1.094 5.29 1.066 11.216-.03 6.116-.196 7.602-1.305 11.647-4.276 15.587-16.711 27.825-32.37 31.855-5.725 1.474-13.804 1.883-18.697.947z"/></svg>