<?xml version="1.0" encoding="UTF-8"?>
<svg id="SVGRoot" width="192px" height="192px" version="1.1" viewBox="0 0 192 192" xml:space="preserve" xmlns="http://www.w3.org/2000/svg"><path d="m86.882 171.18c-1.8007-0.22776-5.8126-1.0288-8.9153-1.7802-18.651-4.5163-34.237-15.51-45.42-32.038-7.4856-11.063-12.313-27.279-12.313-41.361 0-5.9308 0.67792-11.188 2.3237-18.022 3.4042-14.134 10.024-25.692 20.645-36.042 10.275-10.013 21.126-16.045 34.764-19.325 13.006-3.1277 23.065-3.1277 36.071 0 13.638 3.2797 24.489 9.3114 34.764 19.325 10.621 10.351 17.241 21.908 20.646 36.042 3.13 12.996 3.13 23.048 0 36.044-3.2822 13.628-9.3184 24.47-19.339 34.737-10.359 10.613-21.924 17.228-36.07 20.63-9.4429 2.2708-18.587 2.8734-27.156 1.7896zm20.506-15.388c5.9051-1.1995 10.529-2.7309 15.298-5.0666 14.377-7.0415 26.039-20.257 31.038-35.172 4.1659-12.429 4.1659-26.675 0-39.104-5.854-17.465-20.677-32.276-38.155-38.126-12.438-4.1628-26.695-4.1628-39.133 0-17.478 5.8496-32.301 20.661-38.155 38.126-4.1659 12.429-4.1659 26.675 0 39.104 5.854 17.465 20.668 32.268 38.155 38.127 9.5637 3.2046 21.547 4.0222 30.952 2.1118zm-18.658-15.109c-9.3544-1.789-15.838-4.8484-22.669-10.696l-2.0633-1.7665 32.005-31.991v-45.696l3.6247 0.30267c19.285 1.6103 35.477 15.307 40.41 34.182 0.9292 3.5556 1.094 5.2904 1.0656 11.216-0.0293 6.1154-0.19598 7.6022-1.3054 11.647-4.2756 15.587-16.711 27.825-32.369 31.855-5.7255 1.4735-13.805 1.8826-18.698 0.94666z" fill="none" stroke="#000" stroke-linecap="round" stroke-linejoin="round" stroke-width="7.9999"/></svg>
