<?xml version="1.0" encoding="UTF-8"?>
<svg width="192" height="192" fill="none" version="1.1" viewBox="0 0 192 192" xmlns="http://www.w3.org/2000/svg">
 <g transform="matrix(.44027 0 0 .44027 221.84 -78.441)" fill="#000">
  <path transform="translate(-474.29 255.22)" d="m43.27 13.799c-19.974 0-36.514 15.795-36.514 36.205v181.56c0 20.436 16.539 36.615 36.514 36.615h290.74c19.615 0 36.154-16.179 36.154-36.615v-181.56c0-20.41-16.539-36.205-36.154-36.205zm0 25.82h290.74c5.7692 0 9.6152 4.6155 9.6152 10.385v181.56c0 5.7949-3.846 10.41-9.6152 10.41h-290.74c-5.7436 0-9.9746-4.6153-9.9746-10.41v-181.56c0-5.7692 4.231-10.385 9.9746-10.385z"/>
  <path d="m-191.81 430.51c0-16.949-10.769-20.82-26.513-20.82h-14.641v42.795h14.231c14.256 0 26.923-4.6154 26.923-21.974zm-41.154-51.641h13.872c13.077 0 22.667-5.7692 22.667-20.051 0-15.82-12.308-20.051-25.385-20.051h-11.154zm25 100.59h-64.59v-166.51h67.692c31.923 0 49.205 13.103 49.205 44.333 0 16.205-13.462 27.744-28.077 35.077 20.41 5.7692 34.231 18.128 34.231 38.923 0 33.923-28.461 48.179-58.461 48.179"/>
  <path d="m-329.84 398.89c0-33.538-3.4872-59.718-39.615-59.718h-8.1025v113.31h14.231c21.154 0 33.487-16.949 33.487-53.59zm-26.564 80.564h-61.128v-166.51h61.128c43.077 0 66.128 26.974 66.128 82.487 0 48.205-15.359 83.641-66.128 84.025"/>
 </g>
</svg>
