<?xml version="1.0" encoding="UTF-8"?>
<svg id="vector" version="1.1" viewBox="0 0 192 192" xmlns="http://www.w3.org/2000/svg">
 <path d="m59.911 171.42c-2.2614-0.56507-3.1685-1.078-4.2228-2.3886-4.0223-5.0006 6.4965-9.398 14.083-5.8872 5.2362 2.4226 3.8095 6.9994-2.6242 8.4151-3.3867 0.74542-3.7154 0.73841-7.2358-0.13927zm-24.014-10.66c-8.6284-2.8935-6.3778-9.5583 3.5763-10.592 1.5631-0.16332 3.0743 0.019 5.3671 0.64424 6.0969 1.6622 7.8604 5.753 3.6636 8.4952-3.2407 2.118-8.7347 2.7512-12.607 1.4528zm-8.5001-16.42c-4.8884-0.97587-7.3967-2.9887-7.3967-5.9374 0-4.196 6.2387-6.9292 13.753-6.0255 5.2062 0.62619 8.5711 2.9707 8.5752 5.9754 0.0055 4.4164-7.5727 7.4552-14.931 5.9874zm51.096-0.70935c-8.4824-2.4617-9.8409-8.9752-2.6201-12.562 4.6797-2.3244 11.258-2.616 16.538-0.7334 4.1628 1.4838 5.8595 3.145 6.1555 6.0305 0.27824 2.7012-0.95886 4.5988-4.0223 6.1698-4.0482 2.076-11.03 2.5529-16.051 1.0951zm42.722-12.61c-6.5374-1.3736-10.607-4.5918-10.658-8.4311-0.10775-7.9652 16.546-12.222 27.17-6.9453 8.462 4.204 7.2208 11.535-2.4824 14.662-3.8027 1.2253-10.076 1.545-14.03 0.71437zm-82.239-4.3022c-3.3649-0.526-6.5033-1.9567-8.1264-3.7071-2.9884-3.2202-0.46238-8.2017 4.9375-9.7406 5.9755-1.7022 11.855-1.2925 16.271 1.1352 5.5581 3.0558 5.4312 7.8089-0.28234 10.647-3.8409 1.9077-7.8823 2.4337-12.799 1.6652zm31.195-10.965c-5.7177-1.4588-9.0662-4.4395-9.0416-8.0474 0.0191-2.7392 1.6858-4.7491 5.3849-6.4894 10.872-5.1178 27.579-0.24247 25.904 7.5584-0.69016 3.2141-4.3946 5.9714-9.6472 7.1817-3.103 0.71537-9.399 0.61418-12.6-0.20339zm75.687-9.8408c-3.9268-0.79552-8.5151-3.141-10.558-5.3963-2.4674-2.7222-2.4674-6.7148 0-9.438 3.6322-4.0077 10.756-6.2199 18.985-5.8953 10.29 0.40578 17.716 4.8553 17.716 10.614 0 4.0648-3.5026 7.333-10.181 9.5022-3.7018 1.2013-11.569 1.5039-15.962 0.61317zm-3.624-31.146c-6.6684-0.62018-13.414-3.4566-16.537-6.9523-1.6381-1.8345-1.8577-2.4968-1.8482-5.5857 0.0123-4.2351 1.4376-6.1688 6.6929-9.0733 8.2915-4.5828 22.194-4.715 31.134-0.29556 4.7547 2.3505 6.952 4.9915 7.2999 8.7758 0.35599 3.8664-1.2848 6.4193-5.9114 9.2036-5.2444 3.155-13.138 4.6429-20.83 3.9275zm-47.849-25.101c-14.016-1.2905-24.412-9.3278-21.962-16.977 2.6652-8.3179 16.155-13.782 30.838-12.493 10.206 0.89672 18.573 4.8503 21.574 10.193 2.567 4.5697 1.0734 9.7256-3.8572 13.317-3.1071 2.2643-5.5472 3.3955-9.9773 4.6258-2.9325 0.81356-10.451 1.8105-12.653 1.6772-0.36827-0.02204-2.151-0.17634-3.9609-0.34366z" fill="none" stroke="#000" stroke-linecap="round" stroke-linejoin="round" stroke-width="8"/>
</svg>
