<svg xmlns="http://www.w3.org/2000/svg" viewBox="0 0 192 192"><path fill="none" stroke="#000" stroke-linecap="round" stroke-linejoin="round" stroke-width="8" d="M59.911 171.42c-2.261-.565-3.168-1.078-4.223-2.389-4.022-5 6.497-9.398 14.083-5.887 5.236 2.423 3.81 7-2.624 8.415-3.387.746-3.715.739-7.236-.139zm-24.014-10.66c-8.628-2.893-6.378-9.558 3.576-10.592 1.563-.163 3.075.019 5.367.644 6.097 1.662 7.86 5.753 3.664 8.495-3.24 2.118-8.735 2.752-12.607 1.453zm-8.5-16.42c-4.888-.976-7.397-2.989-7.397-5.937 0-4.196 6.239-6.93 13.753-6.026 5.206.626 8.571 2.97 8.575 5.975.006 4.417-7.572 7.456-14.93 5.988zm51.096-.71c-8.482-2.461-9.841-8.975-2.62-12.561 4.68-2.325 11.258-2.616 16.538-.734 4.163 1.484 5.86 3.145 6.155 6.03.279 2.702-.959 4.6-4.022 6.17-4.048 2.077-11.03 2.553-16.051 1.096zm42.722-12.61c-6.538-1.373-10.607-4.591-10.658-8.43-.108-7.966 16.546-12.222 27.17-6.946 8.462 4.204 7.22 11.535-2.483 14.662-3.802 1.226-10.076 1.545-14.03.715zm-82.24-4.302c-3.364-.526-6.502-1.956-8.126-3.707-2.988-3.22-.462-8.201 4.938-9.74 5.975-1.702 11.855-1.293 16.271 1.135 5.558 3.056 5.431 7.809-.282 10.647-3.841 1.908-7.883 2.434-12.8 1.665zm31.196-10.965c-5.718-1.458-9.066-4.44-9.042-8.047.02-2.74 1.686-4.75 5.385-6.49 10.872-5.117 27.58-.242 25.904 7.559-.69 3.214-4.394 5.971-9.647 7.182-3.103.715-9.399.614-12.6-.204zm75.687-9.84c-3.927-.796-8.515-3.141-10.558-5.397-2.468-2.722-2.468-6.714 0-9.438 3.632-4.007 10.756-6.22 18.985-5.895 10.29.406 17.716 4.855 17.716 10.614 0 4.065-3.503 7.333-10.181 9.502-3.702 1.202-11.57 1.504-15.962.613zm-3.624-31.146c-6.669-.62-13.414-3.457-16.537-6.953-1.638-1.834-1.858-2.496-1.848-5.585.012-4.235 1.437-6.17 6.693-9.074 8.291-4.582 22.194-4.715 31.134-.295 4.754 2.35 6.952 4.991 7.3 8.776.355 3.866-1.285 6.419-5.912 9.203-5.244 3.155-13.138 4.643-20.83 3.928zm-47.85-25.101c-14.015-1.29-24.411-9.328-21.961-16.977 2.665-8.318 16.155-13.782 30.838-12.493 10.206.896 18.573 4.85 21.574 10.193 2.567 4.57 1.073 9.725-3.857 13.317C117.87 45.97 115.43 47.1 111 48.33c-2.932.814-10.45 1.81-12.653 1.678a242.27 242.27 0 0 1-3.96-.344z"/></svg>