<?xml version="1.0" encoding="UTF-8"?>
<svg width="192" height="192" version="1.1" viewBox="0 0 192 192" xmlns="http://www.w3.org/2000/svg">
 <polygon transform="matrix(.81935 0 0 .81935 24 80.11)" points="0 0 175.75 0 175.75 38.786 0 38.786" fill="none"/>
 <path d="m70.429 93.389c-0.62926 0.85213-1.6821 2.3335-2.3229 3.1988-0.32528 0.43999-0.91276 1.2389 1.0348 1.2389h10.254s1.6526-2.2483 3.0382-4.1287c1.8845-2.558 0.16305-7.8806-6.5745-7.8806h-26.534l-4.6007 6.2509h25.075c1.2659 0 1.2487 0.48178 0.63008 1.3208zm-7.5332 5.9797c-1.9476 0-1.3601-0.8005-1.0348-1.2405 0.64073-0.86523 1.7108-2.3311 2.3401-3.1832 0.61943-0.83902 0.63582-1.3208-0.63172-1.3208h-11.468l-9.2399 12.557h22.533c7.4422 0 11.586-5.062 12.863-6.8121 0-8.19e-4 -13.302-8.19e-4 -15.362-8.19e-4zm14.658 6.8129h13.219l5.0112-6.8138-13.217 0.0018c-0.0045-8.19e-4 -5.0128 6.8121-5.0128 6.8121zm34.106-20.364-5.0702 6.8867h-5.8994l5.0677-6.8867h-13.215l-8.8408 12.009h32.332l8.8384-12.009zm-14.988 20.364h13.214l5.0136-6.8121h-13.214c-5e-3 -8.19e-4 -5.0136 6.8121-5.0136 6.8121zm-72.672-4.1255v1.447h18.409l1.0635-1.447zm21.452-2.6875h-21.452v1.4453h20.386zm-21.452 6.8129h16.437l1.0586-1.4388h-17.496zm124.6-2.6793h19.399v-1.447h-18.334zm-1.9706 2.6793h21.37v-1.4388h-20.312zm5.0112-6.8129-1.0627 1.447h17.421v-1.447zm-17.308-1.542 8.84-12.009h-13.995c-4e-3 0-8.8466 12.009-8.8466 12.009zm-15.135 1.542s-0.96602 1.32-1.4355 1.9558c-1.6592 2.2418-0.19173 4.8571 5.2242 4.8571h21.222l5.0136-6.8121h-30.024z" stroke-width=".81936"/>
</svg>
