<?xml version="1.0" encoding="UTF-8"?>
<svg width="192" height="192" version="1.1" viewBox="0 0 192 192" xmlns="http://www.w3.org/2000/svg">
 <polygon transform="matrix(.91039 0 0 .91039 16 78.345)" points="0 38.786 0 0 175.75 0 175.75 38.786" fill="none"/>
 <path d="m67.587 93.099c-0.69918 0.94681-1.869 2.5928-2.581 3.5542-0.36142 0.48888-1.0142 1.3765 1.1498 1.3765h11.394s1.8363-2.4981 3.3757-4.5875c2.0939-2.8422 0.18117-8.7562-7.305-8.7562h-29.482l-5.1119 6.9454h27.861c1.4066 0 1.3874 0.53531 0.70009 1.4676zm-8.3702 6.6441c-2.164 0-1.5112-0.88945-1.1498-1.3783 0.71192-0.96137 1.9009-2.5901 2.6001-3.5369 0.68826-0.93224 0.70647-1.4676-0.70191-1.4676h-12.742l-10.267 13.953h25.037c8.2691 0 12.873-5.6244 14.292-7.569 0-9.1e-4 -14.78-9.1e-4 -17.069-9.1e-4zm16.287 7.5699h14.687l5.568-7.5708-14.686 2e-3c-5e-3 -9.1e-4 -5.5698 7.569-5.5698 7.569zm37.895-22.627-5.6335 7.6519h-6.5548l5.6308-7.6519h-14.683l-9.8232 13.344h35.924l9.8204-13.344zm-16.653 22.627h14.682l5.5707-7.569h-14.682c-6e-3 -9.1e-4 -5.5707 7.569-5.5707 7.569zm-80.747-4.5838v1.6078h20.455l1.1817-1.6078zm23.835-2.9861h-23.835v1.6059h22.651zm-23.835 7.5699h18.263l1.1762-1.5986h-19.44zm138.45-2.977h21.554v-1.6078h-20.371zm-2.1895 2.977h23.744v-1.5986h-22.569zm5.568-7.5699-1.1808 1.6078h19.357v-1.6078zm-19.231-1.7134 9.8222-13.344h-15.55c-4e-3 0-9.8295 13.344-9.8295 13.344zm-16.817 1.7134s-1.0734 1.4666-1.595 2.1731c-1.8436 2.4908-0.21304 5.3968 5.8047 5.3968h23.58l5.5707-7.569h-33.36z" stroke-width=".91039"/>
</svg>
