<?xml version="1.0" encoding="UTF-8"?>
<svg id="SVGRoot" width="192px" height="192px" version="1.1" viewBox="0 0 192 192" xmlns="http://www.w3.org/2000/svg">
 <path d="m106.54 171.13c-2.7-1.6614-2.92-2.6581-2.92-13.23v-8.434l-57.311-0.1788-2.1462-1.0666c-2.3397-1.1627-3.9801-2.8334-5.124-5.2184-0.9899-2.064-1.1616-7.4878-1.2831-40.532l-0.09946-27.054 0.76562-1.62c0.61117-1.2932 5.7915-6.699 25.679-26.797 28.144-28.442 26.387-26.93 31.34-26.967 4.8984-0.0365 3.2947-1.4213 32.134 27.749 24.151 24.428 25.434 25.784 26.081 27.566 0.67588 1.8628 0.68037 2.0843 0.68037 33.602 0 31.107-0.0127 31.762-0.6527 33.488-0.91818 2.4771-2.8035 4.5061-5.3748 5.7845l-2.1418 1.0649-14.524 0.32399-9.2771 10.356c-5.1024 5.6957-9.7679 10.689-10.368 11.097-1.4435 0.98079-3.9236 1.011-5.4586 0.0664zm13.303-15.12 9.9108-11.097 7.557-7e-3c6.6564-6e-3 7.7127-0.0785 8.8636-0.60615 1.7521-0.80324 3.2398-2.6934 3.6539-4.6424 0.47664-2.2433 0.46086-59.227-0.017-61.553l-0.3528-1.7169-24.925-25.207c-13.709-13.863-25.431-25.526-26.049-25.918-1.5657-0.99106-4.5331-0.99109-6.0988-5e-5 -0.61791 0.39111-12.119 11.835-25.557 25.432-21.497 21.749-24.471 24.876-24.741 26.017-0.19742 0.83146-0.17826 12.388 0.05345 32.243l0.36117 30.947 0.78736 1.4378c0.43305 0.79077 1.4136 1.8816 2.1791 2.4242l1.3917 0.98636 61.254 0.1746v10.659c0 5.8624 0.0906 10.898 0.2015 11.189 0.50867 1.338 1.7744 0.15613 11.527-10.764zm-57.867-25.708c-0.66668-0.19804-1.1042-0.57026-1.2206-1.0385-0.09981-0.40141-0.13776-6.7035-0.08433-14.005l0.09715-13.275 0.84997-1.8299c1.6701-3.5956 4.7785-5.7849 9.1107-6.4168 2.8131-0.41035 13.03-0.4191 16.122-0.01384 4.4912 0.5888 7.8699 3.1134 9.4503 7.0612 0.73042 1.8247 0.73948 2.011 0.73948 15.2 0 12.385-0.04161 13.395-0.57296 13.932-0.53372 0.53925-1.6988 0.58284-17.013 0.63637-9.6583 0.0338-16.868-0.0699-17.479-0.2512zm38.446-0.59497c-0.20947-0.39507-0.3323-4.5127-0.3323-11.141 0-11.938 0.12862-12.78 2.34-15.316 2.5502-2.9243 5.0611-3.5099 14.116-3.2923 6.9264 0.16643 8.2373 0.46451 10.45 2.3761 0.71601 0.61862 1.7078 1.9593 2.2041 2.9794l0.90229 1.8546 0.0992 11.055c0.0886 9.8725 0.0432 11.111-0.42417 11.583-0.4681 0.47249-2.0279 0.52827-14.773 0.52827-13.76 0-14.261-0.0215-14.582-0.6267zm11.544-34.326c-3.0918-1.0225-5.5106-3.1386-6.9353-6.0674-0.81566-1.6767-0.92895-2.2653-0.92895-4.8256 0-2.5265 0.11817-3.1587 0.88426-4.7334 4.1995-8.6312 16.403-8.5693 20.32 0.10299 1.3033 2.8858 1.3171 6.3688 0.0364 9.1663-1.0789 2.3567-3.0324 4.4622-5.1908 5.5945-1.3171 0.69101-2.1231 0.85872-4.4939 0.93498-1.5889 0.05106-3.25-0.02657-3.6914-0.17248zm-35.967-6.7865c-3.9303-1.0358-6.9576-3.6147-8.7665-7.4684-0.94748-2.0184-1.0073-2.3674-1.0073-5.8719 0-3.374 0.08213-3.9029 0.86956-5.599 1.697-3.6555 5.3904-6.699 9.3513-7.7056 5.1185-1.3009 11.223 1.125 14.341 5.6991 2.5481 3.7383 2.9788 9.3447 1.039 13.526-1.8683 4.0273-5.4959 6.8471-9.8506 7.657-2.5014 0.46521-3.4538 0.42739-5.976-0.23728z" fill="none" stroke="#000" stroke-linecap="round" stroke-linejoin="round" stroke-width="8"/>
</svg>
