<svg xmlns="http://www.w3.org/2000/svg" width="192" height="192" viewBox="0 0 192 192"><path fill="none" stroke="#000" stroke-linecap="round" stroke-linejoin="round" stroke-width="8" d="M106.54 171.13c-2.7-1.661-2.92-2.658-2.92-13.23v-8.434l-57.311-.179-2.146-1.066c-2.34-1.163-3.98-2.834-5.124-5.219-.99-2.064-1.162-7.488-1.283-40.532l-.1-27.054.766-1.62C39.033 72.503 44.213 67.097 64.1 47c28.144-28.442 26.387-26.93 31.34-26.967 4.898-.036 3.295-1.421 32.134 27.75 24.15 24.427 25.434 25.783 26.08 27.565.677 1.863.681 2.085.681 33.602 0 31.107-.012 31.762-.652 33.488-.919 2.477-2.804 4.506-5.375 5.785l-2.142 1.065-14.524.324-9.277 10.356c-5.103 5.695-9.768 10.689-10.368 11.097-1.444.98-3.924 1.01-5.459.066zm13.303-15.12 9.91-11.097 7.558-.007c6.656-.006 7.712-.079 8.863-.606 1.752-.803 3.24-2.694 3.654-4.643.477-2.243.461-59.227-.017-61.553l-.353-1.716-24.925-25.207c-13.709-13.863-25.43-25.526-26.049-25.918-1.565-.992-4.533-.992-6.098 0-.618.39-12.12 11.834-25.557 25.431-21.497 21.75-24.471 24.876-24.741 26.017-.198.832-.179 12.388.053 32.243l.361 30.947.788 1.438c.433.791 1.413 1.882 2.179 2.424l1.391.987 61.254.174v10.66c0 5.862.091 10.897.202 11.188.509 1.338 1.774.157 11.527-10.764zm-57.867-25.708c-.667-.198-1.104-.57-1.22-1.038-.1-.402-.138-6.704-.085-14.006l.097-13.274.85-1.83c1.67-3.596 4.779-5.785 9.11-6.417 2.814-.41 13.03-.42 16.123-.014 4.491.589 7.87 3.113 9.45 7.061.73 1.825.74 2.011.74 15.2 0 12.385-.042 13.395-.573 13.932-.534.54-1.7.583-17.013.637-9.659.033-16.868-.07-17.48-.252zm38.446-.595c-.21-.395-.332-4.513-.332-11.141 0-11.938.128-12.78 2.34-15.316 2.55-2.924 5.06-3.51 14.116-3.292 6.926.166 8.237.464 10.45 2.376.716.618 1.708 1.96 2.204 2.98l.902 1.854.1 11.055c.088 9.872.042 11.11-.425 11.583-.468.472-2.028.528-14.773.528-13.76 0-14.26-.021-14.582-.627zm11.544-34.326c-3.092-1.022-5.51-3.139-6.935-6.067-.816-1.677-.93-2.266-.93-4.826 0-2.526.119-3.159.885-4.733 4.2-8.632 16.403-8.57 20.32.103 1.303 2.885 1.317 6.368.036 9.166-1.078 2.357-3.032 4.462-5.19 5.594-1.317.691-2.123.86-4.494.935-1.59.051-3.25-.026-3.692-.172zm-35.967-6.786c-3.93-1.036-6.958-3.615-8.767-7.469-.947-2.018-1.007-2.367-1.007-5.872 0-3.374.082-3.903.87-5.599 1.697-3.655 5.39-6.699 9.351-7.705 5.119-1.301 11.223 1.125 14.341 5.699 2.548 3.738 2.979 9.344 1.04 13.526-1.87 4.027-5.497 6.847-9.852 7.657-2.5.465-3.453.427-5.976-.238z"/></svg>