<svg xmlns="http://www.w3.org/2000/svg" width="192" height="192" viewBox="0 0 192 192"><g fill="none" stroke="#000" stroke-linecap="round" stroke-linejoin="round" stroke-width="8"><path d="m34.082 121.05 2.771-12.436-9.5-8.422 6.451-10.965-6.451-10.965 9.5-8.421-2.771-12.436 11.619-5.053 1.18-12.69 12.602-1.192 5.017-11.7 12.35 2.79 8.36-9.563L96.1 26.494l10.888-6.497 8.363 9.568 12.348-2.79 5.017 11.702 12.6 1.19 1.183 12.69 11.62 5.054-2.772 12.436 9.5 8.422-6.45 10.964 6.45 10.966-9.5 8.421 2.771 12.436" class="a"/><path d="M96.098 33.079 77.329 60.661l-31.847 9.455 20.248 26.5-.913 33.426 31.281-11.201 31.283 11.203-.913-33.428 20.247-26.502-31.847-9.455zM46.092 130.31s17.244 18.659 50.007 18.659 50.028-18.891 50.028-18.891M76.619 167.17a88.972 89.598 0 0 1-56.62-38.3l9.091 3.612-.935-9.042s13.982 26.136 53.073 34.426c6.975 2.395.42 10.208-4.61 9.303z" class="a"/><path d="m41.305 138.66 4.788-8.352s17.244 18.659 50.007 18.659 49.806-18.66 49.806-18.66" class="a"/><path d="M76.619 167.17a88.972 89.598 0 0 1-56.62-38.3l9.091 3.612-.935-9.042s13.982 26.136 53.073 34.426c6.975 2.395.42 10.208-4.61 9.303z" class="a"/><path d="m41.305 138.66 4.788-8.352s17.244 18.659 50.007 18.659" class="a"/><path d="M76.619 167.17a88.972 89.598 0 0 1-56.62-38.3l9.091 3.612-.935-9.042s13.982 26.136 53.073 34.426c6.975 2.395.42 10.208-4.61 9.303zM150.69 138.66l-4.788-8.352M115.38 167.17a88.972 89.598 0 0 0 56.622-38.3l-9.091 3.612.935-9.042s-13.982 26.136-53.073 34.426c-6.975 2.395-.42 10.208 4.61 9.303z" class="a"/><ellipse cx="96.099" cy="86.361" class="a" rx="19.533" ry="19.67"/><path d="M81.227 157.86a74.568 75.092 0 0 0 29.545 0M96.099 118.84v53.159M78.789 137.44h34.62" class="a"/><ellipse cx="96.099" cy="86.361" class="a" rx="31.516" ry="31.738"/></g></svg>