<?xml version="1.0" encoding="UTF-8"?>
<svg id="SVGRoot" width="192px" height="192px" version="1.1" viewBox="0 0 192 192" xmlns="http://www.w3.org/2000/svg">
 <g fill="none" stroke="#000" stroke-linecap="round" stroke-linejoin="round" stroke-width="8">
  <path class="a" d="m34.082 121.05 2.7711-12.436-9.5005-8.4216 6.4516-10.965-6.4516-10.965 9.5005-8.4216-2.7711-12.436 11.619-5.053 1.1806-12.69 12.601-1.1914 5.0177-11.701 12.349 2.7906 8.3616-9.5629 10.888 6.497 10.888-6.497 8.3628 9.5674 12.348-2.789 5.0177 11.701 12.6 1.1914 1.183 12.69 11.619 5.053-2.7711 12.436 9.5005 8.4216-6.4516 10.965 6.4516 10.965-9.5005 8.4216 2.7711 12.436"/>
  <path class="a" d="m96.098 33.079-18.769 27.582-31.847 9.4548 20.248 26.5-0.91257 33.426 31.281-11.201 31.283 11.203-0.91297-33.428 20.247-26.502-31.847-9.4548z"/>
  <path class="a" d="m46.092 130.31s17.244 18.659 50.007 18.659 50.028-18.891 50.028-18.891"/>
  <path class="a" d="m76.619 167.17a88.972 89.598 0 0 1-56.62-38.3l9.0914 3.6123-0.93582-9.0428s13.982 26.136 53.073 34.426c6.9758 2.3958 0.42018 10.209-4.6097 9.3032z"/>
  <path class="a" d="m41.305 138.66 4.788-8.3522s17.244 18.659 50.007 18.659c32.763 0 49.806-18.659 49.806-18.659"/>
  <path class="a" d="m76.619 167.17a88.972 89.598 0 0 1-56.62-38.3l9.0914 3.6123-0.93582-9.0428s13.982 26.136 53.073 34.426c6.9758 2.3958 0.42018 10.209-4.6097 9.3032z"/>
  <path class="a" d="m41.305 138.66 4.788-8.3522s17.244 18.659 50.007 18.659"/>
  <path class="a" d="m76.619 167.17a88.972 89.598 0 0 1-56.62-38.3l9.0914 3.6123-0.93582-9.0428s13.982 26.136 53.073 34.426c6.9758 2.3958 0.42018 10.209-4.6097 9.3032z"/>
  <path class="a" d="m150.69 138.66-4.788-8.3522"/>
  <path class="a" d="m115.38 167.17a88.972 89.598 0 0 0 56.622-38.3l-9.0914 3.6123 0.93583-9.0428s-13.982 26.136-53.073 34.426c-6.9758 2.3958-0.42018 10.209 4.6097 9.3032z"/>
  <ellipse class="a" cx="96.099" cy="86.361" rx="19.533" ry="19.67"/>
  <path class="a" d="m81.227 157.86a74.568 75.092 0 0 0 29.545 0"/>
  <path class="a" d="m96.099 118.84v53.159"/>
  <path class="a" d="m78.789 137.44h34.62"/>
  <ellipse class="a" cx="96.099" cy="86.361" rx="31.516" ry="31.738"/>
 </g>
</svg>
