<?xml version="1.0" encoding="UTF-8"?>
<svg id="SVGRoot" width="192px" height="192px" version="1.1" viewBox="0 0 192 192" xmlns="http://www.w3.org/2000/svg">
 <g fill="none" stroke="#000" stroke-linecap="round" stroke-linejoin="round" stroke-width="8">
  <path d="m40.945 123.94c20.925 9.2173 47.743 12.071 60.291-4.7235 4.2048-5.6419 7.1514-12.137 11.489-18.041 6.092-9.3157 14.402-14.236 23.805-16.959 4.1386-1.1809 8.2771-2.3617 12.416-3.5754 6.9859-2.0665 10.827-6.1667 12.482-11.612 0.89394-2.9522 0.92705-6.0355 0.39731-9.2501-0.52974-4.7235-3.675-6.8884-9.4691-6.4948-3.4433 0.39362-6.8535 0.62323-10.264 0.72164-4.5359-0.36082-4.6021-1.8369-4.0724-3.477 0.0662-0.36082 0.36419-0.68884 0.86082-0.95125 2.4831-0.75444 3.8737-2.2633 4.7345-4.1002 0.7615-1.5417 2.45-1.1809 4.0724-1.8041 3.973-0.62323 7.6481-0.0656 10.926 1.9025 5.6285 3.4114 9.7339 7.4788 11.389 12.563 3.2778 7.5116 1.9534 16.991-0.66217 23.65-0.43042 1.5089-8.4758 24.142-15.594 29.358-5.9264 6.1995-22.514 16.171-33.473 20.96-25.494 10.956-59.297 12.497-83.401-2.2633-4.4034-3.0506-10.197-7.0524-15.991-8.3316-1.4568-0.45923-1.5892-2.2305 2.301-2.7718 3.8903-0.54124 12.432 2.6077 17.763 5.1991z"/>
  <path d="m134.34 124.78c0.87784 1.5604 1.2634 3.4916 1.0302 5.8871-0.33108 2.6898-1.2912 5.2155-3.5757 7.3476-1.1588 0.82004-2.2514 1.9353-3.2446 3.4114-0.23176 0.29522-0.29798 0.65604 0.0662 1.1481 1.7879 1.7385 2.9798 3.477-0.0662 5.2811-2.6487 0.98405-5.794 1.3121-10.727-0.68884-2.9467-2.0993-3.6088-4.2642-3.2446-6.4291l-0.0331-0.0328c-4.1386-1.2465-7.7143-3.0834-7.4163-9.2829-0.13243-3.149 1.0926-5.8715 4.271-7.938"/>
  <path d="m157.17 107.45c1.0258 2.6689 0.91356 6.5258 0.25341 12.391-0.7284 5.8715-4.2379 14.761-3.6751 16.696 1.0264 2.5585 1.6554 5.0515-0.56284 7.446-1.8541 1.2465-4.0061 1.5417-7.1515-1.5745-1.7879-3.1162-2.0196-6.1995-1.5892-9.2501l0.0331-0.0328c-4.9497-8.7253-4.7925-17.852-2.2472-23.88 1.2726-3.0137 3.1422-5.2524 5.2689-6.2784"/>
 </g>
</svg>
