<?xml version="1.0" encoding="UTF-8"?>
<svg width="192" height="192" version="1.1" viewBox="0 0 192 192" xmlns="http://www.w3.org/2000/svg" xmlns:xlink="http://www.w3.org/1999/xlink">
 <g stroke-width=".020741">
  <path d="m59.484 46.976v18.667l-0.76743 0.12445c-11.47 1.8252-20.617 6.3468-28.312 14.042-7.4461 7.4254-12.258 16.904-14 27.441-0.53927 3.2564-0.53927 11.698 0 14.934 0.89187 5.2683 2.3645 9.9558 4.5423 14.291 2.3852 4.7705 5.2475 8.732 8.9809 12.465 7.9854 7.9854 18.169 12.901 29.867 14.457 2.966 0.39408 50.049 0.39408 53.823 0 11.864-1.2237 22.276-4.729 31.568-10.62 16.904-10.744 27.524-27.378 30.365-47.601 0.49779-3.609 0.6015-12.175 0.20741-16.074-1.9704-18.605-11.304-35.053-26.424-46.523-9.9558-7.5498-21.052-12.009-34.264-13.772-2.2815-0.29038-5.8698-0.3526-29.079-0.41483l-26.507-0.083zm55.898-13.191c7.7365 1.1615 14.063 3.0904 20.326 6.1601 16.199 7.9646 28.208 22.006 32.979 38.599 1.7215 5.9942 2.4475 11.076 2.4267 17.506 0 10.371-1.9704 19.082-6.3676 28.001-9.7484 19.829-29.618 32.792-52.89 34.534-3.9201 0.29038-47.726 0.29038-50.92-0.0207-15.266-1.3897-28.727-10.537-35.53-24.143-11.097-22.255-1.8252-49.074 20.658-59.735 4.9572-2.3645 10.433-3.7334 16.386-4.1482l2.0119-0.14519v-37.106l24.329 0.083c21.322 0.0622 24.599 0.12445 26.59 0.41483z"/>
  <path d="m70.269 54.919v15.826l2.9452 0.58075c5.6831 1.0993 11.325 3.4016 15.991 6.5127 10.62 7.0935 17.547 18.066 19.352 30.697 0.47705 3.2771 0.47705 8.898 0 12.175-1.8045 12.611-8.815 23.666-19.435 30.738-2.1363 1.4104-2.1363 1.4311-1.4311 1.4934 0.39408 0.0415 6.0979 0.0415 12.652-0.0207 12.756-0.1037 13.834-0.18667 19.269-1.3067 5.6001-1.1408 10.308-2.8001 15.286-5.3512 15.224-7.8402 25.781-21.571 29.183-37.977 0.97483-4.6668 1.0785-5.9112 1.0785-12.341-0.0207-5.372-0.0622-6.4505-0.47705-8.815-2.1571-12.445-7.4876-22.629-16.448-31.319-9.1054-8.8358-20.223-14.249-33.373-16.199-2.0949-0.33186-4.8742-0.37334-23.479-0.43557l-21.115-0.083z"/>
  <path d="m61.351 76.47c-9.4787 0.82965-18.999 5.6624-25.201 12.797-15.328 17.609-11.864 44.241 7.4668 57.184 13.274 8.898 30.531 8.5869 43.66-0.78817 0.97483-0.68446 3.0697-2.5719 4.6875-4.169 3.2564-3.2771 5.5586-6.4298 7.3424-10.163 5.7868-12.051 4.8949-26.507-2.323-37.521-1.7008-2.5926-3.2564-4.4386-5.6831-6.8031-6.3676-6.1601-14.332-9.7484-23.313-10.557-2.6756-0.22815-3.7956-0.22815-6.6372 0.0207z"/>
 </g>
</svg>
