<svg xmlns="http://www.w3.org/2000/svg" width="192" height="192" viewBox="0 0 192 192"><path fill="none" stroke="#000" stroke-linecap="round" stroke-linejoin="round" stroke-width="8" d="M153.33 89.769v14.694h6.597v6.912c-.517.544-1.095.925-1.763 1.197s-1.55.38-2.645.38c-1.368 0-2.584-.38-3.709-1.196-1.125-.762-2.098-1.905-2.888-3.375-.82-1.469-1.429-3.21-1.885-5.224-.456-2.014-.699-4.245-.699-6.694v-.218c0-2.34.213-4.517.638-6.53.426-1.96 1.034-3.701 1.794-5.116.76-1.47 1.702-2.558 2.766-3.374s2.22-1.252 3.466-1.252c1.611 0 3.131.544 4.53 1.578s2.736 2.504 4.012 4.463l7.205-15.565c-2.097-3.265-4.469-5.878-7.144-7.673-2.675-1.85-5.654-2.776-8.998-2.776-3.04 0-5.867.925-8.451 2.721-2.584 1.796-4.834 4.3-6.75 7.565-1.914 3.21-3.404 7.02-4.468 11.429-.942 3.864-1.46 8.054-1.58 12.463l-7.753-33.197h-12.768l-11.005 47.129V61.47H88.365l-8.269 24.273-8.238-24.272H58.421v15.456a39.61 39.61 0 0 0-2.25-5.715c-1.702-3.428-3.83-6.15-6.414-8.163-2.584-2.013-5.654-3.047-9.15-3.047-3.01 0-5.776.925-8.3 2.775-2.523 1.85-4.712 4.408-6.536 7.674s-3.252 7.074-4.256 11.429c-1.003 4.353-1.52 9.034-1.52 14.04v.273c0 5.333.548 10.23 1.612 14.639 1.094 4.408 2.584 8.163 4.53 11.265 1.945 3.102 4.225 5.496 6.9 7.238s5.594 2.612 8.816 2.612c4.074 0 7.57-1.252 10.458-3.81 1.429-1.251 2.706-2.72 3.891-4.353l-6.475-14.041c-.79 1.034-1.611 1.85-2.402 2.449-1.428 1.088-3.01 1.632-4.712 1.632-2.25 0-4.164-.925-5.684-2.775-1.277-1.578-2.22-3.81-2.828-6.748h24.29v26.177h12.555V96.3l8.908 24.544h.212L88.974 96.3v34.23h21.37l1.977-9.251h13.498l2.036 9.252h13.984l-1.824-7.783c1.885 2.885 4.044 5.116 6.506 6.694 2.614 1.687 5.442 2.558 8.451 2.558 3.527 0 6.719-.925 9.576-2.83s5.35-4.408 7.448-7.456V89.77zm-119.68-.054c.426-3.538 1.186-6.422 2.34-8.545 1.217-2.23 2.767-3.374 4.682-3.374 1.946 0 3.557 1.143 4.834 3.374 1.186 2.123 1.946 5.007 2.22 8.545zm81.928 15.184 3.526-16.762 3.527 16.762z"/></svg>