<?xml version="1.0" encoding="UTF-8"?>
<svg id="SVGRoot" width="192px" height="192px" version="1.1" viewBox="0 0 192 192" xmlns="http://www.w3.org/2000/svg">
 <path d="m153.33 89.769v14.694h6.5968v6.9116c-0.5168 0.54422-1.0944 0.92517-1.7632 1.1973s-1.5504 0.38095-2.6448 0.38095c-1.368 0-2.584-0.38095-3.7088-1.1973-1.1248-0.76191-2.0976-1.9048-2.888-3.3742-0.8208-1.4694-1.4288-3.2109-1.8848-5.2245-0.456-2.0136-0.6992-4.2449-0.6992-6.6939v-0.21769c0-2.3401 0.2128-4.517 0.6384-6.5306 0.4256-1.9592 1.0336-3.7007 1.7936-5.1156 0.76-1.4694 1.7024-2.5578 2.7664-3.3741s2.2192-1.2517 3.4656-1.2517c1.6112 0 3.1312 0.54422 4.5296 1.5782s2.736 2.5034 4.0128 4.4626l7.2048-15.565c-2.0976-3.2653-4.4688-5.8776-7.144-7.6735-2.6752-1.8503-5.6544-2.7755-8.9984-2.7755-3.04 0-5.8672 0.92517-8.4512 2.7211-2.584 1.7959-4.8336 4.2993-6.7488 7.5646-1.9152 3.2109-3.4048 7.0204-4.4688 11.429-0.9424 3.8639-1.4592 8.0544-1.5808 12.463l-7.752-33.197h-12.768l-11.005 47.129v-46.639h-13.467l-8.2688 24.272-8.2384-24.272h-13.437v15.456c-0.6384-2.068-1.3984-3.9728-2.2496-5.7143-1.7024-3.4286-3.8304-6.1497-6.4144-8.1633-2.584-2.0136-5.6544-3.0476-9.1504-3.0476-3.0096 0-5.776 0.92517-8.2992 2.7755-2.5232 1.8503-4.712 4.4082-6.536 7.6735s-3.2528 7.0748-4.256 11.429c-1.0032 4.3537-1.52 9.034-1.52 14.041v0.27211c0 5.3333 0.5472 10.231 1.6112 14.639 1.0944 4.4082 2.584 8.1633 4.5296 11.265 1.9456 3.102 4.2256 5.4966 6.9008 7.2381s5.5936 2.6122 8.816 2.6122c4.0736 0 7.5696-1.2517 10.458-3.8095 1.4288-1.2517 2.7056-2.7211 3.8912-4.3537l-6.4752-14.041c-0.7904 1.034-1.6112 1.8503-2.4016 2.449-1.4288 1.0884-3.0096 1.6326-4.712 1.6326-2.2496 0-4.1648-0.92517-5.6848-2.7755-1.2768-1.5782-2.2192-3.8095-2.8272-6.7483h24.29v26.177h12.555v-34.177l8.9072 24.544h0.2128l8.9072-24.544v34.231h21.371l1.976-9.2517h13.498l2.0368 9.2517h13.984l-1.824-7.7823c1.8848 2.8844 4.0432 5.1156 6.5056 6.6939 2.6144 1.6871 5.4416 2.5578 8.4512 2.5578 3.5264 0 6.7184-0.92517 9.576-2.8299s5.3504-4.4082 7.448-7.4558v-31.946zm-119.68-0.054422c0.4256-3.5374 1.1856-6.4218 2.3408-8.5442 1.216-2.2313 2.7664-3.3742 4.6816-3.3742 1.9456 0 3.5568 1.1429 4.8336 3.3742 1.1856 2.1224 1.9456 5.0068 2.2192 8.5442zm81.928 15.184 3.5264-16.762 3.5264 16.762z" fill="none" stroke="#000" stroke-linecap="round" stroke-linejoin="round" stroke-width="8"/>
</svg>
