<?xml version="1.0" encoding="UTF-8"?>
<svg id="SVGRoot" width="192px" height="192px" version="1.1" viewBox="0 0 192 192" xmlns="http://www.w3.org/2000/svg">
 <path d="m132.09 146.51c-1.2978-0.13437-3.076-0.3905-3.9517-0.5692-1.5084-0.30779-1.584-0.36585-1.4363-1.103 0.0857-0.42795 0.51576-3.6014 0.95558-7.0521 0.43982-3.4507 0.87957-6.3666 0.97724-6.4799 0.0976-0.11327 1.3791 5.9e-4 2.8477 0.25321 3.3366 0.57375 6.111 0.25318 7.9042-0.91328 1.3545-0.88109 3.2117-3.5476 4.1434-5.949 0.97121-2.5033 10.049-27.323 15.784-43.158l5.0999-14.08h7.5901v31.985l-6.1128 15.45c-6.6179 16.727-7.6845 19.172-9.6866 22.208-4.9321 7.4789-12.863 10.573-24.115 9.4077zm-46.465-24.532c-9.2806-1.3026-15.156-7.0315-15.661-15.271-0.2986-4.8716 1.1896-8.7734 4.4568-11.685 5.2226-4.6546 12.84-6.8188 25.813-7.3341l4.6758-0.18572-0.013-1.1945c-0.031-2.8435-1.5141-4.9982-4.3589-6.3327-4.8088-2.2559-11.865-1.0581-17.286 2.9342-0.89021 0.65563-1.7 1.1571-1.7995 1.1144-0.09952-0.04268-2.1429-2.1359-4.5409-4.6516l-4.36-4.574 1.558-1.2881c6.7641-5.5927 16.157-8.3067 26.002-7.5131 6.9399 0.55938 11.234 2.2151 14.777 5.6983 3.405 3.3469 5.125 7.3172 6.1961 14.302 0.35564 2.3194 0.4465 6.1798 0.44789 19.032l2e-3 16.123h-16.031v-2.9181c0-1.605-0.1002-2.9181-0.22266-2.918-0.12246 9e-5 -0.79506 0.65348-1.4946 1.452-1.6224 1.8518-3.3961 3.0463-5.9241 3.9896-3.8024 1.4188-7.9076 1.8282-12.237 1.2205zm13.371-12.186c2.1904-0.80591 3.8201-2.2235 4.9486-4.3046 0.98747-1.8211 1.6614-4.8102 1.506-6.6796l-0.0954-1.1471-3.8594 0.07963c-6.4574 0.13321-10.192 0.90453-12.593 2.6011-4.43 3.13-3.1794 8.6507 2.2667 10.006 1.7559 0.43696 5.9352 0.14041 7.8262-0.55532zm-78.992-26.576v-37.936h12.06c13.067 0 15.943 0.22206 21.012 1.6222 4.3743 1.2083 7.6306 3.0381 10.582 5.9461 2.8954 2.8529 4.3539 5.3649 5.3329 9.1846 0.83826 3.2706 0.83384 9.6531-9e-3 12.892-2.2856 8.7848-8.758 14.138-19.963 16.512-2.5573 0.54174-4.3303 0.66947-11.202 0.80703l-8.1641 0.16343-0.077 14.372-0.077 14.372h-9.4944zm22.278-5.6656c5.9827-1.0492 9.2313-4.6214 8.8169-9.6952-0.28176-3.4502-2.276-5.8249-6.009-7.1552-1.5845-0.56468-2.5436-0.64926-8.6836-0.7658l-6.9023-0.131v8.8856c0 4.8871-0.44721 9.5094-0.33839 9.6164 0.36278 0.35659 10.82-0.35202 13.116-0.75479zm97.231 29.037c-0.10514-0.16726-3.9188-9.007-8.4747-19.644l-8.2835-19.34 9.6877-0.07698c5.3282-0.04235 9.776 0.02327 9.884 0.1459 0.10806 0.1226 1.4369 3.8048 2.9531 8.1827l2.7567 7.9597-4.0953 11.446c-2.2524 6.2952-4.1272 11.487-4.1661 11.538-0.0389 0.0508-0.15681-0.0445-0.26198-0.21175z" fill="none" stroke="#000" stroke-linecap="round" stroke-linejoin="round" stroke-width="8"/>
</svg>
