<?xml version="1.0" encoding="UTF-8"?>
<svg id="SVGRoot" width="192px" height="192px" version="1.1" viewBox="0 0 192 192" xmlns="http://www.w3.org/2000/svg">
 <path d="m86.539 171.35c-14.138-1.9273-27.228-7.5487-37.911-16.281-29.181-23.85-36.711-65.264-17.731-97.515 10.263-17.439 26.994-30.058 46.693-35.218 13.524-3.5423 29.386-3.0053 42.829 1.4499 22.575 7.4818 40.868 25.819 48.298 48.416 2.5925 7.8851 2.8018 9.5213 2.8018 21.907v11.08h-79.648v-22.528h56.332l-0.2604-1.1063c-0.59279-2.5183-3.1231-8.559-4.8444-11.566-17.74-30.985-59.413-36.724-84.386-11.622-7.4655 7.5042-12.297 16.488-14.579 27.11-0.56632 2.636-0.73099 5.1245-0.71875 10.862 0.01429 6.6744 0.12552 7.8798 1.0785 11.684 2.6098 10.418 7.1028 18.461 14.38 25.743 7.4595 7.4646 16.57 12.354 27.46 14.736 4.6318 1.0135 16.016 1.0081 20.731-9e-3 6.5028-1.4037 14.418-4.6458 19.13-7.836 2.4883-1.6845 2.097-1.7111 2.4707-1.1833 19.194 27.11 6.0905 8.9528 9.5246 13.67 3.434 4.7172 2.7576 4.0951 2.7576 4.1892s-1.8051 1.3538-4.0113 2.7994c-14.301 9.3708-33.157 13.568-50.396 11.218z" fill="none" stroke="#000" stroke-linecap="round" stroke-linejoin="round" stroke-width="8"/>
</svg>
