<svg xmlns="http://www.w3.org/2000/svg" width="192" height="192" viewBox="0 0 192 192"><path fill="none" stroke="#000" stroke-linecap="round" stroke-linejoin="round" stroke-width="8" d="M132.09 146.51c-1.298-.134-3.076-.39-3.952-.57-1.508-.307-1.584-.365-1.436-1.102.086-.428.516-3.602.956-7.052.44-3.451.88-6.367.977-6.48.097-.113 1.379 0 2.848.253 3.336.574 6.11.253 7.904-.913 1.354-.881 3.211-3.548 4.143-5.95.971-2.503 10.05-27.322 15.784-43.157l5.1-14.08h7.59v31.985l-6.113 15.45c-6.618 16.727-7.684 19.172-9.686 22.208-4.932 7.479-12.863 10.573-24.115 9.407zm-46.465-24.532c-9.28-1.303-15.156-7.032-15.661-15.271-.299-4.872 1.19-8.773 4.457-11.685 5.222-4.655 12.84-6.819 25.813-7.334l4.676-.186-.013-1.194c-.031-2.844-1.515-4.999-4.36-6.333-4.808-2.256-11.864-1.058-17.285 2.934-.89.656-1.7 1.157-1.8 1.115-.1-.043-2.143-2.136-4.54-4.652l-4.36-4.574 1.557-1.288c6.764-5.593 16.157-8.307 26.002-7.513 6.94.56 11.234 2.215 14.777 5.698 3.405 3.347 5.125 7.317 6.196 14.302.356 2.32.447 6.18.448 19.032l.002 16.123h-16.03v-2.918c0-1.605-.1-2.918-.223-2.918s-.795.653-1.495 1.452c-1.622 1.852-3.396 3.046-5.924 3.99-3.802 1.418-7.908 1.828-12.237 1.22zm13.371-12.186c2.19-.806 3.82-2.224 4.949-4.305.987-1.82 1.661-4.81 1.506-6.68l-.096-1.146-3.86.08c-6.457.133-10.191.904-12.592 2.6-4.43 3.13-3.18 8.651 2.266 10.006 1.756.437 5.936.14 7.827-.555zM20.004 83.216V45.28h12.06c13.067 0 15.943.222 21.012 1.622 4.374 1.209 7.63 3.038 10.582 5.946 2.895 2.853 4.354 5.365 5.333 9.185.838 3.27.834 9.653-.01 12.892-2.285 8.785-8.757 14.138-19.962 16.512-2.557.542-4.33.67-11.202.807l-8.164.163-.077 14.372-.077 14.372h-9.495zm22.278-5.666c5.983-1.049 9.231-4.621 8.817-9.695-.282-3.45-2.276-5.825-6.01-7.155-1.584-.565-2.543-.65-8.683-.766l-6.902-.13v8.885c0 4.887-.447 9.51-.338 9.616.362.357 10.82-.352 13.116-.755zm97.231 29.037c-.105-.167-3.919-9.007-8.475-19.644l-8.283-19.34 9.687-.077c5.329-.042 9.776.024 9.884.146.109.123 1.437 3.805 2.954 8.183l2.756 7.96-4.095 11.446c-2.252 6.295-4.127 11.487-4.166 11.538-.039.05-.157-.045-.262-.212z"/></svg>