<svg xmlns="http://www.w3.org/2000/svg" width="192" height="192" viewBox="0 0 192 192"><path fill="none" stroke="#000" stroke-linecap="round" stroke-linejoin="round" stroke-width="8" d="M86.539 171.35c-14.138-1.927-27.228-7.549-37.911-16.281-29.181-23.85-36.711-65.264-17.731-97.515C41.16 40.115 57.891 27.496 77.59 22.336c13.524-3.542 29.386-3.005 42.829 1.45 22.575 7.482 40.868 25.819 48.298 48.416 2.592 7.885 2.802 9.521 2.802 21.907v11.08H91.87V82.66h56.332l-.26-1.106c-.593-2.519-3.124-8.56-4.845-11.566-17.74-30.985-59.413-36.724-84.386-11.622-7.466 7.504-12.297 16.488-14.579 27.11-.566 2.636-.731 5.124-.719 10.862.015 6.674.126 7.88 1.079 11.684 2.61 10.418 7.103 18.46 14.38 25.743 7.46 7.464 16.57 12.354 27.46 14.736 4.632 1.013 16.016 1.008 20.73-.01 6.504-1.403 14.419-4.645 19.13-7.835 2.489-1.685 2.098-1.712 2.471-1.184 19.194 27.11 6.091 8.953 9.525 13.67 3.434 4.717 2.758 4.095 2.758 4.19s-1.805 1.353-4.012 2.799c-14.3 9.37-33.157 13.568-50.396 11.218z"/></svg>