<svg xmlns="http://www.w3.org/2000/svg" width="192" height="192" viewBox="0 0 192 192"><g fill="none" stroke="#000" stroke-linecap="round" stroke-linejoin="round" stroke-width="8"><path d="M28.096 171.67a12.37 12.37 0 0 1-7.244-6.148l-.843-1.641V80.062l.793-2.856c1.976-7.117 4.273-10.794 11.168-17.875 21.704-22.293 30.874-31.383 33.244-32.954 4.544-3.01 10.222-5.138 15.92-5.964 2.887-.418 7.945-.464 42.812-.39l39.538.083 1.947.93c2.354 1.126 4.518 3.23 5.624 5.472l.816 1.652.088 40.418c.093 41.983.073 42.79-1.17 47.428-.87 3.245-3.524 8.406-5.753 11.186-1.632 2.036-15.36 16.212-31.085 32.1-2.372 2.397-5.179 4.934-6.236 5.637-3.898 2.594-8.784 4.676-14.552 6.2l-2.995.792-40.436.066c-32.22.053-40.68-.011-41.634-.316z"/><path d="M128.28 127.81c-2.228-.683-4.12-2.169-6.69-5.253-2.375-2.849-2.424-2.887-3.755-2.911-4.772-.085-9.352-1.091-13.029-2.862-6.43-3.097-10.854-8.848-12.293-15.983-.64-3.18-.78-5.485-.657-10.824.124-5.333.227-6.31.937-8.83.842-2.988 2.447-6.663 3.494-8.001.344-.44 1.724-1.917 3.067-3.285 2.05-2.087 2.877-2.693 5.146-3.768 4.683-2.22 5.68-2.399 13.187-2.372 7.678.026 9.444.363 14.227 2.708 2.365 1.16 3.275 1.826 5.402 3.955 5.353 5.359 7.435 12.069 7.102 22.893-.127 4.115-.297 5.561-.938 8.005-1.85 7.045-5.62 12.233-10.891 14.988-.865.452-1.568.889-1.564.97.004.083 1.297 1.56 2.872 3.282 1.575 1.723 3.81 4.172 4.965 5.444l2.102 2.312-5.648-.023c-3.99-.015-6.055-.146-7.035-.446zm-7.45-18.043c5.499-.873 9.038-4.32 10.704-10.425.775-2.839.762-13.031-.02-15.809-.904-3.214-2.214-5.528-4.129-7.293-2.303-2.124-4.296-2.876-8.154-3.076-7.762-.404-12.4 2.971-14.455 10.519-.802 2.944-.826 12.776-.04 15.66 2.157 7.899 8.033 11.705 16.096 10.425zM48.414 95.099l.082-23.647.785-1.667c1.007-2.139 2.95-3.992 4.979-4.748 1.52-.566 2.345-.595 17.199-.595H87.06l-.202 1.268c-.482 3.023-2.536 5.829-5.236 7.154-1.327.651-1.746.681-11.412.825l-10.034.15-.161 13.273h25.553l-.189 1.37c-.417 3.028-2.477 5.816-5.24 7.087-1.315.606-1.912.646-10.753.731l-9.36.09v13.094H87.06l-.202 1.268c-.482 3.023-2.535 5.828-5.236 7.154-1.373.673-1.438.676-17.335.758l-15.957.082z"/></g></svg>