<?xml version="1.0" encoding="UTF-8"?>
<svg id="SVGRoot" width="192px" height="192px" version="1.1" viewBox="0 0 192 192" xmlns="http://www.w3.org/2000/svg">
 <g fill="none" stroke="#000" stroke-linecap="round" stroke-linejoin="round" stroke-width="8">
  <path d="m28.096 171.67c-3.1337-1.0007-5.7322-3.2061-7.2442-6.1484l-0.84308-1.6406v-83.819l0.79306-2.8558c1.9764-7.117 4.2735-10.794 11.168-17.875 21.704-22.293 30.874-31.383 33.244-32.954 4.5438-3.0108 10.222-5.1377 15.921-5.9638 2.8862-0.41832 7.9442-0.4645 42.811-0.39088l39.538 0.08353 1.9469 0.9306c2.3547 1.1255 4.5181 3.2299 5.6244 5.4712l0.81543 1.652 0.0888 40.418c0.0922 41.983 0.0722 42.79-1.1708 47.428-0.86971 3.2453-3.5237 8.4064-5.7522 11.186-1.6328 2.0365-15.36 16.212-31.085 32.1-2.3728 2.3975-5.179 4.9344-6.2359 5.6376-3.8982 2.5937-8.7848 4.6757-14.552 6.2003l-2.9953 0.79174-40.436 0.0658c-32.22 0.0525-40.68-0.0113-41.634-0.31672z"/>
  <path d="m128.28 127.81c-2.2276-0.68307-4.1199-2.1688-6.6909-5.2534-2.3743-2.8486-2.4235-2.8867-3.7537-2.9106-4.7727-0.0854-9.3521-1.0915-13.029-2.8622-6.4311-3.0965-10.854-8.8474-12.293-15.983-0.64131-3.1806-0.78126-5.485-0.65748-10.824 0.12359-5.3331 0.22714-6.309 0.93728-8.8295 0.84181-2.9883 2.4463-6.6629 3.4938-8.0016 0.34355-0.43888 1.7235-1.9171 3.0669-3.2849 2.0498-2.0872 2.8769-2.6928 5.1456-3.7679 4.6835-2.2194 5.6805-2.3988 13.187-2.3724 7.6785 0.02646 9.4443 0.36321 14.227 2.7081 2.3659 1.16 3.2753 1.8259 5.4025 3.9553 5.3533 5.3589 7.435 12.069 7.1018 22.893-0.12662 4.1147-0.29632 5.5613-0.93786 8.0052-1.8498 7.045-5.6197 12.233-10.891 14.988-0.8645 0.45184-1.5683 0.88861-1.5639 0.97062 4e-3 0.082 1.2967 1.5586 2.872 3.2812 1.5753 1.7226 3.8097 4.1723 4.9654 5.4438l2.1012 2.3118-5.6479-0.0227c-3.9888-0.0151-6.0552-0.14551-7.0346-0.44599zm-7.4493-18.043c5.4982-0.87318 9.0368-4.3198 10.703-10.425 0.77481-2.8388 0.76192-13.031-0.0189-15.809-0.90441-3.2139-2.2145-5.5277-4.1296-7.2934-2.3036-2.1239-4.296-2.8755-8.1542-3.076-7.7622-0.40335-12.4 2.9717-14.455 10.519-0.80167 2.9446-0.82632 12.776-0.0393 15.66 2.1558 7.8989 8.0322 11.705 16.095 10.425zm-72.418-14.668 0.08187-23.647 0.78503-1.6671c1.0072-2.1388 2.9507-3.992 4.9794-4.7479 1.5199-0.56632 2.345-0.59486 17.199-0.59486h15.602l-0.2022 1.2677c-0.48197 3.0234-2.5353 5.8288-5.2361 7.154-1.3272 0.65125-1.7459 0.68152-11.412 0.82522l-10.034 0.14929-0.161 13.274h25.553l-0.1886 1.3694c-0.41681 3.0284-2.4775 5.8158-5.2398 7.0874-1.3153 0.60548-1.912 0.64607-10.753 0.73134l-9.3603 0.09033v13.093h27.034l-0.2022 1.2677c-0.48197 3.0234-2.5352 5.8287-5.236 7.154-1.3726 0.67355-1.438 0.67642-17.335 0.75825l-15.957 0.082z"/>
 </g>
</svg>
