<svg xmlns="http://www.w3.org/2000/svg" width="192" height="192" viewBox="0 0 192 192"><path fill="none" stroke="#000" stroke-linecap="round" stroke-linejoin="round" stroke-width="8" d="M119.78 173.41c.709 1.937-.661-5.083-.661-7.257 0-5.57-5.52-15.988-11.283-21.298-7.404-6.821-13.1-8.974-23.862-9.019-8.175-.034-9.783.313-16.301 3.52-7.072 3.48-7.281 3.516-9.417 1.597-6.232-5.6-14.814-20.982-18.012-32.282-1.756-6.203-1.746-26.82.015-32.977C43.597 64.025 53.734 48.348 61.53 42.8l2.972-2.115-.91 5.802c-1.17 7.455 1.212 19.414 5.06 25.404 1.53 2.384 10.25 11.618 19.376 20.518l16.593 16.183 17.187-17.246c11.923-11.964 17.881-18.766 19.452-22.207 3-6.573 4.435-16.133 3.405-22.698-.459-2.926-.654-5.51-.435-5.745.22-.234 3.443 2.723 7.163 6.572 21.782 22.534 24.38 54.547 7.043 86.815-7.58 14.108-22.9 31.903-34.662 40.265l-3.33 2.367zM93.46 75.846C79.379 61.722 77.037 56.335 80.22 45.391c3.242-11.145 11.866-17.698 23.378-17.765 20.598-.119 32.626 21.203 21.231 37.637-2.35 3.39-17.711 18.774-20.301 20.332-.464.279-5.444-4.108-11.068-9.75z"/></svg>