<?xml version="1.0" encoding="UTF-8"?>
<svg id="SVGRoot" width="192px" height="192px" version="1.1" viewBox="0 0 192 192" xmlns="http://www.w3.org/2000/svg">
 <path d="m119.78 173.41c0.70904 1.9366-0.66127-5.0833-0.66127-7.2571 0-5.5692-5.5198-15.988-11.283-21.298-7.4042-6.8213-13.099-8.9735-23.862-9.0186-8.1749-0.034-9.7824 0.31294-16.301 3.5206-7.0719 3.4796-7.2807 3.515-9.4168 1.5956-6.2315-5.5991-14.814-20.981-18.012-32.281-1.7555-6.2034-1.7464-26.821 0.015118-32.977 3.338-11.669 13.475-27.346 21.271-32.894l2.9724-2.1154-0.9103 5.8017c-1.1696 7.455 1.212 19.414 5.0592 25.404 1.5315 2.3845 10.251 11.618 19.377 20.518l16.593 16.183 17.187-17.246c11.923-11.964 17.881-18.766 19.452-22.207 3.0004-6.5726 4.4345-16.133 3.4048-22.698-0.45884-2.9254-0.65443-5.5104-0.43468-5.7444 0.21959-0.23395 3.443 2.723 7.163 6.5714 21.782 22.534 24.379 54.547 7.0421 86.815-7.5801 14.108-22.899 31.903-34.662 40.265l-3.33 2.3672zm-26.32-97.564c-14.081-14.124-16.423-19.511-13.24-30.455 3.2416-11.145 11.866-17.698 23.378-17.765 20.598-0.11868 32.626 21.203 21.231 37.637-2.3508 3.3904-17.711 18.774-20.301 20.332-0.46363 0.27893-5.4444-4.1084-11.068-9.7496z" fill="none" stroke="#000" stroke-linecap="round" stroke-linejoin="round" stroke-width="8"/>
</svg>
