<?xml version="1.0" encoding="UTF-8"?>
<svg id="SVGRoot" width="192px" height="192px" version="1.1" viewBox="0 0 192 192" xml:space="preserve" xmlns="http://www.w3.org/2000/svg"><g stroke-linecap="round" stroke-linejoin="round"><path class="st5" d="m82.33 91.297" fill="none" stroke="#000" stroke-miterlimit="10"/><path class="a" d="m62.399 73.919h-39.976c-1.3381 0-2.4308 1.0637-2.4228 2.3757l0.24639 40.408c8e-3 1.3121 0.44981 1.9966 0.45171 0.68454l0.0616-42.522c0.0019-1.3121 41.806-0.69476 42.337-0.68454l-3.7628-0.07244c-1.337-0.02574 4.4028-0.18929 3.0647-0.18929z" fill="none" stroke="#00000f" stroke-width="8"/><path class="st5" d="m98.484 88.543c0-8.084-6.6229-14.637-14.793-14.637-8.1698 0-14.793 6.5534-14.793 14.637v14.913c0 8.0839 6.623 14.637 14.793 14.637 8.1698 0 14.793-6.5533 14.793-14.637h-14.793" fill="none" stroke="#000" stroke-miterlimit="10" stroke-width="8"/><g transform="matrix(5.5868 0 0 5.5288 -1255.1 -150.86)" fill="none" stroke="#000" stroke-miterlimit="10" stroke-width="1.4394">
		<line class="st5" x1="243.35" x2="248.65" y1="40.65" y2="40.65"/>
		<line class="st5" x1="246" x2="246" y1="48.65" y2="40.65"/>
	</g><g transform="matrix(5.5868 0 0 5.5288 -1161.3 -150.86)" stroke="#000" stroke-width="1.4394">
		<path class="st5" d="m233.51 47.774c0.49057 0.63866 1.1057 0.87654 1.9615 0.87654h1.1844c1.1022 0 1.9957-0.8935 1.9957-1.9957v-0.0086c0-1.1022-0.89349-1.9957-1.9957-1.9957h-1.3065c-1.1034 0-1.9978-0.89447-1.9978-1.9978v-4e-6c0-1.1058 0.89639-2.0022 2.0022-2.0022h1.1779c0.85579 0 1.4709 0.23788 1.9615 0.87654" fill="none" stroke="#000" stroke-linecap="round" stroke-linejoin="round" stroke-miterlimit="10" stroke-width="1.4394"/>
	</g><path class="a" transform="matrix(-.60831 .7937 -.77158 -.63613 0 0)" d="m60.839-99.561a14.806 14.685 0 0 1-7.403 12.717 14.806 14.685 0 0 1-14.806 0 14.806 14.685 0 0 1-7.403-12.717h14.806z" fill="none" stroke="#00000f" stroke-width="8"/></g></svg>
