<svg xmlns="http://www.w3.org/2000/svg" xml:space="preserve" width="192" height="192" viewBox="0 0 192 192"><g stroke-linecap="round" stroke-linejoin="round"><path fill="none" stroke="#00000f" stroke-width="8" d="M62.399 73.919H22.423c-1.338 0-2.43 1.064-2.423 2.376l.247 40.408c.008 1.312.45 1.996.451.684l.062-42.522c.002-1.312 41.806-.695 42.337-.684l-3.763-.073c-1.337-.025 4.403-.189 3.065-.189z" class="a"/><path fill="none" stroke="#000" stroke-miterlimit="10" stroke-width="8" d="M98.484 88.543c0-8.084-6.623-14.637-14.793-14.637-8.17 0-14.793 6.553-14.793 14.637v14.913c0 8.084 6.623 14.637 14.793 14.637 8.17 0 14.793-6.553 14.793-14.637H83.691" class="st5"/><g fill="none" stroke="#000" stroke-miterlimit="10" stroke-width="1.439"><path d="M243.35 40.65h5.3M246 48.65v-8" class="st5" transform="matrix(5.5868 0 0 5.5288 -1255.1 -150.86)"/></g><path fill="none" stroke="#000" stroke-miterlimit="10" stroke-width="1.439" d="M233.51 47.774c.49.639 1.106.877 1.962.877h1.184a1.996 1.996 0 0 0 1.996-1.996v-.009a1.996 1.996 0 0 0-1.996-1.995h-1.307a1.998 1.998 0 0 1-1.997-1.998v0c0-1.106.896-2.002 2.002-2.002h1.178c.855 0 1.47.237 1.961.876" class="st5" transform="matrix(5.5868 0 0 5.5288 -1161.3 -150.86)"/><path fill="none" stroke="#00000f" stroke-width="8" d="M60.839-99.561a14.806 14.685 0 0 1-7.403 12.717 14.806 14.685 0 0 1-14.806 0 14.806 14.685 0 0 1-7.403-12.717h14.806z" class="a" transform="matrix(-.60831 .7937 -.77158 -.63613 0 0)"/></g></svg>