<?xml version="1.0" encoding="UTF-8"?>
<svg id="SVGRoot" width="192px" height="192px" version="1.1" viewBox="0 0 192 192" xmlns="http://www.w3.org/2000/svg">
 <path d="m148.16 171.65c-1.5348-0.28514-3.3458-0.53315-4.0243-0.55113-0.6786-0.018-1.5132-0.35869-1.8548-0.75712-1.0559-1.2319-1.8985-5.0516-2.3057-10.452-0.21457-2.8459-0.57671-6.8632-0.80476-8.9272-0.22804-2.0641-0.48009-8.5838-0.56008-14.488-0.08-5.9045-0.36023-13.902-0.6227-17.773-0.52509-7.7428-0.24876-16.156 0.59988-18.265 0.59396-1.4761 1.2575-1.934 4.4622-3.0788l2.1867-0.78123 2.0399 1.0734c3.0629 1.6117 4.9506 3.0035 5.7301 4.2251 0.60386 0.94623 0.71196 2.2907 0.78712 9.7898 0.0479 4.7811 0.39916 16.051 0.78051 25.044 1.0599 24.996 1.1217 30.369 0.36747 31.98-1.5185 3.2431-2.6376 3.7319-6.7816 2.962zm-35.273-4.8525c-1.4213-0.79114-3.238-2.0084-4.037-2.7049l-1.4528-1.2665-0.27615-6.1252c-0.15189-3.3689-0.53475-8.7331-0.85079-11.921-0.36553-3.6862-0.48323-7.4524-0.32344-10.349 0.44944-8.1464-1.4872-16.04-5.0615-20.629-2.1689-2.785-3.6598-3.398-7.3855-3.0368-6.4518 0.62561-12.339 5.7228-15.437 13.365-2.0573 5.0755-3.0546 14.547-3.0546 29.01 0 10-0.20285 10.914-2.659 11.98-2.4028 1.0425-5.9724-0.25678-9.6369-3.5076l-2.1587-1.915 0.21734-10.77c0.25157-12.467 1.1435-23.104 2.308-27.528 2.5558-9.7083 8.057-16.808 16.398-21.163 4.8744-2.5449 8.4663-3.4264 14.068-3.4525 4.6371-0.02157 4.8594 0.0188 7.2512 1.3164 6.0265 3.2696 13.167 11.092 16.073 17.608 2.5 5.6055 2.8518 8.0141 3.2178 22.034 0.18423 7.0579 0.51036 14.136 0.72471 15.73 0.45251 3.3642 0.61819 11.303 0.25486 12.212-0.42877 1.0716-2.1058 2.0714-3.8843 2.3158-1.4434 0.19837-2.1175 0.01-4.2963-1.2031zm-70.2-2.3479c-0.34602-0.21016-1.5121-0.69212-2.5912-1.071-1.0791-0.37889-2.0939-0.89981-2.255-1.1576-0.16108-0.25781-0.29563-2.3806-0.29899-4.7173-0.0032-2.3367-0.17094-4.5721-0.3724-4.9674-0.51255-1.0058-1.4498-21.786-1.3206-29.281 0.05884-3.4151 0.29261-8.2583 0.51947-10.763 0.22687-2.5044 0.41766-5.6653 0.42397-7.0242 0.0063-1.3589 0.16605-2.7707 0.35496-3.1372 0.37594-0.72943 4.1126-2.878 5.0052-2.878 0.30614 0 0.87261 0.27296 1.2588 0.60657 0.3862 0.3336 1.4784 1.1834 2.4271 1.8884 2.6204 1.9474 3.0047 3.2951 2.3962 8.405-0.60153 5.0521-0.68078 23.804-0.17114 40.492l0.36219 11.86-1.118 1.076c-1.1673 1.1233-3.3516 1.4394-4.6206 0.66863zm-18.601-57.081c-0.71014-0.42355-1.5907-1.0274-1.9568-1.342-0.80153-0.68878-2.1129-3.5734-2.1251-4.6746-0.0051-0.45987 1.9671-2.8858 4.7115-5.7953 2.5962-2.7524 5.8967-6.5877 7.3345-8.5229 1.4378-1.9352 3.9784-5.0088 5.6459-6.8302 1.6674-1.8214 4.242-4.7664 5.7212-6.5445 1.4793-1.7781 4.6628-5.5774 7.0747-8.4428 7.1595-8.506 9.8365-11.761 12.283-14.935 1.2741-1.653 3.1916-3.9286 4.2611-5.0568s2.9723-3.4059 4.2285-5.0616c5.5598-7.328 15.006-15.794 20.875-18.71 4.1711-2.072 7.1869-1.905 7.1869 0.39776 0 0.56117 0.17939 1.0203 0.39865 1.0203 0.21925 0 0.39865 0.25812 0.39865 0.57361s0.26798 1.1072 0.59551 1.7593c0.75858 1.5103 0.75511 2.4185-0.0139 3.6372-0.60657 0.96128-0.57741 0.99462 2.3088 2.6395 3.8193 2.1766 11.645 7.686 18.8 13.235 3.1491 2.4425 7.4951 5.779 9.6578 7.4145 2.1626 1.6355 5.3672 4.3147 7.1212 5.9537 1.754 1.6391 5.611 5.2366 8.5709 7.9944 10.489 9.7729 16.23 15.779 22.424 23.457 2.2268 2.7608 2.6774 3.8715 2.3452 5.7805-0.31808 1.8278-1.2198 3.1602-2.469 3.6484-1.7864 0.69815-5.6405 0.53995-7.7492-0.31809-1.0963-0.44607-2.7241-1.0046-3.6174-1.2412-1.258-0.33321-1.9306-0.87436-2.9832-2.4001-3.334-4.8325-18.412-20.695-26.305-27.673-0.53889-0.47645-2.2355-2.0408-3.7703-3.4763-1.5348-1.4355-5.1226-4.4379-7.9729-6.672-2.8503-2.2341-6.2588-4.9668-7.5743-6.0727-1.3155-1.1059-3.8272-3.0299-5.5815-4.2754-8.4468-5.9974-10.564-8.098-10.564-10.483 0-1.0725-0.01391-1.0777-1.1963-0.44276-1.9724 1.0591-9.2678 8.4325-11.47 11.593-0.42952 0.61637-4.4751 5.5726-5.9115 7.242-5.6771 6.5985-5.6008 6.5081-11.499 13.625-0.86554 1.0442-2.5698 2.924-3.7871 4.1773-1.2174 1.2533-3.2898 3.669-4.6053 5.3683-1.3155 1.6993-3.9167 4.7901-5.7804 6.8685-1.8637 2.0784-4.5545 5.1517-5.9797 6.8295-5.1769 6.0947-12.063 13.65-13.575 14.893-1.9439 1.5987-3.7444 1.8832-5.4563 0.86212z" fill="none" stroke="#000" stroke-linecap="round" stroke-linejoin="round" stroke-width="8"/>
</svg>
