<svg xmlns="http://www.w3.org/2000/svg" width="192" height="192" viewBox="0 0 192 192"><path fill="none" stroke="#000" stroke-linecap="round" stroke-linejoin="round" stroke-width="8" d="M148.16 171.65c-1.535-.285-3.346-.533-4.024-.551-.679-.018-1.514-.359-1.855-.757-1.056-1.232-1.899-5.052-2.306-10.452-.214-2.846-.577-6.863-.805-8.927-.228-2.065-.48-8.584-.56-14.488-.08-5.905-.36-13.902-.622-17.773-.525-7.743-.25-16.156.6-18.265.593-1.477 1.257-1.934 4.462-3.08l2.186-.78 2.04 1.073c3.063 1.612 4.95 3.003 5.73 4.225.604.946.712 2.29.788 9.79.047 4.78.399 16.05.78 25.044 1.06 24.996 1.122 30.369.368 31.98-1.519 3.243-2.638 3.732-6.782 2.962zm-35.273-4.853c-1.421-.79-3.238-2.008-4.037-2.704l-1.453-1.267-.276-6.125c-.152-3.369-.535-8.733-.85-11.921-.366-3.686-.484-7.453-.324-10.35.45-8.145-1.487-16.04-5.062-20.628-2.169-2.785-3.66-3.398-7.385-3.037-6.452.626-12.34 5.723-15.437 13.365-2.057 5.076-3.055 14.547-3.055 29.01 0 10-.203 10.914-2.659 11.98-2.403 1.043-5.972-.257-9.637-3.508l-2.158-1.915.217-10.77c.252-12.467 1.143-23.104 2.308-27.528 2.556-9.708 8.057-16.808 16.398-21.163 4.874-2.544 8.466-3.426 14.068-3.452 4.637-.022 4.86.019 7.251 1.316 6.027 3.27 13.167 11.092 16.073 17.608 2.5 5.606 2.852 8.014 3.218 22.034.184 7.058.51 14.136.725 15.73.452 3.365.618 11.303.255 12.212-.43 1.072-2.106 2.072-3.885 2.316-1.443.199-2.117.01-4.296-1.203zm-70.2-2.347c-.346-.21-1.512-.693-2.591-1.071-1.08-.38-2.094-.9-2.255-1.158-.161-.258-.296-2.38-.3-4.717-.002-2.337-.17-4.572-.372-4.968-.512-1.005-1.45-21.786-1.32-29.28.059-3.416.292-8.259.52-10.764.226-2.504.417-5.665.423-7.024.007-1.359.166-2.77.355-3.137.376-.73 4.113-2.878 5.005-2.878.307 0 .873.273 1.26.606.385.334 1.478 1.184 2.426 1.889 2.62 1.947 3.005 3.295 2.397 8.405-.602 5.052-.681 23.804-.172 40.492l.363 11.86-1.118 1.076c-1.168 1.123-3.352 1.44-4.621.668zm-18.601-57.081c-.71-.424-1.59-1.028-1.957-1.342-.801-.69-2.113-3.574-2.125-4.675-.005-.46 1.967-2.886 4.712-5.795 2.596-2.753 5.896-6.588 7.334-8.523 1.438-1.935 3.979-5.009 5.646-6.83a222.5 222.5 0 0 0 5.721-6.545 2432.06 2432.06 0 0 1 7.075-8.443c7.16-8.506 9.836-11.76 12.283-14.935 1.274-1.653 3.191-3.928 4.261-5.056s2.972-3.406 4.229-5.062c5.56-7.328 15.005-15.794 20.874-18.71 4.172-2.072 7.187-1.905 7.187.398 0 .56.18 1.02.399 1.02.22 0 .399.258.399.574s.268 1.107.595 1.759c.759 1.51.755 2.418-.014 3.637-.606.961-.577.995 2.31 2.64 3.818 2.176 11.644 7.686 18.8 13.235 3.148 2.442 7.494 5.779 9.657 7.414 2.163 1.636 5.367 4.315 7.121 5.954 1.754 1.639 5.611 5.236 8.571 7.994 10.489 9.773 16.23 15.78 22.424 23.457 2.227 2.761 2.677 3.872 2.345 5.78-.318 1.828-1.22 3.16-2.469 3.65-1.786.697-5.64.539-7.749-.319-1.096-.446-2.724-1.005-3.617-1.241-1.258-.333-1.931-.875-2.984-2.4-3.334-4.833-18.412-20.695-26.305-27.673-.538-.477-2.235-2.041-3.77-3.477-1.535-1.435-5.122-4.438-7.973-6.672-2.85-2.234-6.259-4.966-7.574-6.072-1.316-1.106-3.827-3.03-5.582-4.276-8.446-5.997-10.564-8.098-10.564-10.483 0-1.072-.014-1.077-1.196-.442-1.972 1.059-9.268 8.432-11.47 11.593-.43.616-4.475 5.572-5.911 7.242-5.677 6.598-5.601 6.508-11.5 13.625-.865 1.044-2.57 2.924-3.786 4.177-1.218 1.253-3.29 3.669-4.606 5.368-1.315 1.7-3.916 4.79-5.78 6.869a415.067 415.067 0 0 0-5.98 6.83c-5.177 6.094-12.063 13.65-13.575 14.892-1.944 1.599-3.744 1.883-5.456.862z"/></svg>