<?xml version="1.0" encoding="UTF-8"?>
<svg id="SVGRoot" width="192px" height="192px" version="1.1" viewBox="0 0 192 192" xmlns="http://www.w3.org/2000/svg">
 <g fill="none" stroke="#000" stroke-linecap="round" stroke-linejoin="round">
  <polyline class="b" transform="matrix(3.8974 0 0 4.4685 2.4615 -11.244)" points="27.805 20.956 27.805 17.532 42.929 17.532 42.929 20.956" stroke-width="1.917"/>
  <line class="b" x1="140.12" x2="140.12" y1="67.096" y2="55.62" stroke-width="8"/>
  <line class="b" x1="108.6" x2="172" y1="107.9" y2="107.9" stroke-width="8"/>
  <line class="b" x1="40.02" x2="89.327" y1="63.696" y2="63.696" stroke-width="8"/>
  <line class="b" x1="54.849" x2="54.849" y1="71.347" y2="55.62" stroke-width="8"/>
  <line class="b" x1="74.497" x2="74.497" y1="71.347" y2="55.62" stroke-width="8"/>
  <rect class="b" x="45.951" y="79.848" width="37.073" height="13.177" stroke-width="8"/>
  <path class="b" d="m21.112 132.98c2.5953-4.2504 5.9319-10.201 8.1562-17.427 1.483-4.2504 2.2243-8.0759 2.9659-11.476" stroke-width="8"/>
  <path class="b" d="m20 78.573c1.8536 0.8499 3.7072 2.5502 5.9319 4.2504 2.5953 2.1252 4.4489 4.2504 5.9319 5.9507" stroke-width="8"/>
  <path class="b" d="m24.82 59.446c1.8536 0.84991 3.7072 2.5502 5.9319 4.2504 2.5953 2.1252 4.4489 4.2504 5.9319 5.9507" stroke-width="8"/>
  <line class="b" x1="43.727" x2="85.62" y1="104.93" y2="104.93" stroke-width="8"/>
  <line class="b" x1="90.81" x2="38.537" y1="118.1" y2="118.1" stroke-width="8"/>
  <path class="b" d="m64.859 80.698c0.37065 7.6509 0 13.602 0 18.277-0.37065 11.901-1.483 14.877-2.2243 16.577-2.5953 6.801-7.0438 10.626-9.2681 12.326-6.6732 5.5257-13.346 6.8006-17.054 7.226" stroke-width="8"/>
  <path class="b" d="m90.439 136.38c-2.9659-0.8499-7.7855-2.1252-12.605-5.9507-5.5609-3.8255-8.8975-8.5008-11.122-11.476" stroke-width="8"/>
  <path class="b" d="m120.84 84.099h38.556c-2.2243 2.9756-5.1902 6.3756-8.8974 9.3512-3.7072 3.4005-7.4145 5.9507-10.38 7.6509v29.328c0 0.42495 0 2.1252-1.1123 3.4005-1.483 2.1252-4.0779 2.1252-4.4489 2.1252h-8.1562" stroke-width="8"/>
 </g>
</svg>
