<svg xmlns="http://www.w3.org/2000/svg" width="192" height="192" viewBox="0 0 192 192"><g fill="none" stroke="#000" stroke-linecap="round" stroke-linejoin="round"><path stroke-width="1.917" d="M27.805 20.956v-3.424h15.124v3.424" class="b" transform="matrix(3.8974 0 0 4.4685 2.462 -11.244)"/><path stroke-width="8" d="M140.12 67.096V55.62M108.6 107.9H172M40.02 63.696h49.307M54.849 71.347V55.62M74.497 71.347V55.62M45.951 79.848h37.073v13.177H45.951zM21.112 132.98c2.595-4.25 5.932-10.201 8.156-17.427 1.483-4.25 2.224-8.076 2.966-11.476M20 78.573c1.854.85 3.707 2.55 5.932 4.25 2.595 2.126 4.449 4.25 5.932 5.951M24.82 59.446c1.854.85 3.707 2.55 5.932 4.25 2.595 2.126 4.449 4.25 5.932 5.951M43.727 104.93H85.62M90.81 118.1H38.537" class="b"/><path stroke-width="8" d="M64.859 80.698c.37 7.65 0 13.602 0 18.277-.37 11.901-1.483 14.877-2.224 16.577-2.596 6.801-7.044 10.626-9.268 12.326-6.674 5.526-13.346 6.8-17.054 7.226M90.439 136.38c-2.966-.85-7.785-2.125-12.605-5.95-5.56-3.826-8.898-8.502-11.122-11.477M120.84 84.099h38.556c-2.224 2.976-5.19 6.376-8.897 9.351-3.708 3.4-7.415 5.95-10.38 7.651v29.328c0 .425 0 2.125-1.113 3.4-1.483 2.126-4.078 2.126-4.449 2.126h-8.156" class="b"/></g></svg>