<?xml version="1.0" encoding="UTF-8"?>
<svg width="192" height="192" version="1.1" viewBox="0 0 192 192" xml:space="preserve" xmlns="http://www.w3.org/2000/svg"><path d="m156.62 72.161c7.4769 0 13.678 2.2355 18.332 6.4917l-5.5754 7.2503c-3.7997-3.4909-8.885-5.1021-13.468-5.1021-4.5113 0-6.9079 1.9552-6.9079 4.7463 0 3.1418 3.9474 4.1186 9.3767 5.3739 7.7555 1.7454 17.626 4.0514 17.626 14.383 0 8.5141-6.1325 14.937-18.826 14.937-9.0226 0-15.509-3.0025-19.952-7.398l5.4998-7.5339c3.934 4.0447 9.3297 6.3104 14.954 6.2836 5.4982 0 8.1767-2.5846 8.1767-5.2363 0-3.4909-4.0884-4.6774-9.516-5.9328-7.6783-1.7454-17.555-3.8417-17.555-14.234 0-7.7488 6.7669-14.031 17.835-14.031zm-70.2 2.0442c3.1636-3.2626 7.6027-2.2993 7.6027-2.2993v26.947c0 11.671-9.5999 21.172-21.39 21.172-6.6763 0-12.839-2.9908-16.907-8.2103-0.1007-0.11748-0.0806-0.29202 0.0185-0.41118 0.0604-0.0587 0.15776-0.0973 0.23664-0.0973 0.0604 0 0.11748 0.0185 0.1779 0.0587 2.8246 1.779 6.1443 2.7759 9.5798 2.8733h0.5723c5.0584-0.0201 9.8584-1.9334 13.195-5.2967 2.8464-2.875 4.3854-6.589 4.3066-10.422v-16.28c0.0101-2.6635 0.16615-5.5166 2.6081-8.0357zm31.69-2.447c3.318 0 6.0637 0.82069 7.8998 2.3849 1.6615 1.388 2.5678 3.3633 2.5678 5.5334 0 2.2288-0.43468 3.8316-1.3426 5.0433-0.0587 0.07888-0.15776 0.13762-0.25678 0.13762l-0.0201-0.02014c-0.11748 0-0.2165-0.07888-0.25678-0.17622-0.86937-1.7203-2.6266-2.7759-4.5633-2.7759h-12.5v10.166h9.9927c0.43636 0 0.86936-0.05874 1.3057-0.15776 5.7063-0.91636 9.9725-5.7264 9.9725-11.181 0-1.6229-0.37426-3.1871-1.1043-4.6724-0.0604-0.13426-0.0201-0.31217 0.099-0.39105 0.0587-0.04028 0.11748-0.05874 0.19636-0.05874 0.0806 0 0.15777 0.01846 0.21819 0.07888 3.2391 2.8917 5.1155 7.0388 5.1155 11.339 0 8.4067-6.9146 15.249-15.407 15.249h-10.389v17.307h-10.194v-47.805zm-71.353 0.05874v5.3353c0 1.2319-0.46657 2.4621-1.3997 3.4019-0.93482 0.93985-2.1583 1.4098-3.3818 1.4098h-15.759v10.166h17.657v4.9309c0 1.3393-0.50852 2.6786-1.5239 3.7007-1.0154 1.0238-2.3463 1.534-3.6789 1.534h-12.456v16.951h-10.191l-0.0201-47.429zm5.6391 0.11245s4.1303-0.98349 7.4349 2.1365c2.2741 2.1482 2.7591 5.0198 2.7591 7.5272v20.828c0 3.8903 2.1516 7.5272 5.629 9.4606 0.11748 0.0789 0.19636 0.2165 0.15608 0.35244-0.0386 0.13762-0.15608 0.23497-0.29538 0.25511-0.45314 0.0386-0.88951 0.0587-1.3242 0.0587-8.0559 0-14.378-5.4545-14.378-12.394z" stroke-width="1.6783"/></svg>
