<svg xmlns="http://www.w3.org/2000/svg" width="192" height="192" viewBox="0 0 192 192"><g fill="none" stroke="#000" stroke-linecap="round" stroke-linejoin="round" stroke-width="8"><path d="M34.428 73.206c0-15.78 17.731-18.32 19.72-18.546l-1.57-14.032C41.31 41.842 20 50.218 20 73.206v78.166h14.428v-36.587h22.88v-14.104h-22.88ZM144.797 72.685c-8.24 0-15.568 3.85-20.558 9.808-5.312-6.576-12.975-9.808-20.381-9.808-15.006 0-27.203 12.483-27.203 27.83v49.4h13.447v-49.4c0-17.572 27.497-22.389 27.497 3.152v46.248h13.446V100.514c0-17.57 27.508-22.36 27.508 3.153v46.041H172v-46.041c0-21.281-14.107-30.982-27.203-30.982Z"/></g></svg>