<?xml version="1.0" encoding="UTF-8" standalone="no"?>
<!-- Created with Inkscape (http://www.inkscape.org/) -->

<svg
   width="192px"
   height="192px"
   viewBox="0 0 192 192"
   version="1.1"
   id="SVGRoot"
   sodipodi:docname="futureme.svg"
   inkscape:version="1.2.2 (732a01da63, 2022-12-09)"
   xmlns:inkscape="http://www.inkscape.org/namespaces/inkscape"
   xmlns:sodipodi="http://sodipodi.sourceforge.net/DTD/sodipodi-0.dtd"
   xmlns="http://www.w3.org/2000/svg"
   xmlns:svg="http://www.w3.org/2000/svg">
  <sodipodi:namedview
     id="namedview1330"
     pagecolor="#ffffff"
     bordercolor="#666666"
     borderopacity="1.0"
     inkscape:showpageshadow="2"
     inkscape:pageopacity="0.0"
     inkscape:pagecheckerboard="0"
     inkscape:deskcolor="#d1d1d1"
     inkscape:document-units="px"
     showgrid="false"
     inkscape:current-layer="layer1"
     inkscape:zoom="0.25"
     inkscape:cx="362.5"
     inkscape:cy="362.5" />
  <defs
     id="defs1325" />
  <g
     inkscape:label="Ebene 1"
     inkscape:groupmode="layer"
     id="layer1">
    <path
       id="path"
       d="m 34.428011,73.20623 c 0,-15.779674 17.731132,-18.319389 19.720552,-18.546292 L 52.578167,40.62781 c -11.268347,1.214127 -32.57817,9.589616 -32.57817,32.57842 v 78.16592 H 34.428011 V 114.78512 H 57.30823 V 100.68134 H 34.428011 Z"
       fill="none"
       stroke="#000000"
       stroke-width="8.00002"
       stroke-linecap="round"
       stroke-linejoin="round"
       fill-rule="evenodd" />
    <path
       id="path_1"
       d="m 144.79741,72.684754 c -8.2408,0 -15.56806,3.849386 -20.5586,9.808556 -5.31141,-6.57619 -12.97464,-9.808556 -20.38117,-9.808556 -15.005588,0 -27.202578,12.483616 -27.202578,27.829396 v 49.40105 h 13.446511 v -49.40105 c 0,-17.57101 27.497027,-22.38772 27.497027,3.15275 v 46.0413 0.207 h 13.44652 v -0.207 -46.0413 -3.15275 c 0,-17.57101 27.50836,-22.35985 27.50836,3.15275 v 46.0413 H 172 V 103.6669 C 172,82.38583 157.89286,72.684754 144.79741,72.684754 Z"
       fill="none"
       stroke="#000000"
       stroke-width="8.00002"
       stroke-linecap="round"
       stroke-linejoin="round"
       fill-rule="evenodd" />
  </g>
</svg>
