<?xml version="1.0" encoding="UTF-8"?>
<svg id="SVGRoot" width="192px" height="192px" version="1.1" viewBox="0 0 192 192" xmlns="http://www.w3.org/2000/svg">
 <path d="m37.884 163.57c-2.7178-1.6602-2.6552-1.0597-2.6552-25.502v-22.149l-1.1593-0.28586c-3.0894-0.76176-8.2951-4.9949-10.6-8.6194-4.1139-6.47-4.1359-15.631-0.0527-22.005 1.8344-2.864 5.8107-6.4619 8.6055-7.7865 1.271-0.60242 2.5124-1.0953 2.7586-1.0953 0.31018 0 0.44816-6.8427 0.44925-22.279 2e-3 -21.352 0.0358-22.335 0.82449-23.631 2.1553-3.5414 7.5748-3.5414 9.7301 0 0.78841 1.2954 0.82298 2.2778 0.82449 23.433 2e-3 20.654 0.0492 22.097 0.73931 22.324 4.1726 1.3769 9.0333 5.1773 11.418 8.9278 4.1391 6.5086 4.1711 15.652 0.0772 22.044-2.471 3.858-6.6423 7.1913-11.074 8.8494l-1.1593 0.43377-2e-3 22.078c-2e-3 21.153-0.0361 22.135-0.82449 23.43-1.5821 2.5996-5.2519 3.4508-7.9009 1.8326zm55.22 0.13938c-0.83714-0.41352-1.6822-1.3478-2.2132-2.4466-0.79817-1.6519-0.85895-2.5719-0.85895-13.002v-11.224l-1.1593-0.28586c-3.0894-0.76177-8.2951-4.9949-10.6-8.6194-4.1139-6.47-4.1359-15.631-0.0527-22.005 1.8344-2.864 5.8107-6.4619 8.6055-7.7865 1.271-0.60242 2.5124-1.0953 2.7587-1.0953 0.31196 0 0.44767-9.8183 0.44767-32.388 0-31.758 0.0167-32.422 0.86176-34.171 2.0259-4.1927 8.0544-4.1927 10.08 0 0.84497 1.7487 0.86176 2.4136 0.86176 34.125v32.342l1.1593 0.28586c3.0894 0.76177 8.2951 4.9949 10.6 8.6194 4.1139 6.47 4.1359 15.631 0.0527 22.005-1.8344 2.864-5.8107 6.4619-8.6055 7.7865-1.271 0.60241-2.5124 1.0953-2.7586 1.0953-0.30466 0-0.44767 3.6001-0.44767 11.27 0 10.488-0.0598 11.394-0.86177 13.054-1.3923 2.8814-4.8236 3.9456-7.8699 2.4408zm54.803 0c-0.83714-0.41352-1.6822-1.3478-2.2132-2.4466-0.84059-1.7397-0.85947-2.4678-0.88268-34.06l-0.0237-32.282-3.0326-1.4432c-6.9205-3.2933-11.675-10.875-11.675-18.618 0-7.8024 4.7446-15.363 11.69-18.629l3.048-1.433 8e-3 -11.164c8e-3 -10.372 0.0695-11.291 0.87011-12.948 2.0259-4.1927 8.0544-4.1927 10.08 0 0.80061 1.6563 0.86206 2.5674 0.86206 12.778v10.995l3.2671 1.6107c12.431 6.1285 15.757 22.075 6.7733 32.479-2.0151 2.3339-6.002 5.0831-8.4272 5.8111l-1.6132 0.48424v32.321c0 31.69-0.0169 32.355-0.86176 34.104-1.3923 2.8814-4.8236 3.9456-7.8699 2.4408z" fill="none" stroke="#000" stroke-linecap="round" stroke-linejoin="round" stroke-width="8"/>
</svg>
