<svg xmlns="http://www.w3.org/2000/svg" width="192" height="192" viewBox="0 0 192 192"><path fill="none" stroke="#000" stroke-linecap="round" stroke-linejoin="round" stroke-width="8" d="M37.884 163.57c-2.718-1.66-2.655-1.06-2.655-25.502v-22.149l-1.16-.286c-3.089-.762-8.295-4.995-10.6-8.62-4.113-6.47-4.135-15.63-.052-22.004 1.834-2.864 5.81-6.462 8.605-7.787 1.271-.602 2.513-1.095 2.759-1.095.31 0 .448-6.843.45-22.28.001-21.351.035-22.334.824-23.63 2.155-3.541 7.574-3.541 9.73 0 .788 1.295.823 2.278.824 23.433.002 20.654.05 22.097.74 22.324 4.172 1.377 9.033 5.177 11.418 8.928 4.139 6.508 4.17 15.652.077 22.044-2.471 3.858-6.643 7.191-11.074 8.85l-1.16.433-.002 22.078c-.002 21.153-.036 22.135-.824 23.43-1.582 2.6-5.252 3.45-7.901 1.833zm55.22.14c-.837-.414-1.682-1.348-2.213-2.447-.798-1.652-.86-2.572-.86-13.002v-11.224l-1.158-.286c-3.09-.762-8.296-4.995-10.6-8.62-4.114-6.47-4.136-15.63-.053-22.004 1.834-2.864 5.81-6.462 8.605-7.787 1.271-.602 2.513-1.095 2.76-1.095.311 0 .447-9.819.447-32.388 0-31.758.016-32.422.861-34.171 2.026-4.193 8.055-4.193 10.08 0 .845 1.748.862 2.413.862 34.125v32.342l1.16.286c3.089.761 8.295 4.994 10.6 8.619 4.113 6.47 4.135 15.631.052 22.005-1.834 2.864-5.81 6.462-8.605 7.786-1.271.603-2.513 1.096-2.759 1.096-.305 0-.448 3.6-.448 11.27 0 10.488-.06 11.394-.861 13.054-1.393 2.881-4.824 3.945-7.87 2.44zm54.803 0c-.837-.414-1.682-1.348-2.213-2.447-.84-1.74-.86-2.468-.883-34.06l-.024-32.282-3.032-1.443c-6.92-3.294-11.675-10.875-11.675-18.618 0-7.803 4.744-15.363 11.69-18.63l3.048-1.432.008-11.164c.008-10.372.07-11.291.87-12.948 2.026-4.193 8.054-4.193 10.08 0 .8 1.656.862 2.567.862 12.778v10.995l3.267 1.61c12.431 6.129 15.757 22.075 6.773 32.48-2.015 2.333-6.002 5.082-8.427 5.81l-1.613.485v32.32c0 31.69-.017 32.356-.862 34.105-1.392 2.881-4.823 3.945-7.87 2.44z"/></svg>