<svg xmlns="http://www.w3.org/2000/svg" width="192" height="192" viewBox="0 0 192 192"><g fill="none" stroke="#000" stroke-linecap="round" stroke-linejoin="round" stroke-width="12"><path d="M162 170H30a8 8 0 0 1-8-8V30a8 8 0 0 1 8-8h132a8 8 0 0 1 8 8v132a8 8 0 0 1-8 8zM100.84 68.12v55.76" class="a"/><path d="M83.28 86.8A18.64 18.64 0 0 0 63.64 68 19.36 19.36 0 0 0 46 88v17.2A18.68 18.68 0 0 0 64.64 124a18.64 18.64 0 0 0 18.64-18.68H64.64M118.12 68.12H146M118.12 96h18.12M118.12 68.12v55.76" class="a"/></g></svg>