<?xml version="1.0" encoding="UTF-8"?>
<svg width="192" height="192" fill="none" version="1.1" viewBox="0 0 192 192" xmlns="http://www.w3.org/2000/svg">
 <g transform="matrix(.025279 0 0 -.025279 15.73 172.41)" fill="#000">
  <path d="m3266 1419h892l769 4621h-902z"/>
  <path d="m5455 5415-132-785c297.38-69.706 632.28-66.426 887 26l130 759z"/>
  <path d="m1985 4854c-387-28-710-131-980-312-535.77-371.95-597.94-992.93-660-1366-158.64-802.6-197.71-1579.9 780-1751 237.5-33.747 468.05 10.503 691 32 0 0-68-422-85-467-80-209-243-310-502-310-175.72 5.7678-308.15 56.972-408 200l-809-214c56.923-223.96 275.42-406.02 449-490 399.6-149.53 789.94-158.95 1163-85 412 83 715 300 881 629 52 104 100 231 130 347 19 73 585 3433 585 3473-362.07 252.84-800.64 339.38-1235 314zm271-783-265-1524c-57.353-306.47-238-377-474-377-278.75-1.254-381.58 166.46-375 399 3 78 131 891 179 1137 84.523 402.42 745.18 536.13 935 365z"/>
  <path d="m5263 4246-470-2827h886s338.13 1886.3 469 2831c-320.65-88.88-628.97-79.738-885-4z"/>
  <path d="m5090 750c-75-453-76-471-37-563 85.492-125.8 187.25-163.67 315-179l132 244s-151.55 5.4711-190 71c-13 23-11 46 20 238l35 213c83.568 46.2 249.69 213.78 255 264h-210l32 192h-270z"/>
  <path d="m3520 1049c-102.33-16.104-202.11-38.462-297-78l-153-951h265l128.08 778.06s96.918 11.94 127.92 11.94c47 0 60-4 83-26 37-38 35-85-24-442l-50-322h267l57 343c78 471 76 542-16 621-70 60-223 86-388 65z"/>
  <path d="m4494 1051c-82-13-151-40-203-79-114-86-150-164-192-408-46-269-44-384 54-476 66-62 161-83 282-82 232.57-10.087 347.69 80.659 404 224l-194 60s-77.729-137.3-212.95-104.08c0 0-83.794 10.226-114.4 95.679-23.123 64.555-3.034 168.4-3.034 168.4h553.39c22.728 148.22 60.426 346.05 4 462-29 58-94 109-160 128-54 15-159 20-218 11zm139.55-224.68c29.585-18.574 51.898-70.672 45.452-144.32l-9-57h-333c19.847 84.527 40.648 168.35 91.426 197.96 90.418 45.479 166.79 27.427 205.12 3.3646z"/>
 </g>
</svg>
