<?xml version="1.0" encoding="UTF-8"?>
<svg width="192" height="192" version="1.1" viewBox="0 0 192 192" xml:space="preserve" xmlns="http://www.w3.org/2000/svg"><defs><clipPath id="clip-path"><rect width="374.9" height="351" fill="none" data-name="Rectangle 428"/></clipPath></defs><g transform="matrix(.96644 0 0 .96644 -45.437 -17.77)" data-name="组 17369"><g transform="translate(-41.151,-23.977)" opacity=".2" data-name="组 17367"/><g transform="translate(63.57,38.931)" data-name="Group 2029"><g data-name="组 17368"><path transform="translate(-194.93 -297.47)" d="m249.61 328.32a57.94 57.94 0 0 0-17.588 2.76 43.747 43.747 0 0 0-13.194 6.961 35.426 35.426 0 0 0-8.787 10.061 35.886 35.886 0 0 0-4.368 12.194l-4 24.059a40.194 40.194 0 0 0-0.143 13.531 23.407 23.407 0 0 0 4.617 10.763 24.064 24.064 0 0 0 9.615 7.132 37.788 37.788 0 0 0 14.979 2.622 44.5 44.5 0 0 0 11.49-1.43l-1.469 8.863a13.846 13.846 0 0 1-4.356 8.783 15.852 15.852 0 0 1-10.23 2.781 12.179 12.179 0 0 1-7.646-2.545 6.426 6.426 0 0 1-2.06-2.853c-6.374 1.4-14.02 3.29-21.536 5.689 0.078 0.251 0.065 0.537 0.158 0.788a19.757 19.757 0 0 0 5.8 8.392 27.116 27.116 0 0 0 10.074 5.31 46.576 46.576 0 0 0 13.535 1.821 55.468 55.468 0 0 0 16.973-2.294 32.747 32.747 0 0 0 11.856-6.489 29.643 29.643 0 0 0 7.463-10.038 50.371 50.371 0 0 0 3.856-12.823l14.271-85.8a31.385 31.385 0 0 0-13.325-6.412 70.739 70.739 0 0 0-15.985-1.826zm-2.126 57.154a20.326 20.326 0 0 1-4.433 9.742 11.756 11.756 0 0 1-8.985 3.237c-4.381 0-7.187-1.207-8.395-3.644a17.31 17.31 0 0 1-0.683-10.437l3.974-23.916a14.664 14.664 0 0 1 5.731-10.515 18.025 18.025 0 0 1 10.108-2.939 35.154 35.154 0 0 1 8.854 1.272z" data-name="Path 315"/><path transform="translate(-435.03 -210.11)" d="m539.89 210.11-20.028 120.47h23.618l20.028-120.47z" data-name="Path 316"/><path transform="translate(-587.63 -254.7)" d="m735.86 293.21a36.426 36.426 0 0 0 14.058-3.069l0.04-0.025 0.341-2.008h-0.04l1.835-11.042 1.1-6.62h-23.304l-1.1 6.62-2.4 14.422 0.04 0.013a29.138 29.138 0 0 0 9.43 1.709z" data-name="Path 317"/><path transform="translate(-548.32 -341.84)" d="m696.49 462.31 12.3-73.947-0.053 0.013a43.86 43.86 0 0 1-12.2 1.809 38.737 38.737 0 0 1-11.1-1.626l-2.1 12.6-10.156 61.138z" data-name="Path 318"/><path transform="translate(-420.83 -578.4)" d="m521.09 709.35a13.236 13.236 0 0 0-5.344-0.866h-0.239c-0.281 0-0.818 0.023-1.6 0.07s-1.682 0.156-2.7 0.314-2.091 0.381-3.216 0.67a15.2 15.2 0 0 0-3.178 1.195c-0.063 0.384-0.151 0.856-0.251 1.413s-0.206 1.094-0.288 1.606l-0.306 1.817-3.326 20.025h7.055l3.326-20.023a7.083 7.083 0 0 1 2.187-0.623q1.013-0.094 1.341-0.1a3.18 3.18 0 0 1 1.556 0.336 2.191 2.191 0 0 1 0.909 0.934 3.383 3.383 0 0 1 0.336 1.393 8.284 8.284 0 0 1-0.118 1.7l-2.724 16.382h7.1l2.724-16.384a24.6 24.6 0 0 0 0.356-4.141 6.7 6.7 0 0 0-0.853-3.4 5.8 5.8 0 0 0-2.747-2.318z" data-name="Path 319"/><path transform="translate(-495.28 -578.45)" d="m614.46 729.16a3.737 3.737 0 0 1-0.715 0.861 3.91 3.91 0 0 1-1.107 0.7 4.207 4.207 0 0 1-1.659 0.286 2.763 2.763 0 0 1-2.064-0.67 3.156 3.156 0 0 1-0.834-1.674 6.992 6.992 0 0 1-0.04-2.181c0.1-0.78 0.2-1.506 0.314-2.178h13.87l0.753-4.5a19.6 19.6 0 0 0 0.251-4.266 8.576 8.576 0 0 0-0.374-2.083 6.934 6.934 0 0 0-0.64-1.506 6.369 6.369 0 0 0-2.242-2.143c-0.163-0.1-0.289-0.231-0.469-0.326a10.5 10.5 0 0 0-4.795-0.934 14.574 14.574 0 0 0-4.77 0.718 10.564 10.564 0 0 0-3.585 2.03 10.7 10.7 0 0 0-2.438 3.137 13.614 13.614 0 0 0-1.31 4.015l-0.969 5.844a16.213 16.213 0 0 0-0.158 4.359 9.116 9.116 0 0 0 1.18 3.737 7.15 7.15 0 0 0 2.8 2.638 9.711 9.711 0 0 0 4.682 1 16.507 16.507 0 0 0 4.4-0.524 9.778 9.778 0 0 0 3.233-1.531 9.008 9.008 0 0 0 2.259-2.444 13.145 13.145 0 0 0 0.608-1.358 52.781 52.781 0 0 0-5.774-1.757c-0.121 0.246-0.256 0.484-0.407 0.75zm-5.131-10.708a7.276 7.276 0 0 1 1.484-3.666 3.88 3.88 0 0 1 3.068-1.222 3.265 3.265 0 0 1 2.084 0.552 2.606 2.606 0 0 1 0.881 1.393 5.363 5.363 0 0 1 0.128 1.822c-0.063 0.655-0.143 1.282-0.251 1.89l-0.1 0.575h-7.523z" data-name="Path 320"/><path transform="translate(-565.63 -565.47)" d="m709.01 716.35a4.026 4.026 0 0 1-1.255 0.146 8.837 8.837 0 0 1-1.331-0.123 3.592 3.592 0 0 1-1.386-0.5 2.8 2.8 0 0 1-1-1.074 2.944 2.944 0 0 1-0.183-1.892l1.68-10.108-0.219 0.04a12.851 12.851 0 0 0 7.029-6.507h-5.729l0.893-5.36h-7.1l-2.041 12.259-1.607 9.672a10.205 10.205 0 0 0 0.04 3.764 7.027 7.027 0 0 0 1.529 3.185 8.131 8.131 0 0 0 3.178 2.228 12.383 12.383 0 0 0 4.1 0.773 66.51 66.51 0 0 0 3.334-6.063z" data-name="Path 321"/></g></g></g></svg>
