<?xml version="1.0" encoding="UTF-8"?>
<svg id="vector" version="1.1" viewBox="0 0 192 192" xmlns="http://www.w3.org/2000/svg">
 <path d="m55.635 163.96c0-4.4519 1.1918-7.9024 3.571-10.339 2.9932-3.0653 5.5738-3.6418 16.301-3.6418h8.9887v-18.142l-3.0731-0.87864c-4.1378-1.183-10.084-3.95-13.864-6.451-4.2035-2.7813-10.476-8.8144-13.346-12.835-1.793-2.5126-2.7696-3.3918-4.0754-3.6688-0.9445-0.20038-3.5558-1.067-5.8029-1.9258-12.442-4.7553-22.726-16.073-26.724-29.411-1.0621-3.5434-1.1949-5.3819-1.3926-19.282l-0.21849-15.366h28.412v-17.103h102.62v17.103h28.973l-0.24508 14.564c-0.28162 16.736-0.7798 19.573-4.9041 27.925-5.7718 11.689-16.192 20.042-28.995 23.245-1.8691 0.46757-2.6178 1.0995-4.6098 3.891-2.8873 4.0462-9.1519 10.075-13.366 12.864-3.7797 2.501-9.7264 5.2679-13.864 6.451l-3.0731 0.87864v18.142h8.9887c10.727 0 13.308 0.57655 16.301 3.6418 2.3792 2.4365 3.571 5.8871 3.571 10.339v3.1218h-80.168zm40.089-71.264 18.498 11.682-5.132-20.956 15.987-14.199-20.393-1.3018-8.9642-20.018-9.3423 19.998-20.019 1.3212c5.7427 5.106 12.371 10.759 16 14.093l-5.521 21.439zm56.14-5.8665c7.6403-7.4332 9.7463-17.439 9.7499-26.639l-0.0217-4.2756h-14.463l0.11875 34.523c0.92587-0.60963 3.1834-2.24 4.6159-3.6088zm-107.55-30.915h-14.329l0.01871 4.9437c0.04676 12.383 3.8179 21.27 11.627 27.399 1.6513 1.2961 3.0211 2.3054 3.0439 2.243z" stroke-width=".53446"/>
</svg>
