<?xml version="1.0" encoding="UTF-8"?>
<svg id="vector" width="192" height="192" version="1.1" viewBox="0 0 288 288" xmlns="http://www.w3.org/2000/svg">
 <g stroke-width="8.8889">
  <path d="m197.33 24h-26.667v26.667h26.667c22 0 40 18 40 40v26.667h26.667v-26.667c0-36.8-29.867-66.667-66.667-66.667z"/>
  <path d="m50.667 197.33v-26.667h-26.667v26.667c0 36.8 29.867 66.667 66.667 66.667h26.667v-26.667h-26.667c-22 0-40-18-40-40z"/>
  <path d="m144 97.333c-25.733 0-46.667 20.933-46.667 46.667s20.933 46.667 46.667 46.667 46.667-20.933 46.667-46.667-20.933-46.667-46.667-46.667z"/>
  <path d="m224 250.67c14.728 0 26.667-11.939 26.667-26.667s-11.939-26.667-26.667-26.667-26.667 11.939-26.667 26.667 11.939 26.667 26.667 26.667z"/>
  <path d="m50.667 90.667c0-22 18-40 40-40h26.667v-26.667h-26.667c-36.8 0-66.667 29.867-66.667 66.667v26.667h26.667z"/>
 </g>
</svg>
