<svg xmlns="http://www.w3.org/2000/svg" width="192" height="192" viewBox="0 0 192 192"><g fill="none" stroke-linecap="round" stroke-linejoin="round" stroke-width="8"><g stroke="#000"><circle cx="96" cy="96" r="76" class="a"/><g stroke-miterlimit="10"><path d="M55.506 72.644c0-4.699-4.477-8.508-10-8.508s-10 3.81-10 8.508v8.668c0 4.7 4.477 8.508 10 8.508s10-3.809 10-8.508h-10M66.802 64.136v17.176c0 4.699 4.477 8.508 10 8.508s10-3.81 10-8.508V64.136M98.589 64.136V89.82" class="st5"/></g></g><path stroke="#00000f" stroke-miterlimit="10" d="M110.85 89.82V64.136h6.793c7.294 0 13.207 5.03 13.207 11.237v3.21c0 6.206-5.913 11.237-13.207 11.237z" class="st5"/></g><path fill="none" stroke="#00000f" stroke-linecap="round" stroke-linejoin="round" stroke-miterlimit="10" stroke-width="2.265" d="M57.73 45.974h-3.466" class="st5" transform="matrix(3.8462 0 0 3.2423 -65.46 -67.991)"/><g fill="none" stroke="#00000f" stroke-linecap="round" stroke-linejoin="round" stroke-miterlimit="10"><path stroke-width="2.265" d="M53.4 48.626 56 40.65l2.6 8" class="st5" transform="matrix(3.8462 0 0 3.2423 -65.46 -67.991)"/><path stroke-width="8" d="M48.456 100.78h41.09M69.001 150.79v-50.01" class="st5"/><path stroke-width="1.135" d="m268.65 40.65-2.65 8-2.65-8" class="st5" transform="matrix(7.7707 0 0 6.3993 -1943 -159.31)"/></g></svg>