<svg xmlns="http://www.w3.org/2000/svg" width="192" height="192" viewBox="0 0 192 192"><path fill="none" stroke="#000" stroke-linecap="round" stroke-linejoin="round" stroke-width="8" d="M92.9 154.38c-.74-.321-1.913-1.015-2.605-1.542l-1.258-.96H27.171l-2.036-1.013c-1.12-.558-2.484-1.601-3.032-2.319-2.154-2.822-2.1-1.66-2.1-44.948 0-45.095-.143-42.805 2.872-45.818 1.821-1.82 4.642-2.87 7.71-2.87h1.868l.108-5.34.109-5.34 1.321-.889c1.497-1.006 8.186-3.253 13.092-4.396 8.416-1.96 20.735-2.52 29.704-1.347 5.217.681 12.212 2.343 16.39 3.893l2.827 1.049 4.773-1.581c9.442-3.127 17.074-4.163 28.352-3.847 10.065.282 17.913 1.741 26.003 4.835 4.671 1.787 4.786 1.985 4.786 8.27v4.693h1.54c3.202 0 5.367.758 7.41 2.593 3.33 2.991 3.132.062 3.128 46.449l-.004 40.722-.915 1.963c-.978 2.1-2.78 3.865-4.813 4.716-1.017.426-7.13.526-32.273.526h-31.02l-1.462 1.174c-2.444 1.963-5.908 2.497-8.608 1.327zm72.247-9.092 1.006-.944v-81.68l-.957-.956c-.786-.785-1.343-.956-3.118-.956h-2.161v39.741c0 34.776-.074 39.884-.592 40.885-.903 1.747-2.004 1.791-5.901.24-7.91-3.147-16.31-4.636-26.44-4.685-10.455-.05-17.94 1.21-26.793 4.51L96 143.003l-3.41-1.352c-8.065-3.199-16.617-4.709-26.795-4.73-9.628-.024-17.545 1.254-25.138 4.048-6.104 2.247-5.745 2.18-6.928 1.297l-1.062-.792-.099-40.362-.1-40.362h-1.928c-2.364 0-3.691.565-4.26 1.814-.309.676-.433 12.526-.433 41.184 0 39.778.007 40.247.787 41.235.433.55 1.178 1.076 1.656 1.17.478.092 31.24.148 68.36.122l67.49-.046zm-119.1-11.915c6.927-1.763 11.844-2.228 21.498-2.03 9.718.199 13.55.728 20.266 2.798 2.25.694 4.355 1.333 4.677 1.42.517.138.596-4.946.684-43.773l.099-43.929-2.103-.929c-2.765-1.222-8.448-2.743-13.296-3.559-6.091-1.025-19.202-.927-25.46.19-4.675.834-11.25 2.702-13.415 3.81l-1.072.55v43.735c0 24.055.097 43.833.215 43.951.118.118 1.098-.12 2.178-.53 1.08-.41 3.658-1.177 5.729-1.704zm60.966-.038c5.93-1.498 11.416-2.081 19.576-2.082 10.904 0 19.174 1.378 26.794 4.466.647.262.682-1.983.682-43.921V47.6l-2.728-1.01c-3.5-1.297-7.766-2.38-12.669-3.22-5.4-.924-19.144-.924-24.356 0-6.114 1.084-12.34 2.819-14.76 4.114l-.829.442V91.66c0 24.053.107 43.84.237 43.97.131.13 1.126-.112 2.212-.54 1.086-.428 3.714-1.217 5.84-1.754zm16.653-18.013v-3.065l-1.785-.5c-2.221-.62-5.935-3.005-7.021-4.508-1.773-2.452-3.26-6.38-3.271-8.643-.004-.86.1-.889 2.805-.779l2.809.115.304 1.466c.668 3.227 2.473 5.605 5.08 6.693 1.65.689 5.651.79 7.79.196 3.085-.856 5.347-3.97 5.36-7.382.016-3.65-1.785-5.195-11.631-9.979-7.881-3.829-10.246-5.795-11.746-9.766-1.605-4.249-.483-9.833 2.703-13.46 1.364-1.551 6.193-4.18 7.68-4.18.898 0 .923-.089.923-3.31v-3.31h5.846v3.31c0 1.861.164 3.31.375 3.31 1.288 0 4.953 1.869 6.643 3.387 2.586 2.323 4.157 5.42 4.853 9.562l.246 1.46h-5.697l-.47-1.98c-.592-2.488-1.74-4.361-3.487-5.693-1.154-.88-1.844-1.062-4.543-1.203-4.007-.209-6.121.351-7.851 2.08-1.648 1.647-2.71 4.885-2.317 7.068.379 2.106 3.228 4.757 7.05 6.559 9.55 4.502 11.134 5.38 13.02 7.216 4.741 4.614 5.39 11.412 1.613 16.885-1.328 1.924-4.94 4.285-7.487 4.896l-1.948.467v6.153h-5.846z"/></svg>