<?xml version="1.0" encoding="UTF-8"?>
<svg id="SVGRoot" width="192px" height="192px" version="1.1" viewBox="0 0 192 192" xmlns="http://www.w3.org/2000/svg">
 <path d="m92.9 154.38c-0.74075-0.32105-1.9128-1.0152-2.6047-1.5425l-1.2579-0.95868h-61.866l-2.0361-1.0138c-1.1198-0.55762-2.4844-1.6012-3.0323-2.319-2.1541-2.822-2.0998-1.6596-2.0998-44.948 0-45.095-0.14332-42.805 2.8717-45.818 1.8211-1.8197 4.6421-2.8695 7.7108-2.8695h1.8669l0.10853-5.3399 0.10853-5.3399 1.3217-0.88933c1.4962-1.0067 8.186-3.2531 13.092-4.3961 8.416-1.9608 20.735-2.5197 29.704-1.3476 5.2164 0.68169 12.212 2.3435 16.39 3.8933l2.8265 1.0486 4.7733-1.5809c9.4418-3.127 17.074-4.1626 28.352-3.8468 10.065 0.28172 17.913 1.7411 26.003 4.8352 4.6712 1.7866 4.786 1.985 4.786 8.2708v4.6925h1.5397c3.2026 0 5.3672 0.75735 7.4099 2.5926 3.3298 2.9915 3.1326 0.06201 3.1282 46.449l-4e-3 40.722-0.91484 1.9631c-0.97826 2.0991-2.7805 3.865-4.8136 4.7163-1.0164 0.42564-7.1297 0.52513-32.273 0.52513h-31.019l-1.4625 1.1744c-2.4444 1.9628-5.9084 2.4968-8.6076 1.3268zm72.247-9.092 1.0057-0.94411v-81.68l-0.95663-0.95588c-0.78567-0.78507-1.3428-0.95588-3.1179-0.95588h-2.1612v39.741c0 34.776-0.0741 39.884-0.59164 40.885-0.90381 1.7464-2.0042 1.7911-5.9016 0.24012-7.91-3.1477-16.309-4.6361-26.439-4.685-10.456-0.0507-17.941 1.2092-26.794 4.5092l-4.1892 1.5617-3.4106-1.3526c-8.0647-3.1984-16.617-4.7083-26.795-4.7304-9.6278-0.0227-17.545 1.2544-25.138 4.0489-6.1042 2.2467-5.7449 2.1795-6.9279 1.2969l-1.0616-0.79196-0.09945-40.362-0.09945-40.362h-1.9285c-2.3638 0-3.6913 0.5651-4.2606 1.8137-0.30819 0.6759-0.43271 12.526-0.43271 41.184 0 39.778 0.0076 40.247 0.78722 41.235 0.43298 0.55001 1.1783 1.0762 1.6564 1.1694 0.47805 0.0931 31.24 0.14861 68.359 0.12327l67.49-0.0461zm-119.1-11.915c6.9266-1.7632 11.844-2.2275 21.498-2.0301 9.718 0.19891 13.55 0.72779 20.266 2.7983 2.2507 0.69381 4.3553 1.3323 4.6768 1.4189 0.5167 0.13916 0.59614-4.9454 0.68372-43.772l0.09907-43.929-2.1023-0.92903c-2.7648-1.2217-8.4485-2.7431-13.296-3.5587-6.0917-1.0251-19.202-0.92763-25.46 0.18908-4.6757 0.83442-11.25 2.7021-13.415 3.8109l-1.0718 0.54892v43.736c0 24.055 0.09681 43.833 0.21479 43.951 0.11798 0.11798 1.0982-0.12063 2.1779-0.53069 1.0797-0.40991 3.6576-1.1766 5.7286-1.7039zm60.966-0.0378c5.9304-1.498 11.416-2.0813 19.576-2.0818 10.904-7.6e-4 19.174 1.3775 26.794 4.4654 0.64716 0.26205 0.68202-1.9826 0.68202-43.921v-44.197l-2.7278-1.0103c-3.5003-1.2964-7.7658-2.3804-12.669-3.2194-5.4007-0.92412-19.144-0.92438-24.356-3.78e-4 -6.1143 1.084-12.34 2.819-14.761 4.1138l-0.82821 0.44285v43.733c0 24.053 0.10664 43.839 0.23748 43.97 0.13046 0.13047 1.1258-0.11268 2.2117-0.5404 1.0859-0.4277 3.7141-1.217 5.8404-1.7542zm16.653-18.013v-3.0648l-1.7854-0.49949c-2.2206-0.62126-5.9345-3.0063-7.0206-4.5085-1.7729-2.4523-3.2594-6.3798-3.2711-8.6431-4e-3 -0.85972 0.10096-0.88899 2.8047-0.77883l2.8094 0.1142 0.30365 1.4664c0.66829 3.2271 2.4729 5.6045 5.0804 6.6931 1.65 0.68887 5.6512 0.78965 7.7898 0.19626 3.0855-0.85628 5.3471-3.9705 5.3609-7.3821 0.0151-3.6506-1.7856-5.1952-11.632-9.9791-7.8811-3.8292-10.246-5.7952-11.746-9.7663-1.6048-4.2485-0.48308-9.8328 2.7035-13.459 1.364-1.5523 6.1926-4.1806 7.6804-4.1806 0.89715 0 0.92196-0.08925 0.92196-3.3102v-3.3102h5.846v3.3102c0 1.8612 0.16411 3.3102 0.37512 3.3102 1.288 0 4.953 1.8685 6.6428 3.3865 2.5861 2.3233 4.1579 5.4199 4.8538 9.5621l0.24541 1.4604h-5.6968l-0.47083-1.9805c-0.59142-2.4878-1.7387-4.3613-3.4863-5.6933-1.1536-0.87923-1.844-1.062-4.5424-1.2025-4.0076-0.20874-6.1217 0.3513-7.8516 2.08-1.6482 1.647-2.7098 4.8849-2.3172 7.0675 0.37897 2.1066 3.228 4.757 7.0512 6.5595 9.549 4.502 11.133 5.3797 13.019 7.2157 4.7414 4.6147 5.3907 11.412 1.6129 16.885-1.328 1.9238-4.9394 4.2856-7.4868 4.8962l-1.9482 0.46702v6.1532h-5.846z" fill="none" stroke="#000" stroke-linecap="round" stroke-linejoin="round" stroke-width="8"/>
</svg>
