<?xml version="1.0" encoding="UTF-8"?>
<svg id="vector" width="192" height="192" version="1.1" viewBox="0 0 192 192" xmlns="http://www.w3.org/2000/svg">
 <g transform="matrix(.53001 0 0 .53001 16 46.161)" aria-label="HanseaticBank">
  <path d="m1.9511e-4 51.714v-47.712h9.632v19.563h20.085v-19.563h9.7067v47.712h-9.7067v-20.384h-20.085v20.384z"/>
  <path d="m56.299 52.685q-4.704 0-7.616-2.6133-2.912-2.688-2.912-7.168v-0.07467q0-1.8667 0.448-3.36t1.6427-2.6133q1.2693-1.12 2.1653-1.792t3.136-1.344q2.24-0.74667 3.2107-0.97067 0.97067-0.29867 3.7334-0.97067 4.1067-0.97067 5.6-1.8667 1.4933-0.97067 1.4933-2.7627v-0.224q0-4.5547-7.392-4.5547-3.584 0-6.8694 1.1947-3.2853 1.12-4.928 2.3893v-6.048q4.4054-5.3014 13.888-5.3014 14.709 0 14.709 14.56v12.619q0 6.496 0.224 7.9894 0.07467 0.74667 0.29867 1.9413h-8.1387q-0.29867-0.52267-0.74667-1.8667-0.82134-2.6133-0.896-4.704-2.1653 7.5414-11.051 7.5414zm4.1067-5.6747q2.7627 0 4.7787-2.3147 2.016-2.3893 2.016-6.4214v-4.8534q-1.4187 1.1947-5.3014 2.7627-3.6587 1.344-5.0774 2.5387t-1.4187 3.2853v0.37334q0 4.6294 5.0027 4.6294z"/>
  <path d="m83.403 51.714v-36.213h7.5414q0.59734 1.2693 0.896 2.5387 0.896 2.688 0.896 6.048v0.74667q1.0453-4.7787 4.4054-7.4667 3.36-2.7627 8.288-2.7627 5.5254 0 8.5867 3.2107t3.0613 9.5574v24.341h-9.408v-23.893q0-5.9734-6.048-5.9734-3.8827 0-6.3467 2.7627-2.3893 2.688-2.3893 7.5414v19.563z"/>
  <path d="m135.45 52.685q-8.6614 0-13.141-3.9574v-6.048q5.0027 3.2853 12.021 3.2853 3.808 0 5.4507-1.0453 1.7173-1.0453 1.7173-3.2853 0-2.3147-2.3147-3.2853-0.89601-0.37334-5.3014-1.12t-6.4214-1.792q-5.0774-2.6133-5.0774-9.1094 0-5.8987 4.1067-8.8107 4.1814-2.912 10.379-2.912 7.5414 0 11.2 3.136v6.048q-5.0774-2.464-10.752-2.464-6.72 0-6.72 4.1814 0 2.24 2.24 3.136 1.4933 0.59734 6.048 1.344 4.5547 0.672 6.4214 1.792 4.8534 2.464 4.8534 8.8107 0 5.8987-4.032 9.0347-3.9574 3.0613-10.677 3.0613z"/>
  <path d="m186.07 35.586h-22.848q0.29867 5.376 3.0614 7.616 2.7627 2.1653 8.3627 2.1653 6.4214 0 10.901-2.464v5.2267q-1.2693 1.792-4.7787 3.136-3.4347 1.2693-8.288 1.2693-8.96 0-13.963-4.8534-4.928-4.928-4.928-14.112v-0.07467q0-8.5867 4.928-13.739 4.928-5.152 12.693-5.152 7.7654 0 11.723 4.256 4.032 4.256 4.032 10.976 0 3.0613-0.896 5.7494zm-14.709-14.784q-3.6587 0-5.824 2.5387t-2.3147 7.4667h15.232v-0.74667q0-9.2587-7.0934-9.2587z"/>
  <path d="m201.15 52.685q-4.704 0-7.616-2.6133-2.912-2.688-2.912-7.168v-0.07467q0-1.8667 0.448-3.36 0.44801-1.4933 1.6427-2.6133 1.2693-1.12 2.1653-1.792 0.89601-0.672 3.136-1.344 2.24-0.74667 3.2107-0.97067 0.97067-0.29867 3.7334-0.97067 4.1067-0.97067 5.6-1.8667 1.4933-0.97067 1.4933-2.7627v-0.224q0-4.5547-7.392-4.5547-3.584 0-6.8694 1.1947-3.2853 1.12-4.928 2.3893v-6.048q4.4054-5.3014 13.888-5.3014 14.709 0 14.709 14.56v12.619q0 6.496 0.224 7.9894 0.0747 0.74667 0.29867 1.9413h-8.1387q-0.29867-0.52267-0.74667-1.8667-0.82134-2.6133-0.896-4.704-2.1654 7.5414-11.051 7.5414zm4.1067-5.6747q2.7627 0 4.7787-2.3147 2.016-2.3893 2.016-6.4214v-4.8534q-1.4187 1.1947-5.3014 2.7627-3.6587 1.344-5.0774 2.5387t-1.4187 3.2853v0.37334q0 4.6294 5.0027 4.6294z"/>
  <path d="m241.7 52.685q-5.0027 0-8.3627-2.6133-3.2854-2.688-3.2854-8.736v-19.413h-4.928v-5.0774q4.4054-0.224 5.8987-2.5387t2.8373-8.8107h5.6v10.005h10.827v6.4214h-10.827v17.771q0 3.4347 1.344 4.7787 1.4187 1.344 4.4054 1.344 2.3147 0 5.3014-1.0453v4.48q-2.3894 3.4347-8.8107 3.4347z"/>
  <path d="m260.96 11.543q-2.24 0-3.808-1.4933-1.568-1.568-1.568-3.808t1.568-3.808 3.808-1.568q2.3147 0 3.8827 1.568t1.568 3.808-1.568 3.808q-1.568 1.4933-3.8827 1.4933zm-4.704 40.171v-36.213h9.4827v36.213z"/>
  <path d="m289.56 52.61q-8.064 0-12.992-5.152-4.8534-5.2267-4.8534-13.963v-0.07467q0-8.96 5.2267-13.888t12.469-4.928q8.96 0 11.947 3.6587v6.3467q-3.8827-2.5387-10.379-2.5387-4.3307 0-7.0187 2.464t-2.688 7.616v2.0907q0 11.424 10.229 11.424 5.0774 0 10.379-2.912v5.376q-3.36 4.48-12.32 4.48z"/>
  <path d="m1.9511e-4 108.61v-47.712h17.397q16.277 0 16.277 12.544 0 5.152-2.7627 7.9147-2.688 2.688-8.512 3.36v0.224q13.067 0.896 13.067 10.453 0 6.496-4.1067 9.856t-14.261 3.36zm9.632-26.731h6.8694q7.9894 0 7.9894-6.8694 0-6.6454-7.4667-6.6454h-7.392zm0 19.861h7.0187q5.4507 0 7.392-1.568t1.9413-5.152-2.1653-5.0774q-2.1653-1.568-7.3174-1.568h-6.8694z"/>
  <path d="m49.952 109.58q-4.704 0-7.616-2.6134-2.912-2.688-2.912-7.168v-0.07467q0-1.8667 0.448-3.36t1.6427-2.6133q1.2693-1.12 2.1653-1.792t3.136-1.344q2.24-0.74667 3.2107-0.97067 0.97067-0.29867 3.7334-0.97067 4.1067-0.97067 5.6-1.8667 1.4933-0.97067 1.4933-2.7627v-0.224q0-4.5547-7.392-4.5547-3.584 0-6.8694 1.1947-3.2853 1.12-4.928 2.3893v-6.048q4.4054-5.3014 13.888-5.3014 14.709 0 14.709 14.56v12.619q0 6.496 0.224 7.9894 0.07467 0.74667 0.29867 1.9414h-8.1387q-0.29867-0.52267-0.74667-1.8667-0.82134-2.6133-0.896-4.704-2.1653 7.5414-11.051 7.5414zm4.1067-5.6747q2.7627 0 4.7787-2.3147 2.016-2.3893 2.016-6.4214v-4.8534q-1.4187 1.1947-5.3014 2.7627-3.6587 1.344-5.0774 2.5387t-1.4187 3.2853v0.37334q0 4.6294 5.0027 4.6294z"/>
  <path d="m77.056 108.61v-36.213h7.5414q0.59734 1.2693 0.896 2.5387 0.896 2.688 0.896 6.048v0.74667q1.0453-4.7787 4.4054-7.4667 3.36-2.7627 8.288-2.7627 5.5254 0 8.5867 3.2107t3.0613 9.5574v24.341h-9.408v-23.893q0-5.9734-6.048-5.9734-3.8827 0-6.3467 2.7627-2.3893 2.688-2.3893 7.5414v19.563z"/>
  <path d="m117.53 108.61v-50.251h9.4827v30.389l13.291-16.352h9.5574l-13.813 16.352 14.187 19.861h-10.603l-12.619-18.219v18.219z"/>
 </g>
 <g transform="matrix(.53001 0 0 .53001 16 46.161)" aria-label="Secure">
  <path d="m14.133 187.2q-9.5334 0-14.133-4.4667v-6.4q5.5334 4.3334 13.2 4.3334 8.3334 0 8.3334-6.1334 0-1.6-0.53334-2.4667-0.46667-0.93334-1.8667-1.6667-1.2667-0.73334-6.5334-1.8667-5.2667-1.2-7.3334-2.3333-5.2667-2.9334-5.2667-10.467 0-6.4667 4.3334-9.6667 4.4-3.2667 10.867-3.2667 8.0667 0 12.067 3.6667v6.4667q-1.8-1.2-5.0667-2.1333t-6.5334-0.93334q-3.7334 0-5.8 1.1333-2 1.0667-2 4.2667 0 2.9334 2.6667 4.2 1.6667 0.8 7.0667 1.8667t7.5334 2.5334q4.7334 3.0667 4.7334 9.9334 0 6.6667-4.3334 10.067-4.3334 3.3334-11.4 3.3334z"/>
  <path d="m62.734 171.87h-20.4q0.26667 4.8 2.7333 6.8 2.4667 1.9334 7.4667 1.9334 5.7334 0 9.7334-2.2v4.6667q-1.1333 1.6-4.2667 2.8-3.0667 1.1333-7.4 1.1333-8 0-12.467-4.3334-4.4-4.4-4.4-12.6v-0.0667q0-7.6667 4.4-12.267 4.4-4.6 11.333-4.6t10.467 3.8q3.6 3.8 3.6 9.8 0 2.7334-0.8 5.1334zm-13.133-13.2q-3.2667 0-5.2 2.2667t-2.0667 6.6667h13.6v-0.66667q0-8.2667-6.3334-8.2667z"/>
  <path d="m83 187.07q-7.2 0-11.6-4.6-4.3334-4.6667-4.3334-12.467v-0.0667q0-8 4.6667-12.4t11.133-4.4q8 0 10.667 3.2667v5.6667q-3.4667-2.2667-9.2667-2.2667-3.8667 0-6.2667 2.2t-2.4 6.8v1.8667q0 10.2 9.1334 10.2 4.5334 0 9.2667-2.6v4.8q-3 4-11 4z"/>
  <path d="m109.53 187.07q-10.8 0-10.8-12.267v-20.867h8.4v20.733q0 3.3334 1.2667 4.8667 1.3333 1.5333 4.1334 1.5333 3.4667 0 5.5334-2.5334t2.0667-7.0667v-17.533h8.4v32.333h-6.6667q-0.33333-0.73333-0.73333-2.3333-0.73334-2.2-0.73334-5.2v-0.4q-1.0667 4.1334-3.9334 6.4667-2.8667 2.2667-6.9334 2.2667z"/>
  <path d="m135 186.27v-32.333h6.7334q0.46666 1 0.8 2.4667 0.8 2.6 0.8 5.9334v1.8q1-5.6667 3.4-8.1334 2.4-2.5333 5.4667-2.5333 2.1334 0 3.0667 1.5333v6.2q-6-0.13333-8.9334 2.5334-2.8667 2.6667-2.8667 9.2667v13.267z"/>
  <path d="m186.47 171.87h-20.4q0.26667 4.8 2.7334 6.8 2.4667 1.9334 7.4667 1.9334 5.7334 0 9.7334-2.2v4.6667q-1.1333 1.6-4.2667 2.8-3.0667 1.1333-7.4 1.1333-8 0-12.467-4.3334-4.4-4.4-4.4-12.6v-0.0667q0-7.6667 4.4-12.267 4.4-4.6 11.333-4.6t10.467 3.8q3.6 3.8 3.6 9.8 0 2.7334-0.80001 5.1334zm-13.133-13.2q-3.2667 0-5.2 2.2667-1.9334 2.2667-2.0667 6.6667h13.6v-0.66667q0-8.2667-6.3334-8.2667z"/>
 </g>
</svg>
