<svg xmlns="http://www.w3.org/2000/svg" width="192" height="192" viewBox="0 0 192 192"><path stroke="#000" stroke-linecap="round" stroke-linejoin="round" d="M91.632 174.91c-1.82-.823-4.11-3.437-4.11-4.691 0-.798.358-.928 2.558-.928 2.031 0 2.683.199 3.166.964.746 1.186 4.052 1.346 4.976.242.954-1.14-.17-2.047-3.946-3.183-4.01-1.207-5.527-2.305-6.27-4.537-1.843-5.534 5.233-9.84 11.522-7.01 1.852.834 3.558 2.916 3.558 4.342 0 .822-4.821.616-5.689-.243-.447-.443-1.376-.69-2.275-.603-1.25.12-1.52.357-1.52 1.334 0 1.06.395 1.305 3.711 2.297 4.178 1.25 6.076 2.767 6.541 5.225.372 1.965-.906 4.78-2.79 6.143-1.688 1.222-7.307 1.608-9.431.648zm19.627-.336c-6.438-3.37-6.902-14.163-.782-18.176 1.691-1.109 2.546-1.326 5.22-1.326 3.97 0 6.265 1.26 8.172 4.485 2.38 4.025 1.558 10.81-1.659 13.693-2.625 2.353-7.792 2.978-10.95 1.324zm6.901-4.556c2.389-2.52 1.61-9.304-1.189-10.358-3.082-1.161-5.413 1.907-5.02 6.609.25 2.99 1.748 4.951 3.78 4.951.746 0 1.77-.507 2.43-1.201zm-89.976-4.86v-9.436l6.776.157c5.952.138 6.94.278 8.125 1.157 2.58 1.911 2.505 6.844-.121 8.03l-1.174.53 1.56 1.29c1.411 1.168 1.578 1.592 1.764 4.498l.207 3.21h-5.415l-.335-2.93c-.364-3.187-1.046-3.819-4.123-3.819h-1.427v6.749h-5.837zm11.09-1.747c1.626-1.613-.325-3.76-3.416-3.76H34.02v4.338h2.335c1.284 0 2.597-.26 2.918-.578zm9.338 1.783v-9.4h14.59v3.857h-8.754v3.374h7.296v4.338h-7.296v3.374h9.241v3.857H48.611zm17.996 0v-9.4l5.593.017 2.675 4.425c4.363 7.217 4.25 7.19 3.99.933l-.224-5.374h5.475v18.799h-5.263l-2.796-4.46c-4.227-6.74-4.1-6.717-4.1-.705v5.164h-5.35zm61.769-.024v-9.424l5.54.29 6.376 10.324.137-5.283.138-5.282h5.318v18.799l-5.593-.035-6.323-10.329-.276 10.364h-5.317v-9.424zm-93.1-27.306c-2.783-.76-5.892-4.028-6.495-6.828-.627-2.914.04-5.975 1.735-7.97.723-.851 10.507-8.543 21.742-17.093C68.454 93.648 72.65 90.232 72.51 89.489c-.1-.516-.208-2.673-.244-4.794-.053-3.241.14-4.288 1.218-6.565 2.778-5.875 7.423-9.072 13.767-9.476 3.707-.235 7.081.484 7.081 1.51 0 .318-2.462 2.73-5.472 5.36-3.009 2.63-5.443 5.05-5.41 5.378.073.694 7.528 9.23 8.117 9.294.219.023 2.804-2.072 5.747-4.657 2.942-2.585 5.718-4.7 6.169-4.7.679 0 .844.59.961 3.424.451 10.918-9.748 18.778-20.592 15.87l-3.158-.848-18.543 18.638c-10.2 10.25-19.145 18.947-19.88 19.324-1.894.97-4.768 1.224-6.992.617zm5.564-7.018c1.225-1.543 1.213-2.56-.047-4.149-1.345-1.694-4.396-1.804-5.53-.199-2.85 4.033 2.51 8.211 5.577 4.348zm14.922 6.826c-1.286-.69-2.288-2.356-2.288-3.804 0-.36.567-1.322 1.26-2.138l1.259-1.483h40.115c26.722 0 40.429-.166 41.055-.499.893-.474.94-1.137.94-13.28 0-15.458.185-16.107 4.576-16.107a3.58 3.58 0 0 1 2.635 1.116c1.034 1.09 1.058 1.415 1.058 14.717 0 15.189-.098 15.753-3.299 19.008-3.277 3.334-1.95 3.241-46.279 3.22-34.504-.017-39.85-.115-41.033-.75zM30.716 114.8c-2.372-.943-2.582-2.611-2.43-19.33l.141-15.438 1.365-1.162c1.783-1.52 3.92-1.512 5.467.02l1.194 1.183v16.13c0 8.872-.136 16.482-.303 16.911-.326.843-2.658 2.21-3.686 2.16-.348-.016-1.134-.23-1.748-.474zm90.015-18.86c-4.558-.348-11.655-1.531-12.156-2.028-.115-.113.135-1.21.556-2.438.42-1.228.768-2.604.772-3.059.017-1.932.659-2.183 4.07-1.594 4.695.81 17.462.7 22.67-.196 7.034-1.21 15.722-4.325 16.777-6.017.17-.272-.173-1.344-.762-2.382-1.723-3.039-1.42-3.215 6.15-3.575 14.352-.682 17.646-.34 16.475 1.71-1.87 3.274-10.582 16.78-11.097 17.203-.974.802-1.868.272-3.079-1.825l-1.073-1.858L156 91.298c-11.006 3.87-23.615 5.528-35.269 4.64zm19.985-17.504c-2.357-.982-2.61-2.243-2.61-12.99 0-8.652-.1-9.918-.852-10.764-.689-.776-44.35-27.495-48.119-29.448-.584-.302-1.42-.55-1.856-.55-1.024 0-48.363 28.67-49.488 29.972-.532.616-.85 1.783-.85 3.116 0 5.472-3.709 8.208-7.148 5.274-1.265-1.08-1.364-1.423-1.363-4.7.002-4.373 1.075-7.317 3.529-9.677 2.002-1.927 49.013-30.706 51.64-31.613 2.401-.83 6.32-.672 8.544.345 3.051 1.394 48.96 29.414 50.523 30.836.77.7 1.917 2.356 2.549 3.682 1.105 2.316 1.15 2.846 1.154 13.533.005 10.926-.014 11.14-1.09 12.105-1.473 1.322-2.86 1.589-4.563.88zm-124.2-1.428c0-.928 5.252-3.8 10.295-5.63 12.688-4.602 26.32-4.925 38.931-.922l4.651 1.477-1.282 2.405c-.92 1.724-1.488 2.317-2.012 2.095-15.347-6.515-33.15-6.572-47.11-.15-3.599 1.656-3.472 1.63-3.472.725z"/></svg>