<?xml version="1.0" encoding="UTF-8"?>
<svg id="SVGRoot" width="192px" height="192px" version="1.1" viewBox="0 0 192 192" xmlns="http://www.w3.org/2000/svg">
 <path d="m91.632 174.91c-1.8205-0.82297-4.1101-3.4365-4.1101-4.6915 0-0.79723 0.35827-0.92707 2.5581-0.92707 2.0313 0 2.6832 0.19852 3.1656 0.96406 0.7468 1.1851 4.052 1.3452 4.9766 0.24101 0.95404-1.1393-0.17052-2.0463-3.9463-3.1829-4.0094-1.2069-5.5267-2.3049-6.27-4.5371-1.8428-5.5339 5.2333-9.8386 11.522-7.0092 1.8519 0.83326 3.5585 2.9154 3.5585 4.3416 0 0.82244-4.8218 0.6164-5.689-0.24311-0.44709-0.44309-1.3766-0.68922-2.2755-0.60253-1.2506 0.12059-1.5197 0.35672-1.5197 1.3337 0 1.0608 0.39501 1.3054 3.711 2.2975 4.1776 1.25 6.0757 2.7661 6.5412 5.2249 0.37196 1.965-0.90647 4.7793-2.7905 6.1429-1.6884 1.222-7.3073 1.6079-9.4313 0.64769zm19.627-0.33582c-6.4375-3.3695-6.9016-14.163-0.78158-18.176 1.691-1.1091 2.5452-1.3261 5.2189-1.3261 3.9712 0 6.2656 1.259 8.1731 4.4848 2.3801 4.0251 1.558 10.81-1.6592 13.693-2.6254 2.353-7.7923 2.9778-10.951 1.3244zm6.9012-4.556c2.3887-2.5199 1.61-9.3038-1.1889-10.358-3.0826-1.1615-5.4133 1.9067-5.0199 6.6085 0.25022 2.9903 1.7475 4.9513 3.7804 4.9513 0.7456 0 1.7699-0.50675 2.4284-1.2014zm-89.976-4.8604v-9.436l6.7755 0.15694c5.952 0.13787 6.9396 0.27851 8.1253 1.1571 2.5795 1.9114 2.5051 6.8438-0.12114 8.0297l-1.1738 0.53002 1.5591 1.2899c1.412 1.1682 1.5785 1.5927 1.7653 4.499l0.20618 3.2091h-5.4151l-0.33441-2.9294c-0.36381-3.187-1.0462-3.819-4.1229-3.819h-1.4275v6.7484h-5.8365zm11.089-1.7471c1.6267-1.6122-0.32425-3.7598-3.4156-3.7598h-1.8373v4.3383h2.3346c1.284 0 2.5972-0.26029 2.9182-0.57844zm9.3384 1.7835v-9.3995h14.591v3.8562h-8.7547v3.3742h7.2956v4.3382h-7.2956v3.3742h9.2411v3.8562h-15.078zm17.996 0v-9.3995l5.5933 0.016 2.6751 4.4251c4.3632 7.2177 4.2496 7.1911 3.9895 0.93353l-0.22344-5.3748h5.4751v18.799h-5.2631l-2.7964-4.4588c-4.2271-6.7399-4.0998-6.718-4.0998-0.70583v5.1646h-5.3501zm61.769-0.0241v-9.4236l5.54 0.28912 6.3762 10.324 0.13752-5.2825 0.13751-5.2825h5.3183v18.799l-5.5933-0.0346-6.3229-10.329-0.2761 10.364h-5.3172v-9.4236zm-93.099-27.306c-2.7838-0.75984-5.8925-4.0279-6.4951-6.828-0.62718-2.9144 0.0389-5.9748 1.7347-7.9705 0.72281-0.85062 10.507-8.5424 21.742-17.093 16.195-12.325 20.391-15.741 20.249-16.484-0.09836-0.51544-0.20765-2.6725-0.2428-4.7934-0.05372-3.2415 0.14035-4.2881 1.2174-6.5652 2.7787-5.875 7.4237-9.0722 13.767-9.4756 3.707-0.23578 7.0814 0.48362 7.0814 1.5097 0 0.31787-2.4623 2.7299-5.4717 5.3601-3.0094 2.6302-5.4437 5.0502-5.4096 5.3778 0.07235 0.69362 7.5276 9.2302 8.1166 9.2938 0.21822 0.02357 2.804-2.072 5.7461-4.6569 2.9422-2.5849 5.7183-4.6998 6.1693-4.6998 0.67871 0 0.84425 0.58957 0.96136 3.424 0.45108 10.918-9.7478 18.778-20.592 15.869l-3.1586-0.84735-18.543 18.638c-10.199 10.251-19.145 18.947-19.88 19.324-1.8934 0.97037-4.7678 1.2242-6.9912 0.61731zm5.5635-7.018c1.2248-1.5432 1.2133-2.561-0.04706-4.149-1.3446-1.6942-4.3961-1.8038-5.5304-0.19876-2.8497 4.0322 2.5112 8.2111 5.5775 4.3477zm14.922 6.8263c-1.2863-0.69122-2.2879-2.3566-2.2879-3.8043 0-0.36007 0.56663-1.3221 1.2592-2.1377l1.2592-1.4831h40.115c26.722 0 40.429-0.1666 41.055-0.49899 0.8938-0.47408 0.94078-1.1371 0.94078-13.28 0-15.458 0.18439-16.107 4.5755-16.107 1.0203 0 1.9514 0.39415 2.6353 1.1156 1.0342 1.091 1.0575 1.4156 1.0575 14.717 0 15.189-0.0979 15.753-3.2983 19.008-3.2778 3.3337-1.9501 3.2413-46.279 3.2198-34.504-0.0168-39.85-0.11451-41.033-0.75007zm-25.047-22.873c-2.3724-0.94361-2.5821-2.6118-2.4295-19.331l0.14086-15.437 1.3646-1.1628c1.7834-1.5196 3.9208-1.5117 5.4667 0.02039l1.1938 1.1832v16.13c0 8.8717-0.13595 16.482-0.30212 16.911-0.32644 0.84311-2.6588 2.2098-3.6863 2.1602-0.34767-0.0168-1.1343-0.23029-1.7481-0.47441zm90.015-18.861c-4.5578-0.34708-11.655-1.5305-12.156-2.027-0.11483-0.1138 0.13525-1.2112 0.55572-2.4386 0.42048-1.2274 0.76785-2.6037 0.77196-3.0584 0.0174-1.9321 0.65926-2.1836 4.0711-1.5947 4.6943 0.81018 17.461 0.70002 22.669-0.1956 7.0343-1.2096 15.722-4.3254 16.777-6.017 0.16972-0.27216-0.1729-1.3439-0.76139-2.3816-1.7237-3.0395-1.4204-3.2159 6.1488-3.5756 14.353-0.68221 17.647-0.34045 16.476 1.7096-1.8703 3.2742-10.582 16.781-11.097 17.204-0.9745 0.80154-1.8679 0.27196-3.0789-1.8251l-1.0731-1.8582-4.0339 1.418c-11.006 3.8689-23.615 5.5277-35.269 4.6402zm19.985-17.503c-2.3572-0.98227-2.6106-2.2434-2.6106-12.99 0-8.6519-0.1002-9.9183-0.85117-10.764-0.6889-0.77608-44.35-27.495-48.119-29.448-0.5843-0.30262-1.4195-0.55022-1.8561-0.55022-1.0241 0-48.363 28.67-49.488 29.972-0.53248 0.61595-0.85115 1.7825-0.85115 3.1158 0 5.472-3.7081 8.2083-7.1469 5.2741-1.2648-1.0792-1.3645-1.4232-1.3632-4.6998 2e-3 -4.3737 1.0749-7.3168 3.5288-9.6775 2.0027-1.9266 49.013-30.706 51.64-31.613 2.4017-0.82974 6.321-0.67154 8.5445 0.34489 3.0511 1.3948 48.959 29.414 50.523 30.836 0.76946 0.69967 1.9164 2.3567 2.5487 3.6823 1.1046 2.3158 1.1499 2.8457 1.1544 13.533 5e-3 10.926-0.0146 11.141-1.0896 12.105-1.4736 1.3217-2.8608 1.5891-4.5634 0.87963zm-124.2-1.4285c0-0.92806 5.2517-3.7997 10.295-5.6292 12.688-4.6029 26.32-4.9258 38.931-0.92219l4.6509 1.4765-1.282 2.4048c-0.91938 1.7246-1.4884 2.3172-2.0116 2.0951-15.347-6.515-33.151-6.5714-47.111-0.14924-3.5983 1.6554-3.4716 1.6289-3.4716 0.72411z" stroke="#000" stroke-linecap="round" stroke-linejoin="round"/>
</svg>
