<svg xmlns="http://www.w3.org/2000/svg" width="192" height="192" viewBox="0 0 192 192"><path fill="none" stroke="#000" stroke-linecap="round" stroke-linejoin="round" stroke-width="8" d="M20 96V20h152v152H20zm65.979 38.076L96 124.058l10.021 10.018c9.154 9.151 11.19 10.973 10.63 9.513-.107-.278-2.666-4.773-5.687-9.99-3.021-5.217-5.421-9.673-5.333-9.902.088-.23 2.633-4.686 5.655-9.903s7.104-11.16 5.495-9.632c-.656.624-2.548 1.365-10.909 9.723L96 123.755l-9.872-9.87c-8.382-8.38-10.91-10.629-10.91-9.716 0 .085 2.421 4.322 5.38 9.416s5.51 9.548 5.668 9.896c.245.537-.557 2.092-5.218 10.12-3.029 5.218-5.594 9.713-5.7 9.99-.56 1.458 1.48-.367 10.631-9.515zm3.078-39.304c2.216-1.787 4.136-2.47 6.943-2.47 2.808 0 4.727.683 6.943 2.47 1.396 1.125 2.16 1.18 2.613.186.292-.642.241-.85-.371-1.501-2.055-2.188-5.797-3.692-9.185-3.692-3.388 0-7.13 1.504-9.184 3.692-.613.651-.664.858-.371 1.5.453.995 1.217.94 2.612-.185zM79.338 84.9c3.105-2.758 6.094-4.373 10.342-5.589 3.31-.946 9.33-.946 12.64 0 4.248 1.216 7.237 2.831 10.342 5.589 1.5 1.332 2.242 1.577 2.872.947.65-.65.372-1.33-1.107-2.713-3.01-2.815-7.28-5.107-11.772-6.316-2.915-.785-10.394-.785-13.31 0-4.491 1.21-8.762 3.501-11.771 6.316-1.48 1.384-1.757 2.063-1.108 2.713.63.63 1.372.385 2.872-.947zM69.337 74.87C77.093 68.178 85.984 64.83 96 64.83c10.016 0 18.908 3.348 26.663 10.04 1.357 1.171 2.584 2.13 2.725 2.13.46 0 1.19-.92 1.19-1.497 0-.65-3.55-3.794-6.684-5.92-4.72-3.202-10.908-5.695-16.62-6.696-3.964-.694-10.584-.694-14.548 0-5.713 1.001-11.9 3.494-16.62 6.695-3.135 2.127-6.684 5.27-6.684 5.92 0 .579.73 1.498 1.19 1.498.141 0 1.368-.959 2.725-2.13zm-13.315-8.513c8.32-7.892 18.908-13.085 31.072-15.237 2.999-.53 14.814-.53 17.812 0 12.164 2.153 22.752 7.345 31.072 15.237 1.869 1.773 2.381 2.008 3.01 1.38.788-.789.361-1.661-1.788-3.651-23.038-21.33-59.361-21.33-82.4 0-2.15 1.99-2.577 2.862-1.788 3.651.628.628 1.14.393 3.01-1.38z"/></svg>