<?xml version="1.0" encoding="UTF-8"?>
<svg id="SVGRoot" width="192px" height="192px" version="1.1" viewBox="0 0 192 192" xmlns="http://www.w3.org/2000/svg">
 <path d="m20 96v-76h152v152h-152zm65.979 38.076 10.021-10.018 10.021 10.018c9.1544 9.1514 11.19 10.973 10.63 9.5131-0.10655-0.27766-2.6657-4.7731-5.687-9.99-3.0213-5.2168-5.4212-9.6729-5.3332-9.9024 0.0881-0.22949 2.6329-4.6858 5.6553-9.9028s7.1041-11.16 5.4951-9.6318c-0.65665 0.62381-2.548 1.3654-10.909 9.7231l-9.8727 9.8694-9.8727-9.8694c-8.3822-8.3794-10.909-10.629-10.909-9.7157 0 0.0846 2.4207 4.3216 5.3793 9.4157 2.9586 5.0941 5.5094 9.5474 5.6683 9.8962 0.2446 0.53683-0.55694 2.0914-5.218 10.12-3.0289 5.2172-5.5939 9.7123-5.7001 9.9891-0.55968 1.4585 1.4794-0.3666 10.631-9.5147zm3.078-39.304c2.2161-1.7874 4.1355-2.4703 6.9432-2.4703 2.8077 0 4.7271 0.68291 6.9432 2.4703 1.3954 1.1255 2.1593 1.1798 2.6122 0.18575 0.29263-0.64223 0.24144-0.84951-0.37066-1.5011-2.055-2.1874-5.7969-3.6913-9.1847-3.6913-3.3878 0-7.1297 1.5039-9.1847 3.6913-0.61209 0.65155-0.66328 0.85883-0.37066 1.5011 0.45292 0.99406 1.2168 0.93974 2.6122-0.18575zm-9.719-9.872c3.1054-2.7581 6.0943-4.3732 10.342-5.5886 3.3091-0.94685 9.3309-0.94685 12.64 0 4.2479 1.2155 7.2368 2.8306 10.342 5.5886 1.5 1.3322 2.242 1.5768 2.8722 0.94665 0.64943-0.64943 0.37196-1.3291-1.1076-2.7131-3.0091-2.8147-7.2804-5.1061-11.772-6.3155-2.915-0.78487-10.394-0.78487-13.309 0-4.4917 1.2094-8.763 3.5009-11.772 6.3155-1.4796 1.384-1.7571 2.0636-1.1076 2.7131 0.63015 0.63015 1.3721 0.38559 2.8722-0.94665zm-10.001-10.03c7.7556-6.6918 16.647-10.04 26.663-10.04 10.016 0 18.908 3.3482 26.663 10.04 1.3574 1.1712 2.5836 2.1295 2.7249 2.1295 0.45941 0 1.1898-0.91888 1.1898-1.4968 0-0.65023-3.5488-3.7936-6.6842-5.9206-4.7193-3.2015-10.907-5.6941-16.62-6.6948-3.9636-0.69425-10.583-0.69425-14.547 0-5.7131 1.0007-11.901 3.4933-16.62 6.6948-3.1355 2.127-6.6842 5.2704-6.6842 5.9206 0 0.57792 0.73044 1.4968 1.1899 1.4968 0.14125 0 1.3674-0.95829 2.7249-2.1295zm-13.315-8.5125c8.3203-7.8929 18.908-13.085 31.072-15.237 2.9987-0.53065 14.814-0.53065 17.812 0 12.164 2.1526 22.752 7.3445 31.072 15.237 1.8685 1.7725 2.3813 2.0076 3.0093 1.3795 0.78888-0.78888 0.36183-1.6611-1.7876-3.6512-23.038-21.33-59.361-21.33-82.4 0-2.1494 1.99-2.5765 2.8623-1.7876 3.6512 0.62803 0.62803 1.1408 0.39295 3.0093-1.3795z" fill="none" stroke="#000" stroke-linecap="round" stroke-linejoin="round" stroke-width="8"/>
</svg>
