<?xml version="1.0" encoding="UTF-8"?>
<svg id="SVGRoot" width="192px" height="192px" version="1.1" viewBox="0 0 192 192" xmlns="http://www.w3.org/2000/svg">
 <path d="m90.615 168.24c-2.564-2.0532-13.17-10.344-23.568-18.425-10.399-8.0803-21.937-17.092-25.64-20.026-3.7036-2.9339-9.0065-7.0343-11.784-9.112-2.7777-2.0777-5.0504-3.9541-5.0504-4.1698 0-0.40658 11.662-9.3382 12.193-9.3382 0.37029 0 6.5409 4.6652 15.779 11.929 5.6201 4.4194 20.138 15.701 41.515 32.262l1.8889 1.4633 5.8809-4.5048c3.2345-2.4776 9.0277-6.9834 12.874-10.013 21.689-17.083 39.98-31.137 40.526-31.137 0.60923 0 12.308 8.876 12.308 9.3382 0 0.21562-2.2727 2.092-5.0504 4.1698-2.7777 2.0777-8.0806 6.1773-11.784 9.1102-3.7036 2.9329-16.407 12.851-28.23 22.04-11.823 9.1889-22.453 17.491-23.622 18.448-1.1689 0.95759-2.451 1.7312-2.8489 1.7192-0.39803-0.0114-2.8215-1.7018-5.3856-3.755zm-1.813-42.142c-3.8461-2.9832-10.839-8.444-15.54-12.135-8.9566-7.0326-16.386-12.821-34.446-26.837-5.9828-4.643-11.66-9.0992-12.616-9.9025l-1.7378-1.4607 11.062-8.651c6.0839-4.7581 13.16-10.292 15.724-12.298 2.5641-2.006 7.9252-6.1486 11.914-9.2057 3.9885-3.0571 8.8835-6.8753 10.878-8.4849 1.9942-1.6096 7.7633-6.1215 12.82-10.026l9.1943-7.1 9.1943 7.1c5.0569 3.905 10.826 8.4169 12.82 10.026 1.9943 1.6096 6.8893 5.4295 10.878 8.4885 8.3084 6.3723 17.475 13.501 29.93 23.278 7.0655 5.5458 8.5685 6.9475 8.0288 7.487-0.64468 0.64449-20.401 16.065-35.628 27.808-4.131 3.1859-9.8594 7.6703-12.73 9.9654-7.0019 5.5982-21.945 17.114-22.393 17.257-0.19772 0.0632-3.506-2.326-7.352-5.3092z" fill="none" stroke="#000" stroke-linecap="round" stroke-linejoin="round" stroke-width="8"/>
</svg>
