<svg xmlns="http://www.w3.org/2000/svg" width="192" height="192" viewBox="0 0 192 192"><path fill="none" stroke="#000" stroke-linecap="round" stroke-linejoin="round" stroke-width="8" d="M90.615 168.24c-2.564-2.053-13.17-10.344-23.568-18.425-10.399-8.08-21.937-17.092-25.64-20.026-3.704-2.934-9.007-7.034-11.784-9.112-2.778-2.078-5.05-3.954-5.05-4.17 0-.406 11.662-9.338 12.193-9.338.37 0 6.54 4.665 15.779 11.929 5.62 4.42 20.138 15.701 41.515 32.262l1.889 1.463 5.88-4.504c3.235-2.478 9.028-6.984 12.874-10.013 21.69-17.083 39.98-31.137 40.526-31.137.61 0 12.308 8.876 12.308 9.338 0 .215-2.272 2.092-5.05 4.17-2.778 2.077-8.08 6.177-11.784 9.11-3.704 2.933-16.407 12.85-28.23 22.04-11.823 9.189-22.453 17.49-23.622 18.448-1.169.957-2.451 1.73-2.849 1.719-.398-.011-2.821-1.702-5.385-3.755zm-1.813-42.142a4080.658 4080.658 0 0 1-15.54-12.135c-8.957-7.033-16.386-12.821-34.446-26.837-5.983-4.643-11.66-9.1-12.616-9.902l-1.738-1.461 11.062-8.651 15.724-12.298c2.564-2.006 7.925-6.149 11.914-9.206 3.989-3.057 8.884-6.875 10.878-8.485 1.994-1.61 7.763-6.121 12.82-10.026l9.194-7.1 9.195 7.1c5.057 3.905 10.826 8.417 12.82 10.026 1.994 1.61 6.89 5.43 10.878 8.489 8.308 6.372 17.475 13.5 29.93 23.278 7.065 5.546 8.568 6.947 8.029 7.487-.645.644-20.401 16.065-35.628 27.808-4.131 3.186-9.86 7.67-12.73 9.965-7.002 5.598-21.945 17.114-22.393 17.257-.198.063-3.506-2.326-7.352-5.31z"/></svg>