<svg xmlns="http://www.w3.org/2000/svg" width="192" height="192" viewBox="0 0 192 192"><path fill="none" stroke="#000" stroke-linecap="round" stroke-linejoin="round" stroke-width="8" d="M92.29 171.4c-3.252-1.16-5.444-3.057-6.977-6.04-1.693-3.293-1.802-7.49-.279-10.715 1.24-2.624 4.682-5.802 7.059-6.514 2.277-.684 5.54-.68 7.88.01 2.724.803 6.63 4.858 7.453 7.74 1.765 6.175-.663 12.15-5.996 14.763-3.213 1.574-6.163 1.818-9.14.756zm-48.388-31.24c0-2.955.007-2.968 2.366-5.52 4.563-4.935 8.087-11.385 9.749-17.843.996-3.872 1.719-13.538 1.736-23.233.022-11.217 1.306-22.952 3.18-29.032C64.375 53.357 73.1 44.058 83.838 40.12c1.524-.559 2.83-1.058 2.902-1.11.073-.053-.315-.957-.863-2.009-2.307-4.43-1.509-9.599 2.046-13.249 2.229-2.288 5.377-3.75 8.076-3.75 2.699 0 5.846 1.462 8.075 3.75 3.555 3.65 4.353 8.818 2.046 13.25-.548 1.051-.936 1.955-.863 2.007.073.053 1.379.552 2.902 1.11 10.765 3.948 19.455 13.208 22.907 24.412 1.885 6.12 3.16 17.969 3.176 29.545.015 9.329.742 18.823 1.742 22.72 1.655 6.45 5.181 12.906 9.746 17.843 2.36 2.552 2.366 2.565 2.366 5.52v2.962h-104.2z"/></svg>