<?xml version="1.0" encoding="UTF-8"?>
<svg id="SVGRoot" width="192px" height="192px" version="1.1" viewBox="0 0 192 192" xmlns="http://www.w3.org/2000/svg">
 <path d="m92.29 171.4c-3.252-1.1597-5.4444-3.0574-6.9771-6.0392-1.693-3.2938-1.8023-7.4904-0.27894-10.716 1.2395-2.6241 4.6824-5.8013 7.0589-6.5142 2.2776-0.68315 5.5403-0.67905 7.8794 0.0108 2.7245 0.80243 6.6298 4.8579 7.4537 7.7403 1.7648 6.174-0.66253 12.15-5.9961 14.762-3.2133 1.574-6.1628 1.818-9.1399 0.75632zm-48.388-31.24c0-2.9554 0.0072-2.968 2.3657-5.5203 4.5632-4.9344 8.0877-11.385 9.7492-17.843 0.99613-3.8719 1.7186-13.538 1.7364-23.233 0.02154-11.217 1.3057-22.952 3.1791-29.032 3.4436-11.175 12.169-20.474 22.907-24.411 1.5231-0.55844 2.8289-1.0581 2.9018-1.1104 0.07287-0.05211-0.31555-0.95583-0.86323-2.0079-2.3069-4.431-1.5088-9.5994 2.0459-13.249 2.2291-2.2882 5.3767-3.7498 8.0757-3.7498 2.6991 0 5.8467 1.4615 8.0757 3.7498 3.5547 3.6491 4.3528 8.8175 2.0459 13.249-0.54772 1.052-0.93619 1.9556-0.86324 2.0079 0.0729 0.05247 1.3788 0.55201 2.9018 1.1104 10.765 3.9471 19.455 13.207 22.907 24.411 1.8857 6.1194 3.1598 17.969 3.1767 29.545 0.0143 9.3288 0.74128 18.823 1.7412 22.72 1.6552 6.451 5.1814 12.906 9.7468 17.843 2.3603 2.5523 2.3657 2.5649 2.3657 5.5203v2.9621h-104.2z" fill="none" stroke="#000" stroke-linecap="round" stroke-linejoin="round" stroke-width="8"/>
</svg>
