<?xml version="1.0" encoding="UTF-8"?>
<svg id="SVGRoot" width="192px" height="192px" version="1.1" viewBox="0 0 192 192" xmlns="http://www.w3.org/2000/svg">
 <path d="m93.292 171.85c-3.9766-0.46252-7.6118-3.5227-8.9877-7.566-1.4608-4.2927-0.02096-9.4593 3.4089-12.232 2.4684-1.9955 4.5434-2.5945 9.8441-2.8417 4.1031-0.19133 9.2882-1.3058 12.187-2.6194 0.33514-0.15188 1.4319-0.65127 2.4373-1.1097 3.2871-1.499 6.915-4.1277 9.9179-7.1863 5.0478-5.1415 7.4034-9.6293 8.6703-16.518 1.2236-6.6532-0.43677-13.948-4.6557-20.456-1.4554-2.2449-6.4434-7.2754-8.6923-8.7665-2.4454-1.6213-6.4357-3.7302-8.4392-4.4601-4.4391-1.6173-7.115-2.1369-12.917-2.5077-3.8263-0.2446-4.4181-0.36238-6.1496-1.2242-3.5661-1.775-5.8446-5.2994-6.153-9.5176-0.36736-5.0255 2.8459-9.7273 7.7034-11.272 2.497-0.79406 10.021-0.51024 15.231 0.57449 5.029 1.0472 6.651 1.446 7.0073 1.723 0.16757 0.1303 0.78451 0.33821 1.371 0.46204 0.58649 0.12384 1.2034 0.3308 1.371 0.45991 0.16757 0.12911 0.64741 0.33755 1.0663 0.46317 2.1128 0.63362 7.3212 3.2392 10.359 5.1821 7.5921 4.8563 14.273 11.751 18.537 19.128 3.2602 5.6412 5.1443 10.913 6.5045 18.198 0.44661 2.3922 0.44661 13.009 0 15.401-1.1381 6.0962-2.4224 10.154-4.6567 14.715-6.6396 13.552-18.24 23.579-33.333 28.811-6.4561 2.2381-16.693 3.7329-21.631 3.1586zm-1.3698-43.371c-4.573-0.55763-10.836-1.7137-12.035-2.2216-0.33513-0.14191-1.7747-0.63727-3.199-1.1008-6.2217-2.0248-12.571-5.5828-18.35-10.283-2.6558-2.1601-7.6938-7.4198-9.1228-9.5242-2.7717-4.0819-3.3877-5.1-4.9521-8.1849-0.93372-1.8412-1.6985-3.5021-1.6996-3.6908-1e-3 -0.18875-0.19042-0.70852-0.42086-1.155-0.23043-0.44651-0.71316-1.8326-1.0727-3.0802-0.35956-1.2476-0.78653-2.6924-0.94882-3.2107-0.16229-0.51825-0.42654-2.043-0.58721-3.3883-0.97303-8.1468-0.97612-8.2292-0.48101-12.796 0.4665-4.3032 1.534-9.9695 1.9961-10.596 0.12506-0.16942 0.32758-0.79317 0.45007-1.3861 0.12248-0.59295 0.32718-1.2167 0.4549-1.3861 0.1277-0.16942 0.33391-0.65455 0.45822-1.0781 0.80402-2.7392 4.8194-9.657 7.7775-13.399 2.0692-2.6177 7.3269-7.724 10.199-9.905 2.6213-1.9908 8.6818-5.7256 9.9115-6.108 0.41342-0.12854 0.88876-0.34351 1.0563-0.47774 0.16756-0.13423 1.2644-0.60373 2.4373-1.0433 1.173-0.43962 2.4068-0.92417 2.742-1.0768 3.6209-1.649 11.494-3.0831 18.187-3.3127 4.1108-0.14101 4.9872-0.0867 6.2456 0.3867 3.0652 1.1532 5.1528 3.1489 6.5792 6.2896 0.48858 1.0758 0.63442 2.0413 0.65137 4.3124 0.0201 2.698-0.0552 3.0854-0.96594 4.9674-1.114 2.302-2.6556 3.8635-5.0184 5.083-1.3197 0.68114-2.2154 0.87386-4.9617 1.0676-8.4876 0.59874-12.465 1.5832-18.189 4.5018-5.5138 2.8115-11.03 7.8997-13.911 12.831-0.86071 1.4733-1.5658 2.7784-1.5668 2.9003-9.11e-4 0.12187-0.19042 0.58691-0.42086 1.0334-0.23044 0.44652 0.59707-1.6534-1.1406 3.0803-0.73802 2.0104-0.72162 2.8246-0.72162 7.8128 0 4.9619 0.0745 5.7786 0.70944 7.773 1.9631 6.1668 6.067 12.091 11.073 15.986 1.8915 1.4716 6.4787 4.2356 7.6143 4.588 0.39109 0.12138 0.84817 0.31845 1.0157 0.43797 0.34123 0.24336 2.2763 0.94346 4.57 1.6534 2.3227 0.7189 6.8779 1.4089 11.273 1.7074 3.6376 0.24712 4.0906 0.34683 5.5542 1.2226 1.8432 1.1028 3.2089 2.5228 3.9016 4.0567 0.26779 0.59294 0.64898 1.4118 0.8471 1.8198 0.21356 0.43968 0.35107 2.0702 0.33774 4.0043-0.0201 2.919-0.11227 3.4496-0.87518 5.0374-1.2222 2.5439-3.6123 4.6616-6.1585 5.4567-1.9367 0.60477-6.0713 0.78134-9.2421 0.39467z" fill="none" stroke="#000" stroke-linecap="round" stroke-linejoin="round" stroke-width="8"/>
</svg>
