<svg xmlns="http://www.w3.org/2000/svg" width="192" height="192" viewBox="0 0 192 192"><path fill="none" stroke="#000" stroke-linecap="round" stroke-linejoin="round" stroke-width="8" d="M93.292 171.85c-3.977-.463-7.612-3.523-8.988-7.566-1.46-4.293-.02-9.46 3.41-12.232 2.468-1.996 4.543-2.595 9.843-2.842 4.103-.191 9.288-1.306 12.187-2.62.335-.151 1.432-.65 2.438-1.109 3.287-1.499 6.915-4.128 9.917-7.186 5.048-5.142 7.404-9.63 8.67-16.518 1.224-6.653-.436-13.948-4.655-20.456-1.455-2.245-6.443-7.276-8.692-8.767-2.446-1.62-6.436-3.73-8.44-4.46-4.438-1.617-7.114-2.137-12.916-2.507-3.827-.245-4.418-.363-6.15-1.225-3.566-1.775-5.845-5.299-6.153-9.517-.367-5.026 2.846-9.728 7.703-11.272 2.497-.794 10.021-.51 15.231.574 5.03 1.047 6.651 1.446 7.008 1.723.167.13.784.338 1.37.462.587.124 1.204.331 1.372.46.167.13.647.338 1.066.463 2.113.634 7.321 3.24 10.359 5.183 7.592 4.856 14.273 11.75 18.537 19.128 3.26 5.64 5.144 10.913 6.504 18.198.447 2.392.447 13.009 0 15.4-1.138 6.097-2.422 10.155-4.656 14.716-6.64 13.552-18.24 23.579-33.333 28.81-6.456 2.239-16.693 3.733-21.631 3.16zm-1.37-43.371c-4.573-.558-10.836-1.714-12.035-2.222-.335-.142-1.774-.637-3.199-1.1-6.221-2.025-12.57-5.583-18.35-10.283-2.656-2.16-7.694-7.42-9.123-9.525-2.771-4.082-3.387-5.1-4.952-8.185-.933-1.84-1.698-3.502-1.7-3.69 0-.19-.19-.709-.42-1.155-.23-.447-.713-1.833-1.073-3.08-.36-1.248-.786-2.693-.949-3.211-.162-.518-.426-2.043-.587-3.389-.973-8.146-.976-8.229-.48-12.796.466-4.303 1.533-9.969 1.995-10.596.125-.169.328-.793.45-1.386.123-.593.327-1.216.455-1.386.128-.17.334-.654.458-1.078.804-2.739 4.82-9.657 7.778-13.399 2.07-2.618 7.327-7.724 10.199-9.905 2.621-1.99 8.682-5.725 9.911-6.108.414-.128.89-.343 1.057-.478.167-.134 1.264-.603 2.437-1.043 1.173-.44 2.407-.924 2.742-1.077 3.62-1.649 11.494-3.083 18.187-3.312 4.11-.141 4.987-.087 6.246.386 3.065 1.154 5.152 3.15 6.579 6.29.488 1.076.634 2.041.651 4.312.02 2.698-.055 3.086-.966 4.968-1.114 2.302-2.655 3.863-5.018 5.083-1.32.68-2.216.874-4.962 1.067-8.487.6-12.465 1.584-18.189 4.502-5.514 2.812-11.03 7.9-13.91 12.831-.862 1.473-1.567 2.779-1.568 2.9 0 .122-.19.587-.42 1.034-.231.446.597-1.654-1.141 3.08-.738 2.01-.722 2.825-.722 7.813 0 4.962.075 5.779.71 7.773 1.963 6.167 6.067 12.091 11.073 15.986 1.891 1.472 6.478 4.236 7.614 4.588.391.121.848.318 1.016.438.34.243 2.276.943 4.57 1.653 2.322.72 6.878 1.41 11.273 1.708 3.637.247 4.09.347 5.554 1.222 1.843 1.103 3.209 2.523 3.901 4.057.268.593.65 1.412.848 1.82.213.44.35 2.07.337 4.004-.02 2.92-.112 3.45-.875 5.038-1.222 2.543-3.612 4.661-6.158 5.456-1.937.605-6.072.782-9.242.395z"/></svg>