<svg xmlns="http://www.w3.org/2000/svg" width="192" height="192" viewBox="0 0 192 192"><g fill="none" stroke="#000" stroke-linecap="round" stroke-linejoin="round"><path stroke-width="8" d="m142.01 42.617 7.933-7.48c3.614-3.443 3.614-9.027-.001-12.49-3.615-3.462-9.517-3.462-13.134.02l-7.904 7.482c-19.681-13.52-46.225-13.52-65.905 0l-7.613-7.37c-3.633-3.471-9.531-3.471-13.146-.011-3.616 3.459-3.616 9.03-.018 12.479l7.904 7.425c-6.95 9.159-10.7 16.017-10.723 27.322v7.137c0 3.137 2.667 5.68 5.957 5.68h101.41c3.233-.075 5.813-2.596 5.812-5.68v-7.137c.039-11.31-3.662-18.19-10.577-27.377z" class="cls-1"/><path stroke-width="1.885" d="M30.498 47.077a13.006 13.006 0 0 1-13.005 0c-4.024-2.323-6.502-6.616-6.493-11.349v-5.27c0-.48.396-.867.876-.867h24.238c.48 0 .865.387.867.867L37 35.815c0 4.646-2.48 8.94-6.503 11.262z" style="paint-order:markers fill stroke" transform="matrix(4.3458 0 0 4.1434 -8.3 -30.183)"/><g stroke-width="1.654" transform="matrix(4.9533 0 0 4.7226 -33.33 -201.927)"><path d="M32.425 68.351a6.25 6.25 0 0 1-3.125 5.413 6.25 6.25 0 0 1-6.25 0" style="paint-order:markers fill stroke"/><path d="m28.314 69.634 3.036 5.381.214 2.22-1.736-1.25-2.793-5.025M25.291 70.901l-2.773 4.988-1.737 1.434.143-2.327 3.097-5.399" style="font-variation-settings:normal"/><path d="M25.086 63.016h2.077v1.813h.755c.638 0 1.152.527 1.152 1.18v2.84l-2.063 2.14a1.127 1.127 0 0 1-1.629 0l-2.174-2.233V66.01c0-.654.513-1.18 1.151-1.18h.731z" style="paint-order:markers fill stroke"/><circle cx="26.143" cy="67.178" r=".65" style="paint-order:markers fill stroke"/></g><ellipse cx="69.124" cy="60.579" stroke-width="8" rx="8.718" ry="8.312" style="mix-blend-mode:normal;paint-order:markers fill stroke"/><ellipse cx="123.23" cy="60.579" stroke-width="8" rx="8.718" ry="8.312" style="mix-blend-mode:normal;paint-order:markers fill stroke"/></g></svg>