<?xml version="1.0" encoding="UTF-8"?>
<svg id="SVGRoot" width="192px" height="192px" version="1.1" viewBox="0 0 192 192" xmlns="http://www.w3.org/2000/svg">
 <g fill="none" stroke="#000" stroke-linecap="round" stroke-linejoin="round">
  <path class="cls-1" d="m142.01 42.617 7.933-7.4808c3.6141-3.4417 3.6141-9.0263-9.6e-4 -12.489-3.6152-3.4624-9.5174-3.4624-13.134 0.02075l-7.904 7.4808c-19.681-13.519-46.225-13.519-65.905 0l-7.6134-7.37c-3.6329-3.4708-9.5307-3.4708-13.146-0.01122-3.6155 3.4594-3.6155 9.0314-0.01743 12.479l7.904 7.4254c-6.9498 9.1587-10.701 16.017-10.723 27.322v7.1373c0 3.1369 2.6671 5.6798 5.957 5.6798h101.41c3.2331-0.0752 5.8127-2.5963 5.8117-5.6798v-7.1373c0.0388-11.309-3.6623-18.189-10.577-27.377z" stroke-width="8"/>
  <g transform="matrix(4.3458 0 0 4.1434 -8.2995 -30.183)">
   <path d="m30.498 47.077c-4.0236 2.323-8.981 2.323-13.005 0-4.0236-2.323-6.5023-6.6162-6.4931-11.349v-5.2698c0-0.4803 0.39592-0.86697 0.87622-0.86697h24.238c0.4803 0 0.86532 0.38667 0.86698 0.86697l0.01849 5.3567c0 4.6461-2.4787 8.9393-6.5023 11.262z" stroke-width="1.8853" style="paint-order:markers fill stroke"/>
   <g transform="matrix(1.1398 0 0 1.1398 -5.7597 -41.45)" stroke-width="1.654">
    <path d="m32.425 68.351a6.25 6.25 0 0 1-3.125 5.4127 6.25 6.25 0 0 1-6.25 0" style="paint-order:markers fill stroke"/>
    <g>
     <path d="m23.574 76.807" stop-color="#000000" style="font-variation-settings:normal"/>
     <path d="m28.314 69.634 3.0357 5.3814 0.2141 2.2199-1.7354-1.2508-2.7935-5.0241" stop-color="#000000" style="font-variation-settings:normal"/>
     <path d="m25.291 70.901-2.7732 4.9878-1.7371 1.4343 0.14343-2.3267 3.0973-5.3989" stop-color="#000000" style="font-variation-settings:normal"/>
    </g>
    <path d="m25.086 63.016h2.0774v1.8134h0.75487c0.63807 0 1.1518 0.52637 1.1518 1.1802l5e-6 2.8397-2.0632 2.1396c-0.44849 0.46508-1.1781 0.46282-1.6288 0l-2.1744-2.2328 5e-6 -2.7465c0-0.65384 0.51368-1.1802 1.1518-1.1802h0.73061z" style="paint-order:markers fill stroke"/>
    <circle cx="26.143" cy="67.178" r=".65" style="paint-order:markers fill stroke"/>
   </g>
  </g>
  <ellipse cx="69.124" cy="60.579" rx="8.7177" ry="8.3123" stroke-width="8" style="mix-blend-mode:normal;paint-order:markers fill stroke"/>
  <ellipse cx="123.23" cy="60.579" rx="8.7177" ry="8.3123" stroke-width="8" style="mix-blend-mode:normal;paint-order:markers fill stroke"/>
 </g>
</svg>
