<svg xmlns="http://www.w3.org/2000/svg" xml:space="preserve" width="192" height="192" viewBox="0 0 192 192"><path fill="none" stroke="#000" stroke-linecap="round" stroke-linejoin="round" stroke-width="6" d="M22.336 143.51c-2.732-.911-2.663-.28-2.663-24.363v-21.56l.08-.836c.171-1.787 2.37-2.43 4.5-2.21 1.694.174 2.487.538 3.112 1.427.837 1.19.838 1.217.838 23.013v21.82l-.948 1.3c-1.088 1.493-3.013 2.044-4.92 1.408zm16.301.007c-2.809-.951-2.663.974-2.663-35.073 0-17.745.106-32.656.236-33.136.705-2.614 5.42-3.364 7.23-1.15l1.064 1.3.114 12.994.114 12.994h21.532l.113-12.994.114-12.994 1.064-1.3c1.81-2.214 6.525-1.464 7.23 1.15.13.48.236 15.392.236 33.136 0 36.26.174 34.111-2.843 35.082-2.442.785-4.738-.272-5.455-2.514-.273-.851-.421-6.058-.421-14.776v-13.46H44.694v13.46c0 8.718-.149 13.924-.421 14.776-.713 2.227-3.198 3.331-5.636 2.506zm53.482-.307c-5.858-2.242-9.806-8.282-11.07-16.934-.664-4.547-.252-14.175.767-17.944 1.182-4.37 2.943-7.874 5.146-10.24 2.82-3.028 5.008-3.93 9.477-3.908 5.005.025 7.471 1.348 10.439 5.598 2.451 3.51 3.568 6.61 4.178 11.6.59 4.818.205 8.167-1.163 10.113l-1.075 1.53H88.996l.25 1.214c1.172 5.686 3.531 8.681 7.307 9.278 2.443.386 5.686-.613 7.722-2.38 3.252-2.82 6.4-.172 6.05 5.091-.174 2.625-4.27 6.185-8.397 7.299-2.8.755-7.395.607-9.809-.317zm10.713-31.11c-.744-5.861-4.015-9.301-7.867-8.273-2.641.705-4.98 4.217-5.69 8.543l-.242 1.484h14.022zm16.551 31.417c-2.729-.925-2.663-.327-2.663-24.033 0-14.405.135-21.645.421-22.538.537-1.678 1.835-2.513 3.905-2.513 2.199 0 3.488 1.478 3.834 4.395l.265 2.234.933-1.697c1.987-3.611 6.61-5.962 9.498-4.827 2.438.958 3.135 6.877 1.105 9.39-.635.785-1.693 1.245-3.45 1.502-3.293.48-5.237 1.624-6.65 3.913l-1.142 1.85v13.927c0 8.317-.16 14.58-.397 15.548-.614 2.505-3.05 3.732-5.659 2.848zm29.617-.52c-3.559-1.368-5.678-3.043-6.771-5.353l-.868-1.833V72.806l.93-1.324c1.262-1.795 4.888-1.911 6.411-.206l1 1.118v24.758l1.499-1.088c3.008-2.184 8.602-2.343 12.436-.355 3.79 1.966 6.835 6.337 8.506 12.21.73 2.568.845 3.984.856 10.52.014 8.415-.487 11.155-2.983 16.308-1.481 3.058-5.15 6.776-7.905 8.008-3.174 1.42-9.731 1.54-13.112.242zm10.478-10.213c1.66-1.215 3.135-3.366 4.103-5.983.548-1.481.7-3.11.707-7.553.008-5.29-.067-5.859-1.129-8.614-1.672-4.337-3.97-6.226-7.552-6.205-2.035.012-3.075.31-4.302 1.23l-1.618 1.214.102 12.526.102 12.526 1.327.943c1.88 1.337 6.382 1.29 8.26-.084zM22.148 86.051c-1.733-.854-2.74-2.476-3.08-4.965-.328-2.39.044-4.153 1.295-6.146 2.027-3.229 6.478-2.583 7.83 1.134 2.19 6.03-1.544 12.194-6.045 9.977z"/></svg>