<svg xmlns="http://www.w3.org/2000/svg" width="192" height="192" viewBox="0 0 192 192"><path fill="none" stroke="#000" stroke-linecap="round" stroke-linejoin="round" stroke-width="8" d="M38.564 171.74c-3.795-.472-7.575-1.592-10.308-3.054-5.412-2.897-8.28-7.787-8.256-14.078.021-5.579 3.042-8.644 8.51-8.635 2.886.005 4.511.917 7.061 3.968 1.566 1.873 2.534 2.71 4.066 3.517 1.936 1.02 2.149 1.06 5.64 1.06 4.03 0 5.408-.354 9.058-2.32 4.17-2.248 9.303-6.765 13.22-11.635l2.358-2.931 2.778 2.314c1.528 1.273 3.115 2.55 3.526 2.84l.748.526-2.102 3.327c-9.993 15.82-19.632 23.828-30.249 25.128-2.934.36-2.947.36-6.05-.026zm71.289-17.117c-9.787-.584-20.564-4.006-29.485-9.363-1.447-.868-2.707-1.711-2.8-1.873-.094-.16.968-1.86 2.359-3.775 1.39-1.914 5.26-7.483 8.598-12.374l6.07-8.892 4.46 1.233c5.756 1.592 16.69 3.959 21.51 4.657 2.161.313 5.896.557 8.75.57 4.32.022 5.258-.068 7.094-.681 2.65-.886 4.036-2.272 4.29-4.29.408-3.257-2.179-5.347-8.258-6.67-4.077-.886-21.814-.801-29.829.143-3.152.372-5.757.648-5.789.614-.103-.11 13.236-17.14 13.511-17.25.146-.058 2.066.19 4.267.552 12.93 2.127 24.641 2.217 28.26.217 1.264-.699 1.95-2.195 1.692-3.685-.472-2.725-2.291-4.394-5.892-5.405-4.146-1.164-14.035-.463-22.547 1.6-1.701.411-9.529 1.557-9.529 1.496 0-.062 9.692-5.012 13.671-9.95l7.236-8.977 2.193.445c1.207.244 4.434.532 7.172.638 5.287.206 7.722-.154 9.795-1.448 2.17-1.354 3.025-4.67 1.58-6.12-1.036-1.041-3.335-1.392-6.462-.988-2.284.296-8.02 1.687-9.891 2.4l-7.308.516 7.308-.917c.46-.058 2.003-1.913 3.713-3.481 8.371-7.674 13.845-14.685 14.678-18.798.464-2.29-1.224-4.608-3.34-4.59-3.85.03-10.58 8.04-17.334 20.628l-1.64 3.057-.19-5.637c-.224-6.58-.812-9.202-2.494-11.107-.893-1.013-1.18-1.143-2.516-1.143-2.775 0-4.003 1.82-4.003 5.936 0 3.658 1.163 8.725 3.366 14.668.749 2.018.823 2.47.493 2.98-.647.998-12.756 17.308-12.814 17.26-.03-.026.086-1.714.256-3.753.4-4.79.123-13.952-.518-17.092-1.295-6.349-3.99-8.683-7.854-6.807-1.848.897-2.541 2.028-2.541 4.143 0 2.533.594 4.672 3.448 12.41 2.908 7.886 3.784 11.506 3.24 13.391-.444 1.532-2.829 5.078-9.122 13.561l-4.959 6.685-.19-7.256c-.264-10.033-1.028-13.88-4.09-20.59-1.81-3.965-4.302-7.162-5.918-7.59-1.05-.28-2.209.296-3.05 1.515-.526.761-.626 1.35-.602 3.548.034 3.15.29 3.935 4.262 13.106 4.648 10.731 5.875 15.716 4.919 19.978-.622 2.77-3.533 7.194-12.171 18.493-3.02 3.95-5.25 6.601-5.45 6.478-1.367-.842-4.303-3.673-5.789-5.58-6.209-7.969-11.006-19.248-13.085-30.765-3.073-17.023.303-32.067 9.868-43.975 4.895-6.094 16.957-14.654 29.034-20.604 19.528-9.62 39.92-14.738 63.514-15.94 6.532-.334 16.353-.14 17.074.336.436.289.979 6.054 1.441 15.304 1.148 22.983.246 42.721-2.69 58.867-4.436 24.387-14.04 42.263-27.895 51.922-8.733 6.089-19.01 8.74-31.078 8.02z"/></svg>