<?xml version="1.0" encoding="UTF-8"?>
<svg id="SVGRoot" width="192px" height="192px" version="1.1" viewBox="0 0 192 192" xml:space="preserve" xmlns="http://www.w3.org/2000/svg"><path d="m22.336 143.51c-2.7318-0.91144-2.6628-0.27946-2.6628-24.363v-21.56l0.07994-0.83564c0.17099-1.7873 2.3699-2.4297 4.4992-2.2105 1.6944 0.17441 2.4876 0.53803 3.1122 1.4267 0.83728 1.1913 0.83823 1.2173 0.83823 23.013v21.82l-0.94773 1.3006c-1.0877 1.4928-3.0132 2.0439-4.9191 1.4081zm16.301 7e-3c-2.8089-0.95138-2.6628 0.97386-2.6628-35.073 0-17.745 0.10597-32.656 0.23548-33.136 0.7049-2.614 5.4206-3.3644 7.2304-1.1506l1.0636 1.301 0.11392 12.994 0.11392 12.994h21.532l0.11392-12.994 0.11392-12.994 1.0636-1.301c1.8098-2.2138 6.5255-1.4633 7.2304 1.1506 0.12952 0.48029 0.23548 15.392 0.23548 33.136 0 36.26 0.17417 34.111-2.8432 35.082-2.4416 0.78549-4.7373-0.27246-5.4549-2.5138-0.27263-0.85146-0.42097-6.058-0.42097-14.776v-13.461h-21.608v13.461c0 8.7176-0.14834 13.924-0.42096 14.776-0.71291 2.2266-3.1975 3.3312-5.6354 2.5054zm53.482-0.30749c-5.8581-2.2417-9.8065-8.2815-11.07-16.934-0.66403-4.5468-0.25249-14.175 0.76697-17.944 1.1818-4.3695 2.9427-7.8735 5.1457-10.239 2.8204-3.029 5.0079-3.9312 9.4773-3.9088 5.0047 0.02518 7.4714 1.3479 10.439 5.5981 2.4514 3.5109 3.5676 6.6099 4.1784 11.601 0.58948 4.817 0.20426 8.1666-1.163 10.112l-1.0756 1.5306h-19.822l0.25018 1.2138c1.1719 5.6854 3.5312 8.681 7.307 9.2776 2.4434 0.38609 5.6865-0.61325 7.7225-2.3796 3.2517-2.8211 6.3993-0.17238 6.05 5.0911-0.17413 2.6243-4.2706 6.1848-8.397 7.2984-2.7999 0.7556-7.3953 0.60742-9.8091-0.3163zm10.713-31.109c-0.7437-5.8617-4.0147-9.3019-7.8667-8.2735-2.6415 0.70518-4.9801 4.2167-5.6895 8.5432l-0.24324 1.4835h14.022zm16.551 31.416c-2.729-0.9243-2.6628-0.32615-2.6628-24.033 0-14.405 0.13521-21.645 0.4209-22.538 0.53712-1.6775 1.8349-2.5124 3.9054-2.5124 2.1985 0 3.4872 1.4776 3.8337 4.3953l0.26514 2.2332 0.93286-1.6962c1.9864-3.6119 6.6102-5.9623 9.4974-4.8279 2.4387 0.95821 3.1352 6.8776 1.1049 9.3899-0.63485 0.78553-1.6922 1.2459-3.4498 1.5022-3.2927 0.48005-5.2369 1.6243-6.6492 3.9131l-1.1421 1.851v13.926c0 8.3169-0.16001 14.58-0.39723 15.548-0.61379 2.5056-3.0504 3.7319-5.6591 2.8484zm29.617-0.51945c-3.559-1.3678-5.6776-3.0426-6.7711-5.3527l-0.86763-1.833v-63.005l0.9305-1.3241c1.2615-1.7952 4.8869-1.9117 6.4107-0.20606l0.99885 1.1181v24.758l1.4996-1.0887c3.0079-2.1836 8.6019-2.343 12.436-0.35421 3.79 1.9658 6.8346 6.3364 8.5057 12.21 0.73045 2.5674 0.84578 3.984 0.85641 10.519 0.0137 8.4161-0.48744 11.156-2.9831 16.309-1.481 3.0581-5.1508 6.7757-7.9046 8.0076-3.1741 1.4199-9.7313 1.5407-13.112 0.24165zm10.478-10.213c1.6604-1.2153 3.1352-3.3659 4.1032-5.9834 0.54768-1.4808 0.7001-3.1098 0.70669-7.5523 8e-3 -5.2897-0.0668-5.8593-1.1289-8.6146-1.6718-4.337-3.9708-6.2257-7.5521-6.2043-2.035 0.0114-3.0744 0.30932-4.3015 1.2298l-1.6181 1.2138 0.10173 12.526 0.10173 12.526 1.3268 0.94321c1.8798 1.3363 6.3821 1.2902 8.2603-0.0847zm-137.33-46.733c-1.7331-0.85365-2.74-2.4765-3.0807-4.9655-0.3272-2.3902 0.04443-4.1526 1.296-6.1458 2.0271-3.2283 6.4782-2.5832 7.8293 1.1347 2.1911 6.0296-1.5435 12.194-6.0445 9.9767z" fill="none" stroke="#000" stroke-linecap="round" stroke-linejoin="round" stroke-width="6"/></svg>
