<?xml version="1.0" encoding="UTF-8"?>
<svg id="SVGRoot" width="192px" height="192px" version="1.1" viewBox="0 0 192 192" xmlns="http://www.w3.org/2000/svg">
 <path d="m38.564 171.74c-3.7947-0.47172-7.5755-1.592-10.308-3.0543-5.4118-2.8962-8.2799-7.7869-8.2559-14.078 0.0212-5.5784 3.0422-8.6438 8.5101-8.6351 2.8863 5e-3 4.5113 0.91782 7.0609 3.9682 1.566 1.8736 2.5335 2.7106 4.0663 3.5175 1.9354 1.0189 2.1485 1.0589 5.6392 1.0589 4.0299 0 5.4084-0.35305 9.0588-2.32 4.1702-2.247 9.3031-6.7642 13.22-11.634l2.358-2.9317 2.778 2.3144c1.5279 1.2729 3.1145 2.551 3.5257 2.8403l0.74767 0.52589-2.1016 3.3272c-9.9928 15.82-19.632 23.828-30.249 25.128-2.9341 0.35939-2.9472 0.35933-6.0508-0.0265zm71.289-17.117c-9.787-0.58414-20.564-4.0062-29.485-9.3626-1.447-0.86885-2.7073-1.7117-2.8006-1.873-0.0932-0.16131 0.96845-1.8601 2.3594-3.775 1.3909-1.9149 5.2601-7.4834 8.5983-12.374l6.0694-8.8926 4.461 1.2335c5.7556 1.5914 16.69 3.9587 21.509 4.6566 2.1619 0.31312 5.8964 0.5568 8.7501 0.57095 4.3199 0.0214 5.2584-0.0688 7.0941-0.68209 2.6508-0.88558 4.0368-2.2716 4.29-4.29 0.40866-3.2572-2.1784-5.3467-8.2572-6.669-4.0779-0.88703-21.814-0.80221-29.829 0.14265-3.1524 0.37168-5.7577 0.64796-5.7895 0.61396-0.10277-0.10987 13.236-17.14 13.511-17.25 0.1461-0.0584 2.0663 0.19003 4.2672 0.55211 12.929 2.127 24.641 2.2168 28.26 0.21644 1.2636-0.69852 1.9504-2.1945 1.692-3.6852-0.47239-2.7249-2.2914-4.3934-5.8925-5.4046-4.1453-1.1641-14.035-0.46266-22.547 1.5992-1.701 0.41204-9.5284 1.5581-9.5284 1.4963 0-0.06174 9.6918-5.0116 13.671-9.9493l7.2357-8.9776 2.1933 0.44496c1.2063 0.24473 4.4336 0.53217 7.1718 0.63875 5.2872 0.2058 7.7221-0.15434 9.7954-1.4488 2.1688-1.3541 3.0242-4.6693 1.5792-6.1205-1.0356-1.0401-3.3343-1.3911-6.4614-0.98679-2.2841 0.29534-8.0212 1.687-9.8916 2.3995l-7.3074 0.51633 7.3074-0.91695c0.46107-0.05786 2.0029-1.9134 3.7134-3.4815 8.3711-7.6742 13.845-14.685 14.678-18.798 0.46352-2.2891-1.224-4.6078-3.3409-4.5905-3.8496 0.03135-10.579 8.0402-17.333 20.629l-1.6401 3.0569-0.19103-5.6374c-0.22294-6.5789-0.81153-9.2013-2.4929-11.107-0.89308-1.0123-1.1801-1.1427-2.5158-1.1427-2.7756 0-4.003 1.82-4.003 5.9359 0 3.6582 1.1628 8.7252 3.3659 14.668 0.74837 2.0185 0.82303 2.4697 0.49295 2.9792-0.64714 0.99886-12.756 17.309-12.814 17.26-0.0296-0.02522 0.0857-1.7135 0.25602-3.7517 0.4003-4.7899 0.12259-13.952-0.51806-17.092-1.2956-6.3492-3.9894-8.6839-7.8546-6.8072-1.8478 0.89715-2.541 2.0274-2.541 4.143 0 2.5323 0.59456 4.672 3.4484 12.41 2.9083 7.8853 3.7841 11.506 3.2392 13.391-0.44296 1.5321-2.8279 5.0781-9.1209 13.561l-4.959 6.685-0.19053-7.2567c-0.26342-10.033-1.0276-13.88-4.0905-20.59-1.8096-3.9649-4.3014-7.1612-5.9169-7.5901-1.0504-0.27881-2.2093 0.29684-3.0509 1.5155-0.52586 0.76141-0.62578 1.3507-0.60163 3.5482 0.0346 3.1492 0.29009 3.9347 4.2624 13.106 4.6479 10.731 5.8752 15.716 4.9186 19.978-0.62166 2.7704-3.5327 7.1936-12.171 18.493-3.0199 3.9502-5.2505 6.6013-5.4506 6.4779-1.3658-0.84234-4.3019-3.6732-5.7881-5.5806-6.2089-7.9684-11.006-19.247-13.085-30.764-3.0729-17.023 0.30295-32.067 9.8674-43.975 4.8955-6.0949 16.957-14.654 29.034-20.604 19.528-9.6202 39.92-14.738 63.514-15.941 6.532-0.33296 16.353-0.13908 17.074 0.33705 0.43645 0.28837 0.97947 6.0532 1.4416 15.304 1.148 22.983 0.24573 42.721-2.691 58.867-4.4355 24.387-14.039 42.263-27.894 51.922-8.7333 6.0882-19.01 8.74-31.078 8.0197z" fill="none" stroke="#000" stroke-linecap="round" stroke-linejoin="round" stroke-width="8"/>
</svg>
