<?xml version="1.0" encoding="UTF-8"?>
<svg id="SVGRoot" width="192px" height="192px" version="1.1" viewBox="0 0 192 192" xmlns="http://www.w3.org/2000/svg">
 <g fill="none" stroke="#000" stroke-width="8">
  <path id="path" d="m93.03 172h-26.978c-5.188 0-10.376-1.2663-15.045-4.4319-9.3384-5.6982-14.526-15.195-16.602-27.858-0.5188-3.1656-0.5188-6.9644-0.5188-10.13v-60.147c0-6.9644 0.5188-13.929 3.1128-20.26 4.1504-12.029 11.932-18.361 22.308-20.893 3.1128-0.63313 6.7444-1.2663 9.8572-1.2663h47.73c1.0376 0 1.5564 0 2.0752-1.2663 1.5564-3.7988 4.6692-5.6982 7.782-5.6982h20.752c0.5188 0 1.5564 0 2.0752 0.63313 4.6692 1.2663 8.3008 5.6982 8.3008 11.396 0.5188 8.2307 0 17.094 0 25.325 0 1.2663 0 1.8994-0.5188 3.1656-0.5188 3.1656-2.0752 5.6982-4.6692 7.5975-1.0376 0.63313-1.0376 1.2663-1.0376 2.5325v58.248c0 6.9644-0.5188 13.929-3.1128 20.26-4.1504 12.029-11.932 18.994-22.308 20.893-3.1128 0.63313-6.7444 1.2662-9.8572 1.2662-7.2632 0.63314-15.045 0.63314-23.346 0.63314zm-48.248-27.858c0.5188 0 0.5188-0.63312 0.5188-0.63312 7.2632-5.6982 14.008-11.396 21.271-17.094 2.594-1.8994 5.188-3.1656 7.782-3.1656 3.6316 0 6.7444 1.8994 9.3384 5.065 5.7068 5.6982 12.451 5.6982 18.158 0 7.782-8.2307 15.564-16.461 23.865-24.692 4.6692-5.065 11.414-5.065 16.602-0.63313 0.5188 0 0.5188 0.63313 1.0376 0.63313v-32.923h-2.0752-14.526c-5.7068-0.63313-9.3384-5.065-9.8572-12.029-0.51879-6.3313 0-12.029 0-18.361v-1.8994h-1.5564-47.211c-2.594 0-4.6692 0-7.2632 0.63313-8.3008 1.8994-14.526 7.5975-16.602 18.361-1.0376 4.4319-1.0376 8.8638-1.0376 12.663v48.118 14.562c0 3.7988 0.5188 7.5975 1.5564 11.396zm89.234-101.3v1.8994 13.929c0 3.1656 1.5564 5.065 4.1504 4.4319 2.0752 0 3.6316-1.8994 3.6316-5.065v-13.929-1.8994c0.51879 0.63313 1.0376 1.2663 1.5564 1.2663 1.5564 1.2663 3.6316 1.2663 5.188 0 1.5564-1.8994 1.5564-4.4319 0-5.6982-2.594-3.1656-5.188-6.3313-7.782-9.4969-1.5564-1.8994-3.6316-1.8994-5.188 0-2.594 3.1656-5.188 6.3313-7.782 9.4969-1.5564 1.8994-1.0376 4.4319 0 5.6982 1.0376 1.8994 3.1128 1.8994 4.6692 0.63313 0.51879 0 1.0376-0.63313 1.5564-1.2663z"/>
  <path d="m75.39 87.794c-7.782 0-14.008-7.5975-14.008-17.094 0-9.4969 6.2256-17.094 14.526-17.094 7.782 0 14.008 7.5975 14.008 17.094-0.5188 9.4969-6.7444 17.094-14.526 17.094z"/>
 </g>
</svg>
