<svg xmlns="http://www.w3.org/2000/svg" width="192" height="192" viewBox="0 0 192 192"><g fill="none" stroke="#000" stroke-width="8"><path d="M93.03 172H66.052c-5.188 0-10.376-1.266-15.045-4.432-9.338-5.698-14.526-15.195-16.602-27.858-.519-3.166-.519-6.964-.519-10.13V69.433c0-6.964.519-13.929 3.113-20.26 4.15-12.029 11.932-18.36 22.308-20.893 3.113-.633 6.744-1.266 9.857-1.266h47.73c1.038 0 1.557 0 2.075-1.267 1.557-3.798 4.67-5.698 7.782-5.698h20.752c.52 0 1.557 0 2.076.633 4.669 1.267 8.3 5.699 8.3 11.396.52 8.231 0 17.094 0 25.325 0 1.267 0 1.9-.518 3.166-.52 3.166-2.076 5.698-4.67 7.598-1.037.633-1.037 1.266-1.037 2.532v58.248c0 6.964-.519 13.929-3.113 20.26-4.15 12.029-11.932 18.994-22.308 20.893-3.113.633-6.744 1.266-9.857 1.266-7.263.633-15.045.633-23.346.633zm-48.248-27.858c.519 0 .519-.633.519-.633 7.263-5.698 14.008-11.396 21.27-17.094 2.595-1.9 5.189-3.166 7.783-3.166 3.631 0 6.744 1.9 9.338 5.065 5.707 5.698 12.451 5.698 18.158 0 7.782-8.23 15.564-16.46 23.865-24.692 4.67-5.065 11.414-5.065 16.602-.633.519 0 .519.633 1.038.633V70.7h-16.601c-5.707-.633-9.339-5.065-9.858-12.029-.518-6.331 0-12.029 0-18.36v-1.9H68.13c-2.594 0-4.67 0-7.263.633-8.301 1.9-14.526 7.598-16.602 18.361-1.038 4.432-1.038 8.864-1.038 12.663v62.68c0 3.799.519 7.598 1.557 11.396zm89.234-101.3V58.67c0 3.166 1.556 5.065 4.15 4.432 2.076 0 3.632-1.9 3.632-5.065V42.208c.519.634 1.038 1.267 1.556 1.267 1.557 1.266 3.632 1.266 5.188 0 1.557-1.9 1.557-4.432 0-5.698l-7.782-9.497c-1.556-1.9-3.631-1.9-5.188 0l-7.782 9.497c-1.556 1.9-1.037 4.432 0 5.698 1.038 1.9 3.113 1.9 4.67.633.518 0 1.037-.633 1.556-1.266z"/><path d="M75.39 87.794c-7.782 0-14.008-7.598-14.008-17.094 0-9.497 6.226-17.094 14.526-17.094 7.782 0 14.008 7.597 14.008 17.094-.519 9.497-6.744 17.094-14.526 17.094z"/></g></svg>