<svg xmlns="http://www.w3.org/2000/svg" width="192" height="192" viewBox="0 0 192 192"><defs><filter id="a" x="0" y="0" filterUnits="userSpaceOnUse"><feGaussianBlur in="SourceAlpha" result="blur" stdDeviation="3"/></filter></defs><g fill="none" stroke="#000" stroke-linecap="round" stroke-linejoin="round"><path stroke-width="6.726" d="M8 62.9C5.5 72.3 23.4 74 32.3 77.6c2.2 1 1.2-3.2.1-4.2C25.2 69.8 10.2 69 8 62.9zm111.6 1c-2.7 8.9-25 13.1-33 17.8-2.1 1.2-3.2 6.3.4 4.3 9.6-5.3 35.8-10.7 32.6-22.1zM44.3 75.7c-3.3 0-5.3 1.6.6 3.7C52.6 80 63.7 83 66 84c3.8-6.5-21-8.3-21.7-8.3zm-21.1 8.5c-1.4-1.2-2.9 1-.9 2.8 3.5 3.8 22.6 7.9 26.3 11.5 1.8.9 1.2-2.5.1-3.6-3.4-3.4-20.5-7.3-25.5-10.7zm78.5 9.7c.2 3.5 15.8 7.6 15.2.1-.2-2.6-15.4-2.7-15.2-.1zm-6.1-.2c-3.4 7.1-11.3 2.5-19.8 11.1-2.3 1.7-1.3 6.2 1 3.8 8.7-8.2 16.4-3.7 19.4-12.6.2-1 0-1.6-.6-2.3zM31.5 106c4.5 5 9.8 1.8 11.5-5.7-.4-1.7-16.8.1-11.5 5.7zm67.2-5.8c-5.4 4.4 3.3 9.4 6 5.8 3.6-4.7-3.4-3.4-6-5.8zM43.5 105c-.9 1.2-.8 3 .3 4.2 3.6 3.6 12 .1 13.5 8.6 1.1 6.1 15.2 3.5 22-1.4 1.5-1.6 1.6-5.4-.3-4.4-29.8 13.4-10.8-3.8-35.5-7z" class="base-shadow" filter="url(#a)" transform="translate(16 32.294) scale(1.1893)"/><path stroke-width="8" d="M81.459 34.896 32.458 85.087c-18.554 18.554 12.012 17.008 23.073 24.025 5.114 3.33-16.413 7.612-12.012 12.012 4.282 4.4 25.809 8.444 30.091 12.726 4.282 4.4-8.682 9.039-4.4 13.44 4.162 4.4 14.152.238 15.936 10.228 1.309 7.374 18.316 3.687 25.928-2.617 4.758-4.043-8.206-4.043-3.924-8.444 10.704-10.823 20.219-4.876 24.144-14.867 2.14-5.352-16.175-9.158-11.3-12.607 11.657-8.207 54.473-12.369 34.73-32.112l-50.785-51.975c-6.304-5.947-16.651-5.947-22.48 0zm-11.775 76.951c1.07 0 36.632 4.757 22.954 8.444-5.233 1.428-29.258-8.444-22.954-8.444zm68.031 19.743c0 2.498 19.386 3.925 18.316-.595-1.546-7.611-16.175-7.017-18.316.595zm-82.66 13.202c4.4 3.806 11.061-.833 13.202-6.185-4.282-5.59-20.1.357-13.202 6.185zm80.281-7.969c-5.471 4.996.951 10.228 6.304 6.78 1.427-.952-.12-5.59-6.304-6.78z"/><path stroke-width="8" d="m99.849 50.729 19.386 19.743c1.784 1.784 1.784 5.471.714 6.541l-9.634-7.85-1.903 11.538-7.969-4.282-12.964 8.207-4.281-17.247-6.899 14.987-17.246-.12c-3.33 0-2.854-3.449.595-6.898 6.78-7.493 19.981-20.219 24.144-24.62 4.282-4.4 11.775-4.281 16.056 0z" class="full-specularity"/></g></svg>