<?xml version="1.0" encoding="UTF-8"?>
<svg id="SVGRoot" width="192px" height="192px" version="1.1" viewBox="0 0 192 192" xmlns="http://www.w3.org/2000/svg">
 <defs>
  <filter id="ShadowBlur" x="0" y="0" filterUnits="userSpaceOnUse">
   <feGaussianBlur in="SourceAlpha" result="blur" stdDeviation="3"/>
  </filter>
 </defs>
 <g fill="none" stroke="#000" stroke-linecap="round" stroke-linejoin="round">
  <path class="base-shadow" transform="matrix(1.1893 0 0 1.1893 16 32.294)" d="m8 62.9c-2.5 9.4 15.4 11.1 24.3 14.7 2.2 1 1.2-3.2 0.1-4.2-7.2-3.6-22.2-4.4-24.4-10.5zm111.6 1c-2.7 8.9-25 13.1-33 17.8-2.1 1.2-3.2 6.3 0.4 4.3 9.6-5.3 35.8-10.7 32.6-22.1zm-75.3 11.8c-3.3 0-5.3 1.6 0.6 3.7 7.7 0.6 18.8 3.6 21.1 4.6 3.8-6.5-21-8.3-21.7-8.3zm-21.1 8.5c-1.4-1.2-2.9 1-0.9 2.8 3.5 3.8 22.6 7.9 26.3 11.5 1.8 0.9 1.2-2.5 0.1-3.6-3.4-3.4-20.5-7.3-25.5-10.7zm78.5 9.7c0.2 3.5 15.8 7.6 15.2 0.1-0.2-2.6-15.4-2.7-15.2-0.1zm-6.1-0.2c-3.4 7.1-11.3 2.5-19.8 11.1-2.3 1.7-1.3 6.2 1 3.8 8.7-8.2 16.4-3.7 19.4-12.6 0.2-1 0-1.6-0.6-2.3zm-64.1 12.3c4.5 5 9.8 1.8 11.5-5.7-0.4-1.7-16.8 0.1-11.5 5.7zm67.2-5.8c-5.4 4.4 3.3 9.4 6 5.8 3.6-4.7-3.4-3.4-6-5.8zm-55.2 4.8c-0.9 1.2-0.8 3 0.3 4.2 3.6 3.6 12 0.1 13.5 8.6 1.1 6.1 15.2 3.5 22-1.4 1.5-1.6 1.6-5.4-0.3-4.4-29.8 13.4-10.8-3.8-35.5-7z" filter="url(#ShadowBlur)" stroke-width="6.7264"/>
  <path d="m81.459 34.896-49.001 50.191c-18.554 18.554 12.012 17.008 23.073 24.025 5.1142 3.3302-16.413 7.6118-12.012 12.012 4.2817 4.4006 25.809 8.4444 30.091 12.726 4.2817 4.4006-8.6822 9.039-4.4006 13.44 4.1627 4.4006 14.153 0.23787 15.937 10.228 1.3083 7.374 18.316 3.687 25.928-2.6166 4.7574-4.0438-8.2065-4.0438-3.9249-8.4444 10.704-10.823 20.219-4.8763 24.144-14.867 2.1408-5.3521-16.175-9.158-11.299-12.607 11.656-8.2065 54.472-12.369 34.729-32.112l-50.785-51.975c-6.3035-5.9467-16.651-5.9467-22.479 0zm-11.775 76.951c1.0704 0 36.632 4.7574 22.954 8.4444-5.2331 1.4272-29.258-8.4444-22.954-8.4444zm68.031 19.743c0 2.4976 19.386 3.9248 18.316-0.59468-1.5461-7.6118-16.175-7.0172-18.316 0.59468zm-82.66 13.202c4.4006 3.8059 11.061-0.83254 13.202-6.1846-4.2817-5.5899-20.1 0.35681-13.202 6.1846zm80.281-7.9686c-5.471 4.9953 0.95148 10.228 6.3036 6.7793 1.4272-0.95148-0.11894-5.5899-6.3036-6.7793z" stroke-width="8"/>
  <path id="icecap" class="full-specularity" d="m99.849 50.729 19.386 19.743c1.784 1.784 1.784 5.471 0.71361 6.5414l-9.6337-7.8497-1.903 11.537-7.9686-4.2817-12.964 8.2065-4.2817-17.246-6.8982 14.986-17.246-0.11894c-3.3302 0-2.8544-3.4491 0.59467-6.8982 6.7793-7.4929 19.981-20.219 24.144-24.62 4.2817-4.4006 11.775-4.2817 16.056 0z" stroke-width="8"/>
 </g>
</svg>
