<?xml version="1.0" encoding="UTF-8"?>
<svg id="SVGRoot" width="192px" height="192px" version="1.1" viewBox="0 0 192 192" xmlns="http://www.w3.org/2000/svg">
 <path d="m91.38 143.68c-15.114-1.2332-30.576-6.116-42.606-13.454-8.0634-4.9187-16.518-12.449-21.158-18.846-2.3237-3.2036-5.5039-9.6886-6.504-13.263-1.1228-4.0125-1.3539-12.58-0.45715-16.942 2.8349-13.787 13.506-24.819 28.959-29.94 10.862-3.5993 29.981-4.2735 48.085-1.6956 26.532 3.7777 53.582 15.491 67.302 29.143 7.0365 7.0018 8.9163 15.018 5.2902 22.558-1.2628 2.626-2.0636 3.4139-14.715 14.478-4.7868 4.186-10.466 9.2276-12.62 11.204-15.718 14.419-28.67 18.627-51.576 16.758zm44.6-33.042c-0.60406-2.0051-3.4159-8.77-4.6595-11.21-9.7532-19.136-27.859-33.954-48.703-39.861-10.414-2.9508-18.756-3.7092-23.992-2.1812-2.8301 0.826-5.4883 2.9143-6.5735 5.1642-2.1212 4.3977 0.55323 11.625 6.6378 17.937 12.084 12.536 31.749 23.029 52.282 27.897 6.4843 1.5372 16.748 2.9403 22.984 3.1419 2.2095 0.0714 2.3008 0.0314 2.0238-0.88845z" fill="none" stroke="#000" stroke-linecap="round" stroke-linejoin="round" stroke-width="8"/>
</svg>
