<svg xmlns="http://www.w3.org/2000/svg" width="192" height="192" viewBox="0 0 192 192"><path fill="none" stroke="#000" stroke-linecap="round" stroke-linejoin="round" stroke-width="8" d="M91.38 143.68c-15.114-1.233-30.576-6.116-42.606-13.454-8.063-4.919-16.518-12.449-21.158-18.846-2.324-3.204-5.504-9.689-6.504-13.263-1.123-4.013-1.354-12.58-.457-16.942 2.835-13.787 13.506-24.819 28.959-29.94 10.862-3.6 29.98-4.274 48.085-1.696C124.23 53.317 151.28 65.03 165 78.682c7.036 7.002 8.916 15.018 5.29 22.558-1.263 2.626-2.064 3.414-14.715 14.478-4.787 4.186-10.466 9.228-12.62 11.204-15.718 14.42-28.67 18.627-51.576 16.758zm44.6-33.042c-.604-2.005-3.416-8.77-4.66-11.21-9.753-19.136-27.859-33.954-48.703-39.861-10.414-2.95-18.756-3.71-23.992-2.181-2.83.826-5.488 2.914-6.573 5.164-2.121 4.398.553 11.625 6.638 17.937 12.084 12.536 31.749 23.029 52.282 27.897 6.484 1.537 16.748 2.94 22.984 3.142 2.21.071 2.3.031 2.024-.889z"/></svg>