<?xml version="1.0" encoding="UTF-8"?>
<svg id="SVGRoot" width="192px" height="192px" version="1.1" viewBox="0 0 192 192" xmlns="http://www.w3.org/2000/svg">
 <g stroke="#000" stroke-linecap="round" stroke-linejoin="round">
  <path d="m40.101 148.61h-23.601v-105.23h23.601v11.037h-16.34v83.152h16.34v11.039"/>
  <path d="m75.25 95.134c0-6.419-1.142-8.4368-1.9881-9.8088-1.4459-2.296-3.7978-3.7643-6.213-3.7643-1.0246 0-5.1286 0.18375-8.1448 6.6045v-5.5038h-9.654v1.9268h3.9245v33.936h-6.5193v-35.863h-9.7772v1.9268h4.1075v33.936h-4.1628v1.925h26.124v-1.925h-4.043v-16.046c0.05986-6.972 0.11742-12.474 2.9551-16.055 1.1466-1.3755 2.5326-2.198 3.8634-2.198 0.90369 0 2.9586 0.45326 3.5572 4.221 0.12203 0.91001 0.18419 1.6433 0.24521 5.4075v24.67h-3.8024v1.925h13.512v-1.925h-3.9843v-23.391"/>
  <path d="m43.351 74.703c2.2713 0 4.1167-2.8 4.1167-6.258 0-3.451-1.8454-6.2528-4.1167-6.2528-2.2736 0-4.1156 2.8018-4.1156 6.2528 0 3.458 1.8419 6.258 4.1156 6.258"/>
  <path d="m108.14 104.49c-0.12434 4.676-0.24176 7.889-2.1735 10.735-0.54451 0.7315-1.69 2.1105-3.3788 2.1105-1.9294 0-3.8024-1.9338-3.8024-6.4225 0-7.525 4.6486-9.6355 9.3547-9.7213zm6.9947 14.397c-1.3849 0-1.3849-2.1963-1.3849-5.3148v-19.173c0-3.486 0-6.5135-1.6865-9.17-1.5104-2.2015-4.3469-3.6715-7.2457-3.6715-6.0876 0-10.011 5.2325-10.011 9.7266 0 2.289 1.0223 4.305 2.657 4.305 1.6232 0 2.7721-1.925 2.7721-3.9375 0-2.114-1.2663-3.3075-1.2663-4.4065 0-1.3755 2.2299-3.85 4.9479-3.85 3.9809 0 4.0983 4.3085 4.2226 6.9703v9.1683c-2.2345 0-5.5523 0.3675-8.2069 1.5645-4.0442 1.9215-6.8186 5.866-6.8186 11.461 0 0.44975 0.02532 0.87675 0.06098 1.295-0.21988 1.6695-0.82311 4.7583-3.5607 4.7583-3.0138 0-2.9563-3.85-2.9563-6.6973v-27.33h6.4559v-1.925h-6.4559v-15.227h-0.90139c-0.30277 1.9268-0.72526 4.6795-3.0806 8.9898-1.5069 2.842-3.3178 5.411-5.5522 6.8775v1.2845h3.9267v23.111c0 4.683 0 6.7025 0.48005 8.4403 0.90485 3.6733 3.3189 5.4163 6.2752 5.4163 3.5676 0 5.2046-2.4098 6.0024-4.7285 1.0994 3.0363 3.411 4.7285 6.1244 4.7285 4.1029 0 6.761-3.577 8.0826-7.616 0.12433 1.834 0.30623 4.13 1.6934 5.873 0.90139 1.0973 2.1677 1.743 3.4997 1.743 2.5361 0 3.921-2.1105 4.5242-3.031l-0.72757-1.2845c-0.41788 0.553-1.0798 1.6503-1.8707 1.6503"/>
  <path d="m129.92 119.53c-3.1347 0-4.7671-2.6548-5.4291-5.6823-0.60668-2.5708-0.60668-6.055-0.60668-9.17 0-4.1318 0.0656-12.569 1.0303-16.142 1.2053-4.4975 3.7368-5.138 5.4291-5.138 3.2579 0 4.7671 2.2978 4.7671 3.115 0 0.36751-0.11857 0.55476-0.30276 0.91701-0.48121 0.735-1.2065 2.2015-1.2065 4.312 0 2.4815 1.0879 4.8615 2.8377 4.8615 1.7452 0 3.0726-2.2015 3.0726-5.138 0-4.585-3.4375-9.905-9.0473-9.905-7.119 0-13.155 8.5295-13.155 20.361 0 10.822 5.3704 19.633 12.43 19.633 6.517 0 9.7116-6.8828 10.561-13.391h-1.5092c-0.84383 5.502-3.799 11.366-8.8712 11.366"/>
  <path d="m155.8 113.39c-0.18074 1.463-0.60208 5.2255-3.6205 5.2255-3.0173 0-2.954-3.85-2.954-6.6973v-27.33h6.4536v-1.9268h-6.4536v-15.225h-0.90714c-0.29932 1.925-0.72411 4.6795-3.076 8.988-1.5081 2.8438-3.3201 5.411-5.5534 6.8793v1.2845h3.9233v23.111c0 4.683 0 6.7025 0.4835 8.4385 0.9037 3.675 3.3189 5.418 6.2752 5.418 5.6098 0 6.4559-5.9605 6.7564-8.1655h-1.3273"/>
  <path d="m175.5 148.61h-23.597v-11.039h16.338v-83.152h-16.338v-11.037h23.597v105.23"/>
 </g>
</svg>
