<svg xmlns="http://www.w3.org/2000/svg" width="192" height="192" viewBox="0 0 192 192"><g stroke="#000" stroke-linecap="round" stroke-linejoin="round"><path d="M40.101 148.61H16.5V43.38h23.601v11.037h-16.34v83.152h16.34v11.039"/><path d="M75.25 95.134c0-6.419-1.142-8.437-1.988-9.809-1.446-2.296-3.798-3.764-6.213-3.764-1.025 0-5.129.184-8.145 6.604v-5.503H49.25v1.926h3.925v33.936h-6.52V82.661h-9.777v1.927h4.108v33.936h-4.163v1.925h26.124v-1.925h-4.043v-16.046c.06-6.972.117-12.474 2.955-16.055 1.147-1.375 2.533-2.198 3.863-2.198.904 0 2.959.453 3.558 4.221.122.91.184 1.643.245 5.408v24.67h-3.803v1.925h13.512v-1.925H75.25V95.133m-31.899-20.43c2.271 0 4.117-2.8 4.117-6.258 0-3.451-1.846-6.253-4.117-6.253-2.274 0-4.116 2.802-4.116 6.253 0 3.458 1.842 6.258 4.116 6.258m64.789 29.787c-.124 4.676-.242 7.889-2.174 10.735-.544.732-1.69 2.11-3.378 2.11-1.93 0-3.803-1.933-3.803-6.422 0-7.525 4.649-9.636 9.355-9.721zm6.995 14.397c-1.385 0-1.385-2.196-1.385-5.315V94.4c0-3.486 0-6.513-1.687-9.17-1.51-2.201-4.347-3.671-7.245-3.671-6.088 0-10.011 5.232-10.011 9.726 0 2.29 1.022 4.305 2.657 4.305 1.623 0 2.772-1.925 2.772-3.937 0-2.114-1.267-3.308-1.267-4.407 0-1.375 2.23-3.85 4.948-3.85 3.981 0 4.099 4.309 4.223 6.97v9.169c-2.235 0-5.552.367-8.207 1.564-4.044 1.922-6.819 5.866-6.819 11.461 0 .45.026.877.061 1.295-.22 1.67-.823 4.759-3.56 4.759-3.014 0-2.957-3.85-2.957-6.698v-27.33h6.456V82.66h-6.456V67.433h-.901c-.303 1.927-.725 4.68-3.08 8.99-1.508 2.842-3.318 5.411-5.553 6.878v1.284h3.927v23.111c0 4.683 0 6.703.48 8.44.905 3.674 3.319 5.417 6.275 5.417 3.568 0 5.205-2.41 6.003-4.729 1.099 3.037 3.41 4.729 6.124 4.729 4.103 0 6.76-3.577 8.083-7.616.124 1.834.306 4.13 1.693 5.873.901 1.097 2.168 1.743 3.5 1.743 2.536 0 3.92-2.11 4.524-3.031l-.728-1.285c-.418.553-1.08 1.65-1.87 1.65m14.785.643c-3.135 0-4.767-2.655-5.43-5.682-.606-2.571-.606-6.055-.606-9.17 0-4.132.066-12.57 1.03-16.142 1.206-4.498 3.737-5.138 5.43-5.138 3.258 0 4.767 2.298 4.767 3.115 0 .367-.119.554-.303.917-.481.735-1.207 2.201-1.207 4.312 0 2.481 1.088 4.861 2.838 4.861 1.745 0 3.073-2.201 3.073-5.138 0-4.585-3.438-9.905-9.048-9.905-7.119 0-13.155 8.53-13.155 20.361 0 10.822 5.37 19.633 12.43 19.633 6.517 0 9.712-6.883 10.561-13.39h-1.509c-.844 5.501-3.799 11.365-8.87 11.365m25.879-6.139c-.18 1.463-.602 5.226-3.62 5.226-3.018 0-2.954-3.85-2.954-6.698v-27.33h6.453v-1.927h-6.453V67.436h-.908c-.299 1.925-.724 4.68-3.076 8.988-1.508 2.844-3.32 5.411-5.553 6.88v1.284h3.923V107.7c0 4.683 0 6.703.484 8.439.903 3.675 3.319 5.418 6.275 5.418 5.61 0 6.456-5.96 6.756-8.166H155.8"/><path d="M175.5 148.61h-23.597v-11.039h16.338V54.419h-16.338V43.382H175.5v105.23"/></g></svg>