<?xml version="1.0" encoding="UTF-8"?>
<svg id="SVGRoot" width="192px" height="192px" version="1.1" viewBox="0 0 192 192" xmlns="http://www.w3.org/2000/svg">
 <path d="m69.533 107.13-12.824-37.288-26.681-0.20182-1.2993-0.58548c-1.5447-0.69607-3.1416-2.276-4.1079-4.0643-1.3106-2.4256-3.3216-8.4897-4.2046-12.679-0.45594-2.1631-0.55535-4.4914-0.19676-4.6081 0.12249-0.03984 0.60926 0.27579 1.0817 0.7014 0.47246 0.42561 1.4275 1.0386 2.1224 1.3622 2.6691 1.243 1.6251 1.1981 27.941 1.2014l24.026 3e-3 0.71628 2.0687c2.3568 6.8067 19.653 55.799 19.774 56.009 0.08042 0.14048 4.7547-12.834 10.398-28.861l10.252-29.116 24.486-0.10623c21.863-0.09485 24.602-0.1415 25.571-0.43552 1.7232-0.52315 2.9785-1.1891 4.0069-2.1256 0.83533-0.76068 0.98803-0.83076 1.2188-0.55937 0.59279 0.69698-0.27523 5.2791-2.0889 11.027-1.985 6.291-3.8574 9.1619-6.705 10.281l-1.2395 0.48693-26.514 0.11222-12.822 37.281-12.822 37.281-27.264 0.1028zm-18.662 20.726c-2.5352-0.48826-4.4064-2.0683-5.9019-4.9834-2.3572-4.5947-5.1769-15.565-4.3158-16.791 0.1673-0.23827 0.37325-0.13954 1.1314 0.54239 1.0286 0.92515 2.3498 1.6365 4.0667 2.1894 1.0071 0.32436 2.2031 0.37902 10.428 0.47662l9.29 0.11023 3.0696 8.9812c1.6883 4.9397 3.1217 9.1401 3.1855 9.3344 0.10929 0.33329-0.45294 0.35195-9.9811 0.33108-5.5533-0.0122-10.491-0.0979-10.972-0.19062zm69.232 0.0638c0-0.0819 1.4186-4.3051 3.1525-9.3848l3.1525-9.2359h8.5422c9.3818 0 10.593-0.11155 12.972-1.1949 0.68254-0.31083 1.682-0.94785 2.2209-1.4156l0.9799-0.85045 0.24116 0.51648c0.48834 1.0458-0.64507 6.3298-2.6014 12.127-2.1012 6.2271-4.0608 8.6005-7.7279 9.3597-1.2367 0.25604-20.931 0.32941-20.931 0.078zm-78.719-29.115c-4.1674-0.59626-6.0808-2.6873-8.3151-9.0867-1.153-3.3025-2.3818-7.8458-2.7203-10.058-0.23534-1.538-0.12066-2.8547 0.24863-2.8547 0.11681 0 0.62533 0.37142 1.13 0.82538 1.0062 0.90505 2.3891 1.5901 4.2994 2.13 1.0729 0.30322 2.4648 0.36098 10.277 0.42642l9.0361 0.07569 3.1152 9.1193c1.7133 5.0156 3.1152 9.2328 3.1152 9.3716 0 0.19852-2.0378 0.24689-9.5659 0.22708-5.2612-0.01385-10.04-0.09306-10.62-0.17604zm91.044-6.2067c1.1786-3.5244 2.5954-7.7248 3.1485-9.3344l1.0056-2.9265 9.0826-0.11574c7.7346-0.09856 9.2668-0.16737 10.324-0.46362 1.9125-0.53612 3.2921-1.2212 4.3188-2.1446 1.2811-1.1523 1.4537-0.98231 1.3101 1.2899-0.1982 3.1344-2.5806 11.311-4.2993 14.754-1.5648 3.1356-3.625 4.7146-6.7072 5.1403-0.79629 0.11-5.6953 0.20181-10.887 0.204l-9.4389 4e-3z" fill="none" stroke="#000" stroke-linecap="round" stroke-linejoin="round" stroke-width="8" style="paint-order:normal"/>
</svg>
