<svg xmlns="http://www.w3.org/2000/svg" xml:space="preserve" width="192" height="192" viewBox="0 0 192 192"><path fill="none" stroke="#000" stroke-linecap="round" stroke-linejoin="round" stroke-width="8" d="M39.996 163.98c-10.848-2.36-18.557-10.105-19.83-19.922-1.11-8.57 4.01-20.416 12.959-29.984l3.647-3.899-3.81-3.671c-4.789-4.613-6.397-8.054-6.38-13.645.024-7.565 3.646-15.676 11.29-25.281C49.043 53.537 69.27 39.903 88.927 33.16c23.56-8.081 46.263-7.984 63.277.27 7.325 3.554 13.743 9.616 16.726 15.798 5.92 12.265 3.36 26.64-7.31 41.046-3.516 4.748-13.146 14.275-18.02 17.83-9.195 6.704-22.309 13.37-31.706 16.113l-4.652 1.36-2.19 4.27c-1.203 2.35-3.075 5.531-4.16 7.07-2.801 3.977-12.283 13.094-16.686 16.044-14.138 9.472-31.468 13.792-44.212 11.02zm76.102-55.358c10.689-11.665 12.442-26.062 4.154-34.111-7.456-7.242-21.78-9.105-36.115-4.7-14.113 4.338-29.55 14.386-32.85 21.381-1.207 2.56-1.51 7.501-.52 8.491.339.339 2.223-.187 4.699-1.31 14.118-6.4 30.573-7.392 40.416-2.433 6.633 3.34 11.003 8.872 12.342 15.62l.707 3.563 1.74-1.239c.958-.682 3.4-3.05 5.427-5.262z"/></svg>