<?xml version="1.0" encoding="UTF-8"?>
<svg id="SVGRoot" width="192px" height="192px" version="1.1" viewBox="0 0 192 192" xml:space="preserve" xmlns="http://www.w3.org/2000/svg"><path d="m39.996 163.98c-10.848-2.3603-18.557-10.105-19.83-19.922-1.1107-8.5701 4.0092-20.416 12.959-29.984l3.6471-3.8988-3.811-3.6715c-4.7877-4.6125-6.3963-8.0534-6.3788-13.645 0.02362-7.5648 3.6454-15.676 11.289-25.281 11.173-14.041 31.399-27.675 51.057-34.418 23.559-8.081 46.263-7.9839 63.277 0.27076 7.3247 3.5538 13.743 9.6158 16.726 15.798 5.9189 12.265 3.3588 26.64-7.3102 41.046-3.516 4.7476-13.146 14.275-18.02 17.829-9.1956 6.7047-22.309 13.37-31.706 16.114l-4.6519 1.3589-2.1893 4.2712c-1.2041 2.3491-3.0763 5.5304-4.1605 7.0695-2.8016 3.9771-12.283 13.094-16.686 16.044-14.138 9.4724-31.468 13.792-44.212 11.019zm76.102-55.358c10.689-11.665 12.442-26.062 4.1543-34.111-7.4567-7.2416-21.78-9.1054-36.115-4.6995-14.113 4.3376-29.551 14.386-32.85 21.381-1.2073 2.5597-1.5097 7.5008-0.51967 8.4908 0.33826 0.33825 2.2221-0.18684 4.6984-1.3096 14.118-6.4013 30.573-7.3922 40.416-2.4339 6.6332 3.3411 11.003 8.8722 12.342 15.621l0.70656 3.5626 1.7406-1.2394c0.95734-0.68166 3.3992-3.0495 5.4265-5.2618z" fill="none" stroke="#000" stroke-linecap="round" stroke-linejoin="round" stroke-width="8"/></svg>
