<svg xmlns="http://www.w3.org/2000/svg" width="192" height="192" viewBox="0 0 192 192"><path fill="none" stroke="#000" stroke-linecap="round" stroke-linejoin="round" stroke-width="8" d="M99.939 127.12c1.051 8.05-14.756 21.354-14.756 32.85a27.835 27.369 0 0 0 2.277 10.763c-43.348 8.525-61.081-27.252-60.03-40.943 2.89 3.1 6.83 8.137 15.57 6.07a47.109 46.32 0 0 1 .06-53.73s-1.181 13.045 6.832 20.407c0-14.078 11.56-21.439 11.56-30.74a32.224 31.684 0 0 0-4.203-15.757s17.34-1.162 23.382 10.333c.393-16.145 14.317-40.556 37.173-46.368-13.924 14.595 15.501 49.467 15.501 49.467a18.573 18.263 0 0 0 4.072-14.078c15.631 11.238 11.296 48.693 11.296 48.693s6.304.646 14.187-8.783c6.7 27.382-6.174 60.963-34.022 71.167-4.072-21.182-13.66-66.388-13.66-76.72 0-10.333 12.741-16.532 12.741-16.532s-44.268 8.783-44.268 26.994c0 0-13.4 7.362-14.12 10.462a13.025 12.807 0 0 0 0 5.683s19.637-13.626 31.393-3.293c.657 4.65-6.436 10.268-16.288 10.268s-11.69-3.552-11.69-3.552c-.067 5.425 6.173 22.448 6.173 17.178a7.038 6.92 0 0 1 7.947-7.362 39.113 38.458 0 0 0 12.873-2.475z" class="a"/></svg>