<?xml version="1.0" encoding="UTF-8"?>
<svg id="SVGRoot" width="192px" height="192px" version="1.1" viewBox="0 0 192 192" xmlns="http://www.w3.org/2000/svg">
 <path class="a" d="m99.939 127.12c1.051 8.0507-14.756 21.354-14.756 32.85a27.835 27.369 0 0 0 2.2768 10.763c-43.348 8.5247-61.081-27.252-60.03-40.943 2.8897 3.0998 6.8307 8.1368 15.57 6.0701a47.109 46.32 0 0 1 0.0611-53.73s-1.1822 13.045 6.8307 20.407c0-14.078 11.56-21.439 11.56-30.74a32.224 31.684 0 0 0-4.2023-15.757s17.339-1.1624 23.382 10.333c0.39287-16.145 14.317-40.556 37.173-46.368-13.924 14.595 15.501 49.467 15.501 49.467a18.573 18.263 0 0 0 4.0719-14.078c15.631 11.238 11.296 48.693 11.296 48.693s6.3035 0.64591 14.187-8.7828c6.6999 27.382-6.1738 60.963-34.022 71.167-4.0723-21.182-13.661-66.388-13.661-76.72 0-10.333 12.742-16.532 12.742-16.532s-44.268 8.7828-44.268 26.994c0 0-13.4 7.3619-14.121 10.462a13.025 12.807 0 0 0 0 5.683s19.638-13.626 31.394-3.2935c0.6569 4.6496-6.4363 10.268-16.288 10.268-9.8521 0-11.691-3.5519-11.691-3.5519-0.0658 5.4246 6.1738 22.448 6.1738 17.178a7.0385 6.9207 0 0 1 7.9471-7.3619 39.113 38.458 0 0 0 12.873-2.4749z" fill="none" stroke="#000" stroke-linecap="round" stroke-linejoin="round" stroke-width="8"/>
</svg>
