<?xml version="1.0" encoding="UTF-8"?>
<svg id="vector" version="1.1" viewBox="0 0 192 192" xmlns="http://www.w3.org/2000/svg">
 <path id="path" d="m44.935 75.314v70.786s0.082 10.595-6.505 14.388c-6.586 3.793-16.997 0.274-18.43-0.569m59.459-102.17v66.256s-0.029 6.61 5.71 9.923c5.739 3.312 14.623 2.482 18.696 0.25m-24.406-62.562h20.441m-48.692-41.853c-4.082 0-8.0001 1.752-10.887 4.866-2.886 3.115-4.509 7.343-4.509 11.748s1.623 8.633 4.509 11.748c2.887 3.114 6.805 4.866 10.887 4.866s8.0001-1.752 10.887-4.866c2.886-3.115 4.509-7.343 4.509-11.748s-1.623-8.633-4.509-11.748c-2.887-3.114-6.805-4.866-10.887-4.866z" fill="none" stroke="#000" stroke-linecap="round" stroke-linejoin="round" stroke-width="8"/>
 <path d="m46.873 49.016c-0.291 0-0.57 0.115-0.775 0.321-0.206 0.205-0.322 0.484-0.322 0.775s0.116 0.57 0.322 0.775c0.205 0.206 0.484 0.321 0.775 0.321s0.57-0.115 0.775-0.321c0.206-0.205 0.321-0.484 0.321-0.775s-0.115-0.57-0.321-0.775c-0.205-0.206-0.484-0.321-0.775-0.321zm76.378 22.6 17.299 22.916m14.151 0 17.299-22.916m-30.539 40.464-18.206 24.117m30.536-24.117 18.206 24.117" fill="none" stroke="#000" stroke-linecap="round" stroke-linejoin="round" stroke-width="8"/>
</svg>
