<?xml version="1.0" encoding="UTF-8"?>
<svg id="SVGRoot" width="192px" height="192px" version="1.1" viewBox="0 0 192 192" xmlns="http://www.w3.org/2000/svg">
 <g fill="none" stroke="#000" stroke-linecap="round" stroke-linejoin="round">
  <path class="a" d="m71.955 45.356v42.693a14.216 14.216 0 0 1-14.2 14.233 14.216 14.216 0 0 1-14.2-14.233v-4.7257" stroke-width="6"/>
  <polyline class="a" transform="matrix(4.1622 0 0 4.1622 -6.3919 -6.3919)" points="36 12.433 32.581 26.11 29.162 12.433 25.742 26.11 22.323 12.433" stroke-width="1.4416"/>
  <polyline class="a" transform="matrix(4.1622 0 0 4.1622 -6.3919 -6.3919)" points="8.5 29.556 8.5 35.567 11.506 35.567" stroke-width="1.4416"/>
  <g stroke-width="6">
   <line class="a" x1="47.919" x2="47.919" y1="116.62" y2="141.64"/>
   <path class="a" d="m77.395 141.64v-25.02h8.1916a8.403 8.403 0 0 1 0 16.806h-8.1916"/>
   <line class="a" x1="85.587" x2="93.777" y1="133.43" y2="141.64"/>
   <path class="a" d="m121.58 141.64v-25.02h8.1911a8.403 8.403 0 0 1 0 16.806h-8.1911"/>
   <line class="a" x1="129.77" x2="137.96" y1="133.43" y2="141.64"/>
  </g>
  <polyline class="a" transform="matrix(4.1622 0 0 4.1622 -6.3919 -6.3919)" points="39.5 29.556 37.509 32.561 35.517 29.556" stroke-width="1.4416"/>
  <g stroke-width="6">
   <line class="a" x1="149.73" x2="149.73" y1="141.64" y2="129.13"/>
   <path class="a" d="m65.011 129.13a6.2553 6.2553 0 1 1 0 12.51h-10.322v-25.02h10.322a6.2553 6.2553 0 1 1 0 12.51z"/>
   <line class="a" x1="65.011" x2="54.69" y1="129.13" y2="129.13"/>
   <line class="a" x1="99.312" x2="107.44" y1="141.57" y2="116.62"/>
   <line class="a" x1="115.58" x2="107.44" y1="141.64" y2="116.62"/>
   <line class="a" x1="112.85" x2="102.02" y1="133.27" y2="133.27"/>
   <path class="a" d="m162.18 16.5h-137.35a8.3243 8.3243 0 0 0-8.3243 8.3243v137.35a8.3243 8.3243 0 0 0 8.3243 8.3243h137.35a8.3243 8.3243 0 0 0 8.3243-8.3243v-137.35a8.3243 8.3243 0 0 0-8.3243-8.3243z"/>
  </g>
 </g>
</svg>
