<svg xmlns="http://www.w3.org/2000/svg" width="192" height="192" viewBox="0 0 192 192"><g fill="none" stroke="#000" stroke-linecap="round" stroke-linejoin="round"><path stroke-width="6" d="M71.955 45.356v42.693a14.216 14.216 0 0 1-14.2 14.233 14.216 14.216 0 0 1-14.2-14.233v-4.726" class="a"/><path stroke-width="6.0018924" d="m143.447 45.357-14.23 56.926-14.23-56.926-14.236 56.926-14.23-56.926M28.987 116.626v25.02h12.511" class="a"/><g stroke-width="6"><path d="M47.919 116.62v25.02M77.395 141.64v-25.02h8.192a8.403 8.403 0 0 1 0 16.806h-8.192M85.587 133.43l8.19 8.21M121.58 141.64v-25.02h8.191a8.403 8.403 0 0 1 0 16.806h-8.191M129.77 133.43l8.19 8.21" class="a"/></g><path stroke-width="6.0018924" d="m158.015 116.626-8.287 12.507-8.291-12.507" class="a"/><g stroke-width="6"><path d="M149.73 141.64v-12.51M65.011 129.13a6.255 6.255 0 1 1 0 12.51H54.689v-25.02h10.322a6.255 6.255 0 1 1 0 12.51zM65.011 129.13H54.69M99.312 141.57l8.128-24.95M115.58 141.64l-8.14-25.02M112.85 133.27h-10.83" class="a"/><path d="M162.18 16.5H24.83a8.324 8.324 0 0 0-8.324 8.324v137.35a8.324 8.324 0 0 0 8.324 8.325h137.35a8.324 8.324 0 0 0 8.324-8.325V24.824a8.324 8.324 0 0 0-8.324-8.324z" class="a"/></g></g></svg>