<?xml version="1.0" encoding="UTF-8"?>
<svg id="SVGRoot" width="192px" height="192px" version="1.1" viewBox="0 0 192 192" xmlns="http://www.w3.org/2000/svg">
 <path d="m134.67 171.64c0-0.19666 0.156-0.45407 0.34666-0.57203 0.75991-0.47008 3.9904-5.8206 7.8425-12.989 7.4166-13.802 11.77-18.946 18.898-22.332 2.762-1.3119 7.6845-2.792 8.0543-2.4218 0.10273 0.10283-0.47358 1.3649-1.2806 2.8046-0.80705 1.4398-2.5502 4.6697-3.8736 7.1777-7.1222 13.497-13.845 22.057-21.117 26.89-2.6726 1.776-2.7495 1.8-5.7896 1.8-1.6946 0-3.081-0.16092-3.081-0.35758zm-44.609-5.1919c-9.7293-1.405-16.249-3.1414-20.311-5.4094-4.5413-2.5356-12.55-8.5263-12.057-9.0193 0.06945-0.0695 1.2656 0.2876 2.6581 0.79352 13.146 4.7761 29.204 4.8249 45.276 0.13759 5.3188-1.5511 7.7066-2.3769 13.667-4.7267 7.6626-3.0206 8.6891-3.4735 19.842-8.7542 7.1929-3.4056 6.752-3.384 5.5837-0.275-4.4939 11.958-14.4 20.184-30.103 24.997-4.6012 1.4103-10.084 2.159-16.773 2.2906-3.6541 0.0718-7.1564 0.0566-7.7828-0.0339zm-6.8337-19.761c-24.4-2.521-47.51-18.574-57.594-40.007-3.0241-6.4279-3.4719-8.1079-3.455-12.963 0.0121-3.4902 0.2615-5.4793 1.2388-9.88 0.67303-3.0305 1.3511-6.1085 1.5067-6.84l0.28303-1.33 0.26349 1.52c1.1823 6.8201 4.6293 15.015 8.4037 19.978 8.1063 10.66 21.375 19.818 39.292 27.12 1.3572 0.55312 2.8094 1.16 3.227 1.3486 0.41761 0.18865 1.9552 0.78716 3.4168 1.33 1.4616 0.54285 3.5117 1.3147 4.5558 1.7153 2.156 0.82718 17.637 5.9856 25.057 8.349 2.7145 0.86466 5.1876 1.6573 5.4958 1.7614 1.0692 0.36124-5.9866 3.9653-11.047 5.6428-5.161 1.7108-15.245 2.8118-20.644 2.254zm5.3151-25.232c-7.0944-1.4107-13.774-4.35-19.236-8.4642-5.683-4.2811-11.483-11.394-15.097-18.513-1.9158-3.7739-4.1505-10.329-5.2466-15.39-0.87045-4.0193-0.99082-5.4612-1.0152-12.16-0.02914-8.0222 0.44569-11.39 2.8346-20.106 1.6719-6.0996 4.8713-12.442 7.5456-14.958 2.3842-2.2429 8.8516-7.5129 11.936-9.7263 2.6297-1.8869 3.1973-2.1398 4.8016-2.1398h1.8195l-2.0615 3.0827c-13.636 20.391-12.084 47.492 4.3592 76.147 3.7224 6.4868 9.855 15.052 14.807 20.682l2.0307 2.3084-2.0307-0.0418c-1.1169-0.023-3.5683-0.34748-5.4476-0.72117z" fill="none" stroke="#000" stroke-linecap="round" stroke-linejoin="round" stroke-width="8"/>
</svg>
