<svg xmlns="http://www.w3.org/2000/svg" width="192" height="192" viewBox="0 0 192 192"><path fill="none" stroke="#000" stroke-linecap="round" stroke-linejoin="round" stroke-width="8" d="M134.67 171.64c0-.197.156-.454.347-.572.76-.47 3.99-5.82 7.842-12.989 7.417-13.802 11.77-18.946 18.898-22.332 2.762-1.312 7.685-2.792 8.054-2.422.103.103-.473 1.365-1.28 2.805-.807 1.44-2.55 4.67-3.874 7.177-7.122 13.497-13.845 22.057-21.117 26.89-2.672 1.776-2.75 1.8-5.79 1.8-1.694 0-3.08-.16-3.08-.357zm-44.609-5.192c-9.73-1.405-16.249-3.141-20.311-5.41-4.541-2.535-12.55-8.526-12.057-9.019.07-.07 1.266.288 2.658.794 13.146 4.776 29.204 4.825 45.276.138 5.319-1.552 7.707-2.377 13.667-4.727 7.663-3.02 8.69-3.474 19.842-8.754 7.193-3.406 6.752-3.384 5.584-.275-4.494 11.958-14.4 20.184-30.103 24.997-4.601 1.41-10.084 2.159-16.773 2.29-3.654.072-7.157.057-7.783-.034zm-6.834-19.76c-24.4-2.522-47.51-18.575-57.594-40.008-3.024-6.428-3.472-8.108-3.455-12.963.012-3.49.262-5.48 1.24-9.88.672-3.03 1.35-6.108 1.506-6.84l.283-1.33.263 1.52c1.183 6.82 4.63 15.015 8.404 19.978 8.106 10.66 21.375 19.818 39.292 27.12 1.357.553 2.81 1.16 3.227 1.349.418.188 1.955.787 3.417 1.33 1.461.543 3.512 1.314 4.556 1.715 2.156.827 17.637 5.986 25.057 8.349 2.714.865 5.187 1.657 5.495 1.761 1.07.362-5.986 3.966-11.047 5.643-5.16 1.711-15.245 2.812-20.644 2.254zm5.315-25.233c-7.094-1.41-13.774-4.35-19.236-8.464-5.683-4.281-11.483-11.394-15.097-18.513-1.915-3.774-4.15-10.33-5.246-15.39-.87-4.02-.991-5.461-1.015-12.16-.03-8.022.445-11.39 2.834-20.106 1.672-6.1 4.871-12.442 7.546-14.958 2.384-2.243 8.851-7.513 11.936-9.726 2.63-1.887 3.197-2.14 4.801-2.14h1.82l-2.062 3.082c-13.636 20.391-12.084 47.492 4.36 76.147 3.722 6.487 9.855 15.052 14.807 20.682l2.03 2.309-2.03-.042c-1.117-.023-3.569-.347-5.448-.721z"/></svg>