<svg xmlns="http://www.w3.org/2000/svg" width="192" height="192" viewBox="0 0 192 192"><path fill="none" stroke="#000" stroke-linecap="round" stroke-linejoin="round" stroke-width="8" d="M20 96.515V61.03l15.754.618.426 17.497.426 17.497L47.4 80.445h9.291c5.111 0 9.292.187 9.292.417 0 .229-3.065 4.18-6.812 8.778-3.747 4.6-6.812 8.762-6.812 9.251 0 .49 3.073 7.401 6.83 15.36 3.757 7.958 7.055 15.207 7.33 16.11.426 1.403-.74 1.639-8.1 1.639h-8.598l-3.849-9.667c-2.117-5.316-4.111-9.666-4.432-9.666s-1.659 1.298-2.972 2.886c-2.123 2.565-2.388 3.64-2.388 9.666V132H20zm52.447 32.531c.994-5.476 4.333-13.765 7.212-17.9 1.572-2.26 6.575-7.904 11.117-12.543 4.541-4.64 9.06-9.721 10.04-11.293 2.343-3.758 2.27-8.062-.188-10.974-3.97-4.703-9.828-1.81-11.28 5.568-.56 2.841-.835 3.023-3.683 2.429-1.692-.353-4.91-.647-7.149-.654-4.81-.014-5.571-1.414-4.11-7.562 2.227-9.38 8.566-14.842 18.298-15.77 14.848-1.412 24.186 5.421 25.034 18.322.72 10.952-2.909 18.099-14.304 28.17-10.522 9.299-10.613 9.05 3.318 9.05h12.026v16.11H71.911zm79.29 2.279c-.33-.417-.6-3.323-.6-6.46v-5.7l-27.675-.591-.494-15.17 4.93-7.541a6408.284 6408.284 0 0 1 14.297-21.703L151.562 60l13.625.574.23 21.15.232 21.148 6.35.664v15.037l-6.304.66-.254 6.115-.254 6.114-6.425.31c-3.533.17-6.695-.031-7.025-.448zm-.446-38.531c.15-5.613.164-10.205.033-10.204-.298.003-3.744 4.96-9.52 13.697l-4.44 6.713h13.656l.27-10.206z"/></svg>