<?xml version="1.0" encoding="UTF-8"?>
<svg id="SVGRoot" width="192px" height="192px" version="1.1" viewBox="0 0 192 192" xmlns="http://www.w3.org/2000/svg">
 <path d="m20 96.515v-35.485l15.754 0.61764 0.42577 17.497 0.42577 17.497 10.794-16.197h9.2919c5.1106 0 9.2919 0.18765 9.2919 0.41701 0 0.22935-3.0655 4.1798-6.8123 8.7788-3.7468 4.599-6.8123 8.7619-6.8123 9.2509 0 0.48901 3.0737 7.4007 6.8304 15.359 3.7567 7.9586 7.0549 15.208 7.3292 16.11 0.42691 1.4032-0.7402 1.6395-8.0992 1.6395h-8.598l-3.849-9.6666c-2.117-5.3166-4.1116-9.6666-4.4325-9.6666s-1.6583 1.2988-2.9718 2.8861c-2.1229 2.5654-2.3883 3.6397-2.3883 9.6666v6.7805h-16.179zm52.447 32.531c0.9936-5.4758 4.3333-13.765 7.2117-17.9 1.5727-2.2594 6.5755-7.9036 11.117-12.543 4.5417-4.6392 9.0599-9.7212 10.04-11.293 2.3437-3.7581 2.2699-8.0615-0.18818-10.974-3.9686-4.7026-9.8279-1.8102-11.28 5.5685-0.55926 2.8409-0.83463 3.0225-3.6822 2.4285-1.6927-0.35314-4.9099-0.6474-7.1492-0.6539-4.8104-0.01396-5.5715-1.414-4.111-7.5625 2.228-9.3799 8.5673-14.842 18.299-15.769 14.848-1.413 24.186 5.4207 25.034 18.321 0.72007 10.952-2.9087 18.099-14.304 28.17-10.522 9.2993-10.613 9.05 3.3181 9.05h12.026v16.111h-46.867zm79.29 2.2789c-0.3302-0.4165-0.60037-3.323-0.60037-6.459v-5.7018l-27.675-0.59025-0.4939-15.169 4.9304-7.5422c2.7117-4.1482 9.1455-13.914 14.297-21.703l9.367-14.16 13.625 0.57448 0.23072 21.149 0.23072 21.149 6.3509 0.66402v15.037l-6.3045 0.66053-0.25392 6.1142-0.25392 6.1141-6.4248 0.30972c-3.5337 0.17036-6.695-0.031-7.0252-0.44752zm-0.44592-38.531c0.14923-5.6133 0.16381-10.205 0.0325-10.204-0.29771 0.0032-3.7436 4.9607-9.5202 13.697l-4.4388 6.7129h13.655l0.27132-10.206z" fill="none" stroke="#000" stroke-linecap="round" stroke-linejoin="round" stroke-width="8"/>
</svg>
