<?xml version="1.0" encoding="UTF-8"?>
<svg id="SVGRoot" width="192px" height="192px" version="1.1" viewBox="0 0 192 192" xmlns="http://www.w3.org/2000/svg">
 <defs>
  <clipPath id="clipPath15380">
   <path d="m-4 0.66016v123.59h237.47v-51.783c-6.0642 6.5254-13.876 0.97649-9.1367-7.9062-3.0731 0.02998-6.1621-2.9928-6.1621-9.0781v-15.723c-1e-5 -5.2744 2.3217-8.2457 4.9414-8.9258 0.97462-0.95876 2.3905-1.5631 4.1172-1.5859 1.7513-0.02312 3.8193 0.54992 6.0664 1.9531 0.14231 0.08887 0.0511 0.03291 0.17382 0.10938v-30.65z" fill="#f00"/>
  </clipPath>
 </defs>
 <g fill="none" stroke="#000" stroke-linecap="round" stroke-linejoin="round">
  <g stroke-width="8">
   <path d="m62.941 87.549v30.707a1.105 1.0886 0 0 0 1.105 1.0886h8.8129a1.105 1.0886 0 0 0 1.0848-1.0886v-31.915a1.105 1.0886 0 0 0-1.2599-1.082l-8.7859 1.2081a1.105 1.0886 0 0 0-0.95675 1.082zm45.944 0v30.707a1.105 1.0886 0 0 0 1.105 1.0886h8.8061a1.105 1.0886 0 0 0 1.105-1.0886v-31.915a1.105 1.0886 0 0 0-1.2599-1.082l-8.8062 1.2081a1.105 1.0886 0 0 0-0.95001 1.082zm45.911 0v30.707a1.105 1.0886 0 0 0 1.105 1.0886h8.8061a1.105 1.0886 0 0 0 1.105-1.0886v-31.915a1.105 1.0886 0 0 0-1.26-1.082l-8.8061 1.2081a1.105 1.0886 0 0 0-0.95002 1.082z" style="d:path('M 65.67 46.38 V 92.64 A 1.64 1.64 0 0 0 67.31 94.28 H 80.39 A 1.64 1.64 0 0 0 82 92.64 V 44.56 A 1.64 1.64 0 0 0 80.13 42.93 L 67.09 44.75 A 1.64 1.64 0 0 0 65.67 46.38 Z M 133.86 46.38 V 92.64 A 1.64 1.64 0 0 0 135.5 94.28 H 148.57 A 1.64 1.64 0 0 0 150.21 92.64 V 44.56 A 1.64 1.64 0 0 0 148.34 42.93 L 135.27 44.75 A 1.64 1.64 0 0 0 133.86 46.38 Z M 202 46.38 V 92.64 A 1.64 1.64 0 0 0 203.64 94.28 H 216.71 A 1.64 1.64 0 0 0 218.35 92.64 V 44.56 A 1.64 1.64 0 0 0 216.48 42.93 L 203.41 44.75 A 1.64 1.64 0 0 0 202 46.38 Z')"/>
   <ellipse cx="68.453" cy="71.14" rx="6.8522" ry="6.7508"/>
   <ellipse cx="91.428" cy="63.513" rx="6.8522" ry="6.7508"/>
   <ellipse cx="114.4" cy="71.14" rx="6.8522" ry="6.7508"/>
   <ellipse cx="137.37" cy="63.513" rx="6.8522" ry="6.7508"/>
   <ellipse cx="160.34" cy="71.14" rx="6.8522" ry="6.7508"/>
  </g>
  <path transform="matrix(.67377 0 0 .66379 18.695 56.762)" d="m32.24 59.57 21.61-25.57a1.64 1.64 0 0 0-1.25-2.72h-16.26a1.64 1.64 0 0 0-1.28 0.61l-17.86 22a0.48 0.48 0 0 1-0.85-0.3v-47.29a1.64 1.64 0 0 0-1.64-1.64l-13.07 1.92c-1.01 0.17-1.64 0.73-1.64 1.64v84.42a1.64 1.64 0 0 0 1.64 1.64h13.08a1.64 1.64 0 0 0 1.64-1.64v-25.64a0.51 0.51 0 0 1 0.93-0.29l18.79 26.87a1.64 1.64 0 0 0 1.35 0.7h16a1.64 1.64 0 0 0 1.31-2.64l-22.51-31.64a0.37 0.37 0 0 1 0.01-0.43zm82.01-28.12-13.07 1.82a1.64 1.64 0 0 0-1.42 1.63v58.29a47.94 47.94 0 0 1-0.26 5.08 12 12 0 0 1-1.13 4.08 6.56 6.56 0 0 1-2.43 2.65 8 8 0 0 1-4.2 1 19 19 0 0 1-2-0.13l-0.84-0.12c-1.55-0.32-2 0.53-2.11 1 0 0.22-0.12 0.79-0.12 0.79-0.42 3-1.08 7.45-1.39 10a1.82 1.82 0 0 0 1.63 2.09c0.51 0.09 1.06 0.17 1.72 0.26a40.58 40.58 0 0 0 4.56 0.32c4.71 0 8.59-0.76 11.53-2.25a18.51 18.51 0 0 0 7-6 22.74 22.74 0 0 0 3.5-8.84 59.86 59.86 0 0 0 0.91-10.64v-59.41a1.64 1.64 0 0 0-1.88-1.62zm68.59 1.34-13.07-1.4a1.64 1.64 0 0 0-1.77 1.61v60.19a47.94 47.94 0 0 1-0.26 5.08 12 12 0 0 1-1.13 4.08 6.56 6.56 0 0 1-2.44 2.69 8 8 0 0 1-4.2 1 19 19 0 0 1-2-0.13l-0.84-0.12c-1.55-0.32-2 0.53-2.11 1 0 0.22-0.12 0.79-0.12 0.79-0.42 3-1.08 7.45-1.39 10a1.82 1.82 0 0 0 1.63 2.09c0.51 0.09 1.06 0.17 1.72 0.26a40.58 40.58 0 0 0 4.56 0.32c4.71 0 8.59-0.76 11.53-2.25a18.51 18.51 0 0 0 7-6 22.74 22.74 0 0 0 3.5-8.84 59.86 59.86 0 0 0 0.91-10.64v-58.09a1.64 1.64 0 0 0-1.52-1.64zm42.33 10.9h-1.17v3h-0.71v-3h-1.18v-0.69h3.07zm4.3 2.96h-0.72v-2.3l-0.1 0.32-0.82 2h-0.6l-0.82-2-0.1-0.32v2.3h-0.71v-3.65h0.82l1 2.34 0.08 0.21 0.08-0.21 1-2.34h0.82z" clip-path="url(#clipPath15380)" stroke-width="11.962" style="d:path('M 32.24 59.57 L 53.85 34 A 1.64 1.64 0 0 0 52.6 31.28 H 36.34 A 1.64 1.64 0 0 0 35.06 31.89 L 17.2 53.89 A 0.48 0.48 0 0 1 16.35 53.59 V 6.3 A 1.64 1.64 0 0 0 14.71 4.66 L 1.64 6.58 C 0.63 6.75 0 7.31 0 8.22 V 92.64 A 1.64 1.64 0 0 0 1.64 94.28 H 14.72 A 1.64 1.64 0 0 0 16.36 92.64 V 67 A 0.51 0.51 0 0 1 17.29 66.71 L 36.08 93.58 A 1.64 1.64 0 0 0 37.43 94.28 H 53.43 A 1.64 1.64 0 0 0 54.74 91.64 L 32.23 60 A 0.37 0.37 0 0 1 32.24 59.57 Z M 114.25 31.45 L 101.18 33.27 A 1.64 1.64 0 0 0 99.76 34.9 V 93.19 A 47.94 47.94 0 0 1 99.5 98.27 A 12 12 0 0 1 98.37 102.35 A 6.56 6.56 0 0 1 95.94 105 A 8 8 0 0 1 91.74 106 A 19 19 0 0 1 89.74 105.87 L 88.9 105.75 C 87.35 105.43 86.9 106.28 86.79 106.75 C 86.79 106.97 86.67 107.54 86.67 107.54 C 86.25 110.54 85.59 114.99 85.28 117.54 A 1.82 1.82 0 0 0 86.91 119.63 C 87.42 119.72 87.97 119.8 88.63 119.89 A 40.58 40.58 0 0 0 93.19 120.21 C 97.9 120.21 101.78 119.45 104.72 117.96 A 18.51 18.51 0 0 0 111.72 111.96 A 22.74 22.74 0 0 0 115.22 103.12 A 59.86 59.86 0 0 0 116.13 92.48 V 33.07 A 1.64 1.64 0 0 0 114.25 31.45 Z M 182.84 32.79 L 169.77 31.39 A 1.64 1.64 0 0 0 168 33 V 93.19 A 47.94 47.94 0 0 1 167.74 98.27 A 12 12 0 0 1 166.61 102.35 A 6.56 6.56 0 0 1 164.17 105.04 A 8 8 0 0 1 159.97 106.04 A 19 19 0 0 1 157.97 105.91 L 157.13 105.79 C 155.58 105.47 155.13 106.32 155.02 106.79 C 155.02 107.01 154.9 107.58 154.9 107.58 C 154.48 110.58 153.82 115.03 153.51 117.58 A 1.82 1.82 0 0 0 155.14 119.67 C 155.65 119.76 156.2 119.84 156.86 119.93 A 40.58 40.58 0 0 0 161.42 120.25 C 166.13 120.25 170.01 119.49 172.95 118 A 18.51 18.51 0 0 0 179.95 112 A 22.74 22.74 0 0 0 183.45 103.16 A 59.86 59.86 0 0 0 184.36 92.52 V 34.43 A 1.64 1.64 0 0 0 182.84 32.79 Z M 225.17 43.69 H 224 V 46.69 H 223.29 V 43.69 H 222.11 V 43 H 225.18 Z M 229.47 46.65 H 228.75 V 44.35 L 228.65 44.67 L 227.83 46.67 H 227.23 L 226.41 44.67 L 226.31 44.35 V 46.65 H 225.6 V 43 H 226.42 L 227.42 45.34 L 227.5 45.55 L 227.58 45.34 L 228.58 43 H 229.4 Z')"/>
 </g>
</svg>
