<svg xmlns="http://www.w3.org/2000/svg" width="192" height="192" viewBox="0 0 192 192"><defs><clipPath id="a"><path fill="red" d="M-4 .66v123.59h237.47V72.467c-6.064 6.526-13.876.977-9.137-7.906-3.073.03-6.162-2.993-6.162-9.078V39.76c0-5.275 2.322-8.246 4.942-8.926.974-.959 2.39-1.563 4.117-1.586 1.751-.023 3.82.55 6.066 1.953l.174.11V.66z"/></clipPath></defs><g fill="none" stroke="#000" stroke-linecap="round" stroke-linejoin="round"><g stroke-width="8"><path d="M62.941 87.549v30.707a1.105 1.089 0 0 0 1.105 1.089h8.813a1.105 1.089 0 0 0 1.085-1.089V86.341a1.105 1.089 0 0 0-1.26-1.082l-8.786 1.208a1.105 1.089 0 0 0-.957 1.082zm45.944 0v30.707a1.105 1.089 0 0 0 1.105 1.089h8.806a1.105 1.089 0 0 0 1.105-1.089V86.341a1.105 1.089 0 0 0-1.26-1.082l-8.806 1.208a1.105 1.089 0 0 0-.95 1.082zm45.911 0v30.707a1.105 1.089 0 0 0 1.105 1.089h8.806a1.105 1.089 0 0 0 1.105-1.089V86.341a1.105 1.089 0 0 0-1.26-1.082l-8.806 1.208a1.105 1.089 0 0 0-.95 1.082z" style="d:path(&quot;M 65.67 46.38 V 92.64 A 1.64 1.64 0 0 0 67.31 94.28 H 80.39 A 1.64 1.64 0 0 0 82 92.64 V 44.56 A 1.64 1.64 0 0 0 80.13 42.93 L 67.09 44.75 A 1.64 1.64 0 0 0 65.67 46.38 Z M 133.86 46.38 V 92.64 A 1.64 1.64 0 0 0 135.5 94.28 H 148.57 A 1.64 1.64 0 0 0 150.21 92.64 V 44.56 A 1.64 1.64 0 0 0 148.34 42.93 L 135.27 44.75 A 1.64 1.64 0 0 0 133.86 46.38 Z M 202 46.38 V 92.64 A 1.64 1.64 0 0 0 203.64 94.28 H 216.71 A 1.64 1.64 0 0 0 218.35 92.64 V 44.56 A 1.64 1.64 0 0 0 216.48 42.93 L 203.41 44.75 A 1.64 1.64 0 0 0 202 46.38 Z&quot;)"/><ellipse cx="68.453" cy="71.14" rx="6.852" ry="6.751"/><ellipse cx="91.428" cy="63.513" rx="6.852" ry="6.751"/><ellipse cx="114.4" cy="71.14" rx="6.852" ry="6.751"/><ellipse cx="137.37" cy="63.513" rx="6.852" ry="6.751"/><ellipse cx="160.34" cy="71.14" rx="6.852" ry="6.751"/></g><path stroke-width="11.962" d="M32.24 59.57 53.85 34a1.64 1.64 0 0 0-1.25-2.72H36.34a1.64 1.64 0 0 0-1.28.61l-17.86 22a.48.48 0 0 1-.85-.3V6.3a1.64 1.64 0 0 0-1.64-1.64L1.64 6.58C.63 6.75 0 7.31 0 8.22v84.42a1.64 1.64 0 0 0 1.64 1.64h13.08a1.64 1.64 0 0 0 1.64-1.64V67a.51.51 0 0 1 .93-.29l18.79 26.87a1.64 1.64 0 0 0 1.35.7h16a1.64 1.64 0 0 0 1.31-2.64L32.23 60a.37.37 0 0 1 .01-.43zm82.01-28.12-13.07 1.82a1.64 1.64 0 0 0-1.42 1.63v58.29a47.94 47.94 0 0 1-.26 5.08 12 12 0 0 1-1.13 4.08 6.56 6.56 0 0 1-2.43 2.65 8 8 0 0 1-4.2 1 19 19 0 0 1-2-.13l-.84-.12c-1.55-.32-2 .53-2.11 1 0 .22-.12.79-.12.79-.42 3-1.08 7.45-1.39 10a1.82 1.82 0 0 0 1.63 2.09c.51.09 1.06.17 1.72.26a40.58 40.58 0 0 0 4.56.32c4.71 0 8.59-.76 11.53-2.25a18.51 18.51 0 0 0 7-6 22.74 22.74 0 0 0 3.5-8.84 59.86 59.86 0 0 0 .91-10.64V33.07a1.64 1.64 0 0 0-1.88-1.62zm68.59 1.34-13.07-1.4A1.64 1.64 0 0 0 168 33v60.19a47.94 47.94 0 0 1-.26 5.08 12 12 0 0 1-1.13 4.08 6.56 6.56 0 0 1-2.44 2.69 8 8 0 0 1-4.2 1 19 19 0 0 1-2-.13l-.84-.12c-1.55-.32-2 .53-2.11 1 0 .22-.12.79-.12.79-.42 3-1.08 7.45-1.39 10a1.82 1.82 0 0 0 1.63 2.09c.51.09 1.06.17 1.72.26a40.58 40.58 0 0 0 4.56.32c4.71 0 8.59-.76 11.53-2.25a18.51 18.51 0 0 0 7-6 22.74 22.74 0 0 0 3.5-8.84 59.86 59.86 0 0 0 .91-10.64V34.43a1.64 1.64 0 0 0-1.52-1.64zm42.33 10.9H224v3h-.71v-3h-1.18V43h3.07zm4.3 2.96h-.72v-2.3l-.1.32-.82 2h-.6l-.82-2-.1-.32v2.3h-.71V43h.82l1 2.34.08.21.08-.21 1-2.34h.82z" clip-path="url(#a)" style="d:path(&quot;M 32.24 59.57 L 53.85 34 A 1.64 1.64 0 0 0 52.6 31.28 H 36.34 A 1.64 1.64 0 0 0 35.06 31.89 L 17.2 53.89 A 0.48 0.48 0 0 1 16.35 53.59 V 6.3 A 1.64 1.64 0 0 0 14.71 4.66 L 1.64 6.58 C 0.63 6.75 0 7.31 0 8.22 V 92.64 A 1.64 1.64 0 0 0 1.64 94.28 H 14.72 A 1.64 1.64 0 0 0 16.36 92.64 V 67 A 0.51 0.51 0 0 1 17.29 66.71 L 36.08 93.58 A 1.64 1.64 0 0 0 37.43 94.28 H 53.43 A 1.64 1.64 0 0 0 54.74 91.64 L 32.23 60 A 0.37 0.37 0 0 1 32.24 59.57 Z M 114.25 31.45 L 101.18 33.27 A 1.64 1.64 0 0 0 99.76 34.9 V 93.19 A 47.94 47.94 0 0 1 99.5 98.27 A 12 12 0 0 1 98.37 102.35 A 6.56 6.56 0 0 1 95.94 105 A 8 8 0 0 1 91.74 106 A 19 19 0 0 1 89.74 105.87 L 88.9 105.75 C 87.35 105.43 86.9 106.28 86.79 106.75 C 86.79 106.97 86.67 107.54 86.67 107.54 C 86.25 110.54 85.59 114.99 85.28 117.54 A 1.82 1.82 0 0 0 86.91 119.63 C 87.42 119.72 87.97 119.8 88.63 119.89 A 40.58 40.58 0 0 0 93.19 120.21 C 97.9 120.21 101.78 119.45 104.72 117.96 A 18.51 18.51 0 0 0 111.72 111.96 A 22.74 22.74 0 0 0 115.22 103.12 A 59.86 59.86 0 0 0 116.13 92.48 V 33.07 A 1.64 1.64 0 0 0 114.25 31.45 Z M 182.84 32.79 L 169.77 31.39 A 1.64 1.64 0 0 0 168 33 V 93.19 A 47.94 47.94 0 0 1 167.74 98.27 A 12 12 0 0 1 166.61 102.35 A 6.56 6.56 0 0 1 164.17 105.04 A 8 8 0 0 1 159.97 106.04 A 19 19 0 0 1 157.97 105.91 L 157.13 105.79 C 155.58 105.47 155.13 106.32 155.02 106.79 C 155.02 107.01 154.9 107.58 154.9 107.58 C 154.48 110.58 153.82 115.03 153.51 117.58 A 1.82 1.82 0 0 0 155.14 119.67 C 155.65 119.76 156.2 119.84 156.86 119.93 A 40.58 40.58 0 0 0 161.42 120.25 C 166.13 120.25 170.01 119.49 172.95 118 A 18.51 18.51 0 0 0 179.95 112 A 22.74 22.74 0 0 0 183.45 103.16 A 59.86 59.86 0 0 0 184.36 92.52 V 34.43 A 1.64 1.64 0 0 0 182.84 32.79 Z M 225.17 43.69 H 224 V 46.69 H 223.29 V 43.69 H 222.11 V 43 H 225.18 Z M 229.47 46.65 H 228.75 V 44.35 L 228.65 44.67 L 227.83 46.67 H 227.23 L 226.41 44.67 L 226.31 44.35 V 46.65 H 225.6 V 43 H 226.42 L 227.42 45.34 L 227.5 45.55 L 227.58 45.34 L 228.58 43 H 229.4 Z&quot;)" transform="matrix(.67377 0 0 .66379 18.695 56.762)"/></g></svg>