<?xml version="1.0" encoding="UTF-8"?>
<svg id="vector" version="1.1" viewBox="0 0 192 192" xmlns="http://www.w3.org/2000/svg">
 <path id="path" d="m171.97 36.443c-20.246-0.26806-42.031 5.3378-60.324 12.695-19.513 7.848-34.71-6.1079-55.506-2.9609s-33.944 16.382-38.938 34.725c-2.903 11.733-0.57881 28.25 7.1172 39.527 9.159 12.019 7.0212 18.52 3.6602 33.809l143.85 1.3281c-5.084-24.584-28.63-54.573-57.945-66.186-5.203-1.776-8.8609-6.5283-6.5059-13.277 6.084-17.442 52.461-30.002 68.619-39.527-1.3346-0.071313-2.6776-0.11494-4.0273-0.13281zm-96.223 32.557a10.5 10.5 0 0 1 10.5 10.5 10.5 10.5 0 0 1-10.5 10.5 10.5 10.5 0 0 1-10.5-10.5 10.5 10.5 0 0 1 10.5-10.5z"/>
 <circle cx="75.5" cy="79.5" r="5.5" stroke-width="0" style="paint-order:stroke fill markers"/>
</svg>
