<svg
    xmlns="http://www.w3.org/2000/svg"
    viewBox="0 0 192 192"
    id="vector">
    <path
        id="path"
        d="M 27.982 154.238 C 31.343 138.949 33.481 132.449 24.322 120.43 C 16.626 109.153 14.303 92.636 17.206 80.903 C 22.2 62.56 35.346 49.324 56.142 46.177 C 76.938 43.03 92.136 56.987 111.649 49.139 C 131.162 41.291 154.647 35.435 176 36.576 C 159.842 46.101 113.464 58.661 107.38 76.103 C 105.025 82.852 108.683 87.605 113.886 89.381 C 143.201 100.994 166.749 130.982 171.833 155.566"
        fill="#000000"
        stroke-width="1"/>
    <path
        id="path_1"
        d="M 75.75 71.5 C 73.629 71.5 71.593 72.343 70.093 73.843 C 68.593 75.343 67.75 77.379 67.75 79.5 C 67.75 81.621 68.593 83.657 70.093 85.157 C 71.593 86.657 73.629 87.5 75.75 87.5 C 77.871 87.5 79.907 86.657 81.407 85.157 C 82.907 83.657 83.75 81.621 83.75 79.5 C 83.75 77.379 82.907 75.343 81.407 73.843 C 79.907 72.343 77.871 71.5 75.75 71.5 Z"
        fill="none"
        stroke="#ffffff"
        stroke-width="5"/>
</svg>
