<?xml version="1.0" encoding="UTF-8"?>
<svg id="SVGRoot" width="192px" height="192px" version="1.1" viewBox="0 0 192 192" xmlns="http://www.w3.org/2000/svg">
 <g fill="none" stroke="#000" stroke-linecap="round" stroke-linejoin="round" stroke-width="8">
  <path class="a" d="m164.66 121.78a254.71 254.72 0 0 1-25.882-4.5604 12.777 12.777 0 0 0-12.325 2.3829c-2.1774 2.2186-8.463 8.4223-14.995 14.832a117.86 117.87 0 0 1-53.818-53.862c6.3677-6.5324 12.325-12.777 14.748-14.955a12.777 12.777 0 0 0 2.3828-12.325 254.05 254.07 0 0 1-4.5601-25.924 8.2164 8.2169 0 0 0-9.4489-7.272h-35.002a6.1623 6.1627 0 0 0-5.5872 5.6286c-2.2595 31.594 15.365 65.407 18.939 71.898v0.24642l0.49298 0.94492a145.6 145.6 0 0 0 53.407 53.41l1.8076 1.0271c8.2164 4.355 40.877 20.789 71.401 18.529a6.1623 6.1627 0 0 0 5.7104-5.5875v-34.963a8.2164 8.2169 0 0 0-7.2716-9.4495z"/>
  <line class="a" x1="70.13" x2="27.117" y1="27.288" y2="70.304"/>
  <line class="a" x1="65.776" x2="48.439" y1="94.667" y2="112"/>
  <line class="a" x1="97.245" x2="79.99" y1="126.18" y2="143.48"/>
  <line class="a" x1="164.66" x2="121.65" y1="121.78" y2="164.8"/>
 </g>
</svg>
