<svg xmlns="http://www.w3.org/2000/svg" width="192" height="192" viewBox="0 0 192 192"><g fill="none" stroke="#000" stroke-linecap="round" stroke-linejoin="round"><path stroke-width="12" d="M34.223 29.391v133.03a7.907 7.58 0 0 0 7.71 7.58h9.41v-148h-9.41a7.907 7.58 0 0 0-7.71 7.39zM51.343 22v147.81h98.526a7.907 7.58 0 0 0 7.907-7.58V29.39A7.907 7.58 0 0 0 149.87 22zm20.243 51.165v45.485" class="a"/><path stroke-width="3.1" d="m24.3 30-4.94-6 4.94-5.96" class="a" transform="matrix(3.9537 0 0 3.79 1.012 4.945)"/><path stroke-width="12" d="M77.556 95.905h-5.97m36.314 7.585a15.815 15.16 0 0 0 31.432 0V88.33a15.815 15.16 0 1 0-31.432 0z" class="a"/></g></svg>