<?xml version="1.0" encoding="UTF-8"?>
<svg id="SVGRoot" width="192px" height="192px" version="1.1" viewBox="0 0 192 192" xmlns="http://www.w3.org/2000/svg">
 <g fill="none" stroke="#000" stroke-linecap="round" stroke-linejoin="round">
  <line id="c" class="n" x1="55.329" x2="55.329" y1="33.317" y2="62.76" stroke-width="8"/>
  <polyline id="d" class="n" transform="matrix(4.3128 0 0 4.1081 -7.5073 -2.5947)" points="18.434 15.901 15.489 12.325 18.434 8.7733" stroke-width="1.9006"/>
  <g stroke-width="8">
   <path id="e" class="n" d="m80.702 43.265v12.12c0 4.0568 3.4524 7.3453 7.7113 7.3453s7.7113-3.2885 7.7113-7.3453v-12.12"/>
   <line id="f" class="n" x1="96.123" x2="96.123" y1="54.847" y2="62.208"/>
   <path id="g" class="n" d="m104.83 50.61c0-4.0568 3.4524-7.3453 7.7113-7.3453"/>
   <line id="h" class="n" x1="104.83" x2="104.83" y1="43.265" y2="62.73"/>
   <path id="i" class="n" d="m128.96 62.73c-4.2589 0-7.7113-3.2885-7.7113-7.3453v-4.7745c0-4.0568 3.4524-7.3453 7.7113-7.3453 4.2589 0 7.7113 3.2885 7.7113 7.3453v4.7745c0 4.0568-3.4524 7.3453-7.7113 7.3453z"/>
   <rect id="j" class="n" x="37.777" y="20" width="116.45" height="57.107" rx="4.3037" ry="4.0995"/>
   <path id="k" class="n" d="m96 98.633c-26.333-17.873-58.223-0.44368-58.223-0.44368v73.811s31.89-18.071 58.223-0.26702z"/>
   <path id="l" class="n" d="m96 98.633c-26.333-17.873-58.223-0.44368-58.223-0.44368v73.811s31.89-18.071 58.223-0.26702z"/>
   <path id="m" class="n" d="m96 171.73c26.333-17.804 58.223 0.26702 58.223 0.26702v-73.811s-31.89-17.43-58.223 0.44368z"/>
  </g>
 </g>
</svg>
