<svg xmlns="http://www.w3.org/2000/svg" width="192" height="192" viewBox="0 0 192 192"><g fill="none" stroke="#000" stroke-linecap="round" stroke-linejoin="round"><path stroke-width="8" d="M55.329 33.317V62.76" class="n"/><path stroke-width="1.901" d="m18.434 15.901-2.945-3.576 2.945-3.552" class="n" transform="matrix(4.3128 0 0 4.1081 -7.507 -2.595)"/><g stroke-width="8"><path d="M80.702 43.265v12.12c0 4.057 3.452 7.345 7.711 7.345s7.712-3.288 7.712-7.345v-12.12m-.002 11.582v7.361m8.707-11.598c0-4.057 3.452-7.345 7.711-7.345m-7.711 0V62.73m24.13 0c-4.259 0-7.711-3.288-7.711-7.345V50.61c0-4.057 3.452-7.345 7.711-7.345s7.711 3.288 7.711 7.345v4.775c0 4.056-3.452 7.345-7.711 7.345z" class="n"/><rect width="116.45" height="57.107" x="37.777" y="20" class="n" rx="4.304" ry="4.099"/><path d="M96 98.633c-26.333-17.873-58.223-.444-58.223-.444V172s31.89-18.07 58.223-.267z" class="n"/><path d="M96 98.633c-26.333-17.873-58.223-.444-58.223-.444V172s31.89-18.07 58.223-.267zm0 73.097c26.333-17.804 58.223.267 58.223.267V98.186s-31.89-17.43-58.223.444z" class="n"/></g></g></svg>