<svg xmlns="http://www.w3.org/2000/svg" width="192" height="192" viewBox="0 0 192 192"><path fill="none" stroke="#000" stroke-linecap="round" stroke-linejoin="round" stroke-width="8" d="M87.586 160.77c-11.836-2.233-21.935-8.47-34.583-21.363-6.137-6.255-9.727-10.449-14.826-17.32-8.873-11.957-14.664-23.929-17.216-35.591-1.143-5.225-1.054-16.768.165-21.179 2.185-7.91 6.232-14.757 12.337-20.868 14.263-14.278 34.656-17.724 53.122-8.978 2.229 1.056 4.052 2.045 4.052 2.198 0 .152-1.109 1.163-2.465 2.246-4.397 3.511-8.34 9.174-10.197 14.641-2.728 8.035-2.176 20.27 1.288 28.541.6 1.431 1.162 2.53 1.25 2.444.087-.088-.05-2.066-.304-4.396-.97-8.884 1.4-19.159 6.354-27.55 2.206-3.735 6.322-9.006 8.904-11.401 8.788-8.152 22.47-12.577 34.702-11.222 16.345 1.81 29.774 10.696 36.62 24.233 9.81 19.397 5.923 41.25-11.305 63.571-3.597 4.66-19.823 20.924-26.605 26.667-9.165 7.761-17.55 12.583-25.356 14.582-5.052 1.294-11.447 1.592-15.94.745z"/></svg>