<?xml version="1.0" encoding="UTF-8"?>
<svg id="SVGRoot" width="192px" height="192px" version="1.1" viewBox="0 0 192 192" xmlns="http://www.w3.org/2000/svg">
 <path d="m87.586 160.77c-11.836-2.2328-21.935-8.4709-34.583-21.363-6.1367-6.255-9.7269-10.449-14.826-17.32-8.8727-11.957-14.664-23.929-17.216-35.591-1.1433-5.225-1.0535-16.768 0.16475-21.179 2.1851-7.9109 6.2324-14.757 12.337-20.868 14.263-14.278 34.656-17.724 53.122-8.9776 2.229 1.0557 4.0527 2.0445 4.0527 2.1972 0 0.15266-1.1094 1.1636-2.4654 2.2465-4.3971 3.5113-8.3407 9.1734-10.197 14.641-2.7285 8.0352-2.1764 20.269 1.2881 28.541 0.59942 1.4312 1.1616 2.5308 1.2494 2.4434 0.08782-0.08744-0.0487-2.0654-0.30338-4.3955-0.97074-8.8842 1.3989-19.159 6.3538-27.55 2.2056-3.7352 6.322-9.0061 8.9038-11.401 8.788-8.1516 22.471-12.577 34.702-11.222 16.345 1.8095 29.774 10.696 36.62 24.233 9.8094 19.397 5.9231 41.25-11.305 63.571-3.5968 4.6599-19.823 20.924-26.605 26.667-9.1648 7.7611-17.549 12.583-25.356 14.582-5.0519 1.2935-11.447 1.5924-15.939 0.74499z" fill="none" stroke="#000" stroke-linecap="round" stroke-linejoin="round" stroke-width="8"/>
</svg>
