<?xml version="1.0" encoding="UTF-8"?>
<svg width="192" height="192" fill="none" version="1.1" viewBox="0 0 192 192" xmlns="http://www.w3.org/2000/svg">
 <g transform="matrix(.37745 0 0 .37745 -24.878 -2.7827)" fill="#000">
  <path class="st0" d="m482.6 222.7c-10.2 0-18.6-8.3-18.6-18.6s8.3-18.6 18.6-18.6 18.6 8.3 18.6 18.6c0.1 10.3-8.3 18.6-18.6 18.6m-324.7 194.2c-10.3 0-18.5-8.3-18.5-18.6s8.3-18.6 18.5-18.6c10.3 0 18.6 8.3 18.6 18.6 0 10.2-8.3 18.6-18.6 18.6m324.7-262.3c-8.3 0-16.1 2.1-23.1 5.7l-128.2-81.7c-6.4-4.1-14.5-4.1-20.9 0l-163.2 103.9c-5.6 3.6-9 9.8-9 16.4v153.9c-17.6 7.6-29.9 25.1-29.9 45.5 0 27.4 22.2 49.6 49.6 49.6s49.6-22.2 49.6-49.6c0-20.6-12.6-38.3-30.5-45.7v-143l143.8-91.7 114.2 72.7c-1.2 4.3-1.9 8.8-1.9 13.5 0 21 13.1 38.9 31.6 46.2v154h-176v-110.1h63.6v85.4c0 1.9 1.5 3.4 3.4 3.4h32c1.9 0 3.4-1.5 3.4-3.4v-104.7c0-10.8-8.7-19.4-19.4-19.4h-102.5c-10.7 0-19.4 8.6-19.4 19.4v148.9c0 10.7 8.7 19.4 19.4 19.4h214.9c10.7 0 19.4-8.7 19.4-19.4v-174.7c16.9-7.9 28.7-25 28.7-44.9 0.1-27.4-22.2-49.6-49.6-49.6" fill="#000"/>
 </g>
</svg>
