<svg id="vector" xmlns="http://www.w3.org/2000/svg" width="192" height="192" viewBox="0 0 192 192"><path fill="#000" d="m157.28,81.28c-3.85,0 -7.02,-3.13 -7.02,-7.02s3.13,-7.02 7.02,-7.02 7.02,3.13 7.02,7.02c0.04,3.89 -3.13,7.02 -7.02,7.02m-122.56,73.3c-3.89,0 -6.98,-3.13 -6.98,-7.02s3.13,-7.02 6.98,-7.02c3.89,0 7.02,3.13 7.02,7.02 0,3.85 -3.13,7.02 -7.02,7.02m122.56,-99.01c-3.13,0 -6.08,0.79 -8.72,2.15l-48.39,-30.84c-2.42,-1.55 -5.47,-1.55 -7.89,0l-61.6,39.22c-2.11,1.36 -3.4,3.7 -3.4,6.19l0,58.09c-6.64,2.87 -11.29,9.47 -11.29,17.17 0,10.34 8.38,18.72 18.72,18.72s18.72,-8.38 18.72,-18.72c0,-7.78 -4.76,-14.46 -11.51,-17.25l0,-53.98l54.28,-34.61 43.1,27.44c-0.45,1.62 -0.72,3.32 -0.72,5.1 0,7.93 4.94,14.68 11.93,17.44l0,58.13l-66.43,0l0,-41.56l24.01,0l0,32.23c0,0.72 0.57,1.28 1.28,1.28l12.08,0c0.72,0 1.28,-0.57 1.28,-1.28l0,-39.52c0,-4.08 -3.28,-7.32 -7.32,-7.32l-38.69,0c-4.04,0 -7.32,3.25 -7.32,7.32l0,56.2c0,4.04 3.28,7.32 7.32,7.32l81.11,0c4.04,0 7.32,-3.28 7.32,-7.32l0,-65.94c6.38,-2.98 10.83,-9.44 10.83,-16.95 0.04,-10.34 -8.38,-18.72 -18.72,-18.72" id="path_0"/></svg>