<?xml version="1.0" encoding="UTF-8"?>
<svg width="192" height="192" fill="none" version="1.1" viewBox="0 0 192 192" xmlns="http://www.w3.org/2000/svg">
 <path d="m39.888 22.466c-2.5716-1.5551-5.8579 0.29387-5.8579 3.298v29.526c3.1e-4 1.3474 0.70509 2.5968 1.8587 3.2951l56.36 34.119c2.478 1.5002 2.478 5.0921 0 6.5922l-56.36 34.118c-1.1533 0.69854-1.8577 1.9479-1.8578 3.2952v29.526c0 3.0042 3.2863 4.8531 5.8579 3.2961l116.02-70.237c2.478-1.5002 2.478-5.0921 1.239-5.8417z" stroke="#000" stroke-linecap="round" stroke-linejoin="round" stroke-width="12"/>
 <path d="m34.243 112.81v-33.624c0-1.5021 1.6436-2.4261 2.9294-1.6476l27.77 16.812c1.2395 0.7496 1.2395 2.5456 0 3.2951l-27.77 16.813c-1.2858 0.77754-2.9294-0.14645-2.9294-1.6485z" fill="none" stroke="#000" stroke-linecap="round" stroke-linejoin="round" stroke-width="12"/>
</svg>
