<svg xmlns="http://www.w3.org/2000/svg" width="192" height="192" fill="none" viewBox="0 0 192 192"><path stroke="#000" stroke-linecap="round" stroke-linejoin="round" stroke-width="12" d="M39.888 22.466c-2.572-1.555-5.858.294-5.858 3.298V55.29c0 1.347.705 2.597 1.859 3.295l56.36 34.12c2.478 1.5 2.478 5.091 0 6.591l-56.36 34.118a3.853 3.853 0 0 0-1.858 3.296v29.526c0 3.004 3.286 4.853 5.858 3.296l116.02-70.237c2.478-1.5 2.478-5.092 1.239-5.842z"/><path stroke="#000" stroke-linecap="round" stroke-linejoin="round" stroke-width="12" d="M34.243 112.81V79.186c0-1.502 1.644-2.426 2.93-1.648l27.77 16.812a1.925 1.925 0 0 1 0 3.296l-27.77 16.813c-1.286.777-2.93-.147-2.93-1.649z"/></svg>