<svg xmlns="http://www.w3.org/2000/svg" width="192" height="192" viewBox="0 0 192 192"><g fill="none" stroke="#000" stroke-linecap="round" stroke-linejoin="round" stroke-width="8"><path d="M90.775 145.9c-.465-.034-2.07-.228-3.568-.431-20.088-2.73-37.53-14.914-46.648-32.59-4.482-8.688-6.529-17.15-6.518-26.952.009-5.554.501-9.559 1.799-14.572 2.139-8.263 6.14-16.077 11.75-22.947 2.102-2.574 7.286-7.552 9.942-9.547 9.495-7.135 20.335-11.41 31.928-12.593 4.052-.414 11.582-.278 15.307.277 10.672 1.588 19.912 5.328 28.36 11.48 12.761 9.293 21.378 23.106 23.929 38.36 1.12 6.694.985 14.474-.365 21.195-3.712 18.464-16.722 34.74-34.074 42.624-2.47 1.122-3.72 1.673-3.952 1.74-.103.03-1.286.425-2.63.878-6.643 2.242-12.954 3.223-20.377 3.168-2.22-.015-4.418-.057-4.883-.091zm8.479-27.203c8.052-.794 15.192-4.139 20.832-9.76 3.18-3.17 5.308-6.228 6.959-10.006 5.466-12.508 2.604-26.728-7.294-36.23-9.085-8.725-22.257-11.739-34.513-7.896-2.192.688-6.136 2.572-8.21 3.923A33.56 33.56 0 0 0 65.55 71.447c-3.633 7.06-4.469 15.13-2.385 23.037 1.621 6.156 5.669 12.365 10.762 16.509 7.19 5.85 16.232 8.6 25.326 7.704zM23.85 61.796c-2.54-.941-4.018-3.178-3.839-5.808.077-1.124.23-1.57 1.153-3.347 2.697-5.199 6.773-11.102 10.906-15.797 1.905-2.165 6.513-6.67 8.746-8.552 3.578-3.016 8.48-6.491 10.827-7.678 1.078-.545 1.39-.617 2.663-.616 1.196 0 1.635.088 2.576.52 2.156.99 3.378 2.93 3.346 5.316-.029 2.203-.955 3.529-3.72 5.322-4.716 3.062-7.577 5.342-11.57 9.222-5.496 5.34-9.384 10.434-12.873 16.863-1.463 2.695-2.093 3.451-3.49 4.189-.818.431-1.262.534-2.5.578-.992.034-1.75-.034-2.225-.212zm140.53.026c-1.944-.7-2.69-1.482-4.38-4.594-3.482-6.418-7.374-11.515-12.866-16.852-3.994-3.88-6.855-6.16-11.571-9.222-2.867-1.86-3.74-3.155-3.715-5.513.015-1.637.448-2.72 1.543-3.872 1.144-1.204 2.247-1.666 4.154-1.743 1.52-.06 1.659-.03 2.85.57 1.47.742 4.716 2.897 7.27 4.826 9.608 7.256 17.809 16.854 23.257 27.216 1.073 2.042 1.078 2.057 1.082 3.69.004 1.37-.07 1.785-.45 2.534-.56 1.105-1.634 2.136-2.796 2.687-1.071.509-3.333.65-4.378.273z"/><path d="M92.242 173.69c-3.492-.906-7.036-3.522-8.745-6.456-.334-.573-9.255-20.892-10.778-24.549-.05-.122.745.07 1.792.43 6.326 2.174 12.647 3.304 19.602 3.501 7.718.22 15.043-.84 22.36-3.233 1.498-.49 2.693-.84 2.654-.777-.035.063-2.329 5.323-5.088 11.69-2.759 6.367-5.332 12.155-5.719 12.862-.848 1.551-3.42 4.103-5.08 5.039-.613.346-1.818.874-2.679 1.173-1.393.484-1.857.551-4.246.612-2.223.057-2.92.008-4.074-.293zm-.419-54.954c-10.377-1.385-18.874-6.401-24.554-14.497-2.926-4.17-4.87-9.17-5.535-14.238-.342-2.606-.149-7.953.379-10.467 2.89-13.79 14.424-24.26 28.96-26.29 2.607-.364 7.112-.364 9.72 0 7.316 1.02 14.075 4.249 19.322 9.228 13.573 12.882 13.582 34.054.02 46.84-2.155 2.03-3.392 3-5.535 4.334-3.86 2.406-8.03 3.976-12.852 4.842-1.88.337-8.093.493-9.924.249z"/></g></svg>