<?xml version="1.0" encoding="UTF-8"?>
<svg id="SVGRoot" width="192px" height="192px" version="1.1" viewBox="0 0 192 192" xmlns="http://www.w3.org/2000/svg">
 <g fill="none" stroke="#000" stroke-linecap="round" stroke-linejoin="round" stroke-width="8">
  <path d="m90.775 145.9c-0.46484-0.034-2.0706-0.2279-3.5684-0.43128-20.088-2.7294-37.529-14.914-46.648-32.59-4.4821-8.6877-6.5285-17.15-6.5172-26.952 0.0083-5.5533 0.50064-9.5587 1.7983-14.572 2.1389-8.2628 6.1405-16.077 11.751-22.947 2.1018-2.5735 7.2851-7.5513 9.9413-9.5472 9.4955-7.1345 20.335-11.41 31.928-12.593 4.0524-0.4134 11.582-0.27704 15.307 0.27742 10.672 1.5881 19.912 5.3283 28.36 11.48 12.761 9.2926 21.378 23.106 23.929 38.361 1.1195 6.6935 0.98525 14.473-0.36548 21.194-3.7115 18.464-16.722 34.74-34.074 42.624-2.4689 1.1218-3.7199 1.6726-3.9512 1.7396-0.10318 0.0302-1.2865 0.42516-2.6294 0.87828-6.6442 2.242-12.955 3.2233-20.378 3.1683-2.2208-0.0151-4.4183-0.0574-4.8831-0.0911zm8.4786-27.203c8.0521-0.79389 15.192-4.1387 20.832-9.7597 3.1812-3.17 5.3083-6.2284 6.9592-10.006 5.4663-12.508 2.6039-26.728-7.2933-36.231-9.0859-8.7247-22.257-11.738-34.513-7.8949-2.1926 0.68742-6.1363 2.5712-8.2109 3.9221-4.8406 3.1521-8.8286 7.5716-11.477 12.719-3.6327 7.0601-4.4682 15.131-2.385 23.038 1.6218 6.1556 5.6693 12.364 10.762 16.508 7.19 5.8503 16.232 8.601 25.326 7.7043zm-75.403-56.901c-2.54-0.94129-4.018-3.1776-3.8384-5.8078 0.0768-1.1241 0.2304-1.5701 1.1526-3.3476 2.6971-5.1983 6.7728-11.102 10.906-15.797 1.9054-2.1645 6.5131-6.6696 8.7464-8.5518 3.5779-3.0153 8.4793-6.491 10.827-7.6774 1.0781-0.54493 1.389-0.61697 2.6625-0.61682 1.1961 1.14e-4 1.6353 0.08882 2.5764 0.52056 2.1562 0.98918 3.378 2.9303 3.3461 5.316-0.02872 2.2033-0.95561 3.5285-3.7195 5.3223-4.7164 3.0611-7.5777 5.3415-11.571 9.2217-5.4961 5.3406-9.384 10.434-12.873 16.863-1.4624 2.6948-2.0924 3.451-3.4903 4.1887-0.81724 0.43136-1.261 0.53408-2.4986 0.57857-0.99324 0.03401-1.7499-0.03402-2.2256-0.21279zm140.53 0.02646c-1.9441-0.69963-2.69-1.4822-4.379-4.5946-3.4826-6.4177-7.3744-11.515-12.867-16.852-3.9933-3.8803-6.8546-6.1607-11.571-9.2218-2.8662-1.8602-3.7389-3.1553-3.715-5.5133 0.0151-1.637 0.44795-2.7193 1.5434-3.8717 1.1442-1.2037 2.2466-1.6662 4.1543-1.7428 1.5191-0.06085 1.6584-0.03024 2.8504 0.56931 1.4699 0.7429 4.7154 2.8979 7.2688 4.8262 9.608 7.256 17.809 16.854 23.257 27.216 1.0734 2.042 1.078 2.0577 1.0824 3.6898 4e-3 1.3712-0.0699 1.7854-0.44984 2.5342-0.56084 1.1049-1.6337 2.1362-2.7962 2.6877-1.0709 0.50804-3.3324 0.64879-4.378 0.2725z"/>
  <path d="m92.242 173.69c-3.4919-0.90578-7.0359-3.522-8.7453-6.4559-0.3342-0.57352-9.2546-20.892-10.778-24.549-0.05058-0.12164 0.74559 0.069 1.7926 0.42912 6.3258 2.1752 12.647 3.3047 19.602 3.5022 7.7174 0.21926 15.043-0.84 22.359-3.2333 1.4991-0.49036 2.6936-0.84015 2.6543-0.77734-0.0347 0.063-2.3285 5.3235-5.0874 11.69-2.7589 6.3669-5.3324 12.155-5.7191 12.862-0.84804 1.5515-3.4201 4.1031-5.0794 5.039-0.61337 0.34588-1.8191 0.87383-2.6794 1.1731-1.3933 0.48459-1.8569 0.55149-4.2458 0.61235-2.2233 0.0568-2.9197 8e-3 -4.0743-0.29287zm-0.41897-54.954c-10.377-1.3846-18.874-6.4013-24.554-14.497-2.9265-4.1709-4.8697-9.17-5.5348-14.238-0.34195-2.6062-0.14879-7.9529 0.37838-10.467 2.8905-13.79 14.424-24.26 28.961-26.29 2.6068-0.36379 7.1117-0.36417 9.7198-1.52e-4 7.3159 1.0205 14.075 4.249 19.322 9.2286 13.573 12.882 13.582 34.054 0.0193 46.839-2.1544 2.0309-3.3915 2.9999-5.5343 4.335-3.8609 2.4056-8.0299 3.976-12.852 4.8412-1.8808 0.3371-8.093 0.49326-9.9245 0.24901z"/>
 </g>
</svg>
