<?xml version="1.0" encoding="UTF-8"?>
<svg id="SVGRoot" width="192px" height="192px" version="1.1" viewBox="0 0 192 192" xmlns="http://www.w3.org/2000/svg">
 <path d="m93.459 169.26c-3.9659-1.9944-11.087-7.7581-21.46-17.37-3.7208-3.4477-15.078-14.544-15.078-14.731 0-0.0832 0.75147-0.70926 1.6699-1.3912 0.91845-0.68194 2.2967-1.8454 3.0627-2.5856l1.3928-1.3456-1.5078 1.3392c-1.7133 1.5217-4.4263 3.5889-4.7187 3.5955-0.32675 7e-3 -8.1868-8.0622-14.421-14.806-11.296-12.218-19.358-22.193-20.337-25.162-0.45852-1.3907 0.10433-2.7245 2.6931-6.3819 5.2461-7.4115 16.275-19.626 31.407-34.782 10.558-10.574 14.033-13.911 20.643-19.818 8.6175-7.7014 14.357-12.155 17.416-13.515 2.0869-0.92756 4.0284-0.29721 8.6875 2.8205 7.5648 5.0622 19.478 15.553 32.925 28.993l3.0942 3.0927-1.0482 1.5767c-0.57653 0.86721-1.0079 1.5767-0.95851 1.5767 0.0494 0 0.52913-0.65797 1.0662-1.4622 0.53705-0.80419 1.8105-0.69296 1.8466-0.73608 0.0361-0.04312 0.68805 0.59571 2.432 2.4028 16.476 17.073 27.707 31.301 27.734 35.135 7e-3 0.97328-0.68024 2.3572-2.3701 4.7735-7.423 10.614-28.751 33.742-46.631 50.566-10.716 10.083-18.268 16.179-22.644 18.278-1.9207 0.9214-2.9653 0.90815-4.8946-0.0621zm5.4858-37.518c11.104-6.6365 20.298-14.112 25.845-21.014 7.9857-9.936 10.034-19.563 6.0786-28.568-0.81507-1.8557-2.6634-4.6968-4.0862-6.2811l-1.0622-1.1827 2.1182-2.4962c1.165-1.3729 3.0449-3.6848 4.1776-5.1376 2.5695-3.2956 2.4342-3.113 2.3064-3.113-0.0591 0-0.86701 0.99757-1.7954 2.2168-1.625 2.1342-6.508 8.0653-6.777 8.2318-0.072 0.04452-0.55479-0.30338-1.073-0.7731-2.2662-2.0544-5.5047-4.1357-8.081-5.1935-1.7498-0.71849-4.6353-1.2757-6.5792-1.2706-4.7396 0.0125-9.5749 2.5108-12.972 6.7027l-1.004 1.2387-0.37487-0.52957c-0.20618-0.29127-0.97196-1.1525-1.7017-1.9139-5.2156-5.4414-12.018-6.9232-18.699-4.0729-5.8211 2.4835-10.911 7.2672-13.635 12.815-1.9113 3.8929-2.5993 7.5171-2.2519 11.862 0.44462 5.5606 3.2125 11.649 8.0305 17.664 1.3356 1.6675 5.951 6.4026 7.8527 8.0564l1.0947 0.95197-2.7345 2.385c-1.504 1.3117-2.7938 2.4898-2.8664 2.618-0.07258 0.12812 0.15649-0.0281 0.50895-0.34716 0.35246-0.31907 1.671-1.4848 2.9301-2.5905l2.2893-2.0103 1.2917 1.0599c2.2578 1.8528 6.0985 4.673 9.0817 6.6688 3.1597 2.1139 8.8755 5.6371 9.167 5.6507 0.10066 5e-3 1.4153-0.728 2.9213-1.6282zm-34.479-1.1393 1.0302-1.078-1.1308 1.0197c-0.62196 0.56085-1.1662 1.0459-1.2094 1.078-0.04315 0.032 2e-3 0.0583 0.10068 0.0583 0.09861 0 0.64278-0.48511 1.2094-1.078zm6.0247-5.4634c0-0.12521-4.3725 3.7706-4.7143 4.2003-0.15415 0.19383 0.8435-0.65188 2.217-1.8794s2.4973-2.2719 2.4973-2.321zm64.293-61.708c0.23444-0.29924 0.22777-0.30591-0.0712-0.07123-0.18141 0.14241-0.32983 0.29099-0.32983 0.33016 0 0.15528 0.15477 0.05533 0.40099-0.25893zm0.72985-0.99049c0.22144-0.3113 0.3602-0.566 0.30837-0.566-0.0519 0-0.27541 0.2547-0.49684 0.566-0.22144 0.3113-0.36021 0.566-0.30838 0.566 0.0519 0 0.27541-0.2547 0.49685-0.566zm0.94237-1.3207c0.22143-0.3113 0.3602-0.566 0.30837-0.566-0.0519 0-0.27542 0.2547-0.49685 0.566-0.22144 0.3113-0.36021 0.566-0.30838 0.566 0.0519 0 0.27542-0.2547 0.49686-0.566z" fill="none" stroke="#000" stroke-linecap="round" stroke-linejoin="round" stroke-width="12"/>
</svg>
