<svg xmlns="http://www.w3.org/2000/svg" width="192" height="192" viewBox="0 0 192 192"><path fill="none" stroke="#000" stroke-linecap="round" stroke-linejoin="round" stroke-width="12" d="M93.459 169.26c-3.966-1.994-11.087-7.758-21.46-17.37-3.72-3.448-15.078-14.544-15.078-14.731 0-.083.751-.71 1.67-1.391a37.504 37.504 0 0 0 3.063-2.586l1.392-1.345-1.507 1.339c-1.714 1.522-4.427 3.589-4.72 3.595-.326.007-8.186-8.062-14.42-14.806-11.296-12.218-19.358-22.193-20.337-25.162-.459-1.39.104-2.724 2.693-6.382C30.001 83.01 41.03 70.795 56.162 55.64 66.72 45.065 70.195 41.73 76.805 35.821c8.617-7.701 14.357-12.155 17.416-13.515 2.087-.927 4.028-.297 8.687 2.82 7.565 5.063 19.478 15.554 32.925 28.994l3.095 3.093-1.049 1.576c-.576.868-1.007 1.577-.958 1.577.05 0 .53-.658 1.066-1.462.537-.804 1.81-.693 1.847-.736.036-.043.688.595 2.432 2.403 16.476 17.073 27.707 31.3 27.734 35.135.007.973-.68 2.357-2.37 4.773-7.423 10.614-28.751 33.742-46.631 50.566-10.716 10.083-18.268 16.179-22.644 18.278-1.921.921-2.966.908-4.895-.062zm5.486-37.518c11.104-6.636 20.298-14.112 25.845-21.014 7.985-9.936 10.034-19.563 6.078-28.568-.815-1.856-2.663-4.697-4.086-6.281l-1.062-1.183 2.118-2.496a193.676 193.676 0 0 0 4.178-5.138c2.57-3.295 2.434-3.113 2.306-3.113-.059 0-.867.998-1.795 2.217-1.625 2.134-6.508 8.066-6.777 8.232-.072.045-.555-.303-1.073-.773-2.266-2.055-5.505-4.136-8.081-5.194-1.75-.718-4.635-1.275-6.58-1.27-4.739.012-9.574 2.51-12.971 6.702l-1.004 1.24-.375-.53c-.206-.292-.972-1.153-1.702-1.914-5.216-5.442-12.018-6.923-18.699-4.073-5.821 2.483-10.911 7.267-13.635 12.815-1.911 3.893-2.6 7.517-2.252 11.862.445 5.56 3.213 11.649 8.03 17.664 1.336 1.667 5.952 6.402 7.853 8.056l1.095.952-2.734 2.385c-1.504 1.312-2.794 2.49-2.867 2.618-.072.128.157-.028.51-.347.352-.319 1.67-1.485 2.93-2.59l2.288-2.01 1.292 1.06c2.258 1.852 6.099 4.672 9.082 6.668 3.16 2.114 8.875 5.637 9.167 5.65.1.006 1.415-.727 2.921-1.628zm-34.48-1.14 1.031-1.077-1.13 1.02a79.067 79.067 0 0 1-1.21 1.077c-.043.032.002.059.1.059.1 0 .643-.485 1.21-1.078zm6.025-5.463c0-.125-4.372 3.77-4.714 4.2-.154.194.844-.651 2.217-1.879s2.498-2.272 2.498-2.32zm64.294-61.708c.234-.299.227-.306-.072-.07-.181.141-.33.29-.33.33 0 .155.155.055.401-.26zm.73-.99c.22-.311.36-.566.308-.566-.052 0-.276.255-.497.566-.222.311-.36.566-.308.566.051 0 .275-.255.496-.566zm.942-1.32c.221-.312.36-.567.308-.567-.052 0-.275.255-.497.566-.221.311-.36.566-.308.566.052 0 .275-.255.497-.566z"/></svg>