<?xml version="1.0" encoding="UTF-8"?>
<svg id="SVGRoot" width="192px" height="192px" version="1.1" viewBox="0 0 192 192" xmlns="http://www.w3.org/2000/svg">
 <g fill="none" stroke="#000" stroke-linecap="round" stroke-linejoin="round" stroke-width="8">
  <path class="a" d="m159.11 91.333v-30.338a8.0117 7.7789 0 0 0-8.0117-7.7789h-39.338v-29.327a4.0059 3.8895 0 0 0-4.0059-3.8895h-11.777a15.743 15.286 0 0 0-15.783 15.324v18.047h-39.458a8.0117 7.7789 0 0 0-8.0117 7.7789v30.182z"/>
  <path class="a" d="m32.847 91.333v76.622a4.0059 3.8895 0 0 0 4.0059 3.8895h6.5696a32.367 31.427 0 0 0 31.566-30.649v26.837a4.0059 3.8895 0 0 0 4.0059 3.8895h6.5296a31.566 30.649 0 0 0 31.566-30.649v26.837a4.0059 3.8895 0 0 0 4.0059 3.8895h6.6097a31.566 30.649 0 0 0 31.566-30.649v-50.018z"/>
  <line class="a" x1="74.949" x2="74.949" y1="141.12" y2="91.333"/>
  <line class="a" x1="117.01" x2="117.01" y1="141.12" y2="91.333"/>
 </g>
</svg>
