<svg xmlns="http://www.w3.org/2000/svg" width="192" height="192" viewBox="0 0 192 192"><g fill="none" stroke="#000" stroke-linecap="round" stroke-linejoin="round" stroke-width="8"><path d="M159.11 91.333V60.995a8.012 7.779 0 0 0-8.012-7.779H111.76V23.89a4.006 3.89 0 0 0-4.006-3.89H95.977a15.743 15.286 0 0 0-15.783 15.325V53.37H40.736a8.012 7.779 0 0 0-8.011 7.778v30.182z" class="a"/><path d="M32.847 91.333v76.622a4.006 3.89 0 0 0 4.006 3.89h6.57a32.367 31.427 0 0 0 31.565-30.65v26.837a4.006 3.89 0 0 0 4.006 3.89h6.53a31.566 30.649 0 0 0 31.566-30.649v26.837a4.006 3.89 0 0 0 4.006 3.89h6.61a31.566 30.649 0 0 0 31.566-30.65V91.332zM74.949 141.12V91.333M117.01 141.12V91.333" class="a"/></g></svg>