<svg xmlns="http://www.w3.org/2000/svg" width="192" height="192" viewBox="0 0 192 192"><g fill="none" stroke="#000" stroke-linecap="round" stroke-linejoin="round" stroke-width="8"><path d="M93.785 100.58v18.686a13.882 13.882 0 0 1-13.841 13.841 11.615 11.615 0 0 1-9.689-4.154" class="a"/><path d="M93.785 77.741v22.838a13.882 13.882 0 0 1-13.841 13.841 13.882 13.882 0 0 1-13.841-13.841V77.741m68.887-11.776v48.445m-7.612-36.679h14.533M50.106 58.876v48.445a6.543 6.543 0 0 0 6.918 6.932h2.084m49.552.127V68.705a9.461 9.461 0 0 1 9.69-9.689 10.777 10.777 0 0 1 9.688 4.154m-26.99 14.533h19.377" class="a"/><path d="M156.65 28H35.35a7.351 7.351 0 0 0-7.351 7.351v121.3a7.351 7.351 0 0 0 7.351 7.352h121.3a7.351 7.351 0 0 0 7.351-7.352v-121.3A7.351 7.351 0 0 0 156.65 28z" class="a"/></g></svg>