<?xml version="1.0" encoding="UTF-8"?>
<svg id="SVGRoot" width="192px" height="192px" version="1.1" viewBox="0 0 192 192" xmlns="http://www.w3.org/2000/svg">
 <g fill="none" stroke="#000" stroke-linecap="round" stroke-linejoin="round" stroke-width="8">
  <path class="a" d="m93.785 100.58v18.686a13.882 13.882 0 0 1-13.841 13.841 11.615 11.615 0 0 1-9.6887-4.1535"/>
  <path class="a" d="m93.785 77.741v22.838a13.882 13.882 0 0 1-13.841 13.841 13.882 13.882 0 0 1-13.841-13.841v-22.838"/>
  <path class="a" d="m134.99 65.965v48.445m-7.6123-36.679h14.533"/>
  <path class="a" d="m50.106 58.876v48.445a6.5427 6.5427 0 0 0 6.9176 6.9323h2.0841"/>
  <path class="a" d="m108.66 114.38v-45.675a9.4612 9.4612 0 0 1 9.6891-9.6887 10.777 10.777 0 0 1 9.6887 4.1535m-26.99 14.533h19.377"/>
  <path class="a" d="m156.65 28h-121.3a7.3514 7.3514 0 0 0-7.3514 7.3514v121.3a7.3514 7.3514 0 0 0 7.3514 7.3514h121.3a7.3514 7.3514 0 0 0 7.3514-7.3514v-121.3a7.3514 7.3514 0 0 0-7.3514-7.3514z"/>
 </g>
</svg>
