<svg xmlns="http://www.w3.org/2000/svg" width="192" height="192" viewBox="0 0 192 192"><g fill="none" stroke="#000" stroke-linecap="round" stroke-linejoin="round" stroke-width="12"><path d="M170 121.44a15.44 15.441 0 0 1-15.44 15.441 15.44 15.441 0 0 1-15.44-15.441 15.44 15.441 0 0 1 15.44-15.441A15.44 15.441 0 0 1 170 121.44zm-117.121 0a15.44 15.441 0 0 1-15.44 15.441 15.44 15.441 0 0 1-15.44-15.441 15.44 15.441 0 0 1 15.44-15.441 15.44 15.441 0 0 1 15.44 15.441zm.189 6.24h56.838l29.632-37.23" style="paint-order:stroke fill markers"/><path d="m143.44 109.85-12.322-80.776H103.66M62.557 157.3s28.562 12.782 63.191 0" style="paint-order:stroke fill markers"/></g></svg>