<?xml version="1.0" encoding="UTF-8"?>
<svg width="192" height="192" version="1.1" viewBox="0 0 192 192" xmlns="http://www.w3.org/2000/svg">
 <g fill="none" stroke="#000" stroke-linecap="round" stroke-linejoin="round" stroke-width="12">
  <path d="m170 121.44a15.44 15.441 0 0 1-15.44 15.441 15.44 15.441 0 0 1-15.44-15.441 15.44 15.441 0 0 1 15.44-15.441 15.44 15.441 0 0 1 15.44 15.441z" style="paint-order:stroke fill markers"/>
  <path d="m52.879 121.44a15.44 15.441 0 0 1-15.44 15.441 15.44 15.441 0 0 1-15.44-15.441 15.44 15.441 0 0 1 15.44-15.441 15.44 15.441 0 0 1 15.44 15.441z" style="paint-order:stroke fill markers"/>
  <path d="m53.068 127.68h56.838l29.632-37.23" style="paint-order:stroke fill markers"/>
  <path d="m143.44 109.85-12.322-80.776h-27.458" style="paint-order:stroke fill markers"/>
  <path d="m62.557 157.3s28.562 12.782 63.191 0" style="paint-order:stroke fill markers"/>
 </g>
</svg>
