<svg xmlns="http://www.w3.org/2000/svg" width="192" height="192" viewBox="0 0 192 192"><path stroke="#000" stroke-linecap="round" stroke-linejoin="round" stroke-width="4" d="m57.313 163.14-9.406-9.4v-4.403l18.812-18.798h2.153c1.909 0 2.308.155 3.526 1.373 1.214 1.213 1.375 1.62 1.375 3.495v2.121l-9.05 9.165h74.198l1.374 1.373c1.21 1.21 1.374 1.623 1.374 3.473 0 1.85-.164 2.263-1.374 3.473l-1.374 1.373H64.724l9.049 9.165v2.121c0 1.875-.16 2.282-1.375 3.495-1.218 1.218-1.617 1.373-3.526 1.373h-2.153zm59.865-27.513c-1.214-1.213-1.374-1.62-1.374-3.495v-2.121l9.048-9.165H50.655l-1.374-1.373c-1.21-1.21-1.374-1.623-1.374-3.473 0-1.85.164-2.264 1.374-3.473l1.374-1.373h74.197l-9.048-9.165v-2.121c0-1.875.16-2.282 1.374-3.495 1.219-1.218 1.617-1.373 3.527-1.373h2.152l18.812 18.798v4.404L122.857 137h-2.152c-1.91 0-2.308-.155-3.527-1.373zM18.001 71.4c0-.541.727-12.297 1.617-26.124.889-13.827 1.616-25.288 1.616-25.468 0-.436 15.654-.424 15.924.012.851 1.377 7.708 26.564 8.956 32.898.385 1.956.823 3.41.974 3.231.15-.178 1.237-4.032 2.413-8.565 1.858-7.16 3.634-13.084 7.458-24.875l.917-2.826 15.473-.22.186.918c.103.504.747 11.82 1.432 25.148.685 13.327 1.321 24.822 1.414 25.544l.17 1.312H64.96l-.253-4.543c-.463-8.314-1.036-25.87-1.038-31.783 0-3.21-.155-5.663-.343-5.452-.187.21-.934 2.655-1.66 5.432-.724 2.776-3.44 11.863-6.032 20.192L50.92 71.375l-9.344.226-.474-1.582c-3.326-11.093-9.765-36.519-9.765-38.56 0-.37-.182-.672-.404-.672-.236 0-.406 1.384-.41 3.332-.002 1.833-.364 10.692-.803 19.688-.439 8.996-.8 16.856-.803 17.467l-.005 1.11H18zm87.295-5.074v-6.058H82.26v-7.39l8.437-13.57c4.64-7.462 9.032-14.522 9.76-15.69l1.323-2.12h14.428v29.886h6.466v8.85l-6.264.236v11.914h-11.114zm.005-24.534c.003-5.275.115-10 .25-10.5.133-.5.083-.909-.113-.909s-1.384 2.136-2.64 4.746c-1.256 2.61-3.846 7.263-5.754 10.342-1.908 3.078-3.469 5.668-3.469 5.754 0 .087 2.637.158 5.86.158h5.86l.005-9.591zm20.766 29.896c.122-.395 2.335-7.623 4.919-16.064 2.583-8.44 6.118-19.98 7.855-25.644L142 19.682l7.918-.11c4.355-.06 7.918-.014 7.918.102 0 .115 2.077 6.889 4.616 15.052 8.872 28.523 11.55 37.2 11.55 37.439 0 .132-2.86.19-6.356.128l-6.354-.11-1.895-6.393c-1.041-3.515-1.973-6.47-2.07-6.567-.096-.096-3.603-.201-7.794-.232l-7.618-.058-3.696 13.25-6.186.111c-5.769.104-6.171.063-5.965-.606zm29.343-21.929c0-.227-.662-2.635-1.47-5.351-.809-2.716-2.14-7.47-2.96-10.567-.82-3.096-1.59-5.458-1.71-5.25-.122.208-.535 1.833-.918 3.61s-1.588 6.451-2.679 10.387c-1.09 3.936-1.983 7.252-1.983 7.37 0 .117 2.637.214 5.86.214 3.726 0 5.86-.15 5.86-.414z"/></svg>