<?xml version="1.0" encoding="UTF-8"?>
<svg id="SVGRoot" width="192px" height="192px" version="1.1" viewBox="0 0 192 192" xmlns="http://www.w3.org/2000/svg">
 <path d="m57.313 163.14-9.4059-9.3991v-4.4041l18.812-18.798h2.1526c1.9092 0 2.308 0.15525 3.5267 1.3731 1.214 1.2131 1.3741 1.6204 1.3741 3.4947v2.1216l-9.0486 9.1645h74.197l1.3741 1.3731c1.2104 1.2095 1.3741 1.6233 1.3741 3.4731 0 1.8498-0.16373 2.2636-1.3741 3.4731l-1.3741 1.3731h-74.197l9.0486 9.1645v2.1216c0 1.8744-0.16014 2.2817-1.3741 3.4947-1.2187 1.2178-1.6175 1.3731-3.5267 1.3731h-2.1526zm59.865-27.513c-1.214-1.2131-1.3741-1.6204-1.3741-3.4947v-2.1216l9.0486-9.1645h-74.197l-1.3741-1.3731c-1.2104-1.2095-1.3741-1.6233-1.3741-3.4731 0-1.8498 0.16373-2.2636 1.3741-3.4731l1.3741-1.3731h74.197l-9.0486-9.1645v-2.1217c0-1.8744 0.16014-2.2817 1.3741-3.4947 1.2187-1.2178 1.6175-1.3731 3.5267-1.3731h2.1526l18.812 18.798v4.4041l-18.812 18.798h-2.1526c-1.9092 0-2.308-0.15525-3.5267-1.3731zm-99.177-64.227c0-0.54106 0.72746-12.297 1.6166-26.124 0.88912-13.827 1.6166-25.288 1.6166-25.468 0-0.4363 15.654-0.42413 15.924 0.01237 0.85113 1.3762 7.7078 26.564 8.9556 32.898 0.38518 1.9552 0.82361 3.4091 0.9743 3.2308 0.15069-0.17829 1.2365-4.0324 2.4128-8.5647 1.8585-7.1604 3.6344-13.084 7.4581-24.875l0.91672-2.8269 15.473-0.2193 0.18663 0.91735c0.10265 0.50454 0.74682 11.821 1.4315 25.148 0.68468 13.327 1.3212 24.822 1.4144 25.544l0.16955 1.3125h-11.59l-0.25301-4.5433c-0.463-8.3143-1.0362-25.87-1.0377-31.783-5.88e-4 -3.2096-0.15501-5.663-0.34264-5.452-0.18764 0.21101-0.93451 2.6553-1.6597 5.4318-0.7252 2.7765-3.4401 11.863-6.0331 20.192l-4.7146 15.144-9.3441 0.22638-0.47422-1.5817c-3.326-11.093-9.7647-36.519-9.7647-38.56 0-0.3696-0.18187-0.67199-0.40414-0.67199-0.23637 0-0.40624 1.3832-0.40918 3.3318-0.0029 1.8325-0.36424 10.692-0.80326 19.688-0.43902 8.9958-0.80049 16.856-0.80325 17.467l-0.0053 1.1106h-10.912zm87.295-5.074v-6.0577h-23.036v-7.3905l8.4367-13.569c4.6402-7.4631 9.0321-14.523 9.7599-15.69l1.3232-2.1202h14.428v29.885h6.4663v8.8507l-6.2642 0.2359v11.914l-11.114-3.35e-4zm5e-3 -24.534c3e-3 -5.2753 0.11518-10 0.24921-10.5 0.13402-0.49976 0.0836-0.90866-0.11223-0.90866-0.19575 0-1.3838 2.1354-2.6401 4.7452-1.2563 2.6099-3.8454 7.2639-5.7534 10.342-1.9081 3.0783-3.4692 5.668-3.4692 5.7549 0 0.08682 2.637 0.15786 5.8601 0.15786h5.8601l5e-3 -9.5914zm20.766 29.896c0.12163-0.39458 2.335-7.6233 4.9187-16.064 2.5836-8.4405 6.1186-19.98 7.8554-25.644l3.1578-10.298 7.9179-0.1095c4.3548-0.06023 7.9179-0.01472 7.9179 0.10114 0 0.11585 2.0774 6.8892 4.6165 15.052 8.8722 28.523 11.549 37.201 11.549 37.439 0 0.132-2.8597 0.18996-6.3548 0.12879l-6.3548-0.11122-1.8942-6.392c-1.0418-3.5156-1.9731-6.4709-2.0696-6.5673-0.0965-0.0964-3.6039-0.20096-7.7943-0.23235l-7.6189-0.05709-3.6959 13.249-6.186 0.11164c-5.7682 0.10411-6.171 0.06319-5.9649-0.60577zm29.343-21.929c0-0.22725-0.6616-2.6352-1.4702-5.351-0.80861-2.7158-2.1407-7.4708-2.9602-10.567-0.81951-3.0959-1.5892-5.4584-1.7104-5.25-0.12123 0.20837-0.53376 1.8327-0.91676 3.6097-0.383 1.7769-1.5888 6.4513-2.6794 10.387-1.0907 3.9362-1.9831 7.2528-1.9831 7.3703 0 0.11747 2.637 0.21358 5.8601 0.21358 3.7256 0 5.8601-0.1505 5.8601-0.4132z" stroke="#000" stroke-linecap="round" stroke-linejoin="round" stroke-width="4"/>
</svg>
