<?xml version="1.0" encoding="UTF-8"?>
<svg id="SVGRoot" width="192px" height="192px" version="1.1" viewBox="0 0 192 192" xmlns="http://www.w3.org/2000/svg">
 <g fill="none" fill-rule="evenodd" stroke="#000" stroke-linecap="round" stroke-linejoin="round">
  <path id="path" d="m40.735 20.131c-0.4105 0.30219-3.2967 13.18-3.9908 17.808-0.46093 3.0706-0.86435 10.239-0.86848 15.431l-1e-3 1.5089-1.4235-0.73053c-1.3757-0.7059-1.4338-0.72608-1.7325-0.60141-0.17016 0.0709-0.35535 0.21551-0.41168 0.32148-0.29018 0.5459-0.43645 9.6884-0.19168 12.011 0.52167 4.9579 2.1224 11.24 4.0646 15.952 1.0711 2.5983 3.2551 6.4489 6.2459 11.012 0.51902 0.79228 0.93247 1.4501 0.91831 1.4617-0.0144 0.0119-0.54467-0.10271-1.1784-0.25469-1.3073-0.31317-4.0858-0.8558-5.6856-1.1102-1.2303-0.19562-1.422-0.15465-1.7001 0.36512l-0.17693 0.33068 0.98495 2.9925c2.3819 7.2355 3.7157 10.711 5.8791 15.319 3.7142 7.9114 5.2038 10.432 8.5688 14.5 2.4733 2.9898 5.3618 5.6421 12.059 11.073 6.312 5.1179 8.6302 7.1055 10.937 9.377 4.1755 4.1113 5.7142 6.6128 8.7738 14.26 1.6414 4.1027 2.294 5.399 3.4267 6.8093 1.6889 2.1022 4.9024 3.5339 8.7906 3.916 5.3014 0.52067 10.451-1.0615 12.743-3.916 1.1327-1.4103 1.785-2.7066 3.4264-6.8093 2.4453-6.1114 3.8254-8.6838 6.1648-11.489 2.2958-2.7532 5.4668-5.5967 13.546-12.148 6.6974-5.4307 9.586-8.083 12.059-11.073 3.3651-4.0679 4.8546-6.5884 8.5688-14.5 2.1634-4.6082 3.4972-8.0836 5.8791-15.319l0.98496-2.9925-0.17723-0.33068c-0.2778-0.51977-0.46977-0.56074-1.6998-0.36512-1.6001 0.2544-4.3784 0.79703-5.6856 1.1102-0.63403 0.15198-1.164 0.26656-1.1784 0.25469-0.0142-0.0116 0.399-0.66938 0.91832-1.4617 2.9908-4.5628 5.1749-8.4134 6.2456-11.012 1.9422-4.7124 3.5429-10.994 4.0649-15.952 0.24447-2.3225 0.0985-11.465-0.19198-12.011-0.0563-0.10597-0.24152-0.25053-0.41138-0.32148-0.29873-0.12467-0.35712-0.10449-1.7325 0.60141l-1.4235 0.73053-1e-3 -1.5089c-2e-3 -1.8974-0.15777-6.8416-0.29077-9.1956-0.25125-4.4535-0.5544-6.6923-1.591-11.747-0.72397-3.5309-2.6075-11.62-2.8195-12.106-0.11029-0.2541-0.48776-0.37343-0.74403-0.2357-0.0997 0.054-0.59009 0.64208-1.0894 1.307-0.83427 1.1117-2.1298 2.3964-16.018 15.887-12.547 12.188-15.291 14.808-16.175 15.444l-1.0643 0.76645-1.7859-0.59191c-3.138-1.0398-5.3108-1.6116-7.4167-1.9514-5.6446-0.91042-16.614-0.91042-22.259 0-2.1056 0.33988-4.2787 0.9116-7.4167 1.9514l-1.7856 0.59191-1.0643-0.76645c-0.88381-0.63643-3.6275-3.2564-16.175-15.444-13.889-13.49-15.184-14.775-16.018-15.887-1.0705-1.4257-1.2601-1.5685-1.6753-1.2628" stroke-width="8"/>
  <path d="m53.842 61.792c-1.8496 0.50048-2.9749 1.6487-3.9333 4.0127-1.0746 2.6499-1.5087 5.3263-1.4241 8.7726 0.1274 5.1775 1.1825 10.411 2.3471 11.64 0.33824 0.3571 0.78236 0.49781 1.1407 0.36185 0.90239-0.34255 1.767-1.7641 3.8791-6.3777 2.4403-5.3304 3.2398-6.6689 4.4762-7.495 0.67679-0.4521 1.6744-0.81454 3.304-1.2001 1.9363-0.45773 2.6924-0.97365 2.6871-1.8333-7e-3 -1.2168-2.046-3.6081-4.9224-5.7736-1.5506-1.1678-2.877-1.8277-4.2445-2.112-0.8962-0.18612-2.6125-0.18344-3.3099 5e-3m80.971-4e-3c-1.3598 0.29714-2.7502 0.99828-4.2737 2.1554-2.849 2.1637-4.852 4.5257-4.8593 5.7297-5e-3 0.85965 0.7511 1.3756 2.6874 1.8333 1.6296 0.3856 2.627 0.74804 3.3037 1.2001 1.2368 0.82611 2.0363 2.1646 4.4763 7.495 2.112 4.6135 2.977 6.0351 3.8794 6.3777 0.358 0.13596 0.80241-5e-3 1.1407-0.36185 1.1643-1.228 2.2197-6.462 2.3468-11.64 0.0849-3.4463-0.34945-6.1227-1.4238-8.7726-0.96726-2.3863-2.0932-3.5238-3.974-4.0172-0.70864-0.18583-2.4521-0.18583-3.3034 0m-41.316 9.116c-0.51165 0.32802-1.4406 1.3129-2.0513 2.1744-0.65585 0.92496-1.2648 2.2946-1.4477 3.2558-0.23975 1.261-0.28782 3.0613-0.11206 4.2122 0.27278 1.79 0.76998 2.7105 2.2684 4.1988 1.7741 1.7626 3.0003 2.1272 3.3695 1.001 0.1504-0.45862 0.07284-1.2916-0.33884-3.6405-0.61781-3.5226-0.63374-3.8581-0.33913-6.9838 0.22796-2.4175 0.24388-3.506 0.05721-3.9554-0.24919-0.60021-0.73754-0.69134-1.4061-0.26241m3.9101-0.16445c-0.49749 0.29091-0.55175 1.2266-0.2542 4.3823 0.2949 3.1258 0.27868 3.4612-0.33884 6.9838-0.41197 2.3489-0.48924 3.1819-0.33913 3.6405 0.36951 1.1262 1.5957 0.7617 3.3698-1.001 1.4981-1.4884 1.9953-2.4089 2.2684-4.1988 0.17576-1.1509 0.12769-2.9512-0.11236-4.2122-0.27897-1.4676-1.1872-3.1219-2.4813-4.5188-0.94397-1.0191-1.6205-1.3634-2.1124-1.0758m-37.809 34.985c-0.53524 0.53877 0.16603 2.6737 1.9852 6.0422 1.7897 3.3151 3.2651 4.938 6.3981 7.0378 1.7343 1.1621 2.3736 1.5056 4.6847 2.5175 4.4754 1.9589 4.928 2.2795 7.5329 5.3334 1.1899 1.3954 1.5939 1.7852 2.0466 1.974 0.26305 0.10983 0.33943 0.10597 0.53848-0.0255 0.37894-0.24994 0.47508-0.7142 0.34945-1.6858-0.26393-2.0369-1.2185-5.1081-2.2159-7.1269-0.84724-1.7158-1.6992-2.9209-2.9749-4.208-1.3309-1.3435-2.4839-2.2038-3.8897-2.9031-1.2141-0.60407-1.7019-0.78485-4.8113-1.7849-3.3306-1.071-3.9858-1.4266-6.5703-3.5666-2.1247-1.7597-2.6479-2.0328-3.0734-1.6041m71.699 0.0899c-0.26423 0.15466-1.1501 0.83591-1.9687 1.5142-2.5845 2.1399-3.2398 2.4956-6.5703 3.5666-3.1094 1.0001-3.5972 1.1808-4.8113 1.7849-1.4058 0.69936-2.5588 1.5596-3.89 2.9031-1.2754 1.2871-2.1274 2.4923-2.9749 4.208-0.99705 2.0188-1.9519 5.09-2.2156 7.1269-0.12592 0.97157-0.0298 1.4358 0.34946 1.6858 0.47449 0.31317 0.98378-0.0707 2.5851-1.9485 2.6048-3.0539 3.0575-3.3745 7.5326-5.3334 2.3114-1.0119 2.9508-1.3554 4.685-2.5175 3.1327-2.0999 4.6081-3.7227 6.3981-7.0378 1.8192-3.3686 2.5202-5.5035 1.9853-6.0422-0.26276-0.26419-0.53878-0.24163-1.1047 0.0899m-39.187 45.649c-2.7213 0.22382-3.6016 0.63168-3.6016 1.668 0 1.2298 2.8437 4.3897 5.194 5.7715 1.7343 1.0194 2.8608 1.0194 4.5951 0 2.3503-1.3818 5.194-4.5417 5.194-5.7715 0-1.0568-0.85668-1.4388-3.7408-1.6703-1.4683-0.11785-6.1979-0.11636-7.6408 2e-3" stroke-width="6"/>
 </g>
</svg>
