<svg xmlns="http://www.w3.org/2000/svg" viewBox="0 0 192 192"><path fill="none" stroke="#000" stroke-linecap="round" stroke-linejoin="round" stroke-width="8" d="M157.606 157.606c0 4.667-1.856 9.147-5.155 12.446-3.3 3.3-7.78 5.156-12.447 5.156H51.996a17.608 17.608 0 0 1-12.447-5.156 17.608 17.608 0 0 1-5.155-12.446V34.394c0-4.667 1.856-9.147 5.155-12.446 3.3-3.3 7.78-5.156 12.447-5.156h88.008c4.667 0 9.147 1.856 12.447 5.156a17.608 17.608 0 0 1 5.155 12.446Z"/><path fill="none" stroke="#000" stroke-linecap="round" stroke-linejoin="round" stroke-width="8" d="M51.012 66.616c2.332 0 4.383.343 6.126 1.021 1.073.29 1.993.629 2.772 1.016 3.609-.206 7.21-.545 10.794-1.016 4.858-.59 10.838-1.307 17.936-2.187V55.245c0-7.098-.827-12.972-2.477-17.645-.682-1.461-1.025-2.429-1.025-2.914 0-1.456.585-2.191 1.751-2.191 3.107 0 5.98.392 8.598 1.171 3.019.871 4.524 1.993 4.524 3.348 0 .489-.185 1.505-.59 3.063-1.166 3.014-1.738 8.603-1.738 16.77v7.582c5.716-.581 11.983-1.214 18.794-1.892 3.021-.18 6.01-.721 8.903-1.611 2.037-.387 3.251-.581 3.652-.581 1.162 0 3.683.977 7.569 2.914 4.083 2.433 6.134 4.33 6.134 5.689 0 1.065-.528 2.139-1.593 3.208-3.604 3.877-6.196 7.961-7.74 12.242l-3.512 7.441c-.572 1.448-1.215 2.566-1.875 3.345l.564.295c2.235 1.368 3.348 2.578 3.348 3.648 0 .871-.805 1.359-2.464 1.46-7.476 0-14.24.388-20.268 1.171l-11.503.862-.15 19.547c0 8.841-.303 15.93-.871 21.29-.585 6.019-1.465 10.301-2.631 12.822-1.079 2.148-1.959 3.226-2.632 3.226-.392 0-1.021-1.171-1.896-3.512-.581-2.715-.872-7.423-.872-14.143v-38.499l-7.872.735c-5.254.488-9.289.739-12.101.739-1.171 0-2.148-.106-2.922-.304a8.455 8.455 0 0 1-.872 2.346c-.585 1.263-1.218 1.892-1.901 1.892-.871 0-1.694-.678-2.473-2.046-1.262-1.928-1.945-3.925-2.041-5.976l-1.752-11.375c-.682-5.932-1.461-10.059-2.336-12.4-.489-2.425-1.8-4.757-3.934-6.997-.779-.484-1.171-.819-1.171-1.012 0-1.558.585-2.337 1.747-2.337ZM65.74 98.392c7.64-.357 15.272-.838 22.896-1.444V69.965a246.074 246.074 0 0 0-21.725 3.503c-1.364.488-2.627.827-3.793 1.02 0 1.167.097 2.333.295 3.49 1.166 8.858 1.94 15.67 2.327 20.414Zm31.943-29.439v27.12c3.204-.383 6.315-.788 9.325-1.167 5.835-.783 10.059-1.258 12.669-1.456.211-.484.453-1.021.739-1.597.876-2.821 2.037-7.244 3.511-13.272 1.162-4.77 1.734-7.78 1.734-9.047 0-1.554-1.492-2.328-4.506-2.328-4.581 0-11.863.532-21.883 1.597a7.702 7.702 0 0 0-1.589.15Z"/></svg>