<?xml version="1.0" encoding="UTF-8"?>
<svg id="vector" width="192" height="192" version="1.1" viewBox="0 0 192 192" xmlns="http://www.w3.org/2000/svg">
 <path d="m43.824 80.864c0-22.48 12.4-44.4 37.184-44.4 25.08 0 37.76 21.336 37.76 44.4 0 22.776-11.232 44.4-37.76 44.4-25.944 0-37.184-22.2-37.184-44.4zm-23.064 0c0 38.344 21.904 65.152 60.248 65.152 38.64 0 60.832-26.808 60.832-65.152 0-37.192-22.48-64.864-60.832-64.864-38.048 0-60.248 27.68-60.248 64.864zm115.6 95.136v-8.936c4.608-4.32 22.48-19.32 22.48-28.832 0-4.896-4.32-7.2-8.36-7.2-4.608 0-8.936 2.016-12.4 4.32l-0.856-8.936a37.56 37.56 0 0 1 15.856-3.752c9.8 0 16.144 5.192 16.144 15.568 0 10.96-11.248 21.336-19.6 29.408h21.616v8.36z" stroke-width="8"/>
</svg>
