<?xml version="1.0" encoding="UTF-8"?>
<svg width="192" height="192" fill="none" version="1.1" viewBox="0 0 192 192" xmlns="http://www.w3.org/2000/svg">
 <path d="m96 16.001c-45.07 0-80 33.014-80 77.602 0 23.324 9.5613 43.477 25.127 57.4 1.3038 1.175 2.0926 2.8009 2.157 4.5554l0.43448 14.229c0.14487 4.5392 4.8291 7.4848 8.982 5.6659l15.871-7.002c1.3521-0.59557 2.8491-0.70825 4.2656-0.32193 7.2918 2.0121 15.066 3.0744 23.163 3.0744 45.07 0 80-33.014 80-77.602 0-44.588-34.93-77.602-80-77.602zm45.126 53.871c2.5533 0.2241 4.6087 3.1669 2.9065 5.847l-23.485 37.264c-3.7344 5.9235-11.751 7.4045-17.352 3.2033l-18.688-14.02c-1.7223-1.2877-4.0725-1.2717-5.7787 0.016l-25.255 19.171c-3.3642 2.5594-7.7748-1.481-5.5052-5.0544l23.501-37.28c3.7344-5.9235 11.751-7.4045 17.352-3.2033l18.688 14.02c1.7223 1.2877 4.0725 1.2717 5.7787-0.016l25.239-19.155c0.84104-0.63984 1.7476-0.86727 2.5987-0.79257z" fill="#000" stroke-width=".16097"/>
</svg>
