<?xml version="1.0" encoding="UTF-8"?>
<svg id="SVGRoot" width="192px" height="192px" version="1.1" viewBox="0 0 192 192" xmlns="http://www.w3.org/2000/svg">
 <path id="path" d="m95.549 20.004c4.402-0.03763 8.3525 0.18816 11.061 0.56448 2.3327 0.30106 6.0951 1.0537 8.3901 1.6558 2.295 0.60211 5.4931 1.5805 7.1485 2.1827 1.6554 0.60211 5.0792 2.145 7.6 3.4245 2.5584 1.2419 6.2832 3.4245 8.2772 4.7793 2.0317 1.3924 4.9663 3.575 6.5089 4.8545 1.5426 1.3171 4.2891 3.8761 6.0574 5.7201 1.7683 1.8063 4.1386 4.5158 5.3049 5.9459 1.1664 1.43 3.0475 4.0643 4.1762 5.833 1.1287 1.7687 3.198 5.4943 4.5525 8.279 1.3544 2.7848 3.0475 6.849 3.7624 9.0317 0.67722 2.1827 1.6178 5.6448 2.0317 7.7146 0.45148 2.0698 0.97821 5.1932 1.204 6.9619 0.18812 1.7687 0.37625 5.6448 0.37625 14.112h-9.5564c-9.1426 0-9.6317-0.0376-10.648-0.79026-0.67722-0.48922-2.295-3.1611-4.4396-7.263-1.8812-3.5374-3.9129-6.9996-4.5148-7.6393s-1.7307-1.43-2.4456-1.7311-1.994-0.52685-2.8218-0.52685c-0.82773 0-2.2198 0.33869-3.1228 0.79027-0.86535 0.41395-1.9188 1.2419-2.3703 1.8063-0.41386 0.60211-1.1663 1.9192-1.6554 2.9353-0.48911 1.0537-1.7307 5.118-2.7842 9.0317-1.0535 3.9137-2.1446 7.9027-2.4832 8.8435-0.33861 0.9408-0.90297 1.9945-1.2416 2.3708-0.33862 0.37632-1.3033 5.6346-1.4914 5.597-0.1505 0 0.0617-5.4089-0.23929-5.9733-0.26338-0.60211-0.79011-2.3332-1.1287-3.8761-0.33861-1.5429-1.2792-7.978-2.1069-14.3-0.82773-6.3222-1.7683-13.021-2.0693-14.865-0.33861-1.844-1.0158-4.9298-1.5426-6.7738s-1.5802-4.5535-2.3327-5.9835c-0.75248-1.43-1.9941-3.0858-2.7089-3.6503-0.71485-0.60211-2.0693-1.3171-3.0099-1.6182-1.3168-0.41395-1.9564-0.41395-3.0099-0.07526-0.71485 0.22579-1.7683 0.71501-2.3703 1.0913-0.56436 0.33869-1.6178 1.5429-2.3327 2.6342-0.71486 1.0537-1.8059 3.4998-2.4079 5.3437-0.60198 1.844-1.4673 5.2308-1.8812 7.5264-0.41386 2.2956-1.1663 8.6177-1.7307 14.112-0.52673 5.4943-1.3168 13.435-1.7307 17.687-0.37624 4.2524-1.0911 9.822-1.505 12.419-0.45148 2.5966-0.94059 5.0051-1.1287 5.3814-0.18812 0.3387-0.3642 3.6316-0.74044 3.5563-0.41386-0.0376-1.2536-3.9326-1.818-5.3626-0.48911-1.2418-2.1446-8.3543-3.6119-15.805-1.505-7.4511-3.1604-14.902-3.7248-16.558-0.56436-1.6558-1.5426-3.9137-2.2198-5.0051s-1.8059-2.4084-2.5208-2.9353c-0.71485-0.48922-2.0693-1.0161-3.0099-1.129-1.0911-0.15053-2.2198-0.03763-3.198 0.33869-0.86535 0.33869-2.2198 1.3924-3.1228 2.4084-1.0535 1.1666-2.0317 2.86-2.7842 4.8169-0.67723 1.7687-2.0693 7.4888-3.3861 13.924-1.2416 5.9835-2.5584 11.628-2.9723 12.531-0.37624 0.86553-1.4914 4.61-1.7548 4.61-0.22574 0.0376-0.0888-3.2176-0.35216-3.481-0.22574-0.26343-1.5426-3.4622-2.9347-7.0748-1.3545-3.6127-3.0099-7.4135-3.6871-8.4296-0.67723-1.0161-1.9564-2.5213-2.897-3.3116-0.9406-0.82791-2.295-1.6558-3.0099-1.8816-0.75248-0.22579-5.6812-0.45158-21.446-0.67738v-2.145c0-1.2042 0.26337-3.9514 0.52673-6.134 0.30099-2.1827 0.97822-5.7953 1.5426-8.0909 0.56436-2.2956 1.6178-5.7577 2.3327-7.7146 0.75247-1.9569 2.2574-5.419 3.3861-7.7146 1.1663-2.2956 3.0099-5.5695 4.1386-7.3382 1.1663-1.7687 2.9347-4.29 3.9881-5.6448 1.0535-1.3548 3.4614-4.0266 5.3426-5.9459 1.8436-1.9569 4.6653-4.5911 6.2079-5.9082 1.5426-1.2795 4.4772-3.4621 6.4713-4.8545 2.0317-1.3548 5.7564-3.5374 8.2772-4.7793 2.5584-1.2795 6.1703-2.86 8.0139-3.5374 1.8436-0.67738 5.1545-1.6934 7.3366-2.2203 2.1822-0.52685 5.5683-1.2042 7.5248-1.5053 1.9564-0.30106 6.6594-0.52685 10.422-0.56448zm10.158 46.25c0.15049-0.03763 0.56435 0.26342 0.90296 0.63974 0.37625 0.37632 0.97823 1.7687 1.3921 3.1235 0.41386 1.3548 1.0911 4.5535 1.5426 7.1501 0.41386 2.5966 1.2792 8.9564 1.9188 14.112 0.6396 5.1556 1.5049 11.101 1.8812 13.171 0.41386 2.0698 1.1663 5.0427 1.6931 6.5856s1.2792 3.3492 1.6931 3.9514c0.37623 0.60211 1.0911 1.5053 1.5802 1.9569 0.48911 0.45158 1.5426 0.97844 2.3703 1.1666 0.90297 0.22579 2.2198 0.22579 3.2733 0.0376 1.0158-0.18816 2.4832-0.79028 3.2733-1.3924 0.82772-0.56448 2.1069-1.9569 2.8594-3.0858 0.7901-1.2042 1.8812-3.8008 2.6337-6.2093 0.71484-2.2956 1.8059-6.1717 2.4455-8.6554 0.63961-2.4837 1.505-5.0803 1.8812-5.7577 0.71486-1.1666 0.51469-4.4714 1.2295-3.8693 0.45149 0.37632 1.0655 4.0951 1.0279 4.2456 0 0.18816 1.0158 2.3708 2.2198 4.8922 1.4673 3.0482 2.7842 5.1932 3.8752 6.3222 0.86534 0.9408 2.596 2.2579 5.9446 4.1395h9.7822c9.5188 0 10.108 0.63156 10.318-0.0518 0.55081-1.7893 0.30195-1.9958-1.1007 4.0785-0.33861 1.43-0.86535 3.3869-1.1663 4.4406-0.33861 1.0161-1.1287 3.3116-1.7307 5.0803-0.63961 1.7687-2.0693 5.0427-3.198 7.3382-1.1663 2.2956-3.0099 5.5695-4.1386 7.3382-1.1663 1.7687-2.9346 4.29-3.9881 5.6448-1.0535 1.3548-3.4614 4.0266-5.3426 5.9458-1.8436 1.9569-4.6653 4.5911-6.2079 5.9082-1.5426 1.2795-4.4772 3.4621-6.5089 4.8545-1.9941 1.3548-5.4555 3.3869-7.7129 4.5158-2.2198 1.0913-5.5683 2.5966-7.4119 3.3492-1.8436 0.75264-5.3426 1.844-7.7129 2.4837-2.3703 0.60212-6.2456 1.3924-8.5782 1.6934-2.4832 0.3763-6.8099 0.60209-10.61 0.60209-3.8 0-8.1267-0.22579-10.648-0.6021-2.2951-0.30106-6.1703-1.0913-8.5406-1.6934-2.3703-0.63975-5.8693-1.7311-7.7129-2.4837-1.8436-0.75263-5.1921-2.2579-7.4495-3.3492-2.2198-1.129-5.6812-3.1611-7.7129-4.5158-1.9941-1.3924-4.9287-3.575-6.4713-4.8545-1.5426-1.3171-4.2891-3.8761-6.0574-5.7201-1.7683-1.8063-4.1386-4.4782-5.305-5.9459-1.1663-1.4676-3.0099-4.0643-4.1762-5.833-1.1287-1.7687-2.9347-4.9674-4.0257-7.1501-1.0911-2.1827-2.5584-5.4943-3.2733-7.3382s-1.8059-5.3438-2.4079-7.7146c-0.60198-2.3708-1.3545-6.2846-1.6554-8.6554-0.33861-2.3708-0.45149-4.4782-0.30099-4.6287 0.15049-0.15053 4.4396-0.11289 18.737 0.41395l1.3545 1.43c0.86535 0.97844 1.8059 2.7472 2.7842 5.2309 0.7901 2.0698 2.1069 5.5319 2.9347 7.7146 1.2792 3.274 1.8436 4.2901 3.4238 5.8706 1.5426 1.5429 2.295 1.9945 3.8 2.2956 1.2416 0.26342 2.3327 0.30105 3.198 0.0376 0.71485-0.18816 1.8059-0.67737 2.4455-1.0537 0.6396-0.37631 1.6931-1.4676 2.3703-2.4837 0.67723-1.0161 1.6554-3.1235 2.1446-4.6664 0.52673-1.5429 1.8059-7.0748 2.8218-12.23 1.0535-5.1932 2.1446-10.349 2.4832-11.478 0.33862-1.129 0.86535-2.3708 1.204-2.7095 0.52673-0.56448 1.5787-3.3185 1.9549-2.9422 0.26337 0.22579 0.11438 4.5604 0.60349 6.2162 0.52674 1.6558 1.7683 7.4135 2.7842 12.795 1.0158 5.3814 2.295 11.44 2.8218 13.472 0.52673 1.9945 1.3545 4.704 1.8059 6.0211 0.48911 1.2795 1.3921 3.1611 1.9941 4.1772 0.60198 1.0161 1.5802 2.2579 2.2198 2.7848 0.6396 0.52684 1.7307 1.2042 2.4455 1.5053 0.71485 0.30106 1.8059 0.52686 2.4455 0.48921 0.6396 0 1.8059-0.41394 2.6337-0.94079 1.0535-0.60211 1.8812-1.5429 2.6713-3.0858 0.6396-1.2418 1.5426-3.3116 1.9564-4.6664 0.41386-1.3548 1.0535-3.8008 1.3545-5.4566 0.33861-1.6558 0.82772-5.118 1.1663-7.7146 0.301-2.5966 1.0535-10.462 1.6931-17.499 0.63961-7.0372 1.3168-14.15 1.5426-15.805 0.22575-1.6558 0.71485-4.5535 1.1287-6.3974 0.41386-1.844 1.0535-4.1019 1.4673-4.9674 0.37623-0.90317 0.86534-5.1984 1.0158-5.1984z" fill="none" stroke="#000" stroke-linecap="round" stroke-linejoin="round" stroke-width="8"/>
</svg>
