<svg xmlns="http://www.w3.org/2000/svg" width="192" height="192" viewBox="0 0 192 192"><path fill="none" stroke="#000" stroke-linecap="round" stroke-linejoin="round" stroke-width="8" d="M95.549 20.004c4.402-.038 8.352.188 11.061.564 2.333.302 6.095 1.054 8.39 1.656 2.295.602 5.493 1.58 7.149 2.183 1.655.602 5.079 2.145 7.6 3.424 2.558 1.242 6.283 3.425 8.277 4.78 2.031 1.392 4.966 3.575 6.509 4.854 1.542 1.317 4.289 3.876 6.057 5.72 1.768 1.807 4.139 4.516 5.305 5.946 1.166 1.43 3.048 4.065 4.176 5.833 1.129 1.769 3.198 5.495 4.553 8.28 1.354 2.784 3.047 6.848 3.762 9.031.677 2.183 1.618 5.645 2.032 7.715a97.17 97.17 0 0 1 1.204 6.961c.188 1.77.376 5.645.376 14.112h-9.556c-9.143 0-9.632-.037-10.648-.79-.678-.489-2.295-3.16-4.44-7.263-1.881-3.537-3.913-7-4.515-7.64s-1.73-1.43-2.445-1.73-1.994-.527-2.822-.527c-.828 0-2.22.339-3.123.79-.865.414-1.919 1.242-2.37 1.807-.414.602-1.167 1.919-1.656 2.935-.489 1.054-1.73 5.118-2.784 9.032-1.053 3.913-2.144 7.902-2.483 8.843-.339.94-.903 1.995-1.242 2.37-.338.377-1.303 5.635-1.491 5.598-.15 0 .062-5.41-.24-5.973-.263-.603-.79-2.334-1.128-3.877-.339-1.542-1.28-7.978-2.107-14.3-.828-6.322-1.768-13.02-2.07-14.865-.338-1.844-1.015-4.93-1.542-6.773s-1.58-4.554-2.333-5.984c-.752-1.43-1.994-3.086-2.708-3.65-.715-.602-2.07-1.317-3.01-1.618-1.317-.414-1.957-.414-3.01-.076-.715.226-1.769.715-2.37 1.092-.565.338-1.618 1.543-2.333 2.634-.715 1.054-1.806 3.5-2.408 5.344-.602 1.844-1.467 5.23-1.881 7.526-.414 2.296-1.167 8.618-1.731 14.112-.527 5.494-1.317 13.435-1.73 17.687-.377 4.252-1.092 9.822-1.506 12.419-.451 2.597-.94 5.005-1.128 5.381-.189.34-.365 3.632-.74 3.557-.415-.038-1.254-3.933-1.819-5.363-.489-1.242-2.144-8.354-3.612-15.805-1.505-7.451-3.16-14.902-3.725-16.558-.564-1.656-1.542-3.914-2.22-5.005s-1.805-2.408-2.52-2.935c-.715-.49-2.07-1.016-3.01-1.13-1.091-.15-2.22-.037-3.198.34-.865.338-2.22 1.392-3.123 2.408-1.053 1.166-2.032 2.86-2.784 4.817-.677 1.768-2.07 7.488-3.386 13.924-1.242 5.983-2.559 11.628-2.972 12.53-.377.866-1.492 4.61-1.755 4.61-.226.038-.09-3.217-.352-3.48-.226-.264-1.543-3.463-2.935-7.075-1.355-3.613-3.01-7.414-3.687-8.43s-1.957-2.521-2.897-3.311c-.94-.828-2.295-1.656-3.01-1.882-.753-.226-5.681-.452-21.446-.677v-2.145c0-1.205.263-3.952.527-6.134.3-2.183.978-5.796 1.542-8.091.565-2.296 1.618-5.758 2.333-7.715.752-1.957 2.257-5.419 3.386-7.714 1.166-2.296 3.01-5.57 4.139-7.339 1.166-1.768 2.934-4.29 3.988-5.644 1.053-1.355 3.461-4.027 5.342-5.946 1.844-1.957 4.666-4.591 6.208-5.909 1.543-1.279 4.477-3.462 6.471-4.854 2.032-1.355 5.757-3.537 8.278-4.78 2.558-1.279 6.17-2.86 8.014-3.537 1.843-.677 5.154-1.693 7.336-2.22 2.182-.527 5.568-1.204 7.525-1.505 1.956-.301 6.66-.527 10.422-.565zm10.158 46.25c.15-.038.564.263.903.64.376.376.978 1.768 1.392 3.123.414 1.355 1.091 4.554 1.543 7.15.414 2.597 1.279 8.957 1.918 14.112.64 5.156 1.505 11.101 1.882 13.171.414 2.07 1.166 5.043 1.693 6.586s1.279 3.35 1.693 3.951c.376.602 1.091 1.506 1.58 1.957.49.452 1.543.979 2.37 1.167.903.226 2.22.226 3.274.037 1.015-.188 2.483-.79 3.273-1.392.828-.564 2.107-1.957 2.86-3.086.79-1.204 1.88-3.8 2.633-6.21.715-2.295 1.806-6.17 2.446-8.654.64-2.484 1.505-5.08 1.88-5.758.716-1.167.515-4.472 1.23-3.87.452.377 1.066 4.096 1.028 4.246 0 .188 1.016 2.37 2.22 4.892 1.467 3.049 2.784 5.194 3.875 6.323.866.94 2.596 2.257 5.945 4.139h9.782c9.519 0 10.108.632 10.318-.052.55-1.79.302-1.996-1.1 4.079-.34 1.43-.866 3.387-1.167 4.44-.339 1.016-1.129 3.312-1.73 5.08-.64 1.77-2.07 5.043-3.199 7.339-1.166 2.295-3.01 5.57-4.138 7.338-1.167 1.769-2.935 4.29-3.988 5.645-1.054 1.355-3.462 4.026-5.343 5.946-1.844 1.957-4.665 4.59-6.208 5.908-1.543 1.28-4.477 3.462-6.509 4.854-1.994 1.355-5.455 3.387-7.713 4.516-2.22 1.091-5.568 2.597-7.412 3.35-1.843.752-5.342 1.843-7.713 2.483-2.37.602-6.245 1.392-8.578 1.693-2.483.377-6.81.603-10.61.603s-8.126-.226-10.648-.603c-2.295-.3-6.17-1.09-8.54-1.693-2.37-.64-5.87-1.731-7.713-2.484-1.844-.752-5.192-2.258-7.45-3.349-2.22-1.129-5.68-3.161-7.713-4.516-1.994-1.392-4.928-3.575-6.47-4.854-1.544-1.317-4.29-3.876-6.058-5.72-1.769-1.807-4.139-4.478-5.305-5.946-1.167-1.468-3.01-4.064-4.177-5.833-1.128-1.769-2.934-4.968-4.025-7.15-1.091-2.183-2.559-5.495-3.274-7.338s-1.805-5.344-2.407-7.715c-.602-2.37-1.355-6.285-1.656-8.655-.338-2.371-.451-4.479-.3-4.63.15-.15 4.439-.112 18.736.415l1.355 1.43c.865.978 1.806 2.747 2.784 5.23.79 2.07 2.107 5.533 2.935 7.715 1.279 3.274 1.843 4.29 3.423 5.87 1.543 1.544 2.295 1.995 3.8 2.296 1.242.264 2.333.302 3.198.038.715-.188 1.806-.677 2.446-1.054.64-.376 1.693-1.467 2.37-2.483s1.656-3.124 2.145-4.667c.527-1.543 1.806-7.075 2.822-12.23 1.053-5.193 2.144-10.349 2.483-11.478.338-1.129.865-2.37 1.204-2.71.527-.564 1.578-3.318 1.955-2.941.263.225.114 4.56.603 6.216.527 1.656 1.768 7.413 2.784 12.795 1.016 5.381 2.295 11.44 2.822 13.472a106.9 106.9 0 0 0 1.806 6.02c.49 1.28 1.392 3.162 1.994 4.178.602 1.016 1.58 2.258 2.22 2.785.64.527 1.73 1.204 2.445 1.505.715.301 1.806.527 2.446.49.64 0 1.806-.415 2.634-.941 1.053-.603 1.88-1.543 2.671-3.086.64-1.242 1.543-3.312 1.956-4.667.414-1.354 1.054-3.8 1.355-5.456.338-1.656.828-5.118 1.166-7.715.301-2.596 1.054-10.462 1.693-17.499.64-7.037 1.317-14.15 1.543-15.805.226-1.656.715-4.553 1.129-6.397.413-1.844 1.053-4.102 1.467-4.968.376-.903.865-5.198 1.016-5.198z"/></svg>