<?xml version="1.0" encoding="UTF-8"?>
<svg id="SVGRoot" width="192px" height="192px" version="1.1" viewBox="0 0 192 192" xmlns="http://www.w3.org/2000/svg">
 <path d="m44.578 168.16c-3.395-0.78741-8.5039-2.5655-11.568-4.026-6.0979-2.9069-14.757-10.515-12.703-11.161 0.3873-0.12165 2.0286-0.63962 3.6474-1.1508 2.1877-0.69088 3.7386-1.7239 6.0417-4.0244 3.5281-3.524 4.2098-5.232 5.2665-13.196 0.87901-6.624 2.7872-10.759 6.8516-14.849 4.7067-4.7354 10.123-7.0281 16.633-7.0413 11.102-0.0226 20.751 7.4167 23.416 18.053 0.85181 3.399 0.70534 10.051-0.30538 13.87-3.0248 11.43-11.784 19.994-23.592 23.066-3.0099 0.78307-11.12 1.0554-13.689 0.45966zm41.857-59.251-10.756-10.849 36.788-36.687c20.234-20.178 37.327-36.959 37.985-37.291 1.6553-0.83561 4.8674-0.75616 6.6398 0.16428 0.81397 0.42267 4.501 3.8492 8.1935 7.6144l6.7136 6.8459v2.9383c0 1.8018-0.34639 3.4618-0.89551 4.2918-0.9811 1.4828-73.191 73.905-73.638 73.854-0.15162-0.0165 1.3201 1.2539-11.031-10.881z" fill="none" stroke="#000" stroke-linecap="round" stroke-linejoin="round" stroke-width="8"/>
</svg>
