<svg xmlns="http://www.w3.org/2000/svg" width="192" height="192" viewBox="0 0 192 192"><path fill="none" stroke="#000" stroke-linecap="round" stroke-linejoin="round" stroke-width="8" d="M44.578 168.16c-3.395-.787-8.504-2.566-11.568-4.026-6.098-2.907-14.757-10.515-12.703-11.161l3.647-1.15c2.188-.692 3.739-1.725 6.042-4.025 3.528-3.524 4.21-5.232 5.267-13.196.879-6.624 2.787-10.76 6.851-14.85 4.707-4.735 10.123-7.027 16.633-7.04 11.102-.023 20.751 7.416 23.416 18.052.852 3.4.706 10.051-.305 13.87-3.025 11.43-11.784 19.995-23.592 23.067-3.01.783-11.12 1.055-13.69.46zm41.857-59.251L75.679 98.06l36.788-36.687c20.234-20.178 37.327-36.959 37.985-37.291 1.655-.836 4.867-.756 6.64.164.814.423 4.5 3.85 8.193 7.615L172 38.707v2.938c0 1.802-.346 3.462-.896 4.292-.98 1.482-73.19 73.905-73.638 73.854-.151-.017 1.32 1.254-11.03-10.881z"/></svg>