<svg id="vector" xmlns="http://www.w3.org/2000/svg" width="192" height="192" viewBox="0 0 192 192"><path fill="#000" d="m116.47,133.21v-37.21h-63.26v67.6c0,3.77 3.05,6.82 6.82,6.82h109.15c3.77,0 6.82,-3.05 6.82,-6.82v-30.39z" fill-opacity="0.80" id="path_0"/><path fill="#000" d="m116.47,58.79v-37.21h-56.44c-3.77,0 -6.82,3.05 -6.82,6.82v30.39h63.26v37.21h59.53v-37.21z" fill-opacity="0.45" id="path_1"/><path fill="#000" d="m53.21,58.79h63.26v37.21h-63.26z" fill-opacity="0.60" id="path_2"/><path fill="#000" d="m22.82,55.07c-3.77,0 -6.82,3.05 -6.82,6.82v68.22c0,3.77 3.05,6.82 6.82,6.82h68.22c3.77,0 6.82,-3.05 6.82,-6.82v-68.22c0,-3.77 -3.05,-6.82 -6.82,-6.82zM38.33,73.83h10.57l7.17,14.14c0.66,1.34 1.12,2.34 1.36,3h0.09a55.81,55.81 0,0 1,1.49 -3.12l7.67,-14.01h9.71l-13.48,21.98 13.82,22.35h-10.33l-8.29,-15.52a13.02,13.02 0,0 1,-0.99 -2.07h-0.12a9.81,9.81 0,0 1,-0.96 2.01l-8.53,15.58h-10.39l14.35,-22.23z" id="path_3"/><path fill="#000" d="m169.18,21.58h-52.71v37.21h59.53v-30.39c0,-3.77 -3.05,-6.82 -6.82,-6.82z" fill-opacity="0.30" id="path_4"/><path fill="#000" d="m116.47,96h59.53v37.21h-59.53z" fill-opacity="0.60" id="path_5"/></svg>