<?xml version="1.0" encoding="UTF-8"?>
<svg width="192" height="192" version="1.1" viewBox="0 0 192 192" xmlns="http://www.w3.org/2000/svg" xmlns:xlink="http://www.w3.org/1999/xlink">
 <g transform="matrix(.70654 0 0 .70654 3580.4 548.77)">
  <g transform="matrix(.92596 0 0 .92596 -179.52 -54.231)">
   <clipPath>
    <use width="100%" height="100%" overflow="visible" xlink:href="#SVGID_1_-4"/>
   </clipPath>
  </g>
 </g>
 <g>
  <g stroke-width=".08738">
   <path d="m168.56 106.05 5.6724-3.213c1.1075-0.64574 1.7836-1.8361 1.771-3.1182 9e-3 -1.2511-0.6376-2.4155-1.7041-3.0697h-0.0186l-0.0671-0.0372-5.6795-3.4853z" fill-opacity=".89606"/>
   <path d="m168.56 43.907v-15.256c0.0874-3.8143-2.9318-6.9783-6.746-7.0697h-94.415c-3.8143 0.0914-6.8335 3.2554-6.7461 7.0697v15.256z"/>
   <path d="m60.651 43.907h37.209v33.488h-37.209z" fill-opacity=".7491"/>
   <path d="m135.07 43.907h-37.209v33.488h37.209v33.488h24.576l8.9111-4.8316 2e-3 -28.657h-33.488z" fill-opacity=".29749"/>
   <path d="m97.86 77.395h37.209v33.663l-37.209-0.17476z" fill-opacity=".50358"/>
   <path d="m135.07 110.88h24.576l-24.57 13.801z" fill-opacity=".5"/>
   <path d="m174.3 102.63-0.0707 0.0372-55.442 31.181c-0.24186 0.1488-0.4874 0.29019-0.74421 0.41671-0.94169 0.44844-1.9644 0.70158-3.0065 0.74422l-3.0288-1.7712c-0.25594-0.12845-0.50445-0.27132-0.74422-0.4279l-56.186-32.067h-0.026l-1.8381-1.027v63.122c0.0287 4.2114 3.4649 7.6026 7.6762 7.5758h107.56c0.0633 0 0.1191-0.0298 0.18603-0.0298 0.88953-0.0569 1.7665-0.23986 2.6046-0.54324 0.36219-0.15344 0.7118-0.3351 1.0456-0.54324 0.24929-0.14138 0.67719-0.45018 0.67719-0.45018 1.9061-1.4105 3.0344-3.6381 3.0437-6.0093v-63.122c-1e-3 1.2073-0.65237 2.3205-1.7041 2.9135z" fill-opacity=".49642"/>
   <path d="m53.209 99.721v63.122c0.0267 4.2107 3.4616 7.6023 7.6722 7.5758h107.45c1.6737 0.0107 3.2199-0.52517 4.4832-1.4315-1.3131 0.92864-2.8803 1.432-4.4907 1.4238h-107.33c-4.2992-4e-3 -7.7808-3.4924-7.7766-7.7915v-62.872c-1.7e-4 -9e-3 -4e-3 -0.0171-4e-3 -0.0261zm122.79 0c-1e-3 1.2073-0.65254 2.3206-1.7042 2.9136l-0.0707 0.0408-55.442 31.181c-0.24187 0.1488-0.48746 0.29023-0.74427 0.41676-0.94094 0.45968-1.952 0.70615-2.9714 0.76406l57.838 33.88c1.861-1.3791 3.0786-3.5794 3.0945-6.0739z" fill-opacity=".20251"/>
   <path d="m22.82 55.07c-3.7668 0-6.8204 3.0536-6.8204 6.8204v68.219c0 3.7668 3.0536 6.8204 6.8204 6.8204h68.22c3.7669 0 6.8204-3.0536 6.8204-6.8204v-68.219c0-3.7668-3.0536-6.8204-6.8204-6.8204zm34.668 16.897c4.0164-0.0871 7.9797 0.93109 11.457 2.9433 3.2692 1.9496 5.9021 4.8061 7.5794 8.2231 1.8266 3.7652 2.737 7.909 2.6569 12.093 0.0885 4.3728-0.8481 8.7055-2.7349 12.651-1.7172 3.5392-4.4338 6.4976-7.814 8.5098-3.6112 2.0739-7.7216 3.1188-11.885 3.0214-4.1022 0.099-8.1528-0.93081-11.71-2.9769-3.2976-1.9522-5.9635-4.812-7.6799-8.2381-1.8374-3.7108-2.7587-7.8078-2.6866-11.948-0.0765-4.3355 0.82795-8.6323 2.6456-12.569 1.681-3.5815 4.3943-6.5787 7.7917-8.6064 3.7623-2.154 8.0459-3.2279 12.379-3.1034zm-0.36095 7.814c-2.4966-0.0647-4.9497 0.66336-7.0066 2.0799-2.0004 1.4414-3.5491 3.4225-4.4651 5.7116-2.032 5.2471-2.0425 11.062-0.0297 16.316l-4e-3 -8e-3c0.89625 2.2642 2.4162 4.2279 4.3833 5.6633 2.0036 1.4004 4.4027 2.1229 6.8464 2.0614 2.6024 0.10294 5.1677-0.64429 7.308-2.1285 1.9422-1.4308 3.4221-3.3997 4.2567-5.6631 0.93295-2.5277 1.3934-5.2054 1.3581-7.8995 0.0288-2.7199-0.40391-5.425-1.28-8-0.77375-2.3249-2.2061-4.375-4.1229-5.9014-2.0866-1.5545-4.6448-2.3428-7.2445-2.2324z"/>
   <path d="m135.07 43.907h33.488v33.488h-33.488z" fill-opacity=".15412"/>
  </g>
  <path d="m60.651 77.341h37.209v35.935h-20.894l-16.315-9.3034z" fill-opacity=".4552" stroke-width=".089631"/>
  <path d="m97.742 110.82 37.336 0.17476-3e-3 13.687-16.382 9.2231-0.54525 0.31268-0.5652 0.25283-0.57189 0.20648-0.70497 0.19354-0.67193 0.10783-0.56595 0.0561-17.326-9.8855z" fill-opacity=".76344" stroke-width=".078578"/>
 </g>
</svg>
