<svg xmlns="http://www.w3.org/2000/svg" width="192" height="192" viewBox="0 0 192 192"><path fill="none" stroke="#000" stroke-linecap="round" stroke-linejoin="round" stroke-width="8" d="M109.59 109.88h8.57m-8.57-17.553h8.57m-8.57 8.983h5.3m-5.3-8.983v17.553m18.69-17.553 11.43 17.553m0-17.553-11.43 17.553M87.632 92.327h11.427m-5.713 17.553V92.327M164.28 20.5H28.71c-4.519 0-8.216 3.697-8.216 8.216v135.57c0 4.52 3.697 8.216 8.216 8.216h135.57c4.519 0 8.216-3.697 8.216-8.216V28.716c0-4.519-3.697-8.216-8.216-8.216zm-14.04 71.827h11.42m-5.71 17.553V92.327" class="b"/></svg>