<?xml version="1.0" encoding="UTF-8"?>
<svg id="SVGRoot" width="192px" height="192px" version="1.1" viewBox="0 0 192 192" xmlns="http://www.w3.org/2000/svg">
 <g fill="none" stroke="#000" stroke-linecap="round" stroke-linejoin="round" stroke-width="8">
  <line class="b" x1="109.59" x2="118.16" y1="109.88" y2="109.88"/>
  <line class="b" x1="109.59" x2="118.16" y1="92.327" y2="92.327"/>
  <line class="b" x1="109.59" x2="114.89" y1="101.31" y2="101.31"/>
  <line class="b" x1="109.59" x2="109.59" y1="92.327" y2="109.88"/>
  <line class="b" x1="128.28" x2="139.71" y1="92.327" y2="109.88"/>
  <line class="b" x1="139.71" x2="128.28" y1="92.327" y2="109.88"/>
  <line class="b" x1="87.632" x2="99.059" y1="92.327" y2="92.327"/>
  <line class="b" x1="93.346" x2="93.346" y1="109.88" y2="92.327"/>
  <path class="b" d="m164.28 20.5h-135.57c-4.5189 0-8.2162 3.6973-8.2162 8.2162v135.57c0 4.5189 3.6973 8.2162 8.2162 8.2162h135.57c4.5189 0 8.2162-3.6973 8.2162-8.2162v-135.57c0-4.5189-3.6973-8.2162-8.2162-8.2162z"/>
  <line class="b" x1="150.24" x2="161.66" y1="92.327" y2="92.327"/>
  <line class="b" x1="155.95" x2="155.95" y1="109.88" y2="92.327"/>
 </g>
</svg>
