<svg xmlns="http://www.w3.org/2000/svg" width="192" height="192" viewBox="0 0 192 192"><g fill="none" stroke="#000" stroke-linecap="round" stroke-linejoin="round" stroke-width="8"><path d="M109.59 109.88h8.57M109.59 92.327h8.57M109.59 101.31h5.3M109.59 92.327v17.553M128.28 92.327l11.43 17.553M139.71 92.327l-11.43 17.553M87.632 92.327h11.427M93.346 109.88V92.327M164.28 20.5H28.71c-4.519 0-8.216 3.697-8.216 8.216v135.57c0 4.52 3.697 8.216 8.216 8.216h135.57c4.519 0 8.216-3.697 8.216-8.216V28.716c0-4.519-3.697-8.216-8.216-8.216zM150.24 92.327h11.42M155.95 109.88V92.327" class="b"/></g></svg>