<svg xmlns="http://www.w3.org/2000/svg" width="192" height="192" viewBox="0 0 192 192"><g stroke-width="8"><rect width="152" height="124.77" x="20" y="33.617" fill="none" stroke="#000" stroke-linecap="round" stroke-linejoin="round" class="cls-1" rx="7.795"/><path fill="none" stroke="#000" stroke-linecap="round" stroke-linejoin="round" d="M73.941 67.022a14.031 14.489 0 0 0-13.992 14.489v0A14.031 14.489 0 0 0 73.941 96h4.755M78.695 96h4.755a13.992 14.449 0 0 1 13.992 14.489v0a13.992 14.449 0 0 1-13.992 14.489M96 71.852c-3.897-3.34-8.029-4.87-17.422-4.87H73.94M61.274 120.15c3.897 3.34 8.068 4.87 17.422 4.87h4.755M78.695 132.22V59.778M144.13 81.511h27.867v28.978H144.13a11.108 11.47 0 0 1-11.108-11.47v-6.037a11.108 11.47 0 0 1 11.108-11.47z" class="cls-1"/><ellipse cx="144.6" cy="96" class="cls-2" rx="3.118" ry="3.22"/></g></svg>