<?xml version="1.0" encoding="UTF-8"?>
<svg id="SVGRoot" width="192px" height="192px" version="1.1" viewBox="0 0 192 192" xmlns="http://www.w3.org/2000/svg">
 <g fill="none" stroke="#000" stroke-linecap="round" stroke-linejoin="round">
  <path d="m74.397 169.46c-4.7059-1.1107-6.5078-2.3868-13.84-9.8012-6.1003-6.169-7.673-7.3102-15.589-11.313-7.7441-3.9158-9.669-5.5126-11.8-9.7882-1.5694-3.1492-2.2464-5.7318-2.619-9.9907-0.41922-4.792-1.2272-8.9933-2.2441-11.668-0.33544-0.88243-1.8793-4.1641-3.4309-7.2927-4.372-8.8158-5.3749-12.414-4.6957-16.846 0.19056-1.2434 0.48741-2.6545 0.65966-3.1358 0.17226-0.48131 0.45886-1.2689 0.6369-1.7502 0.17804-0.48131 1.4175-3.041 2.7544-5.6883 3.7732-7.4715 4.1644-8.5282 5.1303-13.856 0.26176-1.444 0.59514-3.2817 0.74085-4.0839 1.6299-8.9731 3.1268-12.574 6.7242-16.176 2.2805-2.2832 4.6519-3.7454 9.4554-5.8304 2.9044-1.2607 6.6816-3.3012 8.2282-4.4451 0.86954-0.64313 3.8391-3.4405 6.5991-6.2164 7.4705-7.5136 10.367-9.1666 16.498-9.415 3.3119-0.13421 5.1821 0.05905 9.1737 0.94795 5.9426 1.3234 6.3468 1.3705 10.484 1.2218 2.246-0.08071 5.3293-0.35866 6.8517-0.61766 8.3018-1.4124 11.012-1.5884 14-0.90918 4.5204 1.0277 6.7024 2.5659 13.388 9.4378 5.1422 5.2852 7.0277 6.7911 10.926 8.7261 6.5915 3.272 9.2027 4.6548 10.62 5.6237 5.554 3.7976 7.5008 7.9145 9.0371 19.111 1.0448 7.6139 2.4855 11.903 6.1736 18.378 1.8264 3.2064 2.4181 4.6242 3.3237 7.9632 0.71229 2.6264 0.45507 7.6006-0.48932 9.4623-0.14135 0.27859-0.25694 0.6471-0.25694 0.81889 0 0.42795-2.3498 5.2241-3.7811 7.7175-3.3169 5.7782-5.1662 11.03-5.8189 16.525-0.15925 1.3399-0.41635 3.4996-0.57151 4.7994-0.5232 4.3827-2.105 8.0003-4.8668 11.13-2.4442 2.7701-5.1075 4.6024-8.999 6.1911-6.9315 2.8298-10.465 5.3325-17.336 12.277-4.7571 4.8083-6.3312 6.1064-8.5952 7.0877-0.64099 0.27784-1.3827 0.62354-1.6482 0.76823-0.26551 0.14468-1.6142 0.47535-2.9972 0.7348-3.1857 0.59765-4.145 0.49522-12.545-1.3395-2.4061-0.52554-3.8272-0.63469-8.1581-0.62667-5.3328 9e-3 -5.7594 0.065-12.82 1.657-3.2382 0.73015-5.8286 0.79634-8.3038 0.21216z" stroke-width="8"/>
  <polyline class="st5" transform="matrix(4 0 0 3.9998 -629.78 -82.803)" points="172 48.641 172 40.65 176 48.65 180 40.662 180 48.65" stroke-miterlimit="10" stroke-width="2.0001"/>
  <g transform="matrix(4 0 0 3.9998 -984.12 -83.339)" stroke-width="2.0001">
   <g fill="none" stroke="#000" stroke-linecap="round" stroke-linejoin="round" stroke-width="2.0001">
    <polyline class="st5" points="280 40.65 278 48.65 276 40.65 274 48.65 272 40.65" fill="none" stroke="#000" stroke-linecap="round" stroke-linejoin="round" stroke-miterlimit="10" stroke-width="2.0001"/>
   </g>
  </g>
 </g>
</svg>
