<svg xmlns="http://www.w3.org/2000/svg" width="192" height="192" viewBox="0 0 192 192"><g fill="none" stroke="#000" stroke-linecap="round" stroke-linejoin="round"><path stroke-width="8" d="M74.397 169.46c-4.706-1.11-6.508-2.387-13.84-9.801-6.1-6.17-7.673-7.31-15.589-11.313-7.744-3.916-9.669-5.513-11.8-9.788-1.57-3.15-2.246-5.732-2.619-9.991-.42-4.792-1.227-8.993-2.244-11.668-.336-.883-1.88-4.164-3.431-7.293-4.372-8.816-5.375-12.414-4.696-16.846.19-1.243.488-2.654.66-3.136.172-.48.459-1.268.637-1.75.178-.481 1.417-3.04 2.754-5.688 3.773-7.472 4.165-8.528 5.13-13.856l.741-4.084c1.63-8.973 3.127-12.574 6.725-16.176 2.28-2.283 4.652-3.745 9.455-5.83 2.904-1.261 6.682-3.302 8.228-4.445.87-.644 3.84-3.441 6.6-6.217 7.47-7.513 10.366-9.166 16.497-9.415 3.312-.134 5.182.06 9.174.948 5.943 1.323 6.347 1.37 10.484 1.222 2.246-.08 5.33-.359 6.852-.618 8.302-1.412 11.012-1.588 14-.909 4.52 1.028 6.702 2.566 13.388 9.438 5.142 5.285 7.027 6.79 10.926 8.726 6.591 3.272 9.202 4.655 10.62 5.624 5.554 3.797 7.5 7.914 9.037 19.11 1.045 7.615 2.485 11.904 6.173 18.379 1.827 3.206 2.419 4.624 3.324 7.963.712 2.626.455 7.6-.49 9.462-.14.279-.256.647-.256.819 0 .428-2.35 5.224-3.781 7.718-3.317 5.778-5.166 11.03-5.82 16.525-.158 1.34-.416 3.5-.57 4.799-.524 4.383-2.106 8-4.867 11.13-2.445 2.77-5.108 4.602-9 6.191-6.931 2.83-10.464 5.333-17.335 12.277-4.758 4.808-6.332 6.106-8.596 7.088-.64.278-1.382.623-1.648.768-.265.145-1.614.475-2.997.735-3.186.597-4.145.495-12.545-1.34-2.406-.525-3.827-.634-8.158-.626-5.333.009-5.76.065-12.82 1.657-3.238.73-5.829.796-8.304.212z"/><path stroke-miterlimit="10" stroke-width="2" d="M172 48.641V40.65l4 8 4-7.988v7.988" class="st5" transform="matrix(4 0 0 3.9998 -629.78 -82.803)"/><path stroke-miterlimit="10" stroke-width="2" d="m280 40.65-2 8-2-8-2 8-2-8" class="st5" transform="matrix(4 0 0 3.9998 -984.12 -83.339)"/></g></svg>