<?xml version="1.0" encoding="UTF-8"?>
<svg id="SVGRoot" width="192px" height="192px" version="1.1" viewBox="0 0 192 192" xmlns="http://www.w3.org/2000/svg">
 <g fill="none" stroke="#000" stroke-linecap="round" stroke-linejoin="round">
  <path class="a" d="m114.76 44.778c12.306-3.5231 13.648 2.2133 20.389 3.2674a54.653 58.414 0 0 0 15.275 0.01749c5.4072-0.46939 5.8794 0.86631 8.3071 7.3074a409.9 438.11 0 0 1 12.937 42.816c3.0691 13.512-14.149 16.379-32.471 30.686-5.8175 4.5427-18.452 8.609-32.879 12.739-14.427 4.13-27.271 7.3582-34.435 6.5319-22.562-2.6023-38.816 4.1129-42.481-9.2283a409.9 438.11 0 0 1-8.8347-43.991c-0.91184-6.8755-1.1277-8.2845 3.7744-10.766a54.647 58.408 0 0 0 13.223-8.1766c5.3444-4.5144 3.8223-10.199 16.128-13.722l30.533-8.741z" stroke-miterlimit="5.3333" stroke-width="8"/>
  <path class="b" d="m125.58 104.05-8.7007-34.635-53.506 15.292 8.7007 34.633 26.752-7.646z" stroke-width="8"/>
  <path class="b" d="m121.77 60.758c5.6503 2.4157 13.923 34.604 15.693 46.414 1.7699 11.81-12.777 17.25-33.925 23.304-21.147 6.0542-36.292 9.1146-40.286-2.0583-3.9938-11.173-11.893-43.471-8.1302-48.578 3.7631-5.1075 21.426-9.3395 32.574-12.531 11.147-3.1912 28.424-8.9638 34.073-6.5494z" stroke-width="8"/>
  <ellipse class="c" transform="matrix(.98266 -.18542 .16297 .98663 0 0)" cx="126.76" cy="108.62" rx="4.0098" ry="4.2685" stroke-width="8.001"/>
  <ellipse class="c" transform="matrix(.98266 -.18542 .16297 .98663 0 0)" cx="139.14" cy="97.371" rx="4.0098" ry="4.2685" stroke-width="8.001"/>
  <line class="c" x1="37.654" x2="42.632" y1="98.465" y2="120.54" stroke-width="8"/>
  <line class="c" x1="50.471" x2="29.814" y1="106.84" y2="112.16" stroke-width="8"/>
 </g>
</svg>
