<svg xmlns="http://www.w3.org/2000/svg" width="192" height="192" viewBox="0 0 192 192"><g fill="none" stroke="#000" stroke-linecap="round" stroke-linejoin="round"><path stroke-miterlimit="5.333" stroke-width="8" d="M114.76 44.778c12.306-3.523 13.648 2.213 20.389 3.267a54.653 58.414 0 0 0 15.275.018c5.407-.47 5.88.866 8.307 7.307a409.9 438.11 0 0 1 12.937 42.816c3.07 13.512-14.149 16.38-32.47 30.686-5.818 4.543-18.453 8.61-32.88 12.74-14.427 4.13-27.27 7.357-34.435 6.531-22.562-2.602-38.816 4.113-42.48-9.228a409.9 438.11 0 0 1-8.836-43.991c-.911-6.876-1.127-8.285 3.775-10.766a54.647 58.408 0 0 0 13.223-8.177c5.344-4.514 3.822-10.199 16.128-13.722l30.533-8.74z" class="a"/><path stroke-width="8" d="m125.58 104.05-8.7-34.635-53.507 15.292 8.701 34.633 26.752-7.646z" class="b"/><path stroke-width="8" d="M121.77 60.758c5.65 2.416 13.923 34.604 15.693 46.414 1.77 11.81-12.777 17.25-33.925 23.304-21.147 6.054-36.292 9.115-40.286-2.058-3.994-11.173-11.893-43.471-8.13-48.578 3.763-5.108 21.426-9.34 32.574-12.531 11.147-3.192 28.424-8.964 34.073-6.55z" class="b"/><ellipse cx="126.76" cy="108.62" stroke-width="8.001" class="c" rx="4.01" ry="4.269" transform="matrix(.98266 -.18542 .16297 .98663 0 0)"/><ellipse cx="139.14" cy="97.371" stroke-width="8.001" class="c" rx="4.01" ry="4.269" transform="matrix(.98266 -.18542 .16297 .98663 0 0)"/><path stroke-width="8" d="m37.654 98.465 4.978 22.075M50.471 106.84l-20.657 5.32" class="c"/></g></svg>