<svg id="vector" xmlns="http://www.w3.org/2000/svg" width="192" height="192" viewBox="0 0 192 192"><path fill="#000" d="m96,16c-35.54,0 -64.46,35.89 -64.46,80 0,44.11 28.92,80 64.46,80 35.54,0 64.46,-35.89 64.46,-80 0,-44.11 -28.92,-80 -64.46,-80zM43.42,123.69 L43.36,123.5c-2.14,-6.61 -2.77,-12.39 -2.78,-12.45l-0.01,-0.08 0.07,-0.05 55.36,-40.94 55.43,40.99 -0.01,0.08c-0.01,0.06 -0.64,5.85 -2.78,12.45l-0.06,0.19 -0.16,-0.12 -0,0.01 -52.43,-38.88 -52.58,39zM96,168.45c-18.46,0 -35.75,-11.43 -46.45,-30.65l-0.13,-0.25 46.57,-34.44 46.58,34.44 -0.12,0.22 0,0c-10.69,19.22 -27.98,30.67 -46.46,30.67zM96,51.26 L39.14,93.43 39.14,93.14c0.57,-18.71 6.75,-36.21 17.37,-49.26 10.67,-13.1 24.69,-20.32 39.48,-20.32 14.79,0 28.81,7.22 39.48,20.32 10.63,13.06 16.8,30.56 17.37,49.26l0.01,0.29 -0.23,-0.17z" stroke-width=".25494" id="path_0"/></svg>