<?xml version="1.0" encoding="UTF-8"?>
<svg width="192" height="192" fill="none" version="1.1" viewBox="0 0 192 192" xmlns="http://www.w3.org/2000/svg">
 <path d="m95.999 16c-35.544 0-64.462 35.888-64.462 79.999 0 44.11 28.918 80.001 64.462 80.001 35.544 0 64.465-35.888 64.465-80.001 0-44.113-28.918-79.999-64.465-79.999zm-52.582 107.69-0.0612-0.18611c-2.1364-6.6056-2.7712-12.393-2.7763-12.451l-8e-3 -0.0816 0.0663-0.0484 55.361-40.939 55.43 40.987-8e-3 0.0816c-8e-3 0.0586-0.63991 5.8459-2.7763 12.451l-0.0612 0.18611-0.15807-0.11727-3e-3 8e-3 -52.427-38.881-52.577 38.999zm52.582 44.76c-18.463 0-35.748-11.434-46.446-30.647l-0.12747-0.24729 46.571-34.438 46.578 34.443-0.12237 0.2218 3e-3 3e-3c-10.695 19.223-27.98 30.665-46.456 30.665zm0-117.19-56.863 42.175 8e-3 -0.29063c0.57363-18.71 6.7458-36.207 17.374-49.265 10.669-13.104 24.689-20.322 39.481-20.322 14.792 0 28.811 7.2174 39.481 20.322 10.631 13.058 16.801 30.555 17.374 49.265l8e-3 0.29063-0.23455-0.17336z" fill="#000" stroke-width=".25494"/>
</svg>
