<?xml version="1.0" encoding="UTF-8"?>
<svg id="SVGRoot" width="192px" height="192px" version="1.1" viewBox="0 0 192 192" xmlns="http://www.w3.org/2000/svg">
 <g transform="matrix(.56389 0 0 .55452 20 53.188)" fill="none" stroke="#000" stroke-linecap="round" stroke-linejoin="round" stroke-width="14.306">
  <g fill="none" stroke="#000" stroke-linecap="round" stroke-linejoin="round" stroke-width="14.306">
   <path d="m200.29 89.145c-1.415-6.842-4.122-12.499-8.027-17.649-8.002-10.561-20.964-17.236-38.508-17.236-27.274 0-44.043 18.521-49.009 38.044-4.46-13.766-16.396-23.053-29.004-26.977 9.49-6.918 14.458-16.814 14.458-28.111 0-10.486-4.365-20.031-11.672-26.243-10.72-9.113-25.332-10.973-43.337-10.973h-35.195v151.98c9.972 0 20.222-0.044 30.214 0 8.89 0.041 17.572-0.012 25.668-0.336 25.626-1.027 43.166-13.926 48.78-33.296 1.928 8.612 5.636 15.633 10.478 20.961 9.868 10.862 24.175 15.108 38.583 15.108 17.74 0 30.566-5.145 39.328-13.029l-12.541-14.74c-6.311 4.758-14.422 7.563-23.531 7.563-17.865-0.056-25.743-11.36-26.449-22.229h69.763v39.998h26.131v-151.22h-26.131v88.386zm-173.44-68.613 7.261-4e-3c7.012 0 12.55 0.754 16.538 2.302 7.874 3.055 11.617 9.316 11.617 17.137 9e-3 6.613-2.521 17.005-16.432 19.846-2.327 0.475-5.679 0.738-10.415 0.738h-8.569v-40.019zm29.541 109.2c-3.271 0.588-7.271 0.719-10.52 0.719h-19.023l1e-3 -49.58h17.021c5.372 0 11.451 0.604 14.934 1.516 11.941 3.133 18.801 11.695 18.801 23.033 0 11.74-6.317 21.628-21.214 24.312zm74.619-36.65c2.303-11.07 10.486-19.038 22.546-19.038 12.073 0 20.104 7.139 22.185 19.038z"/>
   <rect x="243.87" y=".759" width="25.686" height="151.22"/>
  </g>
 </g>
</svg>
