<?xml version="1.0" encoding="UTF-8"?>
<svg id="vector" width="192" height="192" version="1.1" viewBox="0 0 192 192" xmlns="http://www.w3.org/2000/svg">
 <g stroke-width=".98769">
  <path d="m82.48 26.978c-0.83954 0.17778-5.7138 1.444-8.9604 3.8619-12.201-7.6635-35.693-4.3399-47.307 10.697-10.388 13.485-14.213 34.085-4.9948 61.63 11.246 33.598 45.805 55.39 67.997 60.492 23.165 5.3513 46.067-0.3852 50.514-25.163 5.6558-0.58521 9.4469-5.6891 10.144-9.6833 5.0965-0.98809 10.47-3.2832 14.462-6.0763 7.2892-5.1558 13.81-14.351 10.998-30.182-3.8638-21.706-17.567-29.31-27.894-28.406-3.9172 0.34569-7.4452 1.9359-10.237 3.6871 0 0-3.6179 2.3764-6.2521 5.1479-2.4998-1.5561-5.388-3.0199-7.9885-4.0772 1.2781-4.3241 1.4559-9.0374 0.17383-13.676-1.9132-6.984-6.6906-12.575-12.852-15.708-7.4887-10.242-16.386-14.533-27.8-12.545zm16.714 9.7979c-2.326-0.02841-4.6445 0.26881-6.8882 0.883-5.2703 1.4519-9.6103 4.5315-12.801 8.4843-5.5805-5.4402-12.973-8.6443-20.792-8.8142h-0.0405c-16.789 0.32594-30.219 14.017-30.219 30.809s13.431 30.487 30.218 30.811h0.0385c11.134-0.22717 21.206-6.4714 26.459-16.23 2.3024 1.519 4.8406 2.6461 7.5114 3.3354-0.53336 1.5132-1.0371 3.0372-1.3383 4.5355-0.83361 4.2234 3.4648 4.7627 5.057 0.81979 2.4692-6.258 7.0018-14.294 15.197-16.922 7.7822-1.501 15.165 3.1682 20.607 7.1479 4.1068-4.3095 8.7742-9.3942 14.464-10.363 6.6314-1.0292 18.474 3.3651 22.094 21.032 7.3598 33.141-31.678 35.802-54.438 31.743-13.024-3.0151-24.88-7.0101-34.812-16.506-1.4559-1.3996-2.6421-2.6924-4.255-3.615-1.9773-1.0166-4.201-1.143-6.1583-0.53137h-5e-3c-4.7666 1.5161-7.0916 6.584-7.3307 12.298-0.23705 5.6792 1.4361 12.588 5.3533 19.685 8.4944 15.868 32.583 25.536 47.411 19.982 7.2815-2.1729 14.666-10.477 15.874-18.159 0.64892 0.48002 1.3936 0.81584 2.2095 1.0588-1.8529 12.899-16.024 24.866-38.709 19.532-21.361-4.9938-53.598-25.164-65.313-54.975-10.109-25.752-6.017-45.969 3.8322-58.019 10.771-13.148 31.72-13.739 40.958-6.3805 3.5872-4.0211 9.889-5.5401 14.374-5.8521 4.2962-0.068 8.7826 2.0582 11.442 4.2105zm0.241 6.0447c8.4412 0.15093 15.77 5.8548 17.989 14.001 0.95707 3.4648 0.80991 7.1114-0.23112 10.547-10.091-0.85769-17.605 5.0695-21.993 13.023-2.7772-0.5872-5.388-1.7875-7.6418-3.5132 2.5997-8.7881 1.1389-18.278-3.9834-25.878 2.4989-3.5982 6.1583-6.2965 10.488-7.4936 1.7497-0.48057 3.5587-0.71102 5.373-0.68447zm-39.22 0.77731 0.12148 0.0099c12.805 0.83954 22.835 11.393 22.993 24.239 0.15704 12.884-9.6685 23.716-22.505 24.814-13.337 0.86423-24.934-9.0897-26.101-22.405-1.1665-13.314 8.5218-25.132 21.806-26.601 1.2249-0.11107 2.4564-0.13022 3.6841-0.05729zm12.038 65.578c1.9288 1.5215 3.1696 2.8493 4.9039 4.3992-0.38788 7.4658 6.3297 12.004 12.317 8.3213 0.3676 11.284 11.661 13.719 18.122 6.8319 2.2208 9.559 11.562 11.205 17.199 4.3271-0.0107 1.3473-0.17674 2.6889-0.49483 3.9982-1.0203 4.3142-3.7463 9.3574-12.028 12.694-5.8866 2.3636-14.326 1.0193-22.205-2.6421-7.8818-3.6624-14.815-9.5095-17.653-14.649-3.4737-6.2926-4.7804-12.205-4.6017-16.509 0.18075-4.3034 1.6702-6.3242 3.1112-6.7835 0.48055-0.25058 0.90749-0.0647 1.3304 0.0128z"/>
  <path d="m117.77 87.468a0.98769 0.98769 0 0 0-0.0119 0.0138c-4.3281 0.37533-7.5786 3.9666-7.2694 8.106a0.98769 0.98769 0 0 0 3e-3 0.0109c0.35557 4.1533 4.2076 7.1647 8.4971 6.7953 4.3231-0.38125 7.5884-3.9636 7.2793-8.1198-0.32297-4.1651-4.1661-7.1874-8.4981-6.8062z"/>
  <path d="m127.37 128.46s-15.23 0.30619-32.377-7.2694c-19.783-8.7411-18.776-16.88-24.989-14.914-6.2126 1.9754-7.6349 14.252-0.24692 27.636 6.6175 11.981 29.572 24.287 43.636 18.638 18.292-7.3682 13.966-24.08 13.966-24.08z" color="#000000" fill="none" style="-inkscape-stroke:none"/>
  <path d="m152.03 85.296c-3.9537 0.35162-7.0126 3.6189-6.6748 7.4699 0.33779 3.8145 3.8767 6.582 7.8364 6.2304 3.9478-0.35063 7.0106-3.6377 6.6837-7.4729-0.33779-3.7858-3.8757-6.579-7.8354-6.2274a0.98769 0.98769 0 0 0-0.01 0zm-50.441-30.989a7.3445 7.3445 0 0 0-7.6369 7.3445 7.3445 7.3445 0 0 0 7.6369 7.3435c3.9488-0.15606 7.06-3.3917 7.06-7.3445 0-3.9527-3.1112-7.1874-7.06-7.3435zm-41.782 5.0372a9.0512 9.0512 0 0 0-8.7411 9.0532 9.0492 9.0492 0 0 0 8.7411 9.0512 0.98769 0.98769 0 0 0 0.0691 0 9.0473 9.0473 0 0 0 8.7391-9.0512 9.0492 9.0492 0 0 0-8.7391-9.0532 0.98769 0.98769 0 0 0-0.0691 0z"/>
 </g>
</svg>
