<?xml version="1.0" encoding="UTF-8"?>
<svg width="192" height="192" version="1.1" viewBox="0 0 192 192" xmlns="http://www.w3.org/2000/svg" xmlns:xlink="http://www.w3.org/1999/xlink">
 <g stroke-width="4.1252">
  <path d="m87.34 26.588c-8.7443 0.20379-14.035 4.6328-14.035 4.6328-11.707-7.9204-35.496-4.8055-47.174 10.297-10.264 13.324-14.152 33.829-4.8987 61.468 11.27 33.674 45.937 55.491 68.123 60.589 23.287 5.3752 46.015-0.38612 50.083-25.34 0 0 9.2616-0.10726 10.281-9.7974 0 0 31.166-4.4647 25.622-35.701-3.8365-21.571-17.346-28.8-27.169-27.942-9.4097 0.82505-16.638 9.1609-16.638 9.1609s-7.9271-5.0197-13.302-5.8736c-2.4732-0.35684-4.8826-0.20131-4.8826-0.20131-10.779 0.32176-18.977 12.429-21.085 22.882-0.60228 3.0362 2.0517 3.1413 3.2067 0.26567 2.5411-6.4354 7.3093-14.929 16.009-17.718 8.7001-2.7928 21.102 6.8888 21.102 6.8888s7.1214-9.0293 14.559-10.176c7.3512-1.1386 19.749 3.7767 23.503 22.085 5.3876 26.071-21.881 34.794-38.279 34.823 7.9493 17.025-8.4019 39.788-38.722 32.663-21.897-5.1194-54.838-25.761-66.826-56.271-10.338-26.34-6.2065-47.203 4.0447-59.735 11.221-13.696 33.025-14.441 42.864-6.6068 0 0 3.6561-5.5372 13.874-6.1395 0.49684-0.0289 0.99492-0.0371 1.4986-0.0165 5.6018 0.22112 11.521 3.5149 16.13 10.369l5.4788 0.0804c-6.2492-11.685-14.623-14.344-21.577-14.672-0.61311-0.0248-1.2057-0.0289-1.7887-0.0165z"/>
  <path d="m118.14 88.422c-3.8653 0.33414-6.7324 3.5271-6.456 7.1449 0.31352 3.6178 3.6962 6.3034 7.5203 5.9692 3.8612-0.33827 6.7283-3.5271 6.456-7.149-0.27639-3.622-3.6591-6.3075-7.5203-5.9692z" clip-rule="evenodd" fill-rule="evenodd"/>
  <path d="m127.77 128.92s-15.42 0.31352-32.779-7.3635c-20.032-8.8486-19.013-17.095-25.296-15.098-6.2869 2.0007-7.7266 14.426-0.24751 27.977 6.6953 12.128 29.937 24.586 44.181 18.869 18.522-7.4584 14.141-24.384 14.141-24.384z" fill-opacity="0" stroke="#000"/>
 </g>
 <g>
  <path d="m152.82 86.215c-3.4941 0.30527-6.1425 3.1847-5.8537 6.4766 0.28876 3.2837 3.3579 5.7093 6.8479 5.404 3.4941-0.30939 6.1425-3.1888 5.8578-6.4766-0.28877-3.2466-3.3621-5.7134-6.852-5.4041z" stroke-width="4.1252"/>
  <path d="m108.68 126.18c-0.67241 3.7045 1.3242 9.9459 7.0748 10.808 5.4948 0.80442 10.457-4.9296 10.507-8.1638a112.41 112.41 0 0 1-17.582-2.6402zm-29.632-14.925c-2.2565 2.1451-1.3985 8.1556 1.8522 10.272 3.3414 2.1946 7.9617 1.0891 9.8593-1.8564-6.1466-3.9726-8.4279-5.928-11.712-8.4155z" clip-rule="evenodd" fill-opacity=".9767" fill-rule="evenodd" stroke-width="4.1252"/>
  <path d="m144.93 125.52c0.34239 4.2886-2.0049 11.769-8.6176 12.667-6.2827 0.86254-8.9309-5.51-9.1537-11.254-0.0412 0 15.354-0.0239 17.771-1.413z" stroke-width="4.9708"/>
  <g stroke-width="4.1252">
   <path d="m90.663 119.56c-0.73842 2.9207-0.24751 10.375 5.2844 12.128 5.4989 1.7532 11.633-2.4298 12.252-5.7547 4e-3 0.0412-10.07-2.4751-17.532-6.3735z"/>
   <path d="m99.417 37.078c-2.326-0.0413-4.6458 0.25329-6.8888 0.87017-5.8059 1.5995-10.544 5.1712-13.697 9.7894l3.3437 2.7394c2.6614-4.1265 6.7645-7.2015 11.61-8.5405 1.8625-0.51351 3.7889-0.75773 5.7205-0.72514 8.9883 0.16171 16.792 6.2332 19.16 14.906 1.1138 4.021 0.95337 8.2885-0.45925 12.215-3.0114-0.31764-6.5147-0.21616-10.104 0.92657-5.7217 1.8275-9.8609 7.076-12.48 12.15-4.0053-0.7128-7.7052-2.6182-10.603-5.4224l-2.9731 3.0537c3.5948 3.4673 8.1848 5.7635 13.157 6.5423 0 0 3.2961-8.7345 11.344-12.835 7.9658-4.051 14.914-1.8048 14.914-1.8048 2.0626-4.8595 2.5614-10.455 1.0474-15.913-2.8607-10.445-12.264-17.755-23.092-17.951z"/>
   <path d="m58.227 37.65a30.197 30.197 0 0 0 0 60.388 30.197 30.197 0 0 0 0-60.388zm1.6034 4.3428a25.906 25.906 0 0 1 0.62845 51.678 25.906 25.906 0 0 1-4.52-51.614 25.906 25.906 0 0 1 3.8916-0.0644z"/>
   <path d="m101.62 54.844a6.4354 6.4354 0 1 0 0 12.867 6.4354 6.4354 0 0 0 0-12.867zm-42.227 5.0921a8.168 8.168 0 0 0 0 16.332 8.168 8.168 0 0 0 0-16.332z"/>
  </g>
 </g>
</svg>
