<?xml version="1.0" encoding="UTF-8"?>
<svg id="vector" version="1.1" viewBox="0 0 192 192" xmlns="http://www.w3.org/2000/svg">
 <path id="path" d="m132.9 119.28c3.7436 15.126 9.4686 23.409 16.106 23.409 7.1722 0 10.35-2 15.226-10.564l7.7703 2.563c-6.3231 17.97-13.495 25.409-26.14 25.409-10.633 0-18.088-9.407-22.712-28.847l-2.5794-11.126c-14.375 28.253-27.588 39.973-47.123 39.973-36.773 0-53.445-23.409-53.445-58.818 0-52.536 37.056-69.382 63.229-69.382 33.534 0 38.787 41.379 38.787 41.379l14.943-39.973c4.3087 0 9.4686 1.437 13.778 1.437s8.9015-1.437 12.646-1.437l-34.477 69.382zm-19.818-31.378c-6.6061-27.409-14.092-44.536-31.331-44.536-19.251 0-36.49 18.564-36.49 51.38 0 30.815 8.3364 53.943 29.601 53.943 13.212 0 25.291-16.002 35.043-43.098l4.5928-11.72z" fill="none" stroke="#000" stroke-linecap="round" stroke-linejoin="round" stroke-width="8"/>
 <path d="m64.074 74.095s0.50309 0.188 2.6735 0.188c0.28305 0 0.88115-0.125 0.88115-0.125l21.957 26.159c2.7685 3.312 3.6806 4.688 3.7746 1.468v-15.72c0-4.437-0.12602-8.438-0.62911-11.782l0.12602-0.187c0.75513 0.125 1.4783 0.187 2.2334 0.187 0.75513 0 1.4783-0.062 2.2334-0.187l0.12602 0.187c-1.0382 13.064-0.97517 23.315-1.2892 36.754-0.06301 1.126-0.31506 1.813-1.2272 1.813-1.0382 0-2.0444-0.531-2.7365-1.406l-22.335-25.971c-2.3594-2.813-2.4854-2.657-2.4854 0.937v14.064c0 4.407 0.12602 8.439 0.62911 11.782l-0.12602 0.188c-0.75513-0.125-1.4783-0.188-2.2334-0.188s-1.4783 0.063-2.2334 0.188l-0.12602-0.188c1.0382-9.376 1.2272-26.815 0.62911-38.004z" fill="none" stroke="#000" stroke-linecap="round" stroke-linejoin="round" stroke-width="8"/>
</svg>
