<svg xmlns="http://www.w3.org/2000/svg" viewBox="0 0 192 192"><path fill="none" stroke="#000" stroke-linecap="round" stroke-linejoin="round" stroke-width="8" d="M132.9 119.28c3.744 15.126 9.469 23.409 16.106 23.409 7.172 0 10.35-2 15.226-10.564l7.77 2.563c-6.323 17.97-13.495 25.409-26.14 25.409-10.633 0-18.088-9.407-22.712-28.847l-2.58-11.126c-14.374 28.253-27.587 39.973-47.122 39.973-36.773 0-53.445-23.409-53.445-58.818 0-52.536 37.056-69.382 63.229-69.382 33.534 0 38.787 41.379 38.787 41.379l14.943-39.973c4.309 0 9.469 1.437 13.778 1.437s8.901-1.437 12.646-1.437l-34.477 69.382zm-19.818-31.378c-6.606-27.409-14.092-44.536-31.331-44.536-19.251 0-36.49 18.564-36.49 51.38 0 30.815 8.336 53.943 29.601 53.943 13.212 0 25.291-16.002 35.043-43.098l4.593-11.72z"/><path fill="none" stroke="#000" stroke-linecap="round" stroke-linejoin="round" stroke-width="8" d="M64.074 74.095s.503.188 2.674.188c.283 0 .88-.125.88-.125l21.958 26.159c2.768 3.312 3.68 4.688 3.774 1.468v-15.72c0-4.437-.126-8.438-.629-11.782l.126-.187a13.465 13.465 0 0 0 4.467 0l.126.187c-1.038 13.064-.975 23.315-1.29 36.754-.062 1.126-.314 1.813-1.226 1.813-1.039 0-2.045-.531-2.737-1.406L69.862 85.473c-2.36-2.813-2.485-2.657-2.485.937v14.064c0 4.407.126 8.439.629 11.782l-.126.188c-.755-.125-1.479-.188-2.234-.188s-1.478.063-2.233.188l-.126-.188c1.038-9.376 1.227-26.815.63-38.004z"/></svg>