<?xml version="1.0" encoding="UTF-8"?>
<svg id="SVGRoot" width="192px" height="192px" version="1.1" viewBox="0 0 192 192" xmlns="http://www.w3.org/2000/svg">
 <path d="m37.288 140.25c-6.7676-1.3273-8.2961-2.0587-9.2902-4.4456-1.255-3.0134-0.06531-5.7168 2.8341-6.4406 1.0821-0.27023 4.3317-0.0646 7.2213 0.45642 13.206 2.3817 19.569-2.2999 19.569-14.398v-5.1978l-2.3299 2.3421c-5.6191 5.6484-14.975 7.0782-22.664 3.4632-8.5394-4.0151-12.642-11.165-12.628-22.007 0.0094-8.1921 2.308-14.113 7.1721-18.483 3.2335-2.9054 10.057-5.5318 14.371-5.5318 4.1866 0 10.381 2.4219 13.238 5.176l2.8407 2.7384v-7.0717h11.968l-0.26483 27.175c-0.25523 26.183-0.33347 27.303-2.142 30.666-2.4228 4.5055-7.7562 9.0182-12.236 10.353-3.8691 1.1529-14.298 1.865-17.659 1.2057zm13.569-33.861c4.3048-2.2412 6.9718-7.7317 6.5357-13.455-0.58158-7.6313-5.54-12.394-12.903-12.394-7.685 0-12.527 5.2114-12.527 13.482 0 10.665 9.8192 17.092 18.895 12.367zm60.784 10.45c-6.1509-2.1834-10.812-6.7142-11.986-11.651l-0.551-2.3173 5.735 4e-5c5.5388 0 5.816 0.10091 8.1011 2.9492 2.1844 2.7228 2.721 2.9492 6.9898 2.9492 3.4941 0 5.0377-0.41174 6.3182-1.6853 0.93196-0.92689 1.6945-2.0225 1.6945-2.4346 0-2.2562-3.7249-4.4204-11.811-6.8624-4.865-1.4693-9.7456-3.2579-10.846-3.9748-2.9426-1.9176-4.4552-5.457-4.4552-10.425 0-4.101 0.2536-4.641 3.7374-7.961 5.2275-4.9816 11.863-6.4105 20.858-4.4919 6.4727 1.3806 12.684 7.5083 12.684 12.514 0 1.5594-0.52147 1.7271-5.3711 1.7271-4.9184 0-5.4531-0.17878-6.3439-2.1235-2.5251-5.5119-14.55-4.7781-14.55 0.88792 0 2.671 2.2938 4.0388 10.441 6.226 11.542 3.0986 15.381 5.9671 16.408 12.261 1.0029 6.1464-3.7956 12.863-10.516 14.719-4.3796 1.2096-12.701 1.0557-16.537-0.30577zm-31.991-22.816v-23.173h11.861v46.345h-11.861zm76.312 21.697c-5.8962-2.9902-6.3815-4.5059-6.6963-20.913l-0.2818-14.687h-5.7907v-9.269h5.9307v-11.797h11.861v11.797h11.014v9.269h-11.014l0.0129 12.429c6e-3 6.8359 0.35599 12.968 0.77525 13.627 0.41923 0.65878 2.4009 1.4171 4.4036 1.6853 2.7709 0.37077 3.9407 1.0182 4.8933 2.7076 1.1227 1.9912 1.1021 2.4475-0.19983 4.4239-1.3086 1.9863-1.9723 2.2036-6.7276 2.2024-3.3479-8.3e-4 -6.3373-0.53972-8.1809-1.4746zm-75.135-52.741c-4.6856-4.0085-1.5023-11.898 4.8662-11.509 4.3869 0.26816 6.172 3.6489 6.172 5.9472 0 6.1761-6.2249 9.6795-11.038 5.5618z" fill="none" stroke="#000" stroke-linecap="round" stroke-linejoin="round" stroke-width="8"/>
</svg>
