<svg xmlns="http://www.w3.org/2000/svg" width="192" height="192" viewBox="0 0 192 192"><path fill="none" stroke="#000" stroke-linecap="round" stroke-linejoin="round" stroke-width="8" d="M37.288 140.25c-6.768-1.327-8.296-2.059-9.29-4.446-1.255-3.013-.066-5.716 2.834-6.44 1.082-.27 4.332-.065 7.221.456 13.206 2.382 19.57-2.3 19.57-14.398v-5.198l-2.33 2.343c-5.62 5.648-14.976 7.078-22.665 3.463-8.54-4.015-12.642-11.165-12.628-22.007.01-8.192 2.308-14.113 7.172-18.483 3.234-2.906 10.057-5.532 14.371-5.532 4.187 0 10.381 2.422 13.238 5.176l2.841 2.738v-7.071H69.59l-.265 27.175c-.255 26.183-.333 27.303-2.142 30.666-2.423 4.505-7.756 9.018-12.236 10.353-3.869 1.153-14.298 1.865-17.659 1.205zm13.569-33.861c4.305-2.241 6.972-7.732 6.536-13.455-.582-7.631-5.54-12.394-12.903-12.394-7.685 0-12.527 5.211-12.527 13.482 0 10.665 9.819 17.092 18.895 12.367zm60.784 10.45c-6.15-2.183-10.812-6.714-11.986-11.651l-.551-2.317h5.735c5.539 0 5.816.1 8.101 2.949 2.184 2.723 2.721 2.95 6.99 2.95 3.494 0 5.038-.413 6.318-1.686.932-.927 1.695-2.023 1.695-2.435 0-2.256-3.725-4.42-11.811-6.862-4.865-1.47-9.746-3.258-10.846-3.975-2.943-1.918-4.456-5.457-4.456-10.425 0-4.101.254-4.641 3.738-7.961 5.227-4.982 11.863-6.41 20.858-4.492 6.472 1.38 12.684 7.508 12.684 12.514 0 1.56-.522 1.727-5.371 1.727-4.919 0-5.453-.179-6.344-2.123-2.525-5.512-14.55-4.778-14.55.888 0 2.67 2.294 4.038 10.44 6.226 11.543 3.098 15.382 5.967 16.409 12.26 1.003 6.147-3.796 12.864-10.516 14.72-4.38 1.21-12.701 1.055-16.537-.306zM79.65 94.023V70.85h11.861v46.345H79.65zm76.312 21.697c-5.896-2.99-6.381-4.506-6.696-20.913l-.282-14.687h-5.79v-9.269h5.93V59.054h11.86v11.797H172v9.269h-11.014l.013 12.429c.006 6.836.356 12.968.775 13.627.42.659 2.4 1.417 4.404 1.685 2.77.371 3.94 1.019 4.893 2.708 1.123 1.991 1.102 2.447-.2 4.424-1.308 1.986-1.972 2.203-6.727 2.202-3.348 0-6.338-.54-8.181-1.474zM80.827 62.979c-4.686-4.008-1.502-11.898 4.866-11.509 4.387.268 6.172 3.649 6.172 5.947 0 6.176-6.225 9.68-11.038 5.562z"/></svg>