<svg xmlns="http://www.w3.org/2000/svg" width="192" height="192" viewBox="0 0 192 192"><path fill="none" stroke="#000" stroke-linecap="round" stroke-linejoin="round" stroke-width="8" d="M20 137.74v-23.776h47.738v47.553H20zm104.2-8.074c0-35.047.012-34.903-3.186-40.879-3.097-5.788-8.924-10.354-15.771-12.357-1.534-.448-3.555-.815-4.492-.815-.937 0-1.703-.133-1.703-.295 0-.162.913-1.85 2.028-3.754 5.891-10.048 10.021-23.374 11.067-35.707.223-2.623.58-4.218.946-4.217.324 0 2.688.562 5.254 1.247 16.635 4.439 31.932 15.688 41.766 30.71 4.792 7.32 8.199 15.49 10.4 24.94 1.051 4.517 1.106 6.157 1.293 38.847l.196 34.13H124.2zM21.67 104.91c-1.009-.193-1.155-.536-1.155-2.705 0-6.399 2.364-17.026 5.446-24.484 3.903-9.445 9.514-17.683 17.105-25.116 10.557-10.336 22.432-16.85 36.993-20.29 4.114-.972 7.374-1.34 13.77-1.553l8.378-.28-.337 3.775c-.605 6.768-1.818 12.878-3.643 18.347-8.442 25.31-29.73 44.596-55.639 50.41-7.004 1.572-17.6 2.532-20.918 1.896z"/></svg>