<?xml version="1.0" encoding="UTF-8"?>
<svg id="SVGRoot" width="192px" height="192px" version="1.1" viewBox="0 0 192 192" xmlns="http://www.w3.org/2000/svg">
 <path d="m20 137.74v-23.776h47.738v47.553h-47.738zm104.2-8.0737c0-35.047 0.0116-34.903-3.1862-40.879-3.0973-5.7886-8.9236-10.354-15.771-12.357-1.5334-0.44866-3.5546-0.81575-4.4915-0.81575-0.93691 0-1.7034-0.13238-1.7034-0.29427 0-0.16195 0.91282-1.8512 2.0285-3.7541 5.8911-10.048 10.021-23.374 11.067-35.707 0.22243-2.6236 0.58003-4.2179 0.94585-4.2171 0.32353 5.12e-4 2.6878 0.56162 5.2539 1.2465 16.635 4.4394 31.932 15.688 41.766 30.71 4.792 7.3207 8.1986 15.49 10.399 24.94 1.0522 4.5175 1.1068 6.1578 1.294 38.847l0.19544 34.131h-47.798zm-102.53-24.756c-1.0087-0.19355-1.155-0.53613-1.155-2.7056 0-6.3983 2.3641-17.026 5.4461-24.484 3.9031-9.4442 9.5143-17.683 17.105-25.116 10.557-10.336 22.432-16.849 36.993-20.29 4.1138-0.97196 7.3735-1.3396 13.769-1.5527l8.3791-0.27924-0.33748 3.7745c-0.60519 6.7682-1.8181 12.878-3.6426 18.347-8.4422 25.309-29.73 44.596-55.639 50.41-7.0039 1.5716-17.601 2.5319-20.918 1.8955z" fill="none" stroke="#000" stroke-linecap="round" stroke-linejoin="round" stroke-width="8"/>
</svg>
