<?xml version="1.0" encoding="UTF-8"?>
<svg width="192" height="192" version="1.1" viewBox="0 0 192 192" xmlns="http://www.w3.org/2000/svg" xmlns:xlink="http://www.w3.org/1999/xlink">
 <defs>
  <radialGradient id="b" cx="367.99" cy="280.37" r="368.72" gradientTransform="matrix(.30407 -.10528 3.8564 11.138 -825.11 -2803.5)" gradientUnits="userSpaceOnUse" xlink:href="#a"/>
  <linearGradient id="a">
   <stop offset="0"/>
   <stop stop-opacity="0" offset="1"/>
  </linearGradient>
 </defs>
 <g transform="matrix(.1682 0 0 .1682 32.639 47.913)" fill-rule="evenodd">
  <path d="m451.83-188.6-0.36914 210-0.37109 210-17.277-48.75c-6e-3 -0.0168-0.0273-0.0789-0.0332-0.0957l-22.326 467.52c21.951 61.989 33.712 95.081 33.844 95.213 0.17284 0.1729 12.682 0.92753 27.799 1.6777 45.8 2.2727 102.55 7.1427 145.61 12.492 9.9688 1.2385 18.548 1.8728 19.064 1.4102 0.5165-0.4626 0.79775-214.28 0.625-475.15l-0.31445-474.31zm-336.88-0.625v474.79c0 261.14 0.25552 475.05 0.56836 475.36 0.31282 0.3128 16.485-1.214 35.938-3.3926 19.453-2.1787 46.338-4.8878 59.744-6.0195 20.561-1.7358 81.95-5.6829 89.059-5.7266 2.0679-0.013 2.2005-10.682 2.5-201.1l0.3164-201.09 14.854 42.025c2.2955 6.4954 3.0156 8.5238 5.252 14.852l22.32-467.4c-4.7293-13.371-2.2501-6.352-7.6699-21.676-18.237-51.563-33.712-95.297-34.391-97.188l-1.2344-3.4375z" fill-opacity=".50196" stroke="#000" stroke-width="0"/>
  <path d="m114.95-189.23v266.51l187.75 498.02c0.0196-11.413 0.042-17.579 0.0625-30.625l0.3164-201.09 14.854 42.025c82.681 233.96 127.1 359.4 127.36 359.66 0.17284 0.1729 12.682 0.92753 27.799 1.6777 45.8 2.2727 102.55 7.1427 145.61 12.492 9.9688 1.2385 18.548 1.8728 19.064 1.4102 0.355-0.31796 0.58674-105.16 0.64844-253.06l-186.87-537.24-0.0899 50.84-0.37109 210-17.277-48.75c-16.882-47.634-28.154-79.49-95.977-271.25-18.237-51.563-33.712-95.297-34.391-97.188l-1.2344-3.4375h-187.26z" fill="url(#b)"/>
  <path d="m114.96-189.23 188.12 533.07v-0.24219l14.854 42.025c82.681 233.96 127.1 359.4 127.36 359.66 0.17284 0.1729 12.682 0.92753 27.799 1.6777 45.8 2.2727 102.55 7.1427 145.61 12.492 9.9177 1.2322 18.453 1.8651 19.049 1.416l-186.66-529.57v0.0976l-17.277-48.75c-16.882-47.634-28.154-79.49-95.977-271.25-18.237-51.563-33.712-95.297-34.391-97.188l-1.2344-3.4375h-187.25z" fill="#e50914"/>
  <path d="m451.83-188.6-0.36914 210-0.34623 195.93-0.0249 14.067-17.277-48.75c-6e-3 -0.0168-0.0273-0.0789-0.0332-0.0957l-22.326 467.52c21.951 61.989 33.712 95.081 33.844 95.213 0.17284 0.1729 12.682 0.92753 27.799 1.6777 45.8 2.2727 102.55 7.1427 145.61 12.492 9.9688 1.2385 18.548 1.8728 19.064 1.4102 0.5165-0.4626 0.79775-214.28 0.625-475.15l-0.31445-474.31zm-336.88-0.625v474.79c0 261.14 0.25552 475.05 0.56836 475.36 0.31282 0.3128 16.485-1.214 35.938-3.3926 19.453-2.1787 46.338-4.8878 59.744-6.0195 20.561-1.7358 81.95-5.6829 89.059-5.7266 2.0679-0.013 2.2005-10.682 2.5-201.1l0.3164-201.09 14.854 42.025c2.2955 6.4954 3.0156 8.5238 5.252 14.852l22.32-467.4c-4.7293-13.371-2.2501-6.352-7.6699-21.676-18.237-51.563-33.712-95.297-34.391-97.188l-1.2344-3.4375z" fill="none" stroke="#000"/>
  <path d="m114.95-189.23v266.51l187.75 498.02c0.0196-11.413 0.042-17.579 0.0625-30.625l0.3164-201.09 14.854 42.025c82.681 233.96 127.1 359.4 127.36 359.66 0.17284 0.1729 12.682 0.92753 27.799 1.6777 45.8 2.2727 102.55 7.1427 145.61 12.492 9.9688 1.2385 18.548 1.8728 19.064 1.4102 0.355-0.31796 0.58674-105.16 0.64844-253.06l-186.87-537.24-0.0899 50.84-0.37109 210-17.277-48.75c-16.882-47.634-28.154-79.49-95.977-271.25-18.237-51.563-33.712-95.297-34.391-97.188l-1.2344-3.4375h-187.26z" fill="url(#b)" stroke-width="0"/>
  <path d="m114.96-189.23 188.12 533.07v-0.24219l14.854 42.025c82.681 233.96 127.1 359.4 127.36 359.66 0.17284 0.1729 12.682 0.92753 27.799 1.6777 45.8 2.2727 102.55 7.1427 145.61 12.492 9.9177 1.2322 18.453 1.8651 19.049 1.416l-186.66-529.57v0.0976l-17.277-48.75c-16.882-47.634-28.154-79.49-95.977-271.25-18.237-51.563-33.712-95.297-34.391-97.188l-1.2344-3.4375h-187.25z" stroke-width="0"/>
 </g>
</svg>
