<svg xmlns="http://www.w3.org/2000/svg" width="192" height="192" viewBox="0 0 192 192"><path fill="none" stroke="#000" stroke-linejoin="round" stroke-width="8" d="m50.899 134.5.004-.015-4.311-46.067-13.94 46.082H19.999l23.279-76.97h11.774l4.52 48.304 14.61-48.304h12.653L63.552 134.5h-12.65zm28.631-.053H66.758L90.021 57.5h44.562l-.048.053-16.5 20.846H96.47l-2.795 9.263h19.85l-12.788 16.147h-11.94l-2.96 9.732-4.435 14.681zm71.135-46.724c5.48 0 7.716 7.435 4.992 16.51l-4.18 13.803c-2.74 9.044-9.446 16.441-14.937 16.441H91.503l16.517-20.876h29.993c1.329-.103 2.557-1.383 3.321-3.46l1.897-6.204h-20.864c-1.28.057-2.547-.477-3.694-1.556-2.601-2.63-3.25-8.342-1.243-14.915l.966-3.204 4.636-5.855 16.5-20.831h32.469L155.445 78.43H135.44c-1.461.045-3.385 2.417-4.26 5.289l-1.188 4.004z"/></svg>