<?xml version="1.0" encoding="UTF-8"?>
<svg id="SVGRoot" width="192px" height="192px" version="1.1" viewBox="0 0 192 192" xmlns="http://www.w3.org/2000/svg">
 <path d="m50.899 134.5 0.0039-0.0151-4.3113-46.067-13.94 46.082h-12.653l23.279-76.97h11.774l4.5212 48.304 14.609-48.304h12.653l-23.283 76.97h-12.649zm28.631-0.0529h-12.772l23.263-76.947h44.562l-0.0476 0.05289-16.501 20.846h-21.564l-2.795 9.2633h19.85l-12.788 16.147h-11.94l-2.9613 9.7317-4.4341 14.681zm71.135-46.724c5.4792 0 7.716 7.4348 4.9923 16.509l-4.1807 13.804c-2.7396 9.0442-9.4461 16.441-14.937 16.441h-45.037l16.517-20.876h29.993c1.3291-0.10357 2.5571-1.3829 3.3216-3.4605l1.8964-6.2032h-20.864c-1.279 0.0562-2.5461-0.47772-3.6937-1.5565-2.601-2.6294-3.2503-8.3415-1.2431-14.915l0.96599-3.2036 4.636-5.8557 16.501-20.831h32.468l-16.556 20.854h-20.005c-1.4608 0.04535-3.3849 2.4178-4.2599 5.289l-1.1877 4.0045z" fill="none" stroke="#000" stroke-linejoin="round" stroke-width="8"/>
</svg>
