<svg
    xmlns="http://www.w3.org/2000/svg"
    viewBox="0 0 192 192"
    id="vector">
    <path
        id="path"
        d="M 50.92 116.15 L 50.924 116.142 L 46.615 92.032 L 32.681 116.15 L 20.035 116.15 L 43.303 75.867 L 55.072 75.867 L 59.59 101.146 L 74.193 75.867 L 86.839 75.867 L 63.567 116.15 Z M 79.539 116.121 L 66.773 116.121 L 90.025 75.85 L 134.567 75.85 L 134.519 75.878 L 118.026 86.788 L 96.471 86.788 L 93.677 91.636 L 113.518 91.636 L 100.736 100.086 L 88.802 100.086 L 85.842 105.18 L 81.411 112.863 Z M 150.64 91.668 C 156.118 91.668 158.354 95.559 155.63 100.308 L 151.452 107.533 C 148.714 112.266 142.01 116.137 136.521 116.137 L 91.504 116.137 L 108.014 105.212 L 137.994 105.212 C 139.322 105.157 140.55 104.488 141.313 103.401 L 143.209 100.154 L 122.355 100.154 C 121.076 100.183 119.81 99.904 118.663 99.339 C 116.063 97.963 115.414 94.974 117.421 91.533 L 118.386 89.857 L 123.02 86.792 L 139.513 75.89 L 171.966 75.89 L 155.417 86.804 L 135.421 86.804 C 133.961 86.827 132.038 88.07 131.163 89.572 L 129.976 91.668 Z"
        fill="none"
        stroke="#000000"
        stroke-width="8"
        stroke-linecap="round"
        stroke-linejoin="round"/>
</svg>
