<svg xmlns="http://www.w3.org/2000/svg" width="192" height="192" viewBox="0 0 192 192"><g fill="none" stroke="#000" stroke-linecap="round" stroke-linejoin="round"><g stroke-width="8"><path d="M96 20c-9.058 7.379-26.231 17.34-45.291 4.427a40.393 39.485 0 0 1-18.871 16.05c6.794 14.203 5.85 17.34 5.85 28.223 0 10.884-10.379 31.175-10.379 44.826 0 15.372 8.115 44.18 49.065 47.593 8.027.67 14.436 6.75 19.626 10.882M96 20c9.058 7.379 26.231 17.34 45.291 4.427a40.393 39.485 0 0 0 18.871 16.05c-6.794 14.203-5.85 17.34-5.85 28.223 0 10.884 10.379 31.175 10.379 44.826 0 15.372-8.115 44.18-49.065 47.593-8.027.67-14.436 6.75-19.626 10.882M144.19 28.329 27.535 118.02M156.01 78.672 55.2 156.19" class="a"/></g><path stroke-width="2.029" d="M30.914 14.255v8.291l4.145-3.342M14.338 35.465v-8.291l5.493 3.863v-8.291" class="a" transform="matrix(3.9871 0 0 3.8974 .31 2.462)"/><g stroke-width="8"><path d="M91.968 81.806v32.314M111.1 66.67v32.313M91.968 97.901 111.1 82.766M91.968 81.806l-4.187 3.299M123.57 58.021l-4.19 3.299M57.479 108.37l-4.187 3.3" class="a"/></g></g></svg>