<?xml version="1.0" encoding="UTF-8"?>
<svg id="SVGRoot" width="192px" height="192px" version="1.1" viewBox="0 0 192 192" xmlns="http://www.w3.org/2000/svg">
 <g fill="none" stroke="#000" stroke-linecap="round" stroke-linejoin="round">
  <g stroke-width="8">
   <path class="a" d="m96 20c-9.0582 7.3786-26.231 17.34-45.291 4.4271a40.393 39.485 0 0 1-18.871 16.049c6.7936 14.204 5.8502 17.34 5.8502 28.224 0 10.884-10.379 31.175-10.379 44.826 0 15.372 8.1144 44.18 49.065 47.593 8.0263 0.67035 14.436 6.7504 19.626 10.882"/>
   <path class="a" d="m96 20c9.0583 7.3786 26.231 17.34 45.291 4.4271a40.393 39.485 0 0 0 18.871 16.049c-6.7936 14.204-5.8502 17.34-5.8502 28.224 0 10.884 10.379 31.175 10.379 44.826 0 15.372-8.1145 44.18-49.065 47.593-8.0264 0.67035-14.436 6.7504-19.626 10.882"/>
   <line class="a" x1="144.19" x2="27.535" y1="28.329" y2="118.02"/>
   <line class="a" x1="156.01" x2="55.2" y1="78.672" y2="156.19"/>
  </g>
  <polyline class="a" transform="matrix(3.9871 0 0 3.8974 .31055 2.4615)" points="30.914 14.255 30.914 22.546 35.059 19.204" stroke-width="2.0294"/>
  <polyline class="a" transform="matrix(3.9871 0 0 3.8974 .31055 2.4615)" points="14.338 35.465 14.338 27.174 19.831 31.037 19.831 22.746" stroke-width="2.0294"/>
  <g stroke-width="8">
   <line class="a" x1="91.968" x2="91.968" y1="81.806" y2="114.12"/>
   <line class="a" x1="111.1" x2="111.1" y1="66.67" y2="98.983"/>
   <line class="a" x1="91.968" x2="111.1" y1="97.901" y2="82.766"/>
   <line class="a" x1="91.968" x2="87.781" y1="81.806" y2="85.105"/>
   <line class="a" x1="123.57" x2="119.38" y1="58.021" y2="61.32"/>
   <line class="a" x1="57.479" x2="53.292" y1="108.37" y2="111.67"/>
  </g>
 </g>
</svg>
