<?xml version="1.0" encoding="UTF-8"?>
<svg id="SVGRoot" width="192px" height="192px" version="1.1" viewBox="0 0 192 192" xmlns="http://www.w3.org/2000/svg">
 <g fill="none" stroke="#000" stroke-linecap="round" stroke-linejoin="round" stroke-width="8">
  <path id="path" d="m96 66.986c-4.8593-0.0036-9.6363 1.3383-13.844 3.8817-4.2107 2.547-7.7077 6.2093-10.141 10.62-2.4297 4.4141-3.7097 9.4182-3.7131 14.512 0 7.695 2.9204 15.081 8.1092 20.524 5.1922 5.4394 12.238 8.5009 19.578 8.5009 7.3405 0 14.386-3.0615 19.578-8.5009 5.1888-5.443 8.1092-12.829 8.1092-20.524-4e-3 -7.6914-2.9204-15.074-8.1092-20.513-5.1888-5.4394-12.231-8.4973-19.568-8.5009z"/>
  <path d="m82.616 105.89 13.5-24.924 13.5 24.924z"/>
  <path d="m139.94 136.36-4.7324-4.961c4.451-4.6372 7.9788-10.156 10.378-16.235 2.4022-6.0762 3.6308-12.591 3.6136-19.171 0.0172-6.5762-1.2114-13.091-3.6136-19.167-2.4022-6.0762-5.93-11.591-10.378-16.228l4.7324-4.9609c5.0721 5.2883 9.0941 11.58 11.833 18.509 2.7385 6.9288 4.1387 14.358 4.1181 21.858 0.0172 7.4972-1.383 14.926-4.1215 21.851-2.7351 6.9288-6.7571 13.217-11.829 18.506z"/>
  <path d="m52.067 136.36c-5.0721-5.2883-9.0941-11.58-11.833-18.506-2.7385-6.9288-4.1387-14.358-4.1181-21.858-0.02059-7.5008 1.3796-14.93 4.1181-21.858 2.7385-6.9288 6.7605-13.221 11.833-18.509l4.7324 4.9609c-4.451 4.6372-7.9788 10.156-10.378 16.235-2.4022 6.0762-3.6308 12.591-3.6136 19.171-0.01716 6.5798 1.2114 13.095 3.6136 19.171 2.3988 6.0798 5.9266 11.598 10.378 16.235z"/>
  <path d="m151.86 146.97-4.7324-4.9609c5.7825-6.0258 10.367-13.196 13.49-21.096 3.1229-7.8965 4.7186-16.365 4.698-24.913 0.0206-8.5476-1.5752-17.016-4.698-24.913-3.1229-7.9001-7.7077-15.07-13.49-21.096l4.7324-4.9609c6.4036 6.677 11.483 14.62 14.942 23.369 3.4558 8.7491 5.2231 18.131 5.1991 27.6 0.0241 9.4686-1.7433 18.851-5.1991 27.6-3.4592 8.7491-8.5382 16.692-14.942 23.369z"/>
  <path d="m40.141 146.97c-6.4036-6.6769-11.483-14.62-14.942-23.369-3.4558-8.7491-5.2231-18.131-5.1991-27.6-0.02402-9.4686 1.7433-18.851 5.1991-27.6 3.4592-8.7491 8.5382-16.692 14.942-23.369l4.7324 4.9609c-5.7825 6.0258-10.367 13.196-13.49 21.096-3.1229 7.8965-4.7186 16.365-4.698 24.913-0.02059 8.5477 1.5752 17.016 4.698 24.913 3.1229 7.9001 7.7077 15.07 13.49 21.096z"/>
  <path d="m128.17 125.93-4.7324-4.961c3.1366-3.2701 5.6246-7.1626 7.3199-11.451 1.6918-4.2846 2.5566-8.8786 2.5463-13.519 0.0138-4.6408-0.8545-9.2348-2.5463-13.519-1.6953-4.2882-4.1833-8.1807-7.3199-11.451l4.7324-4.9609c3.7612 3.9213 6.7434 8.5872 8.7715 13.724 2.0316 5.1372 3.068 10.645 3.0542 16.207 0.0137 5.5617-1.0226 11.069-3.0542 16.207-2.0282 5.1372-5.0103 9.8032-8.7715 13.724z"/>
  <path d="m63.825 125.93c-3.7612-3.9213-6.7434-8.5872-8.7715-13.724-2.0316-5.1372-3.068-10.645-3.0542-16.207-0.01373-5.5617 1.0227-11.069 3.0542-16.207 2.0282-5.1372 5.0103-9.8032 8.7715-13.724l4.7324 4.9609c-3.1366 3.2701-5.6246 7.1626-7.3199 11.451-1.6918 4.2846-2.5601 8.8786-2.5463 13.519-0.0103 4.6408 0.8545 9.2348 2.5463 13.519 1.6953 4.2882 4.1833 8.1807 7.3199 11.451z"/>
 </g>
</svg>
