<svg xmlns="http://www.w3.org/2000/svg" width="192" height="192" viewBox="0 0 192 192"><g fill="none" stroke="#000" stroke-linecap="round" stroke-linejoin="round" stroke-width="8"><path d="M96 66.986c-4.86-.004-9.636 1.338-13.844 3.882-4.21 2.547-7.708 6.209-10.141 10.62A30.164 30.164 0 0 0 68.302 96c0 7.695 2.92 15.08 8.11 20.524 5.191 5.44 12.237 8.5 19.577 8.5 7.34 0 14.386-3.06 19.578-8.5 5.189-5.443 8.11-12.83 8.11-20.524-.005-7.692-2.921-15.074-8.11-20.513-5.189-5.44-12.23-8.498-19.568-8.501z"/><path d="m82.616 105.89 13.5-24.924 13.5 24.924zM139.94 136.36l-4.732-4.961c4.45-4.637 7.978-10.156 10.378-16.235a51.806 51.806 0 0 0 3.613-19.171 51.8 51.8 0 0 0-3.613-19.167c-2.403-6.076-5.93-11.591-10.378-16.228l4.732-4.96c5.072 5.287 9.094 11.58 11.833 18.508a59.066 59.066 0 0 1 4.118 21.858 59.098 59.098 0 0 1-4.121 21.851c-2.735 6.929-6.757 13.217-11.83 18.506zM52.067 136.36c-5.072-5.288-9.094-11.58-11.833-18.506a59.066 59.066 0 0 1-4.118-21.858 59.06 59.06 0 0 1 4.118-21.858c2.739-6.929 6.76-13.221 11.833-18.509l4.732 4.96c-4.45 4.638-7.978 10.157-10.378 16.236a51.806 51.806 0 0 0-3.613 19.17 51.807 51.807 0 0 0 3.613 19.172c2.4 6.08 5.927 11.598 10.378 16.235z"/><path d="m151.86 146.97-4.732-4.96c5.782-6.027 10.367-13.197 13.49-21.097A67.348 67.348 0 0 0 165.316 96a67.354 67.354 0 0 0-4.698-24.913c-3.123-7.9-7.708-15.07-13.49-21.096l4.732-4.96c6.404 6.676 11.483 14.62 14.942 23.368a74.67 74.67 0 0 1 5.2 27.6 74.669 74.669 0 0 1-5.2 27.6c-3.46 8.75-8.538 16.692-14.942 23.37zM40.141 146.97c-6.404-6.677-11.483-14.62-14.942-23.369a74.67 74.67 0 0 1-5.2-27.6 74.67 74.67 0 0 1 5.2-27.6c3.46-8.75 8.538-16.692 14.942-23.369l4.732 4.96C39.091 56.02 34.506 63.19 31.383 71.09a67.348 67.348 0 0 0-4.698 24.913 67.354 67.354 0 0 0 4.698 24.913c3.123 7.9 7.708 15.07 13.49 21.096zM128.17 125.93l-4.732-4.961a35.256 35.256 0 0 0 7.32-11.451 36.61 36.61 0 0 0 2.546-13.519 36.536 36.536 0 0 0-2.547-13.519 35.26 35.26 0 0 0-7.32-11.451l4.733-4.96c3.761 3.92 6.743 8.586 8.771 13.723A43.8 43.8 0 0 1 139.996 96a43.805 43.805 0 0 1-3.055 16.207c-2.028 5.137-5.01 9.803-8.771 13.724zM63.825 125.93c-3.761-3.921-6.743-8.587-8.771-13.724a43.8 43.8 0 0 1-3.055-16.207 43.807 43.807 0 0 1 3.054-16.207c2.029-5.137 5.01-9.803 8.772-13.724l4.732 4.96a35.256 35.256 0 0 0-7.32 11.452 36.54 36.54 0 0 0-2.546 13.519c-.01 4.64.855 9.235 2.546 13.519a35.26 35.26 0 0 0 7.32 11.45z"/></g></svg>