<?xml version="1.0" encoding="UTF-8"?>
<svg id="SVGRoot" width="192px" height="192px" version="1.1" viewBox="0 0 192 192" xml:space="preserve" xmlns="http://www.w3.org/2000/svg"><path d="m85.874 171.45c-8.3876-1.201-16.79-3.7945-24.028-7.417l-3.7475-1.8754-0.11261-38.856c-0.12489-43.084-0.1702-42.28 2.728-48.376 2.5833-5.4332 6.8128-9.1883 12.595-11.182 4.0807-1.4073 11.35-1.4073 15.431 0 7.1188 2.455 11.792 7.4885 14.345 15.452 0.63791 1.9898 0.82379 4.7439 1.0416 15.433 0.23473 11.522 0.35619 13.15 1.0606 14.223 2.2373 3.4059 6.6277 3.8688 9.4972 1.0013l1.6111-1.61v-13.313c0-14.357-0.20869-16.137-2.6529-22.623-5.569-14.778-20.297-23.519-36.599-21.722-13.973 1.5404-24.132 9.4238-28.877 22.407-2.5882 7.0833-2.6329 7.8558-2.6329 45.462v34.3l-1.1564-0.75683c-1.8574-1.2156-8.3465-8.8144-11.405-13.355-3.483-5.1715-7.2042-12.831-9.1988-18.935-13.588-41.583 10.699-86.307 52.842-97.309 8.0198-2.0937 10.83-2.4295 20.06-2.3968 7.5299 0.02678 9.2845 0.17501 14.134 1.1944 6.5717 1.3815 13.213 3.6202 18.822 6.345l4.0782 1.9811-3e-3 37.056c-1e-3 20.381-0.18619 38.644-0.40967 40.585-1.108 9.6222-6.0832 16.963-13.52 19.948-11.437 4.5911-24.565 0.0991-29.598-10.128-2.4848-5.0477-2.8024-7.2263-3.0701-21.055-0.2661-13.747-0.372-14.324-2.9108-15.871-2.7566-1.6788-6.3595-0.86354-8.3206 1.8827-0.9749 1.3652-1.0344 1.8672-1.178 9.9425-0.17881 10.056 0.47253 18.911 1.7225 23.416 3.449 12.431 11.986 21.284 23.791 24.673 4.7188 1.3544 12.358 1.655 17.208 0.67733 14.544-2.9319 24.095-12.683 27.628-28.207 0.60101-2.6412 0.72681-8.1437 0.87877-38.437l0.17735-35.355 1.721 1.3614c2.2507 1.7805 7.7218 8.1229 10.827 12.552 3.0328 4.3251 7.6509 13.616 9.4075 18.926 8.8173 26.655 2.6482 55.386-16.345 76.126-10.872 11.871-25.509 19.941-42.035 23.176-6.3379 1.2406-17.574 1.5517-23.808 0.65916z" fill="none" stroke="#000" stroke-linecap="round" stroke-linejoin="round" stroke-width="8"/></svg>
