<svg xmlns="http://www.w3.org/2000/svg" xml:space="preserve" width="192" height="192" viewBox="0 0 192 192"><path fill="none" stroke="#000" stroke-linecap="round" stroke-linejoin="round" stroke-width="8" d="M85.874 171.45c-8.388-1.201-16.79-3.795-24.028-7.417l-3.748-1.875-.112-38.856c-.125-43.084-.17-42.28 2.728-48.376 2.583-5.434 6.813-9.189 12.595-11.182 4.08-1.408 11.35-1.408 15.43 0 7.12 2.455 11.793 7.488 14.346 15.452.638 1.99.824 4.743 1.041 15.433.235 11.522.357 13.15 1.061 14.223 2.237 3.405 6.628 3.868 9.497 1l1.611-1.61V94.93c0-14.357-.208-16.137-2.653-22.623-5.569-14.778-20.297-23.52-36.599-21.722-13.973 1.54-24.132 9.424-28.877 22.407-2.588 7.083-2.632 7.856-2.632 45.462v34.3l-1.157-.757c-1.857-1.216-8.346-8.814-11.405-13.355-3.483-5.171-7.204-12.83-9.199-18.935-13.588-41.583 10.7-86.307 52.842-97.309 8.02-2.094 10.83-2.43 20.06-2.397 7.53.027 9.285.175 14.134 1.195 6.572 1.381 13.213 3.62 18.822 6.345l4.079 1.98-.003 37.057c-.001 20.38-.187 38.644-.41 40.585-1.108 9.622-6.083 16.963-13.52 19.948-11.437 4.59-24.565.099-29.598-10.128-2.485-5.048-2.802-7.227-3.07-21.055-.266-13.747-.372-14.324-2.911-15.871-2.757-1.679-6.36-.864-8.32 1.882-.975 1.366-1.035 1.868-1.179 9.943-.178 10.056.473 18.911 1.723 23.416 3.449 12.431 11.986 21.284 23.79 24.673 4.72 1.354 12.359 1.655 17.209.677 14.544-2.932 24.095-12.683 27.628-28.207.6-2.64.727-8.143.879-38.437l.177-35.355 1.721 1.362c2.25 1.78 7.722 8.123 10.827 12.552 3.033 4.325 7.65 13.616 9.408 18.926 8.817 26.655 2.648 55.386-16.345 76.126-10.872 11.87-25.51 19.94-42.035 23.176-6.338 1.24-17.574 1.551-23.808.659z"/></svg>