<?xml version="1.0" encoding="UTF-8"?>
<svg id="SVGRoot" width="192px" height="192px" version="1.1" viewBox="0 0 192 192" xmlns="http://www.w3.org/2000/svg">
 <path d="m90.367 171.92c-0.50265-0.0707-2.2163-0.27628-3.8081-0.45716-9.2578-1.0522-19.635-4.4727-27.942-9.2105-17.274-9.8518-29.834-25.527-35.522-44.331-2.2588-7.4683-3.0959-13.393-3.0959-21.913 0-8.5201 0.83706-14.445 3.0959-21.913 5.2424-17.333 16.358-32.051 31.78-42.081 9.2332-6.0048 19.866-9.8621 31.836-11.549 3.5516-0.50059 15.032-0.50059 18.583 0 7.1506 1.0079 13.489 2.6771 19.493 5.1332 21.25 8.6934 37.479 26.532 44.123 48.497 2.2563 7.4597 3.0894 13.369 3.0894 21.913 0 3.6066-0.17218 7.773-0.38356 9.2827-1.7597 12.567-5.6606 22.951-12.404 33.022-12.245 18.285-31.108 29.99-53.46 33.172-2.3706 0.33749-13.78 0.66006-15.385 0.43493zm16.006-3.6092c16.311-2.5666 30.044-9.4523 41.279-20.698 20.683-20.703 27.005-51.117 16.307-78.453-5.4358-13.89-15.42-26.07-28.2-34.4-4.2459-2.7678-7.5532-4.4887-12.338-6.42-22.541-9.0979-47.843-6.504-67.936 6.9648-6.8033 4.5604-11.75 9.0919-16.67 15.271-23.145 29.07-20.765 70.851 5.5284 97.032 12.152 12.1 27.412 19.304 44.795 21.147 3.4542 0.36623 13.779 0.10091 17.234-0.44298zm-11.893-20.581c-3.4393-2.3292-6.2301-3.4091-15.769-6.1018-11.217-3.1662-13.462-4.5998-13.97-8.9193l-0.20001-1.7001h-4.2068l0.08902-2.3587 0.08902-2.3587 5.636-0.1754v-52.934h-6.7022v-4.8696h5.0559l0.34152-2.7029c0.41204-3.2612 1.0942-4.6909 3.0958-6.4889 1.948-1.7497 4.4401-3.0294 10.852-5.5724 8.531-3.3836 12.665-5.6849 15.523-8.6422 0.66233-0.68532 1.4228-1.246 1.6899-1.246s1.0276 0.56071 1.6899 1.246c2.8577 2.9568 6.9714 5.2459 15.523 8.6374 6.3971 2.5372 8.8988 3.8229 10.852 5.5772 2.0002 1.7966 2.6838 3.2277 3.0945 6.4779l0.34012 2.6919 5.211 0.17416 0.089 2.3587 0.0891 2.3587h-7.0325v52.934l5.636 0.1754 0.089 2.3587 0.0891 2.3587h-4.2068l-0.20001 1.7001c-0.50619 4.3027-2.6703 5.7389-13.073 8.6755-10.727 3.0282-12.639 3.7486-16.504 6.2182-0.91106 0.58225-1.6973 1.058-1.7473 1.0573-0.05-6e-4 -0.70771-0.41913-1.4617-0.92976zm-10.273-34.83c0.0998-7.2816 0.0998-19.197 0-26.479l-0.18133-13.239h-12.089v52.957h12.089zm17.925 6.0109c0.0321-6.5088 0.39808-15.02 0.52329-12.174 0.0276 0.62775 0.16855 1.1413 0.31319 1.1413 0.50869 0 3.1296-3.0693 3.7081-4.3425 0.41836-0.92077 0.58707-1.9822 0.59169-3.7228 6e-3 -2.0525-0.12952-2.7215-0.85968-4.2609-0.49686-1.0476-1.4384-2.3426-2.2084-3.0376l-1.3423-1.2114-0.42781 19.446c-0.0414 1.8802-0.33118-24.032-0.33258-31.252l-1e-3 -6.3153h-12.186l-1e-3 6.3153c-1e-3 7.2194-0.58589 33.937-0.60072 32.056l-0.15966-20.251-1.3423 1.2114c-0.77004 0.69499-1.7116 1.99-2.2084 3.0376-0.73014 1.5394-0.86512 2.2084-0.85966 4.2609 5e-3 1.7406 0.1733 2.8021 0.59168 3.7228 0.57854 1.2732 3.1994 4.3425 3.7081 4.3425 0.14464 0 0.28555-0.51358 0.31319-1.1413 0.12521-2.8459 0.49107 5.6652 0.52329 12.174l0.0359 7.2283h12.186zm17.938-19.25v-26.479h-12.091l-0.17445 13.315c-0.0959 7.3235-0.0962 19.239-3e-4 26.479l0.17406 13.163h12.091v-26.479z" fill="none" stroke="#000" stroke-linecap="round" stroke-linejoin="round" stroke-width="8"/>
</svg>
