<svg xmlns="http://www.w3.org/2000/svg" width="192" height="192" viewBox="0 0 192 192"><path fill="none" stroke="#000" stroke-linecap="round" stroke-linejoin="round" stroke-width="8" d="M90.367 171.92c-.503-.07-2.216-.276-3.808-.457-9.258-1.052-19.635-4.473-27.942-9.21-17.274-9.852-29.834-25.528-35.522-44.332-2.259-7.468-3.096-13.393-3.096-21.913s.837-14.445 3.096-21.913c5.242-17.333 16.358-32.05 31.78-42.08 9.233-6.005 19.866-9.863 31.836-11.55 3.552-.5 15.032-.5 18.583 0 7.15 1.008 13.489 2.677 19.493 5.134a76.309 76.309 0 0 1 44.123 48.497c2.256 7.46 3.09 13.369 3.09 21.913 0 3.606-.173 7.773-.384 9.282-1.76 12.567-5.66 22.951-12.404 33.022-12.245 18.285-31.108 29.99-53.46 33.172-2.37.338-13.78.66-15.385.435zm16.006-3.61c16.311-2.566 30.044-9.452 41.279-20.697 20.683-20.703 27.005-51.117 16.307-78.453-5.436-13.89-15.42-26.07-28.2-34.4-4.246-2.768-7.553-4.489-12.338-6.42-22.541-9.098-47.843-6.504-67.936 6.965-6.803 4.56-11.75 9.091-16.67 15.27-23.145 29.07-20.765 70.852 5.528 97.033 12.152 12.1 27.412 19.304 44.795 21.147 3.455.366 13.78.1 17.234-.443zM94.48 147.73c-3.44-2.33-6.23-3.41-15.769-6.102-11.217-3.166-13.462-4.6-13.97-8.92l-.2-1.7h-4.207l.09-2.358.088-2.359 5.636-.175V73.182h-6.702v-4.87h5.056l.341-2.703c.412-3.26 1.095-4.69 3.096-6.489 1.948-1.75 4.44-3.029 10.852-5.572 8.531-3.384 12.665-5.685 15.523-8.642.663-.686 1.423-1.246 1.69-1.246s1.028.56 1.69 1.246c2.858 2.957 6.971 5.246 15.523 8.637 6.397 2.537 8.899 3.823 10.852 5.577 2 1.797 2.684 3.228 3.095 6.478l.34 2.692 5.21.174.09 2.36.089 2.358h-7.033v52.934l5.636.175.09 2.359.088 2.359h-4.206l-.2 1.7c-.507 4.302-2.67 5.739-13.073 8.675-10.727 3.028-12.64 3.749-16.504 6.218-.912.583-1.698 1.058-1.748 1.058-.05 0-.707-.42-1.461-.93zM84.207 112.9c.1-7.282.1-19.197 0-26.48l-.181-13.238h-12.09v52.957h12.09zm17.925 6.01c.032-6.508.398-15.02.523-12.173.028.627.169 1.141.313 1.141.51 0 3.13-3.07 3.709-4.342.418-.921.587-1.983.591-3.723.006-2.053-.13-2.722-.86-4.261-.496-1.048-1.438-2.343-2.208-3.038l-1.342-1.211-.428 19.446c-.041 1.88-.331-24.032-.332-31.252l-.001-6.315H89.91l-.001 6.315c-.001 7.22-.586 33.937-.601 32.056l-.16-20.251-1.342 1.211c-.77.695-1.712 1.99-2.209 3.038-.73 1.54-.865 2.208-.86 4.26.006 1.741.174 2.803.592 3.723.579 1.274 3.2 4.343 3.709 4.343.144 0 .285-.514.313-1.141.125-2.846.49 5.665.523 12.174l.036 7.228h12.186zm17.938-19.25V73.183h-12.091l-.174 13.315c-.096 7.323-.097 19.239 0 26.479l.173 13.163h12.091V99.66z"/></svg>