<?xml version="1.0" encoding="UTF-8"?>
<svg id="SVGRoot" width="192px" height="192px" version="1.1" viewBox="0 0 192 192" xmlns="http://www.w3.org/2000/svg">
 <path d="m123.94 155.5c4e-3 -0.37039 18.311-92.412 18.748-94.254l0.25154-1.0604h-19.329l2.4083-12.017 2.4083-12.017h43.57l-0.26794 1.5316c-0.49248 2.8152-23.628 116.51-23.878 117.35-0.2267 0.75684-1.221 0.82473-12.08 0.82473-6.5083 0-11.832-0.15906-11.83-0.35346zm-21.756-23.564c-6.5703-13.025-12.053-23.681-12.184-23.681-0.13095 0-11.98 5.8305-26.332 12.957-24.593 12.212-26.108 12.896-26.343 11.9-0.68576-2.9115-17.328-85.091-17.328-85.566 0-0.4983 21.762-11.651 22.06-11.305 0.06888 0.07997 3.7448 14.89 6.3807 31.721 2.7395 17.491 6.3635 31.941 6.4957 32.387 0.20085 0.67867 3.8996-1.0052 22.545-10.264l22.304-11.076 21.236 42.677-6.8894 33.932z" fill="none" stroke="#000" stroke-linecap="round" stroke-linejoin="round" stroke-width="8"/>
</svg>
