<svg xmlns="http://www.w3.org/2000/svg" width="192" height="192" viewBox="0 0 192 192"><path fill="none" stroke="#000" stroke-linecap="round" stroke-linejoin="round" stroke-width="8" d="M123.94 155.5c.004-.37 18.311-92.412 18.748-94.254l.252-1.06h-19.33l2.409-12.017 2.408-12.017h43.57l-.268 1.531c-.492 2.815-23.628 116.51-23.878 117.35-.227.757-1.22.825-12.08.825-6.508 0-11.832-.16-11.83-.354zm-21.756-23.564c-6.57-13.025-12.053-23.681-12.184-23.681-.131 0-11.98 5.83-26.332 12.957-24.593 12.212-26.108 12.896-26.343 11.9-.686-2.911-17.328-85.091-17.328-85.566 0-.498 21.762-11.651 22.06-11.305.069.08 3.745 14.89 6.38 31.721 2.74 17.491 6.364 31.941 6.496 32.387.201.679 3.9-1.005 22.545-10.264l22.304-11.076 21.236 42.677-6.889 33.932z"/></svg>