<svg xmlns="http://www.w3.org/2000/svg" width="192" height="192" viewBox="0 0 192 192"><g stroke-width="8"><path fill="none" stroke="#000" stroke-linecap="round" stroke-linejoin="round" d="M124.12 117.3c-9.752-.126-13.226-4.014-22.444-15.61-9.218-11.596-19.071-11.05-22.444-7.564-2.805 2.9 13.76 36.936 18.703 42.357a80.611 76.066 0 0 0 7.615 7.564s-.176 16.231-.71 27.955M150.71 169.13a310.48 292.97 0 0 1-4.676-30.507c.268-1.26.103-18.153-.015-22.187-.118-4.034-4.66-38.071-7.733-44.5-3.072-6.43-14.161-14.875-14.161-14.875" class="a"/><path fill="none" stroke="#000" stroke-linecap="round" stroke-linejoin="round" d="M96.413 134.46H50.822a9.53 8.993 0 0 1-9.53-8.993V28.988a9.53 8.993 0 0 1 9.53-8.992h63.769a9.53 8.993 0 0 1 9.53 8.992v88.306M41.293 36.262h82.827M41.293 118.2h46.206" class="a"/><ellipse cx="106.2" cy="77.284" class="b" rx="3.098" ry="2.923"/><ellipse cx="91.178" cy="77.284" class="b" rx="3.098" ry="2.923"/><ellipse cx="76.152" cy="77.284" class="b" rx="3.098" ry="2.923"/></g></svg>