<?xml version="1.0" encoding="UTF-8"?>
<svg id="SVGRoot" width="192px" height="192px" version="1.1" viewBox="0 0 192 192" xmlns="http://www.w3.org/2000/svg">
 <g fill="none" stroke="#000" stroke-linecap="round" stroke-linejoin="round">
  <g stroke-width="8">
   <path d="m52.367 40.423h-9.9456v-15.415s10.592-2.9115 12.907-2.9863c2.3158-0.07483 18.108 0 18.108 0v56.27h-21.06c-0.0217-12.623-0.0091-25.247-0.0091-37.869z" style="paint-order:stroke fill markers"/>
   <path d="m81.871 54.624 13.828 23.152s2.4714 5.6582 11.211 0.87067c8.7392-4.7878 27.838-15.536 27.838-15.536s5.8287-2.569 2.027-8.9336c-3.8014-6.3647-13.366-22.379-13.366-22.379s-2.3804-6.2159-10.47-1.7014c-8.0893 4.5147-28.056 15.658-28.056 15.658s-6.6266 2.8158-3.0111 8.8688z" style="paint-order:stroke fill markers"/>
   <path d="m130.7 34.122 8.6244 14.44h13.168s8.1833 0.40402 3.9709-6.6485c-4.2124-7.0524-11.7-19.589-11.7-19.589s-3.3322-5.4305-6.5756 0c-3.2434 5.4305-7.4884 11.797-7.4884 11.797z" style="paint-order:stroke fill markers"/>
   <path d="m38.753 170.94v-9.8594c-5.8989 0-5.7892-7.5601 0.10859-7.5601v-11.796c-6.0485 0-6.0335-6.9498-0.06996-6.9498v-11.357c-6.0331 0-5.8401-7.3873 0.06973-7.3873l0.36011-19.505s-0.19434-10.287 13.773-10.287h87.475c3.443 0 3.7864 2.6506 0.29019 2.6506v18.181l2.5154 2.0254v62.975h-104.54z" style="paint-order:stroke fill markers"/>
   <path d="m65.389 121.82v33.051s-0.2587 3.8983 4.0328 3.8983h61.065s2.5009-0.01 2.5009-4.187v-31.77s0.95439-5.3729-5.5584-5.3729h-57.995s-4.047-0.59493-4.047 4.3808z" style="paint-order:stroke fill markers"/>
   <path d="m82.041 133.26h34.862" style="paint-order:stroke fill markers"/>
   <path d="m82.041 143.27h34.862" style="paint-order:stroke fill markers"/>
  </g>
  <path d="m138.47 94.448h-88.209c-7.411 0-6.7011 14.064 0.79682 14.233h88.86" stroke-width="4" style="paint-order:stroke fill markers"/>
  <path d="m47.048 101.19h93.051" stroke-width="4" style="paint-order:stroke fill markers"/>
  <g stroke-width="8">
   <path d="m39.144 116.03 12.465 5e-3c4.7834 0 5.0032 7.3923 0.01736 7.3923h-12.568" style="paint-order:stroke fill markers"/>
   <path d="m38.477 153.58 12.465 5e-3c4.7834 0 5.0032 7.3922 0.01736 7.3922h-12.568" style="paint-order:stroke fill markers"/>
   <path d="m39.294 134.77 12.465 5e-3c4.7834 0 5.0032 6.9788 0.01736 6.9788h-12.568" style="paint-order:stroke fill markers"/>
  </g>
 </g>
</svg>
