<svg xmlns="http://www.w3.org/2000/svg" width="192" height="192" viewBox="0 0 192 192"><g fill="none" stroke="#000" stroke-linecap="round" stroke-linejoin="round"><g stroke-width="8"><path d="M52.367 40.423h-9.946V25.008s10.592-2.911 12.907-2.986c2.316-.075 18.108 0 18.108 0v56.27h-21.06c-.021-12.623-.009-25.247-.009-37.87zm29.504 14.201 13.828 23.152s2.471 5.658 11.211.87c8.74-4.787 27.838-15.535 27.838-15.535s5.829-2.57 2.027-8.934l-13.366-22.379s-2.38-6.216-10.47-1.701L84.883 45.755s-6.627 2.815-3.011 8.868zM130.7 34.122l8.624 14.44h13.168s8.184.404 3.971-6.649l-11.7-19.588s-3.332-5.431-6.575 0c-3.244 5.43-7.489 11.797-7.489 11.797zM38.753 170.94v-9.86c-5.899 0-5.79-7.56.109-7.56v-11.796c-6.049 0-6.034-6.95-.07-6.95v-11.356c-6.033 0-5.84-7.388.07-7.388l.36-19.505s-.195-10.287 13.772-10.287h87.475c3.443 0 3.787 2.651.29 2.651v18.181l2.516 2.025v62.975H38.735z" style="paint-order:stroke fill markers"/><path d="M65.389 121.82v33.051s-.259 3.898 4.033 3.898h61.065s2.5-.01 2.5-4.187v-31.77s.955-5.373-5.558-5.373H69.434s-4.047-.595-4.047 4.381zm16.652 11.44h34.862m-34.862 10.01h34.862" style="paint-order:stroke fill markers"/></g><path stroke-width="4" d="M138.47 94.448H50.261c-7.411 0-6.701 14.064.797 14.233h88.86m-92.87-7.491h93.051" style="paint-order:stroke fill markers"/><path stroke-width="8" d="m39.144 116.03 12.465.005c4.783 0 5.003 7.392.017 7.392H39.058m-.581 30.153 12.465.005c4.783 0 5.003 7.392.017 7.392H38.391m.903-26.207 12.465.005c4.783 0 5.003 6.979.017 6.979H39.208" style="paint-order:stroke fill markers"/></g></svg>