<svg
    xmlns="http://www.w3.org/2000/svg"
    viewBox="0 0 192 192"
    id="vector">
    <path
        id="path"
        d="M 81.671 170.531 C 73.355 168.732 69.822 167.427 62.018 163.275 C 43.361 153.346 30.086 136.478 24.558 115.676 C 22.837 109.201 22.557 106.56 22.511 96.322 C 22.465 86.276 22.727 83.431 24.227 77.685 C 27.93 63.494 34.681 51.566 44.657 41.586 C 53.505 32.736 62.691 27.132 74.407 23.438 C 81.228 21.288 94.518 19.44 97.622 20.211 C 100.856 21.013 103.081 23.584 103.081 26.518 C 103.081 32.173 101.094 33.471 90.968 34.427 C 86.906 34.811 81.346 35.844 78.612 36.723 C 59.033 43.021 43.47 59.628 37.938 80.124 C 35.682 88.489 35.706 103.474 37.991 111.956 C 40.845 122.552 46.164 131.888 54.063 140.165 C 66.234 152.919 85.226 159.759 102.254 157.524 C 116.549 155.647 128.586 149.577 138.411 139.291 C 147.387 129.892 152.308 119.909 154.777 106.086 C 155.604 101.452 156.57 98.416 157.566 97.317 C 160.629 93.937 166.022 94.41 168.557 98.28 C 169.755 100.108 169.793 100.947 168.95 106.783 C 166.542 123.441 159.644 137.499 147.866 149.751 C 130.952 167.346 104.839 175.543 81.667 170.53 Z M 72.768 141.472 C 68.823 139.84 67.404 134.01 70.131 130.634 C 71.478 128.967 72.285 128.799 80.645 128.446 L 89.7 128.064 L 89.899 95.746 C 90.009 77.972 89.837 63.432 89.517 63.432 C 89.197 63.433 86.354 65.153 83.2 67.254 C 76.671 71.604 74.408 71.947 71.025 69.098 C 69.173 67.54 68.677 66.522 68.696 64.318 C 68.711 62.778 69.163 60.935 69.704 60.223 C 70.827 58.746 92.576 44.515 95.354 43.441 C 98.057 42.395 102.11 43.985 103.477 46.628 C 104.436 48.484 104.61 54.948 104.61 88.633 L 104.61 128.444 L 113.072 128.444 C 117.726 128.444 122.228 128.816 123.077 129.27 C 123.926 129.725 125.105 131.257 125.698 132.676 C 126.937 135.643 126.344 137.946 123.735 140.299 C 122.124 141.752 120.843 141.837 98.223 141.988 C 85.124 142.075 73.669 141.842 72.768 141.469 Z"
        fill="none"
        stroke="#000000"
        stroke-width="8"
        stroke-linecap="round"
        stroke-linejoin="round"/>
</svg>
