<svg xmlns="http://www.w3.org/2000/svg" viewBox="0 0 192 192"><path fill="none" stroke="#000" stroke-linecap="round" stroke-linejoin="round" stroke-width="8" d="M81.671 170.531c-8.316-1.799-11.849-3.104-19.653-7.256-18.657-9.929-31.932-26.797-37.46-47.599-1.721-6.475-2.001-9.116-2.047-19.354-.046-10.046.216-12.891 1.716-18.637 3.703-14.191 10.454-26.119 20.43-36.099 8.848-8.85 18.034-14.454 29.75-18.148 6.821-2.15 20.111-3.998 23.215-3.227 3.234.802 5.459 3.373 5.459 6.307 0 5.655-1.987 6.953-12.113 7.909-4.062.384-9.622 1.417-12.356 2.296-19.579 6.298-35.142 22.905-40.674 43.401-2.256 8.365-2.232 23.35.053 31.832 2.854 10.596 8.173 19.932 16.072 28.209 12.171 12.754 31.163 19.594 48.191 17.359 14.295-1.877 26.332-7.947 36.157-18.233 8.976-9.399 13.897-19.382 16.366-33.205.827-4.634 1.793-7.67 2.789-8.769 3.063-3.38 8.456-2.907 10.991.963 1.198 1.828 1.236 2.667.393 8.503-2.408 16.658-9.306 30.716-21.084 42.968-16.914 17.595-43.027 25.792-66.199 20.779Zm-8.903-29.059c-3.945-1.632-5.364-7.462-2.637-10.838 1.347-1.667 2.154-1.835 10.514-2.188l9.055-.382.199-32.318c.11-17.774-.062-32.314-.382-32.314-.32.001-3.163 1.721-6.317 3.822-6.529 4.35-8.792 4.693-12.175 1.844-1.852-1.558-2.348-2.576-2.329-4.78.015-1.54.467-3.383 1.008-4.095 1.123-1.477 22.872-15.708 25.65-16.782 2.703-1.046 6.756.544 8.123 3.187.959 1.856 1.133 8.32 1.133 42.005v39.811h8.462c4.654 0 9.156.372 10.005.826.849.455 2.028 1.987 2.621 3.406 1.239 2.967.646 5.27-1.963 7.623-1.611 1.453-2.892 1.538-25.512 1.689-13.099.087-24.554-.146-25.455-.519Z"/></svg>