<?xml version="1.0" encoding="UTF-8"?>
<svg id="SVGRoot" width="192px" height="192px" version="1.1" viewBox="0 0 192 192" xmlns="http://www.w3.org/2000/svg">
 <path class="a" d="m152.16 22.375 19.842 20.184-85.901 85.876-43.505-43.493 19.801-19.814 23.622 23.596zm-37.754 77.736h42.478a5.0941 5.0974 0 0 1 4.8476 4.6864v18.91a5.0941 5.0974 0 0 1-4.7243 4.7275h-132.28a4.7243 4.7275 0 0 1-4.7243-4.7275v-18.91a5.0941 5.0974 0 0 1 4.7243-4.6864h32.865m-32.865 41.108h132.16a5.053 5.0563 0 0 1 4.8476 4.8097v18.869a5.053 5.0563 0 0 1-4.7243 4.7275h-132.28a4.7243 4.7275 0 0 1-4.7243-4.7275v-18.869a5.053 5.0563 0 0 1 4.7243-4.8097z" fill="none" stroke="#000" stroke-linecap="round" stroke-linejoin="round" stroke-width="8"/>
</svg>
