<svg xmlns="http://www.w3.org/2000/svg" width="192" height="192" viewBox="0 0 192 192"><path fill="none" stroke="#000" stroke-linecap="round" stroke-linejoin="round" stroke-width="8" d="m152.16 22.375 19.842 20.184-85.901 85.876-43.505-43.493 19.801-19.814 23.622 23.596zm-37.754 77.736h42.478a5.094 5.097 0 0 1 4.848 4.686v18.91a5.094 5.097 0 0 1-4.725 4.728H24.727a4.724 4.728 0 0 1-4.724-4.728v-18.91a5.094 5.097 0 0 1 4.724-4.686h32.865m-32.865 41.108h132.16a5.053 5.056 0 0 1 4.848 4.81v18.869a5.053 5.056 0 0 1-4.724 4.727H24.73a4.724 4.728 0 0 1-4.725-4.727v-18.87a5.053 5.056 0 0 1 4.725-4.809z" class="a"/></svg>