<svg xmlns="http://www.w3.org/2000/svg" width="192" height="192" viewBox="0 0 192 192"><g fill="none" stroke="#000" stroke-linecap="round" stroke-linejoin="round" stroke-width="8"><path d="M56.061 162.39c2.416-40.974 4.56-66.113 3.319-113.22M96 34.212a544.24 555.9 0 0 1-76-4.598" class="a"/><path d="m32.589 31.173-.148 15.095A435.95 445.29 0 0 0 96 50.321a435.94 445.28 0 0 0 63.559-4.053l.046-15.116" class="a"/><path d="M96 50.321v15.04H41.664m94.276 97.029c-2.416-40.974-4.56-66.113-3.319-113.22M96 34.212a544.24 555.9 0 0 0 76-4.598M96 65.361h54.336" class="a"/></g></svg>