<svg xmlns="http://www.w3.org/2000/svg" width="192" height="192" viewBox="0 0 192 192"><g fill="none" stroke="#000" stroke-linecap="round" stroke-linejoin="round"><path stroke-width="3.028" d="M8.339 23.276v10.767l15.654 2.941V13.519" class="a" transform="matrix(3.7983 0 0 4.136 4.846 -3.395)"/><path stroke-width="3.028" d="M39.562 23.561v10.294l-15.569 3.129" class="a" transform="matrix(3.7983 0 0 4.136 4.846 -3.395)"/><path stroke-width="12" d="m114.14 87.907 50.846 7.626a4.468 4.865 0 0 0 4.693-6.795l-14.566-35.7-59.136-10.87-59.46 11.39L22.362 86.71a4.468 4.866 0 0 0 4.361 6.907l50.663-3.834a5.583 6.08 0 0 0 4.71-3.577l13.883-33.684 13.875 31.961a5.583 6.08 0 0 0 4.286 3.423zM52.263 123.43l11.17 1.29" class="a"/></g></svg>