<?xml version="1.0" encoding="UTF-8"?>
<svg width="192" height="192" version="1.1" viewBox="0 0 192 192" xmlns="http://www.w3.org/2000/svg">
 <g transform="matrix(.8399 0 0 .8399 785.41 247.87)">
  <path d="m-837.66-237.97a5.49 5.49 0 0 0-5.423 4.633l-9.013 57.15-8.281 52.514-5e-3 0.044 0.01-0.044 8.281-52.514c0.421-2.669 2.719-4.633 5.42-4.633h26.404c26.573 0 49.127-19.387 53.246-45.658 0.314-1.996 0.482-3.973 0.52-5.924v-3e-3h-3e-3c-6.753-3.543-14.683-5.565-23.372-5.565z" fill-opacity=".74902"/>
  <path d="m-766.51-232.4c-0.037 1.951-0.207 3.93-0.52 5.926-4.119 26.271-26.673 45.658-53.246 45.658h-26.404c-2.701 0-4.999 1.964-5.42 4.633l-8.281 52.514-5.197 32.947a4.46 4.46 0 0 0 4.405 5.153h28.66a5.49 5.49 0 0 0 5.423-4.633l7.55-47.881c0.423-2.669 2.722-4.636 5.423-4.636h16.876c26.573 0 49.124-19.386 53.243-45.655 2.924-18.649-6.46-35.614-22.511-44.026z" fill-opacity=".50196"/>
  <path d="m-870.22-276.07a5.49 5.49 0 0 0-5.423 4.636l-22.489 142.61a4.46 4.46 0 0 0 4.405 5.156h33.351l8.281-52.514 9.013-57.15a5.49 5.49 0 0 1 5.423-4.633h47.782c8.691 0 16.621 2.025 23.375 5.563 0.46-23.917-19.275-43.666-46.412-43.666z"/>
 </g>
</svg>
