<svg id="vector" xmlns="http://www.w3.org/2000/svg" width="192" height="192" viewBox="0 0 192 192"><path fill="#000" d="m81.86,48a4.61,4.61 0,0 0,-4.55 3.89l-7.57,48 -6.96,44.11 -0,0.04 0.01,-0.04 6.96,-44.11c0.35,-2.24 2.28,-3.89 4.55,-3.89l22.18,0c22.32,0 41.26,-16.28 44.72,-38.35 0.26,-1.68 0.4,-3.34 0.44,-4.98l0,-0l-0,0c-5.67,-2.98 -12.33,-4.67 -19.63,-4.67z" fill-opacity="0.75" id="path_0"/><path fill="#000" d="m141.62,52.68c-0.03,1.64 -0.17,3.3 -0.44,4.98 -3.46,22.07 -22.4,38.35 -44.72,38.35l-22.18,0c-2.27,0 -4.2,1.65 -4.55,3.89l-6.96,44.11 -4.36,27.67a3.75,3.75 0,0 0,3.7 4.33l24.07,0a4.61,4.61 0,0 0,4.55 -3.89l6.34,-40.22c0.36,-2.24 2.29,-3.89 4.55,-3.89l14.17,0c22.32,0 41.26,-16.28 44.72,-38.35 2.46,-15.66 -5.43,-29.91 -18.91,-36.98z" fill-opacity="0.50" id="path_1"/><path fill="#000" d="m54.51,16a4.61,4.61 0,0 0,-4.55 3.89l-18.89,119.78a3.75,3.75 0,0 0,3.7 4.33l28.01,0l6.96,-44.11 7.57,-48a4.61,4.61 0,0 1,4.55 -3.89l40.13,0c7.3,0 13.96,1.7 19.63,4.67 0.39,-20.09 -16.19,-36.68 -38.98,-36.68z" id="path_2"/></svg>