<svg xmlns="http://www.w3.org/2000/svg" width="192" height="192" viewBox="0 0 192 192"><path fill="none" stroke="#000" stroke-linecap="round" stroke-linejoin="round" stroke-width="8" d="M100.96 167.26c-5.039-2.64-16.617-8.64-25.73-13.334a54570.466 54570.466 0 0 1-28.954-14.924c-6.812-3.515-12.647-6.39-12.967-6.39-.507 0-.568 1.892-.48 14.756l.103 14.756 37.28.203-.122 1.07-.123 1.072-18.323.112c-10.077.062-18.893.01-19.59-.115l-1.267-.228V131.06l-2.242-1.162c-1.233-.64-2.48-1.324-2.771-1.52-.557-.378-.827.172 15.932-32.509a66135.801 66135.801 0 0 0 28.642-55.897c4.235-8.277 8.307-16.157 9.049-17.51l1.349-2.463 5.136 2.705c2.825 1.487 12.416 6.452 21.314 11.033 8.898 4.58 16.955 8.785 17.904 9.344 2.022 1.19.749-2.343 13.275 36.846l7.835 24.515-5.807 11.251c-3.194 6.188-9.812 19.08-14.708 28.646-14.048 27.453-14.1 27.55-14.873 27.64-.386.044-4.825-2.08-9.864-4.72zm9.492.043c.3-.483 4.274-8.179 8.833-17.1s11.686-22.855 15.839-30.96c4.152-8.105 7.55-15.012 7.55-15.347 0-.482-9.63-30.936-17.124-54.152l-1.198-3.713-5.751-2.97c-29.985-15.486-36.479-18.75-36.734-18.466-.304.338-6.99 13.271-20.478 39.613-4.238 8.277-10.38 20.238-13.647 26.58-10.771 20.908-18.123 35.436-18.115 35.799.01.437.71.808 31.764 16.795a30706.965 30706.965 0 0 1 36.45 18.792c6.325 3.27 11.628 5.961 11.784 5.979.156.017.528-.364.827-.848zm3.958-51.446c-4.074-2.107-15.126-7.8-24.56-12.65C60.289 88.01 58.097 86.842 57.495 85.98c-1.484-2.124.08-4.966 2.733-4.966 1.35 0 5.448 1.981 21.824 10.552 2.359 1.234 8.148 4.228 12.865 6.653 4.717 2.425 9.805 5.064 11.305 5.863 1.501.8 6.14 3.176 10.311 5.28 4.17 2.103 7.986 4.23 8.48 4.724 1.312 1.316 1.246 3.73-.13 4.816-.565.446-1.486.805-2.047.799-.56-.006-4.353-1.736-8.427-3.844zm7.017-16.212c-3.43-1.778-11.5-5.939-17.933-9.245-6.433-3.306-13.976-7.217-16.763-8.69-2.788-1.472-8.461-4.381-12.608-6.465-5.784-2.906-7.668-4.037-8.09-4.854-1.166-2.261-.288-4.415 1.973-4.84 1.148-.217 2.33.247 8.663 3.397 4.033 2.006 9 4.547 11.037 5.646 2.036 1.1 8.703 4.552 14.814 7.673 23.264 11.882 28.87 14.867 29.435 15.676.874 1.251.72 2.905-.374 4.001-1.663 1.667-3.156 1.33-10.154-2.299zm-7.212-25.034a1048.675 1048.675 0 0 1-14.034-7.24 504.06 504.06 0 0 0-11.695-5.964c-7.768-3.802-13.173-6.873-13.642-7.75-1.049-1.965-.05-4.452 1.966-4.896 1.016-.224 2.848.576 12.572 5.488 6.261 3.163 14.278 7.29 17.816 9.172a591.36 591.36 0 0 0 12.085 6.227c3.11 1.543 5.96 3.168 6.335 3.611 1.076 1.269.9 3.618-.345 4.599-.565.445-1.486.807-2.047.803-.56-.004-4.615-1.826-9.01-4.05zm12.297 89.526c-.444-.325-.633-.783-.484-1.172.22-.575 1.908-.649 16.924-.74l16.68-.103.102-15.929.102-15.929h1.948l-.101 17.101-.102 17.101-17.17.102c-14.019.083-17.305.004-17.9-.432zm22.584-79.456c-1.434-4.49-4.5-14.056-6.814-21.258-2.755-8.574-4.049-13.133-3.747-13.205.564-.134 27.92 13.946 27.92 14.371 0 .481-13.696 27.115-14.25 27.715-.415.447-.956-.88-3.109-7.622zm8.36-8.98c2.59-5.07 4.71-9.447 4.71-9.724 0-.277-3.904-2.505-8.675-4.95-10.442-5.35-10.038-5.174-10.038-4.395 0 .543 7.564 24.641 8.553 27.25.217.572.472 1.04.568 1.04s2.292-4.15 4.882-9.22zM30.786 44.466V30.198h39.426l-.123 1.075-.124 1.075-37.23.203v26.182h-1.949zm129.04 1.172V32.542h-16.521c-14.146 0-16.59-.083-17.002-.58-.265-.32-.38-.848-.255-1.174.197-.515 2.492-.59 17.976-.59h17.75v28.534h-1.95z"/></svg>