<?xml version="1.0" encoding="UTF-8"?>
<svg id="SVGRoot" width="192px" height="192px" version="1.1" viewBox="0 0 192 192" xmlns="http://www.w3.org/2000/svg">
 <path d="m100.96 167.26c-5.0387-2.64-16.617-8.6401-25.73-13.334-9.1125-4.6935-22.142-11.409-28.954-14.924-6.812-3.5147-12.647-6.3904-12.967-6.3904-0.50687 0-0.56833 1.8921-0.47927 14.756l0.10211 14.756 37.281 0.20304-0.12302 1.0712-0.12303 1.0711-18.323 0.11208c-10.077 0.0617-18.893 0.01-19.59-0.11542l-1.267-0.22753v-33.179l-2.2416-1.1622c-1.2329-0.6392-2.4799-1.3235-2.7712-1.5208-0.55736-0.37736-0.82722 0.17325 15.932-32.508 14.509-28.295 21.193-41.338 28.642-55.897 4.2349-8.2771 8.3068-16.157 9.0488-17.511l1.349-2.4616 5.136 2.7043c2.8248 1.4874 12.416 6.4521 21.314 11.033 8.8981 4.5806 16.955 8.7855 17.904 9.3443 2.0221 1.1908 0.74887-2.3431 13.275 36.846l7.8357 24.515-5.8071 11.251c-3.1939 6.1882-9.8124 19.079-14.708 28.646-14.048 27.453-14.1 27.549-14.873 27.639-0.38649 0.0449-4.8253-2.0782-9.864-4.7182zm9.4921 0.0434c0.29903-0.48372 4.2738-8.1793 8.8328-17.101s11.686-22.854 15.839-30.959c4.1522-8.1054 7.5495-15.012 7.5495-15.347 0-0.48195-9.6295-30.936-17.123-54.152l-1.1986-3.7134-5.7508-2.97c-29.985-15.486-36.479-18.75-36.734-18.466-0.3036 0.3378-6.9898 13.271-20.478 39.613-4.2384 8.2771-10.38 20.238-13.647 26.58-10.771 20.908-18.123 35.436-18.115 35.799 0.01031 0.43728 0.71092 0.80806 31.764 16.795 13.722 7.0645 30.125 15.521 36.45 18.792 6.3252 3.2709 11.628 5.9613 11.784 5.9787 0.15587 0.0173 0.52806-0.36417 0.82709-0.8479zm3.9575-51.446c-4.0738-2.1071-15.126-7.7997-24.56-12.65-29.561-15.198-31.753-16.365-32.355-17.227-1.4839-2.1243 0.08046-4.9663 2.7337-4.9663 1.3497 0 5.4477 1.9813 21.824 10.552 2.3585 1.2343 8.1477 4.2283 12.865 6.6533 4.7171 2.425 9.8045 5.0634 11.305 5.8631 1.5009 0.79967 6.1406 3.1753 10.311 5.2791 4.1699 2.1038 7.9855 4.23 8.4791 4.7249 1.3122 1.3157 1.2471 3.7298-0.1298 4.8158-0.56495 0.44558-1.486 0.80478-2.0467 0.79824-0.5607-6e-3 -4.3526-1.7359-8.4265-3.8431zm7.0172-16.212c-3.4306-1.7787-11.5-5.9391-17.933-9.2455-6.4324-3.3063-13.976-7.2164-16.763-8.689-2.7874-1.4726-8.4609-4.3823-12.608-6.4659-5.7837-2.9061-7.6678-4.0366-8.0892-4.8537-1.1664-2.2617-0.28886-4.4156 1.9722-4.841 1.1482-0.21598 2.3304 0.24772 8.6628 3.3978 4.0332 2.0064 8.9997 4.5472 11.037 5.6463 2.0369 1.0991 8.7032 4.5519 14.814 7.6729 23.264 11.882 28.87 14.867 29.435 15.676 0.87402 1.2512 0.71948 2.9044-0.374 4.0008-1.663 1.6674-3.1554 1.3295-10.154-2.2989zm-7.2121-25.034c-4.3955-2.2233-10.711-5.4815-14.034-7.2404-3.3234-1.7589-8.5863-4.4428-11.695-5.9643-7.7679-3.8015-13.173-6.8723-13.642-7.7502-1.0484-1.9642-0.04916-4.4519 1.9665-4.8958 1.0154-0.22362 2.8481 0.57649 12.572 5.4886 6.2608 3.1627 14.278 7.2898 17.816 9.1713 3.5378 1.8815 8.9761 4.6837 12.085 6.2271 3.109 1.5435 5.9597 3.1685 6.3349 3.6113 1.0754 1.269 0.89928 3.6176-0.34496 4.5989-0.56495 0.44558-1.4859 0.80693-2.0467 0.803-0.56072-0.0039-4.6158-1.8262-9.0112-4.0496zm12.297 89.526c-0.44407-0.32559-0.63274-0.78292-0.48367-1.1725 0.22005-0.57493 1.9084-0.64882 16.924-0.74058l16.68-0.10192 0.10182-15.929 0.10182-15.929h1.9486l-0.10152 17.101-0.10151 17.101-17.171 0.10173c-14.018 0.0831-17.304 4e-3 -17.899-0.43208zm22.584-79.456c-1.4337-4.4898-4.5-14.056-6.814-21.258-2.755-8.5747-4.0482-13.133-3.7465-13.205 0.5634-0.1346 27.919 13.946 27.919 14.371 0 0.48078-13.695 27.115-14.25 27.715-0.41374 0.44674-0.9549-0.88053-3.1078-7.6223zm8.3602-8.9796c2.5903-5.0712 4.7096-9.4474 4.7096-9.7248 0-0.27741-3.9033-2.5046-8.674-4.9493-10.442-5.3507-10.038-5.1742-10.038-4.3956 0 0.54301 7.5635 24.641 8.5528 27.25 0.21682 0.57184 0.47212 1.0397 0.56732 1.0397s2.2924-4.1492 4.8827-9.2204zm-126.67-31.237v-14.267h39.426l-0.12332 1.0749-0.12332 1.0749-37.23 0.20302v26.182h-1.9492zm129.04 1.1727v-13.095h-16.521c-14.146 0-16.59-0.08355-17.002-0.58136-0.26466-0.31974-0.37937-0.84744-0.25491-1.1727 0.19742-0.51584 2.4917-0.59131 17.976-0.59131h17.75v28.535h-1.9492z" fill="none" stroke="#000" stroke-linecap="round" stroke-linejoin="round" stroke-width="8"/>
</svg>
