<?xml version="1.0" encoding="UTF-8"?>
<svg id="vector" version="1.1" viewBox="0 0 192 192" xmlns="http://www.w3.org/2000/svg">
 <path d="m20 155.44c0.025-1.6564 18.09-118.98 18.363-119.25 0.55915-0.55814 59.852-0.35509 64.653 0.22206 5.4174 0.65018 9.6395 1.7145 13.614 3.4319 16.08 6.9478 25.298 25.096 22.665 44.625-1.1243 8.3402-3.735 14.172-9.9416 22.207-6.0076 7.7771-14.201 13.322-23.814 16.117-7.741 2.2506-11.89 2.7227-26.261 2.9918l-13.32 0.24807-0.87823 5.4574c-0.48313 3.0018-1.5714 9.7776-2.4186 15.058l-1.5394 9.6006h-20.566c-19.321 0-20.565-0.043-20.555-0.70719zm62.777-60.73c5.5465-0.69419 9.8006-3.777 12.157-8.8104 1.7145-3.661 2.0075-8.4602 0.72519-11.86-2.0615-5.4655-7.741-8.3402-15.757-7.9771-2.9008 0.13203-3.3919 0.27107-4.3501 1.2283-1.0263 1.0253-1.1663 1.6884-2.8127 13.337-0.95325 6.7418-1.8215 12.833-1.9295 13.537l-0.19505 1.2793 4.7212-0.19705c2.5967-0.10803 5.9456-0.35009 7.441-0.53714zm59.371 60.86c-6.8198-1.8925-13.312-7.683-15.946-14.225-1.5384-3.818-2.4026-8.7243-2.1036-11.941 0.82422-8.8564 6.2466-17.071 13.683-20.729 5.8656-2.8848 11.819-3.2969 17.945-1.2423 3.791 1.2713 5.8175 2.5177 8.7953 5.4054 2.9478 2.8588 4.7883 5.8476 6.1296 9.9527 4.4332 13.573-2.3296 28.07-15.13 32.431-2.1416 0.73019-3.5099 0.89924-7.1019 0.87823-2.4476-0.014-5.2684-0.25306-6.2697-0.53114z" fill="none" stroke="#000" stroke-linecap="round" stroke-linejoin="round" stroke-width="8"/>
</svg>
