<svg xmlns="http://www.w3.org/2000/svg" viewBox="0 0 192 192"><path fill="none" stroke="#000" stroke-linecap="round" stroke-linejoin="round" stroke-width="8" d="M20 155.44c.025-1.656 18.09-118.98 18.363-119.25.56-.558 59.852-.355 64.653.222 5.417.65 9.64 1.715 13.614 3.432 16.08 6.948 25.298 25.096 22.665 44.625-1.124 8.34-3.735 14.172-9.942 22.207-6.007 7.777-14.2 13.322-23.814 16.117-7.74 2.25-11.89 2.723-26.26 2.992l-13.32.248-.879 5.457-2.418 15.058-1.54 9.6H40.556c-19.32 0-20.565-.042-20.555-.706zm62.777-60.73c5.546-.694 9.8-3.777 12.157-8.81 1.714-3.661 2.007-8.46.725-11.86-2.061-5.466-7.74-8.34-15.757-7.977-2.9.132-3.392.27-4.35 1.228-1.026 1.025-1.166 1.688-2.813 13.337a3642.779 3642.779 0 0 1-1.93 13.537l-.194 1.28 4.721-.198c2.597-.108 5.946-.35 7.441-.537zm59.371 60.86c-6.82-1.893-13.312-7.683-15.946-14.225-1.538-3.818-2.403-8.724-2.104-11.941.825-8.856 6.247-17.071 13.683-20.729 5.866-2.885 11.82-3.297 17.945-1.242 3.791 1.271 5.818 2.517 8.796 5.405 2.947 2.859 4.788 5.848 6.13 9.953 4.433 13.573-2.33 28.07-15.13 32.43-2.142.731-3.51.9-7.103.879-2.447-.014-5.268-.253-6.27-.531z"/></svg>