<?xml version="1.0" encoding="UTF-8"?>
<svg id="SVGRoot" width="192px" height="192px" version="1.1" viewBox="0 0 192 192" xmlns="http://www.w3.org/2000/svg">
 <g fill="none" stroke="#000" stroke-linecap="round" stroke-linejoin="round">
  <path class="a" d="m95.999 172c36.01-12.15 61.676-40.391 65.704-76.35a316.02 309.31 0 0 0-0.28431-46.875 10.12 9.9054 0 0 0-9.8265-9.2229c-16.291-0.4911-35.223-3.1481-49.855-17.256a8.1696 7.9963 0 0 0-11.472 0c-14.634 14.106-33.566 16.765-49.855 17.256a10.12 9.9054 0 0 0-9.8265 9.2229 316.02 309.31 0 0 0-0.2879 46.875c4.0278 35.959 29.693 64.2 65.704 76.35z" stroke-width="8"/>
  <polyline class="a" transform="matrix(3.982 0 0 3.8976 .43009 2.4538)" points="23.335 31 27.5 24 20.5 24 24.665 17" stroke-width="2.0307"/>
 </g>
</svg>
