<svg xmlns="http://www.w3.org/2000/svg" width="192" height="192" viewBox="0 0 192 192"><g fill="none" stroke="#000" stroke-linecap="round" stroke-linejoin="round"><path stroke-width="8" d="M95.999 172c36.01-12.15 61.676-40.391 65.704-76.35a316.02 309.31 0 0 0-.284-46.875 10.12 9.905 0 0 0-9.827-9.223c-16.29-.491-35.223-3.148-49.855-17.256a8.17 7.996 0 0 0-11.472 0C75.631 36.402 56.7 39.061 40.41 39.552a10.12 9.905 0 0 0-9.826 9.223 316.02 309.31 0 0 0-.288 46.875C34.324 131.609 59.989 159.85 96 172z" class="a"/><path stroke-width="2.031" d="m23.335 31 4.165-7h-7l4.165-7" class="a" transform="matrix(3.982 0 0 3.8976 .43 2.454)"/></g></svg>