<svg xmlns="http://www.w3.org/2000/svg" width="192" height="192" viewBox="0 0 192 192"><path fill="none" stroke="#000" stroke-linecap="round" stroke-linejoin="round" stroke-width="8" d="m123.81 152.28-1.521-1.544v-40.465h-20.541v-11.21l9.038-8.927v-25.86h-9.038v-8.549h46.832v8.114l-8.833.23-.108 13.028-.108 13.027 4.525 4.469 4.524 4.469v11.208h-20.54v40.951l-2.71 2.602zM20.82 135.507c-.807-.8-.822-1.357-.822-30.75V74.821l2.017-1.998h79.735v14.06l-3.727 3.655c-2.05 2.01-3.99 4.15-4.313 4.754-.465.87-.587 3.294-.587 11.673v10.574l1.082.843c1.022.797 1.598.844 10.27.844h9.188v17.096h-46.01c-45.464 0-46.022-.009-46.833-.814zm53.988-16.529c.528-.2.65-.958.65-4.056 0-3.35-.096-3.86-.795-4.23-.511-.272-6.957-.422-18.103-.422-11.145 0-17.59.15-18.103.422-.693.367-.794.878-.794 3.989 0 2.232.184 3.75.493 4.056.368.364 4.986.488 18.247.488 9.765 0 18.047-.111 18.404-.247zm.444-24.379v-6.07H37.868l-.12 5.63c-.042 1.999-.024 3.877.092 4.177.173.447 3.574.526 18.812.44l18.6-.106zm61.827 33.174v-8.548h9.166c8.657 0 9.216-.046 10.065-.83.882-.814.9-1.04.9-11.743V95.74l-1.188-1.587c-.653-.873-2.594-2.957-4.313-4.63l-3.127-3.043V72.823h21.4L172 74.821v29.936c0 29.393-.016 29.951-.822 30.75-.794.787-1.369.814-17.459.814H137.08zM43.502 60.102l.117-4.172 49.503-.21v8.554H43.385zm20.452-17.116c0-2.402.18-3.964.493-4.274.714-.707 62.387-.707 63.101 0 .313.31.493 1.872.493 4.274v3.785H63.955z"/></svg>