<?xml version="1.0" encoding="UTF-8"?>
<svg id="SVGRoot" width="192px" height="192px" version="1.1" viewBox="0 0 192 192" xmlns="http://www.w3.org/2000/svg">
 <path d="m123.81 152.28-1.5211-1.5435v-40.466h-20.541v-11.208l9.0378-8.9271v-25.861h-9.0378v-8.5479h46.832v8.1133l-8.8324 0.23107-0.10822 13.027-0.10822 13.027 4.5245 4.469 4.5245 4.4691v11.208h-20.541v40.951l-2.7092 2.6017zm-102.99-16.773c-0.80673-0.79933-0.82162-1.3568-0.82162-30.75v-29.936l2.0167-1.9982h79.735v14.06l-3.7267 3.6549c-2.0497 2.0102-3.9908 4.1495-4.3135 4.754-0.46499 0.87099-0.5868 3.2941-0.5868 11.673v10.574l1.0824 0.84362c1.0218 0.79637 1.5972 0.84363 10.27 0.84363h9.1878v17.096h-46.011c-45.463 0-46.021-9e-3 -46.832-0.81408zm53.988-16.529c0.52848-0.20094 0.64981-0.95824 0.64981-4.0561 0-3.3493-0.09596-3.8599-0.79461-4.2304-0.51168-0.27133-6.9574-0.42136-18.103-0.42136-11.145 0-17.591 0.15-18.103 0.42136-0.69283 0.36739-0.79461 0.87838-0.79461 3.989 0 2.2321 0.18454 3.7505 0.49297 4.0561 0.36821 0.36483 4.9862 0.48845 18.247 0.48845 9.765 0 18.047-0.11123 18.404-0.24707zm0.44441-24.379v-6.0704h-37.384l-0.11973 5.6312c-0.04248 1.9978-0.02469 3.8765 0.09142 4.1763 0.17296 0.4466 3.5741 0.52602 18.812 0.43925l18.6-0.10584zm61.827 33.174v-8.5479h9.1658c8.6563 0 9.2158-0.0462 10.065-0.82994 0.88172-0.8139 0.89908-1.0407 0.89908-11.743v-10.913l-1.1871-1.5875c-0.65291-0.8731-2.594-2.9566-4.3135-4.6301l-3.1264-3.0426v-13.656h21.4l2.0167 1.9982v29.936c0 29.393-0.0155 29.951-0.8216 30.75-0.79459 0.78728-1.3694 0.81408-17.459 0.81408h-16.638zm-93.577-67.671 0.11707-4.1722 49.503-0.20984v8.5542h-49.737zm20.452-17.116c0-2.4015 0.18022-3.9641 0.49297-4.2739 0.71362-0.70707 62.387-0.70707 63.101 0 0.31273 0.30987 0.49297 1.8724 0.49297 4.2739v3.7855h-64.086z" fill="none" stroke="#000" stroke-linecap="round" stroke-linejoin="round" stroke-width="8"/>
</svg>
