<?xml version="1.0" encoding="UTF-8"?>
<svg width="192" height="192" version="1.1" viewBox="0 0 192 192" xmlns="http://www.w3.org/2000/svg">
 <path d="m110.38 65.242c-4.2332 2.1085-5.0956 3.2799-15.835 21.944-4.8604 8.5122-9.0935 15.229-9.4072 15.072-0.39197-0.23427-2.2734-3.2018-4.3116-6.638-4.3116-7.2626-6.9769-9.8398-11.289-10.543-3.9197-0.62474-9.329 1.5619-11.603 4.7637-0.86232 1.2495-6.2715 10.543-12.073 20.617-9.642 16.79-10.504 18.586-10.504 22.256 0 4.6856 2.1166 8.1217 6.193 10.074 2.4301 1.1714 8.4664 1.3276 56.756 1.4838l54.091 0.15618 2.9789-2.4208c5.1739-4.1389 6.193-6.0913 6.193-11.87 0-5.1541-0.15679-5.4666-6.3498-16.166-3.5276-6.0132-10.504-17.962-15.444-26.474-4.9387-8.5903-9.9558-16.79-11.132-18.274-4.3116-5.3885-12.073-7.0284-18.266-3.9828zm11.132 12.963c7.0553 11.089 28.927 49.98 28.927 51.541 0 1.0152-0.47036 2.3428-0.94072 2.8114-0.70555 0.70285-9.329 1.0152-31.279 1.1714-32.063 0.15618-34.023 0-34.493-3.3581-0.0784-0.85902 5.4875-11.323 12.7-23.818 18.971-32.721 18.03-31.237 20.774-31.237 1.8814 0 2.8222 0.62474 4.3116 2.8895zm-51.426 19.758c1.6463 1.7962 8.78 14.369 8.78 15.463 0 0.46856-1.4894 3.5142-3.2141 6.7941-2.3518 4.217-3.2925 7.0284-3.4493 9.6055l-0.15678 3.6704-11.523 0.23428c-11.916 0.23428-13.797-0.15619-13.797-2.8895 0-1.4838 16.384-30.066 18.657-32.721 1.9598-2.1085 2.8222-2.1866 4.7035-0.15619z" fill="none" stroke="#000" stroke-linecap="round" stroke-linejoin="round" stroke-width="8"/>
 <path d="m151.32 74.628c-1.9598 1.8742-2.5086 5.076-1.4895 7.8093 0.94072 2.3428 4.7035 3.5142 11.289 3.5142 6.0363 0 6.5066-0.15619 8.7016-2.2647 2.5086-2.5771 2.8222-4.5294 1.0975-7.8093-1.4895-2.9675-2.3518-3.2018-10.662-3.2018-6.4282 0-7.2121 0.15619-8.9368 1.9523z" fill="none" stroke="#000" stroke-linecap="round" stroke-linejoin="round" stroke-width="8"/>
 <path d="m21.96 82.735c-1.0975 1.0152-1.9598 2.8114-1.9598 3.9047s0.86232 2.8895 1.9598 3.9047c1.7246 1.7962 2.5086 1.9523 9.0152 1.9523s7.2905-0.15619 9.0152-1.9523c2.6653-2.5771 2.587-6.0132-0.0784-8.1217-1.803-1.4056-3.2141-1.64-9.0935-1.64-6.3498 0-7.1338 0.15619-8.8584 1.9523z" fill="none" stroke="#000" stroke-linecap="round" stroke-linejoin="round" stroke-width="8"/>
 <ellipse class="a" cx="60.778" cy="61.516" rx="13.505" ry="13.945" fill="none" stroke="#000" stroke-linecap="round" stroke-linejoin="round" stroke-width="8"/>
</svg>
