<svg xmlns="http://www.w3.org/2000/svg" width="192" height="192" viewBox="0 0 192 192"><path fill="none" stroke="#000" stroke-linecap="round" stroke-linejoin="round" stroke-width="8" d="M110.38 65.242c-4.233 2.108-5.096 3.28-15.835 21.944-4.86 8.512-9.094 15.229-9.407 15.072-.392-.234-2.274-3.202-4.312-6.638-4.311-7.263-6.977-9.84-11.289-10.543-3.92-.625-9.329 1.562-11.603 4.764-.862 1.25-6.271 10.543-12.073 20.617-9.642 16.79-10.504 18.586-10.504 22.256 0 4.685 2.117 8.121 6.193 10.074 2.43 1.171 8.467 1.327 56.756 1.484l54.091.156 2.98-2.421c5.173-4.139 6.192-6.091 6.192-11.87 0-5.154-.157-5.467-6.35-16.166a7961.003 7961.003 0 0 1-15.444-26.474c-4.938-8.59-9.955-16.79-11.132-18.274-4.311-5.389-12.073-7.029-18.266-3.983zm11.132 12.963c7.055 11.089 28.927 49.98 28.927 51.541 0 1.015-.47 2.343-.94 2.811-.706.703-9.33 1.016-31.28 1.172-32.063.156-34.023 0-34.493-3.358-.078-.86 5.488-11.323 12.7-23.818 18.971-32.721 18.03-31.237 20.774-31.237 1.882 0 2.822.624 4.312 2.89zM70.086 97.963c1.646 1.796 8.78 14.369 8.78 15.463 0 .469-1.49 3.514-3.214 6.794-2.352 4.217-3.293 7.028-3.45 9.606l-.156 3.67-11.523.234c-11.916.235-13.797-.156-13.797-2.89 0-1.483 16.384-30.065 18.657-32.72 1.96-2.109 2.822-2.187 4.703-.156zM151.32 74.628c-1.96 1.874-2.509 5.076-1.49 7.81.941 2.342 4.704 3.513 11.29 3.513 6.036 0 6.506-.156 8.701-2.264 2.509-2.577 2.822-4.53 1.098-7.81-1.49-2.967-2.352-3.201-10.662-3.201-6.429 0-7.213.156-8.937 1.952zM21.96 82.735C20.863 83.75 20 85.546 20 86.64s.863 2.89 1.96 3.904c1.725 1.797 2.509 1.953 9.015 1.953s7.29-.156 9.015-1.953c2.666-2.577 2.587-6.013-.078-8.121-1.803-1.406-3.214-1.64-9.094-1.64-6.35 0-7.133.156-8.858 1.952z"/><ellipse cx="60.778" cy="61.516" fill="none" stroke="#000" stroke-linecap="round" stroke-linejoin="round" stroke-width="8" class="a" rx="13.505" ry="13.945"/></svg>