<svg xmlns="http://www.w3.org/2000/svg" width="192" height="192" viewBox="0 0 192 192"><g fill="none" stroke="#000" stroke-linecap="round" stroke-linejoin="round" stroke-width="8"><path d="M148 31.907H28.52a7.586 7.573 0 0 0-7.586 7.573v124.95a7.586 7.573 0 0 0 7.586 7.572h125.17a7.586 7.573 0 0 0 7.586-7.572V42.13" class="a"/><path d="M136.62 41.372c9.482-2.499 11.379-10.867 18.964-18.932 7.586-8.065 20.709 5.717 13.275 13.252-7.434 7.535-16.499 9.655-18.585 18.553m-7.586 7.573-47.79 48.086a10.241 10.223 0 0 1-9.861 1.514s-4.741 5.225-7.586 1.893c-2.845-3.332 1.896-6.815 1.896-6.815a10.544 10.526 0 0 1 1.897-9.844l47.79-47.708m-3.793 30.29H98.69m48.549-13.63 7.206-7.195-22.378-20.825-7.206 7.194z" class="a"/><path d="m95.282 109.53 8.117 8.406a2.655 2.65 0 0 0 3.793 0l5.234-5.226a2.73 2.726 0 0 1 3.793 0l29.622 29.572a2.655 2.65 0 0 1-1.897 4.543H38.384a2.655 2.65 0 0 1-2.2-4.165l35.958-51.57a2.655 2.65 0 0 1 3.792-.492l5.614 5.68" class="a"/></g></svg>