<?xml version="1.0" encoding="UTF-8"?>
<svg id="SVGRoot" width="192px" height="192px" version="1.1" viewBox="0 0 192 192" xmlns="http://www.w3.org/2000/svg">
 <g fill="none" stroke="#000" stroke-linecap="round" stroke-linejoin="round" stroke-width="8">
  <path class="a" d="m148 31.907h-119.48a7.5858 7.5726 0 0 0-7.5858 7.5726v124.95a7.5858 7.5726 0 0 0 7.5858 7.5726h125.17a7.5858 7.5726 0 0 0 7.5858-7.5726v-122.3"/>
  <path class="a" d="m136.62 41.372c9.4822-2.499 11.379-10.867 18.964-18.932 7.5858-8.0648 20.709 5.7173 13.275 13.252-7.4341 7.5348-16.499 9.6551-18.585 18.553m-7.5858 7.5726-47.79 48.086a10.241 10.223 0 0 1-9.8615 1.5145s-4.7411 5.2251-7.5858 1.8932c-2.8447-3.332 1.8964-6.8154 1.8964-6.8154a10.544 10.526 0 0 1 1.8964-9.8444l47.79-47.707m-3.7929 30.29h-26.55m48.549-13.631 7.2065-7.194-22.378-20.825-7.2065 7.194z"/>
  <path class="a" d="m95.282 109.53 8.1168 8.4056a2.655 2.6504 0 0 0 3.7929 0l5.2342-5.2251a2.7309 2.7261 0 0 1 3.7929 0l29.622 29.571a2.655 2.6504 0 0 1-1.8964 4.5436h-105.56a2.655 2.6504 0 0 1-2.1999-4.1649l35.957-51.57a2.655 2.6504 0 0 1 3.7929-0.49222l5.6135 5.6795"/>
 </g>
</svg>
