<svg xmlns="http://www.w3.org/2000/svg" width="192" height="192" viewBox="0 0 192 192"><path fill="none" stroke="#000" stroke-linecap="round" stroke-linejoin="round" stroke-width="8" d="M30.905 129.81c-.124-54.608-.178-51.575 1.016-57.448 4.026-19.8 16.877-36.564 35.014-45.676 4.165-2.093 10.996-4.418 16.254-5.533 4.958-1.051 15.138-1.445 20.472-.792 30.347 3.715 53.703 27.339 57.165 57.82.621 5.467.248 14.492-.805 19.447-1.944 9.156-5.926 18.373-11.073 25.633-3.332 4.7-10.435 11.802-15.112 15.11-7.73 5.466-17.108 9.416-26.482 11.152-6.021 1.116-16.124 1.192-22.047.166-4.535-.785-11.389-2.76-14.732-4.244l-2.214-.983.02-26.109c.02-25.535.036-26.062.702-23.979 2.68 8.374 9.606 15.287 18.087 18.053 18.175 5.927 37.05-7.679 37.034-26.698-.009-11.141-6.143-20.78-16.366-25.713-8.984-4.336-20.36-3.263-28.4 2.678-2.643 1.954-6.28 5.931-7.927 8.671-1.705 2.834-3.067 6.86-3.602 10.646l-.438 3.098-36.663.208 37.135.185.113 2.986c.062 1.642.067 21.058.013 43.146l-.1 40.16-36.967.207zm.77-22.636c.199-39.647-.198-2.148-.102 21.48.255 63.462.046 33.294.102 21.48.057-11.814-.059-31.146 0-42.961zm35.818 44.334c-.063-3.775-.115-.795-.115 6.622s.052 10.506.115 6.863c.063-3.641.063-9.71 0-13.485zm-.009-64.555c-.086-.693-.157-.219-.16 1.053-.002 1.271-.953 180.58.156 1.259.004-.586.09-1.62.004-2.312z"/></svg>