<?xml version="1.0" encoding="UTF-8"?>
<svg id="SVGRoot" width="192px" height="192px" version="1.1" viewBox="0 0 192 192" xmlns="http://www.w3.org/2000/svg">
 <path d="m30.905 129.81c-0.1245-54.608-0.17814-51.575 1.0161-57.448 4.0261-19.8 16.877-36.564 35.014-45.676 4.165-2.0926 10.996-4.4177 16.254-5.5327 4.958-1.0514 15.138-1.4453 20.472-0.79227 30.347 3.7151 53.703 27.339 57.165 57.82 0.62096 5.4672 0.2474 14.492-0.80499 19.447-1.9446 9.1563-5.9258 18.373-11.073 25.633-3.3324 4.7006-10.435 11.802-15.112 15.11-7.7296 5.4662-17.108 9.4158-26.482 11.152-6.0211 1.1155-16.124 1.1915-22.047 0.16598-4.5353-0.78534-11.389-2.7596-14.732-4.2438l-2.2146-0.98317 0.02072-26.109c0.02026-25.535 0.03567-26.062 0.7022-23.979 2.6792 8.374 9.6051 15.287 18.087 18.053 18.175 5.9273 37.049-7.6788 37.034-26.698-9e-3 -11.141-6.1438-20.78-16.366-25.713-8.9847-4.3359-20.361-3.2631-28.4 2.6783-2.6432 1.9534-6.2797 5.9309-7.9276 8.671-1.7044 2.8341-3.0664 6.8601-3.6016 10.646l-0.43789 3.0976-36.663 0.2077 37.135 0.185 0.11249 2.986c0.06186 1.6423 0.06757 21.058 0.01267 43.146l-0.09981 40.16-36.967 0.20723zm0.77033-22.636c0.1987-39.647-0.19785-2.1478-0.10282 21.48 0.25525 63.462 0.04627 33.294 0.10282 21.48 0.05655-11.814-0.05921-31.146 0-42.961zm35.818 44.334c-0.06312-3.7751-0.11486-0.79545-0.11499 6.6215-1.3e-4 7.417 0.05151 10.506 0.11475 6.8639 0.06324-3.6418 0.06335-9.7102 2.39e-4 -13.485zm-0.0092-64.555c-0.08571-0.69251-0.15762-0.21882-0.15978 1.0527-0.0023 1.2715-0.95302 180.58 0.15585 1.2591 0.0036-0.58559 0.08965-1.6193 0.0039-2.3118z" fill="none" stroke="#000" stroke-linecap="round" stroke-linejoin="round" stroke-width="8"/>
</svg>
