<?xml version="1.0" encoding="UTF-8"?>
<svg id="vector" version="1.1" viewBox="0 0 192 192" xmlns="http://www.w3.org/2000/svg">
 <g>
  <path id="Shape" d="m157.42 29.536c-10.263 0-18.582 8.3196-18.582 18.582s8.3196 18.582 18.582 18.582c10.263 0 18.582-8.3196 18.582-18.582s-8.3196-18.582-18.582-18.582zm0 27.117c-4.7134 0-8.5344-3.821-8.5344-8.5344s3.821-8.5344 8.5344-8.5344c4.7134 0 8.5344 3.821 8.5344 8.5344 0 2.2635-0.89909 4.4343-2.4996 6.0348s-3.7713 2.4996-6.0348 2.4996zm-29.786-16.839v11.507c0 3.529 1.5732 5.1017 5.1017 5.1017h3.5554v9.5742h-5.1742c-4.303 0-7.8446-1.2622-10.242-3.65-2.3969-2.3878-3.6603-5.9061-3.6603-10.181v-12.352h-6.4114v-9.5742h6.4114v-5.1736l10.419-4.2095v9.3831h8.6571v9.5742zm-20.911-9.5685v19.562c0.0202 6.0488-3.1951 11.647-8.4302 14.677-5.2351 3.0303-11.691 3.0303-16.926 0-5.2351-3.0303-8.4504-8.6284-8.4302-14.677v-14.993l10.349-4.1811v19.474c0 3.6145 2.9301 6.5446 6.5446 6.5446 3.6145 0 6.5446-2.9301 6.5446-6.5446v-15.682zm-38.267-9.3881v45.139h-10.419v-40.93zm-31.799 8.6822c-4.3533 0-8.0453 1.4713-10.792 4.2774l-1.4393-3.481-8.4243 3.4035v41.64h10.417v-12.297c2.7099 2.4452 6.2188 3.6157 10.238 3.6157 4.7094 0.0223 9.2066-1.9575 12.37-5.446 3.1647-3.4552 4.9075-8.1073 4.9075-13.099 0-10.438-7.5892-18.615-17.278-18.615zm-1.5932 27.113c-4.7881 0-8.6704-3.8209-8.6704-8.5344 0-4.7135 3.8823-8.5342 8.6704-8.5342s8.6706 3.8209 8.6706 8.5342-3.8816 8.5344-8.6706 8.5344z"/>
  <path id="Path" d="m81.031 126.65c0-34.96 3.2864-43.764 3.2864-43.764l-10.383 0.21102c-24.573 0.50243-44.493 18.98-44.493 43.553s19.92 43.051 44.493 43.552l10.383 0.21148s-3.2864-8.804-3.2864-43.764" fill-opacity=".14695"/>
  <path d="m81.029 126.65c0-27.983 15.163-44.007 15.163-44.007l-11.878 0.243c-24.571 0.50151-44.488 19.19-44.488 43.764s19.919 43.262 44.491 43.764l11.878 0.24254s-15.163-16.023-15.163-44.006" fill-opacity=".24731"/>
  <path d="m81.031 126.65c0-31.592 27.04-44.249 27.04-44.249l-11.876 0.24208c-24.573 0.50198-44.494 19.433-44.494 44.007s19.92 43.505 44.493 44.006l11.876 0.24665s-27.04-12.661-27.04-44.253" fill-opacity=".34946"/>
  <path d="m81.031 126.65c0-20.585 13.398-41.967 37.239-44.459l-10.197 0.21056c-24.573 0.50244-44.493 19.676-44.493 44.249s19.92 43.747 44.493 44.253l10.231 0.20783c-23.831-2.4802-37.274-23.876-37.274-44.461" fill-opacity=".45161"/>
  <path d="m119.95 82.156c-24.573 0-44.493 19.92-44.493 44.493s19.92 44.493 44.493 44.493c24.573 0 44.493-19.92 44.493-44.493s-19.92-44.493-44.493-44.493zm17.57 66.225h-8.2928l-11.876-28.721h-11.909v14.819c0 3.1914 1.5397 5.1723 5.1682 5.1723h5.2668v8.73h-6.4727c-8.7816 0-13.484-4.9681-13.484-13.27v-15.45h-6.5682v-8.3509h6.5682v-5.9346l9.5234-3.8477v9.7823h18.746l9.1849 23.991 9.2722-24.219h10.296z"/>
 </g>
</svg>
