<?xml version="1.0" encoding="UTF-8"?>
<svg width="192" height="192" version="1.1" viewBox="0 0 192 192" xmlns="http://www.w3.org/2000/svg" xmlns:xlink="http://www.w3.org/1999/xlink">
 <g id="Artboard" transform="matrix(.19076 0 0 .19076 16 42.061)" fill="none" fill-rule="evenodd">
  <g id="PlutoTV_Logo_Hero_RGB_Color" fill="#000" fill-rule="nonzero">
   <path id="Shape" d="m741.34 79.221c-53.799 0-97.412 43.613-97.412 97.412s43.613 97.412 97.412 97.412 97.412-43.613 97.412-97.412-43.613-97.412-97.412-97.412zm0 142.15c-24.709 0-44.739-20.03-44.739-44.739s20.03-44.739 44.739-44.739 44.739 20.03 44.739 44.739c0 11.866-4.7132 23.245-13.103 31.636-8.3902 8.3902-19.77 13.103-31.636 13.103zm-156.15-88.272v60.322c0 18.5 8.247 26.744 26.744 26.744h18.638v50.19h-27.124c-22.557 0-41.123-6.617-53.688-19.134s-19.188-30.961-19.188-53.373v-64.749h-33.61v-50.19h33.61v-27.121l54.618-22.067v49.188h45.382v50.19zm-109.62-50.16v102.55c0.10606 31.709-16.749 61.055-44.193 76.941-27.443 15.885-61.286 15.885-88.729 0-27.443-15.885-44.299-45.231-44.193-76.941v-78.595l54.25-21.918v102.09c0 18.948 15.36 34.308 34.308 34.308s34.308-15.36 34.308-34.308v-82.206zm-200.6-49.214v236.63h-54.62v-214.56zm-166.7 45.514c-22.821 0-42.175 7.713-56.572 22.423l-7.545-18.248-44.162 17.842v218.29h54.609v-64.463c14.206 12.818 32.6 18.954 53.67 18.954 24.688 0.11712 48.263-10.262 64.848-28.549 16.59-18.113 25.726-42.5 25.726-68.665 0-54.719-39.784-97.581-90.574-97.581zm-8.352 142.13c-25.1 0-45.452-20.03-45.452-44.739s20.352-44.738 45.452-44.738 45.453 20.03 45.453 44.738-20.348 44.739-45.453 44.739z"/>
   <path id="Path" d="m384.54 434.38c0-76.54 7.195-95.814 7.195-95.814l-22.732 0.462c-53.8 1.1-97.412 41.553-97.412 95.352s43.613 94.253 97.412 95.351l22.732 0.463s-7.195-19.275-7.195-95.814" fill-opacity=".20072"/>
   <path d="m384.54 434.38c0-61.265 33.2-96.346 33.2-96.346l-26.006 0.532c-53.798 1.098-97.407 42.014-97.407 95.814s43.613 94.717 97.412 95.814l26.006 0.531s-33.2-35.08-33.2-96.345" fill-opacity=".29928"/>
   <path d="m384.54 434.38c0-69.166 59.2-96.876 59.2-96.876l-26 0.53c-53.799 1.099-97.413 42.546-97.413 96.346s43.612 95.247 97.412 96.345l26.001 0.54s-59.201-27.72-59.201-96.885" fill-opacity=".40143"/>
   <path d="m384.54 434.38c0-45.068 29.332-91.88 81.53-97.337l-22.324 0.461c-53.8 1.1-97.412 43.077-97.412 96.876s43.612 95.778 97.412 96.885l22.4 0.455c-52.175-5.43-81.606-52.272-81.606-97.34" fill-opacity=".44803"/>
   <path d="m469.74 336.97c-53.799 0-97.412 43.613-97.412 97.412s43.613 97.412 97.412 97.412 97.412-43.613 97.412-97.412-43.613-97.412-97.412-97.412zm38.467 144.99h-18.156l-26-62.881h-26.072v32.444c0 6.987 3.371 11.324 11.315 11.324h11.531v19.113h-14.171c-19.226 0-29.521-10.877-29.521-29.053v-33.826h-14.38v-18.283h14.38v-12.993l20.85-8.424v21.417h41.042l20.109 52.524 20.3-53.024h22.542z"/>
  </g>
 </g>
</svg>
