<svg xmlns="http://www.w3.org/2000/svg" width="192" height="192" viewBox="0 0 192 192"><path fill="none" stroke="#000" stroke-linecap="round" stroke-linejoin="round" stroke-width="8" d="m47.596 144.4 27.596-27.601.216 6.148.215 6.148h17.25l.116-8.733.117-8.732 6.136-.008c6.89-.008 10.789-.658 14.222-2.37 6.826-3.405 10.229-10.81 9.702-21.122-.26-5.093-1.698-9.773-3.812-12.403l-1.374-1.71L172 19.998v152H20zm28.243-52.067V68.509l14.769.015c10.725.012 15.513.175 17.484.598 3.094.663 7.737 2.815 8.937 4.141.805.89.707.996-20.191 21.894l-21 21z"/></svg>