<?xml version="1.0" encoding="UTF-8"?>
<svg id="SVGRoot" width="192px" height="192px" version="1.1" viewBox="0 0 192 192" xmlns="http://www.w3.org/2000/svg">
 <path d="m47.596 144.4 27.596-27.601 0.21559 6.1478 0.21563 6.1477h17.249l0.11674-8.7321 0.11674-8.7321 6.1359-8e-3c6.8911-8e-3 10.789-0.65803 14.222-2.3702 6.8263-3.4048 10.229-10.811 9.7024-21.122-0.25993-5.0934-1.6981-9.773-3.8118-12.403l-1.3739-1.7092 54.02-54.02v152h-152zm28.243-52.067v-23.824l14.769 0.01516c10.725 0.01137 15.513 0.17473 17.484 0.59761 3.0939 0.66367 7.737 2.8151 8.937 4.1412 0.80535 0.88991 0.70735 0.99619-20.191 21.894l-21 21z" fill="none" stroke="#000" stroke-linecap="round" stroke-linejoin="round" stroke-width="8"/>
</svg>
