<?xml version="1.0" encoding="UTF-8"?>
<svg id="SVGRoot" width="192px" height="192px" version="1.1" viewBox="0 0 192 192" xmlns="http://www.w3.org/2000/svg">
 <g fill="none" stroke="#000" stroke-linecap="round" stroke-linejoin="round" stroke-width="8">
  <line class="a" x1="49.586" x2="49.586" y1="100.56" y2="166.89"/>
  <line class="a" x1="142.41" x2="142.41" y1="100.56" y2="166.89"/>
  <path class="a" d="m36.476 90.349a59.524 58.929 0 0 1 59.524-58.929 59.524 58.929 0 0 1 59.524 58.929v17.655a34.683 34.336 0 0 0-13.109-7.4441 5.1572 5.1056 0 0 0-5.1572-5.1056h-10.314a5.1178 5.0667 0 0 0-5.1572 5.1056v66.256a5.1178 5.0667 0 0 0 5.1572 5.1056h10.314a5.1572 5.1056 0 0 0 5.1572-5.1056 35.116 34.765 0 0 0 24.683-33.167v-43.3a71.098 70.388 0 0 0-71.098-70.349 71.098 70.388 0 0 0-71.098 70.349v43.378a35.116 34.765 0 0 0 24.683 33.167 5.1572 5.1056 0 0 0 5.1571 5.1056h10.314a5.1178 5.0667 0 0 0 5.1572-5.1056v-66.256a5.1178 5.0667 0 0 0-5.1572-5.1056h-10.314a5.1572 5.1056 0 0 0-5.1571 5.1056 34.683 34.336 0 0 0-13.109 7.4441z"/>
 </g>
</svg>
