<svg xmlns="http://www.w3.org/2000/svg" width="192" height="192" viewBox="0 0 192 192"><g fill="none" stroke="#000" stroke-linecap="round" stroke-linejoin="round" stroke-width="8"><path d="M49.586 100.56v66.33M142.41 100.56v66.33M36.476 90.349A59.524 58.929 0 0 1 96 31.42a59.524 58.929 0 0 1 59.524 58.929v17.655a34.683 34.336 0 0 0-13.109-7.444 5.157 5.106 0 0 0-5.157-5.106h-10.314a5.118 5.067 0 0 0-5.157 5.106v66.256a5.118 5.067 0 0 0 5.157 5.105h10.314a5.157 5.106 0 0 0 5.157-5.105 35.116 34.765 0 0 0 24.683-33.167v-43.3A71.098 70.388 0 0 0 96 19.999a71.098 70.388 0 0 0-71.098 70.35v43.378a35.116 34.765 0 0 0 24.683 33.167 5.157 5.106 0 0 0 5.157 5.105h10.314a5.118 5.067 0 0 0 5.157-5.105v-66.256a5.118 5.067 0 0 0-5.157-5.106H54.742a5.157 5.106 0 0 0-5.157 5.106 34.683 34.336 0 0 0-13.109 7.444z" class="a"/></g></svg>