<?xml version="1.0" encoding="UTF-8"?>
<svg width="192" height="192" version="1.1" viewBox="0 0 192 192" xmlns="http://www.w3.org/2000/svg">
 <path d="m96 16a80 80 0 0 0-80 80 80 80 0 0 0 80 80 80 80 0 0 0 80-80 80 80 0 0 0-80-80zm-6.3281 51.074h12.656a4.0678 4.0678 0 0 1 4.0678 4.0678v49.717a4.0678 4.0678 0 0 1-4.0678 4.0678h-12.656a4.0678 4.0678 0 0 1-4.0678-4.0678v-49.717a4.0678 4.0678 0 0 1 4.0678-4.0678zm26.216 10.847h12.655a4.0678 4.0678 0 0 1 4.0678 4.0678v38.869a4.0678 4.0678 0 0 1-4.0678 4.0678h-12.655a4.0678 4.0678 0 0 1-4.0678-4.0678v-38.869a4.0678 4.0678 0 0 1 4.0678-4.0678zm-52.43 28.926h12.655a4.0678 4.0678 0 0 1 4.0678 4.0678v9.9431a4.0678 4.0678 0 0 1-4.0678 4.0678h-12.655a4.0678 4.0678 0 0 1-4.0678-4.0678v-9.9431a4.0678 4.0678 0 0 1 4.0678-4.0678z" stroke-width="0"/>
</svg>
