<svg xmlns="http://www.w3.org/2000/svg" xml:space="preserve" width="192" height="192" viewBox="0 0 192 192"><path fill="none" stroke="#000" stroke-linecap="round" stroke-linejoin="round" stroke-width="8" d="M31.325 155.96c-2.112-.696-5.535-2.808-6.827-4.211-1.973-2.146-2.735-3.502-3.674-6.542-.774-2.504-.824-5.499-.824-49.298V49.28l1.089-3.323c1.354-4.132 4.3-7.579 7.849-9.181l2.387-1.079h129.56l2.546 1.193c3.377 1.583 5.842 3.88 7.34 6.839L172 46.153l-.12 50.23-.122 50.232-1.298 2.207c-1.868 3.176-4.318 5.733-6.403 6.682-1.727.786-4.855.823-66.82.79-35.753-.02-65.413-.17-65.912-.334zm47.132-10.661c3.661-1.328 4.954-2.479 5.841-5.2.948-2.906 1.346-33.954.821-64.114-.447-25.728-.274-24.481-3.664-26.385-.962-.54-3.053-1.282-4.648-1.65-3.85-.887-19.718-1.35-27.815-.81-7.342.489-10.132 1.413-12.64 4.186-1.3 1.44-1.596 2.173-1.846 4.587-.164 1.58-.222 20.394-.128 41.808.155 35.447.24 39.137.953 41.198 1.174 3.394 2.981 5.22 6.48 6.549 1.974.75 3.803.839 17.92.877 15.526.043 15.758.03 18.725-1.046zm-38.902-19.132c-.166-.166-.302-15.242-.302-33.502v-33.2l13.251-.001c7.288 0 16.461-.135 20.385-.297l7.135-.296v67.598H59.94c-11.046 0-20.22-.136-20.385-.302zm17.073-10.115a92.193 92.193 0 0 1 2.686-4.75c.766-1.244 2.343-3.995 3.504-6.111a849.645 849.645 0 0 1 5.342-9.523c1.778-3.12 3.289-6.176 3.357-6.79.113-1.008-.052-1.128-1.686-1.225-.997-.06-3.48-.23-5.52-.378l-3.707-.27L62.5 83.49c1.043-1.935 2.979-5.493 4.302-7.909 1.324-2.415 2.341-4.737 2.26-5.16-.124-.648-.821-.787-4.445-.89l-4.299-.123-.898 1.48c-1.156 1.908-2.93 5.218-6.524 12.179-1.59 3.08-3.242 6.11-3.668 6.733-.427.622-1.01 1.824-1.298 2.67-.81 2.39-.239 2.712 5.07 2.86l4.6.129-.144 1.584c-.145 1.597-.43 3.029-2.547 12.836-1.41 6.53-1.514 9.029-.366 8.81.436-.083 1.374-1.269 2.086-2.636zm95.589 23.061c1.08-.849 1.194-1.231 1.194-4.004 0-5.168 1.911-4.791-24.323-4.791h-22.416l-.866 1.068c-1.25 1.542-1.208 5.846.072 7.472l.94 1.193h22.102c21.676 0 22.127-.018 23.297-.938zm0-26.061c.92-.92 1.194-1.64 1.194-3.144 0-2.842-1.408-4.307-4.569-4.755-1.35-.192-11.344-.363-22.21-.382-19.245-.032-19.79-.009-20.937.893-2.225 1.75-2.465 5.32-.5 7.438l1.06 1.144h44.768l1.194-1.194zm-15.597-23.89 14.142-.27 1.324-1.322c1.068-1.068 1.324-1.715 1.324-3.346 0-1.315-.302-2.395-.865-3.09l-.865-1.07-21.191-.373c-11.655-.205-21.865-.247-22.69-.093-.823.155-2.031.74-2.684 1.3-1 .86-1.186 1.395-1.186 3.396 0 2.48.751 3.83 2.596 4.662.513.23 7.19.306 15.402.173 7.973-.129 22.549.033 26.493.033zm15.153-25.68c.618-.281 1.367-1.1 1.665-1.818.777-1.875.287-5.376-.885-6.324-1.395-1.129-7.488-1.396-27.99-1.227-17.116.142-17.793.18-19.002 1.083-1.549 1.157-2.1 3.057-1.515 5.228.705 2.614 1.308 2.863 7.641 3.143 11.446.508 38.912.45 40.085-.085z"/></svg>