<?xml version="1.0" encoding="UTF-8"?>
<svg id="SVGRoot" width="192px" height="192px" version="1.1" viewBox="0 0 192 192" xml:space="preserve" xmlns="http://www.w3.org/2000/svg"><path d="m31.325 155.96c-2.1124-0.6959-5.5355-2.8075-6.8268-4.2113-1.9736-2.1455-2.7353-3.5015-3.6745-6.5416-0.7737-2.5046-0.82374-5.4988-0.82384-49.298l-1.08e-4 -46.631 1.0888-3.3218c1.3545-4.1325 4.3009-7.5792 7.849-9.1817l2.3874-1.0783h129.56l2.5459 1.193c3.3776 1.5828 5.8423 3.8788 7.3407 6.8386l1.2276 2.4248-0.12101 50.231-0.12102 50.231-1.298 2.2069c-1.8683 3.1766-4.3181 5.7331-6.4032 6.6822-1.7272 0.78613-4.8552 0.8231-66.819 0.78956-35.754-0.0194-65.414-0.1695-65.913-0.33365zm47.132-10.661c3.6614-1.3282 4.9537-2.4787 5.8414-5.2001 0.94779-2.9059 1.3452-33.954 0.82069-64.114-0.44748-25.728-0.27428-24.481-3.6642-26.385-0.96141-0.54001-3.0527-1.2824-4.6474-1.6498-3.8511-0.88722-19.718-1.3495-27.815-0.81047-7.3426 0.48887-10.132 1.4129-12.64 4.1866-1.301 1.4392-1.5962 2.1723-1.8468 4.5863-0.164 1.5803-0.22154 20.394-0.12787 41.808 0.15505 35.447 0.24044 39.137 0.95333 41.198 1.1742 3.3944 2.9813 5.2211 6.479 6.549 1.9744 0.7496 3.8042 0.83925 17.92 0.87794 15.527 0.0425 15.759 0.0297 18.726-1.0468zm-38.902-19.132c-0.1661-0.16599-0.30201-15.242-0.30201-33.502v-33.2l13.251-9.52e-4c7.2878-9.04e-4 16.461-0.13459 20.385-0.29724l7.1349-0.29574v67.598h-20.083c-11.046 0-20.219-0.13582-20.385-0.30183zm17.073-10.115c0.71138-1.3671 1.9202-3.5043 2.6862-4.7493 0.76606-1.245 2.3426-3.9953 3.5034-6.1118 1.1608-2.1165 3.565-6.4016 5.3426-9.5225 1.7776-3.1209 3.2884-6.1768 3.3573-6.7909 0.11298-1.007-0.05267-1.1272-1.6868-1.2248-0.99662-0.05948-3.4803-0.22948-5.5192-0.37768l-3.7072-0.26945 1.8951-3.5168c1.0423-1.9343 2.9782-5.493 4.3021-7.9083 1.3238-2.4153 2.3407-4.7374 2.2598-5.1601-0.12405-0.64795-0.82171-0.78776-4.4455-0.89092l-4.2983-0.12236-0.89802 1.4805c-1.1569 1.9073-2.9303 5.2173-6.5245 12.178-1.5908 3.0807-3.2415 6.1106-3.668 6.7331-0.42658 0.6225-1.0105 1.8241-1.2977 2.6702-0.81088 2.3893-0.23884 2.712 5.0696 2.8603l4.6006 0.12856-0.14428 1.5845c-0.14535 1.5963-0.42956 3.0285-2.5475 12.836-1.4102 6.5306-1.514 9.0284-0.36605 8.8101 0.43602-0.0829 1.3748-1.2693 2.0862-2.6364zm95.589 23.061c1.0796-0.84865 1.1936-1.2313 1.1936-4.0044 0-5.1675 1.9117-4.791-24.323-4.791h-22.416l-0.86609 1.0688c-1.2491 1.5414-1.2072 5.8458 0.0729 7.472l0.9389 1.1929h22.103c21.676 0 22.127-0.0182 23.297-0.93832zm-9e-4 -26.061c0.92097-0.92018 1.1945-1.6403 1.1945-3.1438 0-2.8418-1.4076-4.3071-4.5683-4.7556-1.3494-0.19148-11.344-0.363-22.211-0.38118-19.244-0.0322-19.789-9e-3 -20.936 0.893-2.225 1.7491-2.4654 5.3193-0.50074 7.4379l1.0603 1.1434h44.768l1.1943-1.1936zm-15.596-23.89 14.142-0.26906 1.3242-1.3234c1.0682-1.0676 1.3242-1.7142 1.3242-3.3453 0-1.3157-0.30234-2.3953-0.86554-3.0907l-0.8653-1.0686-21.191-0.37381c-11.655-0.2056-21.865-0.24745-22.689-0.09299-0.82378 0.15444-2.0318 0.73982-2.6844 1.3008-0.99961 0.8593-1.1866 1.3943-1.1866 3.3951 0 2.4806 0.75173 3.8304 2.5961 4.6615 0.5133 0.23131 7.1893 0.30659 15.402 0.17369 7.973-0.12902 22.549 0.03322 26.493 0.0328zm15.153-25.68c0.61777-0.2813 1.367-1.0996 1.6649-1.8184 0.77696-1.8746 0.28727-5.3751-0.88459-6.3234-1.3951-1.129-7.4884-1.3961-27.99-1.2268-17.116 0.14127-17.793 0.17984-19.002 1.0826-1.5493 1.1567-2.1 3.0572-1.515 5.2284 0.70436 2.6141 1.3077 2.8623 7.6409 3.143 11.446 0.50728 38.912 0.4488 40.085-0.08537z" fill="none" stroke="#000" stroke-linecap="round" stroke-linejoin="round" stroke-width="8"/></svg>
