<svg xmlns="http://www.w3.org/2000/svg" width="192" height="192" viewBox="0 0 192 192"><path fill="none" stroke="#000" stroke-linecap="round" stroke-linejoin="round" stroke-width="8" d="M54.518 32.155a2.47 2.467 0 0 0-1.77 3.042l8.766 32.887a2.428 2.425 0 0 0 1.152 1.48L91.473 86.46a2.47 2.467 0 0 0 3.375-.863l16.46-29.023a2.51 2.508 0 0 0 .248-1.891L102.872 22a2.51 2.508 0 0 0-2.84-1.973l-22.88 6.084zM159.83 54.641a2.47 2.467 0 0 0-3.045-1.768l-32.716 8.757a2.428 2.425 0 0 0-1.482 1.15l-16.914 28.778a2.47 2.467 0 0 0 .864 3.37l29.054 16.445a2.51 2.508 0 0 0 1.893.246l32.675-8.756a2.51 2.508 0 0 0 1.77-3.042l-6.05-22.569zM137.32 159.84a2.47 2.467 0 0 0 1.77-3.042l-8.766-32.682a2.428 2.425 0 0 0-1.152-1.48l-28.807-16.896a2.47 2.467 0 0 0-3.375.863l-16.46 29.023a2.51 2.508 0 0 0-.248 1.891l8.766 32.641a2.51 2.508 0 0 0 3.045 1.768l22.593-6.043zM32.008 137.35a2.47 2.467 0 0 0 3.045 1.768l32.922-8.757a2.428 2.425 0 0 0 1.482-1.15l16.914-28.778a2.47 2.467 0 0 0-.864-3.37L56.453 80.617a2.51 2.508 0 0 0-1.893-.246l-32.716 8.674a2.51 2.508 0 0 0-1.77 3.042l5.885 22.65z" class="cls-1"/></svg>