<?xml version="1.0" encoding="UTF-8"?>
<svg id="SVGRoot" width="192px" height="192px" version="1.1" viewBox="0 0 192 192" xmlns="http://www.w3.org/2000/svg">
 <g fill="none" stroke="#000" stroke-linecap="round" stroke-linejoin="round" stroke-width="8">
  <path class="cls-1" d="m54.518 32.155a2.4691 2.4666 0 0 0-1.7696 3.0421l8.7655 32.887a2.428 2.4254 0 0 0 1.1523 1.4799l28.807 16.896a2.4691 2.4666 0 0 0 3.3745-0.8633l16.461-29.023a2.5103 2.5077 0 0 0 0.24691-1.891l-8.6832-32.682a2.5103 2.5077 0 0 0-2.8395-1.9732l-22.881 6.0842z"/>
  <path class="cls-1" d="m159.83 54.641a2.4691 2.4666 0 0 0-3.0453-1.7677l-32.716 8.7563a2.428 2.4254 0 0 0-1.4815 1.1511l-16.914 28.777a2.4691 2.4666 0 0 0 0.8642 3.371l29.054 16.444a2.5103 2.5077 0 0 0 1.893 0.24666l32.675-8.7563a2.5103 2.5077 0 0 0 1.7696-3.0421l-6.0494-22.569z"/>
  <path class="cls-1" d="m137.32 159.84a2.4691 2.4666 0 0 0 1.7696-3.0421l-8.7654-32.682a2.428 2.4254 0 0 0-1.1523-1.4799l-28.807-16.896a2.4691 2.4666 0 0 0-3.3745 0.86329l-16.461 29.023a2.5103 2.5077 0 0 0-0.24691 1.891l8.7655 32.641a2.5103 2.5077 0 0 0 3.0453 1.7677l22.593-6.0431z"/>
  <path class="cls-1" d="m32.008 137.35a2.4691 2.4666 0 0 0 3.0453 1.7677l32.922-8.7563a2.428 2.4254 0 0 0 1.4815-1.1511l16.914-28.777a2.4691 2.4666 0 0 0-0.8642-3.371l-29.054-16.444a2.5103 2.5077 0 0 0-1.893-0.24665l-32.716 8.6741a2.5103 2.5077 0 0 0-1.7696 3.0421l5.8848 22.651z"/>
 </g>
</svg>
