<?xml version="1.0" encoding="UTF-8"?>
<svg width="192" height="192" version="1.1" viewBox="0 0 192 192" xml:space="preserve" xmlns="http://www.w3.org/2000/svg"><path d="m162.27 40.374h-108.33c-8.9875 0-17.576 5.7537-19.067 12.872l-18.626 85.508c-1.5539 7.1186 4.4938 12.872 13.502 12.872h108.31c8.9875 0 17.576-5.7537 19.067-12.872l18.626-85.508c1.5749-7.1396-4.4938-12.872-13.481-12.872zm-37.378 58.692-47.08 24.065c-3.1288 1.6169-6.7407-1.1969-5.9427-4.6198l10.709-48.13c0.62997-2.8769 3.9268-4.1788 6.3627-2.5619l36.391 24.065c2.6039 1.8059 2.4149 5.7327-0.44099 7.1816z" stroke-width="1.3439"/></svg>
