<svg xmlns="http://www.w3.org/2000/svg" width="192" height="192" viewBox="0 0 192 192"><path fill="none" stroke="#000" stroke-linecap="round" stroke-linejoin="round" stroke-width="8" d="M71.861 170.47c-2.527-1.463-2.733-6.026-2.733-60.501 0-39.201-.535-58.918-1.6-58.918-.88 0-6.485 2.445-12.454 5.434-14.86 7.44-21.862 6.92-21.862-1.623 0-4.768 3.26-7.131 23.304-16.895 17.558-8.553 22.453-9.504 25.472-4.948.63.952 1.158 17.226 1.17 36.164.019 28.96.408 34.814 2.437 36.83 6.584 6.546 35.02 8.625 44.275 3.237 10.598-6.169 11.817-9.434 12.353-33.08.446-19.65.213-21.759-3.123-28.217-5.463-10.578-12.86-14.118-28.647-13.71-6.902.179-13.402-.2-14.445-.84-1.042-.64-1.895-3.237-1.895-5.769 0-5.88 4.26-7.633 18.557-7.633 15.068 0 25.46 3.499 33.66 11.331 9.619 9.188 12.44 19.277 12.458 44.56.012 16.865-.45 20.422-3.525 27.168-4.562 10.008-9.776 15.32-18.844 19.197-10.878 4.653-21.01 5.41-35.279 2.637-19.76-3.839-17.958-5.927-17.958 20.805 0 21.381-.24 23.361-3.02 24.84-3.691 1.964-4.806 1.955-8.301-.07z"/></svg>