<?xml version="1.0" encoding="UTF-8"?>
<svg id="SVGRoot" width="192px" height="192px" version="1.1" viewBox="0 0 192 192" xmlns="http://www.w3.org/2000/svg">
 <path d="m71.861 170.47c-2.5267-1.4631-2.7328-6.026-2.7328-60.501 0-39.201-0.53532-58.918-1.6006-58.918-0.8803 0-6.4845 2.4452-12.454 5.4338-14.859 7.4395-21.862 6.9198-21.862-1.6224 0-4.7679 3.26-7.1315 23.304-16.895 17.558-8.553 22.453-9.5041 25.472-4.9487 0.63105 0.95228 1.158 17.226 1.1712 36.164 0.0177 28.96 0.40725 34.814 2.4366 36.831 6.5834 6.5451 35.02 8.6239 44.275 3.2365 10.598-6.1691 11.817-9.4344 12.353-33.081 0.4456-19.65 0.21247-21.758-3.1232-28.216-5.4628-10.578-12.86-14.118-28.647-13.71-6.9021 0.17838-13.402-0.1995-14.445-0.84015-1.0426-0.64064-1.8955-3.2367-1.8955-5.7691 0-5.8803 4.2602-7.6325 18.557-7.6325 15.068 0 25.461 3.4984 33.661 11.331 9.6181 9.1879 12.439 19.277 12.457 44.559 0.0125 16.866-0.44914 20.423-3.5246 27.169-4.5622 10.008-9.7757 15.319-18.844 19.197-10.878 4.6522-21.01 5.4096-35.279 2.637-19.76-3.8393-17.958-5.9271-17.958 20.805 0 21.381-0.2408 23.361-3.0205 24.84-3.6906 1.9636-4.8057 1.9543-8.301-0.0699z" fill="none" stroke="#000" stroke-linecap="round" stroke-linejoin="round" stroke-width="8"/>
</svg>
