<?xml version="1.0" encoding="UTF-8"?>
<svg width="192" height="192" version="1.1" viewBox="0 0 192 192" xmlns="http://www.w3.org/2000/svg" xmlns:xlink="http://www.w3.org/1999/xlink">
 <g stroke-width="1.5094">
  <path d="m141.98 55.479v105.43h17.476c9.1392 0 16.544-7.5079 16.544-16.752v-109.33c0-3.1587-3.6287-4.8786-6.0332-2.861z" clip-rule="evenodd" fill-opacity=".50196" fill-rule="evenodd"/>
  <path d="m117.6 75.986-31.928 28.56c-5.4439 4.862-13.569 4.9778-19.144 0.28106l-50.532-42.534v-27.452c0-3.1587 3.6293-4.8951 6.0325-2.8775l63.398 53.284c6.1306 5.1597 15.024 5.1597 21.155 0z" clip-rule="evenodd" fill-opacity=".50196" fill-rule="evenodd"/>
  <path d="m141.98 55.496-24.375 20.49 0.0163-1.38e-4 -31.944 28.56c-5.4439 4.862-13.569 4.9778-19.144 0.28105l-50.532-42.534v81.86c0 9.2444 7.4057 16.752 16.544 16.752h109.43z"/>
 </g>
</svg>
