<svg id="vector" xmlns="http://www.w3.org/2000/svg" width="192" height="192" viewBox="0 0 192 192"><path fill="#000" d="m141.98,55.48v105.43h17.48c9.14,0 16.54,-7.51 16.54,-16.75v-109.33c0,-3.16 -3.63,-4.88 -6.03,-2.86z" fill-opacity="0.50" id="path_0"/><path fill="#000" d="m117.6,75.99 l-31.93,28.56c-5.44,4.86 -13.57,4.98 -19.14,0.28l-50.53,-42.53v-27.45c0,-3.16 3.63,-4.9 6.03,-2.88l63.4,53.28c6.13,5.16 15.02,5.16 21.16,0z" fill-opacity="0.50" id="path_1"/><path fill="#000" d="m141.98,55.5 l-24.38,20.49 0.02,-0 -31.94,28.56c-5.44,4.86 -13.57,4.98 -19.14,0.28l-50.53,-42.53v81.86c0,9.24 7.41,16.75 16.54,16.75h109.43z" id="path_2"/></svg>