<?xml version="1.0" encoding="UTF-8"?>
<svg width="192" height="192" version="1.1" viewBox="0 0 192 192" xml:space="preserve" xmlns="http://www.w3.org/2000/svg"><g stroke-width="0"><path x="15.999997" y="149.65854" width="19.512196" height="9.7560978" d="m17 149.66h17.512a1 1 45 0 1 1 1v7.7561a1 1 135 0 1-1 1h-17.512a1 1 45 0 1-1-1v-7.7561a1 1 135 0 1 1-1z" style="paint-order:stroke fill markers"/><path x="15.999997" y="130.14633" width="19.512196" height="9.7560978" d="m17 130.15h17.512a1 1 45 0 1 1 1v7.7561a1 1 135 0 1-1 1h-17.512a1 1 45 0 1-1-1v-7.7561a1 1 135 0 1 1-1z" style="paint-order:stroke fill markers"/><path x="15.999997" y="91.121948" width="19.512196" height="9.7560978" d="m17 91.122h17.512a1 1 45 0 1 1 1v7.7561a1 1 135 0 1-1 1h-17.512a1 1 45 0 1-1-1v-7.7561a1 1 135 0 1 1-1z" style="paint-order:stroke fill markers"/><path x="15.999997" y="110.63413" width="19.512196" height="9.7560978" d="m17 110.63h17.512a1 1 45 0 1 1 1v7.7561a1 1 135 0 1-1 1h-17.512a1 1 45 0 1-1-1v-7.7561a1 1 135 0 1 1-1z" style="paint-order:stroke fill markers"/><path x="15.999997" y="71.609756" width="19.512196" height="9.7560978" d="m17 71.61h17.512a1 1 45 0 1 1 1v7.7561a1 1 135 0 1-1 1h-17.512a1 1 45 0 1-1-1v-7.7561a1 1 135 0 1 1-1z" style="paint-order:stroke fill markers"/><path x="51.121948" y="149.65854" width="19.512196" height="9.7560978" d="m52.122 149.66h17.512a1 1 45 0 1 1 1v7.7561a1 1 135 0 1-1 1h-17.512a1 1 45 0 1-1-1v-7.7561a1 1 135 0 1 1-1z" style="paint-order:stroke fill markers"/><path x="51.121948" y="130.14633" width="19.512196" height="9.7560978" d="m52.122 130.15h17.512a1 1 45 0 1 1 1v7.7561a1 1 135 0 1-1 1h-17.512a1 1 45 0 1-1-1v-7.7561a1 1 135 0 1 1-1z" style="paint-order:stroke fill markers"/><path x="86.243904" y="149.65854" width="19.512196" height="9.7560978" d="m87.244 149.66h17.512a1 1 45 0 1 1 1v7.7561a1 1 135 0 1-1 1h-17.512a1 1 45 0 1-1-1v-7.7561a1 1 135 0 1 1-1z" style="paint-order:stroke fill markers"/><path x="86.243904" y="130.14633" width="19.512196" height="9.7560978" d="m87.244 130.15h17.512a1 1 45 0 1 1 1v7.7561a1 1 135 0 1-1 1h-17.512a1 1 45 0 1-1-1v-7.7561a1 1 135 0 1 1-1z" style="paint-order:stroke fill markers"/><path x="86.243904" y="110.63413" width="19.512196" height="9.7560978" d="m87.244 110.63h17.512a1 1 45 0 1 1 1v7.7561a1 1 135 0 1-1 1h-17.512a1 1 45 0 1-1-1v-7.7561a1 1 135 0 1 1-1z" style="paint-order:stroke fill markers"/><path x="86.243904" y="91.121948" width="19.512196" height="9.7560978" d="m87.244 91.122h17.512a1 1 45 0 1 1 1v7.7561a1 1 135 0 1-1 1h-17.512a1 1 45 0 1-1-1v-7.7561a1 1 135 0 1 1-1z" style="paint-order:stroke fill markers"/><path x="121.36585" y="149.65854" width="19.512196" height="9.7560978" d="m122.37 149.66h17.512a1 1 45 0 1 1 1v7.7561a1 1 135 0 1-1 1h-17.512a1 1 45 0 1-1-1v-7.7561a1 1 135 0 1 1-1z" style="paint-order:stroke fill markers"/><path x="121.36585" y="130.14633" width="19.512196" height="9.7560978" d="m122.37 130.15h17.512a1 1 45 0 1 1 1v7.7561a1 1 135 0 1-1 1h-17.512a1 1 45 0 1-1-1v-7.7561a1 1 135 0 1 1-1z" style="paint-order:stroke fill markers"/><path x="121.36585" y="110.63413" width="19.512196" height="9.7560978" d="m122.37 110.63h17.512a1 1 45 0 1 1 1v7.7561a1 1 135 0 1-1 1h-17.512a1 1 45 0 1-1-1v-7.7561a1 1 135 0 1 1-1z" style="paint-order:stroke fill markers"/><path x="121.36585" y="91.121948" width="19.512196" height="9.7560978" d="m122.37 91.122h17.512a1 1 45 0 1 1 1v7.7561a1 1 135 0 1-1 1h-17.512a1 1 45 0 1-1-1v-7.7561a1 1 135 0 1 1-1z" style="paint-order:stroke fill markers"/><path x="121.36585" y="71.609756" width="19.512196" height="9.7560978" d="m122.37 71.61h17.512a1 1 45 0 1 1 1v7.7561a1 1 135 0 1-1 1h-17.512a1 1 45 0 1-1-1v-7.7561a1 1 135 0 1 1-1z" style="paint-order:stroke fill markers"/><path x="121.36585" y="52.097561" width="19.512196" height="9.7560978" d="m122.37 52.098h17.512a1 1 45 0 1 1 1v7.7561a1 1 135 0 1-1 1h-17.512a1 1 45 0 1-1-1v-7.7561a1 1 135 0 1 1-1z" style="paint-order:stroke fill markers"/><path x="121.36585" y="32.585369" width="19.512196" height="9.7560978" d="m122.37 32.585h17.512a1 1 45 0 1 1 1v7.7561a1 1 135 0 1-1 1h-17.512a1 1 45 0 1-1-1v-7.7561a1 1 135 0 1 1-1z" style="paint-order:stroke fill markers"/><path x="156.48781" y="149.65854" width="19.512196" height="9.7560978" d="m157.49 149.66h17.512a1 1 45 0 1 1 1v7.7561a1 1 135 0 1-1 1h-17.512a1 1 45 0 1-1-1v-7.7561a1 1 135 0 1 1-1z" style="paint-order:stroke fill markers"/><path x="156.48781" y="130.14633" width="19.512196" height="9.7560978" d="m157.49 130.15h17.512a1 1 45 0 1 1 1v7.7561a1 1 135 0 1-1 1h-17.512a1 1 45 0 1-1-1v-7.7561a1 1 135 0 1 1-1z" style="paint-order:stroke fill markers"/><path x="156.48781" y="110.63413" width="19.512196" height="9.7560978" d="m157.49 110.63h17.512a1 1 45 0 1 1 1v7.7561a1 1 135 0 1-1 1h-17.512a1 1 45 0 1-1-1v-7.7561a1 1 135 0 1 1-1z" style="paint-order:stroke fill markers"/></g></svg>
