<?xml version="1.0" encoding="UTF-8"?>
<svg id="SVGRoot" width="192px" height="192px" version="1.1" viewBox="0 0 192 192" xmlns="http://www.w3.org/2000/svg">
 <path d="m82.361 132.51c-9.6807-1.5003-17.345-8.7315-19.28-18.19-1.056-5.1624-0.4782-9.5575 1.8869-14.352 1.3452-2.7268 4.7167-6.5891 7.3426-8.4113l1.0957-0.76033-1.1891-1.3511c-2.5334-2.8786-4.1553-7.4397-4.1553-11.686 0-4.8944 1.7539-9.1652 5.2598-12.808 7.9968-8.3081 21.522-7.4557 28.342 1.7861 0.90143 1.2216 1.639 2.4138 1.639 2.6493 0 0.38005-9.9848 5.6169-10.178 5.3383-0.04276-0.06152-0.44213-0.63881-0.88754-1.2828-0.44542-0.64403-1.5291-1.5183-2.4082-1.9429-3.654-1.7647-7.8436-0.23883-9.5658 3.4839-0.8552 1.8486-0.86931 3.6676-0.04221 5.4447 0.3517 0.75566 4.6457 5.7304 9.5423 11.055s9.2656 10.119 9.7089 10.653c0.76927 0.9281 0.81739 0.93869 1.0542 0.23233 0.13642-0.40708 0.81734-1.9297 1.513-3.3836 2.2633-4.73 6.7873-8.3153 12.056-9.5542 4.3704-1.0277 4.046-1.4398 4.046 5.1376v5.7074l-1.2323 0.40574c-3.2001 1.0536-6.1708 6.7046-6.1823 11.76l-4e-3 1.9317 14.479 15.751-15.406 0.2252-5.1933-5.481-2.3532 1.9502c-5.4401 4.5084-13.196 6.7281-19.886 5.6912zm8.055-12.071c1.7094-0.53567 5.3423-2.9512 5.8799-3.9094 0.16942-0.30204-2.3848-3.3517-7.1483-8.5346-8.1771-8.8972-7.6245-8.5501-10.514-6.6025-4.3788 2.952-5.7304 9.2596-2.9855 13.932 2.9836 5.079 8.6346 7.036 14.768 5.1141zm-73.916-24.95v-34.821l10.665 0.16048c11.965 0.18004 13.622 0.45828 18.82 3.1613 3.8996 2.0278 8.128 6.3944 10.108 10.438 4.316 8.8156 3.9438 18.075-1.0674 26.551-1.7389 2.9413-5.9687 7.0672-8.7468 8.5321-4.3652 2.3017-6.134 2.7436-11.973 2.9913l-5.3788 0.22818-0.09945 8.7892-0.09944 8.7892h-12.228zm21.409 4.9837c5.9655-2.0202 9.2754-7.4612 8.9347-14.688-0.27129-5.7552-2.6706-9.5513-7.5606-11.962-2.5355-1.2501-3.1035-1.3815-6.6571-1.5391l-3.8851-0.17238v28.963h3.6966c2.4357 0 4.302-0.20502 5.4715-0.60111zm92.844-4.9483v-34.875l11.036 0.19126c12.205 0.21153 14.501 0.52409 18.6 2.5321 3.264 1.5991 7.0069 5.3368 8.4769 8.4652 3.2507 6.9179 2.3643 14.478-2.2566 19.248-1.0437 1.0773-1.3816 1.6474-1.0443 1.762 0.27427 0.09323 1.5206 0.94133 2.7698 1.8848 4.1507 3.135 6.2438 6.8268 6.9848 12.32 1.3827 10.25-5.2225 19.241-16.321 22.218-2.5183 0.67538-4.256 0.78103-15.54 0.94485l-12.705 0.18445zm22.265 22.92c4.7905-0.59925 7.6782-2.1627 9.1852-4.973 0.91815-1.7122 0.84097-6.271-0.13782-8.1416-1.9012-3.6334-5.7314-4.996-14.044-4.996h-5.0274v18.504h3.441c1.8926 0 4.8549-0.17687 6.5829-0.39302zm0.51189-30.341c3.6664-1.3685 5.3017-4.2617 4.9446-8.7479-0.42028-5.2797-4.0396-7.5171-12.16-7.5171h-3.3203v17.023h4.252c3.3778 0 4.6698-0.15592 6.2838-0.75838z" stroke="#000" stroke-linecap="round" stroke-linejoin="round"/>
</svg>
