<svg xmlns="http://www.w3.org/2000/svg" width="192" height="192" viewBox="0 0 192 192"><path stroke="#000" stroke-linecap="round" stroke-linejoin="round" d="M82.361 132.51c-9.68-1.5-17.345-8.732-19.28-18.19-1.056-5.162-.478-9.557 1.887-14.352 1.345-2.727 4.717-6.59 7.342-8.411l1.096-.76-1.189-1.352c-2.533-2.878-4.155-7.44-4.155-11.686 0-4.894 1.754-9.165 5.26-12.808 7.996-8.308 21.522-7.455 28.342 1.786.901 1.222 1.639 2.414 1.639 2.65 0 .38-9.985 5.617-10.178 5.338l-.888-1.283c-.445-.644-1.529-1.518-2.408-1.943-3.654-1.764-7.844-.239-9.566 3.484-.855 1.849-.87 3.668-.042 5.445.352.756 4.646 5.73 9.542 11.055s9.266 10.119 9.71 10.653c.768.928.816.939 1.053.232.137-.407.818-1.93 1.513-3.383 2.264-4.73 6.788-8.316 12.056-9.555 4.37-1.027 4.046-1.44 4.046 5.138v5.707l-1.232.406c-3.2 1.054-6.17 6.705-6.182 11.76l-.004 1.932 14.479 15.75-15.406.226-5.194-5.481-2.353 1.95c-5.44 4.509-13.196 6.728-19.886 5.691zm8.055-12.071c1.71-.536 5.342-2.951 5.88-3.91.17-.301-2.385-3.351-7.148-8.534-8.177-8.897-7.625-8.55-10.514-6.603-4.38 2.952-5.73 9.26-2.986 13.932 2.984 5.08 8.635 7.036 14.768 5.115zM16.5 95.489V60.668l10.665.16c11.965.18 13.622.459 18.82 3.162 3.9 2.028 8.128 6.394 10.108 10.438 4.316 8.815 3.944 18.075-1.067 26.55-1.74 2.942-5.97 7.068-8.747 8.533-4.365 2.302-6.134 2.743-11.973 2.991l-5.379.228-.1 8.79-.099 8.789H16.5zm21.409 4.984c5.965-2.02 9.275-7.462 8.935-14.688-.272-5.756-2.67-9.552-7.56-11.962-2.536-1.25-3.104-1.382-6.658-1.54l-3.885-.172v28.963h3.696c2.436 0 4.303-.205 5.472-.6zm92.844-4.949V60.65l11.036.192c12.205.211 14.501.524 18.6 2.532 3.264 1.599 7.007 5.337 8.477 8.465 3.25 6.918 2.364 14.478-2.257 19.248-1.043 1.077-1.381 1.647-1.044 1.762.274.093 1.52.941 2.77 1.885 4.15 3.135 6.244 6.827 6.985 12.32 1.382 10.25-5.223 19.24-16.321 22.218-2.519.675-4.256.78-15.54.945l-12.705.184zm22.265 22.92c4.79-.599 7.678-2.162 9.185-4.973.918-1.712.841-6.27-.138-8.141-1.9-3.634-5.731-4.996-14.044-4.996h-5.027v18.504h3.441c1.893 0 4.855-.177 6.583-.393zm.512-30.34c3.666-1.37 5.302-4.262 4.944-8.749-.42-5.28-4.04-7.517-12.16-7.517h-3.32v17.023h4.252c3.378 0 4.67-.156 6.284-.758z"/></svg>