<?xml version="1.0" encoding="UTF-8"?>
<svg id="SVGRoot" width="192px" height="192px" version="1.1" viewBox="0 0 192 192" xmlns="http://www.w3.org/2000/svg">
 <g fill="none" stroke="#000" stroke-linecap="round" stroke-linejoin="round" stroke-width="8">
  <path d="m81.33 52.473c1.3448 0 2.6009 0.55516 3.6354 1.497 2.0282 1.2711 2.8299-0.13018 2.8299-1.497v-6.7003c0-3.1587-2.4938-5.7431-5.5417-5.7431h-10.16c-1.3152 0-2.6748-0.82701-1.4445-2.9328 0.90884-1.072 1.4445-2.37 1.4445-3.7675 0-3.7024-3.7203-6.7003-8.3125-6.7003-4.5922 0-8.3125 2.9979-8.3125 6.7003 0 1.1486 0.35098 2.2054 0.94209 3.1511 1.8731 2.5767 0.50245 3.5492-0.94209 3.5492h-10.16c-3.0479 0-5.5417 2.5844-5.5417 5.7431v6.7003c0 1.497 0.93838 2.9175 3.4284 0.93421 0.90883-0.57048 1.9285-0.93421 3.0368-0.93421 3.5688 0 6.4653 3.8594 6.4653 8.6147 0 4.7553-2.8964 8.6147-6.4653 8.6147-1.3448 0-2.6009-0.55517-3.6353-1.497-2.0283-1.2711-2.8299 0.13018-2.8299 1.497v10.529c0 3.1587 2.4938 5.7431 5.5417 5.7431h10.16c1.4445 0 2.8152-0.9725 0.89775-3.5492-0.54677-0.9457-0.89775-2.0024-0.89775-3.1511 0-3.7024 3.7203-6.7003 8.3125-6.7003 4.5922 0 8.3125 2.9979 8.3125 6.7003 0 1.3975-0.53569 2.6954-1.4445 3.7675-1.2303 2.1058 0.12931 2.9328 1.4445 2.9328h10.16c3.0479 0 5.5417-2.5844 5.5417-5.7431v-10.529c0-1.497-0.9384-2.9175-3.4284-0.93421-0.90883 0.57048-1.9285 0.93421-3.0368 0.93421-3.5688 0-6.4653-3.8594-6.4653-8.6147 0-4.7553 2.8964-8.6147 6.4653-8.6147z"/>
  <path d="m148.09 73.283c1.0385-0.85609 2.3605-1.227 3.7566-1.1582 2.3723-0.30955 2.1028-1.9021 1.2362-2.9576l-4.2483-5.1743c-2.0028-2.4393-5.5672-2.8476-7.921-0.90726l-7.8458 6.4677c-1.0157 0.83727-2.59 1.0641-2.9751-1.3453 0.0221-1.4064-0.38717-2.7498-1.2732-3.829-2.3475-2.8592-7.1214-2.8059-10.668 0.11748-3.5463 2.9234-4.5185 7.6069-2.1709 10.466 0.72829 0.88702 1.6694 1.4796 2.7255 1.8337 3.0803 0.79747 2.6384 2.421 1.5229 3.3406l-7.8458 6.4677c-2.3537 1.9403-2.6409 5.5236-0.63808 7.9629l4.2483 5.1743c0.94921 1.1561 2.5745 1.6557 3.2399-1.4611 0.34013-1.0191 0.89695-1.9491 1.7529-2.6547 2.756-2.2719 7.4398-1.1354 10.455 2.5368 3.0151 3.6723 3.2254 8.4965 0.46938 10.768-1.0385 0.85609-2.3605 1.227-3.7566 1.1582-2.3723 0.30955-2.1029 1.9021-1.2362 2.9576l6.676 8.131c2.0028 2.4393 5.5672 2.8476 7.921 0.90726l7.8458-6.4677c1.1155-0.91958 1.5574-2.5432-1.5571-3.3124-1.0219-0.38223-1.9629-0.97486-2.6912-1.8619-2.3475-2.8592-1.3754-7.5426 2.1709-10.466 3.5463-2.9234 8.3201-2.9766 10.668-0.11748 0.88608 1.0792 1.2954 2.4226 1.2732 3.829 0.38513 2.4094 1.9594 2.1825 2.9751 1.3453l7.8458-6.4677c2.3537-1.9403 2.6409-5.5236 0.63807-7.9629l-6.676-8.131c-0.9492-1.1561-2.5745-1.6556-3.2399 1.4611-0.3401 1.0191-0.89692 1.9491-1.7528 2.6547-2.756 2.2719-7.4398 1.1354-10.455-2.5368-3.0151-3.6723-3.2254-8.4965-0.46939-10.768z"/>
  <path d="m71.034 137.39c1.0541 0.8367 1.6947 2.0534 1.922 3.4353 0.80219 2.2583 2.299 1.6587 3.146 0.5872l4.152-5.2522c1.9574-2.476 1.6041-6.0534-0.78509-7.9497l-7.964-6.321c-1.031-0.81827-1.5842-2.3124 0.68507-3.1977 1.3767-0.2749 2.601-0.95903 3.4669-2.0545 2.2943-2.9022 1.2358-7.5668-2.3639-10.424-3.5997-2.8571-8.3737-2.8218-10.668 0.0804-0.71178 0.90038-1.0915 1.9471-1.2142 3.0562-0.12848 3.1852-1.8055 3.0948-2.9379 2.196l-7.9639-6.321c-2.3892-1.8963-5.9455-1.422-7.9029 1.054l-4.152 5.2522c-0.92769 1.1735-1.0723 2.8708 2.1086 2.8654 1.0659 0.11825 2.0906 0.46754 2.9594 1.1571 2.7975 2.2204 2.6764 7.0478-0.27035 10.775-2.9468 3.7275-7.6088 4.9507-10.406 2.7303-1.0541-0.83667-1.6947-2.0534-1.922-3.4353-0.80219-2.2583-2.299-1.6587-3.146-0.58721l-6.5246 8.2534c-1.9574 2.476-1.6041 6.0534 0.78509 7.9497l7.9639 6.321c1.1323 0.89875 2.8094 0.9892 2.9031-2.2236 0.15743-1.0815 0.53714-2.1282 1.2489-3.0286 2.2943-2.9022 7.0683-2.9376 10.668-0.0804 3.5997 2.8571 4.6582 7.5218 2.3639 10.424-0.86599 1.0955-2.0902 1.7796-3.4669 2.0545-2.2693 0.88526-1.716 2.3794-0.68507 3.1977l7.9639 6.321c2.3892 1.8963 5.9455 1.422 7.9028-1.054l6.5246-8.2534c0.92768-1.1735 1.0723-2.8708-2.1086-2.8654-1.0659-0.11827-2.0906-0.46754-2.9594-1.1571-2.7975-2.2204-2.6764-7.0477 0.27034-10.775 2.9468-3.7276 7.6088-4.9508 10.406-2.7304z"/>
 </g>
</svg>
