<?xml version="1.0" encoding="UTF-8"?>
<svg id="SVGRoot" width="192px" height="192px" version="1.1" viewBox="0 0 192 192" xmlns="http://www.w3.org/2000/svg">
 <g fill="none" stroke="#000" stroke-linecap="round" stroke-linejoin="round">
  <rect class="st0" x="20" y="23.284" width="152" height="145.43" stroke-width="8"/>
  <g transform="matrix(.79249 0 0 .75825 20 23.284)" stroke-width="10.32">
   <path class="st1" d="m160.4 52.8c-5.6 0-10.2 4.6-10.2 10.2s4.6 10.2 10.2 10.2 10.2-4.6 10.2-10.2-4.7-10.2-10.2-10.2"/>
   <rect class="st1" x="151.3" y="82.6" width="18.1" height="51.1"/>
   <path class="st1" d="m60.8 102.9c10.7-1.9 16.5-10.9 16.5-21.2 0-16-11.3-23.1-26.1-23.1h-29.2v75.1h19.5v-28.9h0.2l18.4 28.9h24.3zm-17.4-10.7h-1.9v-18.7h1.9c6.4 0 13.6 1.2 13.6 9.4 0 8.1-7.2 9.3-13.6 9.3"/>
   <path class="st1" d="m122.8 82.6v5c-3.8-4.5-10-6.7-15.8-6.7-15.1 0-25.6 12.6-25.6 27.2s10.7 27.3 25.8 27.3c6 0 12.3-2.3 15.4-7.4h0.2v5.7h18.1v-51.1zm-11.1 37c-7.4 0-11.7-5-11.7-11.5 0-6.3 4.3-11.6 11.7-11.6s11.7 5.3 11.7 11.6c-0.1 6.6-4.3 11.5-11.7 11.5"/>
  </g>
 </g>
</svg>
