<svg xmlns="http://www.w3.org/2000/svg" width="192" height="192" viewBox="0 0 192 192"><g fill="none" stroke="#000" stroke-linecap="round" stroke-linejoin="round"><path stroke-width="8" d="M20 23.284h152v145.43H20z" class="st0"/><g stroke-width="10.32"><path d="M160.4 52.8c-5.6 0-10.2 4.6-10.2 10.2s4.6 10.2 10.2 10.2 10.2-4.6 10.2-10.2-4.7-10.2-10.2-10.2M151.3 82.6h18.1v51.1h-18.1zM60.8 102.9C71.5 101 77.3 92 77.3 81.7c0-16-11.3-23.1-26.1-23.1H22v75.1h19.5v-28.9h.2l18.4 28.9h24.3zM43.4 92.2h-1.9V73.5h1.9c6.4 0 13.6 1.2 13.6 9.4 0 8.1-7.2 9.3-13.6 9.3" class="st1" transform="matrix(.79249 0 0 .75825 20 23.284)"/><path d="M122.8 82.6v5c-3.8-4.5-10-6.7-15.8-6.7-15.1 0-25.6 12.6-25.6 27.2s10.7 27.3 25.8 27.3c6 0 12.3-2.3 15.4-7.4h.2v5.7h18.1V82.6zm-11.1 37c-7.4 0-11.7-5-11.7-11.5 0-6.3 4.3-11.6 11.7-11.6s11.7 5.3 11.7 11.6c-.1 6.6-4.3 11.5-11.7 11.5" class="st1" transform="matrix(.79249 0 0 .75825 20 23.284)"/></g></g></svg>