<?xml version="1.0" encoding="UTF-8"?>
<svg id="SVGRoot" width="192px" height="192px" version="1.1" viewBox="0 0 192 192" xmlns="http://www.w3.org/2000/svg">
 <g fill="none" stroke="#000" stroke-linecap="round" stroke-linejoin="round">
  <g stroke-width="8">
   <path class="a" d="m69.732 79.896s20.983-3.4508 25.196-3.4508a43.87 44.491 0 0 1 12.152 3.4508v-17.583h-9.9649c-2.9976 0-4.6989 4.1081-9.5598 4.1081-3.6457 0-9.4383-4.1081-9.4383-8.5038 0-4.3957-0.76965-8.2162 8.1016-8.2162h20.74v-21.198h-51.526v-8.5038h-11.95a11.747 11.914 0 0 0-10.248 10.27c0 4.5189 2.8761 11.421 8.9117 11.421"/>
   <path class="a" d="m20.353 94.275c-1.3773 11.462 1.0532 18.897 6.7243 23.416 5.6711 4.5189 33.5 23.498 47.637 33.81a41.764 42.355 0 0 1 13.368 17.295"/>
   <path class="a" d="m24.566 49.948c-7.8585 14.789-1.7823 29.578 4.7394 34.672 6.5218 5.0941 60.964 44.244 71.901 51.434 17.337 11.708 19.97 35.946 19.97 35.946"/>
   <path class="a" d="m45.63 130.92a66.433 67.373 0 0 1 11.504 20.048"/>
   <path class="a" d="m45.63 96.657a66.919 67.866 0 0 1 11.504 20.089"/>
   <path class="a" d="m76.213 118.51a65.785 66.716 0 0 1 11.626 20.048"/>
   <path class="a" d="m78.846 86.634a60.397 61.252 0 0 1 12.557 20.048"/>
   <path class="a" d="m49.681 58.246c1.0532 7.6411 12.152 15.857 20.254 21.65 8.9522 6.6962 28.923 21.157 40.508 29.455 8.1016 5.9978 7.0078 21.568 7.0078 21.568"/>
  </g>
  <polyline class="a" transform="matrix(4.0508 0 0 4.1081 -1.2779 -2.5946)" points="22.67 23.8 30.1 19.34 37.91 19.34 42.18 21.86 40.04 25.28" stroke-width="1.9611"/>
  <g stroke-width="8">
   <path class="a" d="m118.63 161.07c5.7116-2.2594 24.062-4.1081 34.432-4.1081a21.955 22.266 0 0 1 16.527 8.8735"/>
   <path class="a" d="m110.04 109.35c7.737-8.8324 14.542-15.898 27.667-15.898 15.231 0 34.27 11.051 34.27 33.563a31.92 32.372 0 0 1-17.216 30.071"/>
   <path class="a" d="m144.1 94.11c6.1977 15.857 8.1016 29.989 2.2684 53.405"/>
   <path class="a" d="m131.34 94.11a100.7 102.13 0 0 0-4.2533 38.246"/>
   <path class="a" d="m167.32 109.64c-12.152 0.73946-46.665 0.61621-46.665 0.61621"/>
   <path class="a" d="m171.97 127.02h-45.247"/>
   <path class="a" d="m169.58 141.93h-30.057"/>
  </g>
  <polyline class="a" transform="matrix(4.0508 0 0 4.1081 -1.2779 -2.5946)" points="37.75 24.09 38.26 22.87 37.18 21.57" stroke-width="1.9611"/>
  <polyline class="a" transform="matrix(4.0508 0 0 4.1081 -1.2779 -2.5946)" points="18.21 7.57 18.21 10.72 16.46 10.04" stroke-width="1.9611"/>
 </g>
</svg>
