<svg xmlns="http://www.w3.org/2000/svg" width="192" height="192" viewBox="0 0 192 192"><g fill="none" stroke="#000" stroke-linecap="round" stroke-linejoin="round"><g stroke-width="8"><path d="M69.732 79.896s20.983-3.45 25.196-3.45a43.87 44.491 0 0 1 12.152 3.45V62.313h-9.965c-2.997 0-4.699 4.108-9.56 4.108-3.645 0-9.438-4.108-9.438-8.504 0-4.395-.77-8.216 8.102-8.216h20.74V28.503H55.433V20h-11.95a11.747 11.914 0 0 0-10.248 10.27c0 4.52 2.876 11.421 8.911 11.421M20.353 94.275c-1.377 11.462 1.053 18.897 6.724 23.416 5.671 4.519 33.5 23.498 47.637 33.81a41.764 42.355 0 0 1 13.368 17.295M24.566 49.948c-7.859 14.789-1.782 29.578 4.74 34.672 6.521 5.094 60.963 44.244 71.9 51.434 17.337 11.708 19.97 35.946 19.97 35.946" class="a"/><path d="M45.63 130.92a66.433 67.373 0 0 1 11.504 20.048M45.63 96.657a66.919 67.866 0 0 1 11.504 20.089m19.079 1.764a65.785 66.716 0 0 1 11.626 20.048m-8.993-51.924a60.397 61.252 0 0 1 12.557 20.048" class="a"/><path d="M49.681 58.246c1.053 7.641 12.152 15.857 20.254 21.65 8.952 6.696 28.923 21.157 40.508 29.455 8.102 5.998 7.008 21.568 7.008 21.568" class="a"/></g><path stroke-width="1.961" d="m22.67 23.8 7.43-4.46h7.81l4.27 2.52-2.14 3.42" class="a" transform="matrix(4.0508 0 0 4.1081 -1.278 -2.595)"/><g stroke-width="8"><path d="M118.63 161.07c5.712-2.26 24.062-4.108 34.432-4.108a21.955 22.266 0 0 1 16.527 8.873" class="a"/><path d="M110.04 109.35c7.737-8.832 14.542-15.898 27.667-15.898 15.231 0 34.27 11.051 34.27 33.563a31.92 32.372 0 0 1-17.216 30.071" class="a"/><path d="M144.1 94.11c6.198 15.857 8.102 29.989 2.268 53.405M131.34 94.11a100.7 102.13 0 0 0-4.253 38.246" class="a"/><path d="M167.32 109.64c-12.152.74-46.665.616-46.665.616m51.315 16.764h-45.247m42.857 14.91h-30.057" class="a"/></g><path stroke-width="1.961" d="m37.75 24.09.51-1.22-1.08-1.3m-18.97-14v3.15l-1.75-.68" class="a" transform="matrix(4.0508 0 0 4.1081 -1.278 -2.595)"/></g></svg>