<svg xmlns="http://www.w3.org/2000/svg" width="192" height="192" viewBox="0 0 192 192"><defs><clipPath id="a"><circle cx="472.38" cy="532.97" r="72"/></clipPath></defs><g fill="none" stroke="#000" stroke-linecap="round" stroke-linejoin="round"><g stroke-width="7.588" clip-path="url(#a)" transform="matrix(1.0531 0 0 1.0556 -405.64 -466.9)"><path d="M500.69 497.71c-.389-.152-3.563 1.858-7.043 4.46-9.372 7.005-23.905 15.64-26.292 15.625-1.148-.006-3.291-.358-4.758-.789-2.698-.792-6.988.717-17.302 6.079-4.458 2.316-7.056 2.829-13.067 2.584-4.617-.194-8.941.374-11.242 1.474-3.427 1.64-3.7 2.008-3.295 4.444.241 1.462 2.246 4.805 4.458 7.416l4.018 4.75-3.046 4.018c-1.678 2.213-3.594 5.376-4.25 7.027-.65 1.653-2.893 4.564-4.977 6.455-4.018 3.648-11.972 14.561-14.703 20.172-.958 1.967-12.52 7.685-14.288 6.994l78.254 30.607c1.198-3.097 2.163-7.796 1.86-8.228-.834-1.186 4.828-12.307 7.23-14.208 3.186-2.514 5.117-8.619 4.859-15.375-.19-5.017.342-7.571 3.093-14.63 2.13-5.457 4.173-9.31 5.65-10.677 1.274-1.179 3.761-4.539 5.535-7.467 3.395-5.61 9.593-11.477 13.217-12.499 3.631-1.018 7.317-6.131 7.33-10.182.015-4.77-1.16-6.846-3.405-6.02-1.3.48-2.126.18-3.203-1.151-1.268-1.577-1.526-1.53-2.056.392-.333 1.204-1.234 2.196-2.011 2.188-1.099-.014-.95-.856.653-3.773 1.135-2.064 2.168-5.364 2.307-7.338.25-3.496-2.12-11.8-3.526-12.35z"/></g><ellipse cx="96.177" cy="96" stroke-width="8" rx="75.824" ry="76"/></g></svg>