<?xml version="1.0" encoding="UTF-8"?>
<svg width="192" height="192" version="1.1" viewBox="0 0 192 192" xmlns="http://www.w3.org/2000/svg">
 <defs>
  <clipPath id="clipPath448">
   <ellipse cx="97.823" cy="95.703" rx="75.823" ry="76.003"/>
  </clipPath>
 </defs>
 <path d="m127.64 58.483c-0.40966-0.16045-3.7522 1.9613-7.417 4.708-9.8697 7.3945-25.174 16.51-27.688 16.494-1.209-0.0063-3.4658-0.3779-5.0106-0.83287-2.8413-0.83604-7.3591 0.75686-18.221 6.417-4.6947 2.4448-7.4307 2.9863-13.761 2.7277-4.8622-0.20479-9.4158 0.3948-11.839 1.556-3.609 1.7312-3.8965 2.1196-3.47 4.6911 0.2538 1.5433 2.3653 5.0722 4.6947 7.8283l4.2314 5.0141-3.2077 4.2414c-1.7671 2.336-3.7848 5.6749-4.4757 7.4177-0.68452 1.7449-3.0466 4.8178-5.2413 6.8139-4.2314 3.8508-12.608 15.371-15.484 21.294-1.0089 2.0764-13.185 8.1123-15.047 7.3829l82.409 32.309c1.2616-3.2692 2.2779-8.2295 1.9588-8.6855-0.87829-1.2519 5.0844-12.991 7.6139-14.998 3.3552-2.6538 5.3887-9.0982 5.117-16.23-0.20009-5.2959 0.36016-7.9919 3.2572-15.443 2.2431-5.7604 4.3946-9.8276 5.95-11.271 1.3416-1.2446 3.9607-4.7914 5.8289-7.8822 3.5753-5.9219 10.102-12.115 13.919-13.194 3.8238-1.0746 7.7055-6.4719 7.7192-10.748 0.0158-5.0352-1.2216-7.2266-3.5858-6.3547-1.369 0.50669-2.2389 0.19001-3.3731-1.215-1.3353-1.6647-1.607-1.6151-2.1652 0.4138-0.35068 1.2709-1.2995 2.3181-2.1178 2.3097-1.1574-0.01478-1.0004-0.90359 0.68768-3.9828 1.1953-2.1788 2.2831-5.6622 2.4295-7.746 0.26327-3.6904-2.2326-12.456-3.7132-13.037z" clip-path="url(#clipPath448)" fill="none" stroke="#000" stroke-linecap="round" stroke-linejoin="round" stroke-width="8.0004"/>
 <ellipse cx="96.177" cy="96" rx="75.824" ry="76" fill="none" stroke="#000" stroke-linecap="round" stroke-linejoin="round" stroke-width="8"/>
</svg>
