<?xml version="1.0" encoding="UTF-8"?>
<svg id="SVGRoot" width="192px" height="192px" version="1.1" viewBox="0 0 192 192" xmlns="http://www.w3.org/2000/svg">
 <defs>
  <clipPath id="clipPath5658">
   <circle cx="472.38" cy="532.97" r="72"/>
  </clipPath>
 </defs>
 <g fill="none" stroke="#000" stroke-linecap="round" stroke-linejoin="round">
  <g transform="matrix(1.0531 0 0 1.0556 -405.64 -466.9)" clip-path="url(#clipPath5658)" stroke-width="7.5878">
   <path d="m500.69 497.71c-0.38861-0.152-3.563 1.8583-7.0428 4.4605-9.3727 7.0043-23.905 15.64-26.292 15.625-1.148-6e-3 -3.2916-0.35899-4.7584-0.78949-2.6974-0.79174-6.9876 0.71745-17.302 6.0786-4.4582 2.3165-7.0561 2.8294-13.067 2.5847-4.6172-0.19385-8.941 0.37375-11.242 1.4739-3.4265 1.6392-3.7 2.0079-3.2947 4.4437 0.24129 1.4616 2.2457 4.8046 4.4578 7.4158l4.0179 4.7495-3.0455 4.0192c-1.6782 2.2121-3.5943 5.3751-4.2495 7.0265-0.65088 1.6531-2.8936 4.5636-4.9776 6.4553-4.0182 3.648-11.972 14.561-14.703 20.172-0.95869 1.9669-12.521 7.6851-14.288 6.9941l78.254 30.607c1.1977-3.0975 2.1626-7.7966 1.8605-8.2288-0.83432-1.1855 4.8273-12.307 7.2292-14.208 3.1865-2.5137 5.1168-8.6181 4.8588-15.375-0.19028-5.0169 0.34213-7.5709 3.0935-14.629 2.1305-5.458 4.1728-9.3106 5.6498-10.678 1.2739-1.1785 3.7613-4.5384 5.5346-7.4662 3.3952-5.61 9.5932-11.477 13.217-12.499 3.6317-1.0184 7.3175-6.1314 7.3312-10.182 0.0137-4.7708-1.1605-6.8468-3.4054-6.0204-1.3008 0.47971-2.126 0.18009-3.2034-1.1514-1.2679-1.5768-1.5264-1.5301-2.0564 0.39204-0.33267 1.2048-1.2333 2.1967-2.0107 2.1883-1.0985-0.0139-0.94921-0.85627 0.65326-3.7724 1.1353-2.0642 2.1676-5.3649 2.3067-7.3384 0.24958-3.4961-2.1196-11.8-3.5258-12.35z" fill="none" stroke="#000" stroke-linecap="round" stroke-linejoin="round" stroke-width="7.5878"/>
  </g>
  <ellipse cx="96.177" cy="96" rx="75.824" ry="76" stroke-width="8"/>
 </g>
</svg>
