<svg xmlns="http://www.w3.org/2000/svg" width="192" height="192" viewBox="0 0 192 192"><path fill="none" stroke="#000" stroke-linecap="round" stroke-linejoin="round" stroke-width="12" d="M59.227 169.71c-10.63-1.67-20.375-8.624-24.843-17.728-6.002-12.231-9.88-41.263-8.394-62.855 1.277-18.559 5.447-39.554 9.574-48.204 3.225-6.759 8.904-12.61 15.293-15.756 7.831-3.856 15.14-4.254 25.856-1.405 27.282 7.254 54.434 23.271 76.328 45.025 6.576 6.535 7.552 7.73 9.425 11.555 5.274 10.77 5.353 20.958.244 31.536-1.98 4.1-2.99 5.434-8.127 10.732-21.126 21.787-48.137 37.462-78.13 45.338-6.985 1.835-12.904 2.44-17.227 1.76zm22.856-47.006c3.51-1.18 14.236-6.618 19.574-9.923 8.337-5.162 12.417-8.476 13.702-11.13 2.607-5.388.918-11.222-4.472-15.442-5.45-4.267-13.928-9.624-21.115-13.341-6.7-3.465-7.497-3.756-10.29-3.747-4.756.013-8.803 2.674-10.576 6.955-1.347 3.252-1.984 11.07-1.983 24.345 0 12.813.043 13.394 1.153 15.805 1.34 2.908 2.758 4.556 4.865 5.652 3.437 1.788 5.68 1.99 9.143.825z"/></svg>