<?xml version="1.0" encoding="UTF-8"?>
<svg id="SVGRoot" width="192px" height="192px" version="1.1" viewBox="0 0 192 192" xmlns="http://www.w3.org/2000/svg">
 <path d="m59.227 169.71c-10.63-1.6698-20.375-8.6237-24.843-17.728-6.0024-12.231-9.8794-41.263-8.3939-62.855 1.2769-18.559 5.4468-39.554 9.5738-48.204 3.2248-6.7589 8.9039-12.61 15.293-15.756 7.8315-3.8565 15.141-4.2536 25.856-1.4046 27.282 7.2539 54.434 23.271 76.328 45.025 6.5764 6.5343 7.5518 7.7302 9.4249 11.555 5.2739 10.77 5.3528 20.958 0.24425 31.536-1.9797 4.0993-2.9904 5.434-8.1273 10.732-21.126 21.787-48.137 37.462-78.129 45.338-6.9855 1.8346-12.905 2.4395-17.228 1.7605zm22.856-47.006c3.5091-1.1805 14.236-6.6184 19.574-9.9231 8.3372-5.1614 12.417-8.4755 13.702-11.13 2.6074-5.3876 0.9177-11.222-4.4721-15.442-5.4496-4.267-13.928-9.6238-21.115-13.341-6.6998-3.4651-7.4971-3.7555-10.289-3.7474-4.7571 0.01386-8.8035 2.6748-10.577 6.9559-1.3472 3.2517-1.984 11.069-1.983 24.345 1e-3 12.813 0.0434 13.394 1.1536 15.805 1.3386 2.9075 2.7571 4.5558 4.864 5.6516 3.4378 1.7881 5.6802 1.9905 9.1439 0.82529z" fill="none" stroke="#000" stroke-linecap="round" stroke-linejoin="round" stroke-width="12"/>
</svg>
