<?xml version="1.0" encoding="UTF-8"?>
<svg id="vector" width="192" height="192" version="1.1" viewBox="0 0 192 192" xmlns="http://www.w3.org/2000/svg">
 <path d="m115.96 175.75c-0.91207-0.19201-2.7522-1.0481-6.0484-2.8002a394.2 394.2 0 0 0-3.4483-1.8241c-0.99207-0.51204-2.2482-1.1841-2.8002-1.4721-0.55204-0.30402-1.7841-0.94407-2.7362-1.4401l-2.7282-1.4401a512.35 512.35 0 0 1-5.4644-2.8722c-0.55204-0.30402-1.7841-0.93607-2.7362-1.4321-2.5602-1.3441-4.0723-2.1442-4.9604-2.6322-0.43203-0.22401-1.1441-0.62404-1.5761-0.86406-7.3125-3.9843-12.913-8.0166-17.529-12.601-7.8166-7.7766-10.945-13.713-12.169-23.082a46.739 46.739 0 0 1-8e-3 -9.7527c0.52804-3.5843 1.5681-6.9125 3.1362-10.065 1.0801-2.1682 1.3761-2.6802 2.6882-4.6163 4.4563-6.6005 9.0967-10.857 16.921-15.489 2.1362-1.2721 5.1684-2.9442 6.9445-3.8323a6.8565 6.8565 0 0 0 1.5121-0.91207l0.38403-1.5281a13.737 13.737 0 0 1 13.377-10.529c3.9203-8e-3 7.0805 1.3121 9.8487 4.1043 2.8962 2.9202 4.2243 6.2965 4.0483 10.289a13.817 13.817 0 0 1-10.449 12.897 16.249 16.249 0 0 1-6.3045 0.15201 18.025 18.025 0 0 1-4.5363-1.8801l-0.82406-0.52804-1.9681 1.0321c-4.0483 2.1122-8.5446 4.9124-10.729 6.6645-4.0083 3.2162-7.8486 8.3926-9.3287 12.553-1.2481 3.5203-1.3601 8.3526-0.26402 12.825 1.0001 4.1843 3.0882 7.4405 7.5846 11.849 4.0083 3.9203 8.0886 6.7925 15.321 10.753 0.98407 0.54404 2.6322 1.4161 7.2565 3.8483l2.7362 1.4321 2.6882 1.4161a527.43 527.43 0 0 0 5.3924 2.8482c0.49604 0.26402 0.92807 0.48004 0.95207 0.48004s-0.15201-0.69605-0.38403-1.5441a38.499 38.499 0 0 1-1.2241-8.0246c-0.072-2.0962-0.072-2.4162 0.23202-3.3122a7.2325 7.2325 0 0 1 3.3122-4.1763c0.30403-0.18401 1.1601-0.51204 1.9041-0.76805a58.1 58.1 0 0 0 17.465-9.6007c1.8641-1.4881 5.5364-5.0484 7.0885-6.8565 7.6646-8.9446 12.089-19.209 13.401-31.05 0.26402-2.2242 0.26402-9.3767 0-11.497-1.5441-13.329-7.0405-24.786-16.345-34.05a56.004 56.004 0 0 0-31.442-15.753 57.628 57.628 0 0 0-17.785 0.22402 56.372 56.372 0 0 0-40.403 29.61 55.708 55.708 0 0 0-6.2245 24.794c-0.08001 4.7843 0.40003 9.4167 1.4321 13.729 0.73605 3.0562 0.76806 3.2162 0.77606 4.0963 0.024 2.9602-2.0962 5.7284-5.0724 6.6325a5.5604 5.5604 0 0 1-2.3282 0.22402 5.1684 5.1684 0 0 1-2.5282-0.64805c-2.3602-1.1441-3.3522-2.5602-4.2243-6.0484a93.471 93.471 0 0 1-1.1681-5.6964c-0.032-0.30402-0.15201-0.93607-0.18401-1.3681-0.84006-5.0004-0.94407-11.705-0.27202-17.681 1.5441-13.801 6.9845-26.458 16.105-37.443 1.6321-1.9601 6.5925-6.9125 8.6166-8.5766a70.589 70.589 0 0 1 23.066-12.873 72.589 72.589 0 0 1 15.169-3.2002c1.0641-0.07201 2.4082-0.22402 2.9842-0.29602 1.3521-0.19201 6.2645-0.19201 7.7366 0 0.62405 0.07201 1.9441 0.22402 2.9282 0.29602a70.253 70.253 0 0 1 20.554 5.2084 70.669 70.669 0 0 1 30.378 24.73 69.941 69.941 0 0 1 12.249 33.97c0.032 0.70405 0.112 1.4721 0.14401 1.7121 0.19201 0.94407 0.23201 6.4005 0.08 7.9046l-0.30402 3.2322c-0.26402 2.8002-0.54404 4.6243-1.0721 7.1925-0.19201 0.91207-0.37603 1.8081-0.40803 2.0082a7.6166 7.6166 0 0 1-0.30402 1.0721 2.5282 2.5282 0 0 0-0.15201 0.77605c0.04 0.04 0.016 0.15201-0.072 0.23202-0.112 0.11201-0.47203 1.4401-0.52003 1.8081a0.41603 0.41603 0 0 1-0.11201 0.22402 2.8082 2.8082 0 0 0-0.19202 0.64804c-0.15201 0.63205-0.15201 0.60005-0.26402 0.88807-0.072 0.15201-0.112 0.34402-0.15201 0.43203a2.3682 2.3682 0 0 1-0.11201 0.40803l-0.72805 1.9361a70.229 70.229 0 0 1-38.075 39.867c-0.37603 0.15202-0.68005 0.38403-0.68005 0.49604 0 0.26402 0.78406 3.0482 1.2241 4.3443 0.50404 1.5041 1.1361 3.1602 1.7281 4.5283 1.6481 3.7923 1.7921 4.2803 1.7921 6.2965a9.7607 9.7607 0 0 1-11.785 9.4327zm-4.1603-62.917a2.9282 2.9282 0 0 1-0.93607-0.60805c-0.54404-0.54404-6.9765-11.705-7.1285-12.353a2.8002 2.8002 0 0 1 0.76006-2.4962 28.402 28.402 0 0 1 3.1282-1.9841c2.2082-1.2801 2.7762-1.5521 3.3922-1.6001 1.5441-0.15201 2.1522 0.33602 3.6723 2.9842 6.1204 10.601 5.9604 10.273 5.5844 11.425-0.30402 0.94407-0.94407 1.4481-3.8483 3.1042-3.0002 1.7201-3.5363 1.8961-4.6243 1.5281zm-26.346-45.843c-0.86406-0.22402-1.4721-0.92807-2.7442-3.1362-4.2563-7.3685-5.1924-9.0167-5.3684-9.4407a2.8802 2.8802 0 0 1 0.75206-3.0802c0.62405-0.56804 5.4964-3.3202 6.1204-3.4563a2.7922 2.7922 0 0 1 2.3362 0.64805c0.26402 0.26402 0.84006 1.0321 1.2481 1.7441l2.3122 4.0243c3.6963 6.4165 3.6083 6.2405 3.6723 7.0405a2.7202 2.7202 0 0 1-0.92807 2.2482 42.963 42.963 0 0 1-3.0642 1.8881c-2.7842 1.5841-3.3602 1.7921-4.3363 1.5201z" fill="#000000FF" stroke-width="8.0006"/>
</svg>
