<svg xmlns="http://www.w3.org/2000/svg" width="192" height="192" viewBox="0 0 192 192"><g fill="none" stroke="#000" stroke-linecap="round" stroke-linejoin="round" stroke-width="12"><path d="M151.65 113.78c0 7.816-6.248 14.07-14.059 14.07-.781 0-1.953 0-2.734-.39.39 1.172.39 1.953.39 3.126 0 7.816-6.247 14.07-14.058 14.07-3.905 0-7.81-1.564-10.153-4.3-1.953 7.426-9.372 12.116-16.792 10.553-5.077-1.173-8.982-5.08-10.544-10.552-5.077 5.862-14.06 6.253-19.526 1.172-3.905-3.517-5.467-8.989-4.296-14.07-.78 0-1.952.391-2.733.391a14.006 14.006 0 0 1-14.06-14.07v-.39H25.123v45.725c0 4.3 3.124 7.817 7.42 7.817h129.648c4.296 0 7.81-3.518 7.81-7.817v-46.117h-17.964c-.39.391-.39.391-.39.782zM59.096 25.066l14.449 21.886-23.04 5.471-14.059 18.76-14.449-21.887 23.04-5.471z" class="st0"/><path d="M32.932 65.711c-5.077 10.161-7.81 21.104-7.81 32.438V113m26.165-77.383-6.249-6.253c-2.343-2.345-5.467-3.517-8.59-3.517-6.64 0-11.716 5.08-11.716 11.725 0 3.126 1.172 6.253 3.515 8.598l1.562 1.172M169.609 113V98.15c0-15.243-5.077-30.094-13.668-42.21l10.153-10.16c4.686-4.69 4.686-12.116 0-16.806-4.686-4.69-12.106-4.69-16.792 0l-10.153 10.161c-21.87-15.633-50.377-17.978-74.198-5.862m13.278 50.025c0 6.253-5.077 11.334-11.325 11.334-6.248 0-11.325-5.08-11.325-11.334 0-6.253 5.077-11.334 11.325-11.334 6.248 0 11.325 5.08 11.325 11.334zm49.205 11.725c-6.248 0-11.325-5.08-11.325-11.334 0-6.253 5.077-11.334 11.325-11.334s11.325 5.08 11.325 11.334c.39 5.862-4.686 10.943-11.325 11.334zM43.085 113.39H151.65" class="st0"/></g></svg>