<?xml version="1.0" encoding="UTF-8"?>
<svg id="SVGRoot" width="192px" height="192px" version="1.1" viewBox="0 0 192 192" xmlns="http://www.w3.org/2000/svg">
 <g fill="none" stroke="#000" stroke-linecap="round" stroke-linejoin="round" stroke-width="12">
  <path class="st0" d="m151.65 113.78c0 7.8164-6.2482 14.07-14.059 14.07-0.78103 0-1.9526 0-2.7336-0.39082 0.39051 1.1725 0.39051 1.9541 0.39051 3.1266 0 7.8164-6.2482 14.07-14.059 14.07-3.9052 0-7.8103-1.5633-10.153-4.299-1.9526 7.4256-9.3724 12.115-16.792 10.552-5.0767-1.1725-8.9819-5.0807-10.544-10.552-5.0767 5.8623-14.059 6.2532-19.526 1.1725-3.9052-3.5174-5.4672-8.9889-4.2957-14.07-0.78103 0-1.9526 0.39082-2.7336 0.39082-7.8103 0-14.059-6.2532-14.059-14.07v-0.39083h-17.964v45.726c0 4.299 3.1241 7.8164 7.4198 7.8164h0.39052 129.26c4.2957 0 7.8103-3.5174 7.8103-7.8164v-46.117h-17.964c-0.39052 0.39082-0.39052 0.39082-0.39052 0.78165z"/>
  <path class="st0" d="m59.096 25.066 14.449 21.886-23.04 5.4715-14.059 18.759-14.449-21.886 23.04-5.4715z"/>
  <path class="st0" d="m32.932 65.711c-5.0767 10.161-7.8103 21.104-7.8103 32.438v14.851m26.165-77.383-6.2483-6.2531c-2.3431-2.3449-5.4672-3.5174-8.5913-3.5174-6.6388 0-11.715 5.0807-11.715 11.725 0 3.1266 1.1715 6.2531 3.5146 8.5981l1.5621 1.1725m139.8 65.658v-14.851c0-15.242-5.0767-30.093-13.668-42.209l10.153-10.161c4.6862-4.6899 4.6862-12.115 0-16.805-4.6862-4.6899-12.106-4.6899-16.792 0l-10.153 10.161c-21.869-15.633-50.377-17.978-74.198-5.8623m13.278 50.025c0 6.2531-5.0767 11.334-11.325 11.334-6.2483 0-11.325-5.0807-11.325-11.334 0-6.2531 5.0767-11.334 11.325-11.334 6.2483 0 11.325 5.0807 11.325 11.334zm49.205 11.725c-6.2482 0-11.325-5.0807-11.325-11.334 0-6.2531 5.0767-11.334 11.325-11.334s11.325 5.0807 11.325 11.334c0.39051 5.8623-4.6862 10.943-11.325 11.334z"/>
  <line class="st0" x1="43.085" x2="151.65" y1="113.39" y2="113.39"/>
 </g>
</svg>
