<?xml version="1.0" encoding="UTF-8"?>
<svg id="SVGRoot" width="192px" height="192px" version="1.1" viewBox="0 0 192 192" xmlns="http://www.w3.org/2000/svg">
 <path id="path" d="m149.94 96.248 19.129-3.0108-0.51255-3.3505c-0.82148-5.3494-5.768-9.0148-11.051-8.1833-5.2835 0.83142-8.8994 5.8447-8.0779 11.194zm-5.4906-10.327c0-0.12737-0.014-0.24766-0.0316-0.36795v-5.5299c-1.9133 1.2135-18.989 11.806-32.417 11.969-5.961 0.07077-9.5138-1.953-11.357-5.1548-1.8431-3.2019-3.7845-6.9309-3.7845-6.9309h47.562v-2.2855c0-15.493-7.2143-29.287-18.441-38.15l6.1225-9.5738c1.7869-2.7915 1.2673-6.7257-1.155-8.7813-2.4258-2.0591-5.8382-1.4612-7.6251 1.3303l-7.0774 11.067c-6.0453-2.7702-12.761-4.3163-19.835-4.3163-7.0739 0-13.762 1.5355-19.796 4.2951l-7.088-11.077c-1.7869-2.795-5.2027-3.3894-7.6286-1.3303-2.4258 2.0591-2.9419 5.9933-1.155 8.7883l6.126 9.5773c-11.241 8.8626-18.469 22.668-18.469 38.175v9.3013c-0.05266 13.08-1.2006 15.348-4.9359 24.048-3.8301 8.9157-8.6958 19.735 1.9975 26.535 5.6977 3.6229 13.8 6.8389 23.268 9.0502v15.648c0 5.4096 4.3462 9.7931 9.7104 9.7931s9.7104-4.3836 9.7104-9.7931v-12.8c2.6084 0.16983 5.2589 0.25829 7.934 0.25829 0.10181 0 0.19659-0.0106 0.2984-0.0141 0.10532 0 0.20713 0.0141 0.31596 0.0141 2.7523 0 5.4731-0.0956 8.1517-0.27598v12.815c0 5.4096 4.3462 9.7931 9.7104 9.7931s9.7104-4.3836 9.7104-9.7931v-15.698c9.3909-2.2112 17.42-5.4096 23.082-9.0112 10.7-6.8035 5.8312-17.633 1.9976-26.56-3.8336-8.9228-4.9008-10.607-4.9008-25.017zm-26.751-30.805c3.7634 0 6.8141 3.078 6.8141 6.8743s-3.0507 6.8743-6.8141 6.8743c-3.7634 0-6.8141-3.078-6.8141-6.8743s3.0507-6.8743 6.8141-6.8743zm-42.493 0c3.7634 0 6.8141 3.078 6.8141 6.8743s-3.0507 6.8743-6.8141 6.8743c-3.7634 0-6.8141-3.078-6.8141-6.8743s3.0507-6.8743 6.8141-6.8743zm1.327 51.708h-11.252c-1.8045 0-3.2684-1.4753-3.2684-3.2939 0-1.8185 1.4639-3.2939 3.2684-3.2939h11.252c1.8045 0 3.2684 1.4753 3.2684 3.2939 0 1.8185-1.4639 3.2939-3.2684 3.2939zm5.0764-14.863c-15.103-0.87389-33.031-12.054-33.031-12.054h48.173s-1.9414 3.7184-3.7844 6.9132c-1.8431 3.1948-5.4028 5.4839-11.357 5.1407zm15.071 40.963c-1.9835 0-3.5914-1.6204-3.5914-3.6229 0-2.0025 1.6079-3.6229 3.5914-3.6229 1.9835 0 3.5914 1.6239 3.5914 3.6229 0 1.999-1.6079 3.6229-3.5914 3.6229zm0-13.366c-1.9835 0-3.5914-1.6204-3.5914-3.6229 0-2.0025 1.6079-3.6229 3.5914-3.6229 1.9835 0 3.5914 1.6239 3.5914 3.6229 0 1.999-1.6079 3.6229-3.5914 3.6229zm0-12.836c-1.9835 0-3.5914-1.6204-3.5914-3.6229 0-2.0025 1.6079-3.6229 3.5914-3.6229 1.9835 0 3.5914 1.6239 3.5914 3.6229 0 1.999-1.6079 3.6229-3.5914 3.6229zm-54.028-13.925c0.825-5.3459-2.805-10.352-8.106-11.184s-10.262 2.8304-11.087 8.1763l-0.51606 3.3469 19.193 3.0073zm129.24 18.822-1.9028-12.404-19.129 3.0108 1.9028 12.404c0.82149 5.3494 5.768 9.0148 11.051 8.1833 5.2835-0.83142 8.8994-5.8447 8.0779-11.194zm-130.67-9.503-19.193-3.0073-1.9098 12.39c-0.825 5.3459 2.805 10.352 8.106 11.184s10.262-2.8304 11.087-8.1763z" fill="none" stroke="#000" stroke-linecap="round" stroke-linejoin="round" stroke-width="8"/>
</svg>
