<?xml version="1.0" encoding="UTF-8"?>
<svg id="SVGRoot" width="192px" height="192px" version="1.1" viewBox="0 0 192 192" xmlns="http://www.w3.org/2000/svg">
 <g fill="none" stroke="#000" stroke-linecap="round" stroke-linejoin="round" stroke-width="8">
  <path class="a" d="m111.47 138.25a13.202 13.222 0 0 1-7.8401-4.0692 13.202 13.222 0 0 1-25.672 0 13.092 13.112 0 0 1-22.554-11.863 11.956 11.974 0 0 1-2.5671 0.2571 13.202 13.222 0 0 1-13.202-13.186v-0.51419h-16.723v42.826a7.1147 7.1254 0 0 0 6.8913 7.3424q0.11332 3e-3 0.22334 3e-3h92.28"/>
  <path class="a" d="m30.216 64.212a67.516 67.618 0 0 0-7.2291 30.598v13.957h104.67m-80.126-72.856-5.6617-5.6702a11.809 11.827 0 0 0-7.9948-3.4158 11.002 11.019 0 0 0-7.7748 18.915l1.3052 1.2771m131.27 63.53v-15.738a68.103 68.205 0 0 0-12.946-39.63l9.4618-9.4026a11.06 11.077 0 0 0-15.66-15.646l-9.3518 9.5495a67.451 67.552 0 0 0-69.824-5.5174m12.503 46.727a10.745 10.762 0 1 1-10.782-10.725h0.0366a10.745 10.762 0 0 1 10.782 10.651zm46.392 10.725a10.709 10.725 0 1 1 10.709-10.725 10.709 10.725 0 0 1-10.672 10.651z"/>
  <path class="a" d="m55.03 25.943 13.405 20.672-21.659 5.001-13.372 17.784-13.405-20.672 21.659-5.0014z"/>
  <ellipse class="a" cx="141.68" cy="135.69" rx="30.318" ry="30.364"/>
  <path class="a" d="m147.2 122.34a7.8115 7.8232 0 1 1-7.8115 7.8232 7.8115 7.8232 0 0 1 7.8115-7.8232z"/>
  <path class="a" d="m141.68 135.69-11.882 11.904"/>
  <path class="a" d="m132.79 144.6 3.66 3.6692"/>
 </g>
</svg>
