<svg xmlns="http://www.w3.org/2000/svg" width="192" height="192" viewBox="0 0 192 192"><g fill="none" stroke="#000" stroke-linecap="round" stroke-linejoin="round" stroke-width="8"><path d="M111.47 138.25a13.202 13.222 0 0 1-7.84-4.07 13.202 13.222 0 0 1-25.672 0 13.092 13.112 0 0 1-22.554-11.862 11.956 11.974 0 0 1-2.567.257 13.202 13.222 0 0 1-13.202-13.186v-.514H22.912V151.7a7.115 7.125 0 0 0 6.891 7.342q.113.003.223.003h92.28m-92.09-94.833a67.516 67.618 0 0 0-7.23 30.598v13.957h104.67M47.532 35.911l-5.662-5.67a11.809 11.827 0 0 0-7.995-3.416A11.002 11.019 0 0 0 26.1 45.74l1.305 1.277m131.27 63.53V94.81a68.103 68.205 0 0 0-12.946-39.63l9.462-9.403a11.06 11.077 0 0 0-15.66-15.646l-9.352 9.55a67.451 67.552 0 0 0-69.824-5.517M72.858 80.89a10.745 10.762 0 1 1-10.782-10.725h.036a10.745 10.762 0 0 1 10.782 10.65zm46.392 10.725a10.709 10.725 0 1 1 10.709-10.725 10.709 10.725 0 0 1-10.672 10.65z" class="a"/><path d="m55.03 25.943 13.405 20.672-21.659 5.001L33.404 69.4 19.999 48.728l21.659-5.001z" class="a"/><ellipse cx="141.68" cy="135.69" class="a" rx="30.318" ry="30.364"/><path d="M147.2 122.34a7.811 7.823 0 1 1-7.811 7.823 7.811 7.823 0 0 1 7.811-7.823zm-5.52 13.35-11.882 11.904m2.992-2.994 3.66 3.67" class="a"/></g></svg>