<?xml version="1.0" encoding="UTF-8"?>
<svg id="vector" version="1.1" viewBox="0 0 192 192" xmlns="http://www.w3.org/2000/svg">
 <path id="path" d="m111.46 171.07c-9.221-2.888-15.342-11.508-15.332-21.59 0.01-9.297 2.749-12.725 14.967-18.721 9.638-4.73 12.976-7.592 15.777-13.526 1.579-3.347 1.772-4.573 1.722-10.962-0.045-5.697-0.439-8.477-1.893-13.36-3.72-12.492-11.862-25.909-14.776-24.348-0.672 0.36-2.171 3.328-3.371 6.675-2.282 6.368-4.732 10.053-12.431 18.701-14.085 15.82-17.185 28.308-9.73 39.197 8.569 12.515 6.133 18.603-5.673 14.184-7.985-2.989-13.914-9.887-17.178-19.983-2.398-7.418-3.046-20.582-1.432-29.11 2.104-11.124 7.749-22.451 17.269-34.651 7.88-10.099 10.867-15.385 13.04-23.075 2.322-8.219 3.23-9.996 5.784-11.317 1.131-0.585 4.084-2.903 6.563-5.15 7.519-6.818 8.357-6.314 16.582 9.958 5.395 10.674 9.937 17.827 15.227 23.979 11.449 13.315 18.914 25.892 21.895 36.892 2.906 10.726 2.897 27.909-0.021 38.623-4.058 14.897-13.824 28.017-25.333 34.033-8.316 4.348-15.4 5.509-21.656 3.551zm-74.455-59.489c-2.521-3.364-4.484-7.61-5.318-11.502-0.82-3.823-0.298-8.432 0.908-8.03 0.794 0.265 5.285 10.824 7.005 16.471 1.615 5.303 0.272 6.887-2.595 3.061zm6.402-10.94c-1.74-2.862-2.309-6.884-1.921-13.581 0.257-4.452 0.75-6.295 2.779-10.399 3-6.066 6.47-10.238 10.464-12.58 3.605-2.113 6.033-1.999 6.358 0.3 0.137 0.967-1.714 5.638-4.615 11.647-3.287 6.807-5.486 12.498-6.841 17.702-1.099 4.218-2.198 7.995-2.444 8.392-0.837 1.355-2.438 0.728-3.78-1.481z" fill="none" stroke="#000" stroke-linecap="round" stroke-linejoin="round" stroke-width="8"/>
</svg>
