<svg xmlns="http://www.w3.org/2000/svg" width="192" height="192">
  <path fill-opacity=".401" d="M38.778 78.219v50.268h14.2v.002h44.384l6.827-11.829.001-.002c.74-1.27 2.298-1.788 3.632-1.284l.013.005 8.194 3.307 3.23-1.883v-11.002H52.977V78.218z" paint-order="stroke fill markers"/>
  <path fill="#000" d="M38.428 15.998c-7.035 0-12.732 5.974-12.715 13.335V162.62c0 7.361 5.696 13.335 12.73 13.335h84.235c-.254-.36-.44-.77-.517-1.22l-.003-.017-1.235-8.729-4.9-2.856-8.183 3.303-.002.001c-1.353.541-2.919-.012-3.654-1.275v-.002l-1.306-2.263H79.477v-31.958h17.366a2.947 2.947 0 0 1 .322-2.117v-.001l.192-.33H38.77V80.742a2.462 2.462 0 0 1 2.448-2.462l11.753-.063v27.584h66.283v11.004l1.67-.973 1.235-8.729.003-.017a2.999 2.999 0 0 1 2.943-2.492h7.207V43.208c0-.735-26.523-27.21-26.523-27.21zm16.99 62.22H77.03v25.136H55.42zm24.06 0H99.26v25.136H79.477zm22.23 0h15.049a2.448 2.448 0 0 1 2.448 2.448v22.688h-17.497zm-62.938 52.72h14.2v31.958H41.22a2.448 2.448 0 0 1-2.449-2.448zm16.649 0h21.61v31.958H55.42z"/>
  <g fill="none" fill-opacity="0" stroke-width="0" paint-order="stroke fill markers">
    <path d="M55.426 78.219h21.61v25.135h-21.61zM79.483 78.219h19.782v25.135H79.483zM38.778 130.94h14.2v31.958a14.605 14.605 46.57 0 1-14.2-15zM55.425 130.94h21.61v31.958h-21.61zM79.483 130.94h32.643v31.958H79.483z"/>
    <path d="M41.226 78.219a2.448 2.448 0 0 0-2.448 2.448v47.822h80.48v-22.687H52.978V78.22z"/>
    <path d="M101.71 78.219h2.497a15 15 45 0 1 15 15v10.135H101.71z"/>
  </g>
  <path d="M166.13 0c-5.375 0-9.783 3.977-10.643 9.03l-8.063 56.976-36.334 21.176-53.535-21.607c-4.837-1.827-10.428 0-13.115 4.623l-43 74.498c-2.687 4.623-1.504 10.427 2.58 13.76l45.366 35.582v41.926L4.02 271.546c-4.085 3.225-5.268 9.03-2.58 13.76l43 74.498c2.687 4.623 8.277 6.558 13.114 4.623l53.535-21.607 36.334 21.176 8.063 56.977c.86 5.053 5.268 9.03 10.643 9.03h86c5.375 0 9.783-3.977 10.643-9.03l8.063-56.977 36.336-21.176 53.535 21.607c4.837 1.828 10.426 0 13.113-4.623l43-74.498c2.687-4.622 1.506-10.427-2.579-13.76l-45.365-35.582v-41.926l45.473-35.582c4.085-3.225 5.268-9.03 2.58-13.76l-43-74.498c-2.687-4.622-8.277-6.558-13.114-4.623L307.28 87.182l-36.336-21.176L262.88 9.03C261.913 3.977 257.506 0 252.131 0zm43.055 87c70.478 0 128.05 57.54 128.05 128s-57.571 128-128.05 128-128.05-57.54-128.05-128 57.573-128 128.05-128zm0 40.051c-48.843 0-88 39.144-88 87.949s39.157 87.949 88 87.949 88-39.144 88-87.949-39.157-87.949-88-87.949zm0 27.949a60 60 0 0 1 60 60 60 60 0 0 1-60 60 60 60 0 0 1-60-60 60 60 0 0 1 60-60z" color="#000" style="-inkscape-stroke:none" transform="translate(97.995 105.82) scale(.16322)"/>
  <path fill="none" d="M38.778 78.219h60.488v84.676H38.778z" paint-order="stroke fill markers"/>
  <g paint-order="stroke fill markers">
    <g fill-opacity=".401">
      <path d="M38.778 130.94h14.2v31.959h-14.2zM55.426 130.94h21.61v31.956h-21.61zM55.426 78.219h21.61v25.133h-21.61zM79.484 78.219h19.782v25.133H79.484zM101.71 78.218h17.497v25.137H101.71zM79.483 130.94v32.053h23.456l-5.771-10-.003-.004c-.727-1.28-.41-2.913.728-3.81v-.003l6.938-5.44v-5.653l-6.945-5.447-.009-.008a3.002 3.002 0 0 1-1.027-1.69z"/>
      <path d="M132.14 120.02c-11.499 0-20.892 9.392-20.892 20.892s9.392 20.892 20.892 20.892c11.499 0 20.892-9.392 20.892-20.892s-9.392-20.892-20.892-20.892zm0 6.528a14.314 14.314 0 0 1 14.363 14.363c0 7.971-6.392 14.363-14.363 14.363s-14.363-6.392-14.363-14.363a14.314 14.314 0 0 1 14.363-14.363z" color="#000" style="-inkscape-stroke:none"/>
    </g>
    <circle cx="132.14" cy="140.91" r="9.793" fill-opacity=".398"/>
  </g>
</svg>
