<svg xmlns="http://www.w3.org/2000/svg" width="192" height="192" viewBox="0 0 192 192"><path fill="none" stroke="#000" stroke-linecap="round" stroke-linejoin="round" stroke-width="8" d="M20.135 171.3c-.15-.388-.18-21.515-.067-46.948.2-45.357.224-46.335 1.306-51.158 1.21-5.395 3.777-12.869 5.774-16.808C33.015 44.81 44.79 33.039 56.37 27.173c4.08-2.067 11.525-4.592 16.813-5.703 6.143-1.29 27.72-1.928 37.184-1.098 12.993 1.139 24.59 5.488 34.402 12.899a422.117 422.117 0 0 0 3.686 2.76c.91.664 1.524.169 8.75-7.043l7.77-7.757 5.78 5.778-7.76 7.769c-7.213 7.223-7.708 7.837-7.044 8.746.393.538 1.635 2.197 2.76 3.686 7.324 9.687 11.815 21.548 12.838 33.9.593 7.166.584 21.51-.018 29.223-2.58 33.025-28.163 58.599-61.198 61.179-3.324.26-24.917.477-47.985.483-35.536.01-41.983-.096-42.213-.695zm71.811-39.948-.005-25.551-13.084 13.166v37.935h13.094l-.005-25.551zm19.523-9.566c.071-19.176-.039-34.865-.245-34.865-.205 0-3.153 2.772-6.55 6.16l-6.176 6.16v57.69l12.842-.28zm-38.656 19.257c0-8.445-.171-15.356-.38-15.356s-7.29 6.91-15.736 15.356L41.343 156.4h31.47zm53.865 11.394 4.303-1.902.128-41.624c.071-22.893.027-41.624-.098-41.624s-3.067 2.888-6.538 6.419l-6.31 6.419-.013 37.446-.012 37.446 2.119-.339c1.165-.186 4.054-1.195 6.42-2.241zm-60.412-32.914c0-.21-6.912-.38-15.36-.38h-15.36v31.46l15.36-15.35c8.448-8.441 15.36-15.52 15.36-15.73zm79.202 18.227c3.882-4.802 7.783-12.316 9.529-18.356 1.125-3.893 1.164-4.664 1.164-23.159 0-18.429-.042-19.277-1.15-23.1-.632-2.184-1.83-5.57-2.663-7.525-1.68-3.944-6.825-11.917-7.692-11.917-.305 0-1.977 1.41-3.715 3.132l-3.162 3.132v85.496l2.14-1.743c1.178-.96 3.675-3.64 5.55-5.96zm-66.69-30.313c3.195-3.115 6.107-5.93 6.47-6.257.363-.326.66-.723.66-.881s-11.331-.288-25.181-.288H35.546v13.09h37.422zM98.962 87.3c3.484-3.392 6.411-6.339 6.504-6.548.093-.21-15.544-.323-34.749-.252l-34.918.13-.14 6.419-.142 6.419h57.111zm19.935-20.015 6.535-6.548-84.02.258-1.903 4.301c-1.047 2.366-2.056 5.255-2.242 6.42l-.339 2.117h75.433zm16.225-16.219c1.739-1.722 3.161-3.377 3.161-3.676 0-1.615-11.343-7.959-17.375-9.718-7.016-2.045-8.92-2.185-27.195-1.99-17.487.187-17.66.2-22.056 1.553-4.541 1.4-9.558 3.678-13.29 6.037-2.836 1.792-9.42 7.571-10.744 9.429l-1.067 1.497h85.404z"/></svg>