<?xml version="1.0" encoding="UTF-8"?>
<svg id="SVGRoot" width="192px" height="192px" version="1.1" viewBox="0 0 192 192" xmlns="http://www.w3.org/2000/svg">
 <path d="m20.135 171.3c-0.14912-0.38849-0.17945-21.515-0.0674-46.948 0.19984-45.357 0.22481-46.335 1.3062-51.158 1.2096-5.3947 3.7771-12.869 5.7738-16.808 5.8676-11.576 17.643-23.347 29.222-29.213 4.0804-2.0671 11.525-4.5923 16.813-5.7031 6.1429-1.2903 27.721-1.9275 37.184-1.0981 12.993 1.1388 24.591 5.488 34.402 12.899 1.4895 1.1253 3.1484 2.3673 3.6863 2.76 0.90937 0.66389 1.5239 0.16923 8.7493-7.0426l7.7712-7.7567 5.7794 5.7776-7.7591 7.7688c-7.2141 7.2232-7.7089 7.8375-7.0448 8.7466 0.39285 0.53777 1.6352 2.1961 2.7609 3.6852 7.3232 9.6877 11.814 21.548 12.837 33.9 0.59328 7.1665 0.58434 21.511-0.0182 29.223-2.5803 33.025-28.163 58.599-61.198 61.179-3.3238 0.25953-24.917 0.47702-47.985 0.48331-35.536 0.01-41.983-0.0965-42.213-0.69493zm71.811-39.948-5e-3 -25.551-13.084 13.166v37.935h13.094l-5e-3 -25.551zm19.523-9.5657c0.0712-19.176-0.0388-34.865-0.24453-34.865-0.20564 0-3.1533 2.7719-6.5504 6.1598l-6.1765 6.1598v57.691l12.842-0.28181zm-38.656 19.257c0-8.4455-0.17136-15.356-0.38081-15.356s-7.2901 6.91-15.735 15.356l-15.354 15.356h31.47zm53.865 11.394 4.3026-1.9028 0.12881-41.624c0.0709-22.893 0.0265-41.624-0.0986-41.624-0.12506 0-3.0672 2.8886-6.538 6.4191l-6.3107 6.4191-0.0119 37.446-0.0119 37.446 2.1185-0.33866c1.1652-0.18626 4.0546-1.1949 6.4211-2.2414zm-60.412-32.914c0-0.20937-6.9121-0.38068-15.36-0.38068h-15.36v31.46l15.36-15.349c8.4481-8.4421 15.36-15.521 15.36-15.73zm79.202 18.227c3.8823-4.8021 7.7831-12.316 9.529-18.356 1.1255-3.8936 1.1643-4.6646 1.1643-23.159 0-18.429-0.0422-19.277-1.1501-23.101-0.63256-2.1831-1.8311-5.5691-2.6634-7.5243-1.679-3.9443-6.8247-11.917-7.6914-11.917-0.3051 0-1.9772 1.4094-3.7159 3.1321l-3.1611 3.1321v85.496l2.1404-1.7436c1.1772-0.95897 3.6739-3.6405 5.5483-5.9589zm-66.69-30.313c3.1953-3.1152 6.1067-5.9309 6.4696-6.2573 0.36295-0.32636 0.65991-0.72283 0.65991-0.88106s-11.331-0.28769-25.181-0.28769h-25.181v13.09h37.422zm20.184-20.138c3.4842-3.3921 6.411-6.3388 6.504-6.5484 0.093-0.20958-15.544-0.32286-34.749-0.25173l-34.918 0.12932-0.14095 6.4191-0.14095 6.4191h57.111zm19.935-20.015 6.5354-6.5479-84.02 0.25756-1.9033 4.3013c-1.0468 2.3657-2.0558 5.2543-2.2421 6.4191l-0.33877 2.1178h75.433zm16.225-16.219c1.7386-1.7226 3.1611-3.3772 3.1611-3.6768 0-1.6144-11.343-7.9584-17.375-9.7171-7.0158-2.0458-8.921-2.1852-27.195-1.9901-17.487 0.18671-17.661 0.19896-22.056 1.553-4.5414 1.3993-9.558 3.678-13.291 6.0371-2.8354 1.792-9.4196 7.5706-10.743 9.4284l-1.0667 1.4976h85.404z" fill="none" stroke="#000" stroke-linecap="round" stroke-linejoin="round" stroke-width="8"/>
</svg>
