<svg xmlns="http://www.w3.org/2000/svg" width="192" height="192" viewBox="0 0 192 192"><defs><clipPath id="j"/><clipPath id="i"><rect width="258" height="258" x=".325" y="51" fill="#fff" rx="56"/></clipPath><clipPath id="h"><rect width="258" height="258" x=".325" y="51" fill="#fff" rx="56"/></clipPath><clipPath id="g"><rect width="258" height="258" x=".325" y="51" fill="#fff" rx="56"/></clipPath><clipPath id="f"><rect width="258" height="258" x=".325" y="51" fill="#fff" rx="56"/></clipPath><clipPath id="e"><rect width="258" height="258" x=".325" y="51" fill="#fff" rx="56"/></clipPath><clipPath id="d"><rect width="258" height="258" x=".325" y="51" fill="#fff" rx="56"/></clipPath><clipPath id="b"/><clipPath id="a"><rect width="258" height="258" x=".325" y="51" fill="#fff" rx="56"/></clipPath><filter id="k" width="260.69" height="8.375" x="-2.363" y="67.313" color-interpolation-filters="sRGB" filterUnits="userSpaceOnUse"><feFlood flood-opacity="0" result="BackgroundImageFix"/><feColorMatrix in="SourceAlpha" result="hardAlpha" values="0 0 0 0 0 0 0 0 0 0 0 0 0 0 0 0 0 0 127 0"/><feOffset dy="3"/><feComposite in2="hardAlpha" operator="out"/><feColorMatrix values="0 0 0 0 0.0980392 0 0 0 0 0.780392 0 0 0 0 0.498039 0 0 0 1 0"/><feBlend in2="BackgroundImageFix" result="effect1_dropShadow_1274_59311"/><feBlend in="SourceGraphic" in2="effect1_dropShadow_1274_59311" result="shape"/></filter><filter id="c" width="260.69" height="8.375" x="-2.363" y="186.78" color-interpolation-filters="sRGB" filterUnits="userSpaceOnUse"><feFlood flood-opacity="0" result="BackgroundImageFix"/><feColorMatrix in="SourceAlpha" result="hardAlpha" values="0 0 0 0 0 0 0 0 0 0 0 0 0 0 0 0 0 0 127 0"/><feOffset dy="3"/><feComposite in2="hardAlpha" operator="out"/><feColorMatrix values="0 0 0 0 0.0980392 0 0 0 0 0.780392 0 0 0 0 0.498039 0 0 0 1 0"/><feBlend in2="BackgroundImageFix" result="effect1_dropShadow_1274_59311"/><feBlend in="SourceGraphic" in2="effect1_dropShadow_1274_59311" result="shape"/></filter></defs><g fill="none" stroke="#000" stroke-linecap="round" stroke-linejoin="round"><path stroke-width="8" d="M51.314 88.551c0-18.221 14.771-32.992 32.992-32.992h86.015c18.221 0 32.992 14.771 32.992 32.992v86.015c0 18.221-14.771 32.993-32.992 32.993H84.306c-18.221 0-32.992-14.772-32.992-32.992z" clip-path="url(#a)" transform="translate(-32.654 -34.218)"/><g stroke-width="13.579" clip-path="url(#b)" filter="url(#c)" transform="translate(20.655 16.781) scale(.58915)"><path d="M.325 189.47h255.31"/></g><g stroke-width="8" transform="translate(-32.654 -34.218)"><rect width="8.101" height="38.184" x="65.283" y="108.7" clip-path="url(#d)" rx="4.05"/><rect width="8.101" height="38.184" x="86.097" y="108.7" clip-path="url(#e)" rx="4.05"/><rect width="8.101" height="38.184" x="106.91" y="108.7" clip-path="url(#f)" rx="4.05"/><rect width="8.101" height="38.184" x="127.73" y="108.7" clip-path="url(#g)" rx="4.05"/><rect width="25.333" height="25.333" x="163.54" y="115.12" clip-path="url(#h)" rx="12.667"/><path d="M169.08 127.79a7.125 7.125 0 1 1 14.25 0 7.125 7.125 0 0 1-14.25 0z" clip-path="url(#i)"/></g><g stroke-width="13.579" clip-path="url(#j)" filter="url(#k)" transform="translate(20.655 16.781) scale(.58915)"><path d="M.325 70h255.31"/></g></g></svg>