<svg xmlns="http://www.w3.org/2000/svg" width="192" height="192" viewBox="0 0 192 192"><g fill="none" stroke="#000" stroke-linecap="round" stroke-linejoin="round" stroke-width="8"><path d="M20 52.992C20 34.771 34.771 20 52.992 20h86.015C157.228 20 172 34.771 172 52.992v86.015c0 18.221-14.772 32.992-32.993 32.992H52.992C34.771 171.999 20 157.228 20 139.007z"/><path d="M96.22 101.48 20 55.135v-1.881c0-18.363 14.939-33.25 33.367-33.25h85.265c18.599 0 33.608 15.154 33.365 33.686l-.02 1.445z"/><path d="M20.375 50.035 96 96.408l75.671-46.33.234 3.198v2.525L96 102.273 20.096 55.8v-2.819z"/><path d="M96 125.58 20.096 79.109v5.864l126.54 79.506 3.447-3.009 2.64-1.121-51.966-31.816 71.149-43.56v-5.864z"/></g></svg>