<?xml version="1.0" encoding="UTF-8"?>
<svg width="192" height="192" version="1.1" viewBox="0 0 192 192" xmlns="http://www.w3.org/2000/svg" xmlns:xlink="http://www.w3.org/1999/xlink">
 <g transform="matrix(.70654 0 0 .70654 3580.4 548.77)">
  <g transform="matrix(.92596 0 0 .92596 -179.52 -54.231)">
   <clipPath>
    <use width="100%" height="100%" overflow="visible" xlink:href="#SVGID_1_-4"/>
   </clipPath>
  </g>
 </g>
 <path d="m176 60.325-20.348 0.19556 0.0286-11.894-11.922 4e-3v-11.922h-60.938l-3.6535-4.6922h-63.167v-9.2819h160" fill-opacity=".59628" stroke-width=".18628"/>
 <path d="m16 60.324v108.94h160v-108.94h-160zm55.762 0.033203c10.109 0.2214 19.662 4.5998 25.822 12.811l1.4492 2.0723-10.975 13.061c2.6753 1.6765 4.966 3.6449 7.125 5.9258 13.634 14.323 11.691 34.781-2.3047 48.834-18.984 19.573-50.164 3.6684-58.154-11.541l-0.97461-2.334 8.1992-9.543-2.1855-2.8945c-11.765-15.334-6.718-34.129 5.8848-47.049 7.8389-6.4959 17.193-9.5372 26.113-9.3418zm-1.375 15.943c-17.308 0.41998-26.098 14.387-18.725 29.959l24.361-29.643c-1.9644-0.25972-3.8462-0.35985-5.6367-0.31641z" style="paint-order:stroke fill markers"/>
 <g stroke-width=".31372">
  <path d="m101.88 60.325-22.709-28.308h-63.167v28.308"/>
  <path d="m92.375 48.626h63.306l-0.0286 11.894-53.775-6e-3z" fill-opacity=".79899"/>
  <path d="m82.821 36.708h60.938v11.922h-51.384c-9.5538-11.922 0-4e-3 -9.5538-11.922z" fill-opacity=".70439"/>
 </g>
</svg>
