<?xml version="1.0" encoding="UTF-8"?>
<svg width="192" height="192" version="1.1" viewBox="0 0 192 192" xml:space="preserve" xmlns="http://www.w3.org/2000/svg"><path d="m16.031 143.35c8.1382 0.0843 15.541 8.2112 15.467 15.198l-15.498 9e-5zm25.155 15.199s-0.44734-4.3108-0.96795-6.3061c-3.7785-12.824-13.046-18.716-24.218-18.816v-10.255c8.3145-0.11276 16.35 3.5571 21.773 7.6258 7.2283 5.562 12.468 15.258 13.35 24.701l0.28478 3.0504-4.9604-9e-5c-2.7282-5e-5 -5.0959 0.16578-5.2616 9e-5zm19.832 0s-0.28329-2.7566-0.41714-4.7449c-0.6104-9.067-5.0055-18.706-11.825-25.936-10.491-9.2302-18.088-14.221-32.775-14.282v-10.303c12.338 0.10716 23.045 4.4111 31.024 9.6334 4.5146 3.0235 11.557 10.036 14.513 14.452 5.6958 8.5086 8.7779 17.353 9.4764 27.193l0.28301 3.9871s-10.191 0.18911-10.279 9e-5zm25.056-10.168v-10.167l89.926-9e-5v20.335h-89.926zm23.152 3.4262c1.267-1.1321 1.4758-1.6168 1.4758-3.4262 0-1.8095-0.20876-2.2942-1.4758-3.4262-3.8255-3.4181-9.5864 0.45863-7.632 5.136 1.3661 3.2695 4.9834 4.083 7.632 1.7165zm49.436 0.51774c4.6455-3.763 0.39683-10.628-5.0435-8.149-0.65169 0.29692-1.4747 1.1002-1.8288 1.7851-1.8024 3.4856 0.23539 7.1738 3.9532 7.1547 1.1664-6e-3 2.3442-0.32506 2.9192-0.79081zm-32.822-88.673h40.224v59.993h-40.225zm23.081 49.192c7.1267-2.1352 9.052-11.593 3.3748-16.577-2.1962-1.9283-3.3414-2.3383-6.5315-2.3383-5.2563 0-9.0742 3.4761-9.4448 8.5992-0.5337 7.3782 5.6129 12.41 12.602 10.316zm0.52974-31.108c2.2698-2.5179 1.4257-6.1901-1.7255-7.5068-3.166-1.3229-6.5215 0.89407-6.5215 4.3088 0 4.4866 5.2501 6.5225 8.247 3.1981zm-91.888 26.646h58.389v10.408h-48.748c-9.6403-10.408 0-1e-5 -9.6403-10.408zm-21.481-11.675v-63.335h124.57v20.338l-10.411-1.3e-4v-9.9415l-104.39-1e-5 -0.33902 56.92z" stroke-width=".45189"/></svg>
