<?xml version="1.0" encoding="UTF-8"?>
<svg id="vector" width="192" height="192" version="1.1" viewBox="0 0 192 192" xmlns="http://www.w3.org/2000/svg">
 <path d="m80.345 109.19c15.031-13.161 30.055-26.322 45.12-39.44 2.7653 2.8991 5.6488 5.6925 8.4795 8.5293-8.1529 9.4252-16.433 18.748-24.599 28.164-5.117 5.7422-10.094 11.612-15.236 17.329-4.3922-4.4015-8.8062-8.7844-13.205-13.177-0.33911-0.37642-1.2784-0.927-0.55991-1.4061zm-0.80565-79.762c13.842-2.8804 28.456-2.0841 41.866 2.4294 12.038 3.9878 23.04 10.977 31.915 20.023 8.6444 8.9306 15.27 19.846 18.984 31.719 4.5477 14.359 4.8961 30.005 1.0607 44.566-3.5803 13.578-10.812 26.198-20.807 36.071-3.8168-3.7701-7.6116-7.5744-11.357-11.419 9.1856-9.1763 15.516-21.193 17.73-33.996 2.2054-12.408 0.63768-25.473-4.5041-36.985-5.0486-11.382-13.522-21.224-24.039-27.893-12.206-7.8886-27.193-11.298-41.617-9.615-12.33 1.3375-24.207 6.4359-33.707 14.405-10.965 9.0955-18.773 21.955-21.619 35.931-3.1448 14.894-0.74347 30.91 6.7687 44.165 2.8369 5.1419 6.4856 9.8016 10.573 14.004-3.7016 3.8914-7.565 7.649-11.382 11.435-7.3597-7.4436-13.366-16.259-17.339-25.958-6.7625-16.188-7.8855-34.624-3.3004-51.543 4.1091-15.338 12.993-29.327 25.037-39.66 10.144-8.8093 22.589-14.925 35.735-17.678z" fill="#010101" fill-rule="evenodd" stroke-width=".31106"/>
</svg>
