<?xml version="1.0" encoding="UTF-8"?>
<svg id="SVGRoot" width="192px" height="192px" version="1.1" viewBox="0 0 192 192" xml:space="preserve" xmlns="http://www.w3.org/2000/svg"><path d="m53.702 171.63c-0.49743-0.24567-8.1988-7.7587-17.114-16.696-14.116-14.15-16.235-16.39-16.409-17.339-0.46692-2.5582-3.8206 0.96761 57.079-60.01 45.714-45.773 57.083-57.008 57.955-57.272 2.6145-0.79175 1.8614-1.421 19.889 16.619 14.421 14.431 16.548 16.673 16.72 17.624 0.46249 2.5599 3.8007-0.95132-56.933 59.884-33.561 33.617-57.112 56.987-57.677 57.233-1.223 0.53275-2.3713 0.51826-3.5103-0.0442zm-4.2092-29.005-12.387-12.398-6.3896 6.3741 24.774 24.797 6.3896-6.3741zm86.768-86.837-12.387-12.397-23.855 23.871 7.5998 7.6521c8.08 8.1356 8.2507 8.3694 7.8249 10.719-0.1715 0.94632-2.007 2.9063-13.901 14.844-7.5367 7.5644-14.064 13.945-14.504 14.178-1.0283 0.54528-3.0081 0.54489-4.0353-8.9e-4 -0.4407-0.23413-4.0719-3.7084-8.0693-7.7207l-7.268-7.295-24.187 24.198 12.388 12.399 12.388 12.399 80.394-80.449zm-73.304 74.762c-1.3429-0.886-1.9667-2.0728-1.9667-3.742 0-2.6126 1.6879-4.3016 4.2986-4.3016 2.6108 0 4.2986 1.689 4.2986 4.3016s-1.6879 4.3016-4.2986 4.3016c-0.95552 0-1.7856-0.19921-2.3319-0.55963zm61.423-61.465c-1.3306-0.87786-1.9665-2.0752-1.9687-3.7069-4e-3 -2.5864 1.7554-4.39 4.281-4.39 2.6127 0 4.3238 1.7387 4.3202 4.39-3e-3 2.5768-1.7067 4.2665-4.3006 4.2665-0.95551 0-1.7856-0.1992-2.3319-0.55963zm-35.865 31.958 3.335-3.3468-2.1007-2.0722c-1.1554-1.1397-2.2911-2.433-2.5238-2.874-1.4068-2.6658 0.77078-6.2255 3.8083-6.2255 1.7885 0 2.347 0.32213 4.8942 2.823l2.1525 2.1133 3.2628-3.2549c1.7946-1.7902 3.2628-3.3922 3.2628-3.5599 0-0.16776-2.4379-2.7419-5.4176-5.7203l-5.4176-5.4153-19.871 19.892 5.4841 5.4939c3.0163 3.0216 5.5544 5.4939 5.6403 5.4939 0.08592 0 1.657-1.5061 3.4912-3.3468zm60.383-57.89-12.387-12.398-6.3896 6.3741 24.774 24.797 6.3896-6.3741z" fill="none" stroke="#000" stroke-linecap="round" stroke-linejoin="round" stroke-width="8"/></svg>
