<svg xmlns="http://www.w3.org/2000/svg" xml:space="preserve" width="192" height="192" viewBox="0 0 192 192"><path fill="none" stroke="#000" stroke-linecap="round" stroke-linejoin="round" stroke-width="8" d="M53.702 171.63c-.497-.246-8.199-7.759-17.114-16.696-14.116-14.15-16.235-16.39-16.409-17.339-.467-2.558-3.82.968 57.079-60.01 45.714-45.773 57.083-57.008 57.955-57.272 2.615-.792 1.861-1.421 19.889 16.619 14.421 14.431 16.548 16.673 16.72 17.624.462 2.56 3.8-.951-56.933 59.884-33.561 33.617-57.112 56.987-57.677 57.233-1.223.533-2.371.518-3.51-.044zm-4.21-29.005-12.386-12.398-6.39 6.374 24.774 24.797 6.39-6.374zm86.769-86.837-12.387-12.397-23.855 23.871 7.6 7.652c8.08 8.136 8.25 8.37 7.824 10.72-.171.945-2.007 2.905-13.9 14.843-7.537 7.564-14.065 13.945-14.505 14.178-1.028.545-3.008.545-4.035 0-.44-.235-4.072-3.71-8.07-7.721l-7.267-7.295-24.187 24.198 12.388 12.399 12.388 12.399 80.394-80.45zM62.957 130.55c-1.343-.886-1.967-2.073-1.967-3.742 0-2.613 1.688-4.302 4.299-4.302 2.61 0 4.298 1.69 4.298 4.302s-1.688 4.302-4.298 4.302c-.956 0-1.786-.2-2.332-.56zm61.423-61.465c-1.33-.878-1.967-2.075-1.969-3.707-.004-2.586 1.755-4.39 4.281-4.39 2.613 0 4.324 1.739 4.32 4.39-.003 2.577-1.706 4.267-4.3 4.267-.956 0-1.786-.2-2.332-.56zm-35.865 31.958 3.335-3.347-2.1-2.072c-1.156-1.14-2.292-2.433-2.525-2.874-1.407-2.666.771-6.225 3.809-6.225 1.788 0 2.347.322 4.894 2.823l2.152 2.113 3.263-3.255c1.795-1.79 3.263-3.392 3.263-3.56 0-.168-2.438-2.742-5.418-5.72l-5.417-5.416L73.9 93.402l5.484 5.494c3.016 3.022 5.554 5.494 5.64 5.494.086 0 1.657-1.506 3.491-3.347zm60.383-57.89L136.51 30.755l-6.39 6.374 24.774 24.797 6.39-6.374z"/></svg>