<svg xmlns="http://www.w3.org/2000/svg" width="192" height="192" viewBox="0 0 192 192"><defs><clipPath id="b"><path d="M0 0h512v512H0z"/></clipPath><clipPath id="a"><path d="M0 0h512v512H0z"/></clipPath></defs><g fill="none" fill-rule="evenodd" stroke="#000" stroke-linecap="round" stroke-linejoin="round" stroke-width="25.6"><path d="m219.94 181.41 22.96 69.36-20.81 6.89c-11.97 3.97-14.87 19.58-5.11 27.57l65.87 53.98c6.81 5.58 17.11 2.17 19.25-6.37l20.64-82.63c3.06-12.23-8.58-23.03-20.55-19.07l-21.31 7.06-27.61-83.39c36.37-23.9 79.9-37.81 126.67-37.81 127.55 0 230.94 103.4 230.94 230.94 0 127.55-103.39 230.94-230.94 230.94C252.4 578.88 149 475.49 149 347.94c0-65.43 27.21-124.51 70.94-166.53zm196.64 166.34c0 19.95-16.18 36.12-36.13 36.12s-36.12-16.17-36.12-36.12 16.17-36.13 36.12-36.13 36.13 16.18 36.13 36.13z" clip-path="url(#a)" transform="translate(10.691 16) scale(.3125)"/><path d="M51.07-42.56c6.89-8.63 19.47-10.04 28.11-3.15l113.91 90.95a139.976 139.976 0 0 1 45.55 65.4l14.63 44.17a231.937 231.937 0 0 0-33.33 26.6l-19.27-58.2a100.03 100.03 0 0 0-32.54-46.71L54.22-14.45c-8.63-6.89-10.04-19.47-3.15-28.11z" clip-path="url(#b)" transform="translate(10.691 16) scale(.3125)"/></g></svg>