<?xml version="1.0" encoding="UTF-8"?>
<svg id="SVGRoot" width="192px" height="192px" version="1.1" viewBox="0 0 192 192" xml:space="preserve" xmlns="http://www.w3.org/2000/svg"><path d="m20 157.06c0-2.1282 0.16333-4.4387 0.36298-5.1345 0.19964-0.69581 3.942-6.9498 8.3163-13.898l7.9534-12.633v-12.411l5.9848-7.1452c5.667-6.7658 6.1219-7.2067 8.5681-8.3037 2.4598-1.1031 2.9352-1.1708 9.9376-1.4144l7.3542-0.2558 14.626-14.025 14.683-5.3943c8.0756-2.9669 14.794-5.3928 14.93-5.391 0.30491 0.0038 4.0812 8.6764 3.8677 8.8821-0.0847 0.08167-6.2758 2.5429-13.758 5.4694l-13.604 5.321-6.4807 6.8899c-6.1126 6.4986-6.4814 6.9794-6.4942 8.4662-0.01254 1.4577-0.30137 1.8651-3.839 5.4146l-3.8255 3.8383 5.2749 8.4294-0.0266 12.409-11.706 15.834-6.7435 0.10804c-6.1428 0.0984-7.0732 0.0198-10.445-0.88206-2.0357-0.54456-3.7257-0.94944-3.7556-0.89973-0.02983 0.0497-0.6767 2.4061-1.4374 5.2364l-1.3831 5.146-18.361 0.21252v-3.8694zm35.081-32.085-1.6758 2.958 1.9219-2.6624 0.39345-0.87992-6.0088 8.9964c-3.3048 4.948-4.8385 6.9488-4.719 7.0682 0.61794 0.61767 13.418-20.315 14.222-21.662 0.09993-0.16744-3.1522 4.4489-4.134 6.182zm-5.0921 8.3268c2.096-3.6693-4.2928 5.1228 8.4407-13.222-13 19.07 1.6232-2.2132-2.9545 4.4718-9.8244 14.347-7.8879 11.376-3.0633 5.5104 0 0-2.9504 3.4093-5.069 6.6732-2.5084 3.8644-1.5635 3.9362 2.6461-3.4332zm42.086 14.748v-2.1772h3.9602v-3.9585h-9.9004v-16.621l69.105-0.20226 0.10094-38.892 0.10094-38.892h-88.712v36.814h-16.65l0.10786-24.277 0.10785-24.277 1.112-1.457c0.61159-0.80136 1.8074-1.8116 2.6573-2.2451 1.5211-0.77569 2.4124-0.78804 56.878-0.78804 54.842 0 55.348 0.0066 56.998 0.80562 0.94685 0.45817 2.1536 1.5105 2.7981 2.4401l1.1333 1.6345 0.10507 49.252c0.0719 33.693-0.0272 49.743-0.31368 50.807-0.23031 0.85495-0.97233 2.1847-1.6489 2.9549-2.4804 2.8238-1.7566 2.7238-21.309 2.9434l-17.623 0.19793-0.12069 1.8803-0.12071 1.8803h4.0036v4.3543h-42.77zm22.259-42.785c-2.3581-1.1746-3.6458-2.6008-3.6458-4.0379 0-0.96095 5.8647-11.548 6.4033-11.559 0.48981-0.01022 5.8732 10.605 5.8732 11.581 0 1.2031-1.4054 2.7533-3.4151 3.7673-2.6073 1.3154-3.0335 1.3357-5.2156 0.24881z" fill="none" stroke="#000" stroke-linecap="round" stroke-linejoin="round" stroke-width="8"/></svg>
