<svg xmlns="http://www.w3.org/2000/svg" xml:space="preserve" width="192" height="192" viewBox="0 0 192 192"><path fill="none" stroke="#000" stroke-linecap="round" stroke-linejoin="round" stroke-width="8" d="M20 157.06c0-2.128.163-4.439.363-5.135.2-.695 3.942-6.95 8.316-13.898l7.954-12.632v-12.411l5.984-7.146c5.667-6.765 6.122-7.206 8.569-8.303 2.46-1.103 2.935-1.171 9.937-1.415l7.354-.256L83.103 81.84l14.683-5.394c8.076-2.967 14.794-5.393 14.93-5.39.305.003 4.082 8.675 3.868 8.881-.085.082-6.276 2.543-13.758 5.47l-13.604 5.32-6.48 6.89c-6.113 6.5-6.482 6.98-6.495 8.467-.012 1.457-.301 1.865-3.839 5.414l-3.825 3.839 5.275 8.429-.027 12.409-11.706 15.834-6.744.108c-6.142.098-7.073.02-10.445-.882-2.035-.545-3.725-.95-3.755-.9-.03.05-.677 2.406-1.438 5.237l-1.383 5.146-18.36.212v-3.87zm35.081-32.085-1.676 2.958 1.922-2.662.394-.88-6.01 8.996c-3.304 4.948-4.838 6.949-4.718 7.068.618.618 13.418-20.315 14.222-21.662.1-.167-3.152 4.45-4.134 6.182zm-5.092 8.327c2.096-3.67-4.293 5.123 8.44-13.222-13 19.07 1.624-2.213-2.954 4.472-9.824 14.347-7.888 11.376-3.063 5.51 0 0-2.95 3.41-5.07 6.673-2.508 3.865-1.563 3.936 2.647-3.433zm42.086 14.748v-2.177h3.96v-3.959h-9.9v-16.62l69.105-.203.1-38.892.102-38.892H66.73V84.12H50.08l.107-24.277.108-24.277 1.112-1.457c.612-.802 1.808-1.812 2.658-2.245 1.52-.776 2.412-.788 56.878-.788 54.842 0 55.348.006 56.998.805.946.458 2.153 1.51 2.798 2.44l1.133 1.635.105 49.252c.072 33.693-.027 49.743-.314 50.807-.23.855-.972 2.185-1.649 2.955-2.48 2.824-1.756 2.724-21.309 2.943l-17.623.198-.12 1.88-.12 1.88h4.003v4.355h-42.77zm22.259-42.785c-2.358-1.175-3.646-2.601-3.646-4.038 0-.961 5.865-11.548 6.403-11.56.49-.01 5.874 10.606 5.874 11.582 0 1.203-1.406 2.753-3.415 3.767-2.608 1.316-3.034 1.336-5.216.249z"/></svg>