<svg xmlns="http://www.w3.org/2000/svg" width="192" height="192" viewBox="0 0 192 192"><path stroke="#000" stroke-linecap="round" stroke-linejoin="round" d="m46.291 98.635 2.174 5.78c1.176 3.127 2.226 5.627 2.363 5.627l.006-.002c.15-.12 4.406-11.31 4.406-11.31h8.247l-9.95 26.252h-5.732s-6.118-16-6.093-16.061l-6.386 15.859H29.65l-9.824-26.144 8.207.005s4.496 11.539 4.555 11.539h.001l4.486-11.544h9.215M17.025 96.82l.903 2.403 9.824 26.144.463 1.231h8.515l4.915-12.206 1.208 3.176c1.527 4.009 3.057 8.01 3.057 8.01l.467 1.222h8.593l.465-1.227 9.95-26.25.912-2.407H53.81l-.466 1.225c-.746 1.96-1.736 4.548-2.582 6.738-.128-.332-.26-.682-.398-1.047l-2.174-5.78-.463-1.231H35.655l-.471 1.213-2.621 6.745a2723.72 2723.72 0 0 1-2.637-6.741l-.472-1.212-9.626-.005zM173.3 98.533l-.019 6.88s-8.185-.024-12.347-.024c-1.384 0-2.323.003-2.368.01-.717.118-1.174 1.5-.97 2.105.1.307.85 1.308 1.662 2.227.81.92 2.141 2.426 2.954 3.345 2.086 2.357 2.372 2.822 2.565 4.175.313 2.198-.835 4.577-2.966 6.146-2.136 1.574-2.043 1.585-17.9 1.585h-.696c-9.643-.002-14.744-.075-15.486-.225-1.319-.27-3.42-1.823-8.974-6.648-1.998-1.733-3.839-3.251-3.933-3.252-.002 0-.004.001-.004.004l-.066 10.122-9.001-.036-.056-26.106h20.075c6.05.198 10.145 5.656 9.33 9.136-.185.79-.656 1.935-1.048 2.543-.805 1.25-2.853 2.852-4.516 3.54-.614.252-1.116.545-1.116.65 0 .387 2.022 2.19 2.779 2.476.646.245 2.53.3 10.835.3h2.66c8.348 0 7.928-.054 8.573-1.303.451-.87.108-1.39-3.07-4.63-4.024-3.626-3.602-5.363-3.63-6.646-.057-1.537 1.28-6.373 8.227-6.373H173.3m-53.928 12.06c3.854 0 4.637-.054 5.457-.376 2.768-1.09 2.916-4.31.26-5.738-.58-.314-1.328-.365-5.506-.386l-4.834-.023c.04.034-.015 6.26-.015 6.26s1.21.264 4.638.264m55.94-13.877h-20.517c-4.02 0-6.397 1.436-7.684 2.642-2.093 1.96-2.586 4.428-2.548 5.592.002.097 0 .196 0 .3-.019 1.89.289 4.032 4.177 7.548.768.784 2.054 2.098 2.54 2.75-1.063.12-3.756.12-6.585.12h-1.202l-1.458-.001c-4.991 0-9.2-.013-10.062-.167a4.909 4.909 0 0 1-.476-.34c1.724-.962 3.468-2.452 4.289-3.727.498-.775 1.047-2.098 1.278-3.08.512-2.186-.332-4.822-2.257-7.054a12.396 12.396 0 0 0-8.963-4.276h-22.157l.004 1.82.055 26.106.004 1.804 12.998.053.012-1.814.039-6.064.569.492c6.075 5.277 8.114 6.738 9.92 7.108.496.1 1.317.266 15.928.27h.697c7.91 0 11.88 0 14.242-.207 2.705-.236 3.575-.792 4.88-1.753l.043-.032c2.679-1.973 4.093-4.957 3.69-7.788-.263-1.841-.801-2.606-2.99-5.079l-.65-.735c-.763-.863-1.684-1.905-2.3-2.606a18.862 18.862 0 0 1-1.126-1.392l1.233-.001c4.111 0 12.258.024 12.34.025l2.008.006.005-1.818.019-6.881zm-58.56 11.994.01-1.49c.001-.453.004-.908.004-1.325l2.806.013c1.612.008 4.037.02 4.51.142.604.331.94.844.904 1.375-.02.287-.171.815-.958 1.125-.439.172-1.139.226-4.657.226-1.115 0-1.976-.03-2.62-.066zm-29.29-10.286 10.103 26.319-8.232.034-1.367-3.953-14.719-.107-1.299 3.958-8.149-.078 9.975-26.162 13.688-.01m-6.62 3.858c-.02.076-1.29 3.228-2.563 6.381a1067.549 1067.549 0 0 1-2.59 6.382s0 0 0 0v0a1079.1 1079.1 0 0 1 9.91-.011s0 0 0 0v0h0c-.052-.12-4.742-12.598-4.757-12.751v-.001s0 0 0 0m8.046-5.676-1.428.001-13.688.012h-1.428l-.466 1.224-9.975 26.162-.908 2.382 2.784.026 9.662.092.43-1.313.87-2.647 11.749.085.93 2.69.442 1.28 1.481-.006 8.232-.034 2.807-.012-.921-2.401-10.103-26.319zm-10.311 16.607c.38-.937.892-2.204 1.586-3.925l.6-1.486.544 1.452c.162.433.874 2.332 1.485 3.957-1.816 0-3.182 0-4.215.002zm12.29-46.204v6.494H76.504v19.86h-8.563V73.489l-16.765.044c-2.021 0-2.292 1.457-2.292 2.016 0 .686.494 1.371 3.207 4.482 1.76 2.02 3.378 4.037 3.591 4.477 1.163 2.425-.341 6.203-3.082 7.738-1.953 1.093-1.62 1.12-16.125 1.12H18.506V86.07h24.548l.725-.456c.489-.309.772-.733.88-1.315.15-.835.073-.944-2.959-4.036-3.583-3.656-3.962-4.323-3.776-6.657.21-2.664 2.833-6.533 7.417-6.533l45.526-.061m2.006-1.82-47.535.065c-2.622 0-5.058 1.026-6.856 2.888-1.458 1.51-2.415 3.503-2.559 5.33-.244 3.068.536 4.177 4.277 7.993 1.085 1.108 2.118 2.16 2.462 2.608a.299.299 0 0 1-.013.036l-.018.012-.206.13H16.5v10.928h19.975c7.152 0 10.682-.006 12.762-.144 2.38-.158 3.14-.528 4.276-1.167l.142-.08c3.576-2.003 5.42-6.772 3.867-10.007-.479-.99-3.51-4.483-3.855-4.878-.952-1.092-2.523-2.893-2.772-3.414a.56.56 0 0 1 .03-.12c.042-.01.12-.023.251-.023l14.76-.038v19.87H78.51V75.32h14.363v-8.31zm49.627 2.031c6.5 0 11.01.084 11.878.22a8.834 8.834 0 0 1 5.178 2.775c1.422 1.557 1.748 2.302 1.933 4.436.266 3.013-1.316 5.613-4.438 7.3-.91.492-1.845.972-2.079 1.067-.358.147-.31.288.331.97a12.822 12.822 0 0 0 1.592 1.387l.843.592 15.566.202.153 7.193h-9.544c-7.382 0-9.744-.061-10.436-.272-1.036-.318-3.528-2.23-8.593-6.594l-3.616-3.115.038 9.981h-9.289V67.223H142.5m-1.368 11.754h4.932c4.8 0 4.95-.013 5.635-.479 1.223-.83 1.657-1.687 1.527-3.002-.133-1.355-.71-2.061-2.157-2.629-.815-.322-1.6-.374-5.446-.374h-4.491v6.484m1.368-13.571h-12.487v29.775h13.307l-.007-1.823-.022-5.725.21.182c6.266 5.397 8.114 6.623 9.333 6.997.936.286 2.503.37 11.08.37h11.588l-.039-1.852-.153-7.193-.037-1.756-16.834-.218-.312-.22a6.01 6.01 0 0 1-.348-.268l.302-.162c3.762-2.033 5.734-5.315 5.409-9.004-.217-2.488-.707-3.609-2.387-5.449-1.651-1.809-3.917-3.019-6.381-3.406-1.37-.215-8.245-.248-12.222-.248zm.638 8.903h2.485c3.517 0 4.214.052 4.643.222.815.32.898.475.962 1.126.064.646-.025.907-.733 1.387l-.056.038c-.467.078-2.203.078-4.375.078h-2.926zm-28.168-7.112 10.103 26.319-8.232.034-1.367-3.953-14.719-.107-1.299 3.958-8.149-.078 9.975-26.162 13.688-.01m-6.62 3.858c-.02.076-1.29 3.228-2.563 6.38a1067.549 1067.549 0 0 1-2.59 6.383s0 0 0 0v0a1073.419 1073.419 0 0 1 9.91-.012v.001h0c-.052-.12-4.742-12.599-4.757-12.752v-.001.001m8.046-5.676-1.428.001-13.688.012h-1.428l-.466 1.224-9.975 26.162-.908 2.382 2.784.026 9.662.092.43-1.313.87-2.648 11.749.085.93 2.69.442 1.28 1.481-.005 8.232-.035 2.807-.011-.921-2.401-10.103-26.32zm-10.311 16.607 1.586-3.925.6-1.486.544 1.452c.162.433.874 2.332 1.485 3.957-1.816 0-3.182 0-4.215.002z"/></svg>