<?xml version="1.0" encoding="UTF-8"?>
<svg id="SVGRoot" width="192px" height="192px" version="1.1" viewBox="0 0 192 192" xmlns="http://www.w3.org/2000/svg">
 <g stroke="#000" stroke-linecap="round" stroke-linejoin="round">
  <path d="m46.291 98.635 2.174 5.7808c1.1763 3.126 2.2264 5.626 2.3633 5.626 0.0023 0 0.0043-9.1e-4 0.0061-2e-3 0.15045-0.12034 4.4056-11.309 4.4056-11.309h8.2471l-9.9497 26.251h-5.7321s-6.1182-16-6.0932-16.061l-6.3865 15.859h-5.6744l-9.8243-26.144 8.207 5e-3s4.4957 11.539 4.5556 11.539c2.52e-4 0 2.52e-4 -2.3e-4 5.02e-4 -4.6e-4l4.4859-11.543h9.2152m-29.266-1.8177 0.90294 2.4031 9.8243 26.144 0.46263 1.2315h8.5146l4.9154-12.206c0.38214 1.0067 0.79512 2.0918 1.2081 3.1759 1.5268 4.0085 3.0569 8.0095 3.0569 8.0095l0.46739 1.2222h8.5926l0.46489-1.2267 9.9497-26.251 0.91197-2.4062h-12.487l-0.46589 1.2251c-0.74572 1.9606-1.7354 4.548-2.5817 6.7378-0.12763-0.33217-0.26053-0.68137-0.39794-1.0469l-2.1737-5.7806-0.46288-1.2308h-12.072l-0.47166 1.2136-2.6211 6.7446c-0.86583-2.2037-1.8696-4.7718-2.6369-6.7412l-0.47191-1.2111-9.6254-0.0059z"/>
  <path d="m173.3 98.533-0.0189 6.8806s-8.1852-0.0247-12.347-0.0247c-1.3844 0-2.3234 3e-3 -2.3681 0.0102-0.71714 0.11829-1.1738 1.499-0.9704 2.105 0.1 0.30651 0.85029 1.3078 1.6625 2.2273 0.80967 0.91977 2.1414 2.4251 2.9538 3.3442 2.086 2.357 2.3721 2.8222 2.5649 4.1756 0.31344 2.198-0.83474 4.5772-2.9661 6.1461-2.1358 1.5734-2.0423 1.5846-17.899 1.5846h-0.69632c-9.6438-2e-3 -14.744-0.0747-15.486-0.22455-1.3189-0.27019-3.4202-1.8232-8.9742-6.6479-1.9977-1.7337-3.8387-3.2518-3.9332-3.2522-2e-3 0-4e-3 1e-3 -4e-3 4e-3l-0.0655 10.122-9.0016-0.0361-0.0555-26.106h20.075c6.0505 0.19775 10.145 5.6557 9.3303 9.1363-0.18555 0.78989-0.65695 1.9347-1.0484 2.5429-0.8049 1.2488-2.8535 2.8517-4.5162 3.5399-0.61407 0.25157-1.1156 0.54446-1.1156 0.6489 0 0.38825 2.0213 2.1908 2.7783 2.4771 0.64668 0.24498 2.53 0.29948 10.835 0.29948 0.97339 0 1.8575 4.5e-4 2.6599 4.5e-4 8.3481 0 7.9281-0.0545 8.573-1.3035 0.45161-0.86959 0.10807-1.3895-3.0689-4.6295-4.0248-3.6262-3.6032-5.3631-3.6308-6.6459-0.0574-1.5371 1.2793-6.373 8.2275-6.373l18.505-6.8e-4m-53.928 12.061c3.854 0 4.6363-0.0543 5.4565-0.3769 2.7682-1.0898 2.9162-4.3091 0.26078-5.7377-0.5815-0.31355-1.329-0.36532-5.5064-0.38598l-4.8342-0.0229c0.0398 0.0341-0.0153 6.2597-0.0153 6.2597s1.2109 0.26383 4.6386 0.26383m55.939-13.877h-20.516c-4.02 0-6.3978 1.4368-7.6844 2.6421-2.093 1.9601-2.586 4.4283-2.5481 5.5919 2e-3 0.0969 7.6e-4 0.19639-5.1e-4 0.30015-0.0183 1.8911 0.28936 4.0319 4.1772 7.5484 0.76854 0.78376 2.0544 2.0977 2.5403 2.7507-1.0627 0.11829-3.7562 0.11829-6.5851 0.11829h-1.2016l-1.4583-4.5e-4c-4.9909 0-9.1994-0.0129-10.062-0.16711-0.12061-0.0713-0.28985-0.1939-0.4759-0.34011 1.7244-0.96155 3.4678-2.4519 4.2888-3.7263 0.49824-0.77491 1.0476-2.0986 1.2783-3.0806 0.51152-2.1853-0.33223-4.8216-2.257-7.0539-2.2457-2.6045-5.5127-4.1627-8.9632-4.2753l-0.0364-1e-3h-22.121l4e-3 1.8202 0.0555 26.106 4e-3 1.8048 12.998 0.0521 0.0118-1.8136 0.0389-6.0635c0.1838 0.15802 0.37387 0.32218 0.56895 0.49155 6.0749 5.2766 8.1139 6.7385 9.9201 7.1084 0.49623 0.10013 1.3172 0.2661 15.928 0.26973h0.69683c7.9101 0 11.88 0 14.242-0.20661 2.7053-0.23681 3.5754-0.79239 4.8798-1.7539l0.0434-0.032c2.6792-1.9724 4.093-4.9564 3.6897-7.7877-0.26278-1.8413-0.80088-2.6063-2.9894-5.0786l-0.65045-0.73563c-0.76227-0.86255-1.6833-1.9042-2.3006-2.6054-0.49799-0.56398-0.88916-1.0646-1.1251-1.3925 0.30992-6.8e-4 0.71236-1e-3 1.2332-1e-3 4.111 0 12.258 0.0245 12.34 0.025l2.008 6e-3 5e-3 -1.8182 0.0188-6.8809zm-58.559 11.994c3e-3 -0.45886 6e-3 -0.97335 9e-3 -1.4887 2e-3 -0.4541 5e-3 -0.9091 5e-3 -1.326l2.8051 0.0132c1.612 8e-3 4.0378 0.02 4.5107 0.14145 0.60355 0.33172 0.9403 0.84462 0.90369 1.3759-0.0201 0.28699-0.171 0.81465-0.95811 1.1241-0.43881 0.17256-1.1384 0.22637-4.6564 0.22637-1.1158 0-1.9766-0.0293-2.62-0.0663z"/>
  <path d="m87.462 98.426 10.103 26.319-8.232 0.0341-1.3666-3.9529-14.719-0.10694-1.2989 3.9576-8.1493-0.0774 9.9747-26.162 13.688-0.0113m-6.62 3.8589c-0.02082 0.0756-1.2898 3.2284-2.5631 6.3809-1.2838 3.1786-2.5719 6.3573-2.5897 6.382 0 2.3e-4 -2.5e-4 2.3e-4 0 2.3e-4v-2.3e-4c0.03411-9e-3 4.5927-0.0182 7.5144-0.0182 1.3673 0 2.3758 2e-3 2.3946 7e-3 2.5e-4 9.1e-4 2.5e-4 1e-3 2.5e-4 1e-3v-6.8e-4l-2.5e-4 -4.6e-4c-0.05115-0.12011-4.7414-12.598-4.7562-12.751 2.5e-4 -9.1e-4 2.5e-4 -1e-3 2.5e-4 -1e-3 -2.5e-4 0-2.5e-4 4.6e-4 -2.5e-4 1e-3m8.046-5.6764-1.4275 1e-3 -13.688 0.0116-1.4283 1e-3 -0.46614 1.2229-9.9747 26.162-0.90846 2.3826 2.7838 0.0261 9.6621 0.0917 0.43104-1.3128 0.86909-2.6478 11.749 0.0851 0.92977 2.69 0.44257 1.2801 1.4812-6e-3 8.2318-0.0341 2.8071-0.0118-0.92175-2.4008-10.103-26.319zm-10.311 16.607c0.37988-0.93747 0.89166-2.2046 1.5865-3.9254 0.2179-0.53946 0.41724-1.0333 0.60004-1.486 0.16625 0.4441 0.34728 0.92726 0.54387 1.4526 0.16198 0.43275 0.87386 2.3318 1.4844 3.957-1.8154 0-3.182 2.2e-4 -4.2148 2e-3z"/>
  <path d="m90.867 67.012v6.4935h-14.363v19.86h-8.563v-19.876l-16.765 0.04314c-2.021 0-2.2918 1.4576-2.2918 2.0162 0 0.68568 0.49397 1.3714 3.2071 4.4819 1.7602 2.0207 3.3776 4.0369 3.5907 4.4774 1.1635 2.4249-0.34102 6.2029-3.0817 7.7377-1.9533 1.0928-1.6196 1.1196-16.125 1.1196h-2.355-15.614v-7.295h24.548l0.72466-0.45636c0.48896-0.30878 0.7723-0.73336 0.88012-1.3146 0.15045-0.83553 0.07272-0.94451-2.9588-4.0369-3.5832-3.6554-3.9618-4.323-3.7763-6.657 0.21063-2.6633 2.8334-6.5321 7.4171-6.5321l45.526-0.06153m2.006-1.8191-47.535 0.064c-2.6223 0-5.0578 1.0258-6.8559 2.8885-1.4578 1.5103-2.4147 3.5031-2.5591 5.3304-0.24398 3.0676 0.53585 4.1761 4.2767 7.9925 1.0857 1.1073 2.1181 2.1606 2.4626 2.6079-0.0056 0.01794-0.01053 0.02952-0.01355 0.0361-0.0038 0.0027-0.0095 0.0068-0.01755 0.01181l-0.20612 0.12987h-25.925v10.928h19.975c7.1518 0 10.682-6e-3 12.762-0.14417 2.3796-0.1578 3.1389-0.52743 4.2762-1.167l0.14192-0.0797c3.5762-2.0028 5.4192-6.7721 3.867-10.007-0.47893-0.98947-3.5112-4.4833-3.8555-4.8783-0.95184-1.0914-2.523-2.8926-2.7718-3.4139 0.0061-0.04382 0.01781-0.08923 0.03034-0.12079 0.04137-0.0095 0.12061-0.02225 0.251-0.02225l14.759-0.03792v19.87h12.575v-19.86h14.363v-8.3099z"/>
  <path d="m142.5 67.223c6.4996 0 11.01 0.08401 11.878 0.22024 2.006 0.31559 3.8189 1.2851 5.1779 2.7745 1.4217 1.5575 1.7477 2.3022 1.9333 4.4365 0.26604 3.0129-1.3164 5.6126-4.4382 7.2995-0.91021 0.49269-1.8453 0.97176-2.0787 1.0671-0.35858 0.14758-0.31068 0.28835 0.33098 0.96949 0.41348 0.4382 1.1309 1.0626 1.5922 1.3873l0.84251 0.59259 15.566 0.20207 0.1527 7.1928h-9.5437c-7.3818 0-9.744-0.0613-10.436-0.27245-1.0356-0.31787-3.5278-2.2296-8.5934-6.5934l-3.6158-3.1151 0.0381 9.981h-9.2884v-26.142h10.482m-1.3686 11.754h4.9324c4.7996 0 4.9495-0.01362 5.6343-0.47907 1.2239-0.83099 1.6572-1.687 1.5273-3.0016-0.13291-1.3555-0.70963-2.0616-2.1567-2.6292-0.81494-0.3224-1.6-0.37463-5.4465-0.37463h-4.4909v6.4844m1.3686-13.571h-12.487v29.775h13.307l-7e-3 -1.8227-0.0221-5.7252 0.21064 0.18141c6.2652 5.3976 8.1132 6.6236 9.3323 6.9978 0.93604 0.28585 2.503 0.36872 11.08 0.36872h11.588l-0.0392-1.8513-0.1527-7.1928-0.0372-1.756-16.834-0.21842-0.31218-0.21955c-0.0993-0.07016-0.21966-0.16279-0.34829-0.26769 0.11184-0.05994 0.21413-0.11511 0.30266-0.16279 3.762-2.0327 5.7336-5.3145 5.4084-9.0031-0.2164-2.4882-0.70711-3.6091-2.3871-5.4491-1.6509-1.8093-3.9169-3.0193-6.3808-3.4068-1.3691-0.21501-8.2448-0.24725-12.222-0.24725zm0.6374 8.9025h2.4849c3.5172 0 4.2141 0.0529 4.6434 0.22273 0.81492 0.31968 0.89768 0.47475 0.96161 1.1255 0.0642 0.64663-0.0243 0.90682-0.73268 1.3877-0.0233 0.01567-0.0411 0.02793-0.0558 0.03769-0.46765 0.07833-2.2031 0.07833-4.3748 0.07833h-2.9262z"/>
  <path d="m114.97 67.197 10.103 26.319-8.232 0.0341-1.3666-3.9529-14.719-0.10694-1.2989 3.9576-8.1493-0.0774 9.9747-26.162 13.688-0.01135m-6.62 3.8589c-0.0208 0.07561-1.2898 3.2284-2.5631 6.3809-1.2838 3.1786-2.5719 6.3573-2.5897 6.382 0 2.27e-4 -2.5e-4 2.27e-4 0 2.27e-4v-2.27e-4c0.0341-0.0091 4.5927-0.01816 7.5144-0.01816 1.3673 0 2.3758 2e-3 2.3946 0.0066 2.5e-4 9.09e-4 2.5e-4 0.0011 2.5e-4 0.0011v-6.82e-4l-2.5e-4 -4.54e-4c-0.0512-0.12011-4.7414-12.598-4.7562-12.751 2.5e-4 -9.08e-4 2.5e-4 -0.0014 2.5e-4 -0.0014-2.5e-4 0-2.5e-4 4.54e-4 -2.5e-4 0.0014m8.046-5.6764-1.4275 0.0011-13.688 0.01158-1.4283 0.0011-0.46614 1.2229-9.9747 26.162-0.90846 2.3826 2.7838 0.0261 9.6621 0.0917 0.43104-1.3128 0.86909-2.6478 11.749 0.0851 0.92977 2.69 0.44258 1.2801 1.4812-6e-3 8.2318-0.0341 2.8071-0.0118-0.92174-2.4008-10.103-26.319zm-10.311 16.607c0.37989-0.93747 0.89166-2.2046 1.5865-3.9254 0.2179-0.53946 0.41725-1.0333 0.60004-1.486 0.16625 0.4441 0.34729 0.92726 0.54388 1.4526 0.16198 0.43275 0.87386 2.3318 1.4844 3.957-1.8154 0-3.182 2.27e-4 -4.2148 0.0018z"/>
 </g>
</svg>
