<?xml version="1.0" encoding="UTF-8"?>
<svg id="SVGRoot" width="192px" height="192px" version="1.1" viewBox="0 0 192 192" xmlns="http://www.w3.org/2000/svg">
 <path d="m20.246 170.54c0.22533-0.92366 0.79494-2.7476 1.2658-4.0532 0.47087-1.3056 3.2137-9.3745 6.0951-17.931l5.239-15.557-2.8336-5.6252c-16.627-33.008-5.8469-74.107 24.826-94.652 13.71-9.1828 25.628-12.737 42.658-12.722 7.9508 7e-3 10.861 0.25553 15.588 1.3305 27.659 6.2898 49.228 26.748 56.365 53.464 5.9532 22.282 1.3926 45.666-12.513 64.156-10.797 14.357-25.737 23.861-44.333 28.204-3.7444 0.87436-7.0416 1.1027-15.701 1.0874-14.403-0.0255-17.328-0.70459-35.031-8.1315-1.3415-0.5628-4.1589 0.1711-20.44 5.3244-10.386 3.2875-19.495 6.159-20.241 6.3811-1.2443 0.37053-1.3224 0.2653-0.94654-1.2755zm87.421-12.937c21.006-3.6693 38.601-16.637 47.533-35.032 3.3978-6.9978 4.8949-11.752 5.9802-18.991 1.1158-7.4428 1.1199-11.526 0.0188-18.843-1.9784-13.147-7.7131-24.803-17.044-34.643-16.423-17.318-40.654-24.149-63.963-18.034-22.112 5.8012-39.993 23.783-45.918 46.176-1.3128 4.9618-1.533 7.0759-1.5885 15.255-0.0917 13.502 1.9531 21.482 8.4865 33.12l2.9346 5.2273-4.0933 11.924c-2.2513 6.5583-3.9529 12.152-3.7813 12.43 0.17158 0.27809 0.76237 0.27473 1.3128-7e-3 0.55048-0.28219 6.2398-2.162 12.643-4.1772l11.642-3.6641 3.84 2.1143c12.304 6.7744 28.421 9.5166 41.997 7.1452zm-45.718-35.032v-3.8575h67.542v7.715h-67.542zm21.65-25.387c-6.694-6.6893-12.171-12.34-12.171-12.556 0-0.21657 3.4454-0.35212 7.6563-0.30119 4.211 0.0509 7.9595-0.0951 8.3301-0.3245 0.46975-0.29081 0.65111-3.8588 0.59898-11.784-0.0411-6.252-0.0571-11.835-0.0354-12.406 0.0354-0.93539 0.82673-1.0386 7.9658-1.0386h7.9265l0.0236 12.513c0.013 6.8823 0.16317 12.653 0.3337 12.824s3.7916 0.26847 8.0467 0.21701c4.2552-0.0515 7.7366 0.074 7.7366 0.27891 0 0.20485-5.4543 5.8552-12.121 12.556l-12.121 12.184-12.171-12.162z" fill="none" stroke="#000" stroke-linecap="round" stroke-linejoin="round" stroke-width="8"/>
</svg>
