<?xml version="1.0" encoding="UTF-8"?>
<svg id="SVGRoot" width="192px" height="192px" version="1.1" viewBox="0 0 192 192" xml:space="preserve" xmlns="http://www.w3.org/2000/svg"><path d="m49.667 153.16v-9.426l-1.9851-2.0647c-3.1013-3.2257-5.9947-6.9966-8.3359-10.864-0.83128-1.3732-1.3796-2.0148-2.4568-2.8749-9.1603-7.3142-14.89-18.332-16.426-31.585-1.3233-11.42 0.24139-22.33 4.4103-30.75 1.8883-3.8141 4.2575-7.0356 7.3244-9.9595 4.4565-4.2486 9.751-6.7852 16.727-8.014 1.5052-0.26511 1.6398-0.33393 2.9914-1.5294 6.4817-5.7328 13.535-9.9051 21.685-12.828 7.4305-2.6649 14.352-3.8549 22.422-3.8549 4.8072 0 7.8273 0.27738 12.58 1.1554 11.339 2.0949 22.738 7.7229 31.616 15.61 1.1329 1.0064 1.4608 1.1872 2.4763 1.3648 5.5888 0.97769 9.3872 2.4288 13.354 5.1015 8.4224 5.6748 13.908 15.636 15.439 28.034 1.8934 15.333-1.5579 29.971-9.4909 40.254-1.6812 2.1792-3.8343 4.3927-6.3524 6.5306-1.4968 1.2708-2.1003 1.9488-2.9019 3.2599-6.9065 11.297-17.241 20.456-29.193 25.872-13.004 5.8937-27.063 7.4412-41.196 4.5349-4.0887-0.84079-6.3908-1.5582-12.5-3.8958l-1.1093-0.42444-2.7537 0.83085c-1.5146 0.45697-5.807 1.7574-9.5388 2.8899l-6.7851 2.0591zm61.908-24.255c8.106-0.54147 18.349-1.68 25.022-2.7814 4.0713-0.67195 6.1361-1.3985 9.2285-3.2473 5.662-3.385 9.6414-7.8638 12.721-14.318 1.7138-3.5913 2.7632-7.1771 3.5536-12.141 0.43288-2.7192 0.5974-9.5313 0.30647-12.691-1.2291-13.349-7.3572-22.777-16.746-25.764-3.3175-1.0553-10.81-2.2877-20.515-3.3745-17.941-2.0089-40.302-2.0089-58.243 0-9.807 1.0981-17.153 2.3067-20.515 3.3752-3.387 1.0763-6.4586 3.0424-8.9283 5.7147-4.1968 4.5411-6.9507 11.424-7.812 19.524-0.30758 2.8928-0.1378 10.531 0.29677 13.35 1.9245 12.487 7.8997 21.793 17.282 26.916 2.7358 1.494 4.3541 2.0168 8.2156 2.6541 8.9991 1.4853 20.77 2.643 31.074 3.0564 3.3771 0.13548 21.977-0.0675 25.06-0.27335zm-45.017-26.105c-4.086-0.88932-6.9666-4.2826-8.0849-9.5235-0.46828-2.1947-0.47694-6.9877-0.0164-9.0781 0.92683-4.207 2.9449-7.114 5.9692-8.5987 4.9053-2.4081 10.531-0.38427 13.091 4.7099 2.3454 4.6658 2.3582 12.178 0.0288 16.994-0.8272 1.7105-2.7433 3.7558-4.2943 4.584-1.1695 0.62449-3.6042 1.2274-4.8316 1.1964-0.34453-9e-3 -1.1825-0.13679-1.8621-0.28472zm54.677 0c-4.086-0.88932-6.9667-4.2826-8.0849-9.5235-0.46827-2.1947-0.47693-6.9877-0.0163-9.0781 0.92683-4.207 2.9449-7.114 5.9691-8.5987 4.9053-2.4081 10.531-0.38427 13.091 4.7099 2.3454 4.6658 2.3582 12.178 0.0288 16.994-0.82719 1.7105-2.7433 3.7558-4.2943 4.584-1.1695 0.62449-3.6042 1.2274-4.8316 1.1964-0.34453-9e-3 -1.1825-0.13679-1.8621-0.28472z" fill="none" stroke="#000" stroke-linecap="round" stroke-linejoin="round" stroke-width="8"/></svg>
