<svg xmlns="http://www.w3.org/2000/svg" xml:space="preserve" width="192" height="192" viewBox="0 0 192 192"><path fill="none" stroke="#000" stroke-linecap="round" stroke-linejoin="round" stroke-width="8" d="M49.667 153.16v-9.426l-1.985-2.065a63.089 63.089 0 0 1-8.336-10.864c-.831-1.373-1.38-2.014-2.457-2.875-9.16-7.314-14.89-18.332-16.426-31.585-1.323-11.42.242-22.33 4.41-30.75 1.889-3.814 4.258-7.035 7.325-9.96 4.456-4.248 9.75-6.784 16.727-8.013 1.505-.265 1.64-.334 2.991-1.53 6.482-5.732 13.535-9.905 21.685-12.827 7.43-2.665 14.352-3.855 22.422-3.855 4.807 0 7.828.277 12.58 1.155 11.34 2.095 22.738 7.723 31.616 15.61 1.133 1.006 1.461 1.187 2.477 1.365 5.588.977 9.387 2.429 13.354 5.101 8.422 5.675 13.908 15.636 15.439 28.034 1.893 15.333-1.558 29.971-9.491 40.254-1.682 2.18-3.835 4.393-6.353 6.53-1.497 1.272-2.1 1.95-2.902 3.26-6.906 11.298-17.24 20.457-29.193 25.873-13.004 5.893-27.063 7.441-41.196 4.535-4.088-.841-6.39-1.559-12.5-3.896l-1.109-.425-2.754.831a8825.33 8825.33 0 0 0-9.538 2.89l-6.786 2.06zm61.908-24.255c8.106-.541 18.349-1.68 25.022-2.781 4.071-.672 6.136-1.399 9.229-3.248 5.662-3.385 9.64-7.864 12.72-14.318 1.714-3.591 2.764-7.177 3.554-12.14.433-2.72.598-9.532.307-12.692-1.23-13.349-7.358-22.777-16.746-25.764-3.318-1.055-10.81-2.287-20.515-3.374-17.941-2.01-40.302-2.01-58.243 0-9.807 1.098-17.153 2.307-20.515 3.375-3.387 1.076-6.459 3.042-8.929 5.715-4.197 4.54-6.95 11.424-7.812 19.524-.307 2.893-.138 10.53.297 13.35 1.925 12.487 7.9 21.793 17.282 26.916 2.736 1.494 4.354 2.016 8.216 2.654 8.999 1.485 20.77 2.643 31.074 3.056 3.377.136 21.977-.067 25.06-.273zM66.558 102.8c-4.086-.89-6.967-4.283-8.085-9.524-.468-2.194-.477-6.987-.016-9.078.927-4.207 2.945-7.114 5.969-8.598 4.905-2.408 10.53-.385 13.09 4.71 2.346 4.665 2.36 12.178.03 16.994-.828 1.71-2.744 3.755-4.295 4.584-1.17.624-3.604 1.227-4.831 1.196-.345-.009-1.183-.137-1.862-.285zm54.677 0c-4.086-.89-6.967-4.283-8.085-9.524-.468-2.194-.477-6.987-.016-9.078.927-4.207 2.945-7.114 5.969-8.598 4.905-2.408 10.53-.385 13.09 4.71 2.346 4.665 2.36 12.178.03 16.994-.827 1.71-2.744 3.755-4.295 4.584-1.17.624-3.604 1.227-4.831 1.196-.345-.009-1.183-.137-1.862-.285z"/></svg>