<svg xmlns="http://www.w3.org/2000/svg" width="192" height="192" viewBox="0 0 192 192"><g fill="none" fill-rule="evenodd" stroke="#000" stroke-linecap="round" stroke-linejoin="round" stroke-width="6" clip-rule="evenodd"><path d="M88.951 101.88c3.623 4.069 6.767 10.697 9.63 20.119 6.341.198 10.017 9.533 5.253 15.09l-10.942 6.998-10.504 10.279c-3.58 3.117-6.96 1.846-10.285-.656-3.608-3.968-5.547-8.388-6.347-13.12l-6.347-5.686c-3.51-6.445-2.106-9.557 1.532-11.153.512-.292.993-1.158 1.504-1.45 1.216-.583 1.878-.965 3.228-1.3.034-1.452.261-2.896.305-3.879.364-2.26 1.165-4.67 1.53-6.931.921 4.195 2.287 8.341 5.253 11.003 4.596-.102 9.192-.042 13.788.37 1.05-.716 1.651-1.654 2.189-2.625 1.082-1.403 1.288-4.21 1.094-7.653-.358-.777-.523-1.487.656-1.75-.515-2.554-1.025-5.105-1.535-7.656z"/><path d="m84.886 121.09-8.99-.344c2.112-2.189 2.381-5.99 3.573-8.985.654 4.117 2.305 7.361 5.417 9.33zm-16.519-16.926c1.24-2.655 2.673-4.638 4.529-5.142 3.067.562 5.26 3.371 6.175 9.462 1.17-5.765 2.953-8.918 5.353-9.462l3.91 1.233-5.968-9.873c-1.82-3.872-3.948-3.598-6.382.823-1.575-1.885-3.054-2.52-4.323-.411-.539-.538-3.986 12.885-3.294 13.37z"/><path d="M91.458 104.45c.808-6.653-.21-11.142 1.745-16.615 2.253-8.07 12.338-6.353 14.102-.606 1.933 4.999 3.413 12.135.235 19.866 10.685 6.467 31.979-6.191 22.734-30.422-2.59-5.341-.99-7.436 3.302-3.462 3.144 2.81 5.641-2.265 6.3-8.227.333-19.135-7.357-33.784-24.787-42.214-17.43-8.431-31.234-1.848-39.94 10.522-6.452 7.747-8.424 7.314-5.279-.406 1.97-4.693-.667-5.442-4.77-3.216-10.738 6.703-22.18 15.77-17.787 33.411C51.704 80.722 60.575 83.961 70 86.195c1.246-1.804 2.816-1.928 4.574 1.116 1.52-3.105 3.34-5.743 6.028-1.724 2.685 7.304 7.46 11.494 10.858 18.864zM67.034 159.5l11.182 5.108 12.686-6.476.047 14.866-12.732-6.11-11.18 5.244zm66.796-.9 1.781-16.027c-6.482-1.206-4.176-15.605-3.268-18.699.909-3.095.871-5.212.703-7.454-1.162-5.89-8.33-4.249-8.94.51-.297 3.067.228 4.95-.08 8.132-.306 3.182.425 5.068.299 8.607-.127 3.54-.66 6.131-3.862 9.794-3.2 3.663-5.735 10.432-6.237 16.325-.65 4.33 7.075 6.93 8.02 2.374.442-2.516 1.232-4.752 4.453-5.046.278-.552 7.11 1.228 7.13 1.484z"/><path d="M139.56 145.44c1.965-2.305 5.25-1.474 6.061 3.315-.138 6.337-1.868 13.002-5.525 19.34-2.556 4.46-6.762 3.206-2.884-8.383-3.126 8.052-9.278 7.805-7.565 2.06 2.206-6.783 3.039-11.256 3.483-18.04 0-9.578 5.934-5.752 6.43 1.709z"/></g></svg>