<?xml version="1.0" encoding="UTF-8"?>
<svg id="SVGRoot" width="192px" height="192px" version="1.1" viewBox="0 0 192 192" xmlns="http://www.w3.org/2000/svg">
 <g clip-rule="evenodd" fill="none" fill-rule="evenodd" stroke="#000" stroke-linecap="round" stroke-linejoin="round" stroke-width="6">
  <path d="m88.951 101.88c3.6225 4.0687 6.7668 10.697 9.6304 20.119 6.3409 0.19814 10.017 9.5327 5.2523 15.09l-10.942 6.9977-10.504 10.279c-3.5803 3.1172-6.9599 1.846-10.285-0.65552-3.6073-3.9677-5.5471-8.3884-6.3462-13.12l-6.3473-5.6866c-3.5108-6.4444-2.1057-9.5564 1.5321-11.153 0.51179-0.29178 0.99314-1.1572 1.5039-1.4489 1.2155-0.5834 1.878-0.96556 3.2279-1.3003 0.03396-1.4521 0.26138-2.8966 0.30475-3.8794 0.36431-2.2604 1.1656-4.6704 1.5309-6.931 0.92051 4.1948 2.2867 8.3411 5.2521 11.003 4.5963-0.10244 9.1924-0.0415 13.788 0.36919 1.0507-0.71478 1.6513-1.6534 2.1891-2.6243 1.0822-1.4026 1.2882-4.2098 1.0941-7.6533-0.35778-0.77612-0.52263-1.4865 0.65599-1.7491-0.51505-2.5544-1.0246-5.1054-1.5354-7.6565z"/>
  <path d="m84.886 121.09-8.9907-0.34442c2.1132-2.1883 2.3821-5.9891 3.5737-8.9846 0.65377 4.1172 2.3051 7.3615 5.417 9.3291zm-16.519-16.926c1.2404-2.6545 2.6728-4.6383 4.529-5.1421 3.0674 0.56189 5.2609 3.3713 6.1749 9.4626 1.17-5.7652 2.9535-8.919 5.3531-9.4626l3.9109 1.2336-5.9689-9.8738c-1.8193-3.8718-3.9479-3.5974-6.3819 0.82345-1.5755-1.8847-3.0544-2.5209-4.323-0.4112-0.53896-0.53816-3.9857 12.885-3.2941 13.37z"/>
  <path d="m91.458 104.45c0.80778-6.6533-0.21031-11.142 1.7446-16.615 2.2531-8.0698 12.338-6.353 14.102-0.60598 1.9332 4.9988 3.4133 12.135 0.23539 19.866 10.685 6.4671 31.979-6.1914 22.734-30.422-2.5903-5.3411-0.99091-7.4358 3.3016-3.4617 3.1444 2.8094 5.6414-2.2658 6.3007-8.2269 0.33283-19.135-7.3568-33.784-24.787-42.214-17.431-8.4314-31.234-1.8483-39.941 10.522-6.4514 7.7469-8.4237 7.3131-5.2783-0.4068 1.9701-4.6931-0.66684-5.4412-4.7708-3.2152-10.737 6.7027-22.179 15.769-17.786 33.411 4.3913 17.641 13.262 20.879 22.686 23.114 1.2458-1.8041 2.8159-1.9289 4.5734 1.1151 1.5212-3.1043 3.3395-5.7426 6.0286-1.7233 2.6846 7.3034 7.4607 11.494 10.858 18.864z"/>
  <path d="m67.034 159.5 11.182 5.1076 12.686-6.4757 0.047 14.866-12.732-6.1108-11.18 5.2453z"/>
  <path d="m133.83 158.6 1.7814-16.027c-6.4827-1.2055-4.1766-15.605-3.268-18.699 0.90862-3.0946 0.87075-5.2118 0.70263-7.4541-1.1623-5.89-8.3294-4.2485-8.9408 0.50924-0.296 3.0678 0.22872 4.9514-0.0784 8.1332-0.30684 3.1819 0.424 5.0678 0.29821 8.6069-0.1267 3.5392-0.6603 6.1312-3.8622 9.7942-3.1996 3.663-5.7347 10.432-6.2366 16.325-0.65064 4.3303 7.0747 6.9298 8.0192 2.3735 0.44242-2.5156 1.2328-4.7524 4.4531-5.0462 0.27861-0.55216 7.1106 1.2282 7.1312 1.4844z"/>
  <path d="m139.56 145.44c1.9646-2.3046 5.2499-1.4736 6.061 3.3153-0.13768 6.3368-1.8682 13.002-5.5254 19.34-2.5555 4.4605-6.7615 3.2055-2.884-8.3831-3.126 8.0515-9.2781 7.805-7.565 2.0603 2.2065-6.7835 3.0392-11.257 3.4837-18.04 0-9.579 5.9341-5.7523 6.4297 1.7082z"/>
 </g>
</svg>
