<?xml version="1.0" encoding="UTF-8"?>
<svg id="SVGRoot" width="192px" height="192px" version="1.1" viewBox="0 0 192 192" xmlns="http://www.w3.org/2000/svg">
 <g fill="none" stroke="#000" stroke-linecap="round" stroke-linejoin="round">
  <circle class="a" cx="96" cy="96" r="76" stroke-width="8"/>
  <circle cx="95.276" cy="95.042" r="17.991" stroke-width="8"/>
  <g transform="matrix(3.5349 0 0 3.5349 11.163 11.163)" stroke-width="2.2632">
   <path d="m11.135 21.008a13.087 13.087 0 0 1 10.087-9.7672"/>
   <path d="m7.1519 19.911a17.121 17.121 0 0 1 12.296-12.544"/>
  </g>
  <g transform="matrix(-3.5349 0 0 -3.5349 180.7 181.88)" stroke-width="2.2632">
   <path d="m11.135 21.008a13.087 13.087 0 0 1 10.087-9.7672"/>
   <path d="m7.1519 19.911a17.121 17.121 0 0 1 12.296-12.544"/>
  </g>
  <g stroke-width="8">
   <ellipse cx="42.734" cy="162.62" rx="11.799" ry="7.4767"/>
   <path d="m54.504 162.33v-49.884"/>
   <path d="m68.643 124.05a12.559 12.559 0 0 1-1.4635 0.0855 12.559 12.559 0 0 1-12.506-11.414"/>
   <path d="m156.96 50.649h-30.841l-8.8786 8.8786"/>
  </g>
 </g>
</svg>
