<svg xmlns="http://www.w3.org/2000/svg" width="192" height="192" viewBox="0 0 192 192"><g fill="none" stroke="#000" stroke-linecap="round" stroke-linejoin="round"><circle cx="96" cy="96" r="76" stroke-width="8" class="a"/><circle cx="95.276" cy="95.042" r="17.991" stroke-width="8"/><path stroke-width="7.999" d="M50.524 85.424a46.261 46.261 0 0 1 35.657-34.526M36.444 81.546A60.521 60.521 0 0 1 79.91 37.205M141.339 107.619a46.261 46.261 0 0 1-35.657 34.526m49.737-30.648a60.521 60.521 0 0 1-43.465 44.341"/><g stroke-width="8"><ellipse cx="42.734" cy="162.62" rx="11.799" ry="7.477"/><path d="M54.504 162.33v-49.884m14.139 11.604a12.559 12.559 0 0 1-1.464.086 12.559 12.559 0 0 1-12.505-11.415M156.96 50.649h-30.841l-8.879 8.879"/></g></g></svg>