<svg xmlns="http://www.w3.org/2000/svg" viewBox="0 0 192 192"><path fill="none" stroke="#000" stroke-linecap="round" stroke-linejoin="round" stroke-width="6" d="M36.725 172.82c-8.13-.916-14.453-7.543-12.85-13.469 1.073-3.966 4.676-7.244 9.622-8.755 3.72-1.135 10.464-1.006 13.68.262 1.367.539 2.573.891 2.681.782.109-.108.306-11.533.438-25.387l.24-25.19h2.901c2.457 0 2.9.123 2.9.801.001 1.675 2.708 6.394 5.072 8.841 2.71 2.805 5.8 4.798 9.305 6.003l2.289.787-.138 2.424c-.076 1.333-.293 2.579-.481 2.769-1.057 1.063-10.198-3.168-13.738-6.358l-2.193-1.975-.281 1.706c-.155.938-.284 12.117-.287 24.841l-.005 23.135-1.322 2.088c-3.238 5.118-9.838 7.596-17.833 6.695Zm9.865-7.131c2.11-1.101 3.811-2.996 3.811-4.246 0-1.292-2.081-3.435-4.449-4.583-2.842-1.376-8.442-1.511-11.625-.28-2.302.89-4.93 3.473-4.93 4.844 0 1.383 1.839 3.295 4.302 4.473 2.056.983 2.811 1.09 6.656.945 3.33-.126 4.779-.394 6.236-1.153Zm72.344-7.464c-1.522-.61-2.292-1.762-2.31-3.455-.022-2.186 1.151-3.134 6.379-5.161 16.36-6.343 30.493-20.615 36.77-37.133 1.804-4.75 2.792-5.929 4.947-5.907 1.735.018 2.839.793 3.459 2.427.37.975.225 1.898-.714 4.539-1.75 4.921-6.184 13.262-9.661 18.172-6.262 8.845-15.297 16.559-25.669 21.919-4.123 2.131-11.496 5.242-12.013 5.069a79.255 79.255 0 0 1-1.187-.47Zm-5.447-16.215c-1.11-1.415-1.224-2.399-.468-4.063.385-.844 1.679-1.632 4.977-3.026 6.222-2.632 10.904-5.833 16.001-10.941 5.097-5.108 8.291-9.8 10.917-16.036 1.391-3.305 2.177-4.603 3.02-4.988 1.659-.757 2.642-.644 4.054.469 1.095.864 1.227 1.23 1.039 2.899-.297 2.643-3.809 9.881-7.264 14.97-5.508 8.116-13.65 14.978-23.082 19.456-2.417 1.148-5.252 2.184-6.301 2.302-1.665.188-2.031.056-2.893-1.042Zm-17.885-27.669c-5.849-.745-10.535-3.143-15.117-7.734-4.086-4.095-6.104-7.734-7.057-12.726-.82-4.293-.813-6.397.033-10.436 2.475-11.814 13.427-20.806 25.34-20.806 3.33 0 8.214 1.23 11.688 2.943 2.423 1.194 4.095 2.497 6.621 5.155 5.3 5.577 7.475 11.004 7.385 18.428-.182 15.119-13.914 27.085-28.894 25.176Zm9.592-10.211c1.788-.66 3.313-1.731 5.292-3.714 3.522-3.53 4.826-6.693 4.826-11.71 0-5.016-1.304-8.179-4.826-11.71-3.523-3.53-6.679-4.837-11.684-4.837-5.005 0-8.161 1.307-11.684 4.837-3.523 3.531-4.827 6.694-4.827 11.71 0 4.588 1.265 7.927 4.241 11.19 4.757 5.216 11.725 6.797 18.662 4.234ZM45.738 74.354c-2.118-1.613-1.711-4.216 1.721-10.996C53.433 51.555 62.584 42.616 74.7 36.747c5.451-2.64 8.017-3.062 9.424-1.548 1.149 1.236 1.281 3.449.291 4.867-.379.542-1.818 1.408-3.198 1.926-13.078 4.904-24.236 16.155-29.222 29.464-.452 1.209-1.248 2.496-1.767 2.86-1.162.816-3.442.836-4.489.039Zm-15.093-4.067c-1.635-1.244-1.762-2.877-.496-6.408 1.709-4.764 5.11-11.381 8.419-16.377 3.867-5.839 13.293-15.286 19.119-19.161 8.306-5.525 18.617-10.022 20.945-9.136 1.559.594 2.33 1.724 2.348 3.439.022 2.162-1.156 3.15-5.922 4.968-16.518 6.302-30.672 20.387-37.023 36.841-1.02 2.643-2.274 5.166-2.786 5.606-1.084.932-3.52 1.053-4.603.229Zm91.765-22.214c-.93-.954-1.69-1.859-1.69-2.012 0-.152 2.668-2.977 5.929-6.279l5.93-6.002 30.338.241 4.414 5.491-32.255.24-5.001 5.029c-2.751 2.765-5.22 5.028-5.488 5.028-.267 0-1.247-.781-2.177-1.736Z"/></svg>