<?xml version="1.0" encoding="UTF-8"?>
<svg id="SVGRoot" width="192px" height="192px" version="1.1" viewBox="0 0 192 192" xmlns="http://www.w3.org/2000/svg">
 <path d="m158.18 78.731v13.817h10.364c1.911 0 3.4534 1.5425 3.4534 3.4534 0 1.911-1.5424 3.4534-3.4534 3.4534h-10.364v13.817h10.364c1.911 0 3.4534 1.5462 3.4534 3.4572 0 1.9072-1.5424 3.4534-3.4534 3.4534h-10.364v13.817h10.364c1.911 0 3.4534 1.5463 3.4534 3.4534 0 1.911-1.5424 3.4572-3.4534 3.4572h-10.364v3.4534c0 7.6211-6.2002 13.817-13.817 13.817h-3.4534v10.364c0 1.911-1.5462 3.4534-3.4572 3.4534-1.9072 0-3.4534-1.5424-3.4534-3.4534v-10.364h-13.817v10.364c0 1.911-1.5463 3.4534-3.4534 3.4534-1.911 0-3.4572-1.5424-3.4572-3.4534v-10.364h-13.817v10.364c0 1.911-1.5462 3.4534-3.4534 3.4534-1.911 0-3.4534-1.5424-3.4534-3.4534v-10.364h-13.821v10.364c0 1.911-1.5425 3.4534-3.4534 3.4534s-3.4534-1.5424-3.4534-3.4534v-10.364h-13.817v10.364c0 1.911-1.5462 3.4534-3.4572 3.4534-1.9072 0-3.4534-1.5424-3.4534-3.4534v-10.364h-3.4534c-7.6173 0-13.821-6.1964-13.821-13.817v-3.4534h-10.36c-1.911 0-3.4572-1.5462-3.4572-3.4572 0-1.9072 1.5463-3.4534 3.4572-3.4534h10.36v-13.817h-10.36c-1.911 0-3.4572-1.5462-3.4572-3.4534 0-1.911 1.5463-3.4572 3.4572-3.4572h10.36v-13.817h-10.36c-1.911 0-3.4572-1.5462-3.4572-3.4534 0-1.911 1.5463-3.4534 3.4572-3.4534h10.36v-13.821h-10.36c-1.911 0-3.4572-1.5424-3.4572-3.4534s1.5463-3.4534 3.4572-3.4534h10.36v-13.818h-10.36c-1.911 0-3.4572-1.5462-3.4572-3.4572 0-1.9072 1.5463-3.4534 3.4572-3.4534h10.36v-3.4534c0-7.6211 6.204-13.821 13.821-13.821h3.4534v-10.36c0-1.911 1.5463-3.4572 3.4534-3.4572 1.911 0 3.4572 1.5463 3.4572 3.4572v10.36h13.817v-10.36c0-1.911 1.5462-3.4572 3.4534-3.4572s3.4534 1.5463 3.4534 3.4572v10.36h13.821v-10.36c0-1.911 1.5424-3.4572 3.4534-3.4572 1.9072 0 3.4534 1.5463 3.4534 3.4572v10.36h13.817v-10.36c0-1.911 1.5462-3.4572 3.4572-3.4572 1.9072 0 3.4534 1.5463 3.4534 3.4572v10.36h13.817v-10.36c0-1.911 1.5462-3.4572 3.4534-3.4572 1.911 0 3.4572 1.5463 3.4572 3.4572v10.36h3.4534c7.6173 0 13.817 6.2002 13.817 13.821v3.4534h10.364c1.911 0 3.4534 1.5462 3.4534 3.4534 0 1.911-1.5424 3.4572-3.4534 3.4572h-10.364v13.818h10.364c1.911 0 3.4534 1.5424 3.4534 3.4534s-1.5424 3.4534-3.4534 3.4534zm-13.817-27.639c0-1.9072-1.5462-3.4534-3.4534-3.4534h-89.819c-1.9072 0-3.4534 1.5462-3.4534 3.4534v89.819c0 1.9072 1.5462 3.4534 3.4534 3.4534h89.819c1.9072 0 3.4534-1.5462 3.4534-3.4534zm-89.816 3.4572h82.909v82.909h-82.909zm17.696 50.023c0.60787 1.1056 1.7666 1.7932 3.0279 1.7932h13.817v20.728c0 1.5348 1.0144 2.8874 2.4922 3.3166 0.31533 0.0912 0.63826 0.13677 0.96499 0.13677 1.1587 0 2.2643-0.58507 2.9139-1.5994l24.182-37.999c0.67245-1.0676 0.72183-2.4124 0.11397-3.518-0.60786-1.1018-1.7666-1.7932-3.0279-1.7932h-13.821v-20.724c0-1.5348-1.0106-2.8912-2.4884-3.3166-1.4589-0.4407-3.0507 0.15576-3.8789 1.4589l-24.182 37.999c-0.67625 1.0676-0.72184 2.4125-0.11398 3.518z" fill="none" stroke="#000" stroke-linecap="round" stroke-linejoin="round" stroke-width="8"/>
</svg>
