<svg xmlns="http://www.w3.org/2000/svg" width="192" height="192" viewBox="0 0 192 192"><path fill="none" stroke="#000" stroke-linecap="round" stroke-linejoin="round" stroke-width="8" d="M158.18 78.731v13.817h10.364a3.449 3.449 0 0 1 3.453 3.453 3.449 3.449 0 0 1-3.453 3.454H158.18v13.817h10.364a3.452 3.452 0 0 1 3.453 3.457 3.451 3.451 0 0 1-3.453 3.453H158.18V134h10.364a3.451 3.451 0 0 1 3.453 3.454 3.452 3.452 0 0 1-3.453 3.457H158.18v3.453c0 7.621-6.2 13.817-13.817 13.817h-3.453v10.364a3.452 3.452 0 0 1-3.458 3.454 3.451 3.451 0 0 1-3.453-3.454V158.18h-13.817v10.364a3.451 3.451 0 0 1-3.453 3.454 3.452 3.452 0 0 1-3.458-3.454V158.18H99.454v10.364a3.451 3.451 0 0 1-3.453 3.454 3.449 3.449 0 0 1-3.453-3.454V158.18H78.727v10.364c0 1.911-1.543 3.454-3.454 3.454s-3.453-1.543-3.453-3.454V158.18H58.003v10.364a3.452 3.452 0 0 1-3.457 3.454 3.451 3.451 0 0 1-3.454-3.454V158.18H47.64c-7.617 0-13.821-6.196-13.821-13.817v-3.453h-10.36a3.455 3.455 0 1 1 0-6.91h10.36v-13.818h-10.36a3.454 3.454 0 1 1 0-6.91h10.36V99.455h-10.36a3.454 3.454 0 1 1 0-6.907h10.36V78.727h-10.36c-1.911 0-3.457-1.542-3.457-3.453s1.546-3.454 3.457-3.454h10.36V58.002h-10.36a3.455 3.455 0 1 1 0-6.91h10.36v-3.454c0-7.62 6.204-13.82 13.82-13.82h3.454v-10.36a3.454 3.454 0 1 1 6.91 0v10.36H71.82v-10.36a3.454 3.454 0 1 1 6.907 0v10.36h13.82v-10.36a3.454 3.454 0 1 1 6.907 0v10.36h13.817v-10.36a3.455 3.455 0 1 1 6.911 0v10.36h13.817v-10.36a3.454 3.454 0 1 1 6.91 0v10.36h3.454c7.617 0 13.817 6.2 13.817 13.82v3.454h10.364a3.451 3.451 0 0 1 3.453 3.453 3.452 3.452 0 0 1-3.453 3.457H158.18V71.82h10.364c1.911 0 3.453 1.543 3.453 3.454s-1.542 3.453-3.453 3.453zm-13.817-27.639a3.453 3.453 0 0 0-3.453-3.453H51.09a3.453 3.453 0 0 0-3.453 3.453v89.819a3.453 3.453 0 0 0 3.454 3.453h89.819a3.453 3.453 0 0 0 3.453-3.453zm-89.816 3.457h82.909v82.91H54.547zm17.696 50.023a3.455 3.455 0 0 0 3.028 1.793h13.817v20.728a3.455 3.455 0 0 0 6.371 1.854l24.182-37.999a3.464 3.464 0 0 0 .114-3.518 3.463 3.463 0 0 0-3.028-1.793h-13.82V64.913a3.448 3.448 0 0 0-2.49-3.316 3.435 3.435 0 0 0-3.878 1.458l-24.182 38a3.456 3.456 0 0 0-.114 3.517z"/></svg>