<?xml version="1.0" encoding="UTF-8"?>
<svg id="SVGRoot" width="192px" height="192px" version="1.1" viewBox="0 0 192 192" xmlns="http://www.w3.org/2000/svg">
 <path d="m86.187 158.25c-2.7314-2.7249-2.814-5.0798-0.38699-11.038 4.3881-10.773 6.2159-23.665 4.9642-35.014-1.0943-9.9214-3.13-16.935-7.5161-25.895-9.9149-20.255-28.603-34.799-50.912-39.622-8.8592-1.9153-10.618-3.54-10.317-9.5298 0.04777-0.95037 0.92036-2.5594 1.939-3.5756l1.8521-1.8477h68.361c75.46 0 71.293-0.26576 74.353 4.7413 0.88785 1.4526 1.4741 3.7672 1.4758 5.8265 3e-3 3.2353-1.9209 6.3712-36.247 59.092-19.937 30.622-37.104 56.438-38.148 57.369-2.7792 2.479-6.6334 2.2717-9.4184-0.50667z" fill="none" stroke="#000" stroke-linecap="round" stroke-linejoin="round" stroke-width="12"/>
</svg>
