<svg xmlns="http://www.w3.org/2000/svg" width="192" height="192" viewBox="0 0 192 192"><path fill="none" stroke="#000" stroke-linecap="round" stroke-linejoin="round" stroke-width="12" d="M86.187 158.25c-2.731-2.725-2.814-5.08-.387-11.038 4.388-10.773 6.216-23.665 4.964-35.014-1.094-9.921-3.13-16.935-7.516-25.895-9.915-20.255-28.603-34.799-50.912-39.622-8.86-1.915-10.618-3.54-10.317-9.53.048-.95.92-2.56 1.94-3.575l1.851-1.848h68.361c75.46 0 71.293-.266 74.353 4.741.888 1.453 1.474 3.767 1.476 5.827.003 3.235-1.92 6.37-36.247 59.092-19.937 30.622-37.104 56.438-38.148 57.369-2.78 2.479-6.633 2.271-9.418-.507z"/></svg>