<svg xmlns="http://www.w3.org/2000/svg" viewBox="0 0 192 192"><path fill="none" stroke="#000" stroke-linecap="round" stroke-linejoin="round" stroke-width="8" d="M20 96V20h152v152H20zm83.389 47.071c8.554-.49 15.586-1.718 23.117-4.037 9.46-2.913 17.688-7.88 22.611-13.649 5.024-5.889 7.954-12.522 9.164-20.746 1.374-9.337.881-16.825-1.622-24.65-.98-3.066-3.431-7.977-5.23-10.483-8.209-11.434-23.234-18.276-43.818-19.955-1.451-.119-4.111-.307-5.911-.419s-3.726-.256-4.282-.32c-1.276-.148-10.217.442-16.301 1.075-7.587.79-14.921 2.553-21.416 5.147-2.108.842-6.564 3.208-8.736 4.64-5.911 3.896-10.506 9.054-13.461 15.109-1.97 4.038-3.662 10.074-4.203 14.989-.408 3.713-.14 11.387.541 15.5a49.472 49.472 0 0 0 1.802 7.3c4.187 12.499 13.597 21.047 28.689 26.064 3.573 1.188 9.09 2.583 12.492 3.16 7.643 1.294 17.753 1.78 26.564 1.275zm-31.616-37.853c-.959-.348-2.094-1.297-2.508-2.097-.414-.801-.795-3.75-1.138-8.81-.137-2.032-.28-3.8-.315-3.929-.034-.128-1.664-.539-3.619-.913-1.955-.373-3.934-.787-4.399-.921-1.173-.336-2.748-1.943-3.068-3.129-.852-3.167 1.747-6.742 5.154-7.087.841-.085 1.432.019 2.664.463 4.146 1.5 5.962 2.127 10.662 3.681 2.786.921 6.322 2.071 7.858 2.556 2.892.913 3.553 1.322 4.218 2.606.43.833.273 2.7-.292 3.462-.586.792-1.659 1.484-2.572 1.66-.479.091-1.758-.023-3.398-.303-1.447-.248-2.676-.404-2.733-.348-.056.056-.237 2.213-.403 4.794-.165 2.58-.39 5.053-.498 5.495-.543 2.21-3.374 3.632-5.613 2.82zm45.033.129c-.831-.212-2.029-1.141-2.596-2.012l-.582-.896-.061-6.693-.062-6.693.54-1.065c.647-1.278 1.7-2.034 3.292-2.367 2.195-.458 4.502.684 5.508 2.726.473.961.497 1.237.568 6.598.082 6.182-.046 7.272-1.017 8.611-1.102 1.522-3.557 2.308-5.59 1.791zm-10.199-21.78c-1.713-.45-3.007-1.999-3.007-3.601 0-.996.234-1.548 1.011-2.38.743-.798 1.188-.907 6.695-1.637 4.784-.635 11.393-1.632 14.75-2.226 3.47-.614 5.056-.271 6.797 1.469 2.685 2.686 2.279 6.738-.805 8.027-.668.279-2.569.343-12.769.428-6.592.055-12.294.019-12.672-.08z"/></svg>