<svg xmlns="http://www.w3.org/2000/svg" width="192" height="192" viewBox="0 0 192 192"><g fill="none" stroke="#000" stroke-linecap="round" stroke-linejoin="round" stroke-width="8"><path d="M78.799 58.162h0c-2.172-1.362-5.69-1.362-7.863 0h0L60.78 64.537l-3.113-1.954h0c-2.171-1.362-5.69-1.362-7.862 0h0c-2.172 1.363-2.172 3.572 0 4.936h0l7.043 4.42v.001c1.086.681 2.51 1.022 3.932 1.022 1.421 0 2.845-.341 3.93-1.022h.001l14.088-8.843h0c2.172-1.363 2.172-3.572 0-4.935zm0 26.528h0c-2.172-1.362-5.69-1.362-7.863 0h0L60.78 91.065l-3.113-1.954h0c-2.171-1.362-5.69-1.362-7.862 0h0c-2.172 1.363-2.172 3.573 0 4.936h0l7.043 4.421h0c1.086.681 2.51 1.022 3.932 1.022 1.421 0 2.845-.34 3.93-1.022h.001l14.088-8.842h0c2.172-1.363 2.172-3.573 0-4.936zm-7.862 26.53-10.157 6.375-3.113-1.954h0c-2.172-1.362-5.69-1.362-7.863 0h0c-2.17 1.363-2.17 3.572 0 4.935h0l7.044 4.422h0c1.086.68 2.51 1.022 3.931 1.022 1.422 0 2.846-.341 3.932-1.022h0l14.088-8.843c2.17-1.362 2.17-3.572 0-4.935h0c-2.171-1.363-5.69-1.363-7.862 0zm67.323-45.238H95.996c-3.07 0-5.56 1.563-5.56 3.49 0 1.927 2.49 3.49 5.56 3.49h42.264c3.07 0 5.56-1.563 5.56-3.49 0-1.927-2.49-3.49-5.56-3.49zm0 26.528H95.996c-3.07 0-5.56 1.563-5.56 3.49 0 1.927 2.49 3.49 5.56 3.49h42.264c3.07 0 5.56-1.563 5.56-3.49 0-1.927-2.49-3.49-5.56-3.49zm5.56 30.02c0-1.927-2.49-3.49-5.56-3.49H95.996c-3.07 0-5.56 1.563-5.56 3.49 0 1.927 2.49 3.49 5.56 3.49h42.264c3.07 0 5.56-1.563 5.56-3.49zm-40.78-84.845H88.952c-3.07 0-5.56 1.563-5.56 3.49s2.49 3.49 5.56 3.49h14.088c3.07 0 5.56-1.563 5.56-3.49 0-1.927-2.489-3.49-5.56-3.49zm5.56 111.375c0-1.927-2.49-3.49-5.56-3.49H88.952c-3.07 0-5.56 1.563-5.56 3.49 0 1.927 2.49 3.49 5.56 3.49h14.088c3.071 0 5.56-1.563 5.56-3.49z"/><path d="M20 32.332v127.34c0 6.8 8.813 12.333 19.648 12.333h35.22c3.07 0 5.56-1.563 5.56-3.49 0-1.926-2.49-3.49-5.56-3.49h-35.22c-4.702 0-8.528-2.401-8.528-5.353V32.332c0-2.95 3.826-5.353 8.528-5.353h112.7c4.702 0 8.529 2.402 8.529 5.353v127.34c0 2.952-3.827 5.354-8.529 5.354h-35.22c-3.07 0-5.56 1.562-5.56 3.49 0 1.927 2.49 3.489 5.56 3.489h35.22c10.835 0 19.648-5.532 19.648-12.333V32.332c0-6.8-8.813-12.332-19.648-12.332h-112.7C28.814 20 20 25.532 20 32.332z"/><path d="M96 172c3.07 0 5.56-1.563 5.56-3.49 0-1.927-2.49-3.49-5.56-3.49s-5.56 1.563-5.56 3.49c0 1.928 2.49 3.49 5.56 3.49z"/></g></svg>