<?xml version="1.0" encoding="UTF-8"?>
<svg id="SVGRoot" width="192px" height="192px" version="1.1" viewBox="0 0 192 192" xmlns="http://www.w3.org/2000/svg">
 <g fill="none" stroke="#000" stroke-linecap="round" stroke-linejoin="round" stroke-width="8">
  <path d="m78.799 58.162-7e-5 -4.3e-5c-2.1715-1.3623-5.6907-1.3623-7.8625-4.4e-5l-2.07e-4 1.3e-4 -10.156 6.375-3.1128-1.9541h-1.39e-4c-2.1716-1.3621-5.6907-1.3621-7.8626 0h-2.07e-4c-2.1711 1.363-2.171 3.5725-6.9e-5 4.9356h6.9e-5l7.044 4.4212 1.37e-4 4.34e-4c1.0854 0.68086 2.5095 1.0217 3.9311 1.0217 1.4215 0 2.8456-0.34086 3.9311-1.0217l1.39e-4 -4.34e-4 14.088-8.8425h2.07e-4c2.172-1.363 2.1719-3.5726 3.46e-4 -4.9353z"/>
  <path d="m78.799 84.69h-7e-5c-2.1715-1.3621-5.6907-1.3621-7.8625 0l-2.07e-4 4.34e-4 -10.156 6.3749-3.1128-1.9541h-1.39e-4c-2.1716-1.3621-5.6907-1.3621-7.8626 0h-2.07e-4c-2.1711 1.363-2.171 3.5725-6.9e-5 4.9356h6.9e-5l7.044 4.4212h1.37e-4c1.0854 0.68129 2.5095 1.0222 3.9311 1.0222 1.4215 0 2.8456-0.34086 3.9311-1.0222h1.39e-4l14.088-8.8425h2.07e-4c2.172-1.363 2.1719-3.5725 3.46e-4 -4.9356z"/>
  <path d="m70.937 111.22-10.157 6.3749-3.1128-1.9537h-1.39e-4c-2.1716-1.3626-5.6907-1.3626-7.8626-4.4e-4l-2.07e-4 4.4e-4c-2.1711 1.3626-2.171 3.5721-6.9e-5 4.9351h6.9e-5l7.044 4.4217h1.37e-4c1.0854 0.68085 2.5095 1.0222 3.9311 1.0222 1.4215 0 2.8456-0.3413 3.9311-1.0222h1.39e-4l14.088-8.8429c2.1711-1.3626 2.171-3.5721 6.9e-5 -4.9351l-1.37e-4 -4.3e-4c-2.1711-1.3622-5.6904-1.3622-7.8619 4.3e-4z"/>
  <path d="m138.26 65.982h-42.264c-3.0704 0-5.5597 1.5625-5.5597 3.4897 0 1.9272 2.4893 3.4897 5.5597 3.4897h42.264c3.0697 0 5.5597-1.5625 5.5597-3.4897 0-1.9268-2.4893-3.4897-5.5597-3.4897z"/>
  <path d="m138.26 92.51h-42.264c-3.0704 0-5.5597 1.5625-5.5597 3.4897 0 1.9272 2.4893 3.4897 5.5597 3.4897h42.264c3.0697 0 5.5597-1.5625 5.5597-3.4897 0-1.9272-2.4893-3.4897-5.5597-3.4897z"/>
  <path d="m143.82 122.53c0-1.9272-2.49-3.4897-5.5597-3.4897h-42.264c-3.0704 0-5.5597 1.5625-5.5597 3.4897 0 1.9268 2.4893 3.4897 5.5597 3.4897h42.264c3.0704 0 5.5597-1.5629 5.5597-3.4897z"/>
  <path d="m103.04 37.685h-14.088c-3.0704 0-5.5597 1.5626-5.5597 3.4897s2.4893 3.4897 5.5597 3.4897h14.088c3.0704 0 5.5597-1.5626 5.5597-3.4897 0-1.927-2.4886-3.4897-5.5597-3.4897z"/>
  <path d="m108.6 149.06c0-1.9272-2.4893-3.4897-5.5597-3.4897h-14.088c-3.0704 0-5.5597 1.5625-5.5597 3.4897 0 1.9268 2.4893 3.4897 5.5597 3.4897h14.088c3.0711 0 5.5597-1.5629 5.5597-3.4897z"/>
  <path d="m20 32.332v127.34c0 6.8008 8.8132 12.333 19.648 12.333h35.22c3.0701 0 5.5596-1.5625 5.5596-3.4897 0-1.9268-2.4895-3.4897-5.5596-3.4897h-35.22c-4.7018 0-8.5284-2.4016-8.5284-5.3532v-127.34c0-2.9512 3.8266-5.353 8.5284-5.353h112.7c4.7023 0 8.5286 2.4019 8.5286 5.353v127.34c0 2.9515-3.8263 5.3532-8.5286 5.3532h-35.22c-3.0704 0-5.5597 1.5629-5.5597 3.4897 0 1.9272 2.4893 3.4897 5.5597 3.4897h35.22c10.835 0 19.648-5.5318 19.648-12.333v-127.34c0-6.8005-8.8132-12.332-19.648-12.332h-112.7c-10.834 0-19.648 5.5318-19.648 12.332z"/>
  <path d="m96 172c3.0704 0 5.5597-1.5625 5.5597-3.4897 0-1.9272-2.4893-3.4897-5.5597-3.4897s-5.5597 1.5625-5.5597 3.4897c0 1.9272 2.4893 3.4897 5.5597 3.4897z"/>
 </g>
</svg>
