<?xml version="1.0" encoding="UTF-8"?>
<svg id="SVGRoot" width="192px" height="192px" version="1.1" viewBox="0 0 192 192" xmlns="http://www.w3.org/2000/svg">
 <path d="m25.292 138.8c-2.4909-1.1091-4.5337-3.5677-5.1305-6.1746-0.49973-2.1831-0.42675-2.5406 7.7835-38.126 4.5584-19.757 8.616-36.552 9.017-37.321 2.1634-4.1531 7.3677-5.9519 11.68-4.0371 1.1236 0.49887 8.0682 6.8008 21.109 19.155 15.104 14.309 19.584 18.776 20.104 20.048 1.4441 3.5286 0.51701 7.7658-2.2457 10.263-1.8304 1.6548-53.53 35.615-55.351 36.359-1.9282 0.78763-4.9873 0.7145-6.966-0.16653zm87.742-2.7527c9e-3 -0.16494 3.1071-14.964 6.8853-32.887l6.8694-32.587-25.525-0.21096 1.3791-6.4919c0.75849-3.5705 1.4744-6.8967 1.5908-7.3915l0.21176-0.89964h67.555l-0.21907 0.89964c-0.12041 0.4948-0.81101 3.8235-1.5345 7.3971l-1.3154 6.4974h-12.183c-11.249 0-12.2 0.05365-12.397 0.69972-0.11747 0.38486-3.1753 14.824-6.7951 32.087-3.6198 17.263-6.6848 31.793-6.811 32.287-0.22902 0.89794-0.24607 0.89964-8.9782 0.89964-4.8118 0-8.7416-0.13495-8.7328-0.29988z" fill="none" stroke="#000" stroke-linecap="round" stroke-linejoin="round" stroke-width="8"/>
</svg>
