<svg xmlns="http://www.w3.org/2000/svg" width="192" height="192" viewBox="0 0 192 192"><path fill="none" stroke="#000" stroke-linecap="round" stroke-linejoin="round" stroke-width="8" d="M25.292 138.8c-2.49-1.11-4.534-3.568-5.13-6.175-.5-2.183-.427-2.54 7.783-38.126 4.558-19.757 8.616-36.552 9.017-37.32 2.163-4.154 7.368-5.952 11.68-4.038 1.124.5 8.068 6.801 21.109 19.155 15.104 14.31 19.584 18.776 20.104 20.048 1.444 3.529.517 7.766-2.246 10.263-1.83 1.655-53.53 35.615-55.35 36.36-1.929.787-4.988.714-6.967-.167zm87.742-2.753c.009-.165 3.107-14.964 6.885-32.887l6.87-32.587-25.525-.21 1.379-6.493c.758-3.57 1.474-6.896 1.59-7.391l.212-.9H172l-.219.9c-.12.495-.81 3.823-1.534 7.397l-1.316 6.497h-12.183c-11.249 0-12.2.054-12.397.7-.117.385-3.175 14.824-6.795 32.087-3.62 17.263-6.685 31.793-6.81 32.287-.23.898-.247.9-8.979.9-4.812 0-8.742-.135-8.733-.3z"/></svg>