<?xml version="1.0" encoding="UTF-8"?>
<svg id="SVGRoot" width="192px" height="192px" version="1.1" viewBox="0 0 192 192" xmlns="http://www.w3.org/2000/svg">
 <g fill="none" stroke="#000" stroke-linecap="round" stroke-linejoin="round">
  <path class="a" d="m26.639 136.65c32.048 22.362 133.69 27.254 133.69 27.254" stroke-width="8"/>
  <polyline class="a" transform="matrix(3.8974 0 0 3.966 2.4615 .81702)" points="14.367 35.248 14.367 24.499 10.197 24.499 10.197 20.564 14.367 20.564 14.367 15.983 18.949 15.983 18.949 20.212 23.863 20.212 23.863 24.441 18.655 24.441 18.655 35.776" stroke-width="2.0348"/>
  <g stroke-width="8">
   <line class="a" x1="96.429" x2="96.429" y1="120.81" y2="143.87"/>
   <line class="a" x1="126.45" x2="126.45" y1="130.36" y2="150.27"/>
   <line class="a" x1="150.71" x2="150.71" y1="133.39" y2="151.09"/>
   <line class="a" x1="144.07" x2="157.58" y1="138.28" y2="138.28"/>
   <line class="a" x1="119.35" x2="133.77" y1="136.65" y2="136.65"/>
   <line class="a" x1="106.76" x2="87.072" y1="126.4" y2="126.4"/>
   <path class="a" d="m85.699 106.37c13.277 8.6188 86.301 23.994 86.301 23.994"/>
   <line class="a" x1="101.95" x2="172" y1="90.06" y2="87.963"/>
   <path class="a" d="m87.072 73.055c13.277-6.988 81.036-42.396 81.036-42.396"/>
   <path class="a" d="m68.835 56.284c-0.30517-10.948 0-28.186 0-28.186"/>
   <path class="a" d="m20 51.859c11.675 6.7552 29.53 19.007 29.53 19.007"/>
   <line class="a" x1="21.373" x2="35.337" y1="90.06" y2="90.06"/>
   <path class="a" d="m49.53 106.37c-9.3854 5.8236-28.157 9.7836-28.157 9.7836"/>
  </g>
 </g>
</svg>
