<svg xmlns="http://www.w3.org/2000/svg" width="192" height="192" viewBox="0 0 192 192"><g fill="none" stroke="#000" stroke-linecap="round" stroke-linejoin="round"><path stroke-width="8" d="M26.639 136.65c32.048 22.362 133.69 27.254 133.69 27.254" class="a"/><path stroke-width="2.035" d="M14.367 35.248V24.499h-4.17v-3.935h4.17v-4.581h4.582v4.229h4.914v4.229h-5.208v11.335" class="a" transform="matrix(3.8974 0 0 3.966 2.462 .817)"/><g stroke-width="8"><path d="M96.429 120.81v23.06M126.45 130.36v19.91M150.71 133.39v17.7M144.07 138.28h13.51M119.35 136.65h14.42M106.76 126.4H87.072M85.699 106.37C98.976 114.989 172 130.364 172 130.364M101.95 90.06 172 87.963M87.072 73.055c13.277-6.988 81.036-42.396 81.036-42.396M68.835 56.284c-.305-10.948 0-28.186 0-28.186M20 51.859c11.675 6.755 29.53 19.007 29.53 19.007M21.373 90.06h13.964M49.53 106.37c-9.385 5.824-28.157 9.784-28.157 9.784" class="a"/></g></g></svg>