<svg xmlns="http://www.w3.org/2000/svg" width="192" height="192" viewBox="0 0 192 192"><g fill="none" stroke="#000" stroke-linecap="round" stroke-linejoin="round" stroke-width="27.872"><path d="M281.12 353.35V42.22c0-23.28-18.94-42.221-42.221-42.221-23.282 0-42.221 18.941-42.221 42.221v311.13c-26.391 15.093-42.646 42.761-42.756 73.36-.078 21.959 8.481 42.96 24.097 59.132 15.624 16.179 36.315 25.453 58.26 26.115.886.026 1.767.04 2.649.04 22.227-.001 43.14-8.461 59.142-23.987 16.642-16.149 25.806-37.809 25.806-60.992-.001-30.731-16.257-58.517-42.756-73.668zm5.785 123.15c-13.496 13.095-31.316 20.003-50.142 19.427-17.741-.534-34.507-8.072-47.21-21.226-12.701-13.152-19.661-30.176-19.597-47.937.093-26.181 14.773-49.723 38.31-61.438a8.015 8.015 0 0 0 4.444-7.177V42.219c0-14.44 11.748-26.188 26.188-26.188s26.188 11.748 26.188 26.188v315.94a8.017 8.017 0 0 0 4.444 7.177c23.632 11.762 38.311 35.4 38.311 61.689.001 18.809-7.434 36.383-20.936 49.484z" transform="matrix(.27798 0 0 .29637 21.837 20.13)"/><path d="M350.06 256.53h-42.756a8.017 8.017 0 0 0 0 16.034h42.756a8.017 8.017 0 0 0 0-16.034z" transform="matrix(.27798 0 0 .29637 27.837 26.12)"/><path d="M332.96 213.78h-25.653a8.017 8.017 0 0 0 0 16.034h25.653a8.017 8.017 0 0 0 0-16.034z" transform="matrix(.27798 0 0 .29637 27.837 24.123)"/><path d="M350.06 171.02h-42.756a8.017 8.017 0 0 0 0 16.034h42.756a8.017 8.017 0 0 0 0-16.034z" transform="matrix(.27798 0 0 .29637 27.837 22.127)"/><path d="M332.96 128.27h-25.653a8.017 8.017 0 0 0 0 16.034h25.653a8.017 8.017 0 0 0 0-16.034z" transform="matrix(.27798 0 0 .29637 27.837 20.13)"/><path d="M350.06 85.511h-42.756a8.017 8.017 0 0 0 0 16.034h42.756a8.017 8.017 0 0 0 0-16.034z" transform="matrix(.27798 0 0 .29637 27.837 18.133)"/></g></svg>