<?xml version="1.0" encoding="UTF-8"?>
<svg width="192" height="192" version="1.1" viewBox="0 0 192 192" xml:space="preserve" xmlns="http://www.w3.org/2000/svg"><g stroke-width=".54911"><path d="m130.14 73.757c10.331 7.3812 22.987 11.724 36.656 11.724v-26.29c-2.5869 5.5e-4 -5.1671-0.26906-7.698-0.80499v20.694c-13.668 0-26.322-4.3429-36.656-11.724v53.65c0 26.838-21.768 48.594-48.618 48.594-10.019 0-19.33-3.0272-27.066-8.2191 8.8286 9.0224 21.141 14.62 34.762 14.62 26.852 0 48.621-21.755 48.621-48.595v-53.649zm9.4963-26.523c-5.2797-5.7651-8.7462-13.215-9.4963-21.452v-3.3814h-7.2949c1.8362 10.469 8.0994 19.413 16.791 24.834zm-75.895 93.552c-2.9498-3.8657-4.5439-8.5947-4.5368-13.457 0-12.275 9.9565-22.227 22.24-22.227 2.2892-5.5e-4 4.5648 0.34978 6.7464 1.0417v-26.877c-2.5495-0.34924-5.1227-0.4975-7.6947-0.44313v20.92c-2.1833-0.69188-4.4599-1.0433-6.7497-1.0411-12.284 0-22.24 9.9515-22.24 22.228 0 8.6803 4.9766 16.195 12.234 19.856z" fill-opacity=".5"/><path d="m122.44 67.356c10.334 7.3806 22.988 11.724 36.656 11.724v-20.694c-7.6294-1.6243-14.383-5.6092-19.462-11.152-8.6924-5.4214-14.955-14.365-16.791-24.834h-19.162v105c-0.0434 12.241-9.9828 22.153-22.24 22.153-7.223 0-13.64-3.4413-17.704-8.772-7.2571-3.6609-12.234-11.177-12.234-19.856 0-12.275 9.9559-22.228 22.24-22.228 2.3535 0 4.6219 0.36625 6.7497 1.0411v-20.92c-26.379 0.54471-47.594 22.087-47.594 48.582 0 13.226 5.283 25.216 13.857 33.976 7.7353 5.1913 17.047 8.2191 27.066 8.2191 26.851 0 48.618-21.756 48.618-48.594v-53.65z"/><path d="m159.1 58.385v-5.5954c-6.8798 0.011-13.625-1.9153-19.462-5.557 5.1671 5.6542 11.971 9.5529 19.462 11.152zm-36.253-35.985c-0.17517-1.0005-0.3097-2.0076-0.40305-3.0185v-3.3814h-26.457v105.01c-0.04228 12.24-9.9812 22.152-22.24 22.152-3.5989 0-6.9968-0.85386-10.006-2.3711 4.064 5.3302 10.481 8.771 17.704 8.771 12.256 0 22.197-9.9109 22.24-22.152v-105zm-42.349 56.423v-5.9568c-2.2107-0.30201-4.4396-0.45357-6.6712-0.45247-26.853-5.5e-4 -48.621 21.756-48.621 48.592 0 16.825 8.5552 31.652 21.555 40.374-8.5744-8.76-13.857-20.75-13.857-33.976 0-26.494 21.214-48.037 47.594-48.582z" fill-opacity=".50179"/></g></svg>
