<?xml version="1.0" encoding="UTF-8"?>
<svg id="vector" width="192" height="192" version="1.1" viewBox="0 0 192 192" xmlns="http://www.w3.org/2000/svg">
 <path d="m94.57 175.77c-2.744-0.79999-4.4239-3.7919-3.5679-6.3679 0.74399-2.272 2.4-3.336 6.7999-4.3999 2.176-0.51999 3.9519-1.056 3.9519-1.184 0-0.136-4.0399-1.24-8.9919-2.448-14.192-3.488-17.296-4.7359-19.12-7.6959-1.12-1.808-1.104-4.8399 0.032-6.6799 0.99198-1.6 3.4799-3.168 6.1359-3.8719 1.008-0.264 7.4799-1.184 14.384-2.04 6.8959-0.85598 12.624-1.632 12.72-1.728 0.08-0.088-9.6158-2.36-21.56-5.0399s-22.672-5.3039-23.848-5.8399c-2.512-1.12-3.8639-2.464-4.4159-4.3839-0.78399-2.752 0.94398-5.8559 3.9359-7.0399 0.75999-0.30399 5.5359-0.62399 12.4-0.83998 42.495-1.304 72.855-7.5039 83.599-17.072 4.0879-3.6479 4.8479-6.4959 3.8319-14.352-3.6239-27.976-26.24-52.159-53.999-57.727-5.5999-1.12-17.504-1.008-23.296 0.232-8.9919 1.92-16.432 5.0079-23.776 9.8718a65.287 65.287 0 0 0-28.992 50.519c-0.128 2.408-0.41599 4.9839-0.63999 5.7199-1.2 3.9359-7.3119 4.2479-9.3599 0.47999-0.39999-0.72799-0.49599-2.4-0.34399-6.3679 0.90399-24.4 14.472-47.343 35.839-60.615a78.143 78.143 0 0 1 24.768-9.7758c4.7679-1.016 5.9839-1.112 14.704-1.12 10.768 0 14.008 0.47999 22.992 3.4799 29.112 9.6799 51.631 38.903 52.767 68.455 0.19999 5.1679 0.11199 6.6399-0.48 8.6879-3.9999 13.84-23.76 22.816-60.391 27.44a243.36 243.36 0 0 1-10.88 1.12c-2.336 0.15999-4.1039 0.42399-3.9199 0.59199 0.176 0.16 6.8399 1.736 14.8 3.5039 7.9599 1.76 15.408 3.568 16.544 4.0159 4.2879 1.672 5.9999 3.7839 5.9999 7.3919 0 1.968-0.152 2.28-1.76 3.9039a9.2799 9.2799 0 0 1-4.0399 2.448c-1.248 0.38399-8.5519 1.472-16.224 2.424-7.6799 0.95999-13.952 1.832-13.96 1.952 0 0.12 3.2479 1.024 7.2159 2 10.368 2.568 13.952 4.4639 15.352 8.1279 1.4 3.6639-0.16799 7.2239-4.0799 9.2318-1.04 0.536-5.5759 1.888-10.08 3-10.112 2.512-9.5998 2.416-11.04 2z" stroke-width="7.9999"/>
</svg>
