<?xml version="1.0" encoding="UTF-8"?>
<svg width="192" height="192" version="1.1" viewBox="0 0 192 192" xmlns="http://www.w3.org/2000/svg">
 <path d="m96.542-624.87c-35.757-0.0308-44.981 0.0154-45.965 0.16911-4.5965 0.7379-9.0084 2.6749-13.221 5.8263-1.7064 1.2759-5.027 4.658-6.2722 6.3951-2.183 3.0746-2.5212 3.9354-8.3475 21.445-2.9362 8.7933-5.3497 16.003-5.3804 16.034-0.0154 0.0308-0.58426-0.2613-1.2453-0.64562-0.66103-0.36895-1.8601-0.92241-2.6595-1.1991l-1.4604-0.50735h-6.3028c-5.7802 0-6.3797 0.0307-7.1484 0.29207-4.0277 1.3836-6.4566 4.6427-6.4566 8.6857 0 2.5673 0.81469 4.5195 2.6133 6.3181 1.1991 1.1991 2.3368 1.9063 3.8433 2.3982 0.72252 0.2306 1.5987 0.27675 6.1952 0.33824l5.3498 0.0615-1.1223 0.55329c-1.937 0.98387-3.3666 2.0448-5.196 3.8741-0.96849 0.96849-2.1982 2.3826-2.7363 3.1513-3.5511 5.0423-5.6112 11.13-6.5951 19.447-0.2306 1.9985-0.26127 5.0575-0.30738 29.9-0.0461 19.816-0.0153 28.04 0.10763 28.963 0.50731 3.8586 2.7518 6.595 6.6104 8.0708 0.83013 0.30746 1.0607 0.32274 12.759 0.36886 13.313 0.0461 13.113 0.0616 15.188-1.0145 2.2137-1.1376 3.9048-3.1055 4.7504-5.4883 0.3997-1.1837 0.43038-1.3681 0.4765-4.7501l0.0615-3.5204 0.78411 0.0921c0.44582 0.0461 2.1213 0.26151 3.7201 0.47673 12.175 1.6295 25.319 2.7516 39.047 3.3204 9.3928 0.3997 30.915 0.35365 39.354-0.0768 14.65-0.75326 24.581-1.6449 37.74-3.3974 1.568-0.19985 2.9209-0.36886 3.0286-0.36886 0.12297 0 0.18447 1.0146 0.23059 3.5665 0.0615 3.4743 0.0767 3.6126 0.49181 4.7348 1.2144 3.1822 3.7356 5.488 6.8563 6.2105 1.4758 0.35358 23.72 0.35375 25.196 0.0156 3.1053-0.7379 5.8264-3.2745 6.9025-6.4413l0.41502-1.2453v-28.209c0-30.192-9e-5 -30.069-0.78411-34.743-1.4143-8.4858-4.5041-15.035-9.1467-19.447-1.6603-1.568-3.8433-3.0899-5.5189-3.8124-0.49193-0.21523-0.1691-0.23054 4.3813-0.24591 3.6895-0.0154 5.196-0.077 5.9954-0.24613 2.9977-0.63029 5.5342-2.8132 6.6257-5.7187 0.53806-1.3989 0.67633-3.8124 0.30738-5.2728-0.86088-3.382-3.8278-6.1954-7.1637-6.7642-0.67641-0.12299-2.9669-0.1537-6.764-0.12295-6.6257 0.0615-6.5488 0.0616-9.5158 1.5988-0.87625 0.46118-1.6143 0.81484-1.6297 0.7841-0.0154-0.0154-2.4289-7.2253-5.3651-16.019-2.9362-8.7933-5.611-16.541-5.9184-17.233-2.721-5.811-7.7788-10.807-14.082-13.897-2.1676-1.0607-3.8124-1.6449-6.2413-2.2444l-1.7524-0.44587zm-0.15381 9.6694 43.813 0.0309 1.3836 0.43033c5.3036 1.6603 10.039 5.4421 12.206 9.7772 0.35358 0.70715 2.8746 8.04 6.3028 18.386 6.1645 18.601 6.0416 18.155 5.4113 19.524-0.36894 0.83014-1.0762 1.3989-2.06 1.6909-0.72253 0.19984-8.3474 0.23049-67.763 0.19974l-66.949-0.0459-0.75326-0.39971c-1.1068-0.55342-1.6602-1.4143-1.7371-2.6442-0.0615-0.93774 0.1537-1.6296 5.6572-18.263 3.9201-11.822 5.9187-17.663 6.3645-18.509 2.3828-4.6426 7.7326-8.701 13.082-9.9155 1.1837-0.27671 3.136-0.27682 45.042-0.26145zm-77.248 75.028c1.9089-0.0202 3.993 0.41791 5.6878 1.2365 7.4558 3.5972 9.3928 13.344 3.8586 19.477-5.8109 6.472-16.495 5.0578-20.308-2.6748-1.0915-2.2137-1.3065-3.1361-1.3065-5.6419 0-3.0131 0.66096-5.0577 2.3827-7.379 1.8909-2.5365 4.6272-4.2429 7.8555-4.8424 0.57648-0.11146 1.1934-0.16916 1.8296-0.17588zm154.04 0.0221c5.3344 0.24596 9.9155 3.9048 11.407 9.0854 0.27671 0.98386 0.35354 1.5988 0.35354 3.2898 0 2.5058-0.21523 3.4282-1.3221 5.6419-3.2744 6.5796-11.606 8.8087-17.771 4.781-5.3344-3.4743-7.21-10.223-4.4121-15.88 1.7986-3.628 5.3038-6.1951 9.3622-6.8408 0.5073-0.0769 1.5833-0.10777 2.3827-0.077zm-37.556 43.644c0.18447 0.16911-0.38435 2.506-0.79942 3.3515-0.96849 1.9831-2.7673 3.5817-4.7965 4.2581-1.3067 0.44581-6.8715 0.93793-17.11 1.5067-5.9954 0.3382-26.98 0.38424-32.591 0.0768-8.8086-0.47655-16.787-1.1223-17.909-1.4297-2.3367-0.66103-4.5659-2.6441-5.4421-4.8424-0.3382-0.87625-0.69175-2.6134-0.58414-2.8901 0.0615-0.13836 0.66117-0.10769 2.4444 0.0768 5.4881 0.61491 14.189 1.276 22.49 1.7065 5.0577 0.26135 25.088 0.26135 30.131 0 7.8248-0.41506 12.437-0.75331 19.339-1.4297 2.6134-0.26134 4.781-0.43051 4.8271-0.3844z" stroke-width="5.0986" style="paint-order:stroke fill markers"/>
 <path d="m96.418 34.419c-27.528-0.0237-34.629 0.0118-35.386 0.13019-3.5386 0.56807-6.9351 2.0592-10.178 4.4854-1.3137 0.98229-3.87 3.586-4.8286 4.9233-1.6805 2.367-1.9409 3.0297-6.4263 16.51-2.2604 6.7695-4.1185 12.32-4.1421 12.344-0.01181 0.02369-0.44979-0.20116-0.95869-0.49703-0.5089-0.28403-1.432-0.71012-2.0474-0.92315l-1.1242-0.39059h-4.8522c-4.4499 0-4.9114 0.02369-5.5032 0.22485-3.1007 1.0651-4.9706 3.5742-4.9706 6.6867 0 1.9764 0.62719 3.4793 2.0119 4.864 0.92311 0.92312 1.7989 1.4676 2.9588 1.8463 0.55624 0.17753 1.2307 0.21306 4.7693 0.26039l4.1186 0.0473-0.86404 0.42595c-1.4912 0.75743-2.5918 1.5742-4.0001 2.9825-0.74559 0.74559-1.6923 1.8343-2.1065 2.426-2.7338 3.8818-4.3198 8.5685-5.0772 14.971-0.17752 1.5385-0.20114 3.8935-0.23664 23.019-0.0355 15.255-0.0118 21.587 0.08289 22.297 0.39055 2.9705 2.1185 5.0771 5.089 6.2133 0.63908 0.2367 0.81655 0.24846 9.8228 0.28396 10.249 0.0355 10.095 0.0475 11.693-0.78098 1.7042-0.87579 3.0061-2.3908 3.6571-4.2252 0.3077-0.91128 0.33133-1.0532 0.36682-3.6569l0.0473-2.7102 0.60365 0.0709c0.34321 0.0355 1.6331 0.20132 2.8639 0.36701 9.3732 1.2545 19.492 2.1183 30.061 2.5562 7.2311 0.3077 23.8 0.27225 30.297-0.0591 11.279-0.5799 18.924-1.2663 29.055-2.6155 1.2072-0.15385 2.2487-0.28396 2.3315-0.28396 0.0947 0 0.14202 0.78111 0.17752 2.7457 0.0473 2.6747 0.0591 2.7812 0.37862 3.6451 0.93495 2.4498 2.8759 4.2249 5.2783 4.7811 1.1361 0.2722 18.261 0.27232 19.397 0.012 2.3906-0.56807 4.4854-2.5209 5.3139-4.9588l0.3195-0.9587v-21.717c0-23.244-7e-5 -23.149-0.60364-26.747-1.0888-6.5328-3.4675-11.574-7.0416-14.971-1.2782-1.2072-2.9588-2.3788-4.2487-2.935-0.37872-0.1657-0.13019-0.17748 3.3729-0.18932 2.8404-0.0118 4.0002-0.05928 4.6156-0.18949 2.3078-0.48523 4.2605-2.1657 5.1008-4.4025 0.41422-1.077 0.52067-2.9349 0.23663-4.0593-0.66275-2.6037-2.9468-4.7696-5.515-5.2074-0.52073-0.09468-2.2841-0.11833-5.2073-0.09466-5.1008 0.0473-5.0416 0.04739-7.3257 1.2309-0.67459 0.35505-1.2428 0.62731-1.2546 0.60365-0.0118-0.01189-1.8699-5.5624-4.1303-12.332-2.2604-6.7695-4.3196-12.734-4.5563-13.267-2.0948-4.4736-5.9885-8.3199-10.841-10.699-1.6687-0.8166-2.935-1.2663-4.8049-1.7279l-1.3491-0.34325zm-0.1184 7.444 33.729 0.02378 1.0651 0.33129c4.083 1.2782 7.7282 4.1896 9.3969 7.527 0.27221 0.5444 2.2131 6.1896 4.8522 14.154 4.7458 14.32 4.6511 13.977 4.1659 15.03-0.28403 0.63908-0.82848 1.0769-1.5859 1.3018-0.55623 0.15385-6.4262 0.17744-52.168 0.15377l-51.541-0.03533-0.57989-0.30772c-0.85211-0.42605-1.2781-1.0888-1.3373-2.0356-0.0473-0.72192 0.11833-1.2545 4.3552-14.06 3.0179-9.101 4.5565-13.598 4.8997-14.249 1.8344-3.5741 5.9529-6.6985 10.071-7.6335 0.91128-0.21303 2.4142-0.21311 34.676-0.20127zm-59.47 57.761c1.4696-0.01557 3.074 0.32172 4.3788 0.95192 5.7399 2.7694 7.2311 10.273 2.9705 14.995-4.4736 4.9824-12.699 3.8937-15.634-2.0592-0.84028-1.7042-1.0058-2.4143-1.0058-4.3434 0-2.3196 0.50884-3.8937 1.8343-5.6807 1.4557-1.9527 3.5622-3.2664 6.0475-3.728 0.44381-0.0858 0.91872-0.13022 1.4086-0.13539zm118.58 0.01702c4.1067 0.18935 7.6335 3.0061 8.7815 6.9944 0.21302 0.75743 0.27217 1.2308 0.27217 2.5326 0 1.9291-0.16569 2.6392-1.0178 4.3434-2.5208 5.0653-8.9352 6.7814-13.681 3.6806-4.1067-2.6747-5.5506-7.8702-3.3967-12.225 1.3847-2.793 4.0831-4.7693 7.2075-5.2664 0.39055-0.05919 1.2189-0.08297 1.8343-0.05928zm-28.912 33.599c0.14202 0.13018-0.29589 1.9292-0.61543 2.5801-0.74559 1.5267-2.1304 2.7574-3.6926 3.2781-1.006 0.34321-5.29 0.72207-13.172 1.16-4.6156 0.26036-20.77 0.29581-25.09 0.0591-6.7813-0.36687-12.923-0.86397-13.787-1.1007-1.7989-0.5089-3.515-2.0356-4.1896-3.728-0.26036-0.67459-0.53254-2.0119-0.4497-2.2249 0.0473-0.10652 0.509-0.0829 1.8818 0.0591 4.225 0.47338 10.924 0.98235 17.314 1.3137 3.8937 0.20119 19.314 0.20119 23.196 0 6.0239-0.31954 9.5744-0.57994 14.888-1.1007 2.0119-0.2012 3.6807-0.33144 3.7162-0.29594z" stroke-width="3.9252" style="paint-order:stroke fill markers"/>
</svg>
