<svg id="vector" xmlns="http://www.w3.org/2000/svg" width="192" height="192" viewBox="0 0 192 192"><path fill="#000" d="m96.42,34.42c-27.53,-0.02 -34.63,0.01 -35.39,0.13 -3.54,0.57 -6.94,2.06 -10.18,4.49 -1.31,0.98 -3.87,3.59 -4.83,4.92 -1.68,2.37 -1.94,3.03 -6.43,16.51 -2.26,6.77 -4.12,12.32 -4.14,12.34 -0.01,0.02 -0.45,-0.2 -0.96,-0.5 -0.51,-0.28 -1.43,-0.71 -2.05,-0.92l-1.12,-0.39h-4.85c-4.45,0 -4.91,0.02 -5.5,0.22 -3.1,1.07 -4.97,3.57 -4.97,6.69 0,1.98 0.63,3.48 2.01,4.86 0.92,0.92 1.8,1.47 2.96,1.85 0.56,0.18 1.23,0.21 4.77,0.26l4.12,0.05 -0.86,0.43c-1.49,0.76 -2.59,1.57 -4,2.98 -0.75,0.75 -1.69,1.83 -2.11,2.43 -2.73,3.88 -4.32,8.57 -5.08,14.97 -0.18,1.54 -0.2,3.89 -0.24,23.02 -0.04,15.26 -0.01,21.59 0.08,22.3 0.39,2.97 2.12,5.08 5.09,6.21 0.64,0.24 0.82,0.25 9.82,0.28 10.25,0.04 10.1,0.05 11.69,-0.78 1.7,-0.88 3.01,-2.39 3.66,-4.23 0.31,-0.91 0.33,-1.05 0.37,-3.66l0.05,-2.71 0.6,0.07c0.34,0.04 1.63,0.2 2.86,0.37 9.37,1.25 19.49,2.12 30.06,2.56 7.23,0.31 23.8,0.27 30.3,-0.06 11.28,-0.58 18.92,-1.27 29.06,-2.62 1.21,-0.15 2.25,-0.28 2.33,-0.28 0.09,0 0.14,0.78 0.18,2.75 0.05,2.67 0.06,2.78 0.38,3.65 0.93,2.45 2.88,4.22 5.28,4.78 1.14,0.27 18.26,0.27 19.4,0.01 2.39,-0.57 4.49,-2.52 5.31,-4.96l0.32,-0.96v-21.72c0,-23.24 -0,-23.15 -0.6,-26.75 -1.09,-6.53 -3.47,-11.57 -7.04,-14.97 -1.28,-1.21 -2.96,-2.38 -4.25,-2.93 -0.38,-0.17 -0.13,-0.18 3.37,-0.19 2.84,-0.01 4,-0.06 4.62,-0.19 2.31,-0.49 4.26,-2.17 5.1,-4.4 0.41,-1.08 0.52,-2.93 0.24,-4.06 -0.66,-2.6 -2.95,-4.77 -5.51,-5.21 -0.52,-0.09 -2.28,-0.12 -5.21,-0.09 -5.1,0.05 -5.04,0.05 -7.33,1.23 -0.67,0.36 -1.24,0.63 -1.25,0.6 -0.01,-0.01 -1.87,-5.56 -4.13,-12.33 -2.26,-6.77 -4.32,-12.73 -4.56,-13.27 -2.09,-4.47 -5.99,-8.32 -10.84,-10.7 -1.67,-0.82 -2.93,-1.27 -4.8,-1.73l-1.35,-0.34zM96.3,41.86 L130.03,41.89 131.09,42.22c4.08,1.28 7.73,4.19 9.4,7.53 0.27,0.54 2.21,6.19 4.85,14.15 4.75,14.32 4.65,13.98 4.17,15.03 -0.28,0.64 -0.83,1.08 -1.59,1.3 -0.56,0.15 -6.43,0.18 -52.17,0.15l-51.54,-0.04 -0.58,-0.31c-0.85,-0.43 -1.28,-1.09 -1.34,-2.04 -0.05,-0.72 0.12,-1.25 4.36,-14.06 3.02,-9.1 4.56,-13.6 4.9,-14.25 1.83,-3.57 5.95,-6.7 10.07,-7.63 0.91,-0.21 2.41,-0.21 34.68,-0.2zM36.83,99.62c1.47,-0.02 3.07,0.32 4.38,0.95 5.74,2.77 7.23,10.27 2.97,14.99 -4.47,4.98 -12.7,3.89 -15.63,-2.06 -0.84,-1.7 -1.01,-2.41 -1.01,-4.34 0,-2.32 0.51,-3.89 1.83,-5.68 1.46,-1.95 3.56,-3.27 6.05,-3.73 0.44,-0.09 0.92,-0.13 1.41,-0.14zM155.41,99.64c4.11,0.19 7.63,3.01 8.78,6.99 0.21,0.76 0.27,1.23 0.27,2.53 0,1.93 -0.17,2.64 -1.02,4.34 -2.52,5.07 -8.94,6.78 -13.68,3.68 -4.11,-2.67 -5.55,-7.87 -3.4,-12.23 1.38,-2.79 4.08,-4.77 7.21,-5.27 0.39,-0.06 1.22,-0.08 1.83,-0.06zM126.5,133.24c0.14,0.13 -0.3,1.93 -0.62,2.58 -0.75,1.53 -2.13,2.76 -3.69,3.28 -1.01,0.34 -5.29,0.72 -13.17,1.16 -4.62,0.26 -20.77,0.3 -25.09,0.06 -6.78,-0.37 -12.92,-0.86 -13.79,-1.1 -1.8,-0.51 -3.52,-2.04 -4.19,-3.73 -0.26,-0.67 -0.53,-2.01 -0.45,-2.22 0.05,-0.11 0.51,-0.08 1.88,0.06 4.22,0.47 10.92,0.98 17.31,1.31 3.89,0.2 19.31,0.2 23.2,0 6.02,-0.32 9.57,-0.58 14.89,-1.1 2.01,-0.2 3.68,-0.33 3.72,-0.3z" id="path_0"/></svg>