<svg xmlns="http://www.w3.org/2000/svg" width="192" height="192" viewBox="0 0 192 192"><g fill="none" stroke="#000" stroke-width="8"><path d="M56.694 51.728h78.609a15.468 15.468 0 0 1 13.387 7.705 15.394 15.394 0 0 1 2.069 7.705v89.452a15.394 15.394 0 0 1-7.73 13.346 15.468 15.468 0 0 1-7.726 2.064H56.694a15.489 15.489 0 0 1-10.928-4.512 15.401 15.401 0 0 1-4.525-10.898V67.138c0-4.087 1.63-8.007 4.525-10.898a15.487 15.487 0 0 1 10.928-4.513z"/><path d="M63.321 73.915h65.357c2.345 0 4.595.928 6.252 2.583a8.796 8.796 0 0 1 2.59 6.234V133.9c0 1.548-.41 3.069-1.186 4.409s-1.892 2.452-3.235 3.226a8.86 8.86 0 0 1-4.42 1.182H63.32a8.86 8.86 0 0 1-4.42-1.182 8.827 8.827 0 0 1-3.236-3.226 8.799 8.799 0 0 1-1.185-4.409V82.732c0-2.338.93-4.583 2.59-6.234a8.845 8.845 0 0 1 6.251-2.583zM87.642 60.5h16.712c.534 0 1.048.211 1.424.59a1.997 1.997 0 0 1 0 2.84c-.376.379-.89.59-1.424.59H87.642a2.008 2.008 0 0 1-1.424-.59 1.997 1.997 0 0 1-.592-1.42c0-.533.212-1.045.592-1.42.376-.379.89-.59 1.424-.59zM73.678 60.5a2.342 2.342 0 0 1 2.345 2.335c0 .62-.249 1.216-.686 1.655a2.345 2.345 0 0 1-4-1.655c0-.62.248-1.213.685-1.652a2.356 2.356 0 0 1 1.656-.683zM117.67 60.5a2.342 2.342 0 0 1 2.345 2.335c0 .62-.249 1.216-.686 1.655a2.346 2.346 0 0 1-4-1.655c0-.62.248-1.213.685-1.652a2.356 2.356 0 0 1 1.656-.683zM91.421 47.29h9.198a1.008 1.008 0 0 1 1.007 1.005v2.429a1.008 1.008 0 0 1-1.008 1.005h-9.197a1.008 1.008 0 0 1-1.008-1.005v-2.429a1.008 1.008 0 0 1 1.008-1.005zM94.801 27.23h2.311c.286 0 .558.114.76.312.198.2.312.472.312.757V46.22c0 .284-.114.556-.313.757a1.086 1.086 0 0 1-.759.311h-2.311a1.073 1.073 0 0 1-1.068-1.068V28.299A1.073 1.073 0 0 1 94.8 27.23z"/><path d="M92.38600000000001 23.672a3.546 3.546 0 0 1 .64-2.147 3.593 3.593 0 0 1 1.805-1.344 3.58 3.58 0 0 1 2.247 0 3.592 3.592 0 0 1 1.804 1.344c.44.626.665 1.38.641 2.147a3.547 3.547 0 0 1-.641 2.147 3.592 3.592 0 0 1-1.804 1.344 3.58 3.58 0 0 1-2.247 0 3.592 3.592 0 0 1-1.804-1.344 3.547 3.547 0 0 1-.642-2.147M63.926 98.347a11.141 11.141 0 0 1 7.676-10.77 11.188 11.188 0 0 1 12.59 4.127 11.117 11.117 0 0 1 2.063 6.643 11.142 11.142 0 0 1-7.676 10.77 11.188 11.188 0 0 1-12.59-4.127c-1.381-1.936-2.103-4.533-2.063-6.911"/><path stroke-linecap="round" stroke-linejoin="round" d="M104.25 121.26s-1.492 2.901-7.068 2.901-7.068-2.901-7.068-2.901"/><path d="M106.59 98.347a11.141 11.141 0 0 1 7.676-10.77 11.188 11.188 0 0 1 12.59 4.127 11.117 11.117 0 0 1 2.063 6.643 11.143 11.143 0 0 1-7.676 10.77 11.188 11.188 0 0 1-12.59-4.127c-1.381-1.936-2.103-5.605-2.063-7.984"/></g></svg>