<?xml version="1.0" encoding="UTF-8"?>
<svg id="SVGRoot" width="192px" height="192px" version="1.1" viewBox="0 0 192 192" xmlns="http://www.w3.org/2000/svg">
 <g fill="none" stroke="#000" stroke-width="8">
  <path id="path" d="m56.694 51.728h78.609c2.7142 0 5.3781 0.7102 7.7262 2.0636 2.3514 1.3534 4.3032 3.2964 5.6603 5.6414 1.3538 2.3417 2.0693 4.9982 2.0693 7.705v89.452c0 2.7068-0.71551 5.3634-2.0693 7.705-1.3571 2.345-3.3088 4.288-5.6603 5.6414-2.3481 1.3534-5.012 2.0636-7.7262 2.0636h-78.609c-4.0983 0-8.0286-1.6248-10.928-4.5124-2.8957-2.891-4.5249-6.8106-4.5249-10.898v-89.452c0-4.087 1.6292-8.0065 4.5249-10.898 2.899-2.8877 6.8293-4.5125 10.928-4.5125z"/>
  <path d="m63.321 73.915h65.357c2.3447 0 4.5954 0.92795 6.2515 2.5829 1.6594 1.6515 2.59 3.896 2.59 6.2343v51.168c0 1.5477-0.40982 3.0686-1.1858 4.4086s-1.8912 2.4522-3.2349 3.226c-1.3437 0.77385-2.8688 1.1826-4.4207 1.1826h-65.357c-1.552 0-3.077-0.40871-4.4207-1.1826-1.3437-0.77384-2.459-1.886-3.2349-3.226-0.77599-1.34-1.1858-2.8609-1.1858-4.4086v-51.168c0-2.3383 0.93051-4.5828 2.59-6.2343 1.6561-1.6549 3.9068-2.5829 6.2515-2.5829z"/>
  <path d="m87.642 60.5h16.712c0.53412 0 1.0481 0.21104 1.4243 0.5896 0.3796 0.3752 0.59122 0.88775 0.59122 1.4204 0 0.53265-0.21162 1.0452-0.59122 1.4204-0.37623 0.37855-0.89019 0.5896-1.4243 0.5896h-16.712c-0.53412 0-1.0481-0.21106-1.4243-0.5896-0.3796-0.37519-0.59123-0.88775-0.59123-1.4204 0-0.53266 0.21163-1.0452 0.59123-1.4204 0.37623-0.37855 0.89019-0.5896 1.4243-0.5896z"/>
  <path d="m73.678 60.5c0.62146 0 1.216 0.24454 1.6561 0.6834 0.44006 0.43885 0.68864 1.0318 0.68864 1.6516 0 0.61975-0.24858 1.216-0.68529 1.6549-0.44006 0.4355-1.038 0.6834-1.6595 0.6834-0.62146 0-1.216-0.2479-1.6561-0.68674-0.44006-0.43885-0.68528-1.0318-0.68528-1.6516 0-0.61976 0.24858-1.2127 0.68528-1.6516 0.44006-0.4355 1.0346-0.6834 1.6561-0.6834z"/>
  <path d="m117.67 60.5c0.62146 0 1.216 0.24454 1.6561 0.6834 0.44006 0.43885 0.68865 1.0318 0.68865 1.6516 0 0.61975-0.24859 1.216-0.68529 1.6549-0.44006 0.4355-1.038 0.6834-1.6595 0.6834s-1.216-0.2479-1.6561-0.68674c-0.44006-0.43885-0.68527-1.0318-0.68527-1.6516 0-0.61976 0.24858-1.2127 0.68527-1.6516 0.44006-0.4355 1.0346-0.6834 1.6561-0.6834z"/>
  <path d="m91.421 47.29h9.1976c0.26873 0 0.52404 0.1072 0.71215 0.2948 0.18811 0.18761 0.29561 0.4422 0.29561 0.7102v2.4288c0 0.268-0.1075 0.5226-0.29561 0.7102-0.18811 0.1876-0.44342 0.2948-0.71215 0.2948h-9.1976c-0.26874 0-0.52404-0.1072-0.71216-0.2948-0.18811-0.18761-0.29561-0.4422-0.29561-0.7102v-2.4288c0-0.268 0.1075-0.5226 0.29561-0.7102 0.18811-0.1876 0.44341-0.2948 0.71216-0.2948z"/>
  <path d="m94.801 27.23h2.3112c0.28553 0 0.55762 0.1139 0.75918 0.31155 0.19819 0.201 0.3124 0.47235 0.3124 0.7571v17.922c0 0.28475-0.11421 0.5561-0.3124 0.7571-0.20156 0.19765-0.47365 0.31155-0.75918 0.31155h-2.3112c-0.28217 0-0.55427-0.1139-0.75582-0.3149-0.20156-0.201-0.31241-0.47235-0.31241-0.75375v-17.922c0-0.2814 0.11086-0.55275 0.31241-0.75375 0.20155-0.201 0.47364-0.3149 0.75582-0.3149z"/>
  <path d="m95.956 23.672m-3.5709 0c-0.02353-0.76715 0.20155-1.5209 0.64161-2.1473 0.44006-0.6298 1.075-1.0988 1.8039-1.3434 0.72895-0.2412 1.5184-0.2412 2.2473 0 0.72895 0.24455 1.3638 0.71355 1.8039 1.3434 0.44006 0.62645 0.66513 1.3802 0.64162 2.1473 0.02353 0.76715-0.20156 1.5209-0.64162 2.1474-0.44006 0.6298-1.0749 1.0988-1.8039 1.3434-0.72895 0.2412-1.5184 0.2412-2.2473 0-0.72895-0.24455-1.3639-0.71355-1.8039-1.3434-0.44006-0.62645-0.66512-1.3802-0.64161-2.1474"/>
  <path d="m63.926 98.347c-0.0403-2.3785 0.68192-4.7068 2.0626-6.643 1.3806-1.9397 3.3491-3.3869 5.6133-4.1272 2.2675-0.74369 4.7096-0.74369 6.9771 0 2.2641 0.74035 4.2326 2.1876 5.6133 4.1272 1.3806 1.9363 2.1029 4.2645 2.0626 6.643 0.0403 2.3785-0.68192 4.7067-2.0626 6.6431-1.3806 1.9396-3.3491 3.3868-5.6133 4.1272-2.2675 0.7437-4.7096 0.7437-6.9771 0-2.2641-0.74035-4.2326-2.1876-5.6133-4.1272-1.3806-1.9363-2.1029-4.5327-2.0626-6.9112"/>
  <path d="m104.25 121.26s-1.4915 2.9011-7.0678 2.9011c-5.5763 0-7.0678-2.9011-7.0678-2.9011" stroke-linecap="round" stroke-linejoin="round"/>
  <path d="m106.59 98.347c-0.0403-2.3785 0.68192-4.7068 2.0626-6.643 1.3806-1.9397 3.3492-3.3869 5.6133-4.1272 2.2675-0.74369 4.7096-0.74369 6.9771 0 2.2641 0.74035 4.2326 2.1876 5.6133 4.1272 1.3806 1.9363 2.1029 4.2645 2.0626 6.643 0.0403 2.3785-0.68193 4.7067-2.0626 6.6431-1.3806 1.9396-3.3492 3.3868-5.6133 4.1272-2.2675 0.7437-4.7096 0.7437-6.9771 0-2.2641-0.74035-4.2326-2.1876-5.6133-4.1272-1.3806-1.9363-2.1029-5.6053-2.0626-7.9838"/>
 </g>
</svg>
