<?xml version="1.0" encoding="UTF-8"?>
<svg id="SVGRoot" width="192px" height="192px" version="1.1" viewBox="0 0 192 192" xmlns="http://www.w3.org/2000/svg">
 <g fill="none" stroke="#000" stroke-linecap="round" stroke-linejoin="round">
  <g stroke-width="8">
   <ellipse class="c" cx="96" cy="85.518" rx="42.496" ry="42.368"/>
   <path class="c" d="m161.71 85.518c0-36.184-29.421-65.518-65.715-65.518-36.293 0-65.715 29.333-65.715 65.518 0 20.531 9.4857 38.839 24.31 50.851l41.405 35.631 41.405-35.631c14.824-12.013 24.31-30.321 24.31-50.851z"/>
   <ellipse class="c" transform="matrix(.93185 -.36284 .36474 .93111 0 0)" cx="57.463" cy="93.901" rx="4.7294" ry="6.6856"/>
  </g>
  <ellipse class="c" transform="matrix(.83518 -.54998 .55229 .83365 0 0)" cx="19.64" cy="107.68" rx="4.727" ry="6.6891" stroke-width="8"/>
  <path class="c" d="m96 78.966c5.6406 0 6.9447 7.2473 12.343 12.383 3.4608 3.2922 8.773 5.0121 8.773 10.516 0 6.1915-4.5343 9.0413-8.4771 9.0413-3.9428 0-6.5495-3.3413-12.639-3.3413-6.0898 0-8.6964 3.3413-12.639 3.3413-3.9428 0-8.4771-2.8498-8.4771-9.0413 0-5.5036 5.3118-7.2231 8.773-10.516 5.3986-5.1353 6.7031-12.383 12.343-12.383z" stroke-width="8"/>
  <ellipse class="c" transform="matrix(.36474 -.93111 .93185 .36284 0 0)" cx="-24.237" cy="121.31" rx="6.6856" ry="4.7294" stroke-width="8"/>
  <ellipse class="c" transform="matrix(.55229 -.83365 .83518 .54998 0 0)" cx="-2.0832" cy="140.42" rx="6.6891" ry="4.727" stroke-width="8"/>
 </g>
</svg>
