<svg xmlns="http://www.w3.org/2000/svg" width="192" height="192" viewBox="0 0 192 192"><g fill="none" stroke="#000" stroke-linecap="round" stroke-linejoin="round" stroke-width="8"><ellipse cx="96" cy="85.518" class="c" rx="42.496" ry="42.368"/><path d="M161.71 85.518C161.71 49.334 132.289 20 95.995 20 59.702 20 30.28 49.333 30.28 85.518c0 20.531 9.486 38.839 24.31 50.851L95.995 172l41.405-35.631c14.824-12.013 24.31-30.321 24.31-50.851z" class="c"/><ellipse cx="57.463" cy="93.901" class="c" rx="4.729" ry="6.686" transform="rotate(-21.275) skewX(.117)"/><ellipse cx="19.64" cy="107.68" class="c" rx="4.727" ry="6.689" transform="rotate(-33.365) skewX(.159)"/><path d="M96 78.966c5.64 0 6.945 7.247 12.343 12.383 3.46 3.292 8.773 5.012 8.773 10.516 0 6.191-4.534 9.041-8.477 9.041-3.943 0-6.55-3.341-12.64-3.341-6.089 0-8.695 3.341-12.638 3.341-3.943 0-8.477-2.85-8.477-9.041 0-5.504 5.312-7.223 8.773-10.516C89.055 86.214 90.36 78.966 96 78.966z" class="c"/><ellipse cx="-24.237" cy="121.31" class="c" rx="6.686" ry="4.729" transform="rotate(-68.608) skewX(.117)"/><ellipse cx="-2.083" cy="140.42" class="c" rx="6.689" ry="4.727" transform="rotate(-56.476) skewX(.159)"/></g></svg>