<svg xmlns="http://www.w3.org/2000/svg" width="192" height="192" viewBox="0 0 192 192"><g fill="none" stroke="#000" stroke-linecap="round" stroke-linejoin="round"><path stroke-width="6" d="m67.221 74.679-4.148 12.218H52.52l17.691-47.516H82.43l17.607 47.516H88.947L84.8 74.679zm15.519-6.998-6.461-19.215h-.452l-6.461 19.215z"/><path stroke-width="8" d="M24.022 29.872c0-5.022 2.003-9.876 5.559-13.431a19.033 19.033 0 0 1 13.43-5.559h66.506c5.05 0 9.875 2.004 13.459 5.559a19.033 19.033 0 0 1 5.558 13.431v28.526h28.498c5.05 0 9.876 2.003 13.431 5.559a18.984 18.984 0 0 1 5.559 13.43v66.506c0 5.05-2.003 9.875-5.559 13.43a18.984 18.984 0 0 1-13.43 5.56H90.526a18.984 18.984 0 0 1-18.99-18.99v-28.498H43.013a19.033 19.033 0 0 1-13.431-5.559 19.099 19.099 0 0 1-5.559-13.459zm18.989-9.48a9.412 9.412 0 0 0-6.715 2.793 9.53 9.53 0 0 0-2.794 6.715v66.505a9.53 9.53 0 0 0 2.794 6.716 9.53 9.53 0 0 0 6.715 2.793h66.505c2.54 0 4.938-1.016 6.744-2.793a9.503 9.503 0 0 0 2.765-6.716V29.9a9.503 9.503 0 0 0-2.765-6.715 9.477 9.477 0 0 0-6.744-2.794zm67.831 94.974c1.834 2.85 3.81 5.53 5.982 8.014-7.082 5.474-15.886 9.509-26.297 12.274 1.693 2.088 4.289 6.038 5.276 8.267 10.694-3.414 19.78-8.041 27.426-14.22 7.365 6.32 16.506 11.06 27.821 13.994 1.27-2.398 3.922-6.405 5.982-8.465-10.694-2.398-19.554-6.574-26.805-12.189 6.49-7.11 11.625-15.688 15.406-26.213h11.371v-9.96h-28.498v9.96h7.28c-3.02 8.014-7.026 14.672-12.076 20.26a51.74 51.74 0 0 1-3.95-4.685 19.034 19.034 0 0 1-8.945 2.963z"/></g></svg>