<?xml version="1.0" encoding="UTF-8"?>
<svg id="SVGRoot" width="192px" height="192px" version="1.1" viewBox="0 0 192 192" xmlns="http://www.w3.org/2000/svg">
 <path class="cls-1" d="m170.74 116.72c-3.2762-10.431-22.076-45.242-29.369-57.204-7.3715-12.873-15.913-18.213-28.667-17.964a865.08 918.08 0 0 0-89.706 6.0846 3.5882 3.8081 0 0 0-2.8082 2.5249 3.5102 3.7253 0 0 0 2.2622 4.7601c5.3434 0.33114 24.884 1.159 33.893 2.0282a17.161 18.213 0 0 1 14.353 11.134c3.9003 7.8231 12.754 31.624 16.108 40.771a16.459 17.467 0 0 1 0.31202 14.322 11.974 12.707 0 0 1-12.598 4.1392c-5.8894-1.1176-43.293-9.7271-46.998-10.596-4.6803-1.159-6.2404 8.2784-1.2091 9.9755 6.7085 2.7319 38.496 14.197 64.081 21.565a55.735 59.149 0 0 0 30.149 0c12.286-2.5249 29.408-6.2502 39.783-9.2718a18.292 19.413 0 0 0 2.3402-0.82785 15.367 16.308 0 0 0 8.0736-21.441zm-55.657 21.11a7.9975 8.4874 0 1 1-0.35102-16.971v0a7.9961 8.486 0 0 1 0.19501 16.971zm28.94-36.88c-5.4994 1.4901-24.728 4.4703-32.45 5.381-8.4636 1.2832-13.222-0.41392-15.952-6.9953-2.2622-4.1392-11.701-29.678-13.105-33.403-2.8472-7.8645 0.85806-10.141 5.3434-10.596 3.7053-0.49671 21.256-2.0696 27.575-2.6491 9.5166-0.78645 14.431 3.1044 19.189 11.88 5.3824 9.603 10.219 18.502 14.353 26.367 2.3402 4.4703 0.50704 8.5682-4.9533 10.058zm12.832 27.36a7.2155 7.6575 0 1 1 7.1765-7.4506 7.1765 7.6161 0 0 1-7.1765 7.492z" fill="none" stroke="#000" stroke-linecap="round" stroke-linejoin="round" stroke-width="8"/>
</svg>
