<svg xmlns="http://www.w3.org/2000/svg" width="192" height="192" viewBox="0 0 192 192"><path fill="none" stroke="#000" stroke-linecap="round" stroke-linejoin="round" stroke-width="8" d="M170.74 116.72c-3.276-10.431-22.076-45.242-29.369-57.204-7.372-12.873-15.913-18.213-28.667-17.964a865.08 918.08 0 0 0-89.706 6.085 3.588 3.808 0 0 0-2.808 2.525 3.51 3.725 0 0 0 2.262 4.76c5.343.33 24.884 1.159 33.893 2.028a17.161 18.213 0 0 1 14.353 11.134c3.9 7.823 12.754 31.624 16.108 40.77a16.459 17.467 0 0 1 .312 14.323 11.974 12.707 0 0 1-12.598 4.139c-5.89-1.118-43.293-9.727-46.998-10.596-4.68-1.159-6.24 8.278-1.21 9.976 6.71 2.731 38.497 14.196 64.082 21.564a55.735 59.149 0 0 0 30.149 0c12.286-2.524 29.408-6.25 39.783-9.271a18.292 19.413 0 0 0 2.34-.828 15.367 16.308 0 0 0 8.074-21.441zm-55.657 21.11a7.997 8.487 0 1 1-.351-16.971v0a7.996 8.486 0 0 1 .195 16.971zm28.94-36.88c-5.5 1.49-24.728 4.47-32.45 5.381-8.464 1.283-13.222-.414-15.952-6.995-2.262-4.14-11.701-29.678-13.105-33.403-2.847-7.865.858-10.141 5.343-10.596 3.706-.497 21.256-2.07 27.575-2.65 9.517-.786 14.431 3.105 19.19 11.88 5.382 9.604 10.218 18.503 14.352 26.368 2.34 4.47.507 8.568-4.953 10.058zm12.832 27.36a7.215 7.657 0 1 1 7.177-7.45 7.176 7.616 0 0 1-7.177 7.491z" class="cls-1"/></svg>