<?xml version="1.0" encoding="UTF-8"?>
<svg id="SVGRoot" width="192px" height="192px" version="1.1" viewBox="0 0 192 192" xmlns="http://www.w3.org/2000/svg">
 <g fill="none" stroke="#000" stroke-linecap="round" stroke-linejoin="round">
  <path id="path" d="m67.221 74.679-4.1478 12.218h-10.553l17.691-47.516h12.218l17.607 47.516h-11.089l-4.1478-12.218zm15.519-6.9976-6.4615-19.215h-0.45146l-6.4615 19.215z" stroke-width="6"/>
  <path d="m24.022 29.872c0-5.0225 2.0033-9.8756 5.5586-13.431 3.5552-3.5552 8.4084-5.5586 13.431-5.5586h66.505c5.0507 0 9.8756 2.0033 13.459 5.5586 3.5552 3.5552 5.5586 8.4084 5.5586 13.431v28.526h28.498c5.0507 0 9.8756 2.0033 13.431 5.5586 3.5552 3.5552 5.5586 8.3802 5.5586 13.431v66.505c0 5.0507-2.0033 9.8756-5.5586 13.431-3.5552 3.5552-8.3802 5.5586-13.431 5.5586h-66.505c-5.0507 0-9.8756-2.0033-13.431-5.5586-3.5552-3.5552-5.5586-8.3802-5.5586-13.431v-28.498h-28.526c-5.0225 0-9.8756-2.0033-13.431-5.5586-3.5552-3.5834-5.5586-8.4084-5.5586-13.459zm18.989-9.4806c-2.5112 0-4.9378 0.98756-6.7154 2.7934-1.7776 1.7776-2.7934 4.2042-2.7934 6.7154v66.505c0 2.5112 1.0158 4.9378 2.7934 6.7154 1.7776 1.7776 4.2042 2.7934 6.7154 2.7934h66.505c2.5394 0 4.9378-1.0158 6.7436-2.7934 1.7776-1.7776 2.7652-4.2042 2.7652-6.7154v-66.505c0-2.5112-0.98756-4.9378-2.7652-6.7154-1.8058-1.8058-4.2042-2.7934-6.7436-2.7934zm67.831 94.975c1.834 2.8498 3.8092 5.5304 5.9818 8.0134-7.0822 5.4739-15.886 9.5088-26.297 12.274 1.693 2.088 4.2888 6.0382 5.2764 8.2673 10.694-3.4142 19.779-8.0416 27.426-14.221 7.3644 6.3204 16.506 11.061 27.821 13.995 1.2697-2.3984 3.922-6.405 5.9818-8.4648-10.694-2.3984-19.554-6.5744-26.805-12.189 6.4897-7.1104 11.625-15.688 15.406-26.213h11.371v-9.9603h-28.498v9.9603h7.2798c-3.0191 8.0134-7.0258 14.672-12.076 20.259-1.4108-1.4954-2.737-3.0473-3.9502-4.6839-2.6805 1.7212-5.7561 2.737-8.9445 2.9627z" stroke-width="8"/>
 </g>
</svg>
