<?xml version="1.0" encoding="UTF-8"?>
<svg id="SVGRoot" width="192px" height="192px" version="1.1" viewBox="0 0 192 192" xmlns="http://www.w3.org/2000/svg">
 <path d="m98.567 171.23c-1.0216-0.44421-2.0857-1.4528-2.3969-2.2718-0.35561-0.93583-0.55968-20.492-0.55968-53.633v-52.16h-34.713c-38.812 0-37.458 0.13372-38.618-3.8122-0.4101-1.3957-0.56102-7.903-0.44464-19.171l0.1762-17.058 1.5638-1.5638 1.5637-1.5638h142.01l1.3981 1.3142c3.0006 2.8205 2.8638 3.2675-8.6598 28.311-6.1343 13.331-13.791 30.204-28.167 62.072-4.2702 9.466-9.4746 20.893-11.565 25.393-2.0907 4.5002-5.7736 12.626-8.1842 18.057-6.1966 13.961-6.7315 14.971-8.4813 16.005-1.8789 1.1106-2.5259 1.1212-4.9183 0.0808zm19.889-55.868c5.0495-11.173 11.207-24.758 13.683-30.19 4.1412-9.0839 6.8941-15.14 20.199-44.438l4.6766-10.298h-124.57v21.973l66.453 0.3165 2.4179 1.7007c1.3299 0.93538 2.9377 2.5859 3.5729 3.6679 1.1312 1.9268 1.1582 2.8088 1.3104 42.873l0.1554 40.906 1.4602-3.0987c0.80313-1.7043 5.5916-12.24 10.641-23.413z" fill="none" stroke="#000" stroke-linecap="round" stroke-linejoin="round" stroke-width="8"/>
</svg>
