<svg xmlns="http://www.w3.org/2000/svg" width="192" height="192" viewBox="0 0 192 192"><path fill="none" stroke="#000" stroke-linecap="round" stroke-linejoin="round" stroke-width="8" d="M98.567 171.23c-1.022-.444-2.086-1.453-2.397-2.272-.356-.936-.56-20.492-.56-53.633v-52.16H60.897c-38.812 0-37.458.134-38.618-3.812-.41-1.396-.56-7.903-.444-19.171l.176-17.058 1.564-1.564 1.563-1.564h142.01l1.399 1.315c3 2.82 2.863 3.267-8.66 28.31-6.135 13.332-13.791 30.205-28.167 62.073-4.27 9.466-9.475 20.893-11.565 25.393s-5.774 12.626-8.184 18.057c-6.197 13.96-6.732 14.97-8.482 16.005-1.879 1.11-2.526 1.12-4.918.08zm19.889-55.868c5.05-11.173 11.207-24.758 13.683-30.19 4.141-9.084 6.894-15.14 20.199-44.438l4.677-10.298H32.445v21.973l66.453.316 2.418 1.701c1.33.936 2.937 2.586 3.572 3.668 1.132 1.927 1.159 2.809 1.31 42.873l.156 40.906 1.46-3.099c.804-1.704 5.592-12.24 10.641-23.413z"/></svg>