<svg id="vector" xmlns="http://www.w3.org/2000/svg" width="192" height="192" viewBox="0 0 192 192"><path fill="#000" d="m58.85,22.32c-8.05,0 -14.56,6.51 -14.56,14.56l0,18.45l-4.38,0c-8.05,0 -14.56,6.51 -14.56,14.56s6.51,14.56 14.56,14.56l4.38,0l0,33.26c0,32.1 25.96,58.14 58.03,58.27l14.81,0c8.05,0 14.56,-6.51 14.56,-14.56s-6.51,-14.56 -14.56,-14.56l-14.56,0c-16.1,0 -29.15,-13.05 -29.15,-29.15l0,-33.24l34.48,0c8.05,0 12.62,-6.51 12.62,-14.56s-6.53,-14.56 -14.56,-14.56l-32.54,0l0,-18.45c0,-8.07 -6.51,-14.58 -14.56,-14.58z" id="path_0"/><path fill="#000" d="m122.96,45.15c8.05,0 14.56,6.53 14.56,14.56 0,2.68 2.17,4.85 4.85,4.85s4.85,-2.17 4.85,-4.85c0,-13.41 -10.87,-24.28 -24.28,-24.28 -2.68,0 -4.85,2.17 -4.85,4.85s2.17,4.87 4.87,4.87z" id="path_1"/><path fill="#000" d="m122.96,16c-2.68,0 -4.85,2.17 -4.85,4.85s2.17,4.85 4.85,4.85c18.78,0 33.99,15.22 33.99,33.99 0,2.68 2.17,4.85 4.85,4.85s4.85,-2.17 4.85,-4.85c0,-24.13 -19.56,-43.69 -43.69,-43.69z" id="path_2"/></svg>