<?xml version="1.0" encoding="UTF-8"?>
<svg width="192" height="192" fill="none" version="1.1" viewBox="0 0 192 192" xmlns="http://www.w3.org/2000/svg">
 <g transform="matrix(.16328 0 0 .16328 14.359 14.367)" fill="#000">
  <path d="m272.5 48.7c-49.3 0-89.2 39.9-89.2 89.2v113h-26.8c-49.3 0-89.2 39.9-89.2 89.2s39.9 89.2 89.2 89.2h26.8v203.7c0 196.6 159 356.1 355.4 356.9h90.7c49.3 0 89.2-39.9 89.2-89.2s-39.9-89.2-89.2-89.2h-89.2c-98.6 0-178.5-79.9-178.5-178.5v-203.6h211.2c49.3 0 77.3-39.9 77.3-89.2s-40-89.2-89.2-89.2h-199.3v-113c0-49.4-39.9-89.3-89.2-89.3z"/>
  <path d="m665.1 188.5c49.3 0 89.2 40 89.2 89.2 0 16.4 13.3 29.7 29.7 29.7s29.7-13.3 29.7-29.7c0-82.1-66.6-148.7-148.7-148.7-16.4 0-29.7 13.3-29.7 29.7s13.3 29.8 29.8 29.8z"/>
  <path d="m665.1 10c-16.4 0-29.7 13.3-29.7 29.7s13.3 29.7 29.7 29.7c115 0 208.2 93.2 208.2 208.2 0 16.4 13.3 29.7 29.7 29.7s29.7-13.3 29.7-29.7c0-147.8-119.8-267.6-267.6-267.6z"/>
 </g>
</svg>
