<?xml version="1.0" encoding="UTF-8"?>
<svg id="SVGRoot" width="192px" height="192px" version="1.1" viewBox="0 0 192 192" xmlns="http://www.w3.org/2000/svg">
 <g fill="none" stroke="#000" stroke-linecap="round" stroke-linejoin="round" stroke-width="8">
  <path class="a" d="m96 127.33h23.082s20.45 22.796 41.126 21.042c20.677-1.754 11.497-46.507-7.3515-65.916-18.849-19.408-42.089-17.596-56.857-17.596-14.768 0-38.008-1.8127-56.857 17.596-18.849 19.409-28.029 64.162-7.3515 65.916 20.677 1.7536 41.126-21.042 41.126-21.042h23.082"/>
  <path class="a" d="m81.012 108.87h9.9201"/>
  <path class="a" d="m110.99 108.87h-9.9201"/>
  <path class="a" d="m55.428 84.702a5.2798 5.6425 0 0 0-5.293 5.6567v4.8513h-4.5398a5.2993 5.6633 0 0 0 0 11.324h4.5398v4.8517a5.293 5.6567 0 0 0 10.586 0v-4.8522h4.5496a5.2993 5.6633 0 0 0 0-11.324h-4.5496v-4.8513a5.2798 5.6425 0 0 0-5.293-5.6563z"/>
  <ellipse class="a" cx="145.06" cy="100.7" rx="4.9077" ry="5.2448"/>
  <ellipse class="a" cx="123.67" cy="100.7" rx="4.9077" ry="5.2448"/>
  <ellipse class="a" cx="134.36" cy="112.12" rx="4.9077" ry="5.2448"/>
  <ellipse class="a" cx="134.36" cy="89.27" rx="4.9077" ry="5.2448"/>
  <path class="a" d="m96 64.863s-3.0782-10.814 6.4183-10.597c9.4966 0.21737 7.7864-10.74 7.7864-10.74"/>
 </g>
</svg>
