<svg xmlns="http://www.w3.org/2000/svg" width="192" height="192" viewBox="0 0 192 192"><g fill="none" stroke="#000" stroke-linecap="round" stroke-linejoin="round" stroke-width="8"><path d="M96 127.33h23.082s20.45 22.796 41.126 21.042c20.677-1.754 11.497-46.507-7.351-65.916C134.007 63.048 110.767 64.86 96 64.86c-14.768 0-38.008-1.813-56.857 17.596-18.85 19.409-28.03 64.162-7.352 65.916 20.677 1.754 41.126-21.042 41.126-21.042h23.082M81.012 108.87h9.92M110.99 108.87h-9.92" class="a"/><path d="M55.428 84.702a5.28 5.643 0 0 0-5.293 5.657v4.851h-4.54a5.3 5.663 0 0 0 0 11.324h4.54v4.852a5.293 5.657 0 0 0 10.586 0v-4.853h4.55a5.3 5.663 0 0 0 0-11.324h-4.55v-4.85a5.28 5.643 0 0 0-5.293-5.657z" class="a"/><ellipse cx="145.06" cy="100.7" class="a" rx="4.908" ry="5.245"/><ellipse cx="123.67" cy="100.7" class="a" rx="4.908" ry="5.245"/><ellipse cx="134.36" cy="112.12" class="a" rx="4.908" ry="5.245"/><ellipse cx="134.36" cy="89.27" class="a" rx="4.908" ry="5.245"/><path d="M96 64.863s-3.078-10.814 6.418-10.597c9.497.217 7.787-10.74 7.787-10.74" class="a"/></g></svg>