<?xml version="1.0" encoding="UTF-8"?>
<svg id="SVGRoot" width="192px" height="192px" version="1.1" viewBox="0 0 192 192" xmlns="http://www.w3.org/2000/svg">
 <path d="m90.83 174.15c-0.5978-3.0281-2.9797-6.7285-5.3671-8.338-4.5436-3.0632-4.6371-3.0717-33.855-3.0717h-26.493v-67.722h5.9071v61.833h24.792c14.528 0 25.89 0.20424 27.443 0.49333 5.7976 1.0786 11.715 5.2822 12.509 8.886l0.31117 1.4124 1.6024-2.3288c1.9716-2.8653 5.5628-5.6586 9.1501-7.117 2.6685-1.0849 3.0772-1.1027 28.428-1.2439l25.72-0.14322v-61.792h5.9071v67.722h-26.493c-29.218 0-29.312 7e-3 -33.855 3.0717-2.3874 1.6095-4.7693 5.3099-5.3671 8.338l-0.26642 1.3495h-9.8076zm-0.36208-18.006c-4.3115-3.957-3.8816-3.8999-30.772-4.0868l-23.751-0.1651v-70.167l48.487 0.28863 2.3314 1.155c1.2823 0.63527 3.2206 2.0152 4.3073 3.0666l1.9758 1.9115v35.089c0 19.299-0.05544 35.08-0.12303 35.069-0.06779-0.011-1.1727-0.98284-2.4557-2.1603zm8.4859-32.863v-35.134l1.9758-1.9116c1.0867-1.0514 3.025-2.4313 4.3072-3.0666l2.3314-1.155 48.487-0.28863v70.167l-23.751 0.16509c-26.929 0.18717-26.385 0.114-30.886 4.1489l-2.4641 2.2087zm-17.721-55.744c-1.1167-1.1133-1.1989-1.6282-0.47495-2.9767 0.46196-0.86053 1.0829-0.94922 6.6455-0.94922h6.1359v-37.296h-12.553c-6.9039 0-12.553 0.17396-12.553 0.38658 0 0.21261 1.9936 5.3387 4.4303 11.391 4.8245 11.984 5.1096 13.421 3.4081 17.176-2.0589 4.5439-7.0203 7.8519-11.776 7.8519-6.3245 0-12.753-5.9814-12.788-11.898-0.01402-2.3929 9.9576-27.748 11.388-28.956 0.91922-0.77613 2.4334-0.8588 15.73-0.8588h14.713v-1.8648c0-2.1867 0.69238-3.0426 2.4613-3.0426s2.4613 0.85589 2.4613 3.0426v1.8648h14.713c13.299 0 14.811 0.08255 15.726 0.8588 1.5024 1.2745 11.406 26.33 11.392 28.822-0.0333 6.048-6.3932 12.032-12.788 12.032-6.3058 0-12.753-5.9806-12.788-11.863-6e-3 -1.1338 1.6335-5.9589 4.4195-13.001 2.4367-6.1587 4.4303-11.365 4.4303-11.57 0-0.20463-5.6487-0.37206-12.553-0.37206h-12.553v37.296h6.1359c5.5626 0 6.1835 0.0887 6.6455 0.94922 0.7239 1.3485 0.64176 1.8634-0.47495 2.9767-0.93764 0.93474-1.6409 0.98148-14.768 0.98148-13.127 0-13.83-0.04672-14.768-0.98148zm-13.283-10.428c1.2327-0.62291 2.5853-1.7993 3.1032-2.6991l0.91803-1.5949h-14.949l0.91803 1.5949c1.009 1.753 4.5434 3.8032 6.5565 3.8032 0.6975 0 2.2515-0.49687 3.4533-1.1042zm63.009 0c1.2327-0.62291 2.5852-1.7993 3.1032-2.6991l0.91803-1.5949h-14.949l0.91803 1.5949c1.009 1.753 4.5434 3.8032 6.5565 3.8032 0.6975 0 2.2515-0.49687 3.4533-1.1042zm-60.063-9.8078c0-0.79954-6.081-16.07-6.3994-16.07-0.3184 0-6.3993 15.27-6.3993 16.07 0 0.45034 1.6473 0.60645 6.3993 0.60645 4.7521 0 6.3994-0.15611 6.3994-0.60645zm63.009 0c0-0.79954-6.081-16.07-6.3994-16.07s-6.3994 15.27-6.3994 16.07c0 0.45034 1.6473 0.60645 6.3994 0.60645 4.7521 0 6.3994-0.15611 6.3994-0.60645z" stroke="#000" stroke-linecap="round" stroke-linejoin="round"/>
</svg>
