<svg xmlns="http://www.w3.org/2000/svg" width="192" height="192" viewBox="0 0 192 192"><path stroke="#000" stroke-linecap="round" stroke-linejoin="round" d="M90.83 174.15c-.598-3.028-2.98-6.729-5.367-8.338-4.544-3.063-4.637-3.072-33.855-3.072H25.115V95.018h5.907v61.833h24.792c14.528 0 25.89.205 27.443.494 5.798 1.078 11.715 5.282 12.509 8.886l.311 1.412 1.603-2.329c1.971-2.865 5.562-5.658 9.15-7.117 2.668-1.085 3.077-1.102 28.428-1.244l25.72-.143V95.018h5.907v67.722h-26.493c-29.218 0-29.312.007-33.855 3.072-2.388 1.61-4.77 5.31-5.367 8.338l-.267 1.35h-9.807zm-.362-18.006c-4.312-3.957-3.882-3.9-30.772-4.087l-23.751-.165V81.725l48.487.289 2.331 1.155c1.283.635 3.22 2.015 4.308 3.066l1.975 1.912v35.089c0 19.299-.055 35.08-.123 35.069-.067-.011-1.172-.983-2.455-2.16zm8.486-32.863V88.147l1.976-1.912c1.086-1.051 3.025-2.43 4.307-3.066l2.331-1.155 48.487-.289v70.167l-23.75.165c-26.93.187-26.386.114-30.887 4.15l-2.464 2.208zM81.233 67.537c-1.117-1.113-1.2-1.628-.475-2.977.462-.86 1.083-.949 6.645-.949h6.136V26.315H80.986c-6.904 0-12.553.174-12.553.387 0 .212 1.994 5.338 4.43 11.39 4.825 11.985 5.11 13.422 3.409 17.177-2.06 4.544-7.02 7.852-11.776 7.852-6.325 0-12.753-5.982-12.788-11.898-.014-2.393 9.957-27.748 11.388-28.956.919-.777 2.433-.86 15.73-.86h14.713v-1.864c0-2.187.692-3.043 2.461-3.043s2.461.856 2.461 3.043v1.865h14.713c13.3 0 14.811.082 15.726.859 1.503 1.274 11.406 26.33 11.392 28.822-.033 6.048-6.393 12.032-12.788 12.032-6.306 0-12.753-5.981-12.788-11.863-.006-1.134 1.634-5.96 4.42-13.001 2.436-6.16 4.43-11.365 4.43-11.57 0-.205-5.649-.372-12.553-.372H98.46V63.61h6.136c5.563 0 6.183.088 6.645.949.724 1.348.642 1.863-.474 2.976-.938.935-1.641.982-14.768.982s-13.83-.047-14.768-.982zM67.95 57.109c1.233-.623 2.585-1.8 3.103-2.7l.918-1.594H57.022l.918 1.595c1.01 1.753 4.543 3.803 6.557 3.803.697 0 2.251-.497 3.453-1.104zm63.009 0c1.233-.623 2.585-1.8 3.103-2.7l.918-1.594h-14.949l.918 1.595c1.01 1.753 4.543 3.803 6.557 3.803.697 0 2.251-.497 3.453-1.104zm-60.063-9.808c0-.8-6.081-16.07-6.4-16.07-.318 0-6.399 15.27-6.399 16.07 0 .45 1.647.607 6.4.607 4.752 0 6.399-.156 6.399-.607zm63.009 0c0-.8-6.081-16.07-6.4-16.07s-6.399 15.27-6.399 16.07c0 .45 1.647.607 6.4.607 4.752 0 6.399-.156 6.399-.607z"/></svg>