<svg xmlns="http://www.w3.org/2000/svg" width="192" height="192" viewBox="0 0 192 192"><g fill="none" stroke="#000" stroke-linecap="round" stroke-linejoin="round" stroke-width="12"><path d="M162 22H30a8 8 0 0 0-8 8v132a8 8 0 0 0 8 8h132a8 8 0 0 0 8-8V30a8 8 0 0 0-8-8z" class="a"/><path d="M138.05 94.3a18 18 0 0 0-18-18 18 18 0 0 0-18 18V106a18 18 0 0 0 18 18 18 18 0 0 0 18-18m7.2 18a7.2 7.2 0 0 1-7.2-7.2V52m-49.885 54a18 18 0 0 1-18 18 18 18 0 0 1-18-18V76.3" class="a"/><path d="M95.365 124a7.2 7.2 0 0 1-7.2-7.2V76.3m-36 0h-5.419m41.419 0h-5.419M138.05 52h-5.41" class="a"/></g></svg>