<svg xmlns="http://www.w3.org/2000/svg" width="192" height="192" viewBox="0 0 192 192"><path fill="none" stroke="#000" stroke-linecap="round" stroke-linejoin="round" stroke-width="8" d="M27.6 54.684c-4.18 0-7.6 3.099-7.6 6.886v68.86c0 3.787 3.42 6.886 7.6 6.886h136.8c4.18 0 7.6-3.099 7.6-6.886V61.57c0-3.787-3.42-6.886-7.6-6.886zm38 13.772c8.06 0 15.797 2.902 21.497 8.067C92.797 81.688 96 88.697 96 96c0 7.303-3.203 14.313-8.903 19.477-5.7 5.165-13.437 8.067-21.497 8.067s-15.797-2.902-21.497-8.067C38.403 110.312 35.2 103.303 35.2 96c0-7.303 3.203-14.313 8.903-19.477 5.7-5.165 13.437-8.067 21.497-8.067zm49.4 3.443h34.2c4.18 0 7.6 3.099 7.6 6.886V96c0 3.787-3.42 6.886-7.6 6.886H115c-4.18 0-7.6-3.099-7.6-6.886V78.785c0-3.787 3.42-6.886 7.6-6.886zm-1.9 41.316c1.512 0 2.96.544 4.032 1.512 1.068.97 1.668 2.282 1.668 3.652s-.6 2.683-1.668 3.654c-1.072.967-2.52 1.511-4.032 1.511s-2.96-.544-4.032-1.511c-1.068-.971-1.668-2.283-1.668-3.653s.6-2.683 1.668-3.653c1.072-.968 2.52-1.512 4.032-1.512zm19 0c1.512 0 2.96.544 4.032 1.512 1.068.97 1.668 2.282 1.668 3.652s-.6 2.683-1.668 3.654c-1.072.967-2.52 1.511-4.032 1.511s-2.96-.544-4.032-1.511c-1.068-.971-1.668-2.283-1.668-3.653s.6-2.683 1.668-3.653c1.072-.968 2.52-1.512 4.032-1.512zm19 0c1.512 0 2.96.544 4.032 1.512 1.068.97 1.668 2.282 1.668 3.652s-.6 2.683-1.668 3.654c-1.072.967-2.52 1.511-4.032 1.511s-2.96-.544-4.032-1.511c-1.068-.971-1.668-2.283-1.668-3.653s.6-2.683 1.668-3.653c1.072-.968 2.52-1.512 4.032-1.512z"/><path d="M112.31 80.706h2.93v7.12q0 1.694.11 2.197.186.805.89 1.301.714.486 1.937.486 1.247 0 1.881-.458.635-.465.764-1.14.13-.671.13-2.231v-7.272h2.929v6.904q0 2.368-.24 3.343-.239.974-.881 1.649-.635.671-1.702 1.078-1.068.396-2.79.396-2.078 0-3.157-.43-1.068-.442-1.691-1.13-.624-.7-.821-1.46-.289-1.13-.289-3.336zM126.97 93.852V80.707h6.164q2.325 0 3.374.358 1.06.351 1.691 1.257.635.905.635 2.072 0 1.481-.962 2.448-.961.961-2.869 1.212.95.503 1.562 1.102.623.6 1.672 2.135l1.77 2.565h-3.503l-2.116-2.861q-1.129-1.532-1.543-1.928-.414-.403-.882-.548-.463-.151-1.474-.151h-.593v5.488zm2.93-7.585h2.166q2.109 0 2.633-.162.525-.162.821-.554.296-.396.296-.985 0-.664-.395-1.067-.387-.413-1.098-.52-.357-.045-2.14-.045h-2.287zM141.68 93.852V80.817h2.93v10.821h7.284v2.214z"/></svg>