<?xml version="1.0" encoding="UTF-8"?>
<svg id="SVGRoot" width="192px" height="192px" version="1.1" viewBox="0 0 192 192" xmlns="http://www.w3.org/2000/svg">
 <path id="path" d="m27.6 54.684c-4.18 0-7.6 3.0987-7.6 6.886v68.86c0 3.7873 3.42 6.886 7.6 6.886h136.8c4.18 0 7.6-3.0987 7.6-6.886v-68.86c0-3.7873-3.42-6.886-7.6-6.886zm38 13.772c8.0598 0 15.797 2.9025 21.497 8.067 5.7 5.1645 8.9034 12.174 8.9034 19.477 0 7.3026-3.2034 14.313-8.9034 19.477-5.7 5.1645-13.437 8.067-21.497 8.067-8.0598 0-15.797-2.9025-21.497-8.067-5.7-5.1645-8.9034-12.174-8.9034-19.477 0-7.3026 3.2034-14.313 8.9034-19.477 5.7-5.1645 13.437-8.067 21.497-8.067zm49.4 3.443h34.2c4.18 0 7.6 3.0987 7.6 6.886v17.215c0 3.7873-3.42 6.886-7.6 6.886h-34.2c-4.18 0-7.6-3.0987-7.6-6.886v-17.215c0-3.7873 3.42-6.886 7.6-6.886zm-1.9 41.316c1.5124 0 2.9602 0.54405 4.0318 1.5115 1.0678 0.97088 1.6682 2.2827 1.6682 3.653s-0.6004 2.6821-1.6682 3.653c-1.0716 0.96746-2.5194 1.5115-4.0318 1.5115s-2.9602-0.54405-4.0318-1.5115c-1.0678-0.97087-1.6682-2.2827-1.6682-3.653s0.6004-2.6821 1.6682-3.653c1.0716-0.96745 2.5194-1.5115 4.0318-1.5115zm19 0c1.5124 0 2.9602 0.54405 4.0318 1.5115 1.0678 0.97088 1.6682 2.2827 1.6682 3.653s-0.6004 2.6821-1.6682 3.653c-1.0716 0.96746-2.5194 1.5115-4.0318 1.5115s-2.9602-0.54405-4.0318-1.5115c-1.0678-0.97087-1.6682-2.2827-1.6682-3.653s0.6004-2.6821 1.6682-3.653c1.0716-0.96745 2.5194-1.5115 4.0318-1.5115zm19 0c1.5124 0 2.9602 0.54405 4.0318 1.5115 1.0678 0.97088 1.6682 2.2827 1.6682 3.653s-0.6004 2.6821-1.6682 3.653c-1.0716 0.96746-2.5194 1.5115-4.0318 1.5115s-2.9602-0.54405-4.0318-1.5115c-1.0678-0.97087-1.6682-2.2827-1.6682-3.653s0.6004-2.6821 1.6682-3.653c1.0716-0.96745 2.5194-1.5115 4.0318-1.5115z" fill="none" stroke="#000" stroke-linecap="round" stroke-linejoin="round" stroke-width="8"/>
 <path d="m112.31 80.706h2.9298v7.1201q0 1.694 0.1102 2.1966 0.1862 0.80569 0.8892 1.3015 0.7144 0.48544 1.938 0.48544 1.2464 0 1.881-0.45798 0.6346-0.46481 0.7638-1.1396 0.1292-0.67139 0.1292-2.2311v-7.2716h2.9298v6.9032q0 2.3688-0.2394 3.3432-0.2394 0.97443-0.8816 1.6492-0.6346 0.67139-1.7024 1.0777-1.0678 0.39595-2.7892 0.39595-2.0786 0-3.1578-0.43038-1.0678-0.44076-1.691-1.1294-0.6232-0.69899-0.8208-1.4598-0.2888-1.1294-0.2888-3.3363z"/>
 <path d="m126.97 93.852v-13.145h6.1636q2.3256 0 3.3744 0.3581 1.0602 0.35113 1.691 1.2567 0.6346 0.90557 0.6346 2.0727 0 1.4805-0.9614 2.448-0.9614 0.96063-2.869 1.2119 0.95 0.50265 1.5618 1.1018 0.6232 0.59911 1.672 2.1347l1.7708 2.565h-3.5036l-2.1166-2.8611q-1.1286-1.5321-1.5428-1.9281-0.4142-0.40278-0.8816-0.54747-0.4636-0.15152-1.4744-0.15152h-0.5928v5.4882zm2.9298-7.585h2.166q2.109 0 2.6334-0.16177 0.5244-0.16177 0.8208-0.5543 0.2964-0.39595 0.2964-0.98467 0-0.66456-0.3952-1.0673-0.3876-0.41316-1.0982-0.51987-0.3572-0.04509-2.1394-0.04509h-2.2876z"/>
 <path d="m141.68 93.852v-13.035h2.9298v10.821h7.2846v2.2139z"/>
</svg>
