<?xml version="1.0" encoding="UTF-8"?>
<svg id="SVGRoot" width="192px" height="192px" version="1.1" viewBox="0 0 192 192" xmlns="http://www.w3.org/2000/svg">
 <path d="m25.304 168.84c-1.1626-3.6633-2.5594-7.9787-3.1039-9.5897-0.5445-1.611-0.98999-3.0362-0.98999-3.167 0-0.1308 0.8903-0.23784 1.9784-0.23784h1.9784l0.82811 2.9627c2.659 9.5132 3.5323 11.831 3.9515 10.489 0.09947-0.31852 1.0541-3.4754 2.1213-7.0154l1.9405-6.4362h1.9702c1.8828 0 1.9534 0.0408 1.5917 0.91945-0.20813 0.50571-1.3289 3.9537-2.4906 7.6622-1.1617 3.7085-2.4373 7.6622-2.8347 8.7859l-0.72257 2.0432-4.1045 0.24427zm15.523-3.187v-9.8076h3.6782v19.615h-3.6782zm8.5824 0v-9.8076h5.6435c6.1179 0 6.3023 0.0557 8.0392 2.4291 0.99056 1.3536 1.03 1.638 1.03 7.4265 0 5.9448-0.0136 6.0352-1.1048 7.3318-1.7039 2.0248-3.1461 2.4277-8.6905 2.4277h-4.9174zm10.287 5.4534c0.64316-0.58201 0.74738-1.345 0.74738-5.4715 0-6.2588-0.23657-6.6137-4.2915-6.4392l-2.8605 0.12319-0.11424 5.7014c-0.0628 3.1358-0.0226 5.9401 0.0893 6.2319 0.3185 0.82994 5.4806 0.71286 6.4295-0.14581zm8.5124-5.4534v-9.8076h12.669v3.2692h-8.9911v4.4951h8.5824v3.6778h-8.5824v4.4951h8.9911v3.6778h-12.669zm19.33 9.0068c-2.2644-1.3806-2.5741-2.5167-2.5741-9.4432v-6.1981l1.5867-1.5865 1.5867-1.5865h8.6906l3.0531 2.7977v13.607l-3.4422 3.2105-3.7962-1e-3c-3.0439-1e-3 -4.0554-0.1596-5.1046-0.79922zm8.1217-3.1447c0.64822-0.58658 0.74737-1.355 0.74737-5.7911 0-6.2921-0.18298-6.6094-3.8115-6.6094-3.7806 0-3.9535 0.28291-3.9535 6.4674 0 6.2921 0.18298 6.6094 3.8115 6.6094 1.7144 0 2.685-0.20476 3.2061-0.67631zm12.054 3.6731c-0.14985-0.14984-0.27246-3.8277-0.27246-8.173v-7.9005h-5.3129v-3.2692h14.713v3.2692h-5.3129v16.346h-1.771c-0.97403 0-1.8936-0.12253-2.0434-0.27243zm11.988-9.5351v-9.8076h5.2863c2.9074 0 5.7348 0.17048 6.2829 0.37886 1.6784 0.63808 2.7348 2.8447 2.7348 5.7128 0 2.3601-0.10057 2.6295-1.5701 4.2047l-1.5701 1.6831 1.9714 3.5114c1.0842 1.9312 1.9747 3.6493 1.9788 3.8179 4e-3 0.16857-0.86614 0.30628-1.9338 0.30603l-1.9413-4e-4 -3.9829-7.7634h-3.5778v7.7643h-3.6782v-9.8076zm10.543-3.7136c0.1635-2.5155-0.37029-2.8942-3.8654-2.7421l-2.7954 0.12161-0.12307 2.3666-0.12306 2.3666 6.7851-0.238zm9.4989 12.451c-2.2143-1.8631-2.4688-2.8047-2.4688-9.1347v-5.7505l3.3736-3.6596h8.7938l2.954 3.041v13.401l-1.5866 1.5865-1.5867 1.5865h-4.1036c-3.8307 0-4.1882-0.0711-5.3757-1.0703zm8.4372-3.0874c0.88332-0.82976 0.94588-1.2022 0.94588-5.6302 0-6.1912-0.22532-6.5581-4.0283-6.5581-1.5986 0-2.9618 0.20593-3.2463 0.49037-0.33103 0.331-0.49042 2.2132-0.49042 5.7911 0 6.4318 0.19328 6.7953 3.613 6.7953 1.7582 0 2.4704-0.19737 3.2061-0.88853zm8.7109-5.6498v-9.8076h1.9778c1.7638 0 2.032 0.12162 2.4787 1.1238 1.2015 2.6957 5.5003 10.318 5.8189 10.318 0.19269 0 0.35034-2.5745 0.35034-5.7211v-5.7211h3.2695v19.615h-3.6051l-3.1389-5.7222c-1.7264-3.1472-3.3061-5.6189-3.5104-5.4926-0.20433 0.12633-0.3715 2.7013-0.3715 5.7222v5.4926h-3.2695zm-96.534-37.889c-6.81-6.6935-14.359-14.091-16.777-16.438l-4.3948-4.2682 0.10414-40.683 0.10414-40.683 5.3129-0.46405c2.9221-0.25523 8.8991-0.7594 13.282-1.1204 4.3832-0.36098 9.8085-0.84765 12.056-1.0815s8.5007-0.7867 13.895-1.2286c5.3946-0.44191 11.723-0.9938 14.064-1.2264 3.8008-0.37781 4.5425-0.33781 6.9476 0.3747 1.4809 0.43871 4.7156 1.3832 7.1882 2.0988 2.4726 0.71561 5.6643 1.65 7.0929 2.0765 1.4286 0.42644 2.9644 0.77534 3.413 0.77534 0.44862 0 2.0573-1.1493 3.5749-2.5541 3.0277-2.8025 7.3819-5.2085 11.241-6.2117 3.1497-0.8187 9.5521-0.8187 12.702 0 8.985 2.3355 16.408 9.7426 18.612 18.573 0.7179 2.8755 0.72283 9.7622 9e-3 12.668-0.81267 3.3087-3.4589 8.153-5.9682 10.926-2.0667 2.2836-5.7894 5.0155-8.5828 6.2985l-1.2261 0.56313-0.10502 28.491-0.10501 28.491-0.91676 0.1949c-2.2603 0.48051-7.7848 1.6042-11.338 2.3062-2.1354 0.42186-6.0894 1.2327-8.7868 1.8018-2.6973 0.56914-6.6514 1.3937-8.7867 1.8324-2.1354 0.4387-6.0894 1.2644-8.7868 1.8347-2.6973 0.57042-6.6514 1.3962-8.7867 1.835-2.1354 0.43883-8.3883 1.7335-13.895 2.8771-5.507 1.1436-11.811 2.4312-14.009 2.8614-2.1978 0.43016-4.1665 0.8875-4.3749 1.0163-0.20842 0.12881-5.9507-5.2423-12.761-11.936zm18.814 4.3724c4.5589-0.86446 13.247-2.5497 18.869-3.6604 2.1354-0.42178 6.3653-1.2536 9.3998-1.8486 3.0345-0.59491 7.3104-1.4359 9.502-1.8689 2.1916-0.43299 5.7778-1.1336 7.9694-1.5568 5.7479-1.1101 10.604-2.0694 16.654-3.2898l5.3129-1.0718 0.21056-51.262-3.3747-6e-3c-12.679-0.02268-23.178-8.9173-25.281-21.419-0.60922-3.6213-0.20897-8.9662 0.89888-12.004 0.46697-1.2804 0.93455-2.6045 1.039-2.9426 0.14244-0.46078-0.50572-0.80663-2.59-1.382-5.0454-1.3928-8.0471-2.2515-11.771-3.3672-2.023-0.60609-4.3218-1.1048-5.1086-1.1083-1.6482-0.0073-21.253 1.6676-23.091 1.9726-0.67433 0.11195-5.456 0.5745-10.626 1.0279-14.307 1.2547-21.968 2.0083-22.137 2.1776-0.08421 0.0842-0.15366 16.96-0.15435 37.502l-0.0012 37.349 4.6074 4.4571c2.5341 2.4514 8.9856 8.7588 14.337 14.016 7.9406 7.802 9.8812 9.5111 10.556 9.2969 0.45483-0.14434 2.6054-0.59968 4.7791-1.0119zm11.922-21.948c0-0.11573 2.069-2.4466 4.5977-5.1797 9.6773-10.459 20.54-22.389 20.625-22.651 0.0487-0.15014-0.77207-0.9166-1.8239-1.7032-1.8208-1.3617-5.6005-4.3133-16.353-12.77-2.6433-2.079-5.356-4.2033-6.0281-4.7206-1.1642-0.8961-1.1737-0.92713-0.20038-0.65541 0.56195 0.15688 2.585 1.0116 4.4955 1.8994 4.8421 2.2499 7.2326 3.3412 9.6041 4.3846 2.3643 1.0402 3.8108 1.7031 9.3222 4.2723 2.2051 1.0279 4.0861 1.8689 4.1801 1.8689 0.0939 0 1.5082 0.6235 3.1428 1.3856s4.2593 1.974 5.8327 2.6932l2.8608 1.3077-1.1723 0.88246c-14.184 10.677-39.083 29.144-39.083 28.986zm56.307-58.436 0.11222-6.6305 13.262-0.22448v-6.5384l-13.262-0.22448-0.11222-6.6305-0.11221-6.6305h-6.9477l-0.11221 6.6305-0.11221 6.6305-13.262 0.22448v6.5384l13.282 0.22457v6.0862c0 3.3474 0.1143 6.3841 0.2541 6.7483 0.21086 0.54945 0.81933 0.64205 3.576 0.54423l3.3219-0.11789z" stroke="#000" stroke-linecap="round" stroke-linejoin="round"/>
</svg>
