<svg xmlns="http://www.w3.org/2000/svg" width="192" height="192" viewBox="0 0 192 192"><path stroke="#000" stroke-linecap="round" stroke-linejoin="round" d="M25.304 168.84c-1.163-3.663-2.56-7.979-3.104-9.59-.544-1.61-.99-3.036-.99-3.167 0-.13.89-.238 1.979-.238h1.978l.828 2.963c2.659 9.513 3.532 11.831 3.952 10.49.099-.32 1.054-3.476 2.12-7.016l1.941-6.436h1.97c1.883 0 1.954.04 1.592.919-.208.506-1.329 3.954-2.49 7.662-1.162 3.709-2.438 7.662-2.835 8.786l-.723 2.043-4.104.245zm15.523-3.187v-9.808h3.678v19.615h-3.678zm8.582 0v-9.808h5.644c6.118 0 6.302.056 8.04 2.43.99 1.353 1.03 1.637 1.03 7.426 0 5.945-.015 6.035-1.106 7.332-1.704 2.025-3.146 2.427-8.69 2.427h-4.918zm10.287 5.453c.644-.582.748-1.345.748-5.471 0-6.259-.237-6.614-4.292-6.44l-2.86.124-.114 5.701c-.063 3.136-.023 5.94.089 6.232.318.83 5.48.713 6.43-.146zm8.513-5.453v-9.808h12.669v3.27h-8.991v4.495h8.582v3.677h-8.582v4.496h8.99v3.677H68.21zm19.33 9.007c-2.265-1.38-2.574-2.517-2.574-9.443v-6.199l1.586-1.586 1.587-1.587h8.69l3.054 2.798v13.607l-3.442 3.21h-3.797c-3.044-.001-4.055-.16-5.104-.8zm8.121-3.145c.649-.586.748-1.355.748-5.791 0-6.292-.183-6.61-3.812-6.61-3.78 0-3.953.284-3.953 6.468 0 6.292.183 6.61 3.811 6.61 1.715 0 2.685-.205 3.206-.677zm12.055 3.673c-.15-.15-.273-3.827-.273-8.173v-7.9h-5.313v-3.27h14.713v3.27h-5.313v16.346h-1.77c-.975 0-1.894-.123-2.044-.273zm11.987-9.535v-9.807h5.287c2.907 0 5.735.17 6.283.378 1.678.638 2.735 2.845 2.735 5.713 0 2.36-.101 2.63-1.57 4.205l-1.57 1.683 1.97 3.511c1.085 1.932 1.975 3.65 1.98 3.818.004.169-.867.307-1.934.306h-1.942l-3.982-7.764h-3.578v7.765h-3.678v-9.808zm10.544-3.713c.163-2.516-.37-2.895-3.866-2.743l-2.795.122-.123 2.367-.123 2.366 6.785-.238zm9.498 12.45c-2.214-1.863-2.468-2.804-2.468-9.134v-5.75l3.373-3.66h8.794l2.954 3.04v13.402l-1.587 1.586-1.586 1.587h-4.104c-3.83 0-4.188-.071-5.376-1.07zm8.438-3.087c.883-.83.945-1.202.945-5.63 0-6.191-.225-6.558-4.028-6.558-1.598 0-2.962.206-3.246.49-.331.331-.49 2.213-.49 5.791 0 6.432.193 6.796 3.612 6.796 1.759 0 2.47-.198 3.207-.889zm8.71-5.65v-9.807h1.978c1.764 0 2.032.121 2.479 1.123 1.202 2.696 5.5 10.318 5.819 10.318.193 0 .35-2.574.35-5.72v-5.722h3.27v19.615h-3.605l-3.14-5.722c-1.726-3.147-3.305-5.619-3.51-5.493-.204.127-.371 2.702-.371 5.723v5.492h-3.27zm-96.534-37.889a5721.394 5721.394 0 0 0-16.777-16.438l-4.394-4.268.104-40.683.104-40.683 5.313-.464c2.922-.255 8.899-.76 13.282-1.12 4.383-.361 9.808-.848 12.056-1.082s8.5-.787 13.895-1.228c5.394-.442 11.723-.994 14.064-1.227 3.8-.378 4.542-.338 6.947.375 1.481.439 4.716 1.383 7.189 2.099 2.472.715 5.664 1.65 7.093 2.076 1.428.427 2.964.775 3.413.775.448 0 2.057-1.149 3.574-2.554 3.028-2.802 7.382-5.208 11.241-6.211 3.15-.819 9.553-.819 12.702 0 8.985 2.335 16.408 9.742 18.612 18.573.718 2.875.723 9.762.01 12.668-.813 3.308-3.46 8.153-5.969 10.926-2.066 2.283-5.79 5.015-8.583 6.298l-1.226.563-.105 28.491-.105 28.491-.916.195c-2.26.48-7.785 1.604-11.338 2.306a853.56 853.56 0 0 0-8.787 1.802c-2.698.57-6.652 1.394-8.787 1.833-2.135.438-6.09 1.264-8.787 1.834-2.697.57-6.651 1.397-8.786 1.835-2.136.44-8.389 1.734-13.895 2.877a1795.24 1795.24 0 0 1-14.01 2.862c-2.197.43-4.166.887-4.374 1.016-.209.129-5.951-5.242-12.761-11.936zm18.814 4.373c4.56-.865 13.247-2.55 18.87-3.66 2.135-.422 6.365-1.254 9.4-1.85 3.034-.594 7.31-1.435 9.501-1.868 2.192-.433 5.778-1.134 7.97-1.557 5.748-1.11 10.604-2.07 16.654-3.29l5.313-1.072.21-51.262-3.375-.006c-12.679-.022-23.178-8.917-25.28-21.419-.61-3.62-.21-8.966.898-12.004.467-1.28.935-2.604 1.04-2.942.142-.461-.506-.807-2.59-1.382-5.046-1.393-8.048-2.252-11.772-3.367-2.023-.606-4.321-1.105-5.108-1.109-1.648-.007-21.253 1.668-23.091 1.973-.675.112-5.456.574-10.626 1.028-14.307 1.254-21.968 2.008-22.137 2.177-.084.085-.154 16.96-.155 37.502v37.35l4.607 4.456a3552.84 3552.84 0 0 1 14.337 14.016c7.94 7.802 9.88 9.512 10.556 9.297.454-.144 2.605-.6 4.779-1.012zm11.922-21.948c0-.116 2.07-2.447 4.598-5.18 9.677-10.459 20.54-22.389 20.625-22.651.049-.15-.772-.917-1.824-1.703-1.82-1.362-5.6-4.314-16.353-12.77a1291.237 1291.237 0 0 0-6.028-4.72c-1.164-.897-1.173-.928-.2-.656.562.157 2.585 1.011 4.495 1.9 4.842 2.25 7.233 3.34 9.604 4.384 2.365 1.04 3.811 1.703 9.323 4.272 2.205 1.028 4.086 1.869 4.18 1.869.094 0 1.508.623 3.143 1.386s4.259 1.974 5.832 2.693l2.861 1.307-1.172.883c-14.184 10.677-39.083 29.144-39.083 28.986zm56.307-58.436.113-6.63 13.262-.225v-6.539l-13.262-.224-.113-6.63-.112-6.631h-6.947l-.113 6.63-.112 6.63-13.262.225v6.539l13.282.224v6.086c0 3.348.114 6.385.254 6.749.211.55.82.642 3.576.544l3.322-.118z"/></svg>