<?xml version="1.0" encoding="UTF-8"?>
<svg id="SVGRoot" width="192px" height="192px" version="1.1" viewBox="0 0 192 192" xml:space="preserve" xmlns="http://www.w3.org/2000/svg"><path d="m57.579 162.09c-11.587-5.9801-21.888-11.824-22.89-12.986-1.0027-1.1624-1.8231-3.0554-1.8231-4.2066 0-2.3909 47.101-94.537 49.73-97.289 3.5178-3.6829 5.7226-3.311 17.857 3.0116 6.1336 3.196 11.261 5.6907 11.394 5.5438 0.13327-0.14693 2.4381-4.6627 5.1218-10.035 2.6837-5.3723 5.4892-10.274 6.2344-10.893 1.3517-1.1221 1.6934-1.0651 7.0561 1.1783 1.1156 0.46669 2.0866-0.85098 5.1529-6.9924 4.2385-8.4894 5.6532-10.404 7.6865-10.404 2.3664 0 15.248 7.281 15.765 8.9109 0.58377 1.8399 3.8267-4.7008-37.907 76.454-35.807 69.632-35.249 68.684-40.446 68.608-1.0248-0.015-11.344-4.92-22.931-10.9zm46.186-42.241c12.478-24.313 22.798-44.689 22.933-45.279 0.15502-0.67855-6.799-4.682-18.911-10.887-10.536-5.3975-19.277-9.8136-19.424-9.8136-0.38276 0-11.011 20.461-10.746 20.69 0.12048 0.10404 2.108 1.1382 4.4166 2.298 4.8724 2.4479 6.7412 4.7361 6.7412 8.2539 0 2.7704-17.329 37.372-20.301 40.537-2.8664 3.052-5.2216 3.1329-11.1 0.38098-2.9167-1.3653-5.3894-2.3848-5.4949-2.2657-1.1368 1.2839-10.073 20.372-9.7082 20.736 0.88173 0.882 37.265 19.559 38.097 19.557 0.44565-2e-3 11.02-19.895 23.498-44.208zm-31.364-18.373 8.1573-16.02-3.1521-1.6086c-1.7336-0.88471-3.3276-1.6086-3.5421-1.6086-0.4243 0-17.501 32.695-17.501 33.507 0 0.27291 1.3673 1.207 3.0385 2.0757 2.3146 1.2032 3.2534 1.3526 3.9401 0.62725 0.49588-0.52374 4.5724-8.1614 9.0589-16.973zm62.945-43.109c2.2174-4.2037 3.8582-7.8042 3.6463-8.0011-0.21193-0.19688-2.9612-1.6478-6.1095-3.2243l-5.7242-2.8663-3.8378 7.7283c-2.1108 4.2506-3.6376 7.9286-3.3928 8.1735 0.86878 0.86904 9.779 5.7466 10.576 5.7895 0.44565 0.02399 2.6245-3.3958 4.8418-7.5995zm10.958-21.517c2.6818-5.5454 2.7081-5.6995 1.1694-6.8637-0.86576-0.655-1.7564-1.1963-1.9792-1.2028-0.22283-0.0065-1.7967 2.6134-3.4975 5.822-2.8852 5.4431-2.997 5.9037-1.6683 6.8756 2.4284 1.7762 3.1457 1.2203 5.9756-4.6311z" fill="none" stroke="#000" stroke-linecap="round" stroke-linejoin="round" stroke-width="6"/></svg>
