<svg xmlns="http://www.w3.org/2000/svg" width="192" height="192" viewBox="0 0 192 192"><path fill="none" stroke="#000" stroke-linecap="round" stroke-linejoin="round" stroke-width="8" d="M23.689 136.25c-2.72-5.845-3.323-7.38-3.636-9.25-.195-1.167 2.127-5.921 11.062-22.639 6.22-11.638 11.39-21.08 11.489-20.98.099.098-.107 1.217-.457 2.486-.887 3.218-.907 14.756-.033 19.611l.728 4.046-3.706 6.826a1359.83 1359.83 0 0 0-7.598 14.25c-2.141 4.084-4.29 8.085-4.776 8.891l-.882 1.467-2.19-4.707zm50.625 3.896c-11.946-2.242-20.115-8.884-26.094-21.214-6.317-13.026-6.902-29.029-1.571-42.956 4.12-10.763 12.432-19.713 21.43-23.075 3.615-1.35 9.837-2.183 12.343-1.65l1.859.394-1.594.403c-2.8.708-8.121 3.995-11.454 7.076-10.046 9.287-15.359 23.335-14.675 38.797.343 7.752 1.178 11.918 3.633 18.12 4.267 10.782 12.13 19.215 21.506 23.064 2.784 1.143 2.936 1.28 1.433 1.292-.926.007-2.001.11-2.39.229-.39.12-2.38-.097-4.425-.481zm13.543.193c-14.048-2.285-25.31-13.377-29.689-29.241-4.523-16.387-1.72-33.638 7.495-46.122 4.211-5.706 9.654-9.907 15.82-12.211 3.301-1.233 9.398-1.982 11.95-1.468 1.17.236 1.7.456 1.18.49-1.475.095-7.262 3.14-10.36 5.452-5.606 4.185-11.714 13.411-14.336 21.655-5.032 15.823-2.462 34.392 6.494 46.923 4.562 6.384 12.151 12.231 18.273 14.078 1.306.395 1.269.427-.544.47-1.071.025-2.266.136-2.655.247-.39.11-2.022-.012-3.629-.274zm12.481-.177c-13.39-2.386-23.207-11.654-28.429-26.84-4.675-13.596-3.687-28.693 2.73-41.71 4.301-8.72 11.66-15.794 19.464-18.71 3.691-1.38 9.895-2.186 12.343-1.605 1.022.243 1.472.466 1 .496-2.11.133-8.61 4.047-12.136 7.308-6.247 5.774-10.88 13.733-13.375 22.975-1.04 3.852-1.218 5.817-1.23 13.523-.011 7.777.155 9.634 1.21 13.523 4.007 14.772 12.35 25.282 23.806 29.985 2.784 1.142 2.936 1.28 1.433 1.291-.926.007-2.001.106-2.39.22s-2.38-.092-4.425-.456zm13.543.172c-12.627-2.034-22.733-10.959-28.401-25.078-2.404-5.99-3.128-10.442-3.153-19.392-.027-9.75.774-13.985 4.117-21.746 9.048-21.009 30.013-29.095 46.899-18.088 6.62 4.315 9.566 8.104 16.183 20.812 2.942 5.65 6.37 12.181 7.618 14.514s5.176 9.67 8.729 16.302c6.65 12.415 6.902 13.156 5.652 16.578-.674 1.844-.906 2.62-1.128 3.774-.118.618-.62 2.05-1.113 3.182-.494 1.133-.871 2.185-.839 2.338.032.152-.344.811-.837 1.464-.97 1.284-1.07 1.118-13.548-22.405-1.708-3.22-4.964-9.314-7.237-13.543a2411.86 2411.86 0 0 1-6.93-12.993c-6.057-11.48-8.305-14.175-14.265-17.097-2.624-1.287-3.597-1.464-8.03-1.464-4.496 0-5.394.169-8.233 1.55-8.875 4.316-15.136 15.715-15.136 27.555 0 12.16 6.265 23.589 15.233 27.784 2.723 1.273 3.722 1.445 8.401 1.44 4.73-.006 5.609-.162 8.026-1.43 6.05-3.175 10.57-8.732 13.285-16.336 1.22-3.417 1.425-4.866 1.472-10.382.063-7.484-.508-7.894 5.853 4.205l4.138 7.87-.666 2.471c-1.08 4.007-4.47 10.697-7.327 14.46-5.793 7.628-13.445 12.402-21.594 13.472-1.46.192-3.014.417-3.452.501-.439.084-2.111-.06-3.718-.318z"/></svg>