<svg xmlns="http://www.w3.org/2000/svg" xml:space="preserve" width="192" height="192" viewBox="0 0 192 192"><path fill="none" stroke="#000" stroke-linecap="round" stroke-linejoin="round" stroke-width="6" d="M57.579 162.09c-11.587-5.98-21.888-11.824-22.89-12.986-1.003-1.162-1.823-3.055-1.823-4.207 0-2.39 47.1-94.537 49.73-97.289 3.518-3.682 5.722-3.31 17.857 3.012 6.133 3.196 11.26 5.69 11.394 5.544.133-.147 2.438-4.663 5.122-10.035 2.683-5.372 5.489-10.274 6.234-10.893 1.352-1.122 1.694-1.065 7.056 1.178 1.116.467 2.087-.85 5.153-6.992 4.239-8.49 5.653-10.404 7.687-10.404 2.366 0 15.248 7.28 15.765 8.91.583 1.84 3.826-4.7-37.907 76.455-35.807 69.632-35.25 68.684-40.446 68.608-1.025-.015-11.344-4.92-22.931-10.9zm46.186-42.241c12.478-24.313 22.798-44.689 22.933-45.279.155-.679-6.799-4.682-18.911-10.887-10.536-5.398-19.277-9.814-19.424-9.814-.383 0-11.011 20.461-10.746 20.69.12.104 2.108 1.139 4.417 2.298 4.872 2.448 6.74 4.736 6.74 8.254 0 2.77-17.328 37.372-20.3 40.537-2.867 3.052-5.222 3.133-11.1.381-2.917-1.365-5.39-2.385-5.495-2.265-1.137 1.283-10.073 20.372-9.708 20.736.881.882 37.265 19.559 38.097 19.557.445-.002 11.02-19.895 23.498-44.208zm-31.364-18.373 8.157-16.02-3.152-1.609c-1.733-.884-3.327-1.608-3.542-1.608-.424 0-17.5 32.695-17.5 33.507 0 .273 1.366 1.207 3.038 2.076 2.314 1.203 3.253 1.352 3.94.627.496-.524 4.572-8.162 9.059-16.973zm62.945-43.109c2.217-4.204 3.858-7.804 3.646-8.001-.212-.197-2.96-1.648-6.11-3.224l-5.723-2.867-3.838 7.729c-2.111 4.25-3.638 7.928-3.393 8.173.869.87 9.779 5.747 10.576 5.79.446.024 2.625-3.396 4.842-7.6zm10.958-21.517c2.682-5.545 2.708-5.7 1.17-6.864-.866-.655-1.757-1.196-1.98-1.203-.223-.006-1.796 2.614-3.497 5.822-2.886 5.444-2.997 5.904-1.669 6.876 2.429 1.776 3.146 1.22 5.976-4.631z"/></svg>