<?xml version="1.0" encoding="UTF-8"?>
<svg id="SVGRoot" width="192px" height="192px" version="1.1" viewBox="0 0 192 192" xmlns="http://www.w3.org/2000/svg">
 <path d="m23.689 136.25c-2.7198-5.8452-3.323-7.3796-3.636-9.2496-0.19546-1.1677 2.1274-5.9216 11.062-22.639 6.22-11.638 11.39-21.08 11.489-20.981 0.09875 0.0986-0.10679 1.2176-0.45674 2.4867-0.88725 3.2175-0.90688 14.756-0.03336 19.611l0.72795 4.0454-3.7054 6.8262c-2.0379 3.7544-5.4573 10.167-7.5985 14.251-2.1412 4.0835-4.2903 8.0843-4.7757 8.8907l-0.88257 1.4662-2.19-4.7066zm50.625 3.8962c-11.946-2.2424-20.115-8.884-26.094-21.214-6.3165-13.026-6.902-29.029-1.5714-42.956 4.1198-10.763 12.432-19.713 21.43-23.075 3.6153-1.3507 9.8372-2.1829 12.343-1.651l1.8589 0.39463-1.5933 0.40278c-2.8004 0.70792-8.1214 3.9952-11.454 7.0764-10.046 9.2866-15.359 23.335-14.675 38.797 0.34294 7.7521 1.1781 11.918 3.6326 18.12 4.2669 10.782 12.13 19.215 21.506 23.064 2.7837 1.1428 2.9363 1.2804 1.433 1.2916-0.92546 7e-3 -2.0009 0.11013-2.39 0.22933-0.38903 0.11921-2.3803-0.0973-4.425-0.48113zm13.543 0.19252c-14.048-2.285-25.31-13.377-29.689-29.241-4.5232-16.387-1.7201-33.638 7.4948-46.122 4.2116-5.7061 9.6537-9.9063 15.821-12.211 3.3004-1.2332 9.3968-1.9817 11.95-1.4673 1.1684 0.23544 1.6994 0.45551 1.1798 0.48906-1.4754 0.09525-7.2626 3.1413-10.36 5.4527-5.6069 4.1846-11.715 13.411-14.337 21.655-5.0314 15.823-2.4614 34.392 6.4944 46.923 4.5623 6.384 12.151 12.231 18.273 14.078 1.3065 0.39435 1.2687 0.42702-0.54393 0.46943-1.0715 0.0251-2.2665 0.13631-2.6555 0.24721-0.38903 0.11089-2.0218-0.0122-3.6284-0.2735zm12.481-0.17689c-13.39-2.3857-23.207-11.654-28.429-26.839-4.6754-13.597-3.687-28.694 2.7307-41.71 4.3003-8.7211 11.659-15.795 19.463-18.711 3.6916-1.3791 9.8948-2.1855 12.343-1.6044 1.0224 0.24269 1.4727 0.46568 1.0008 0.49554-2.11 0.13348-8.6109 4.0475-12.137 7.3076-6.2462 5.7745-10.879 13.733-13.374 22.975-1.0401 3.8526-1.2189 5.8178-1.2302 13.523-0.01142 7.7779 0.15458 9.6342 1.2095 13.523 4.0069 14.772 12.351 25.282 23.806 29.985 2.7837 1.1428 2.9363 1.2804 1.433 1.2916-0.92546 7e-3 -2.001 0.10567-2.39 0.21942s-2.3803-0.0913-4.425-0.45559zm13.543 0.17237c-12.627-2.0343-22.733-10.959-28.401-25.078-2.4044-5.9906-3.1282-10.442-3.1532-19.392-0.02724-9.7501 0.77455-13.985 4.1171-21.746 9.0486-21.009 30.013-29.095 46.899-18.088 6.6195 4.3147 9.5662 8.1042 16.183 20.812 2.9418 5.6494 6.37 12.181 7.6182 14.514s5.1762 9.6693 8.7288 16.302c6.6496 12.415 6.9022 13.156 5.6518 16.578-0.6735 1.8434-0.90554 2.6203-1.1272 3.7742-0.11864 0.61747-0.6197 2.0493-1.1134 3.1819-0.49377 1.1326-0.87135 2.1843-0.83908 2.3372 0.0323 0.15287-0.3445 0.81164-0.83726 1.464-0.96997 1.284-1.0702 1.1182-13.548-22.405-1.7076-3.2193-4.9642-9.3136-7.2368-13.543-2.2726-4.2293-5.3911-10.076-6.93-12.993-6.057-11.48-8.3051-14.175-14.265-17.097-2.6235-1.2865-3.5971-1.4639-8.0309-1.4639-4.4954 0-5.3929 0.16897-8.2321 1.5499-8.8749 4.3166-15.136 15.715-15.136 27.555 0 12.161 6.2653 23.589 15.233 27.784 2.723 1.2739 3.7217 1.445 8.4014 1.44 4.7288-6e-3 5.6086-0.16185 8.0252-1.4298 6.0509-3.1748 10.57-8.7319 13.285-16.336 1.22-3.4169 1.4255-4.8659 1.4724-10.382 0.0635-7.4833-0.50837-7.8942 5.853 4.205l4.138 7.8704-0.66574 2.4709c-1.0795 4.0065-4.4696 10.697-7.3274 14.46-5.7928 7.6284-13.445 12.402-21.594 13.472-1.4605 0.1917-3.014 0.41718-3.4522 0.50107-0.43815 0.0839-2.1111-0.0592-3.7177-0.31808z" fill="none" stroke="#000" stroke-linecap="round" stroke-linejoin="round" stroke-width="8"/>
</svg>
