<svg xmlns="http://www.w3.org/2000/svg" width="192" height="192" viewBox="0 0 192 192"><path fill="none" stroke="#000" stroke-linecap="round" stroke-linejoin="round" stroke-width="8" d="M34.291 171.52c-1.826-.999-2.056-2.15-2.372-11.893-.352-10.816-.362-76.072-.015-89.145l.243-9.14 10.44 5.52v44.732c0 26.654.145 44.68.358 44.6.197-.072 2.661-1.466 5.477-3.096l5.119-2.965.137-38.094c.136-37.853.254-38.212.398-38.356.143-.144 2.58 1.107 5.417 2.78l5.156 3.042.09 29.565c.05 16.26.094 30.599.099 31.864.006 1.846.124 2.267.599 2.141.573-.152 76.82-44.139 77.216-44.546.108-.111.02-.268-.197-.348-.64-.237-110.67-64.324-111.01-64.655-.168-.166-.257-3.277-.197-6.913l.108-6.611 63.427 37.234c41.427 24.319 63.871 37.714 64.707 38.617 2.604 2.812 1.294 5.52-4.294 8.877-6.037 3.627-29.415 17.207-94.885 55.116-10.292 5.96-19.599 11.149-20.683 11.533-2.368.838-3.987.881-5.341.14z"/></svg>