<?xml version="1.0" encoding="UTF-8"?>
<svg id="SVGRoot" width="192px" height="192px" version="1.1" viewBox="0 0 192 192" xmlns="http://www.w3.org/2000/svg">
 <path d="m34.291 171.52c-1.8263-0.99862-2.0559-2.1497-2.3723-11.893-0.35125-10.816-0.3618-76.072-0.01444-89.145l0.2429-9.1404 10.44 5.5205v44.732c0 26.654 0.14467 44.679 0.35794 44.6 0.19687-0.0726 2.6614-1.4661 5.4768-3.0966l5.1189-2.9646 0.13708-38.094c0.13621-37.853 0.25437-38.212 0.39774-38.356 0.14336-0.144 2.581 1.1069 5.4169 2.7799l5.1563 3.0419 0.09038 29.565c0.04973 16.261 0.09395 30.599 0.09842 31.864 6e-3 1.8462 0.12448 2.2676 0.59909 2.1416 0.57342-0.15213 76.821-44.139 77.216-44.546 0.1084-0.11152 0.0197-0.26828-0.19698-0.34835-0.64035-0.23665-110.67-64.324-111.01-64.655-0.16792-0.16637-0.25656-3.2774-0.19698-6.9134l0.10832-6.6109 63.427 37.234c41.427 24.319 63.871 37.714 64.707 38.617 2.6039 2.812 1.2941 5.5198-4.2938 8.8771-6.037 3.6271-29.415 17.207-94.885 55.116-10.292 5.9595-19.599 11.149-20.683 11.533-2.3681 0.83869-3.9869 0.88132-5.3414 0.14071z" fill="none" stroke="#000" stroke-linecap="round" stroke-linejoin="round" stroke-width="8"/>
</svg>
