<?xml version="1.0" encoding="UTF-8"?>
<svg id="SVGRoot" width="192px" height="192px" version="1.1" viewBox="0 0 192 192" xml:space="preserve" xmlns="http://www.w3.org/2000/svg"><path d="m69.205 135.17c-7.8025-2.1098-12.892-9.1133-14.628-20.129-0.65357-4.1472-0.6535-12.291 1.56e-4 -16.495 1.5406-9.9081 5.7104-16.547 12.133-19.317 2.9066-1.2536 9.069-1.2604 11.907-0.0129 3.5101 1.5428 5.7265 3.5979 8.0759 7.488 2.3443 3.8817 3.3113 6.6588 4.1231 11.842 0.65195 4.1625 0.66042 12.329 0.017 16.412-1.5112 9.5892-5.9499 16.698-12.06 19.315-2.4625 1.0547-7.3052 1.5087-9.5674 0.89696zm5.1587-12.601c1.5876-2.6239 2.1605-6.8742 2.1605-16.027 0-8.7387-0.48648-12.667-1.9353-15.625-0.58247-1.1896-1.0708-1.6038-1.8907-1.6038-1.3844 0-2.3582 1.8721-3.2146 6.1804-0.86947 4.3741-0.87279 17.622-0.0056 22.265 0.66441 3.5567 2.0893 6.3797 3.2202 6.3797 0.39411 0 1.1436-0.70574 1.6655-1.5683zm74.536 12.548c-6.587-2.2826-10.804-12.082-11.243-26.124-0.51044-16.352 4.0243-28.197 11.688-30.532 2.1449-0.65332 4.7155-0.27977 6.5261 0.9484 1.4223 0.96474 3.8121 4.7398 4.3439 6.8619 0.56029 2.2357 0.86783 1.5454 1.1327-2.5424l0.23207-3.5818h13.92v53.36l-13.8-0.29725-0.33601-3.7733-0.336-3.7733-1.3308 3.2069c-1.0035 2.4183-1.7807 3.5857-3.1606 4.7474-2.0645 1.738-5.182 2.3502-7.6368 1.4995zm8.7688-12.666c1.4968-2.94 2.0271-7.0302 2.0271-15.635 0-5.7894-0.14489-8.4731-0.58432-10.823-1.8509-9.8992-5.7367-8.1453-6.9242 3.1255-0.57607 5.4676-0.24233 15.708 0.63422 19.459 1.3225 5.6606 3.1811 7.1457 4.8472 3.8731zm-130.58 9.5234c-0.19111-0.8308-2.6517-12.832-5.4679-26.669l-5.1204-25.158h15.223l0.69546 5.0863c0.3825 2.7975 1.5054 11.025 2.4953 18.283 0.98991 7.2583 1.8162 13.073 1.8361 12.922 0.01997-0.15121 1.1214-8.3168 2.4476-18.146l2.4113-17.871 5.7565-0.15063c4.838-0.1266 5.7391-0.0259 5.6474 0.63119-0.06001 0.42999-2.4275 12.437-5.2611 26.682l-5.152 25.9h-15.163zm68.898-25.158v-26.669h14.971v53.337h-14.971zm22.038-8.3855 0.0857-35.054 14.805-0.29598v70.404h-14.976zm37.513-25.207c-6.273-2.7534-11.012-7.646-11.806-12.188-0.16317-0.93354 0.0299-1.6491 0.77873-2.8868 0.91243-1.508 1.1866-1.6456 3.2802-1.6456 5.4709 0 13.667 5.8335 15.487 11.022 0.87131 2.4844 0.59883 4.5929-0.74156 5.7385-1.2318 1.0528-4.5509 1.0335-6.9982-0.0408zm-58.194-1.069c-5.6128-2.5834-5.9168-8.0134-0.61961-11.065 2.5328-1.4591 10.962-1.4591 13.495 0 4.6815 2.6969 5.0685 7.5749 0.81854 10.318-1.6148 1.0421-2.6817 1.2593-6.9005 1.4049-3.6984 0.1276-5.4571-0.0427-6.7931-0.65757z" stroke="#000" stroke-linecap="round" stroke-linejoin="round"/></svg>
