<svg xmlns="http://www.w3.org/2000/svg" xml:space="preserve" width="192" height="192" viewBox="0 0 192 192"><path stroke="#000" stroke-linecap="round" stroke-linejoin="round" d="M69.205 135.17c-7.803-2.11-12.892-9.113-14.628-20.129-.654-4.147-.653-12.291 0-16.495 1.54-9.908 5.71-16.547 12.133-19.317 2.907-1.254 9.07-1.26 11.907-.013 3.51 1.543 5.727 3.598 8.076 7.488 2.344 3.882 3.311 6.659 4.123 11.842.652 4.163.66 12.33.017 16.412-1.511 9.59-5.95 16.698-12.06 19.315-2.462 1.055-7.305 1.509-9.567.897zm5.159-12.601c1.587-2.624 2.16-6.874 2.16-16.027 0-8.739-.486-12.667-1.935-15.625-.583-1.19-1.07-1.604-1.89-1.604-1.385 0-2.359 1.872-3.215 6.18-.87 4.375-.873 17.623-.006 22.266.664 3.556 2.09 6.38 3.22 6.38.394 0 1.144-.706 1.666-1.569zm74.536 12.548c-6.587-2.283-10.804-12.082-11.243-26.124-.51-16.352 4.024-28.197 11.688-30.532 2.145-.653 4.715-.28 6.526.948 1.422.965 3.812 4.74 4.344 6.862.56 2.236.868 1.546 1.132-2.542l.232-3.582h13.92v53.36l-13.8-.297-.336-3.773-.336-3.774-1.33 3.207c-1.004 2.418-1.781 3.586-3.16 4.748-2.065 1.738-5.183 2.35-7.638 1.499zm8.768-12.666c1.497-2.94 2.028-7.03 2.028-15.635 0-5.79-.145-8.473-.585-10.823-1.85-9.9-5.736-8.145-6.924 3.126-.576 5.467-.242 15.707.634 19.458 1.323 5.661 3.181 7.146 4.847 3.874zm-130.58 9.523c-.19-.83-2.651-12.832-5.467-26.669L16.5 80.147h15.222l.696 5.087 2.495 18.283c.99 7.258 1.816 13.073 1.836 12.922.02-.152 1.121-8.317 2.448-18.146l2.411-17.871 5.756-.15c4.838-.128 5.74-.027 5.648.63-.06.43-2.428 12.437-5.261 26.682l-5.152 25.9H27.437zm68.898-25.158V80.147h14.971v53.337h-14.97zm22.038-8.385.086-35.054 14.805-.296v70.404H117.94zm37.513-25.207c-6.273-2.753-11.012-7.646-11.806-12.188-.163-.934.03-1.65.78-2.887.912-1.508 1.186-1.645 3.28-1.645 5.47 0 13.666 5.833 15.486 11.022.872 2.484.6 4.592-.741 5.738-1.232 1.053-4.551 1.034-6.998-.04zm-58.194-1.07c-5.612-2.582-5.916-8.012-.62-11.064 2.534-1.46 10.963-1.46 13.496 0 4.681 2.697 5.068 7.575.818 10.318-1.614 1.042-2.681 1.26-6.9 1.405-3.698.127-5.457-.043-6.793-.658z"/></svg>