<?xml version="1.0" encoding="UTF-8"?>
<svg width="192" height="192" version="1.1" viewBox="0 0 192 192" xmlns="http://www.w3.org/2000/svg">
 <path d="m117.23 122.39a28.148 28.148 0 0 0 2.8091-12.157v-56.086c0-4.6866-1.2299-9.3732-3.6868-13.719-3.5078-6.0755-8.9471-10.242-15.261-12.327-0.17611 0-0.17611 0-0.35221-0.17042h-0.1761a27.597 27.597 0 0 0-8.4188-1.3918c-4.7377 0-9.4754 1.2157-13.861 3.647l-48.42 27.608c-4.9138 2.7779-8.5978 6.7714-10.879 11.288v0.17042c0 0.1761-0.1761 0.1761-0.1761 0.34936a28.148 28.148 0 0 0-2.8063 12.157v56.083c0 4.6894 1.227 9.3788 3.6839 13.719 3.5107 6.0784 8.9471 10.245 15.264 12.327 0.1761 0 0.1761 0 0.34936 0.17611h0.1761c2.633 0.86628 5.6154 1.3889 8.4217 1.3889 4.7377 0 9.4726-1.2157 13.861-3.647l48.42-27.608c4.9138-2.7779 8.5978-6.7742 10.879-11.288 0-0.17326 0.17326-0.34652 0.17326-0.51978z" fill-opacity=".74902" stroke-width="2.8404" style="mix-blend-mode:multiply"/>
 <path d="m176 110.24v-56.086c0-4.6866-1.227-9.3732-3.6839-13.719-3.5078-6.0755-8.9471-10.242-15.264-12.327-0.17611 0-0.17611 0-0.34937-0.17042-2.8091-0.86915-5.7915-1.3918-8.5978-1.3918-4.7377 0-9.4726 1.2157-13.861 3.647l-48.42 27.608c-4.9138 2.7779-8.5949 6.7714-10.879 11.288 0 0.34652-0.17326 0.34652-0.17326 0.51978a28.148 28.148 0 0 0-2.8063 12.157v56.083c0 4.6894 1.227 9.3788 3.6839 13.719 3.5078 6.0784 8.9471 10.245 15.261 12.327 0.1761 0 0.1761 0 0.3522 0.17611 2.8063 0.86628 5.7886 1.3889 8.5949 1.3889 4.7377 0 9.4754-1.2157 13.861-3.647l48.42-27.608c4.9138-2.7779 8.5978-6.7742 10.879-11.288 0-0.17326 0-0.34652 0.1761-0.51981a28.148 28.148 0 0 0 2.8063-12.157z" fill-opacity=".50196" stroke-width="2.8404" style="mix-blend-mode:multiply"/>
</svg>
