<?xml version="1.0" encoding="UTF-8"?>
<svg id="SVGRoot" width="192px" height="192px" version="1.1" viewBox="0 0 192 192" xmlns="http://www.w3.org/2000/svg">
 <g fill="none" stroke="#000" stroke-linecap="round" stroke-linejoin="round" stroke-width="8">
  <path class="cls-1" d="m114.39 84.822 19.253 31.122 5.5456-8.3232a3.3586 3.458 0 0 1 0.39053-0.64334 6.9906 7.1974 0 0 1 1.9917-1.93h0.19527l0.39054-0.24125h4.6474l0.70297 0.20104h0.62485l0.5858 0.28146a7.8107 8.0417 0 0 1 2.148 1.8496l0.35148 0.52271v0.24125l19.917 30.317a7.1859 7.3984 0 0 1-6.2876 10.977h-137.66a7.1859 7.3984 0 0 1-7.1859-7.3984 7.0687 7.2778 0 0 1 0.89823-3.5384l56.94-92.279c0-0.24125 0.27338-0.4423 0.39053-0.64334a7.0296 7.2376 0 0 1 2.1089-1.9702l0.5858-0.32167 0.54675-0.24125h4.9598l0.54675 0.28146a7.4983 7.7201 0 0 1 2.5775 2.4527 1.3669 1.4073 0 0 0 0 0.32167l6.6782 10.776"/>
  <path class="cls-1" d="m96.98 57.424 19.714 31.163"/>
  <path class="cls-1" d="m116.09 86.219a20.933 21.552 0 1 0-14.02-22.075"/>
 </g>
</svg>
