<svg xmlns="http://www.w3.org/2000/svg" width="192" height="192" viewBox="0 0 192 192"><g fill="none" stroke="#000" stroke-linecap="round" stroke-linejoin="round" stroke-width="8"><path d="m114.39 84.822 19.253 31.122 5.546-8.323a3.359 3.458 0 0 1 .39-.644 6.99 7.197 0 0 1 1.992-1.93h.195l.39-.24h4.648l.703.2h.625l.586.282a7.81 8.042 0 0 1 2.148 1.85l.351.522v.241l19.917 30.317a7.186 7.398 0 0 1-6.287 10.977H27.187A7.186 7.398 0 0 1 20 141.798a7.069 7.278 0 0 1 .898-3.539l56.94-92.279c0-.24.273-.442.39-.643a7.03 7.238 0 0 1 2.11-1.97l.585-.322.547-.241h4.96l.546.281a7.498 7.72 0 0 1 2.578 2.453 1.367 1.407 0 0 0 0 .322l6.678 10.776M96.98 57.424l19.714 31.163" class="cls-1"/><path d="M116.09 86.219a20.933 21.552 0 1 0-14.02-22.075" class="cls-1"/></g></svg>