<?xml version="1.0" encoding="UTF-8"?>
<svg id="SVGRoot" width="192px" height="192px" version="1.1" viewBox="0 0 192 192" xml:space="preserve" xmlns="http://www.w3.org/2000/svg"><path d="m83.957 173.79c-4.4508-0.63205-9.0489-3.6832-10.696-7.0976l-0.84756-1.7569-1.8617 0.39844c-3.0781 0.65879-10.593 0.18803-12.784-0.80083-4.2077-1.899-6.591-5.1464-7.3665-10.038l-0.49435-3.1178h-2.7372c-5.5408 0-9.7396-2.7657-12.24-8.0624-1.2108-2.5648-1.293-3.0235-1.2736-7.1099l0.02072-4.3682-1.2396-0.26226c-2.0426-0.43214-5.855-2.652-7.2056-4.1955-0.69578-0.79521-1.7406-2.4633-2.3219-3.7068-1.491-3.1899-1.4346-8.1473 0.14826-13.04l1.113-3.44-1.159-0.83924c-6.1012-4.4178-6.6375-12.223-1.5766-22.944l1.8418-3.9016-0.87119-2.3976c-1.2423-3.4191-0.92066-7.5885 0.94523-12.252 5.9697-14.919 21.158-30.292 39.334-39.81 6.4468-3.3762 8.1043-4.0106 8.5662-3.2786 0.54286 0.86035 0.45679 1.0714-0.54199 1.3291-1.3608 0.35106-10.165 5.3476-14.133 8.0201-16.454 11.084-28.895 27.688-28.813 38.455l0.01908 2.5052 1.0982-1.4144c10.649-13.715 22.448-25.464 35.226-35.079 15.096-11.358 27.997-17.547 36.651-17.584 2.7234-0.0113 3.6341 0.15441 4.9623 0.90354 1.9483 1.0988 2.8751 2.864 2.8751 5.4759 0 1.6607 0.0956 1.8814 0.71101 1.6422 2.5794-1.0026 8.0408-2.3206 10.469-2.5266 7.4385-0.63097 11.67 3.3754 10.473 9.9159-0.2397 1.3095-0.36901 2.4529-0.28735 2.541 0.0817 0.0881 1.1888-0.0495 2.4605-0.30577 2.8506-0.57448 7.9728-0.60111 9.9438-0.0517 2.2581 0.62942 4.1172 2.0843 5.2216 4.0863 1.3755 2.4934 1.3235 6.3458-0.14298 10.584-0.58185 1.6818-1.0592 3.079-1.0607 3.105-9.8e-4 0.0259 0.77419-0.10366 1.7239-0.28802 0.94971-0.18436 3.1894-0.3414 4.977-0.34898 4.217-0.0178 6.9293 1.1443 8.6075 3.6882 2.0669 3.133 1.7323 8.8902-0.88014 15.146-0.26539 0.63556-0.0159 0.71446 2.2848 0.72244 5.7018 0.0198 8.5452 2.9952 8.5179 8.9132-0.0148 3.2212-1.1036 6.8166-3.3264 10.985-0.87614 1.6429-1.593 3.044-1.593 3.1134 0 0.0695 0.82184 0.24993 1.8264 0.40109 3.3743 0.50777 5.4928 3.1492 5.4782 6.8304-0.0528 13.296-27.327 42.466-55.699 59.569-2.8184 1.6991-6.1551 3.5964-7.4148 4.2164-1.2597 0.61995-2.2903 1.2592-2.2903 1.4206 0 0.58837 4.3391 0.80636 7.1099 0.35723 15.107-2.4488 35.142-16.8 46.82-33.537 1.2698-1.8198 1.7325-2.2242 2.0732-1.8122 0.32739 0.39587 0.081 1.1263-0.97152 2.8796-9.1734 15.281-28.599 31.011-45.083 36.507-6.6711 2.2241-13.011 2.3148-16.994 0.24318l-1.9661-1.0228-3.4409 1.001c-1.8925 0.55056-4.573 1.1114-5.9566 1.2462-1.3836 0.13486-2.8813 0.29872-3.3282 0.36414-0.44692 0.0653-1.7529-0.0146-2.9022-0.1778zm10.971-7.1789 1.885-0.25925 7e-3 -3.3081c4e-3 -1.8195 0.25373-4.3631 0.5561-5.6524 0.30235-1.2894 0.47951-2.3443 0.39369-2.3443-0.0858 0-2.3015 1.0727-4.9237 2.3837-2.6222 1.311-6.3667 3.0081-8.3212 3.7712-1.9545 0.76315-3.5542 1.5163-3.555 1.6737-0.0029 0.57515 3.549 2.7167 5.5048 3.3189 2.1705 0.66836 5.4487 0.82988 8.454 0.41649zm13.649-4.421c23.752-10.712 53.465-36.11 61.685-52.726 1.5694-3.1724 1.9227-4.3074 2.0512-6.5904 0.14442-2.5646 0.074-2.849-1.0048-4.0575-1.1983-1.3424-4.0693-2.3317-5.3713-1.8509-0.36535 0.13492-2.1721 2.2963-4.015 4.8031-10.092 13.727-29.165 30.884-48.654 43.765-3.7988 2.5107-7.3224 4.8986-7.8302 5.3065-1.2361 0.99277-2.2882 5.9764-1.921 9.0995 0.29709 2.5264 0.62202 4.077 0.85438 4.077 0.0861 0 1.9788-0.82185 4.2061-1.8264zm-37.101-3.0605c0.25402-3e-3 0.69114-1.244 0.97138-2.7576 0.28024-1.5136 1.1323-4.4949 1.8934-6.6252 0.76115-2.1302 1.4897-4.2007 1.619-4.6009 0.21591-0.66828 0.05665-0.65521-1.949 0.15998-3.5769 1.4538-10.954 3.8964-13.459 4.4562-2.5774 0.57609-2.7573 0.91244-1.7636 3.2985 0.85241 2.0469 2.1251 3.4967 4.0775 4.6449 1.7288 1.0167 5.7665 1.8901 7.3355 1.5868 0.44692-0.0864 1.0204-0.15962 1.2744-0.16267zm13.555-3.1535c2.1229-0.77793 6.4194-2.6488 9.5478-4.1576l5.688-2.7431 2.1516-3.6601c8.2236-13.989 23.445-29.189 40.174-40.118 7.2929-4.7642 15.607-8.6311 20.464-9.5179 1.1887-0.21702 1.6629-0.63508 2.723-2.4006 4.2916-7.1474 5.4813-12.826 3.5007-16.709-1.1208-2.1977-4.1282-3.3363-7.7083-2.9184-1.8925 0.22091-2.1388 0.37306-2.7767 1.7153-1.0512 2.212-5.2486 8.353-8.6922 12.717-3.9055 4.9493-18.765 19.855-24.863 24.94-12.344 10.294-27.837 20.81-38.813 26.347-2.3008 1.1606-2.5492 1.4279-3.7417 4.0271-2.2083 4.8132-3.7479 10.329-3.7479 13.428 0 1.202 0.3902 1.1412 6.0943-0.94916zm-32.522-15.301c0.71583-2.0742 2.3895-5.8605 3.7193-8.4141 1.3298-2.5536 2.3585-4.7023 2.2861-4.7749-0.07241-0.0727-2.0431 0.48697-4.3794 1.2436-3.6347 1.1772-5.7947 1.6996-12.126 2.9329-0.93984 0.18308-0.96368 0.27954-0.73767 2.9848 0.39234 4.6962 2.5116 7.6566 6.4609 9.0254 3.3791 1.1712 3.3264 1.2043 4.7766-2.9977zm64.213-1.6554c14.449-9.6021 29.065-21.768 38.217-31.81 5.0562-5.548 7.9191-9.1519 7.558-9.5142-0.41619-0.41764-5.0859 1.4374-9.6149 3.8195-11.274 5.9298-25.097 17.408-35.251 29.273-3.6682 4.2862-9.4411 12.422-9.4411 13.305 0 0.50284 1.3342-0.29063 8.5321-5.074zm-55.18 4.3929c4.4352-0.93421 8.0841-2.0834 13.838-4.3582 4.598-1.8178 5.2771-2.2127 6.063-3.5257 1.8685-3.1217 8.9532-12.274 12.822-16.564 11.328-12.561 25.771-24.959 40.016-34.349 6.198-4.086 17.052-9.7151 21.293-11.043l2.8958-0.9069 1.0207-2.3315c1.623-3.7073 2.0405-5.3768 2.0567-8.2259 0.0299-5.2545-3.029-8.1777-8.5442-8.165-3.0148 7e-3 -7.5374 0.91366-7.75 1.5538-0.40173 1.2093-5.2038 8.4459-8.0364 12.111-15.379 19.896-42.116 41.767-66.011 53.997l-4.6843 2.3974-1.6978 2.986c-3.3818 5.9476-6.6072 14.019-6.6072 16.534 0 0.63574-0.2444 0.6437 3.3253-0.10828zm34.283-14.512c21.761-12.743 43.16-30.417 55.469-45.813 2.5347-3.1703 5.6502-7.6464 5.6502-8.1177 0-0.36332-4.7563 1.5223-8.092 3.2081-5.8202 2.9414-15.005 9.0358-21.755 14.435-13.285 10.626-28.104 25.745-35.686 36.407-2.9691 4.1752-2.9182 4.1739 4.4128-0.11912zm-45.531-4.7049c2.7286-0.53264 13.026-3.8247 13.371-4.2744 0.05917-0.0772 1.5428-2.0575 3.2971-4.4005 14.16-18.912 37.007-39.737 56.871-51.835 5.4776-3.3362 14.271-7.6761 17.727-8.7495 1.9286-0.59891 2.4005-0.94235 2.9953-2.1802 2.3387-4.8668 2.93-9.96 1.4729-12.687-1.2173-2.2786-3.7861-3.3676-7.8715-3.337-1.8453 0.0138-4.6855 0.32889-6.3116 0.70016-2.9517 0.67396-2.9582 0.67847-4.0173 2.7803-6.8099 13.515-27.755 34.45-49.703 49.681-6.3204 4.3858-12.406 8.0313-19.287 11.554l-6.4885 3.3217-1.596 2.6138c-3.3071 5.4162-7.976 15.589-7.976 17.378 0 0.68396 1.8232 0.54706 7.5163-0.56433zm-12.054-4.7749c1.1913-2.5497 3.141-6.2638 4.3327-8.2535 1.1916-1.9897 2.1358-3.649 2.0982-3.6873-0.03762-0.0384-1.5302 0.29042-3.3169 0.73058-1.8513 0.45608-4.9391 0.83678-7.179 0.88513l-3.9305 0.0848-0.234 1.1722c-0.1287 0.64468-0.234 2.5809-0.234 4.3028 0 2.5567 0.19426 3.5218 1.0596 5.2644 1.0399 2.094 3.3291 4.1446 4.6211 4.1393 0.38727-9.9e-4 1.4225-1.7272 2.7827-4.6384zm40.132-6.7836c24.549-13.789 50.467-35.909 62.208-53.092 1.0333-1.5123 1.7523-2.8765 1.5977-3.0316-0.44103-0.44257-10.525 4.7742-15.89 8.2206-13.022 8.3651-29.402 22.413-40.751 34.948-8.0299 8.8694-13.612 15.818-12.706 15.818 0.24449 0 2.7381-1.2883 5.5413-2.8628zm-32.474-11.391 3.7299-0.88544 3.6847-4.6638c17.488-22.135 42.537-43.586 62.997-53.95 3.4769-1.7612 7.3913-3.5405 8.6986-3.954 2.9898-0.94575 3.5738-1.8076 3.7878-5.5903 0.20102-3.5526-0.58457-5.4235-2.7288-6.4983-2.8488-1.4281-9.4883-0.71621-15.895 1.7043-2.0814 0.78632-2.3488 1.0315-3.0046 2.7546-0.97148 2.5527-5.5469 9.3488-9.1467 13.586-13.63 16.043-34.244 31.508-50.278 37.72-2.7058 1.0482-3.1268 1.3752-4.93 3.8286-2.8865 3.9275-6.1625 9.1417-8.1727 13.008-1.4684 2.8241-1.6667 3.4616-1.1808 3.7959 0.92048 0.63318 8.3097 0.12511 12.44-0.85526zm-14.361-7.6733c1.5268-2.3733 3.5837-5.3683 4.5707-6.6556 0.98709-1.2873 1.7947-2.425 1.7947-2.5283 0-0.10334-1.1454-0.0956-2.5454 0.0172-1.6481 0.13276-3.4499-0.0275-5.1114-0.45465-1.4113-0.36283-2.6354-0.65969-2.7201-0.65969-0.0847 0-0.52701 1.2119-0.98291 2.693-1.4179 4.6066-1.009 10.413 0.89538 12.716 0.42168 0.50986 0.5448 0.49474 0.90546-0.11119 0.22958-0.38571 1.6666-2.6431 3.1935-5.0164zm32.934 0.19846c10.274-5.3326 22.294-13.582 33.492-22.986 5.6673-4.7592 18.446-17.457 21.878-21.74 3.2205-4.0186 6.8023-9.3414 6.4942-9.6506-0.70574-0.70821-12.148 5.2965-19.568 10.269-15.851 10.622-33.313 27.061-45.961 43.269-2.5154 3.2233-2.8765 3.8146-2.3293 3.8146 0.14392 0 2.8407-1.3386 5.9928-2.9746zm-20.26-16.994c18.31-20.72 39.516-38.113 57.783-47.393l4.977-2.5285v-2.2686c0-3.658-1.7929-5.304-5.7776-5.304-15.109 0-51.63 28.732-67.851 53.38-2.5397 3.859-2.7306 4.2907-2.0649 4.6704 1.6524 0.94241 4.5856 1.4515 7.855 1.3635l3.4649-0.0934zm10.589-2.6242c14.008-6.6588 32.575-20.584 42.357-31.766 4.9476-5.6563 9.1929-12.041 8.4814-12.755-0.14305-0.14356-2.0646 0.76426-4.2701 2.0174-11.83 6.7214-23.753 16.022-36.283 28.3-6.1377 6.0148-14.182 14.67-14.52 15.622-0.22369 0.62964 0.28048 0.4607 4.2349-1.419z" stroke="#000" stroke-linecap="round" stroke-linejoin="round" stroke-width="4"/></svg>
