<svg xmlns="http://www.w3.org/2000/svg" xml:space="preserve" width="192" height="192" viewBox="0 0 192 192"><path stroke="#000" stroke-linecap="round" stroke-linejoin="round" stroke-width="4" d="M83.957 173.79c-4.45-.632-9.049-3.683-10.696-7.098l-.848-1.757-1.861.399c-3.078.659-10.593.188-12.784-.8-4.208-1.9-6.591-5.147-7.367-10.039l-.494-3.118H47.17c-5.541 0-9.74-2.765-12.24-8.062-1.211-2.565-1.293-3.024-1.274-7.11l.02-4.368-1.239-.262c-2.042-.433-5.855-2.652-7.205-4.196-.696-.795-1.741-2.463-2.322-3.707-1.491-3.19-1.435-8.147.148-13.04l1.113-3.44-1.159-.839c-6.101-4.418-6.638-12.223-1.577-22.944l1.842-3.902-.871-2.397c-1.242-3.42-.92-7.589.945-12.252 5.97-14.92 21.158-30.292 39.334-39.81 6.447-3.376 8.105-4.01 8.566-3.279.543.86.457 1.072-.542 1.33-1.36.35-10.165 5.347-14.133 8.02-16.454 11.083-28.895 27.687-28.813 38.454l.02 2.506 1.098-1.415C39.53 56.95 51.329 45.2 64.107 35.585c15.096-11.358 27.997-17.547 36.65-17.584 2.724-.011 3.635.155 4.963.904 1.948 1.099 2.875 2.864 2.875 5.476 0 1.66.096 1.881.711 1.642 2.58-1.003 8.04-2.32 10.47-2.527 7.438-.63 11.67 3.376 10.472 9.916-.24 1.31-.369 2.453-.287 2.541.081.088 1.189-.05 2.46-.306 2.85-.574 7.973-.6 9.944-.051 2.258.63 4.117 2.084 5.222 4.086 1.375 2.493 1.323 6.346-.143 10.584a216.322 216.322 0 0 0-1.061 3.105c-.001.026.774-.104 1.724-.288s3.19-.341 4.977-.349c4.217-.018 6.93 1.144 8.607 3.688 2.067 3.133 1.733 8.89-.88 15.146-.265.636-.016.715 2.285.723 5.702.02 8.545 2.995 8.518 8.913-.015 3.221-1.104 6.816-3.326 10.985-.877 1.643-1.593 3.044-1.593 3.113 0 .07.821.25 1.826.401 3.374.508 5.493 3.15 5.478 6.83-.053 13.297-27.327 42.467-55.699 59.57-2.818 1.699-6.155 3.596-7.415 4.216-1.26.62-2.29 1.26-2.29 1.42 0 .59 4.34.807 7.11.358 15.107-2.449 35.142-16.8 46.82-33.537 1.27-1.82 1.732-2.224 2.073-1.812.328.396.081 1.126-.971 2.88-9.174 15.28-28.6 31.01-45.083 36.506-6.671 2.224-13.011 2.315-16.994.244l-1.966-1.023-3.441 1c-1.893.551-4.573 1.112-5.957 1.247-1.384.135-2.881.299-3.328.364-.447.065-1.753-.015-2.902-.178zm10.971-7.179 1.885-.26.007-3.307c.004-1.82.254-4.363.556-5.653.302-1.29.48-2.344.394-2.344-.086 0-2.302 1.073-4.924 2.384-2.622 1.31-6.367 3.008-8.321 3.77-1.955.764-3.554 1.517-3.555 1.675-.003.575 3.549 2.716 5.505 3.319 2.17.668 5.448.83 8.454.416zm13.649-4.42c23.752-10.713 53.465-36.11 61.685-52.727 1.57-3.172 1.923-4.307 2.051-6.59.145-2.565.074-2.85-1.005-4.058-1.198-1.342-4.069-2.332-5.37-1.85-.366.134-2.173 2.296-4.016 4.802-10.092 13.727-29.165 30.884-48.654 43.765-3.799 2.511-7.322 4.899-7.83 5.307-1.236.993-2.288 5.976-1.921 9.1.297 2.526.622 4.076.854 4.076.086 0 1.98-.821 4.206-1.826zm-37.101-3.061c.254-.003.691-1.244.971-2.758s1.133-4.495 1.894-6.625c.76-2.13 1.49-4.2 1.619-4.601.216-.668.056-.655-1.95.16-3.576 1.454-10.953 3.896-13.458 4.456-2.578.576-2.758.913-1.764 3.299.853 2.046 2.125 3.496 4.078 4.644 1.728 1.017 5.766 1.89 7.335 1.587.447-.086 1.02-.16 1.275-.162zm13.555-3.154c2.123-.778 6.42-2.649 9.548-4.157l5.688-2.744 2.151-3.66c8.224-13.989 23.445-29.189 40.174-40.118 7.293-4.764 15.607-8.63 20.464-9.518 1.19-.217 1.663-.635 2.723-2.4 4.292-7.148 5.482-12.826 3.501-16.71-1.12-2.197-4.128-3.335-7.708-2.918-1.893.221-2.139.373-2.777 1.716-1.051 2.212-5.248 8.353-8.692 12.717-3.906 4.949-18.765 19.855-24.863 24.94-12.344 10.294-27.837 20.81-38.813 26.347-2.3 1.16-2.55 1.428-3.742 4.027-2.208 4.813-3.748 10.329-3.748 13.428 0 1.202.39 1.141 6.095-.95zm-32.522-15.3c.716-2.075 2.39-5.861 3.72-8.415 1.33-2.554 2.358-4.702 2.285-4.775-.072-.073-2.043.487-4.379 1.244-3.635 1.177-5.795 1.7-12.126 2.933-.94.183-.964.28-.738 2.984.393 4.697 2.512 7.657 6.461 9.026 3.38 1.171 3.327 1.204 4.777-2.998zm64.213-1.656c14.449-9.602 29.065-21.768 38.217-31.81 5.056-5.548 7.92-9.152 7.558-9.514-.416-.418-5.086 1.437-9.615 3.819-11.274 5.93-25.097 17.408-35.25 29.273-3.67 4.286-9.442 12.422-9.442 13.305 0 .503 1.334-.29 8.532-5.074zm-55.18 4.393c4.435-.935 8.084-2.084 13.838-4.359 4.598-1.817 5.277-2.212 6.063-3.525 1.869-3.122 8.953-12.274 12.822-16.564 11.328-12.561 25.771-24.96 40.016-34.35 6.198-4.085 17.052-9.714 21.293-11.042l2.896-.907 1.02-2.332c1.624-3.707 2.041-5.376 2.057-8.226.03-5.254-3.029-8.177-8.544-8.165-3.015.007-7.537.914-7.75 1.554-.402 1.21-5.204 8.446-8.036 12.111-15.38 19.896-42.116 41.767-66.011 53.997l-4.685 2.398-1.697 2.986c-3.382 5.947-6.608 14.019-6.608 16.534 0 .635-.244.643 3.326-.109zM95.825 128.9c21.761-12.743 43.16-30.417 55.469-45.813 2.535-3.17 5.65-7.647 5.65-8.118 0-.363-4.756 1.522-8.092 3.208-5.82 2.941-15.005 9.036-21.755 14.435-13.285 10.626-28.104 25.745-35.686 36.407-2.969 4.175-2.918 4.174 4.413-.12zm-45.531-4.705c2.729-.533 13.026-3.825 13.371-4.275.06-.077 1.543-2.057 3.297-4.4 14.16-18.912 37.007-39.737 56.871-51.835 5.478-3.336 14.271-7.676 17.727-8.75 1.929-.599 2.4-.942 2.995-2.18 2.34-4.867 2.93-9.96 1.473-12.687-1.217-2.278-3.786-3.367-7.871-3.337-1.845.014-4.686.329-6.312.7-2.951.674-2.958.679-4.017 2.78-6.81 13.516-27.755 34.45-49.703 49.682a164.018 164.018 0 0 1-19.287 11.554l-6.489 3.321-1.596 2.614c-3.307 5.416-7.976 15.59-7.976 17.378 0 .684 1.824.547 7.517-.564zM38.24 119.42c1.191-2.55 3.141-6.264 4.333-8.254 1.191-1.99 2.136-3.649 2.098-3.687-.038-.038-1.53.29-3.317.73-1.851.457-4.94.837-7.179.886l-3.93.085-.234 1.172c-.13.644-.234 2.58-.234 4.303 0 2.556.194 3.521 1.06 5.264 1.039 2.094 3.328 4.145 4.62 4.14.387-.002 1.423-1.728 2.783-4.64zm40.132-6.784c24.549-13.789 50.467-35.909 62.208-53.092 1.033-1.512 1.752-2.876 1.598-3.031-.441-.443-10.525 4.774-15.89 8.22-13.022 8.365-29.402 22.413-40.751 34.948-8.03 8.87-13.612 15.818-12.706 15.818.244 0 2.738-1.288 5.541-2.863zm-32.474-11.39 3.73-.886 3.685-4.664C70.8 73.562 95.85 52.111 116.31 41.747c3.477-1.761 7.39-3.54 8.698-3.954 2.99-.946 3.574-1.808 3.788-5.59.201-3.553-.585-5.424-2.729-6.499-2.849-1.428-9.488-.716-15.895 1.705-2.081.786-2.349 1.031-3.004 2.754-.972 2.553-5.547 9.35-9.147 13.586-13.63 16.043-34.244 31.508-50.278 37.72-2.706 1.048-3.127 1.375-4.93 3.829-2.887 3.927-6.163 9.142-8.173 13.008-1.468 2.824-1.666 3.461-1.18 3.796.92.633 8.31.125 12.44-.855zm-14.361-7.674c1.527-2.373 3.584-5.368 4.57-6.656.988-1.287 1.795-2.425 1.795-2.528 0-.103-1.145-.096-2.545.017a15.875 15.875 0 0 1-5.111-.454c-1.412-.363-2.636-.66-2.72-.66-.085 0-.528 1.212-.983 2.693-1.418 4.606-1.01 10.413.895 12.716.422.51.545.495.905-.111.23-.386 1.667-2.643 3.194-5.017zm32.934.198C74.745 88.44 86.765 80.19 97.963 70.785c5.667-4.759 18.446-17.457 21.878-21.74 3.22-4.018 6.802-9.341 6.494-9.65-.706-.708-12.148 5.296-19.568 10.269-15.85 10.622-33.313 27.06-45.96 43.269-2.516 3.223-2.877 3.814-2.33 3.814.144 0 2.84-1.338 5.993-2.974zm-20.26-16.994c18.31-20.72 39.516-38.113 57.783-47.393l4.977-2.528v-2.269c0-3.658-1.793-5.304-5.778-5.304-15.109 0-51.63 28.732-67.85 53.38-2.54 3.86-2.731 4.291-2.065 4.67 1.652.943 4.585 1.452 7.855 1.364l3.464-.093zM54.8 74.153c14.008-6.659 32.575-20.584 42.357-31.766 4.948-5.656 9.193-12.04 8.481-12.755-.143-.143-2.064.764-4.27 2.018-11.83 6.721-23.753 16.022-36.283 28.3-6.137 6.014-14.182 14.67-14.52 15.622-.223.63.28.46 4.235-1.42z"/></svg>