<svg xmlns="http://www.w3.org/2000/svg" width="192" height="192" viewBox="0 0 192 192"><path fill="none" stroke="#000" stroke-linecap="round" stroke-linejoin="round" stroke-width="8" d="M79.42 64.611a4.772 4.772 0 1 1 5.691-3.535 4.772 4.772 0 0 1-5.691 3.535m-16.049 0a4.772 4.772 0 1 1 5.691-3.535 4.772 4.772 0 0 1-5.691 3.535m-16.579 0a4.772 4.772 0 1 1 5.691-3.535 4.772 4.772 0 0 1-5.691 3.535m76.426 15.907V69.1a1.273 1.273 0 0 1 2.015-1.167l14.882 10.605c.813.743 1.237 1.591.212 2.475l-15.094 12.019a1.308 1.308 0 0 1-2.015-1.202V80.518m-.672 30.613a31.815 31.815 0 1 1 .177 0M172 96.001a76.001 76.001 0 1 1-76-76 76.037 76.037 0 0 1 76 76zM63.62 164.756v-2.192a34.819 34.819 0 0 0-34.784-34.749h-1.873m59.423 43.586a51.646 51.646 0 0 0 .565-8.236 58.786 58.786 0 0 0-58.786-58.645h-.424a54.509 54.509 0 0 0-7.07.495m15.695-24.497h61.791m12.69 90.035a75.542 75.542 0 0 0 .39-7.99 82.364 82.364 0 0 0-82.4-82.363h-.213c-2.333 0-4.702 0-7.07.318m139.28 0h8.696" class="a"/></svg>