<?xml version="1.0" encoding="UTF-8"?>
<svg id="SVGRoot" width="192px" height="192px" version="1.1" viewBox="0 0 192 192" xmlns="http://www.w3.org/2000/svg">
 <path class="a" d="m79.42 64.611a4.7722 4.7722 0 1 1 5.6913-3.535 4.7722 4.7722 0 0 1-5.6913 3.535m-16.049 0a4.7722 4.7722 0 1 1 5.6913-3.535 4.7722 4.7722 0 0 1-5.6913 3.535m-16.579 0a4.7722 4.7722 0 1 1 5.6913-3.535 4.7722 4.7722 0 0 1-5.6913 3.535m76.426 15.907v-11.418a1.2726 1.2726 0 0 1 2.0149-1.1665l14.882 10.605c0.81304 0.74234 1.2372 1.5907 0.2121 2.4745l-15.094 12.019a1.3079 1.3079 0 0 1-2.0149-1.2019v-11.312m-0.67164 30.613a31.815 31.815 0 1 1 0.17675 0m49.277-15.13a76.001 76.001 0 1 1-76.001-76.001 76.037 76.037 0 0 1 76.001 76.001zm-108.38 68.755v-2.1917a34.819 34.819 0 0 0-34.784-34.749h-1.8735m59.423 43.586a51.646 51.646 0 0 0 0.56559-8.2364 58.786 58.786 0 0 0-58.786-58.645h-0.42419a54.509 54.509 0 0 0-7.0699 0.49489m15.695-24.497h61.791m12.69 90.035a75.542 75.542 0 0 0 0.38885-7.989 82.364 82.364 0 0 0-82.4-82.364h-0.2121c-2.3331 0-4.7015 0-7.0699 0.31816m139.28 0h8.696" fill="none" stroke="#000" stroke-linecap="round" stroke-linejoin="round" stroke-width="8"/>
</svg>
