<?xml version="1.0" encoding="UTF-8"?>
<svg id="SVGRoot" width="192px" height="192px" version="1.1" viewBox="0 0 192 192" xmlns="http://www.w3.org/2000/svg">
 <g fill="none" stroke="#000" stroke-linecap="round" stroke-linejoin="round" stroke-width="8">
  <rect class="a" x="56.358" y="53.251" width="79.284" height="30.611"/>
  <ellipse class="a" cx="72.012" cy="112.71" rx="10.358" ry="9.8519"/>
  <ellipse class="a" cx="120.13" cy="112.71" rx="10.358" ry="9.8519"/>
  <line class="a" x1="89.234" x2="102.77" y1="35.35" y2="35.35"/>
  <path class="a" d="m125.13 27.917h-6.9051l-1.3034-3.1293a7.9696 7.5805 0 0 0-7.4091-4.7876h-27.026a7.9696 7.5805 0 0 0-7.4091 4.7876l-1.3034 3.1293h-6.9055a27.712 26.359 0 0 0-27.712 26.36v63.099a24.321 23.134 0 0 0 24.321 23.134h65.043a24.321 23.134 0 0 0 24.322-23.134v-63.099a27.712 26.359 0 0 0-27.712-26.36z"/>
  <line class="a" x1="74.792" x2="45.384" y1="140.51" y2="172"/>
  <line class="a" x1="135.64" x2="56.358" y1="160.56" y2="160.56"/>
  <line class="a" x1="126.19" x2="65.805" y1="150.19" y2="150.19"/>
  <line class="a" x1="117.21" x2="146.62" y1="140.51" y2="172"/>
 </g>
</svg>
