<svg xmlns="http://www.w3.org/2000/svg" width="192" height="192" viewBox="0 0 192 192"><g fill="none" stroke="#000" stroke-linecap="round" stroke-linejoin="round" stroke-width="8"><path d="M56.358 53.251h79.284v30.611H56.358z" class="a"/><ellipse cx="72.012" cy="112.71" class="a" rx="10.358" ry="9.852"/><ellipse cx="120.13" cy="112.71" class="a" rx="10.358" ry="9.852"/><path d="M89.234 35.35h13.536M125.13 27.917h-6.905l-1.304-3.13A7.97 7.58 0 0 0 109.512 20H82.486a7.97 7.58 0 0 0-7.409 4.788l-1.303 3.129h-6.906a27.712 26.359 0 0 0-27.712 26.36v63.099a24.321 23.134 0 0 0 24.321 23.134h65.043a24.321 23.134 0 0 0 24.322-23.134V54.277a27.712 26.359 0 0 0-27.712-26.36zM74.792 140.51 45.384 172M135.64 160.56H56.358M126.19 150.19H65.805M117.21 140.51 146.62 172" class="a"/></g></svg>