<?xml version="1.0" encoding="UTF-8"?>
<svg width="192" height="192" version="1.1" viewBox="0 0 192 192" xmlns="http://www.w3.org/2000/svg">
 <path class="st1" d="m91.579 175.02-48.421-20.07c-2.6667-1.1228-4.9123-3.3684-6.0351-6.0351l-20.211-48.842c-1.1228-2.6667-1.1228-5.7544 0-8.5614l20.211-48.561c1.1228-2.6667 3.2281-4.9123 6.0351-6.0351l48.561-20.07c2.6667-1.1228 5.7544-1.1228 8.5614 0l48.561 20.211c2.6667 1.1228 4.9123 3.2281 6.0351 6.0351l20.211 48.561c1.1228 2.6667 1.1228 5.7544 0 8.5614l-20.211 48.842c-1.1228 2.807-3.3684 4.9123-6.0351 6.0351l-48.702 20.07c-2.807 0.98246-5.8947 0.98246-8.5614-0.14035z" fill="none" stroke-width="1.4035"/>
 <g>
  <g stroke-width="1.4035">
   <path class="st3" d="m174.95 91.649-20.211-48.561c-1.1228-2.6667-3.2281-4.9123-6.0351-6.0351l-48.561-20.211c-1.4035-0.5614-2.807-0.8421-4.2105-0.8421s-2.9474 0.2807-4.2105 0.8421l-48.561 20.211c-2.6667 1.1228-4.9123 3.2281-6.0351 6.0351l-20.211 48.561c-1.1228 2.6667-1.1228 5.7544 0 8.5614l20.211 48.842c1.1228 2.6667 3.3684 4.9123 6.0351 6.0351l48.421 20.07c1.4035 0.56141 2.807 0.84211 4.2105 0.84211s2.9474-0.2807 4.2105-0.84211l48.702-20.07c2.807-1.1228 4.9123-3.3684 6.0351-6.0351l20.211-48.842c1.1228-2.807 1.1228-5.8947 0-8.5614zm-10.105 5.7544-19.228 46.316c-0.42105 0.98245-1.2632 1.8246-2.2456 2.1053l-46.035 19.228c-0.42105 0.14035-0.98246 0.2807-1.5439 0.2807-0.56141 0-0.98246-0.14035-1.5439-0.2807l-45.895-19.088c-0.98246-0.42105-1.8246-1.1228-2.1053-2.1053l-19.228-46.316c-0.42105-0.98246-0.42105-2.1053 0-3.0877l19.228-46.175c0.42105-0.98246 1.1228-1.6842 2.1053-2.1053l46.035-19.088c0.42105-0.14035 0.98246-0.2807 1.5439-0.2807s0.98246 0.14035 1.5439 0.2807l46.035 19.088c0.98245 0.42105 1.6842 1.1228 2.1053 2.1053l19.088 46.175c0.5614 0.84211 0.5614 1.9649 0.14035 2.9474z"/>
   <path class="st4" d="m135.65 129.82h-12.351c-3.5088 0-7.0175-1.4035-9.4035-3.9298l-18.386-20.632-18.386 20.632c-2.5263 2.5263-5.8947 3.9298-9.4035 3.9298h-12.351v-69.053h13.333v55.719l26.807-28.912 26.807 28.912v-55.719h13.333z" fill-opacity=".50196"/>
   <path class="st5" d="m135.65 130.11h-12.351c-3.5088 0-7.0175-1.4035-9.4035-3.9298l-18.386-20.632-18.246 20.632c-2.5263 2.5263-5.8947 3.9298-9.4035 3.9298h-12.351v-69.053h13.333v55.719l26.807-28.912 26.807 28.912v-55.719h13.333v69.053z"/>
   <path class="st6" d="m113.89 125.89-18.386-20.632-18.386 20.632c-2.5263 2.5263-5.8947 3.9298-9.4035 3.9298h-12.351v1.9649h12.351c3.5088 0 7.0175-1.4035 9.4035-3.9298l18.386-20.632 18.386 20.632c2.5263 2.5263 5.8947 3.9298 9.4035 3.9298h12.351v-1.9649h-12.351c-3.3684 0-6.8772-1.4035-9.4035-3.9298z" fill-opacity=".50196"/>
  </g>
  <g transform="matrix(1.4035 0 0 1.4035 -114.6 -4.3509)" fill-opacity=".50196">
   <polygon class="st7" points="168.8 86.1 149.8 65.5 130.7 86.1 130.7 86.6 149.8 66 168.8 86.6"/>
   <rect class="st7" x="121.2" y="46.4" width="9.5" height=".5"/>
   <rect class="st7" x="168.8" y="46.4" width="9.5" height=".5"/>
  </g>
 </g>
</svg>
