<?xml version="1.0" encoding="UTF-8"?>
<svg id="SVGRoot" width="192px" height="192px" version="1.1" viewBox="0 0 192 192" xmlns="http://www.w3.org/2000/svg">
 <g stroke-linecap="round" stroke-linejoin="round">
  <path class="a" d="m163.78 20h-135.57a8.2162 8.2162 0 0 0-8.2162 8.2162v135.57a8.2162 8.2162 0 0 0 8.2162 8.2162h135.57a8.2162 8.2162 0 0 0 8.2162-8.2162v-135.57a8.2162 8.2162 0 0 0-8.2162-8.2162z" fill="none" stroke="#000" stroke-width="8"/>
  <rect x="93.768" y="43.791" width="52" height="52" rx="1.7464" ry="1.7464" fill="none" stroke="#111" stroke-width="8" style="paint-order:stroke fill markers"/>
  <g transform="matrix(3.3293 0 0 3.3291 -803.17 -82.379)" fill="none" stroke="#111" stroke-width="2.403">
   <g fill="none" stroke="#111" stroke-linecap="round" stroke-linejoin="round" stroke-width="2.403">
    <polyline class="st5" points="280 40.65 278 48.65 276 40.65 274 48.65 272 40.65" fill="none" stroke="#111" stroke-linecap="round" stroke-linejoin="round" stroke-miterlimit="10" stroke-width="2.403"/>
   </g>
  </g>
  <g transform="matrix(1.3103 0 0 1.1164 10.928 53.059)" stroke="#111" stroke-width=".8268">
   <polyline class="st5" points="97.477 32.65 97.477 24.65 93.183 30.024 98.483 30.024" fill="none" stroke="#111" stroke-linecap="round" stroke-linejoin="round" stroke-miterlimit="10" stroke-width=".8268"/>
  </g>
  <rect x="42.578" y="90.399" width="52" height="52" rx="1.7464" ry="1.7464" fill="none" stroke="#111" stroke-width="8" style="paint-order:stroke fill markers"/>
  <path class="st5" d="m72.285 117.04v0.1065c0 4.7566-4.5359 8.6125-10.131 8.6125-5.5953 0-10.131-3.8559-10.131-8.6125v-8.775c0-4.7566 4.5359-8.6125 10.131-8.6125h3e-5c5.5953 0 10.131 3.856 10.131 8.6125v0.1065" fill="none" stroke="#000" stroke-miterlimit="10" stroke-width="8"/>
  <g transform="translate(-2.7839 101.76)" fill="none" stroke="#000" stroke-miterlimit="10">
   <path class="st5" d="m83.151 31.975c0.55226 0.46275 1.1485 0.6748 2.4876 0.6748h0.81197c1.1043 0 1.9995-0.89522 1.9995-1.9995v-4e-6c0-1.1043-0.89522-1.9995-1.9995-1.9995"/>
   <path class="st5" d="m83.15 25.318c0.5535-0.46128 1.1503-0.67173 2.4894-0.66814l0.81107 0.0018c1.1043 0 1.9995 0.89522 1.9995 1.9995v4e-6c0 1.1043-0.89522 1.9995-1.9995 1.9995"/>
   <line class="st5" x1="84.414" x2="86.451" y1="28.651" y2="28.651"/>
  </g>
  <g transform="matrix(4.25 0 0 4.25 -743.13 -287.26)" fill="none" stroke="#000" stroke-miterlimit="10" stroke-width="1.8824">
   <line class="st5" x1="184" x2="188" y1="78" y2="78"/>
   <line class="st5" x1="186" x2="186" y1="76" y2="80"/>
  </g>
 </g>
</svg>
