<svg xmlns="http://www.w3.org/2000/svg" width="192" height="192" viewBox="0 0 192 192"><g fill="none" stroke="#000" stroke-linecap="round" stroke-linejoin="round" stroke-width="12"><path d="M110.9 22h8.43l27.012 120.42M163.43 156.39a13.606 13.606 0 0 1-13.606 13.606 13.606 13.606 0 0 1-13.606-13.606 13.606 13.606 0 0 1 13.606-13.606 13.606 13.606 0 0 1 13.606 13.606zM55.784 156.39a13.606 13.606 0 0 1-13.606 13.606 13.606 13.606 0 0 1-13.606-13.606 13.606 13.606 0 0 1 13.606-13.606 13.606 13.606 0 0 1 13.606 13.606z" style="paint-order:stroke fill markers"/><path d="M56.334 157.13h59.175l26.127-33.52M48.995 37.838v7.041l13.16 7.204 5.207-3.418" style="paint-order:stroke fill markers"/><path d="M62.656 51.621v15.783l4.702 3.363M61.964 66.884l-12.482 8.95v5.303M49.37 75.973l-14.007-8.539-5.598 3.296" style="paint-order:stroke fill markers"/><path d="M34.938 68.135V52.277l-5.377-3.435M36.176 52.623l13.031-8.225" style="paint-order:stroke fill markers"/></g></svg>