<svg xmlns="http://www.w3.org/2000/svg" width="192" height="192" viewBox="0 0 192 192"><g fill="none" stroke="#000" stroke-linecap="round" stroke-linejoin="round" stroke-width="12"><path d="M110.9 22h8.43l27.012 120.42m17.088 13.97a13.606 13.606 0 0 1-13.606 13.606 13.606 13.606 0 0 1-13.606-13.606 13.606 13.606 0 0 1 13.606-13.606 13.606 13.606 0 0 1 13.606 13.606zm-107.646 0a13.606 13.606 0 0 1-13.606 13.606 13.606 13.606 0 0 1-13.606-13.606 13.606 13.606 0 0 1 13.606-13.606 13.606 13.606 0 0 1 13.606 13.606z" style="paint-order:stroke fill markers"/><path d="M56.334 157.13h59.175l26.127-33.52M48.995 37.838v7.041l13.16 7.204 5.207-3.418" style="paint-order:stroke fill markers"/><path d="M62.656 51.621v15.783l4.702 3.363m-5.394-3.883-12.482 8.95v5.303m-.112-5.164-14.007-8.539-5.598 3.296" style="paint-order:stroke fill markers"/><path d="M34.938 68.135V52.277l-5.377-3.435m6.615 3.781 13.031-8.225" style="paint-order:stroke fill markers"/></g></svg>